<svg xmlns="http://www.w3.org/2000/svg" width="154" height="154" viewBox="0 0 154 154">
  <g id="Grupo_1196038" data-name="Grupo 1196038" transform="translate(-713 -11066.292)">
    <g id="Grupo_1195965" data-name="Grupo 1195965">
      <g id="Grupo_1195438" data-name="Grupo 1195438" transform="translate(402.942 3695.292)">
        <circle id="Elipse_13624" data-name="Elipse 13624" cx="77" cy="77" r="77" transform="translate(310.059 7371)" fill="#fff"/>
      </g>
      <g id="ropa" transform="translate(731.185 11098.732)">
        <path id="Trazado_1017063" data-name="Trazado 1017063" d="M185.3,200.461H125.388a1.888,1.888,0,0,1-1.888-1.888V142.182a2.057,2.057,0,0,1,1.554-1.994l15.386-3.878a10.773,10.773,0,0,1,2.633-.327h24.541a10.773,10.773,0,0,1,2.633.327l15.386,3.878a2.057,2.057,0,0,1,1.554,1.994v56.391A1.888,1.888,0,0,1,185.3,200.461Z" transform="translate(-87.866 -112.19)" fill="#fedba6"/>
        <path id="Trazado_1017064" data-name="Trazado 1017064" d="M247.231,140.189l-15.386-3.878a10.773,10.773,0,0,0-2.633-.327H204.67a10.773,10.773,0,0,0-2.633.327l-3.877.977a10.764,10.764,0,0,1,1.259-.075H223.96a10.773,10.773,0,0,1,2.633.327l15.386,3.878a2.057,2.057,0,0,1,1.554,1.994V199.8a1.88,1.88,0,0,1-.12.658H246.9a1.888,1.888,0,0,0,1.888-1.888V142.183A2.057,2.057,0,0,0,247.231,140.189Z" transform="translate(-149.463 -112.191)" fill="#fece85"/>
        <path id="Trazado_1017065" data-name="Trazado 1017065" d="M439.5,377.667h8.4V384.9h-8.4Z" transform="translate(-348.577 -311.587)" fill="#f9f3f1"/>
        <path id="Trazado_1017066" data-name="Trazado 1017066" d="M457.5,377.667h5.249V384.9H457.5Z" transform="translate(-363.427 -311.587)" fill="#f3eae6"/>
        <path id="Trazado_1017067" data-name="Trazado 1017067" d="M439.5,273.4h8.4v7.232h-8.4Z" transform="translate(-348.577 -225.568)" fill="#f9f3f1"/>
        <path id="Trazado_1017068" data-name="Trazado 1017068" d="M457.5,273.4h5.249v7.232H457.5Z" transform="translate(-363.427 -225.568)" fill="#f3eae6"/>
        <path id="Trazado_1017069" data-name="Trazado 1017069" d="M137.3,151.828H77.388A1.888,1.888,0,0,1,75.5,149.94V93.549a2.057,2.057,0,0,1,1.554-1.994L92.44,87.677a10.773,10.773,0,0,1,2.633-.327h24.541a10.773,10.773,0,0,1,2.633.327l15.386,3.878a2.057,2.057,0,0,1,1.554,1.994V149.94A1.888,1.888,0,0,1,137.3,151.828Z" transform="translate(-48.264 -72.066)" fill="#2ed19b"/>
        <path id="Trazado_1017071" data-name="Trazado 1017071" d="M86.3,105.994H26.388a1.888,1.888,0,0,1-1.888-1.888V47.715a2.057,2.057,0,0,1,1.554-1.994L41.44,41.843a10.773,10.773,0,0,1,2.633-.327H68.615a10.773,10.773,0,0,1,2.633.327l15.386,3.878a2.057,2.057,0,0,1,1.554,1.994v56.391a1.888,1.888,0,0,1-1.888,1.888Z" transform="translate(-6.188 -34.252)" fill="#1e3a8a"/>
        <path id="Trazado_1017073" data-name="Trazado 1017073" d="M196.029,66.927h-3.821a.715.715,0,0,1-.715-.715V49.451h5.251V66.212A.715.715,0,0,1,196.029,66.927Z" transform="translate(-143.963 -40.798)" fill="#f3eae6"/>
        <g id="Grupo_1195961" data-name="Grupo 1195961" transform="translate(31.955 1.313)">
          <path id="Trazado_1017074" data-name="Trazado 1017074" d="M120.672,14.933l-12.951-7.3A1.065,1.065,0,0,0,106.294,8l-3.67,5.964a1.032,1.032,0,0,0,.423,1.467l11.269,5.546A1.692,1.692,0,0,0,116.4,20.5Z" transform="translate(-102.471 -7.5)" fill="#f9f3f1"/>
          <path id="Trazado_1017075" data-name="Trazado 1017075" d="M206.5,14.933l12.951-7.3A1.065,1.065,0,0,1,220.878,8l3.67,5.964a1.032,1.032,0,0,1-.423,1.467L212.856,20.98a1.692,1.692,0,0,1-2.087-.483Z" transform="translate(-188.298 -7.5)" fill="#f9f3f1"/>
          <path id="Trazado_1017076" data-name="Trazado 1017076" d="M241.853,13.967,238.183,8a1.065,1.065,0,0,0-1.427-.365l-3.006,1.694,2.853,4.636a1.032,1.032,0,0,1-.423,1.467l-8.7,4.283.6.78a1.693,1.693,0,0,0,2.087.483l11.269-5.546A1.032,1.032,0,0,0,241.853,13.967Z" transform="translate(-205.603 -7.5)" fill="#f3eae6"/>
        </g>
        <path id="Trazado_1017077" data-name="Trazado 1017077" d="M261.491,197.263h-8.554a4.16,4.16,0,0,1-4.16-4.16V178.838a1.171,1.171,0,0,1,1.171-1.171H264.48a1.171,1.171,0,0,1,1.171,1.171V193.1A4.16,4.16,0,0,1,261.491,197.263Z" transform="translate(-191.224 -146.581)" fill="#f9f3f1"/>
        <path id="Trazado_1017078" data-name="Trazado 1017078" d="M299.682,177.667h-5.249a1.171,1.171,0,0,1,1.171,1.171V193.1a4.16,4.16,0,0,1-4.16,4.16h5.249a4.16,4.16,0,0,0,4.16-4.16V178.838A1.171,1.171,0,0,0,299.682,177.667Z" transform="translate(-226.425 -146.581)" fill="#f3eae6"/>
        <path id="Trazado_1017079" data-name="Trazado 1017079" d="M248.778,210h16.874v5.074H248.778Z" transform="translate(-191.225 -173.256)" fill="#fedba6"/>
        <path id="Trazado_1017080" data-name="Trazado 1017080" d="M315.222,210h5.249v5.074h-5.249Z" transform="translate(-246.043 -173.256)" fill="#fece85"/>
        <g id="Grupo_1195962" data-name="Grupo 1195962" transform="translate(17 0.001)">
          <path id="Trazado_1017081" data-name="Trazado 1017081" d="M98.089,26.728l-5.853-1.475V21.486a3.365,3.365,0,0,0-2.546-3.267l-6.378-1.607V13.466A3.365,3.365,0,0,0,80.767,10.2L69.456,7.349a2.346,2.346,0,0,0-.133-.254L65.652,1.13A2.367,2.367,0,0,0,62.463.31L50.156,7.242,37.85.31a2.368,2.368,0,0,0-3.189.82L30.99,7.095a2.332,2.332,0,0,0-.134.254L19.545,10.2A3.365,3.365,0,0,0,17,13.466v6.8a1.312,1.312,0,0,0,2.625,0v-6.8a.744.744,0,0,1,.563-.722L31.3,9.944a2.338,2.338,0,0,0,.654.482l11.27,5.546a3.008,3.008,0,0,0,3-.2v9.645a2.03,2.03,0,0,0,2.027,2.027h3.821a2.03,2.03,0,0,0,2.027-2.027V15.771a3.008,3.008,0,0,0,3,.2l11.269-5.546a2.339,2.339,0,0,0,.654-.482l11.111,2.8a.744.744,0,0,1,.563.722V69.855a.576.576,0,0,1-.576.576H20.2a.576.576,0,0,1-.576-.576V26.331a1.312,1.312,0,0,0-2.625,0V69.855a3.2,3.2,0,0,0,3.2,3.2h5.723v4.819a3.2,3.2,0,0,0,3.2,3.2h5.2v5.309a3.2,3.2,0,0,0,3.2,3.2H87.676a1.312,1.312,0,0,0,0-2.624H37.522a.576.576,0,0,1-.576-.576V81.075H89.036a3.2,3.2,0,0,0,3.2-3.2V74.617l5.774.015V86.384a.576.576,0,0,1-.576.576H93.926a1.312,1.312,0,0,0,0,2.624h3.508a3.2,3.2,0,0,0,3.2-3.2V29.995a3.365,3.365,0,0,0-2.546-3.267ZM44.38,13.617,33.387,8.207l3.381-5.494L48.194,9.149l-3.348,4.364A.382.382,0,0,1,44.38,13.617Zm4.463,11.2v-12.2L50.156,10.9l1.313,1.712v12.2Zm7.09-11.2a.383.383,0,0,1-.466-.1L52.118,9.149,63.544,2.713l3.381,5.494ZM89.611,77.874a.576.576,0,0,1-.576.576H29.123a.576.576,0,0,1-.576-.576V73.055H80.112a3.2,3.2,0,0,0,3.2-3.2V19.318l5.736,1.446a.744.744,0,0,1,.563.722Zm8.4-24.108-5.774-.015V49.143l5.774.015Zm-5.774,2.609,5.774.015v8.4l-5.774-.015Zm5.211-27.1a.744.744,0,0,1,.563.722v16.54l-5.774-.015V27.959Zm-5.211,42.72v-4.6l5.774.015v4.6Z" transform="translate(-17 -0.001)"/>
          <path id="Trazado_1017082" data-name="Trazado 1017082" d="M255.3,192.4a5.479,5.479,0,0,0,5.473-5.472V172.662a2.486,2.486,0,0,0-2.484-2.484H243.762a2.486,2.486,0,0,0-2.484,2.484v14.264a5.479,5.479,0,0,0,5.473,5.472ZM243.9,178.46h14.25v2.45H243.9Zm14.25-5.657v3.033H243.9V172.8ZM243.9,186.926v-3.392h14.25v3.392a2.851,2.851,0,0,1-2.848,2.848H246.75a2.851,2.851,0,0,1-2.848-2.848Z" transform="translate(-202.037 -140.403)"/>
        </g>
      </g>
    </g>
  </g>
</svg>
