<svg xmlns="http://www.w3.org/2000/svg" width="154" height="154" viewBox="0 0 154 154">
  <g id="Grupo_1196039" data-name="Grupo 1196039" transform="translate(-1128.352 -11066.292)">
    <g id="Grupo_1195966" data-name="Grupo 1195966">
      <g id="Grupo_1195967" data-name="Grupo 1195967">
        <g id="Grupo_1195439" data-name="Grupo 1195439" transform="translate(818.293 3695.292)">
          <circle id="Elipse_13624" data-name="Elipse 13624" cx="77" cy="77" r="77" transform="translate(310.059 7371)" fill="#fff"/>
        </g>
        <g id="donar" transform="translate(1154.131 11091.819)">
          <g id="Grupo_1195957" data-name="Grupo 1195957" transform="translate(10.18 1.887)">
            <path id="Trazado_1017053" data-name="Trazado 1017053" d="M101.084,10l15.746,4.509,13.332,21.06L119.04,43.676l-4.086-4.539v38.2H69.21v-38.2l-4.086,4.539L54,35.57l13.332-21.06L83.08,10Z" transform="translate(-54.002 -10.002)" fill="#1e3a8a"/>
            <path id="Trazado_1017054" data-name="Trazado 1017054" d="M226.189,10a9.022,9.022,0,0,1-18.044,0Z" transform="translate(-179.087 -10.002)" fill="#1e3a8a"/>
          </g>
          <g id="Grupo_1195959" data-name="Grupo 1195959" transform="translate(12.065 49.581)">
            <g id="Grupo_1195958" data-name="Grupo 1195958">
              <path id="Trazado_1017055" data-name="Trazado 1017055" d="M64,263h72.39v45.055H64Z" transform="translate(-64.002 -263.002)" fill="#fce2b5"/>
              <path id="Trazado_1017056" data-name="Trazado 1017056" d="M64,263l10.18,18.207h52.03L136.392,263Z" transform="translate(-64.002 -263.002)" fill="#fce2b5"/>
            </g>
          </g>
          <path id="Trazado_1017057" data-name="Trazado 1017057" d="M123.669,422H135.8v7.541H123.669Z" transform="translate(-100.356 -342.447)" fill="#fff"/>
          <g id="Grupo_1195960" data-name="Grupo 1195960" transform="translate(0 0.002)">
            <path id="Trazado_1017058" data-name="Trazado 1017058" d="M96.28,66.869,86.1,48.661a1.885,1.885,0,0,0-1.646-.965H73.017V35.934l.8.888a1.885,1.885,0,0,0,2.511.262L87.45,28.979a1.885,1.885,0,0,0,.483-2.532L74.6,5.387a1.886,1.886,0,0,0-1.074-.8L57.781.075A1.889,1.889,0,0,0,57.262,0h-18a1.889,1.889,0,0,0-.519.073L22.993,4.583a1.885,1.885,0,0,0-1.074.8L8.587,26.447a1.885,1.885,0,0,0,.483,2.532l11.122,8.106a1.885,1.885,0,0,0,2.511-.262l.8-.888V47.7H12.065a1.885,1.885,0,0,0-1.646.965L.24,66.869a1.885,1.885,0,1,0,3.291,1.84L10.18,56.816v37.82a1.885,1.885,0,0,0,1.885,1.885h72.39a1.885,1.885,0,0,0,1.885-1.885V56.816l6.649,11.892a1.885,1.885,0,0,0,3.291-1.84ZM55.141,3.772A7.183,7.183,0,0,1,48.26,9.024a7.091,7.091,0,0,1-6.888-5.251ZM26.063,29.262a1.886,1.886,0,0,0-2.077.5l-2.948,3.275-8.321-6.064,12-18.961,12.9-3.695A10.846,10.846,0,0,0,40.647,9.7,10.907,10.907,0,0,0,55.9,9.668a10.843,10.843,0,0,0,2.992-5.353l12.9,3.7,12,18.961-8.321,6.064-2.948-3.275a1.885,1.885,0,0,0-3.286,1.261V47.7H27.273V31.022a1.885,1.885,0,0,0-1.21-1.76ZM13.95,92.751V56.816L20.6,68.709a1.885,1.885,0,0,0,1.646.965H39.777a1.885,1.885,0,0,0,0-3.77H23.351L15.279,51.467H81.241L73.169,65.9H56.743a1.885,1.885,0,0,0,0,3.77H74.275a1.885,1.885,0,0,0,1.646-.965L82.57,56.816V92.751Z" transform="translate(0 -0.002)"/>
            <path id="Trazado_1017059" data-name="Trazado 1017059" d="M446.012,8.285a2.63,2.63,0,0,1,2.628,2.628,1.885,1.885,0,0,0,3.77,0,2.631,2.631,0,0,1,2.609-2.628h.019a1.885,1.885,0,1,0,0-3.77,2.63,2.63,0,0,1-2.628-2.628,1.885,1.885,0,1,0-3.77,0,2.631,2.631,0,0,1-2.609,2.628h-.019a1.885,1.885,0,0,0,0,3.77Z" transform="translate(-360.402 -0.002)"/>
            <path id="Trazado_1017060" data-name="Trazado 1017060" d="M1.887,191.149a2.63,2.63,0,0,1,2.628,2.628,1.885,1.885,0,0,0,3.77,0,2.63,2.63,0,0,1,2.628-2.628,1.885,1.885,0,1,0,0-3.77,2.63,2.63,0,0,1-2.628-2.628,1.885,1.885,0,1,0-3.77,0,2.63,2.63,0,0,1-2.628,2.628,1.885,1.885,0,1,0,0,3.77Z" transform="translate(-0.002 -148.393)"/>
            <path id="Trazado_1017061" data-name="Trazado 1017061" d="M271.806,106.356a2.63,2.63,0,0,1,2.628,2.628,1.885,1.885,0,0,0,3.77,0,2.63,2.63,0,0,1,2.628-2.628,1.885,1.885,0,1,0,0-3.77,2.63,2.63,0,0,1-2.628-2.628,1.885,1.885,0,0,0-3.77,0,2.63,2.63,0,0,1-2.628,2.628,1.885,1.885,0,1,0,0,3.77Z" transform="translate(-219.037 -79.585)"/>
            <path id="Trazado_1017062" data-name="Trazado 1017062" d="M127.681,412H115.554a1.885,1.885,0,0,0-1.885,1.885v7.541a1.885,1.885,0,0,0,1.885,1.885h12.127a1.885,1.885,0,0,0,1.885-1.885v-7.541A1.885,1.885,0,0,0,127.681,412Zm-1.885,7.541h-8.357v-3.77H125.8Z" transform="translate(-92.241 -334.334)"/>
            <circle id="Elipse_13686" data-name="Elipse 13686" cx="1.885" cy="1.885" r="1.885" transform="translate(46.375 65.902)"/>
          </g>
        </g>
      </g>
    </g>
  </g>
</svg>
