<svg xmlns="http://www.w3.org/2000/svg" xmlns:xlink="http://www.w3.org/1999/xlink" width="396" height="284.291" viewBox="0 0 396 284.291">
  <defs>
    <clipPath id="clip-path">
      <rect id="Rectángulo_462400" data-name="Rectángulo 462400" width="264.615" height="263.291" fill="none"/>
    </clipPath>
    <clipPath id="clip-path-3">
      <rect id="Rectángulo_462385" data-name="Rectángulo 462385" width="14.629" height="37.351" fill="none"/>
    </clipPath>
    <clipPath id="clip-path-4">
      <rect id="Rectángulo_462398" data-name="Rectángulo 462398" width="0.978" height="1.468" fill="none"/>
    </clipPath>
  </defs>
  <g id="Grupo_1196041" data-name="Grupo 1196041" transform="translate(-186 -11753.009)">
    <g id="Grupo_1195978" data-name="Grupo 1195978" transform="translate(0 -3.991)">
      <rect id="Rectángulo_462401" data-name="Rectángulo 462401" width="396" height="284" transform="translate(186 11757)" fill="#c0f1e1"/>
      <g id="Grupo_1195977" data-name="Grupo 1195977" transform="translate(250.741 11778)">
        <g id="Grupo_1195976" data-name="Grupo 1195976" clip-path="url(#clip-path)">
          <g id="Grupo_1195975" data-name="Grupo 1195975" transform="translate(0 0)">
            <g id="Grupo_1195974" data-name="Grupo 1195974" clip-path="url(#clip-path)">
              <path id="Trazado_1017107" data-name="Trazado 1017107" d="M264.615,2340.6c0,4.507-59.236,8.161-132.307,8.161S0,2345.107,0,2340.6s59.236-8.161,132.307-8.161,132.307,3.654,132.307,8.161" transform="translate(0 -2085.47)" fill="#9fbf5a"/>
              <rect id="Rectángulo_462384" data-name="Rectángulo 462384" width="125.203" height="145.784" transform="translate(115.121 105.533)" fill="#f5f6fd"/>
              <path id="Trazado_1017108" data-name="Trazado 1017108" d="M1363.843,1364.233a42.02,42.02,0,1,1-42.02-42.02,42.02,42.02,0,0,1,42.02,42.02" transform="translate(-1144.292 -1182.211)" fill="#769ab8"/>
              <path id="Trazado_1017109" data-name="Trazado 1017109" d="M1327.73,1411.46a41.32,41.32,0,1,1,29.218-12.1,41.049,41.049,0,0,1-29.218,12.1" transform="translate(-1150.198 -1188.118)" fill="#e7e9fb"/>
              <path id="Trazado_1017110" data-name="Trazado 1017110" d="M1385.254,1462.171a34.509,34.509,0,1,1,24.4-10.107,34.283,34.283,0,0,1-24.4,10.107" transform="translate(-1207.722 -1245.641)" fill="#769ab8"/>
              <path id="Trazado_1017111" data-name="Trazado 1017111" d="M1395.646,1471.333a33.278,33.278,0,1,1,23.531-9.747,33.06,33.06,0,0,1-23.531,9.747" transform="translate(-1218.115 -1256.034)" fill="#7bc6f7"/>
              <path id="Trazado_1017112" data-name="Trazado 1017112" d="M1568.557,1495.375a4.368,4.368,0,1,1-4.368-4.368,4.368,4.368,0,0,1,4.368,4.368" transform="translate(-1394.66 -1333.133)" fill="#fff"/>
              <path id="Trazado_1017113" data-name="Trazado 1017113" d="M1645.457,1774.466a2.449,2.449,0,1,1-2.449-2.449,2.449,2.449,0,0,1,2.449,2.449" transform="translate(-1466.848 -1584.388)" fill="#fff"/>
              <path id="Trazado_1017114" data-name="Trazado 1017114" d="M1666.437,1599.159a1.372,1.372,0,1,1-1.372-1.372,1.373,1.373,0,0,1,1.372,1.372" transform="translate(-1487.533 -1428.607)" fill="#fff"/>
              <path id="Trazado_1017115" data-name="Trazado 1017115" d="M1485.972,1591.305a1.372,1.372,0,1,1-1.373-1.372,1.372,1.372,0,0,1,1.373,1.372" transform="translate(-1326.176 -1421.584)" fill="#fff"/>
              <path id="Trazado_1017116" data-name="Trazado 1017116" d="M1533.594,1624.574a.865.865,0,1,1-.865-.865.865.865,0,0,1,.865.865" transform="translate(-1369.664 -1451.784)" fill="#fff"/>
              <path id="Trazado_1017117" data-name="Trazado 1017117" d="M1533.594,1802.82a.865.865,0,1,1-.865-.865.865.865,0,0,1,.865.865" transform="translate(-1369.664 -1611.156)" fill="#fff"/>
              <path id="Trazado_1017118" data-name="Trazado 1017118" d="M1549.925,1751.642a.865.865,0,1,1-.865-.865.865.865,0,0,1,.865.865" transform="translate(-1384.266 -1565.398)" fill="#fff"/>
              <path id="Trazado_1017119" data-name="Trazado 1017119" d="M1802.417,1647.286a.865.865,0,1,1-.865-.865.865.865,0,0,1,.865.865" transform="translate(-1610.023 -1472.091)" fill="#fff"/>
              <g id="Grupo_1195970" data-name="Grupo 1195970" transform="translate(191.739 167.647)" style="mix-blend-mode: soft-light;isolation: isolate">
                <g id="Grupo_1195969" data-name="Grupo 1195969">
                  <g id="Grupo_1195968" data-name="Grupo 1195968" clip-path="url(#clip-path-3)">
                    <path id="Trazado_1017120" data-name="Trazado 1017120" d="M1812.417,1620.654a1.582,1.582,0,0,1-.915-2.874,25.59,25.59,0,0,0,8.188-32.2,1.582,1.582,0,0,1,2.839-1.4,28.755,28.755,0,0,1-9.2,36.177,1.576,1.576,0,0,1-.912.29" transform="translate(-1810.833 -1583.302)" fill="#f2f2f2"/>
                  </g>
                </g>
              </g>
              <rect id="Rectángulo_462386" data-name="Rectángulo 462386" width="1.987" height="8.446" transform="translate(214.883 177.799)" fill="#769ab8"/>
              <rect id="Rectángulo_462387" data-name="Rectángulo 462387" width="0.382" height="1.625" transform="translate(217.265 181.209)" fill="#769ab8"/>
              <path id="Trazado_1017121" data-name="Trazado 1017121" d="M1200.394,954.777H1077.541a2.469,2.469,0,0,1-2.461-2.461v-5.368a2.469,2.469,0,0,1,2.461-2.461h122.853a2.469,2.469,0,0,1,2.461,2.461v5.368a2.469,2.469,0,0,1-2.461,2.461" transform="translate(-961.246 -844.48)" fill="#e7e9fb"/>
              <rect id="Rectángulo_462388" data-name="Rectángulo 462388" width="128.061" height="17.723" transform="translate(113.691 236.071)" fill="#e7e9fb"/>
              <path id="Trazado_1017122" data-name="Trazado 1017122" d="M1332.324,1095.477H1250.75a4.5,4.5,0,0,1-4.5-4.5v-9.1h90.564v9.1a4.5,4.5,0,0,1-4.5,4.5" transform="translate(-1114.296 -967.326)" fill="#e7e9fb"/>
              <rect id="Rectángulo_462389" data-name="Rectángulo 462389" width="11.431" height="2.93" transform="translate(169.529 117.949)" fill="#fff"/>
              <rect id="Rectángulo_462390" data-name="Rectángulo 462390" width="11.431" height="2.93" transform="translate(169.529 121.984)" fill="#fff"/>
              <path id="Trazado_1017123" data-name="Trazado 1017123" d="M1732.282,1113.854h0a.074.074,0,0,1-.074-.074v-9a.074.074,0,1,1,.148,0v9a.075.075,0,0,1-.074.074" transform="translate(-1548.794 -987.737)" fill="#fff"/>
              <rect id="Rectángulo_462391" data-name="Rectángulo 462391" width="11.431" height="2.93" transform="translate(186.172 117.834)" fill="#fff"/>
              <rect id="Rectángulo_462392" data-name="Rectángulo 462392" width="11.431" height="2.93" transform="translate(186.172 121.869)" fill="#fff"/>
              <path id="Trazado_1017124" data-name="Trazado 1017124" d="M1889.469,1112.769h0a.074.074,0,0,1-.074-.074v-9a.074.074,0,1,1,.148,0v9a.074.074,0,0,1-.074.074" transform="translate(-1689.338 -986.768)" fill="#fff"/>
              <path id="Trazado_1017125" data-name="Trazado 1017125" d="M1566.324,1097.808h0a.105.105,0,0,1-.105-.105v-12.76a.105.105,0,0,1,.21,0v12.76a.106.106,0,0,1-.105.105" transform="translate(-1400.381 -969.97)" fill="#fff"/>
              <rect id="Rectángulo_462393" data-name="Rectángulo 462393" width="20.915" height="6.375" transform="translate(141.285 118.019)" fill="#fff"/>
              <path id="Trazado_1017126" data-name="Trazado 1017126" d="M1383.909,1181.536a.935.935,0,1,1,.935-.935.936.936,0,0,1-.935.935m0-1.8a.864.864,0,1,0,.864.864.865.865,0,0,0-.864-.864" transform="translate(-1236.539 -1054.758)" fill="#fff"/>
              <path id="Trazado_1017127" data-name="Trazado 1017127" d="M1411.441,1181.536a.935.935,0,1,1,.935-.935.936.936,0,0,1-.935.935m0-1.8a.864.864,0,1,0,.864.864.865.865,0,0,0-.864-.864" transform="translate(-1261.155 -1054.758)" fill="#fff"/>
              <path id="Trazado_1017128" data-name="Trazado 1017128" d="M1438.974,1181.536a.935.935,0,1,1,.935-.935.936.936,0,0,1-.935.935m0-1.8a.864.864,0,1,0,.864.864.865.865,0,0,0-.864-.864" transform="translate(-1285.773 -1054.758)" fill="#fff"/>
              <path id="Trazado_1017129" data-name="Trazado 1017129" d="M1466.506,1181.536a.935.935,0,1,1,.935-.935.936.936,0,0,1-.935.935m0-1.8a.864.864,0,1,0,.864.864.865.865,0,0,0-.864-.864" transform="translate(-1310.39 -1054.758)" fill="#fff"/>
              <path id="Trazado_1017130" data-name="Trazado 1017130" d="M1935.694,1111.617a1.643,1.643,0,1,1,1.643-1.644,1.645,1.645,0,0,1-1.643,1.644m0-3.163a1.519,1.519,0,1,0,1.519,1.519,1.521,1.521,0,0,0-1.519-1.519" transform="translate(-1729.265 -990.975)" fill="#fff"/>
              <path id="Trazado_1017131" data-name="Trazado 1017131" d="M1984.094,1111.617a1.643,1.643,0,1,1,1.643-1.644,1.645,1.645,0,0,1-1.643,1.644m0-3.163a1.519,1.519,0,1,0,1.519,1.519,1.521,1.521,0,0,0-1.519-1.519" transform="translate(-1772.539 -990.975)" fill="#fff"/>
              <path id="Trazado_1017132" data-name="Trazado 1017132" d="M1935.694,1154.813a1.643,1.643,0,1,1,1.643-1.643,1.645,1.645,0,0,1-1.643,1.643m0-3.163a1.519,1.519,0,1,0,1.519,1.519,1.521,1.521,0,0,0-1.519-1.519" transform="translate(-1729.265 -1029.598)" fill="#fff"/>
              <path id="Trazado_1017133" data-name="Trazado 1017133" d="M1984.094,1154.813a1.643,1.643,0,1,1,1.643-1.643,1.645,1.645,0,0,1-1.643,1.643m0-3.163a1.519,1.519,0,1,0,1.519,1.519,1.521,1.521,0,0,0-1.519-1.519" transform="translate(-1772.539 -1029.598)" fill="#fff"/>
              <path id="Trazado_1017134" data-name="Trazado 1017134" d="M2052.132,761.787h-12.513a1.763,1.763,0,0,1-1.763-1.763V740.117h16.04v19.907a1.763,1.763,0,0,1-1.763,1.763" transform="translate(-1822.079 -661.75)" fill="#e7e9fb"/>
              <rect id="Rectángulo_462394" data-name="Rectángulo 462394" width="11.33" height="2.493" transform="translate(218.123 94.988)" fill="#65afef"/>
              <path id="Trazado_1017135" data-name="Trazado 1017135" d="M2048.427,727.7H2031.06v-2.6a.735.735,0,0,1,.735-.735h15.9a.735.735,0,0,1,.735.735Z" transform="translate(-1816.002 -647.661)" fill="#65afef"/>
              <path id="Trazado_1017136" data-name="Trazado 1017136" d="M2140.724,733.1h0a.268.268,0,0,1-.268-.267v-1.352a.267.267,0,1,1,.535,0v1.352a.268.268,0,0,1-.267.267" transform="translate(-1913.815 -653.786)" fill="#5695cc"/>
              <path id="Trazado_1017137" data-name="Trazado 1017137" d="M2128.757,733.1h0a.268.268,0,0,1-.267-.267v-1.352a.267.267,0,1,1,.535,0v1.352a.268.268,0,0,1-.268.267" transform="translate(-1903.116 -653.786)" fill="#5695cc"/>
              <path id="Trazado_1017138" data-name="Trazado 1017138" d="M2116.792,733.1h0a.268.268,0,0,1-.268-.267v-1.352a.267.267,0,1,1,.535,0v1.352a.268.268,0,0,1-.267.267" transform="translate(-1892.417 -653.786)" fill="#5695cc"/>
              <path id="Trazado_1017139" data-name="Trazado 1017139" d="M2104.825,733.1h0a.268.268,0,0,1-.267-.267v-1.352a.268.268,0,0,1,.535,0v1.352a.268.268,0,0,1-.268.267" transform="translate(-1881.718 -653.786)" fill="#5695cc"/>
              <path id="Trazado_1017140" data-name="Trazado 1017140" d="M2092.859,733.1h0a.268.268,0,0,1-.267-.267v-1.352a.267.267,0,1,1,.535,0v1.352a.268.268,0,0,1-.268.267" transform="translate(-1871.019 -653.786)" fill="#5695cc"/>
              <path id="Trazado_1017141" data-name="Trazado 1017141" d="M2080.894,733.1h0a.268.268,0,0,1-.268-.267v-1.352a.267.267,0,1,1,.535,0v1.352a.268.268,0,0,1-.267.267" transform="translate(-1860.32 -653.786)" fill="#5695cc"/>
              <path id="Trazado_1017142" data-name="Trazado 1017142" d="M1886.976,654.052h-9.356a2.352,2.352,0,0,1-2.339-2.591l3.259-31.837h7.518l3.259,31.837a2.352,2.352,0,0,1-2.34,2.591" transform="translate(-1676.706 -554.015)" fill="#e7e9fb"/>
              <path id="Trazado_1017143" data-name="Trazado 1017143" d="M1914.371,564.649h-2.024a1.71,1.71,0,0,0-1.687,1.426l-.653,3.871h6.7l-.653-3.871a1.71,1.71,0,0,0-1.687-1.426" transform="translate(-1707.767 -504.862)" fill="#f6a577"/>
              <rect id="Rectángulo_462395" data-name="Rectángulo 462395" width="8.524" height="1.5" transform="translate(201.33 64.66)" fill="#f6a577"/>
              <path id="Trazado_1017144" data-name="Trazado 1017144" d="M1940.474,614.054h0a.141.141,0,0,1-.141-.141V613.2a.141.141,0,1,1,.281,0v.711a.141.141,0,0,1-.141.141" transform="translate(-1734.882 -548.148)" fill="#d17d4d"/>
              <path id="Trazado_1017145" data-name="Trazado 1017145" d="M1934.036,614.054h0a.141.141,0,0,1-.141-.141V613.2a.141.141,0,1,1,.282,0v.711a.141.141,0,0,1-.141.141" transform="translate(-1729.126 -548.148)" fill="#d17d4d"/>
              <path id="Trazado_1017146" data-name="Trazado 1017146" d="M1927.6,614.054h0a.141.141,0,0,1-.141-.141V613.2a.141.141,0,1,1,.281,0v.711a.141.141,0,0,1-.141.141" transform="translate(-1723.369 -548.148)" fill="#d17d4d"/>
              <path id="Trazado_1017147" data-name="Trazado 1017147" d="M1921.16,614.054h0a.141.141,0,0,1-.141-.141V613.2a.141.141,0,0,1,.282,0v.711a.141.141,0,0,1-.141.141" transform="translate(-1717.613 -548.148)" fill="#d17d4d"/>
              <path id="Trazado_1017148" data-name="Trazado 1017148" d="M1914.722,614.054h0a.141.141,0,0,1-.141-.141V613.2a.141.141,0,0,1,.282,0v.711a.141.141,0,0,1-.141.141" transform="translate(-1711.857 -548.148)" fill="#d17d4d"/>
              <path id="Trazado_1017149" data-name="Trazado 1017149" d="M1972.663,614.054h0a.141.141,0,0,1-.141-.141V613.2a.141.141,0,0,1,.282,0v.711a.141.141,0,0,1-.141.141" transform="translate(-1763.663 -548.148)" fill="#d17d4d"/>
              <path id="Trazado_1017150" data-name="Trazado 1017150" d="M1966.225,614.054h0a.141.141,0,0,1-.141-.141V613.2a.141.141,0,1,1,.282,0v.711a.141.141,0,0,1-.141.141" transform="translate(-1757.906 -548.148)" fill="#d17d4d"/>
              <path id="Trazado_1017151" data-name="Trazado 1017151" d="M1959.787,614.054h0a.141.141,0,0,1-.141-.141V613.2a.141.141,0,0,1,.282,0v.711a.141.141,0,0,1-.141.141" transform="translate(-1752.15 -548.148)" fill="#d17d4d"/>
              <path id="Trazado_1017152" data-name="Trazado 1017152" d="M1953.349,614.054h0a.141.141,0,0,1-.141-.141V613.2a.141.141,0,0,1,.282,0v.711a.141.141,0,0,1-.141.141" transform="translate(-1746.394 -548.148)" fill="#d17d4d"/>
              <path id="Trazado_1017153" data-name="Trazado 1017153" d="M1946.912,614.054h0a.141.141,0,0,1-.141-.141V613.2a.141.141,0,0,1,.282,0v.711a.141.141,0,0,1-.141.141" transform="translate(-1740.638 -548.148)" fill="#d17d4d"/>
              <path id="Trazado_1017154" data-name="Trazado 1017154" d="M1908.284,614.054h0a.141.141,0,0,1-.141-.141V613.2a.141.141,0,1,1,.281,0v.711a.141.141,0,0,1-.141.141" transform="translate(-1706.1 -548.148)" fill="#d17d4d"/>
              <rect id="Rectángulo_462396" data-name="Rectángulo 462396" width="5.297" height="7.945" transform="translate(202.943 74.988)" fill="#f6a577"/>
              <path id="Trazado_1017155" data-name="Trazado 1017155" d="M1584.135,598.653a7.1,7.1,0,0,0-7.092-7.092h-8.36a7.079,7.079,0,0,0-1.6.184l-.04-.037a2.047,2.047,0,0,0-2.047-2.047h-10.424a2.618,2.618,0,0,0-2.618,2.619v32.364a2.618,2.618,0,0,0,2.618,2.619h26.942a2.619,2.619,0,0,0,2.619-2.619V607.15l0,0c0-.045,0-.089,0-.134Zm-15.32-3.554h7.026a4.578,4.578,0,0,1,4.565,4.565v5.908Z" transform="translate(-1387.628 -527.225)" fill="#e7e9fb"/>
              <rect id="Rectángulo_462397" data-name="Rectángulo 462397" width="6.701" height="3.569" transform="translate(168.661 59.491)" fill="#e7e9fb"/>
              <path id="Trazado_1017156" data-name="Trazado 1017156" d="M1592.942,552.489h-6.75a.764.764,0,0,1-.764-.764v-2.076a.764.764,0,0,1,.764-.764h6.75a.764.764,0,0,1,.764.764v2.076a.764.764,0,0,1-.764.764" transform="translate(-1417.556 -490.767)" fill="#65afef"/>
              <path id="Trazado_1017157" data-name="Trazado 1017157" d="M1652.173,555.824h0a.268.268,0,0,1-.267-.268v-1.351a.267.267,0,1,1,.535,0v1.351a.268.268,0,0,1-.267.268" transform="translate(-1476.995 -495.285)" fill="#5695cc"/>
              <path id="Trazado_1017158" data-name="Trazado 1017158" d="M1640.208,555.824h0a.268.268,0,0,1-.268-.268v-1.351a.268.268,0,1,1,.535,0v1.351a.268.268,0,0,1-.267.268" transform="translate(-1466.296 -495.285)" fill="#5695cc"/>
              <path id="Trazado_1017159" data-name="Trazado 1017159" d="M1628.241,555.824h0a.268.268,0,0,1-.267-.268v-1.351a.267.267,0,1,1,.535,0v1.351a.268.268,0,0,1-.268.268" transform="translate(-1455.597 -495.285)" fill="#5695cc"/>
              <path id="Trazado_1017160" data-name="Trazado 1017160" d="M1616.276,555.824h0a.268.268,0,0,1-.267-.268v-1.351a.267.267,0,1,1,.535,0v1.351a.268.268,0,0,1-.267.268" transform="translate(-1444.898 -495.285)" fill="#5695cc"/>
              <path id="Trazado_1017161" data-name="Trazado 1017161" d="M1604.31,555.824h0a.268.268,0,0,1-.268-.268v-1.351a.267.267,0,1,1,.535,0v1.351a.268.268,0,0,1-.267.268" transform="translate(-1434.199 -495.285)" fill="#5695cc"/>
              <path id="Trazado_1017162" data-name="Trazado 1017162" d="M1592.344,555.824h0a.268.268,0,0,1-.267-.268v-1.351a.267.267,0,1,1,.535,0v1.351a.268.268,0,0,1-.267.268" transform="translate(-1423.5 -495.285)" fill="#5695cc"/>
              <path id="Trazado_1017163" data-name="Trazado 1017163" d="M461.7,40.339a34.881,34.881,0,0,1,3.384-5.732c1.354-1.5-1.786-2.018-3.239-.6s-2.275,1.53-4.768,2.557-5.8,3.185-6.088,4.335,3.438,5.786,4.4,7.383,4.578,1.765,5.042-.028.555-6.486,1.273-7.912" transform="translate(-403.221 -29.66)" fill="#f8a588"/>
              <path id="Trazado_1017164" data-name="Trazado 1017164" d="M866.906,77.861c-7.815,8.914-12.7,20.56-12.093,32.4.2,3.888,1.262,8.25,4.653,10.161,1.92,1.082,4.227,1.152,6.43,1.2,7.738.152,15.57.294,23.112-1.445,3.226-.744,6.793-2.231,7.8-5.386a8.108,8.108,0,0,0-.765-5.828c-.86-1.813-2.055-3.452-2.915-5.266-3.941-8.313.7-19.161-3.974-27.087-1.275-2.163-19.71-1.638-22.247,1.257" transform="translate(-764.255 -67.307)" fill="#4d1912"/>
              <path id="Trazado_1017165" data-name="Trazado 1017165" d="M1234.507,595.677a13.051,13.051,0,0,0,2.393-6.647c-.09-2.014-8.663-23.841-8.663-23.841s-9.995,3.179-10.349,7.439c0,0,9.279,21.495,10.054,22.183,1.73,1.535,5.557,2.018,6.565.866" transform="translate(-1088.933 -505.345)" fill="#f8a588"/>
              <path id="Trazado_1017166" data-name="Trazado 1017166" d="M1312.768,759.406c.817-.116,4.12,3.274,6.056,7.175,1.4,2.826,4.84,25.3,4.84,25.3s-.789,3.294-2.4,4.241c0,0-12.979-23.053-13.885-28.106-.508-2.834,4.568-8.5,5.385-8.613" transform="translate(-1168.92 -678.995)" fill="#f8a588"/>
              <path id="Trazado_1017167" data-name="Trazado 1017167" d="M1176.768,415.045c1.915.858,5.319,2.757,5.824,4.1s6.475,16.61,9.368,24.411c-2.369,4.687-7.555,5.41-12.678,6.587-3.918-5.658-5.586-11.516-7.788-18.035l-1.419-16.436s4.671-1.531,6.692-.626" transform="translate(-1046.183 -370.843)" fill="#c35376"/>
              <path id="Trazado_1017168" data-name="Trazado 1017168" d="M1431.172,1046.061a28.523,28.523,0,0,0,5.2,1.615c1.643.165.026,2.2-1.632,2.143s-2.218.323-4.292,1.069-5.265,1.258-6.069.716-1.094-5.393-1.39-6.886,1.8-3.583,3.07-2.751,3.9,3.624,5.116,4.094" transform="translate(-1272.29 -931.469)" fill="#f8a588"/>
              <path id="Trazado_1017169" data-name="Trazado 1017169" d="M882.817,428.546c-1.657-1.735-4.493-18.568-4.493-18.568l-15.674-1.223-18.714.993s.2,17.063-1.453,18.8c-5.926,6.205.817,13.571,3.078,17.111,3.12,10.212,2.281,19.657,2.339,29.1a75.916,75.916,0,0,0,29.5,0c.059-9.441-.781-18.886,2.339-29.1,2.261-3.54,9-10.905,3.078-17.111" transform="translate(-751.152 -365.474)" fill="#c35376"/>
              <path id="Trazado_1017170" data-name="Trazado 1017170" d="M971.047,312.767h7.88a4.45,4.45,0,0,0,4.45-4.45v-15.51H966.6v15.51a4.45,4.45,0,0,0,4.45,4.45" transform="translate(-864.249 -261.804)" fill="#f8a588"/>
              <path id="Trazado_1017171" data-name="Trazado 1017171" d="M983.377,292.807v6.139a29.485,29.485,0,0,1-16.781,6.139V292.807Z" transform="translate(-864.249 -261.804)" fill="#b36650"/>
              <path id="Trazado_1017172" data-name="Trazado 1017172" d="M1119.038,228.838a3.106,3.106,0,0,0,2.174-.279,7.18,7.18,0,0,0,1.758-1.332c1.4-1.346,2.7-3.042,2.6-4.944a2.371,2.371,0,0,0-.746-1.715,2.268,2.268,0,0,0-2.226-.28,3.785,3.785,0,0,0-1.732,1.492Z" transform="translate(-1000.549 -196.814)" fill="#f8a588"/>
              <path id="Trazado_1017173" data-name="Trazado 1017173" d="M898.793,228.838a3.106,3.106,0,0,1-2.174-.279,7.184,7.184,0,0,1-1.758-1.332c-1.4-1.346-2.7-3.042-2.6-4.944a2.373,2.373,0,0,1,.746-1.715,2.268,2.268,0,0,1,2.226-.28,3.785,3.785,0,0,1,1.732,1.492Z" transform="translate(-797.782 -196.814)" fill="#f8a588"/>
              <path id="Trazado_1017174" data-name="Trazado 1017174" d="M917.246,66.824c.553-5.7,2.1-9.022,3.063-12.315.685-2.467,1.378-6.682-1.616-10.4-2.958-3.86-10.383-6.053-17.181-4.208-6.846,1.848-12.1,6.868-11.273,11.233.419,2.614,2.27,5.046,2.726,7.742.378,2.242-.333,4.49.532,6.674,1.611,3.758,7.838,10.35,12.743,10.35,4.008,0,10.625-6.593,11.007-9.079" transform="translate(-795.9 -35.085)" fill="#f8a588"/>
              <path id="Trazado_1017175" data-name="Trazado 1017175" d="M1070.265,200.2a5.8,5.8,0,0,1,3.712.451,4.328,4.328,0,0,1,1.484,1.146c-.609-.166-1.169-.332-1.734-.458a16.378,16.378,0,0,0-1.683-.3,16.091,16.091,0,0,0-1.706-.116c-.579-.013-.691-.588-.074-.725" transform="translate(-956.57 -178.889)" fill="#1a1a1a"/>
              <path id="Trazado_1017176" data-name="Trazado 1017176" d="M952.5,199.418a5.8,5.8,0,0,0-3.7.524,4.317,4.317,0,0,0-1.459,1.175c.6-.178,1.161-.355,1.723-.493a16.342,16.342,0,0,1,1.676-.331,16.028,16.028,0,0,1,1.7-.15c.579-.024.678-.6.058-.726" transform="translate(-847.031 -178.212)" fill="#1a1a1a"/>
              <g id="Grupo_1195973" data-name="Grupo 1195973" transform="translate(110.158 27.385)" style="mix-blend-mode: soft-light;isolation: isolate">
                <g id="Grupo_1195972" data-name="Grupo 1195972">
                  <g id="Grupo_1195971" data-name="Grupo 1195971" clip-path="url(#clip-path-4)">
                    <path id="Trazado_1017177" data-name="Trazado 1017177" d="M1041.221,259.476a2.168,2.168,0,0,1-.146.33.627.627,0,0,1-.223.272c-.1.054-.252.016-.37-.155a.739.739,0,0,1-.117-.327.965.965,0,0,1,.048-.415.947.947,0,0,1,.222-.351.714.714,0,0,1,.295-.177c.2-.056.338.013.382.119a.642.642,0,0,1,0,.354,2.167,2.167,0,0,1-.093.349" transform="translate(-1040.359 -258.633)" fill="#f2f2f2"/>
                  </g>
                </g>
              </g>
              <path id="Trazado_1017178" data-name="Trazado 1017178" d="M1028.663,255.61c-.019-.082-.035-.155-.048-.22s-.022-.122-.03-.18a1.24,1.24,0,0,1-.009-.2c0-.076.011-.16.022-.246a2.832,2.832,0,0,0,.04-.5.485.485,0,0,0-.135-.349.189.189,0,0,0-.259-.011,1.143,1.143,0,0,0-.294.37,1.864,1.864,0,0,0-.236.733,1.482,1.482,0,0,0,.032.457,1.987,1.987,0,0,0,.151.425,2.465,2.465,0,0,0,.216.363,2.888,2.888,0,0,0,.24.292,3.868,3.868,0,0,0,.436.4c.254.2.406.267.49.132s.071-.284-.066-.51c-.067-.113-.166-.245-.275-.4a2.759,2.759,0,0,1-.159-.258,1.37,1.37,0,0,1-.115-.3" transform="translate(-918.889 -226.978)" fill="#d1785e"/>
              <path id="Trazado_1017179" data-name="Trazado 1017179" d="M1072.414,224.972a2.594,2.594,0,0,1,2.121-2.091,1.425,1.425,0,0,1,1.413,1.428l0,.678c0,.39-.6-.964-1.485-.96s-2.044,1.363-2.044.945" transform="translate(-958.862 -199.282)" fill="#1a1a1a"/>
              <path id="Trazado_1017180" data-name="Trazado 1017180" d="M1089.311,223.027a2.684,2.684,0,0,1,1.912.4,1.478,1.478,0,0,0,1.508.277,1.519,1.519,0,0,1-1.626.285,1.758,1.758,0,0,0-1.32-.238Z" transform="translate(-973.97 -199.38)" fill="#1a1a1a"/>
              <path id="Trazado_1017181" data-name="Trazado 1017181" d="M968.094,224.972a2.594,2.594,0,0,0-2.121-2.091,1.425,1.425,0,0,0-1.413,1.428l0,.678c0,.387.889-.761,1.762-.754.89.007,1.767,1.16,1.767.739" transform="translate(-862.429 -199.282)" fill="#1a1a1a"/>
              <path id="Trazado_1017182" data-name="Trazado 1017182" d="M952.16,223.027a2.684,2.684,0,0,0-1.912.4,1.478,1.478,0,0,1-1.508.277,1.519,1.519,0,0,0,1.626.285,1.758,1.758,0,0,1,1.32-.238Z" transform="translate(-848.283 -199.38)" fill="#1a1a1a"/>
              <path id="Trazado_1017183" data-name="Trazado 1017183" d="M1006.494,290.451a7.22,7.22,0,0,0,7.169-1.023c.308-.244-.127-.675-.432-.433a6.622,6.622,0,0,1-6.574.866.308.308,0,0,0-.376.214.313.313,0,0,0,.214.376" transform="translate(-899.72 -258.331)" fill="#a33939"/>
              <path id="Trazado_1017184" data-name="Trazado 1017184" d="M913.491,15.635a1.788,1.788,0,0,0-.1-.621c-.394-.481-.689,5.585-.689,5.585-6.405-.635-22.935.289-22.935.289l-.714-5.946c-1.107,1.3-.48,14.27-.48,14.27-1.638-4.465-3.78-12.319-4.086-16.917a4.572,4.572,0,0,1,3.583-4.681c1.007-4.269,4.591-5.8,8.93-7.063a15.879,15.879,0,0,1,14.68,3.6c3.885,3.494,6,7.384,5,12.449-1.042,5.288-.618,9.551-3.448,13.908,0,0,.438-11.967.253-14.879" transform="translate(-790.829 -0.002)" fill="#62271b"/>
              <path id="Trazado_1017185" data-name="Trazado 1017185" d="M1092.916,42.407a27.126,27.126,0,0,1,4.69,23.5c-1.086,3.948-3.061,7.582-4.463,11.427s-2.214,8.142-.9,12.017a13.4,13.4,0,0,1,3.995-8.51c2.611,6.3,5.263,12.8,5.385,19.629.1,5.532-1.851,11.4-5.821,15.019,8.583-1.021,15.816-8.628,16.709-17.275,1.171-11.338-7.388-21.388-8.893-32.686-.639-4.794.019-9.688-.551-14.491s-2.786-9.882-7.177-11.8Z" transform="translate(-976 -35.086)" fill="#62271b"/>
              <path id="Trazado_1017186" data-name="Trazado 1017186" d="M534.521,385.145a13.051,13.051,0,0,1,6.085-3.589c2-.286,25.037,4.072,25.037,4.072s-1.263,10.412-5.382,11.553c0,0-22.08-2.624-23.966-4.969-2.265-2.818-2.719-5.863-1.775-7.068" transform="translate(-477.509 -341.143)" fill="#f8a588"/>
              <path id="Trazado_1017187" data-name="Trazado 1017187" d="M699.7,394.767c-.145-2.093-2.728-3.644-4.135-3.926a168.455,168.455,0,0,0-21.005-3.254c-3.608,3.816-4.082,11.006-3.454,16.225,6.3,1.676,15.387,4.344,22.385,6.773,0,0,6.356-13.7,6.21-15.818" transform="translate(-599.834 -346.548)" fill="#c35376"/>
              <path id="Trazado_1017188" data-name="Trazado 1017188" d="M503.484,155.942c.762-.316,2.288-6.913,1.975-10.415s-8.883-27.442-8.883-27.442-4.023-1.171-5.7.465c0,0,2.837,31.974,4.3,34.873,2.931,5.821,7.554,2.836,8.316,2.519" transform="translate(-438.895 -105.219)" fill="#f8a588"/>
              <path id="Trazado_1017189" data-name="Trazado 1017189" d="M833.968,85.3c-3.767,6.619-5.667,14.156-6.645,21.709-.573,4.422-.793,9.146,1.264,13.1a10.192,10.192,0,0,0,6.778,5.188,10.971,10.971,0,0,1-14.286-7.493c-.917-3.409-.152-7.017.615-10.463l3.562-16.009c.726-3.261,1.212-7.053,3.521-9.7,1.129-1.3,5.191,3.67,5.191,3.67" transform="translate(-733.765 -72.792)" fill="#62271b"/>
              <path id="Trazado_1017190" data-name="Trazado 1017190" d="M842.383,2031.367c.128,10.176.245,20.385.19,22.8l5.6.25c1.045-6.916,2.4-15.153,3.782-23.046Z" transform="translate(-753.188 -1816.277)" fill="#f0b59c"/>
              <path id="Trazado_1017191" data-name="Trazado 1017191" d="M765.942,2219.667c-.036-3.07-1.99-3.709-1.99-3.709l-6.426,2.521s-10.588,21.406-8.992,21.886l11.438.307c3.3.072,2.442-5.163,3.716-7.937l-.06,8.01h1.434l.669-11.157a7.036,7.036,0,0,0,.214-.975c.158-1.317.045-4.841,0-8.944" transform="translate(-669.129 -1981.323)" fill="#c35376"/>
              <path id="Trazado_1017192" data-name="Trazado 1017192" d="M794.634,2193.307c-.561,1.572-2.965,7.648-3.583,9.579-.479,1.5-1.562,4.852-2.27,7.042a1.631,1.631,0,0,0,1.5,2.131l6.779.143,3.572-16.959c.061-.5.1-3.08-.982-3.724s-4.451.215-5.012,1.788" transform="translate(-705.19 -1959.28)" fill="#f0b59c"/>
              <path id="Trazado_1017193" data-name="Trazado 1017193" d="M1362.966,1908.977l-5.771,4.887c5.379,5.711,10.7,11.443,12.431,13.239l4.454-3.444a71.237,71.237,0,0,1-11.114-14.683" transform="translate(-1213.489 -1706.846)" fill="#f0b59c"/>
              <path id="Trazado_1017194" data-name="Trazado 1017194" d="M1472.278,2026.455s12.731,8.988,14.752,10.53,3.619,4.807,3.565,6.072l-8.356,7.076c-1.683.747-14.355-18.774-14.355-18.774Z" transform="translate(-1312.458 -1811.885)" fill="#c35376"/>
              <path id="Trazado_1017195" data-name="Trazado 1017195" d="M1443.876,2012.236c1.1,1.294,5.152,6.446,6.551,7.989,1.681,1.853,6.582,7.284,6.582,7.284s5.18-3.8,5.287-4.891c.3-3.106-3.4-5.933-3.4-5.933l-8.567-7.176c-.439-.336-2.911-1.888-4.359-1.571s-3.188,3-2.092,4.3" transform="translate(-1290.683 -1795.291)" fill="#f0b59c"/>
              <path id="Trazado_1017196" data-name="Trazado 1017196" d="M827.544,965.51s-9.437,26.5-9.363,30.9,0,36.018,0,36.018,12.554,10.425,17.445,3.148c2.634-3.92,2.666-37.029,2.666-37.029l7.759-3.507-1.51-27.879Z" transform="translate(-731.548 -863.278)" fill="#869ac9"/>
              <path id="Trazado_1017197" data-name="Trazado 1017197" d="M805.268,1581.525s11.821,3.791,12.716,0,2.749-39.454,3.823-47.267,2.921-17.8,2.289-21.373-17.707-2.772-18.118,2.106-1.966,13.371-1.9,18.109,1.2,48.425,1.2,48.425" transform="translate(-718.932 -1350.718)" fill="#869ac9"/>
              <path id="Trazado_1017198" data-name="Trazado 1017198" d="M1030.388,965.51s6.665,26.55,6.13,30.948-3.776,36.018-3.776,36.018-13.647,10.425-17.774,3.148c-2.223-3.92,1.486-42.012,1.486-42.012l-6,.046.851-26.793Z" transform="translate(-903.461 -863.278)" fill="#869ac9"/>
              <path id="Trazado_1017199" data-name="Trazado 1017199" d="M1098.183,1559.312s-7.052,10.579-9.7,8.217-23.133-26.741-28.01-32.106-11.34-11.976-11.911-18.051c-.485-5.162,11.68-12.719,14.528-9.2s8.445,9.1,10.859,12.813,24.238,38.328,24.238,38.328" transform="translate(-937.519 -1347.673)" fill="#869ac9"/>
              <path id="Trazado_1017200" data-name="Trazado 1017200" d="M931.477,947.794l-.426-4.734s-8.872.641-16.6.641a84.087,84.087,0,0,1-14.48-1.33l-.958,4.737a112.222,112.222,0,0,0,15.275,1.465c6.585,0,17.193-.778,17.193-.778" transform="translate(-803.818 -842.589)" fill="#6c7abd"/>
              <path id="Trazado_1017201" data-name="Trazado 1017201" d="M452.188,64.663c2.378,14.042,8.264,27.977,2.8,41.13-2.45,5.9-6.164,12.487-3.317,18.207,1.745,3.506,5.678,5.737,6.759,9.5,1.34,4.667-2.241,9.19-3.339,13.92-1.134,4.886.489,10.084,3.266,14.261s6.621,7.51,10.416,10.789c14.583,12.6,29.271,25.271,45.9,35.006,14.062,8.231,41.153,22.991,45.306,17.828,2.263-2.812,1.5-17.734-2.772-33.238-3.968-14.4,2.732-23.735,6.616-28.731C519.67,142.665,461.178,66.847,458.253,60.872s-7.615-5.36-6.065,3.792" transform="translate(-402.929 -50.941)" fill="#ffda82"/>
              <path id="Trazado_1017202" data-name="Trazado 1017202" d="M1476.628,1087.081s.617.892,2.6,3.5-.393,3.559-1.538,2.055-2.513-4.35-3.306-5.478,1.174-1.553,2.247-.078" transform="translate(-1318.102 -971.131)" fill="#f8a588"/>
              <path id="Trazado_1017203" data-name="Trazado 1017203" d="M1478.059,1092.739a1.772,1.772,0,0,1-.8-.517,3.775,3.775,0,0,1-.291-.385c-.094-.131-.179-.269-.27-.4-.35-.544-.674-1.1-.99-1.67l-.944-1.7c-.159-.283-.318-.566-.485-.845-.082-.14-.169-.278-.255-.417s-.189-.272-.257-.4a.791.791,0,0,1-.074-.208.487.487,0,0,1,.011-.207.478.478,0,0,1,.3-.283,1.376,1.376,0,0,1,.907.026,2.152,2.152,0,0,1,.8.491,2.61,2.61,0,0,1,.31.358l.287.393q1.157,1.565,2.37,3.086l-1.142-1.574c-.382-.523-.763-1.048-1.138-1.576l-.278-.4a2.625,2.625,0,0,0-.323-.378,2.279,2.279,0,0,0-.842-.525,1.5,1.5,0,0,0-1-.03.617.617,0,0,0-.381.368.633.633,0,0,0-.017.274.915.915,0,0,0,.086.249c.083.156.18.28.267.415s.173.272.255.411c.167.276.328.558.489.839.321.563.633,1.131.963,1.69s.663,1.116,1.027,1.654c.1.132.185.267.284.4a3.759,3.759,0,0,0,.307.38,1.732,1.732,0,0,0,.831.491" transform="translate(-1317.517 -970.563)" fill="#b36650"/>
              <path id="Trazado_1017204" data-name="Trazado 1017204" d="M1465.812,1096.461s.449.988,1.938,3.908-1.061,3.479-1.922,1.794-1.695-4.74-2.275-5.991,1.464-1.354,2.26.288" transform="translate(-1308.493 -979.263)" fill="#f8a588"/>
              <path id="Trazado_1017205" data-name="Trazado 1017205" d="M1466.963,1102.483a1.252,1.252,0,0,1-1.011-.142,1.806,1.806,0,0,1-.686-.767,19.02,19.02,0,0,1-.8-1.957q-.351-1-.687-2c-.23-.668-.448-1.341-.735-1.994a.908.908,0,0,1-.109-.472.424.424,0,0,1,.08-.209.475.475,0,0,1,.182-.138.916.916,0,0,1,.483-.054,1.622,1.622,0,0,1,.484.148,2.1,2.1,0,0,1,.777.657,2.525,2.525,0,0,1,.261.447l.232.477q.47.95.957,1.891l.492.939.248.468c.08.157.154.317.232.476-.071-.162-.139-.325-.213-.486l-.233-.476-.463-.953c-.31-.635-.62-1.27-.92-1.908l-.223-.48a2.582,2.582,0,0,0-.27-.469,2.23,2.23,0,0,0-.821-.7,1.756,1.756,0,0,0-.524-.163,1.05,1.05,0,0,0-.557.062.614.614,0,0,0-.236.178.562.562,0,0,0-.109.278,1.037,1.037,0,0,0,.119.548c.286.639.508,1.312.742,1.977s.456,1.337.707,2a18.791,18.791,0,0,0,.837,1.951,1.86,1.86,0,0,0,.73.768,1.248,1.248,0,0,0,1.029.109" transform="translate(-1307.906 -978.701)" fill="#b36650"/>
              <path id="Trazado_1017206" data-name="Trazado 1017206" d="M1446.132,1100.863s.4.976,1.737,3.87-1.117,3.3-1.891,1.631-1.48-4.659-2-5.9,1.44-1.231,2.152.4" transform="translate(-1291.008 -983.157)" fill="#f8a588"/>
              <path id="Trazado_1017207" data-name="Trazado 1017207" d="M1446.171,1106.651a1.725,1.725,0,0,1-.656-.658,3.692,3.692,0,0,1-.2-.427c-.062-.144-.114-.293-.172-.439-.219-.59-.41-1.191-.593-1.794l-.543-1.812c-.092-.3-.184-.6-.284-.9-.049-.151-.1-.3-.156-.449s-.123-.3-.16-.437a.774.774,0,0,1-.027-.213.479.479,0,0,1,.053-.195.466.466,0,0,1,.342-.207,1.34,1.34,0,0,1,.856.214,2.1,2.1,0,0,1,.656.633,2.53,2.53,0,0,1,.22.4l.191.434q.773,1.729,1.608,3.427l-.757-1.735c-.254-.577-.507-1.155-.752-1.736l-.182-.436a2.566,2.566,0,0,0-.227-.427,2.22,2.22,0,0,0-.69-.675,1.465,1.465,0,0,0-.943-.237.6.6,0,0,0-.439.27.609.609,0,0,0-.073.257.89.89,0,0,0,.03.255c.046.165.113.3.167.45s.108.295.157.444c.1.3.2.6.289.9.187.6.365,1.207.562,1.807s.4,1.2.631,1.787c.063.145.12.292.187.436a3.72,3.72,0,0,0,.212.425,1.688,1.688,0,0,0,.688.64" transform="translate(-1290.43 -982.608)" fill="#b36650"/>
              <path id="Trazado_1017208" data-name="Trazado 1017208" d="M1430.857,1112.184s.34.891,1.485,3.532-1.12,2.992-1.783,1.468-1.227-4.248-1.668-5.376,1.357-1.107,1.966.376" transform="translate(-1277.532 -993.372)" fill="#f8a588"/>
              <path id="Trazado_1017209" data-name="Trazado 1017209" d="M1431.5,1117.552a1.1,1.1,0,0,1-.878-.18,1.588,1.588,0,0,1-.56-.71,16.7,16.7,0,0,1-.591-1.759c-.169-.6-.332-1.194-.493-1.794s-.319-1.2-.535-1.788a.8.8,0,0,1-.07-.42.373.373,0,0,1,.081-.179.415.415,0,0,1,.167-.111.8.8,0,0,1,.427-.021,1.421,1.421,0,0,1,.416.156,1.851,1.851,0,0,1,.646.618,2.213,2.213,0,0,1,.2.406l.177.431q.361.859.736,1.711l.38.85.191.424c.062.142.118.286.177.43-.053-.146-.1-.293-.16-.437l-.178-.43-.354-.861c-.238-.573-.474-1.147-.7-1.723l-.169-.433a2.281,2.281,0,0,0-.211-.426,1.963,1.963,0,0,0-.681-.66,1.551,1.551,0,0,0-.45-.172.924.924,0,0,0-.491.024.537.537,0,0,0-.217.143.5.5,0,0,0-.111.238.913.913,0,0,0,.074.487c.215.575.374,1.178.542,1.774s.327,1.2.511,1.791a16.546,16.546,0,0,0,.628,1.756,1.639,1.639,0,0,0,.6.713,1.1,1.1,0,0,0,.9.152" transform="translate(-1277.014 -992.873)" fill="#b36650"/>
              <path id="Trazado_1017210" data-name="Trazado 1017210" d="M508.166,24.7s-.173-1.315-.523-5.306-3.28-2.9-3.082-.6,1.3,6.007,1.5,7.679,2.339.443,2.1-1.775" transform="translate(-451.128 -14.961)" fill="#f8a588"/>
              <path id="Trazado_1017211" data-name="Trazado 1017211" d="M504.675,23.067a2.164,2.164,0,0,0-.3,1.128,4.621,4.621,0,0,0,.053.588c.023.2.059.391.087.587.129.781.3,1.555.474,2.327l.54,2.316c.088.387.176.774.255,1.164.041.194.076.391.111.587s.052.4.1.576a.97.97,0,0,0,.1.25.6.6,0,0,0,.18.179.585.585,0,0,0,.5.012,1.683,1.683,0,0,0,.8-.768,2.632,2.632,0,0,0,.32-1.1,3.176,3.176,0,0,0-.013-.579l-.063-.592c-.158-1.579-.284-3.16-.387-4.743l.258,2.365c.083.788.169,1.576.263,2.363l.074.589a3.228,3.228,0,0,1,.018.608,2.789,2.789,0,0,1-.331,1.167,1.841,1.841,0,0,1-.881.848.755.755,0,0,1-.647-.02.77.77,0,0,1-.24-.234,1.119,1.119,0,0,1-.127-.3c-.053-.209-.066-.4-.1-.6s-.067-.388-.106-.582c-.075-.388-.161-.775-.246-1.161-.172-.774-.356-1.545-.516-2.322s-.315-1.556-.427-2.343c-.022-.2-.052-.394-.068-.592a4.668,4.668,0,0,1-.033-.6,2.12,2.12,0,0,1,.35-1.127" transform="translate(-450.923 -20.625)" fill="#b36650"/>
              <path id="Trazado_1017212" data-name="Trazado 1017212" d="M478.525,27.507s-.4-1.265-1.454-5.133-3.818-2.282-3.216-.047,2.357,5.687,2.858,7.3,2.439.025,1.812-2.118" transform="translate(-423.606 -17.907)" fill="#f8a588"/>
              <path id="Trazado_1017213" data-name="Trazado 1017213" d="M474.426,20.84a1.531,1.531,0,0,0-.8.959,2.211,2.211,0,0,0,.008,1.259,23.243,23.243,0,0,0,.886,2.428q.5,1.193,1.023,2.38c.34.795.7,1.583.972,2.411a1.112,1.112,0,0,0,.289.518.521.521,0,0,0,.244.124.58.58,0,0,0,.278-.025,1.121,1.121,0,0,0,.482-.348,1.994,1.994,0,0,0,.317-.532,2.576,2.576,0,0,0,.165-1.234,3.083,3.083,0,0,0-.131-.619l-.181-.623c-.236-.832-.463-1.665-.686-2.5l-.325-1.255-.161-.628c-.057-.208-.121-.414-.181-.622.068.2.141.409.206.615l.18.622.363,1.244c.24.83.481,1.659.733,2.485l.192.618a3.159,3.159,0,0,1,.141.646,2.732,2.732,0,0,1-.167,1.31,2.153,2.153,0,0,1-.341.578,1.283,1.283,0,0,1-.555.4.747.747,0,0,1-.361.032.691.691,0,0,1-.328-.162,1.27,1.27,0,0,1-.343-.594c-.266-.813-.617-1.606-.951-2.4s-.685-1.587-1-2.392a23.043,23.043,0,0,1-.844-2.456,2.277,2.277,0,0,1,.031-1.3,1.526,1.526,0,0,1,.843-.944" transform="translate(-423.34 -18.634)" fill="#b36650"/>
              <path id="Trazado_1017214" data-name="Trazado 1017214" d="M455.7,43.049s-.44-1.214-1.6-4.934-3.723-2.074-3.054.075,2.486,5.438,3.032,6.984,2.315-.067,1.626-2.126" transform="translate(-403.181 -32.105)" fill="#f8a588"/>
              <path id="Trazado_1017215" data-name="Trazado 1017215" d="M450.92,44.332a2.106,2.106,0,0,0-.053,1.135,4.476,4.476,0,0,0,.173.548c.062.182.137.36.205.54.286.715.607,1.416.937,2.112l1,2.088c.165.349.329.7.485,1.053.08.176.154.355.228.535s.134.371.214.527a.948.948,0,0,0,.151.215.582.582,0,0,0,.208.132.57.57,0,0,0,.479-.093,1.639,1.639,0,0,0,.6-.9,2.559,2.559,0,0,0,.074-1.112,3.088,3.088,0,0,0-.133-.548l-.183-.55c-.48-1.468-.929-2.944-1.358-4.426l.739,2.193c.244.732.489,1.463.744,2.191l.194.544a3.146,3.146,0,0,1,.144.574,2.712,2.712,0,0,1-.071,1.179,1.791,1.791,0,0,1-.66.99.734.734,0,0,1-.619.116.747.747,0,0,1-.277-.172,1.088,1.088,0,0,1-.182-.255c-.094-.188-.147-.368-.218-.545s-.144-.355-.222-.531c-.153-.353-.314-.7-.477-1.052-.325-.7-.661-1.394-.975-2.1s-.625-1.413-.9-2.138c-.062-.183-.131-.364-.188-.549a4.534,4.534,0,0,1-.156-.56,2.062,2.062,0,0,1,.1-1.144" transform="translate(-403.053 -39.638)" fill="#b36650"/>
              <path id="Trazado_1017216" data-name="Trazado 1017216" d="M434.065,54.02s-.424-1.087-1.555-4.421-3.472-1.792-2.822.134,2.377,4.858,2.9,6.242,2.14-.111,1.473-1.955" transform="translate(-384.09 -42.6)" fill="#f8a588"/>
              <path id="Trazado_1017217" data-name="Trazado 1017217" d="M430.079,48.6a1.345,1.345,0,0,0-.648.884,1.942,1.942,0,0,0,.076,1.1,20.4,20.4,0,0,0,.909,2.08q.505,1.019,1.026,2.031c.341.678.7,1.349.984,2.061a.978.978,0,0,0,.281.438.457.457,0,0,0,.221.1.508.508,0,0,0,.242-.037.985.985,0,0,0,.4-.331,1.747,1.747,0,0,0,.249-.484,2.261,2.261,0,0,0,.077-1.091,2.7,2.7,0,0,0-.148-.535l-.193-.536c-.253-.716-.5-1.435-.738-2.155l-.353-1.082-.175-.542c-.061-.179-.128-.357-.192-.535.071.176.146.351.215.528l.192.536.386,1.071c.256.714.513,1.428.778,2.139l.2.531a2.786,2.786,0,0,1,.159.559,2.4,2.4,0,0,1-.075,1.158,1.892,1.892,0,0,1-.267.525,1.128,1.128,0,0,1-.465.382.657.657,0,0,1-.314.048.606.606,0,0,1-.3-.124,1.116,1.116,0,0,1-.333-.5c-.277-.7-.629-1.374-.965-2.053s-.687-1.354-1.008-2.043a20.25,20.25,0,0,1-.874-2.107,2,2,0,0,1-.044-1.138,1.341,1.341,0,0,1,.688-.874" transform="translate(-383.869 -43.452)" fill="#b36650"/>
              <path id="Trazado_1017218" data-name="Trazado 1017218" d="M932.228,72.773c-3.907-4.259-11.629-7.379-17.069-5.77-4.932,1.459-9.577,4.616-11.173,9.676-.98-6.206,1.662-12.322,7.024-15.258,5.615-3.076,14.527-2.141,17.826,1.787a12.053,12.053,0,0,1,2.512,4.659,26.054,26.054,0,0,1,.881,4.906" transform="translate(-808.087 -53.28)" fill="#f14950"/>
              <path id="Trazado_1017219" data-name="Trazado 1017219" d="M979.865,83.615a.429.429,0,1,1-.429-.447.438.438,0,0,1,.429.447" transform="translate(-875.345 -74.362)" fill="#fff"/>
              <path id="Trazado_1017220" data-name="Trazado 1017220" d="M914.119,173.94a.429.429,0,1,1-.429-.447.438.438,0,0,1,.429.447" transform="translate(-816.561 -155.123)" fill="#fff"/>
              <path id="Trazado_1017221" data-name="Trazado 1017221" d="M1034.415,71.456a.429.429,0,1,1-.429-.447.438.438,0,0,1,.429.447" transform="translate(-924.119 -63.49)" fill="#fff"/>
              <path id="Trazado_1017222" data-name="Trazado 1017222" d="M1101.828,76.916a.429.429,0,1,1-.429-.447.438.438,0,0,1,.429.447" transform="translate(-984.394 -68.372)" fill="#fff"/>
              <path id="Trazado_1017223" data-name="Trazado 1017223" d="M1118.741,126.545a.429.429,0,1,1-.429-.447.438.438,0,0,1,.429.447" transform="translate(-999.517 -112.746)" fill="#fff"/>
              <path id="Trazado_1017224" data-name="Trazado 1017224" d="M1063.476,103.218a.429.429,0,1,1-.429-.447.438.438,0,0,1,.429.447" transform="translate(-950.103 -91.889)" fill="#fff"/>
              <path id="Trazado_1017225" data-name="Trazado 1017225" d="M1133.224,95.361a.429.429,0,1,1-.232.574.438.438,0,0,1,.232-.574" transform="translate(-1012.993 -85.228)" fill="#fff"/>
              <path id="Trazado_1017226" data-name="Trazado 1017226" d="M1156.854,142.426a.429.429,0,1,1-.429-.447.438.438,0,0,1,.429.447" transform="translate(-1033.594 -126.946)" fill="#fff"/>
              <path id="Trazado_1017227" data-name="Trazado 1017227" d="M1009.879,107.189a.429.429,0,1,1-.429-.447.438.438,0,0,1,.429.447" transform="translate(-902.181 -95.44)" fill="#fff"/>
              <path id="Trazado_1017228" data-name="Trazado 1017228" d="M964.858,125.551a.429.429,0,1,1-.429-.447.438.438,0,0,1,.429.447" transform="translate(-861.927 -111.858)" fill="#fff"/>
              <path id="Trazado_1017229" data-name="Trazado 1017229" d="M923.409,128.529a.429.429,0,1,1-.429-.447.438.438,0,0,1,.429.447" transform="translate(-824.867 -114.52)" fill="#fff"/>
            </g>
          </g>
        </g>
      </g>
    </g>
  </g>
</svg>
