<svg xmlns="http://www.w3.org/2000/svg" width="154" height="154" viewBox="0 0 154 154">
  <g id="Grupo_1196042" data-name="Grupo 1196042" transform="translate(-515.355 -12230.3)">
    <g id="Grupo_1194375" data-name="Grupo 1194375" transform="translate(1.297 4535.3)">
      <g id="Grupo_1192984" data-name="Grupo 1192984" transform="translate(204 324)">
        <path id="Trazado_995327" data-name="Trazado 995327" d="M77,0A77,77,0,1,1,0,77,77,77,0,0,1,77,0Z" transform="translate(310.059 7371)" fill="#104936"/>
      </g>
      <g id="donacion-de-ropa" transform="translate(540.215 7722.255)">
        <path id="Trazado_1017300" data-name="Trazado 1017300" d="M37.642,15.395l-.318.318-.318-.318a8.261,8.261,0,0,0-11.618,0A8.173,8.173,0,0,0,23,21.283a8.173,8.173,0,0,0,2.387,5.889l8.435,8.435a5,5,0,0,0,7,0l1.751-1.751a1.576,1.576,0,0,0-2.228-2.228L38.6,33.379a1.731,1.731,0,0,1-2.387,0l-8.435-8.435a5.083,5.083,0,0,1-1.592-3.66,4.937,4.937,0,0,1,1.432-3.5,5.191,5.191,0,0,1,7.162,0l1.432,1.432a1.538,1.538,0,0,0,2.228,0l1.432-1.432a5.191,5.191,0,0,1,7.162,0,5,5,0,0,1,0,7L44.8,27.013a1.576,1.576,0,0,0,2.228,2.228l2.228-2.228a8.173,8.173,0,0,0,2.387-5.889,8.173,8.173,0,0,0-2.387-5.889,8.414,8.414,0,0,0-11.618.159Z" transform="translate(11.815 6.499)" fill="#c0f1e1"/>
        <path id="Trazado_1017301" data-name="Trazado 1017301" d="M64.856,41a1.5,1.5,0,0,0-1.592,1.592V58.984L52.124,62.8V56.278a1.965,1.965,0,0,0-.637-1.273,1.547,1.547,0,0,0-1.432-.159L42.1,57.552a1.916,1.916,0,0,0-1.114,1.592v7.639l-1.592.637a1.656,1.656,0,0,0-.955,2.069A1.529,1.529,0,0,0,39.869,70.6a.585.585,0,0,0,.477-.159L65.333,61.69a1.529,1.529,0,0,0,1.114-1.432V42.592A1.5,1.5,0,0,0,64.856,41ZM44.166,60.257l4.775-1.591v5.252l-4.775,1.592Z" transform="translate(20.887 23.069)" fill="#c0f1e1"/>
        <path id="Trazado_1017302" data-name="Trazado 1017302" d="M95.133,55.315,87.176,40.992a2.339,2.339,0,0,0-.955-.8L73.011,36.854V25.236l7.321,3.66a1.736,1.736,0,0,0,2.069-.477l7.958-11.141a1.715,1.715,0,0,0,.318-1.273c0-.477-.318-.8-.8-1.114L72.375,5.342a.556.556,0,0,1-.318-.159L59.324,2a2.617,2.617,0,0,0-1.592.318,15.638,15.638,0,0,1-17.347,0A1.515,1.515,0,0,0,39.272,2L26.539,5.183a.556.556,0,0,0-.318.159L8.715,14.891a1.672,1.672,0,0,0-.8,2.228,1.762,1.762,0,0,0,2.228.637L26.221,9a13.536,13.536,0,0,1-.477,12.573l-9.39,3.979-2.865-5.093a1.762,1.762,0,0,0-2.228-.637,1.762,1.762,0,0,0-.637,2.228l3.66,6.366a1.741,1.741,0,0,0,2.069.637l8.912-3.82V37.013L12.057,40.2c-.477.159-.8.318-.955.8L3.144,55.315a1.743,1.743,0,0,0,0,1.273,1.857,1.857,0,0,0,.955.955l6.843,2.706V83.167A1.529,1.529,0,0,0,12.057,84.6l36.6,12.732c.159,0,.318.159.477.159a.585.585,0,0,0,.477-.159l5.57-1.91A1.611,1.611,0,0,0,54.073,92.4L50.73,93.671V61.2l4.934,9.867a1.829,1.829,0,0,0,1.432.955,1.2,1.2,0,0,0,.637-.159l36.6-14.324a1.435,1.435,0,0,0,.955-.955,1.8,1.8,0,0,0-.159-1.273Zm-14.8-13.369-7.321,2.546V40.037ZM49.139,52.769l-20.69-7.162v-22.6a17.23,17.23,0,0,0,.8-15.278L38.317,5.5a10.958,10.958,0,0,0,10.822,9.231A11.265,11.265,0,0,0,60.12,5.66l9.072,2.228a16.734,16.734,0,0,0,.8,15.278v22.6ZM80.491,25.4l-7.8-3.979a13.519,13.519,0,0,1-.477-12.573L86.7,16.8ZM56.46,6.615a7.9,7.9,0,0,1-14.642,0,19.425,19.425,0,0,0,14.642,0ZM25.266,44.493l-7.321-2.546,7.321-1.91ZM14.126,61.522l8.912,3.5A1.611,1.611,0,0,0,24.152,62L6.8,55.315,13.171,43.7,46.752,55.315l-6.525,13.05L29.882,64.387a1.611,1.611,0,1,0-1.114,3.024l11.618,4.615c.159,0,.318.159.637.159a1.529,1.529,0,0,0,1.432-.955l4.934-9.867V93.83L36.248,90.01V82.371a1.529,1.529,0,0,0-1.114-1.432l-7.958-2.706a1.547,1.547,0,0,0-1.432.159c-.159,0-.477.477-.477,1.114v6.525l-11.141-3.82Zm19.1,27.215-4.775-1.591V81.734l4.775,1.591ZM57.892,68.366l-6.525-13.05L84.948,43.7l6.366,11.618Z" transform="translate(0 0)" fill="#c0f1e1"/>
      </g>
    </g>
  </g>
</svg>
