<svg xmlns="http://www.w3.org/2000/svg" width="154" height="154" viewBox="0 0 154 154">
  <g id="Grupo_1196044" data-name="Grupo 1196044" transform="translate(-513.703 -12598.3)">
    <g id="Grupo_1194371" data-name="Grupo 1194371" transform="translate(-0.355 4903.3)">
      <g id="Grupo_1192984" data-name="Grupo 1192984" transform="translate(204 324)">
        <path id="Trazado_995327" data-name="Trazado 995327" d="M77,0A77,77,0,1,1,0,77,77,77,0,0,1,77,0Z" transform="translate(310.059 7371)" fill="#104936"/>
      </g>
      <g id="camisa_3_" data-name="camisa (3)" transform="translate(538.559 7706.234)">
        <path id="Trazado_1017310" data-name="Trazado 1017310" d="M181.338,199.95a2.054,2.054,0,0,0,2.57-.561l22.862-29.4a2.055,2.055,0,0,0-1.622-3.316H194.627l4.91-10.85a2.055,2.055,0,0,0-1.872-2.9h-12.46a2.055,2.055,0,0,0-1.9,1.268l-9.094,21.937a2.055,2.055,0,0,0,1.9,2.842h9.913l-5.7,18.555a2.055,2.055,0,0,0,1.016,2.426Zm-2.151-25.091,7.391-17.828h7.9l-4.91,10.85a2.055,2.055,0,0,0,1.872,2.9h9.506l-13.407,17.24,3.229-10.506a2.055,2.055,0,0,0-1.964-2.658Z" transform="translate(-138.361 -108.295)" fill="#c0f1e1"/>
        <path id="Trazado_1017311" data-name="Trazado 1017311" d="M104.839,58.136,91.519,26.39a2.043,2.043,0,0,0-.167-.318,9.88,9.88,0,0,0-6.065-4.286L66.525,16.758a2.079,2.079,0,0,0-.532-.07h-28.2a2.123,2.123,0,0,0-.656.093L19.672,21.824a9.706,9.706,0,0,0-5.708,4.249,2.057,2.057,0,0,0-.152.292L.163,58.6a2.055,2.055,0,0,0,.775,2.526L18.606,72.564v34.974a7.313,7.313,0,0,0,7.305,7.305H79.36a7.313,7.313,0,0,0,7.305-7.305V97.822a2.055,2.055,0,1,0-4.11,0v9.716a3.2,3.2,0,0,1-3.2,3.2H25.911a3.2,3.2,0,0,1-3.2-3.2v-52.4a2.055,2.055,0,1,0-4.11,0V67.668L4.619,58.612l12.907-30.48a5.555,5.555,0,0,1,3.151-2.323l.092-.024,14.917-4.307a16.247,16.247,0,0,0,32.231-.091l16.337,4.378.067.017A5.789,5.789,0,0,1,87.8,28.159l12.6,30.018L86.666,67.53V55.137a2.055,2.055,0,1,0-4.11,0V79.331a2.055,2.055,0,0,0,4.11,0V72.5L104.1,60.629a2.055,2.055,0,0,0,.738-2.494ZM51.8,31.5A12.159,12.159,0,0,1,39.741,20.8H63.85A12.159,12.159,0,0,1,51.8,31.5Z" transform="translate(0)" fill="#c0f1e1"/>
        <circle id="Elipse_13689" data-name="Elipse 13689" cx="2.051" cy="2.051" r="2.051" transform="translate(82.56 86.611)" fill="#c0f1e1"/>
      </g>
    </g>
  </g>
</svg>
