<svg xmlns="http://www.w3.org/2000/svg" width="154" height="154" viewBox="0 0 154 154">
  <g id="Grupo_1196045" data-name="Grupo 1196045" transform="translate(-930.703 -12598.3)">
    <g id="Grupo_1194372" data-name="Grupo 1194372" transform="translate(416.645 4903.3)">
      <g id="Grupo_1192984" data-name="Grupo 1192984" transform="translate(204 324)">
        <path id="Trazado_995327" data-name="Trazado 995327" d="M77,0A77,77,0,1,1,0,77,77,77,0,0,1,77,0Z" transform="translate(310.059 7371)" fill="#104936"/>
      </g>
      <g id="diseno-de-moda" transform="translate(542.181 7722.472)">
        <path id="Trazado_1017303" data-name="Trazado 1017303" d="M90.033,13.878A8.375,8.375,0,0,0,85.168,8.63L64.75.413A5.613,5.613,0,0,0,61.087.218,39.028,39.028,0,0,1,49.53,1.651,39.017,39.017,0,0,1,37.974.22a5.59,5.59,0,0,0-3.665.195L13.893,8.63a8.367,8.367,0,0,0-4.865,5.248L.26,41.406a5.407,5.407,0,0,0,2.724,6.5c2.8,1.408,7.953,3.071,16.83,3.257V94.1a4.953,4.953,0,0,0,4.953,4.953H74.294A4.953,4.953,0,0,0,79.247,94.1V51.161c8.877-.187,14.033-1.849,16.83-3.259a5.405,5.405,0,0,0,2.724-6.5ZM60.261,3.852C59.045,6.994,56.134,9.906,49.53,9.906S40.014,6.994,38.8,3.852a46.028,46.028,0,0,0,10.731,1.1,46.022,46.022,0,0,0,10.731-1.1ZM3.406,42.409l8.648-27.173c2.65,4.484,7.429,15.014,7.718,32.623-8.192-.18-12.828-1.651-15.309-2.906a2.115,2.115,0,0,1-1.057-2.544ZM75.945,94.1a1.651,1.651,0,0,1-1.651,1.651H24.766A1.651,1.651,0,0,1,23.115,94.1V49.528c0-21.213-6.373-33.2-9.021-37.27a5.068,5.068,0,0,1,1.03-.566l20.13-8.1c1.045,3.8,4.273,9.615,14.276,9.615S62.759,7.393,63.8,3.593l20.132,8.1a5.068,5.068,0,0,1,1.03.566c-2.648,4.066-9.021,16.054-9.021,37.27Zm18.646-49.15c-2.476,1.25-7.117,2.726-15.309,2.906.3-17.611,5.067-28.14,7.725-32.623l8.654,27.173a2.116,2.116,0,0,1-1.07,2.544Z" transform="translate(0 0)" fill="#c0f1e1"/>
        <path id="Trazado_1017304" data-name="Trazado 1017304" d="M18,25.3V51.717a3.3,3.3,0,0,0,3.3,3.3H54.321a3.3,3.3,0,0,0,3.3-3.3V25.3a3.3,3.3,0,0,0-3.3-3.3H21.3A3.3,3.3,0,0,0,18,25.3ZM21.3,47.59l7.537-7.413L36.3,47.6l-4.139,4.119H21.3Zm15.555,4.127L48.518,40.175l5.8,5.775v5.767ZM54.321,41.293l-3.467-3.457a3.358,3.358,0,0,0-4.74,0l-7.466,7.429-7.472-7.429a3.361,3.361,0,0,0-4.742,0L21.3,42.929V25.3H54.321Z" transform="translate(11.719 14.321)" fill="#c0f1e1"/>
        <path id="Trazado_1017305" data-name="Trazado 1017305" d="M31.953,35.906A4.953,4.953,0,1,0,27,30.953,4.953,4.953,0,0,0,31.953,35.906Zm0-6.6A1.651,1.651,0,1,1,30.3,30.953,1.651,1.651,0,0,1,31.953,29.3Z" transform="translate(17.578 16.925)" fill="#c0f1e1"/>
        <path id="Trazado_1017306" data-name="Trazado 1017306" d="M17.651,24.255A1.651,1.651,0,0,0,19.3,22.6V19.3h3.3a1.651,1.651,0,0,0,0-3.3H19.3A3.3,3.3,0,0,0,16,19.3v3.3A1.651,1.651,0,0,0,17.651,24.255Z" transform="translate(10.417 10.415)" fill="#c0f1e1"/>
        <path id="Trazado_1017307" data-name="Trazado 1017307" d="M22.6,47.953H19.3v-3.3a1.651,1.651,0,1,0-3.3,0v3.3a3.3,3.3,0,0,0,3.3,3.3h3.3a1.651,1.651,0,1,0,0-3.3Z" transform="translate(10.417 27.991)" fill="#c0f1e1"/>
        <path id="Trazado_1017308" data-name="Trazado 1017308" d="M45.6,43a1.651,1.651,0,0,0-1.651,1.651v3.3h-3.3a1.651,1.651,0,1,0,0,3.3h3.3a3.3,3.3,0,0,0,3.3-3.3v-3.3A1.651,1.651,0,0,0,45.6,43Z" transform="translate(25.389 27.991)" fill="#c0f1e1"/>
        <path id="Trazado_1017309" data-name="Trazado 1017309" d="M43.953,16h-3.3a1.651,1.651,0,1,0,0,3.3h3.3v3.3a1.651,1.651,0,0,0,3.3,0V19.3A3.3,3.3,0,0,0,43.953,16Z" transform="translate(25.389 10.415)" fill="#c0f1e1"/>
      </g>
    </g>
  </g>
</svg>
