<svg xmlns="http://www.w3.org/2000/svg" width="84" height="84" viewBox="0 0 84 84">
  <g id="Grupo_1196047" data-name="Grupo 1196047" transform="translate(-706 -13121.245)">
    <g id="Grupo_1194752" data-name="Grupo 1194752" transform="translate(0 9360.325)">
      <g id="Grupo_1177229" data-name="Grupo 1177229" transform="translate(0 2082)" style="isolation: isolate">
        <g id="Grupo_1119665" data-name="Grupo 1119665" transform="translate(534.111 -3840.08)">
          <rect id="Rectángulo_402006" data-name="Rectángulo 402006" width="84" height="84" rx="5" transform="translate(171.889 5519)" fill="#104936"/>
        </g>
      </g>
      <path id="Trazado_1015035" data-name="Trazado 1015035" d="M52.321,35.731a1.051,1.051,0,0,1,1.051-1.051H70.184a1.051,1.051,0,1,1,0,2.1H53.372A1.051,1.051,0,0,1,52.321,35.731Zm1.051,12.517H70.184a1.051,1.051,0,1,0,0-2.1H53.372a1.051,1.051,0,1,0,0,2.1Zm-6.625,8.138L44.2,58.938l-.9-.9A1.051,1.051,0,0,0,41.8,59.521l1.648,1.648a1.051,1.051,0,0,0,1.487,0l3.3-3.3a1.051,1.051,0,0,0-1.487-1.487Zm-3.3-18.379a1.051,1.051,0,0,0,1.487,0l3.3-3.3a1.051,1.051,0,0,0-1.487-1.487L44.2,35.777l-.9-.9A1.051,1.051,0,1,0,41.8,36.359Zm3.3,6.8L44.2,47.357l-.9-.9A1.051,1.051,0,1,0,41.8,47.94l1.648,1.648a1.051,1.051,0,0,0,1.487,0l3.3-3.3a1.051,1.051,0,0,0-1.487-1.487Zm-.285,27.77a4.481,4.481,0,0,1-3.168,5.488,4.507,4.507,0,0,1-1.167.155,4.482,4.482,0,1,1,4.335-5.642Zm-2.031.544a2.381,2.381,0,0,0-2.293-1.763,2.39,2.39,0,0,0-.619.082,2.378,2.378,0,1,0,2.912,1.681ZM89.838,44.9,78.224,56.514V70.305a1.051,1.051,0,0,1-1.051,1.051H52.887a2.33,2.33,0,0,1,.258.776,11.1,11.1,0,0,1,0,3.2,2.286,2.286,0,0,1-2.279,1.973h-.007a1.466,1.466,0,0,0-1.269,2.2,2.286,2.286,0,0,1-.567,2.964,11.109,11.109,0,0,1-2.773,1.6,2.287,2.287,0,0,1-2.846-.991,1.466,1.466,0,0,0-2.543,0,2.286,2.286,0,0,1-1.985,1.158,2.33,2.33,0,0,1-.866-.168,11.188,11.188,0,0,1-2.766-1.6,2.286,2.286,0,0,1-.569-2.964,1.466,1.466,0,0,0-1.27-2.2h0a2.287,2.287,0,0,1-2.278-1.97,11.105,11.105,0,0,1,0-3.2A2.286,2.286,0,0,1,33.4,70.163h.007a1.466,1.466,0,0,0,1.269-2.2,2.284,2.284,0,0,1,.53-2.932V24.043a1.051,1.051,0,0,1,1.051-1.051H77.172a1.051,1.051,0,0,1,1.051,1.051V45.675l6.2-6.2a1.051,1.051,0,0,1,1.487,0l3.932,3.932a1.051,1.051,0,0,1,0,1.487ZM51.064,72.437a.194.194,0,0,0-.2-.171h0a3.569,3.569,0,0,1-3.089-5.359.194.194,0,0,0-.049-.258,9.088,9.088,0,0,0-2.247-1.3.194.194,0,0,0-.248.086,3.569,3.569,0,0,1-6.188,0,.2.2,0,0,0-.247-.086,9.015,9.015,0,0,0-2.248,1.3.194.194,0,0,0-.049.257,3.569,3.569,0,0,1-3.089,5.36H33.4a.194.194,0,0,0-.2.172,9.008,9.008,0,0,0,0,2.6.194.194,0,0,0,.2.171h0a3.569,3.569,0,0,1,3.09,5.359.194.194,0,0,0,.049.258,9.091,9.091,0,0,0,2.247,1.3.194.194,0,0,0,.248-.086,3.569,3.569,0,0,1,6.188,0,.2.2,0,0,0,.247.086,9.016,9.016,0,0,0,2.249-1.3.194.194,0,0,0,.049-.257,3.569,3.569,0,0,1,3.089-5.36h.007a.194.194,0,0,0,.2-.172A9.012,9.012,0,0,0,51.064,72.437ZM76.121,58.616,70.177,64.56a1.051,1.051,0,0,1-.415.255L63.905,66.74a1.051,1.051,0,0,1-1.327-1.327l1.873-5.7H53.372a1.051,1.051,0,0,1,0-2.1H66.289l9.832-9.832V25.095H37.309V63.709q.348-.167.707-.31a2.287,2.287,0,0,1,2.846.991,1.466,1.466,0,0,0,2.543,0,2.286,2.286,0,0,1,2.851-.99A11.2,11.2,0,0,1,49.023,65a2.286,2.286,0,0,1,.568,2.964,1.473,1.473,0,0,0-.088,1.293H76.121V58.616ZM87.608,44.156l-2.445-2.445-18.74,18.74-1.2,3.642,3.642-1.2Z" transform="translate(690.127 3751.305)" fill="#c0f1e1"/>
    </g>
  </g>
</svg>
