<svg xmlns="http://www.w3.org/2000/svg" xmlns:xlink="http://www.w3.org/1999/xlink" width="396" height="398.345" viewBox="0 0 396 398.345">
  <defs>
    <clipPath id="clip-path">
      <rect id="Rectángulo_462334" data-name="Rectángulo 462334" width="396" height="279.186" fill="none"/>
    </clipPath>
    <clipPath id="clip-path-3">
      <path id="Trazado_1016886" data-name="Trazado 1016886" d="M219.97,125.565l28.883-13.174L217.3,107.705Z" transform="translate(-217.299 -107.705)" fill="none"/>
    </clipPath>
    <clipPath id="clip-path-5">
      <rect id="Rectángulo_462328" data-name="Rectángulo 462328" width="144.43" height="24.162" fill="none"/>
    </clipPath>
    <clipPath id="clip-path-6">
      <rect id="Rectángulo_462329" data-name="Rectángulo 462329" width="145.568" height="24.522" fill="none"/>
    </clipPath>
    <clipPath id="clip-path-7">
      <path id="Trazado_1016893" data-name="Trazado 1016893" d="M25.344,130.811a3.254,3.254,0,0,0-2.885,3.673l1.775,13.1a3.254,3.254,0,0,0,3.659,2.787l19.6-2.643-2.485-18.982Z" transform="translate(-22.429 -128.745)" fill="none"/>
    </clipPath>
    <clipPath id="clip-path-9">
      <rect id="Rectángulo_462331" data-name="Rectángulo 462331" width="33.688" height="101.708" fill="none"/>
    </clipPath>
    <clipPath id="clip-path-10">
      <rect id="Rectángulo_462332" data-name="Rectángulo 462332" width="37.187" height="78.07" fill="none"/>
    </clipPath>
  </defs>
  <g id="Grupo_1196054" data-name="Grupo 1196054" transform="translate(-1017 -1318.392)">
    <g id="Grupo_1195921" data-name="Grupo 1195921">
      <path id="Trazado_1016926" data-name="Trazado 1016926" d="M427.259,434.541c25.036-4.983,86.419-178.37-9.43-272.011-29.665-28.982-58.272-11.329-90.1-56.145-24.193-34.06-42.49-55.824-73.459-59.351-37.3-4.247-91.4,1.539-106.271,58.14-6.794,25.866-10.087,48.184-10.284,75.1-.5,68.776-35.587,74.746-44.421,120.787-14.2,74,17.228,132.085,36.675,133.434,18.162,1.26,278.1,3.268,297.295.049" transform="translate(934.283 1272.459)" fill="#e0e8fc"/>
      <g id="Grupo_1195920" data-name="Grupo 1195920" transform="translate(1017 1437.55)">
        <g id="Grupo_1195919" data-name="Grupo 1195919" clip-path="url(#clip-path)">
          <g id="Grupo_1195898" data-name="Grupo 1195898">
            <g id="Grupo_1195897" data-name="Grupo 1195897" clip-path="url(#clip-path)">
              <path id="Trazado_1016859" data-name="Trazado 1016859" d="M0,324.915c0,2.906,88.648,5.261,198,5.261s198-2.355,198-5.261-88.648-5.261-198-5.261S0,322.009,0,324.915" transform="translate(0 -50.989)" fill="#d5d8ef"/>
              <path id="Trazado_1016860" data-name="Trazado 1016860" d="M337.885,278.754H171.18a3.362,3.362,0,0,1-3.362-3.362V30.645a3.362,3.362,0,0,1,3.362-3.362h166.7a3.362,3.362,0,0,1,3.362,3.362V275.392a3.362,3.362,0,0,1-3.362,3.362" transform="translate(-26.769 -4.352)" fill="#1f143f"/>
              <path id="Trazado_1016861" data-name="Trazado 1016861" d="M334.359,278.754h-166.7a3.362,3.362,0,0,1-3.362-3.362V30.645a3.362,3.362,0,0,1,3.362-3.362h166.7a3.362,3.362,0,0,1,3.362,3.362V275.392a3.362,3.362,0,0,1-3.362,3.362" transform="translate(-26.207 -4.352)" fill="#4266b0"/>
              <rect id="Rectángulo_462321" data-name="Rectángulo 462321" width="150.012" height="229.698" transform="translate(152.758 33.818)" fill="#c1c6e0"/>
              <rect id="Rectángulo_462322" data-name="Rectángulo 462322" width="150.012" height="229.698" transform="translate(149.793 33.818)" fill="#fff"/>
              <path id="Trazado_1016862" data-name="Trazado 1016862" d="M296.971,42.219h-72.84V24.378a4.2,4.2,0,0,1,4.2-4.2h64.435a4.2,4.2,0,0,1,4.2,4.2Z" transform="translate(-35.752 -3.218)" fill="#1f143f"/>
              <path id="Trazado_1016863" data-name="Trazado 1016863" d="M264.245,0A16.956,16.956,0,1,0,281.2,16.958,16.957,16.957,0,0,0,264.245,0m0,25.435a8.478,8.478,0,1,1,8.478-8.478,8.478,8.478,0,0,1-8.478,8.478" transform="translate(-39.445 0)" fill="#1f143f"/>
              <rect id="Rectángulo_462323" data-name="Rectángulo 462323" width="18.244" height="18.244" rx="2" transform="translate(260.005 80.223)" fill="none" stroke="#d5d8ef" stroke-miterlimit="10" stroke-width="1"/>
              <path id="Trazado_1016864" data-name="Trazado 1016864" d="M303.123,100.307l9.03,9.031a2.133,2.133,0,0,0,2.972,0L333.668,90.8l2.613-2.614c1.915-1.915-1.056-4.887-2.971-2.972l-18.544,18.544-2.613,2.613h2.972l-9.03-9.03c-1.915-1.915-4.887,1.056-2.972,2.971" transform="translate(-48.253 -13.493)" fill="#e95a4f"/>
              <rect id="Rectángulo_462324" data-name="Rectángulo 462324" width="18.244" height="18.244" rx="2" transform="translate(260.005 115.616)" fill="none" stroke="#d5d8ef" stroke-miterlimit="10" stroke-width="1"/>
              <path id="Trazado_1016865" data-name="Trazado 1016865" d="M303.123,142.417l9.03,9.03a2.133,2.133,0,0,0,2.972,0L333.668,132.9l2.613-2.614c1.915-1.915-1.056-4.887-2.971-2.971l-18.544,18.543-2.613,2.613h2.972l-9.03-9.03c-1.915-1.915-4.887,1.057-2.972,2.972" transform="translate(-48.253 -20.21)" fill="#e95a4f"/>
              <rect id="Rectángulo_462325" data-name="Rectángulo 462325" width="18.244" height="18.244" rx="2" transform="translate(260.005 149.367)" fill="none" stroke="#d5d8ef" stroke-miterlimit="10" stroke-width="1"/>
              <path id="Trazado_1016866" data-name="Trazado 1016866" d="M303.123,182.574l9.03,9.03a2.133,2.133,0,0,0,2.972,0l18.543-18.544,2.613-2.613c1.915-1.915-1.056-4.887-2.971-2.971l-18.544,18.543-2.613,2.613h2.972l-9.03-9.03c-1.915-1.915-4.887,1.057-2.972,2.972" transform="translate(-48.253 -26.616)" fill="#e95a4f"/>
              <rect id="Rectángulo_462326" data-name="Rectángulo 462326" width="18.244" height="18.244" rx="2" transform="translate(260.005 183.665)" fill="none" stroke="#d5d8ef" stroke-miterlimit="10" stroke-width="1"/>
              <path id="Trazado_1016867" data-name="Trazado 1016867" d="M303.123,223.381l9.03,9.03a2.133,2.133,0,0,0,2.972,0l18.543-18.543,2.613-2.614c1.915-1.915-1.056-4.887-2.971-2.971l-18.544,18.543-2.613,2.613h2.972l-9.03-9.03c-1.915-1.915-4.887,1.057-2.972,2.972" transform="translate(-48.253 -33.125)" fill="#e95a4f"/>
              <path id="Trazado_1016868" data-name="Trazado 1016868" d="M278.269,97.48H202.961a.841.841,0,0,1-.84-.84V95.311a.841.841,0,0,1,.84-.84h75.308a.841.841,0,0,1,.84.84v1.328a.841.841,0,0,1-.84.84" transform="translate(-32.241 -15.069)" fill="#c1c6e0"/>
              <path id="Trazado_1016869" data-name="Trazado 1016869" d="M278.269,106.706H202.961a.841.841,0,0,1-.84-.84v-1.328a.841.841,0,0,1,.84-.84h75.308a.841.841,0,0,1,.84.84v1.328a.841.841,0,0,1-.84.84" transform="translate(-32.241 -16.541)" fill="#c1c6e0"/>
              <path id="Trazado_1016870" data-name="Trazado 1016870" d="M260.116,115.932H202.961a.841.841,0,0,1-.84-.84v-1.328a.841.841,0,0,1,.84-.84h57.155a.841.841,0,0,1,.84.84v1.328a.841.841,0,0,1-.84.84" transform="translate(-32.241 -18.013)" fill="#c1c6e0"/>
              <path id="Trazado_1016871" data-name="Trazado 1016871" d="M278.269,139.59H202.961a.841.841,0,0,1-.84-.84v-1.328a.841.841,0,0,1,.84-.84h75.308a.841.841,0,0,1,.84.84v1.328a.841.841,0,0,1-.84.84" transform="translate(-32.241 -21.786)" fill="#c1c6e0"/>
              <path id="Trazado_1016872" data-name="Trazado 1016872" d="M278.269,148.816H202.961a.841.841,0,0,1-.84-.84v-1.328a.841.841,0,0,1,.84-.84h75.308a.841.841,0,0,1,.84.84v1.328a.841.841,0,0,1-.84.84" transform="translate(-32.241 -23.258)" fill="#c1c6e0"/>
              <path id="Trazado_1016873" data-name="Trazado 1016873" d="M260.116,158.042H202.961a.841.841,0,0,1-.84-.84v-1.328a.841.841,0,0,1,.84-.84h57.155a.841.841,0,0,1,.84.84V157.2a.841.841,0,0,1-.84.84" transform="translate(-32.241 -24.73)" fill="#c1c6e0"/>
              <path id="Trazado_1016874" data-name="Trazado 1016874" d="M278.269,179.747H202.961a.841.841,0,0,1-.84-.84v-1.328a.841.841,0,0,1,.84-.84h75.308a.841.841,0,0,1,.84.84v1.328a.841.841,0,0,1-.84.84" transform="translate(-32.241 -28.192)" fill="#c1c6e0"/>
              <path id="Trazado_1016875" data-name="Trazado 1016875" d="M278.269,188.972H202.961a.841.841,0,0,1-.84-.84V186.8a.841.841,0,0,1,.84-.841h75.308a.841.841,0,0,1,.84.841v1.328a.841.841,0,0,1-.84.84" transform="translate(-32.241 -29.663)" fill="#c1c6e0"/>
              <path id="Trazado_1016876" data-name="Trazado 1016876" d="M260.116,198.2H202.961a.841.841,0,0,1-.84-.84v-1.328a.84.84,0,0,1,.84-.84h57.155a.84.84,0,0,1,.84.84v1.328a.841.841,0,0,1-.84.84" transform="translate(-32.241 -31.135)" fill="#c1c6e0"/>
              <path id="Trazado_1016877" data-name="Trazado 1016877" d="M278.269,220.554H202.961a.841.841,0,0,1-.84-.84v-1.328a.841.841,0,0,1,.84-.84h75.308a.841.841,0,0,1,.84.84v1.328a.841.841,0,0,1-.84.84" transform="translate(-32.241 -34.701)" fill="#c1c6e0"/>
              <path id="Trazado_1016878" data-name="Trazado 1016878" d="M278.269,229.78H202.961a.841.841,0,0,1-.84-.84v-1.328a.841.841,0,0,1,.84-.84h75.308a.841.841,0,0,1,.84.84v1.328a.841.841,0,0,1-.84.84" transform="translate(-32.241 -36.173)" fill="#c1c6e0"/>
              <path id="Trazado_1016879" data-name="Trazado 1016879" d="M260.116,239.006H202.961a.841.841,0,0,1-.84-.84v-1.328a.841.841,0,0,1,.84-.84h57.155a.841.841,0,0,1,.84.84v1.328a.841.841,0,0,1-.84.84" transform="translate(-32.241 -37.644)" fill="#c1c6e0"/>
              <path id="Trazado_1016880" data-name="Trazado 1016880" d="M174.1,108.177c3.807.305,10.6,2.945,9.25,8.012a1.194,1.194,0,0,1-.319.605,1.375,1.375,0,0,1-.892.239c-1.7.047-3.544-.069-4.844-1.164-.816-.688-1.327-1.7-2.195-2.319a6.48,6.48,0,0,0-1.672-.772l-3.02-1.06c-.533-.187-1.135-.443-1.3-.984a1.551,1.551,0,0,1,.783-1.549,6.282,6.282,0,0,1,4.2-1.008" transform="translate(-26.97 -17.251)" fill="#1f143f"/>
              <path id="Trazado_1016881" data-name="Trazado 1016881" d="M69.59,324.8l.058.012a25.2,25.2,0,0,0,4.823.275c2.932.024,5.853.053,8.784-.079,1.8-.082,2.532-.977,2.868-2.647a21.407,21.407,0,0,0,.39-5.3,1.028,1.028,0,0,0-.113-.5,1,1,0,0,0-.54-.357,9.5,9.5,0,0,0-2.213-.52c-.518-.058-1.47-.245-1.91.085a6.822,6.822,0,0,0-1.079,1.553,10.541,10.541,0,0,1-1.292,1.628,8.5,8.5,0,0,1-3.545,1.93c-1.3.392-2.648.6-3.97.913a7.6,7.6,0,0,0-2.8,1.12,1.193,1.193,0,0,0-.61,1.026c.069.505.64.745,1.146.856" transform="translate(-10.917 -50.34)" fill="#1f143f"/>
              <path id="Trazado_1016882" data-name="Trazado 1016882" d="M151.9,324.8l-.057.012a25.216,25.216,0,0,1-4.824.275c-2.932.024-5.853.053-8.784-.079-1.8-.082-2.532-.977-2.867-2.647a21.367,21.367,0,0,1-.391-5.3,1.037,1.037,0,0,1,.113-.5,1,1,0,0,1,.54-.357,9.482,9.482,0,0,1,2.212-.52c.518-.058,1.47-.245,1.91.085a6.822,6.822,0,0,1,1.079,1.553,10.542,10.542,0,0,0,1.292,1.628,8.5,8.5,0,0,0,3.545,1.93c1.3.392,2.648.6,3.97.913a7.6,7.6,0,0,1,2.8,1.12,1.193,1.193,0,0,1,.61,1.026c-.069.505-.64.745-1.146.856" transform="translate(-21.526 -50.34)" fill="#1f143f"/>
              <path id="Trazado_1016883" data-name="Trazado 1016883" d="M112.06,92.724a7.824,7.824,0,0,1-.179,1.3c-.461,1.925-1.884,3.349-2.927,4.965a6.834,6.834,0,0,0-.843,4.714c.521,3.429,2.59,6.654,4.873,9.187a8.558,8.558,0,0,0,1.683,1.616,12.732,12.732,0,0,0,2.526.95,33.507,33.507,0,0,0,7.076,1.524c1.183.124,2.37.173,3.558.192a7.255,7.255,0,0,0,3.109-1.083,13.1,13.1,0,0,0,3.115-2.061,18.836,18.836,0,0,0,2.547-3.079,7.721,7.721,0,0,0,1.415-2.733c.259-1.206-.05-2.513.4-3.662a11.722,11.722,0,0,1,1.267-1.966c1.407-2.182-.59-4.828.553-7.1.711-1.411,2.151-2.281,2.764-3.747a5.882,5.882,0,0,0-.008-4.423,9.837,9.837,0,0,0-5.384-4.9c-2.609-1.138-5.909-1.519-8.1.3-.465.387-.854.855-1.294,1.268-3.529,3.318-8.1.676-12.163,2.2a5.911,5.911,0,0,0-3.683,3.682,13.356,13.356,0,0,0-.308,2.854" transform="translate(-17.23 -12.993)" fill="#1f143f"/>
              <path id="Trazado_1016884" data-name="Trazado 1016884" d="M248.853,112.392,217.3,107.705l2.671,17.86Z" transform="translate(-34.662 -17.18)" fill="#eeeaed"/>
            </g>
          </g>
          <g id="Grupo_1195900" data-name="Grupo 1195900" transform="translate(182.637 90.525)">
            <g id="Grupo_1195899" data-name="Grupo 1195899" clip-path="url(#clip-path-3)">
              <path id="Trazado_1016885" data-name="Trazado 1016885" d="M240.314,116.193a7.716,7.716,0,0,0,1.361,2.886c2.223,2.829,7.477.951,10.1-.231a9.062,9.062,0,0,0,5.545-7.513,4.687,4.687,0,0,0-.5-2.711c-1.023-1.8-3.552-2.165-5.387-2.579a13.486,13.486,0,0,0-6.821.088c-3.886,1.166-5.272,6.163-4.292,10.06" transform="translate(-220.922 -107.377)" fill="#e95a4f"/>
            </g>
          </g>
          <g id="Grupo_1195908" data-name="Grupo 1195908">
            <g id="Grupo_1195907" data-name="Grupo 1195907" clip-path="url(#clip-path)">
              <path id="Trazado_1016887" data-name="Trazado 1016887" d="M189.352,107.658,48.969,125.381l-1.7,19.546,144.94-19.186Z" transform="translate(-7.54 -17.173)" fill="#fb0"/>
              <g id="Grupo_1195903" data-name="Grupo 1195903" transform="translate(38.36 90.485)" opacity="0.2">
                <g id="Grupo_1195902" data-name="Grupo 1195902">
                  <g id="Grupo_1195901" data-name="Grupo 1195901" clip-path="url(#clip-path-5)">
                    <path id="Trazado_1016888" data-name="Trazado 1016888" d="M45.64,131.82l144.43-17.97-.979-6.192L48.709,125.382Z" transform="translate(-45.64 -107.658)" fill="#fff"/>
                  </g>
                </g>
              </g>
              <g id="Grupo_1195906" data-name="Grupo 1195906" transform="translate(39.101 103.232)" opacity="0.2">
                <g id="Grupo_1195905" data-name="Grupo 1195905">
                  <g id="Grupo_1195904" data-name="Grupo 1195904" clip-path="url(#clip-path-6)">
                    <path id="Trazado_1016889" data-name="Trazado 1016889" d="M46.522,141.336l144.725-18.512.843,5.336L47.15,147.347Z" transform="translate(-46.522 -122.824)" fill="#231f20"/>
                  </g>
                </g>
              </g>
              <path id="Trazado_1016890" data-name="Trazado 1016890" d="M45.006,128.745l2.485,18.982-19.6,2.644a3.254,3.254,0,0,1-3.659-2.788l-1.775-13.1a3.253,3.253,0,0,1,2.885-3.673Z" transform="translate(-3.578 -20.536)" fill="#68838c"/>
            </g>
          </g>
          <g id="Grupo_1195910" data-name="Grupo 1195910" transform="translate(18.852 108.209)">
            <g id="Grupo_1195909" data-name="Grupo 1195909" clip-path="url(#clip-path-7)">
              <path id="Trazado_1016891" data-name="Trazado 1016891" d="M29.779,128,32.835,150.9l-10.093.716-3.277-21.208Z" transform="translate(-21.956 -128.627)" fill="#c95b59"/>
              <path id="Trazado_1016892" data-name="Trazado 1016892" d="M37.027,127.494l3.115,23.3,4.935-.386-3.28-23.32" transform="translate(-24.758 -128.481)" fill="none" stroke="#506d75" stroke-miterlimit="10" stroke-width="1"/>
            </g>
          </g>
          <g id="Grupo_1195918" data-name="Grupo 1195918">
            <g id="Grupo_1195917" data-name="Grupo 1195917" clip-path="url(#clip-path)">
              <path id="Trazado_1016894" data-name="Trazado 1016894" d="M218.59,121.62a3.5,3.5,0,1,1,2.141-4.249,3.369,3.369,0,0,1-2.141,4.249" transform="translate(-34.195 -18.311)" fill="#eeeaed"/>
              <path id="Trazado_1016895" data-name="Trazado 1016895" d="M219.43,128.025a2.763,2.763,0,1,1,2.062-3.461,2.852,2.852,0,0,1-2.062,3.461" transform="translate(-34.414 -19.557)" fill="#eeeaed"/>
              <path id="Trazado_1016896" data-name="Trazado 1016896" d="M217.218,113.857A3.177,3.177,0,1,1,219.166,110a3.058,3.058,0,0,1-1.948,3.856" transform="translate(-34.038 -17.173)" fill="#eeeaed"/>
              <path id="Trazado_1016897" data-name="Trazado 1016897" d="M91.187,267.969A353.423,353.423,0,0,0,98.8,229.383c.53-4.169,1.041-8.341,1.62-12.5.628-4.507,1.35-8.791,2.245-15.184.324-2.311,5.1-2.268,7.376-2.8,5.677-1.315,11.526-.62,17.284-.525,2.119.036,4.992-.856,6.388,1,1.491,1.982,1.457,5.472,1.591,7.826,1.188,20.9-1.322,41.766-1.906,62.64-.245,8.768-.095,17.467.341,26.224.087,1.733-.348,3.45-2.321,3.7a7.386,7.386,0,0,1-3.582-.443c-1.866-1.072-3.038-4.621-3.677-6.507a54.814,54.814,0,0,1-1.9-8.359,153.807,153.807,0,0,1-1.694-15.757c-1.151-17.175-2.046-28.261-.767-46.93-1.746,10.047-1.71,16.608-4.792,26.329-2.922,9.217-7.183,17.931-11.591,26.512-2.445,4.759-4.77,9.583-7.424,14.231-1.325,2.321-2.73,4.6-4.268,6.784-1.351,1.92-2.415,3.863-4.947,4.16a14.048,14.048,0,0,1-3.283-.131c-.3-.036-.651-.1-.793-.372a.936.936,0,0,1-.039-.567c.746-5.105,3.28-10.091,4.65-15.084,1.423-5.188,2.609-10.436,3.875-15.663" transform="translate(-13.182 -31.6)" fill="#4266b0"/>
              <path id="Trazado_1016898" data-name="Trazado 1016898" d="M103.743,202.709a5.25,5.25,0,0,1,1.059-.555,13.581,13.581,0,0,1,2.248-.7c1.789-.392,1.638.674,2,1.913.432,1.5,1.328,2.974,1.9,4.434.631,1.607,1.778,3-.07,4.05a7.826,7.826,0,0,1-3.071.973,1.27,1.27,0,0,1-.626-.051,1.249,1.249,0,0,1-.45-.387c-.825-1-1.628-2.1-2.38-3.161-1.077-1.518-1.95-2.82-1.634-4.785a2.811,2.811,0,0,1,.349-1.03,2.39,2.39,0,0,1,.677-.7" transform="translate(-16.374 -32.121)" fill="#fab594"/>
              <path id="Trazado_1016899" data-name="Trazado 1016899" d="M105.016,214.546a17.651,17.651,0,0,0,3.069.017,7.863,7.863,0,0,0,2.5-.693,9.686,9.686,0,0,0,3.611-3.1,12.38,12.38,0,0,0,1.43-2.583.422.422,0,0,0-.293-.517.433.433,0,0,0-.518.293c-.032.078-.013.033-.006.016l-.033.076c-.019.045-.039.09-.059.134-.045.1-.092.2-.14.3-.088.186-.182.369-.281.55a11.6,11.6,0,0,1-.643,1.046c-.056.081-.113.161-.171.241l-.082.111-.048.063c-.045.06.01-.013-.018.023q-.179.229-.371.449a9.972,9.972,0,0,1-.807.825c-.142.129-.287.252-.436.372l-.1.079-.06.045c-.073.054-.146.107-.22.159a8.194,8.194,0,0,1-.928.561c-.078.04-.156.079-.235.116l-.11.051-.064.029-.045.02c.04-.018-.056.024-.077.031-.043.018-.085.034-.129.05-.08.03-.161.06-.242.087a7.063,7.063,0,0,1-1.2.288l-.1.014-.057.007-.219.024c-.129.012-.258.021-.388.029-.283.015-.568.02-.852.017-.561-.007-1.122-.042-1.683-.077a.422.422,0,0,0-.42.42.43.43,0,0,0,.42.42" transform="translate(-16.684 -33.125)" fill="#4c83c3"/>
              <path id="Trazado_1016900" data-name="Trazado 1016900" d="M143.551,217.608a4.743,4.743,0,0,1-1.481.1c.056.009-.085-.016-.073-.013l-.087-.018c-.058-.013-.116-.029-.172-.046a1.544,1.544,0,0,1-.371-.16,2.38,2.38,0,0,1-.216-.134l-.071-.051c-.082-.06.071.059-.009-.008a4.416,4.416,0,0,1-.56-.561l-.076-.093a.409.409,0,0,1-.03-.039c0,.005.062.082.02.026s-.1-.129-.143-.2c-.1-.136-.187-.276-.275-.418a10.8,10.8,0,0,1-.514-.951c-.087-.178-.168-.359-.247-.54l-.027-.063c-.044-.1.022.054,0-.01-.02-.049-.04-.1-.06-.145-.04-.1-.08-.2-.119-.3a24.864,24.864,0,0,1-.873-2.764c-.321-1.24-.568-2.5-.767-3.762a.422.422,0,0,0-.517-.294.434.434,0,0,0-.294.517,32.167,32.167,0,0,0,1.576,6.357,14.28,14.28,0,0,0,1.068,2.293,5.851,5.851,0,0,0,1.19,1.489,2.973,2.973,0,0,0,1.374.684,5.648,5.648,0,0,0,1.98-.088.421.421,0,0,0,.293-.517.432.432,0,0,0-.517-.293" transform="translate(-21.786 -33.043)" fill="#4c83c3"/>
              <g id="Grupo_1195913" data-name="Grupo 1195913" transform="translate(88.656 166.505)" opacity="0.2">
                <g id="Grupo_1195912" data-name="Grupo 1195912">
                  <g id="Grupo_1195911" data-name="Grupo 1195911" clip-path="url(#clip-path-9)">
                    <path id="Trazado_1016901" data-name="Trazado 1016901" d="M131.085,198.372c-.07,0-.14,0-.208,0-5.757-.1-11.608-.79-17.284.524-2.274.527-7.053.484-7.376,2.8-.259,1.849-.5,3.517-.735,5.07a13.767,13.767,0,0,0,3.422,1.918,53.91,53.91,0,0,0,11.827,3.242c4.629.788,10.947,0,13.342,5.028,1.125,2.359,1.191,5.065,1.237,7.677.216,12.253.447,24.8-.623,37.127a142.476,142.476,0,0,1-2.806,18.7c-1.085,4.862-2.938,10.109-3.116,15.212a7.783,7.783,0,0,0,2.62,3.66,7.39,7.39,0,0,0,3.583.443c1.973-.253,2.408-1.97,2.321-3.7-.436-8.757-.587-17.456-.341-26.224.584-20.875,3.094-41.739,1.905-62.641-.057-1.011-.084-2.233-.214-3.455a16.077,16.077,0,0,0-7.555-5.371" transform="translate(-105.482 -198.105)" fill="#231f20"/>
                  </g>
                </g>
              </g>
              <path id="Trazado_1016902" data-name="Trazado 1016902" d="M147.17,137.606a6.206,6.206,0,0,0-1.484,1.114,4.2,4.2,0,0,0,1.235,6.521c2.946,1.283,6.52.409,9.475-.4a94.133,94.133,0,0,0,20.057-8.536,24.693,24.693,0,0,0,3.358-1.879,3.779,3.779,0,0,0,1.15-1.329Z" transform="translate(-23.071 -21.23)" fill="#fab594"/>
              <path id="Trazado_1016903" data-name="Trazado 1016903" d="M141.9,150.505a41.853,41.853,0,0,0-2.3-7.709c-1.16-2.82-3.064-6.206-5.762-7.836-2.527-1.527-7.513-.069-10.318.583-2.642.614-6.611,1.441-8.755,3.211-1.979,1.633-1.757,5.713-1.519,8.073.274,2.717.938,5.385,1.179,8.1.44,4.968-.544,9.947-1.72,14.794a123.225,123.225,0,0,1-5.336,17.085,5.491,5.491,0,0,0-.59,2.558c.155,1.5,1.516,2.565,2.818,3.336,8.57,5.072,19.062,4.292,28.688,3.82a4.27,4.27,0,0,0,2.292-.563,4.135,4.135,0,0,0,1.346-2.594c1.19-5.276,1.23-10.735,1.207-16.142-.039-8.77.513-18.023-1.236-26.721" transform="translate(-17.031 -21.42)" fill="#dfeae5"/>
              <path id="Trazado_1016904" data-name="Trazado 1016904" d="M129.819,135.308q-2.883-.88-5.7-1.957a1.44,1.44,0,0,1-.54-.3c-.392-.4-.323-1.3-.354-1.822a15.931,15.931,0,0,1,.033-2.072c.088-1.262.3-2.525.291-3.791a6.393,6.393,0,0,1,.459-2.985,4.3,4.3,0,0,1,2.889-2.052,12.769,12.769,0,0,1,3.639-.156,1.651,1.651,0,0,1,1,.277c.9.77.693,2.3.806,3.352a41.53,41.53,0,0,0,.849,4.566c.156.7.374,1.391.544,2.091a3.328,3.328,0,0,1,.2,1.826,7.566,7.566,0,0,1-2.557,3.044,1.117,1.117,0,0,1-.456.229,1.2,1.2,0,0,1-.524-.072q-.292-.087-.584-.177" transform="translate(-19.652 -19.16)" fill="#fab594"/>
              <path id="Trazado_1016905" data-name="Trazado 1016905" d="M125.012,128.562a11.165,11.165,0,0,0,8.6,1.641c-.114-.608-.235-1.218-.373-1.836a41.531,41.531,0,0,1-.849-4.566c-.113-1.056.1-2.582-.806-3.351a1.64,1.64,0,0,0-1-.277,12.738,12.738,0,0,0-3.639.155,4.3,4.3,0,0,0-2.889,2.052,6.4,6.4,0,0,0-.459,2.985c0,.658-.03,1.363-.071,2.089a13.763,13.763,0,0,0,1.489,1.108" transform="translate(-19.703 -19.16)" fill="#eb977d"/>
              <path id="Trazado_1016906" data-name="Trazado 1016906" d="M117.153,111.572a15.716,15.716,0,0,0,6.817,11.009c2.89,1.85,7.184,2.808,10.286.915,4.163-2.542,5-8.711,4.894-13.142-.125-5.24-2.185-11.106-7.264-13.437-3.571-1.639-9.166-1.8-11.717,1.612a18.01,18.01,0,0,0-3.016,13.043" transform="translate(-18.657 -15.279)" fill="#fab594"/>
              <path id="Trazado_1016907" data-name="Trazado 1016907" d="M173.047,109.83c2.008,1.856,3.422,4.211,1.355,5.432-.673.4-1.5-.229-1.921-.886s-.818-1.469-1.58-1.644a2.479,2.479,0,0,0-1.709.477l-5.915,3.381a4.009,4.009,0,0,1-.988.452,2.5,2.5,0,0,1-2.74-1.516,4.086,4.086,0,0,1,.206-3.3c1.712-3.656,4.272-4.026,7.9-4.154a6.824,6.824,0,0,1,5.393,1.757" transform="translate(-25.408 -17.237)" fill="#fab594"/>
              <path id="Trazado_1016908" data-name="Trazado 1016908" d="M132.639,96.216a6.906,6.906,0,0,0-3.046,1.13c-1.817,1.23-2.937,3.249-4.574,4.712a21.617,21.617,0,0,1-5.347,3.094,2.523,2.523,0,0,0-.953.651,2.077,2.077,0,0,0-.33,1.42c.169,2.81,2.052,5.3.6,8.1a2.177,2.177,0,0,1-.6.77c-1.607,1.2-3.047-1.814-3.616-2.913a14.6,14.6,0,0,1-1.549-5.289c-.356-3.685.361-8.544,3.312-11.022a16.293,16.293,0,0,1,10.239-4.015,13.64,13.64,0,0,1,3.8.523,4.568,4.568,0,0,1,1.79.972,4.463,4.463,0,0,1,.932.852,8.382,8.382,0,0,1,.426.972,6.757,6.757,0,0,0-1.091.041" transform="translate(-18.048 -14.812)" fill="#1f143f"/>
              <path id="Trazado_1016909" data-name="Trazado 1016909" d="M129.552,120.3a33.774,33.774,0,0,0,4.743-.464,18.7,18.7,0,0,0,4.6-1.689s-.151,1.705-.2,1.885a6.212,6.212,0,0,1-.941,1.917,5.113,5.113,0,0,1-6.43,1.163,4,4,0,0,1-1.274-1.3c-.061-.1-.677-1.494-.5-1.51" transform="translate(-20.66 -18.846)" fill="#fff"/>
              <path id="Trazado_1016910" data-name="Trazado 1016910" d="M136.093,105.617c.087-.043.174-.082.263-.12l-.1.042a5.156,5.156,0,0,1,1.3-.354l-.112.015a4.305,4.305,0,0,1,1.139-.008l-.112-.015a3.25,3.25,0,0,1,.814.216l-.1-.042a2.651,2.651,0,0,1,.583.336l-.085-.066a2.545,2.545,0,0,1,.4.388.421.421,0,0,0,.3.123.419.419,0,0,0,.42-.42.474.474,0,0,0-.123-.3,3.08,3.08,0,0,0-1.785-1.017,4.906,4.906,0,0,0-2.126.085,5.609,5.609,0,0,0-1.1.408.423.423,0,0,0-.192.25.419.419,0,0,0,.293.517.466.466,0,0,0,.324-.042" transform="translate(-21.608 -16.64)" fill="#1f143f"/>
              <g id="Grupo_1195916" data-name="Grupo 1195916" transform="translate(69.456 190.17)" opacity="0.2">
                <g id="Grupo_1195915" data-name="Grupo 1195915">
                  <g id="Grupo_1195914" data-name="Grupo 1195914" clip-path="url(#clip-path-10)">
                    <path id="Trazado_1016911" data-name="Trazado 1016911" d="M119.361,226.966c-.483,1.546-.838,3.163-1.271,4.734a97.629,97.629,0,0,1-8.138,21.02c-3.963,7.22-9.552,12.9-14.844,19.111-1.867,2.192-3.7,4.468-5.407,6.831-.757,3.164-1.53,6.324-2.39,9.462-1.369,4.992-3.9,9.978-4.649,15.084a.924.924,0,0,0,.039.567c.141.269.49.335.793.371a14,14,0,0,0,3.283.131c2.532-.3,3.6-2.241,4.946-4.16,1.538-2.186,2.943-4.464,4.268-6.784,2.655-4.648,4.98-9.472,7.424-14.23,4.408-8.581,8.669-17.3,11.591-26.514,3.082-9.72,3.048-16.281,4.792-26.328-.1,0-.408.608-.438.705" transform="translate(-82.638 -226.261)" fill="#231f20"/>
                    <path id="Trazado_1016912" data-name="Trazado 1016912" d="M126.847,226.261c-.008.126-.016.248-.024.373.039-.182.078-.372.024-.373" transform="translate(-89.686 -226.261)" fill="#231f20"/>
                  </g>
                </g>
              </g>
              <path id="Trazado_1016913" data-name="Trazado 1016913" d="M124.4,154.881q.03,1.988.06,3.976a9.418,9.418,0,0,1-.185,2.495,3.171,3.171,0,0,1-1.394,2.005c-1.524.868-3.925-.442-4.783-1.773a12.839,12.839,0,0,1-1.85-6.714l8.152-.021c0,.01,0,.021,0,.031" transform="translate(-18.543 -24.7)" fill="#72c384"/>
              <path id="Trazado_1016914" data-name="Trazado 1016914" d="M118.89,117.934c1,1.726.941,3.622-.123,4.237s-2.734-.287-3.73-2.012-.941-3.622.123-4.237,2.734.287,3.73,2.012" transform="translate(-18.236 -18.46)" fill="#fab594"/>
              <path id="Trazado_1016915" data-name="Trazado 1016915" d="M128.172,112.255c.242,1.124-.045,2.139-.64,2.268s-1.275-.68-1.516-1.8.045-2.139.64-2.267,1.274.679,1.516,1.8" transform="translate(-20.087 -17.616)" fill="#1f143f"/>
              <path id="Trazado_1016916" data-name="Trazado 1016916" d="M139.524,109.958c.091,1.146-.329,2.115-.935,2.163s-1.173-.842-1.264-1.989.329-2.114.935-2.163,1.173.842,1.264,1.989" transform="translate(-21.903 -17.222)" fill="#1f143f"/>
              <path id="Trazado_1016917" data-name="Trazado 1016917" d="M127.064,106.7a3.135,3.135,0,0,0-.64-.045,3.744,3.744,0,0,0-.634.087,4.837,4.837,0,0,0-1.115.422,5.4,5.4,0,0,0-.98.622,3.731,3.731,0,0,0-.714.814,5.262,5.262,0,0,0-.542,1.088.423.423,0,0,0,.042.324.421.421,0,0,0,.575.151.477.477,0,0,0,.193-.251q.039-.106.083-.209l-.043.1a4.507,4.507,0,0,1,.567-.988l-.066.085a3.143,3.143,0,0,1,.562-.571l-.085.066a4.8,4.8,0,0,1,.556-.356,5.8,5.8,0,0,1,.618-.308l-.1.042a3.8,3.8,0,0,1,.937-.267l-.112.014a2.711,2.711,0,0,1,.714,0l-.112-.015.071.011a.455.455,0,0,0,.324-.042.421.421,0,0,0,.151-.575.406.406,0,0,0-.251-.193" transform="translate(-19.528 -17.012)" fill="#1f143f"/>
              <path id="Trazado_1016918" data-name="Trazado 1016918" d="M135.416,133.5l-2.868,4.086,4.278,3.622v-6.967Z" transform="translate(-21.143 -21.295)" fill="#fff"/>
              <path id="Trazado_1016919" data-name="Trazado 1016919" d="M118.66,136.971l3.92-2.713,7.753,3.449-2,5.043Z" transform="translate(-18.928 -21.416)" fill="#fff"/>
              <path id="Trazado_1016920" data-name="Trazado 1016920" d="M108.137,192.958c-2.214.1-3.659-1.769-3.734-4.049q-.039-1.207.029-2.413c.346-6.328,2.929-12.164,5.15-18a41.987,41.987,0,0,0,2.973-15.982,36.965,36.965,0,0,0-2.6-12.835.492.492,0,0,1-.053-.267.473.473,0,0,1,.116-.205,13.509,13.509,0,0,1,3.706-2.8,20.739,20.739,0,0,1,4.471-2.166,7.956,7.956,0,0,1,1.586-.494c1.286.311,2.7,4.365,3.211,5.49,5.332,11.811,3.179,25.91-2.236,37.288-2.643,5.552-5.675,11.046-10.1,15.312a3.532,3.532,0,0,1-1.21.859,4.489,4.489,0,0,1-1.3.266" transform="translate(-16.651 -21.333)" fill="#1f143f"/>
              <path id="Trazado_1016921" data-name="Trazado 1016921" d="M93.452,161.313c-1.512,2.556-3.3,5.324-3.8,8.207-.634,3.681.377,7.153,1.527,10.658a76.983,76.983,0,0,0,9.226,18.464c.155.234.366.5.648.479a.811.811,0,0,0,.375-.164l5.552-3.666a1.448,1.448,0,0,0,.585-2.21q-2.518-6.363-5.036-12.724a21.451,21.451,0,0,1-1.677-5.766,13.949,13.949,0,0,1,2.287-8.532,33.467,33.467,0,0,1,5.921-6.729A8.074,8.074,0,0,0,111.1,156.9c1.414-3.1,1.18-6.719.867-10.025-.166-1.756.1-7.582-2.687-7.524a2.452,2.452,0,0,0-1.38.634c-3.183,2.459-5.272,5.966-7.279,9.381-2.168,3.691-4.5,7.269-6.613,11-.178.314-.364.633-.554.954" transform="translate(-14.27 -22.228)" fill="#1f143f"/>
              <path id="Trazado_1016922" data-name="Trazado 1016922" d="M149.211,182.43c.128-8.649.255-17.308-.232-25.949-.124-2.187-.293-4.37-.5-6.55-.132-1.416-.305-1.352.725-2.073a13.643,13.643,0,0,1,2.934-1.068c5.314-1.936,10.627-3.879,15.9-5.911,4.7-1.81,9.326-4.112,12.658-8a124.4,124.4,0,0,1-14.809,1.973,170.224,170.224,0,0,1-20.1,1.065,19.462,19.462,0,0,1-8.159-1.773c.922,2.491,2.1,5.261,2.185,7.9.1,3.142.309,6.282.419,9.424q.321,9.245.3,18.5c-.021,9.548-.7,18.787-1.605,28.268a18.4,18.4,0,0,0,6.183-.551,2.4,2.4,0,0,0,.994-.447,2.482,2.482,0,0,0,.582-.955,31.769,31.769,0,0,0,2.218-8.114,52.26,52.26,0,0,0,.294-5.736" transform="translate(-21.955 -21.196)" fill="#1f143f"/>
              <path id="Trazado_1016923" data-name="Trazado 1016923" d="M123.316,176.52c5.415-11.379,7.568-25.478,2.236-37.288-.508-1.125-1.925-5.179-3.211-5.49a7.973,7.973,0,0,0-1.586.494c-.094.029-.181.068-.273.1a8.123,8.123,0,0,0,.7,1.561,18.546,18.546,0,0,1,1.083,3.678,44.265,44.265,0,0,1,.446,16.849,5.41,5.41,0,0,1,2.384.278,8.124,8.124,0,0,1-1.176,2.337c-.781,1.552-.484,3.4-.286,5.125a38.553,38.553,0,0,1-.829,13.4c.169-.346.341-.693.507-1.041" transform="translate(-19.218 -21.333)" fill="#274169"/>
              <path id="Trazado_1016924" data-name="Trazado 1016924" d="M145.151,157.616c-.6-3.985-1.152-7.976-1.773-11.958a33.893,33.893,0,0,0-3.433-10.372,13.951,13.951,0,0,1-2.305-.905c.922,2.491,2.1,5.261,2.184,7.9.1,3.142.309,6.282.419,9.424q.323,9.245.3,18.5c0,1.712-.035,3.412-.079,5.107,1.179-3.67,2.98-7.2,3.462-11.025a32.939,32.939,0,0,0-.1-6.887,2.411,2.411,0,0,0,1.324.215" transform="translate(-21.955 -21.435)" fill="#274169"/>
              <path id="Trazado_1016925" data-name="Trazado 1016925" d="M133.042,141.157a25.452,25.452,0,0,1,1.261,5.005c.282,1.762.474,3.538.607,5.318a105.554,105.554,0,0,1,.167,10.719c-.1,3.57-.216,7.153-.514,10.712a80.962,80.962,0,0,1-1.589,10.336c-.765,3.543-1.593,7.073-2.271,10.634q-.126.662-.245,1.325a.433.433,0,0,0,.293.517.424.424,0,0,0,.517-.294c.643-3.585,1.46-7.136,2.24-10.693.388-1.771.777-3.543,1.082-5.33q.437-2.569.691-5.166c.354-3.556.475-7.134.6-10.7.122-3.622.165-7.251-.048-10.871q-.159-2.712-.522-5.407a31.981,31.981,0,0,0-1.04-5.113q-.187-.611-.414-1.21a.432.432,0,0,0-.517-.293.423.423,0,0,0-.293.517" transform="translate(-20.808 -22.431)" fill="#fff"/>
            </g>
          </g>
        </g>
      </g>
    </g>
  </g>
</svg>
