<svg xmlns="http://www.w3.org/2000/svg" xmlns:xlink="http://www.w3.org/1999/xlink" width="396.185" height="318" viewBox="0 0 396.185 318">
  <defs>
    <clipPath id="clip-path">
      <path id="Trazado_994676" data-name="Trazado 994676" d="M1208.836,652.646l-.078,1.129.538.827.16-2.377q-.317.209-.621.42" transform="translate(-1208.758 -652.226)" fill="none"/>
    </clipPath>
    <clipPath id="clip-path-2">
      <rect id="Rectángulo_462438" data-name="Rectángulo 462438" width="124.91" height="242" fill="none"/>
    </clipPath>
    <clipPath id="clip-path-4">
      <rect id="Rectángulo_462440" data-name="Rectángulo 462440" width="273.894" height="283.642" fill="none"/>
    </clipPath>
  </defs>
  <g id="Grupo_1196050" data-name="Grupo 1196050" transform="translate(-497.814 -14286.38)">
    <g id="Grupo_1196022" data-name="Grupo 1196022">
      <rect id="Rectángulo_462081" data-name="Rectángulo 462081" width="396" height="318" transform="translate(497.814 14286.38)" fill="#bbc3dc"/>
      <g id="Grupo_1196021" data-name="Grupo 1196021">
        <g id="Grupo_1195451" data-name="Grupo 1195451" transform="translate(565.48 14287.749)">
          <g id="Grupo_1177236" data-name="Grupo 1177236" transform="translate(183.633 99.537)">
            <g id="Grupo_1177235" data-name="Grupo 1177235" clip-path="url(#clip-path)">
              <rect id="Rectángulo_454792" data-name="Rectángulo 454792" width="0.699" height="2.377" transform="translate(0 0)" fill="#dcedfb"/>
            </g>
          </g>
        </g>
        <path id="Trazado_1017420" data-name="Trazado 1017420" d="M702.883,303.186c39.6,7.916,61.333,43.055,56.25,110.974-5.77,77.085-62.557,116.308-129.913,120.759C514.974,542.47,461.953,503.6,436.6,443.476c-23.1-54.76-3.437-102.513,28.377-114.45,44.333-16.634,71.923,20.8,133.859,7.175,54.163-11.916,61.877-41.445,104.052-33.015" transform="translate(106.645 14030.126)" fill="#182e6e"/>
        <g id="Grupo_1196018" data-name="Grupo 1196018" transform="translate(769.09 14362.38)">
          <g id="Grupo_1196015" data-name="Grupo 1196015">
            <g id="Grupo_1196014" data-name="Grupo 1196014" clip-path="url(#clip-path-2)">
              <line id="Línea_3662" data-name="Línea 3662" y2="238" transform="translate(11.433 2)" fill="none" stroke="#31241c" stroke-linecap="round" stroke-linejoin="round" stroke-width="4"/>
            </g>
          </g>
          <line id="Línea_3663" data-name="Línea 3663" x2="87.666" transform="translate(12.1 11.667)" fill="none" stroke="#31241c" stroke-linecap="round" stroke-linejoin="round" stroke-width="4"/>
          <g id="Grupo_1196017" data-name="Grupo 1196017">
            <g id="Grupo_1196016" data-name="Grupo 1196016" clip-path="url(#clip-path-2)">
              <path id="Trazado_1017421" data-name="Trazado 1017421" d="M62.85,41.084C55.225,36.459,38.968,26.02,34.766,25.667c-3.2-.269-21.235,9.09-30.916,13.792-4.375,2.125-4,5.5.375,6.125,2.521.36,42.686,1,57.5,1C65.6,46.584,65.85,42.709,62.85,41.084Z" fill="none" stroke="#31241c" stroke-linecap="round" stroke-linejoin="round" stroke-width="1.5"/>
              <path id="Trazado_1017422" data-name="Trazado 1017422" d="M38.182,8.328c-3.693-1.68-8.763.1-8.559,6.752.229,7.449,5.622,5.5,5.549,10.144" fill="none" stroke="#31241c" stroke-linecap="round" stroke-linejoin="round" stroke-width="1.5"/>
              <path id="Trazado_1017423" data-name="Trazado 1017423" d="M18.433,51.875C20.933,53.208,31.6,67,36.266,67.5s13.417-16,15.917-16c2.833,10.5,3.416,58,3.416,58-9.333.333-22.791-.875-37.416-1-.5-9.25-.249-39.958.25-56.625" fill="#e0e8fc"/>
              <path id="Trazado_1017424" data-name="Trazado 1017424" d="M16.6,31.667c1.166,3.833,2.667,13.166,2.5,24.166" fill="none" stroke="#31241c" stroke-linecap="round" stroke-linejoin="round" stroke-width="1.5"/>
              <path id="Trazado_1017425" data-name="Trazado 1017425" d="M50.1,31.833c1.5,2.667,2.5,13,2,20.834" fill="none" stroke="#31241c" stroke-linecap="round" stroke-linejoin="round" stroke-width="1.5"/>
              <path id="Trazado_1017426" data-name="Trazado 1017426" d="M88.267,41.084C80.642,36.459,64.385,26.02,60.183,25.667c-3.2-.269-21.235,9.09-30.916,13.792-4.375,2.125-4,5.5.375,6.125,2.521.36,42.687,1,57.5,1C91.017,46.584,91.267,42.709,88.267,41.084Z" fill="none" stroke="#31241c" stroke-linecap="round" stroke-linejoin="round" stroke-width="1.5"/>
              <path id="Trazado_1017427" data-name="Trazado 1017427" d="M63.6,8.328c-3.693-1.68-8.763.1-8.559,6.752.229,7.449,5.623,5.5,5.549,10.144" fill="none" stroke="#31241c" stroke-linecap="round" stroke-linejoin="round" stroke-width="1.5"/>
              <path id="Trazado_1017428" data-name="Trazado 1017428" d="M39.058,33.75c1.375,6.125,4.375,23.25,3,47.25s-.375,60.625,1.75,69.5c27.125.125,37.625,1.25,38,.375.75-9.375-2.875-74.125-2.75-83.375s2.125-32,2.125-32c-1.625-1.75-5.75-3.75-5.75-3.75C73.183,44.5,67.079,52.5,61.308,52.5c-8.5,0-15.875-21.125-16.875-21.875-5,2.125-5.375,3.125-5.375,3.125" fill="#104936"/>
              <path id="Trazado_1017429" data-name="Trazado 1017429" d="M115.642,41.834C108.017,37.209,91.76,26.77,87.558,26.417c-3.2-.269-21.235,9.09-30.916,13.792-4.375,2.125-4,5.5.375,6.125,2.521.36,42.687,1,57.5,1C118.392,47.334,118.642,43.459,115.642,41.834Z" fill="none" stroke="#31241c" stroke-linecap="round" stroke-linejoin="round" stroke-width="1.5"/>
              <path id="Trazado_1017430" data-name="Trazado 1017430" d="M90.974,9.078c-3.693-1.68-8.763.1-8.559,6.752.229,7.449,5.623,5.5,5.549,10.144" fill="none" stroke="#31241c" stroke-linecap="round" stroke-linejoin="round" stroke-width="1.5"/>
              <path id="Trazado_1017431" data-name="Trazado 1017431" d="M68.1,39c4,5.667,16.166,14.166,19.666,13.5,3.6-.686,19.168-12.5,19.168-12.5s-12.666,35.667-16,36.5S71.933,48.334,68.1,39" fill="#ff94bc"/>
              <path id="Trazado_1017432" data-name="Trazado 1017432" d="M66.933,34.25c.875,3.375,20.125,36,20.625,37.375s1.875,3,2.5.625S106.933,36,107.433,35.625s9.625,4.75,11.5,7.25,7.125,12.625,5.75,24.25-1.875,16.25-1.875,16.25l-8.875.5s.75,42.125.25,43.875c-6.5,1.75-42.875.375-49.125-.125.167-11.667.875-45.25.875-45.25-6.5.125-13.875-.25-13.875-.25-2-12.5-.125-38.875,1.875-41.375s13-6.5,13-6.5" fill="#24a77c"/>
              <path id="Trazado_1017433" data-name="Trazado 1017433" d="M114.308,67.25c-.125,1.75-.375,13-.375,14.625" fill="none" stroke="#31241c" stroke-linecap="round" stroke-linejoin="round" stroke-width="1.5"/>
              <path id="Trazado_1017434" data-name="Trazado 1017434" d="M65.933,67.125c-.125,2.25-.375,12.375-.125,13" fill="none" stroke="#31241c" stroke-linecap="round" stroke-linejoin="round" stroke-width="1.5"/>
            </g>
          </g>
        </g>
        <g id="Grupo_1196020" data-name="Grupo 1196020" transform="translate(500.711 14320.738)">
          <g id="Grupo_1196019" data-name="Grupo 1196019" clip-path="url(#clip-path-4)">
            <line id="Línea_3664" data-name="Línea 3664" x2="272.693" transform="translate(0.6 243.954)" fill="none" stroke="#31241c" stroke-linecap="round" stroke-linejoin="round" stroke-width="1.5"/>
            <path id="Trazado_1017435" data-name="Trazado 1017435" d="M194.87,60.333C189.934,59.8,183.4,56.6,187,55c-1.467-1.868-.667-3.335.934-2.935-.8-1.767-.134-3.2,2.268-2.8s11.072,2.268,13.073,3.2,3.6,1.467,5.2,8,9.339,28.415,9.872,29.216c7.337-4.136,15.208-8.938,15.208-8.938l8.137,16.142c-14.808,8.138-30.817,17.61-35.619,4.67S194.87,60.333,194.87,60.333" transform="translate(-37.112 -9.817)" fill="#9e5715"/>
            <path id="Trazado_1017436" data-name="Trazado 1017436" d="M203.923,57.22c-4.3,3.1-11.106,4.4-3.8-1.4" transform="translate(-39.295 -11.14)" fill="none" stroke="#31241c" stroke-linecap="round" stroke-linejoin="round" stroke-width="1.5"/>
            <path id="Trazado_1017437" data-name="Trazado 1017437" d="M188.425,52.777c.267.668,4,2.068,6.136,2.2" transform="translate(-37.604 -10.533)" fill="none" stroke="#31241c" stroke-linecap="round" stroke-linejoin="round" stroke-width="1.5"/>
            <path id="Trazado_1017438" data-name="Trazado 1017438" d="M187.258,56.444c.334.467,3.868,1.4,5.669,1.8" transform="translate(-37.371 -11.264)" fill="none" stroke="#31241c" stroke-linecap="round" stroke-linejoin="round" stroke-width="1.5"/>
            <path id="Trazado_1017439" data-name="Trazado 1017439" d="M221.924,102.313c1.067-.8,4.536-3.2,4.536-3.2" transform="translate(-44.289 -19.779)" fill="none" stroke="#31241c" stroke-linecap="round" stroke-linejoin="round" stroke-width="1.5"/>
            <path id="Trazado_1017440" data-name="Trazado 1017440" d="M128.919,79.933c3.735,2,11.74,6,13.607,13.34s6,22.812,6,22.812c9.2-8.138,18.277-17.076,18.277-17.076l3.2,12.007c-5.336,6.271-9.872,14.14-16.275,19.21-5.108,4.043-10.672,5.737-22.012-12.806-7.07-12.54-6.536-38.82-2.8-37.487" transform="translate(-25.19 -15.942)" fill="#faa371"/>
            <path id="Trazado_1017441" data-name="Trazado 1017441" d="M150.424,127.646c1.067-1.067,2.935-2.535,2.935-2.535" transform="translate(-30.02 -24.968)" fill="none" stroke="#31241c" stroke-linecap="round" stroke-linejoin="round" stroke-width="1.5"/>
            <path id="Trazado_1017442" data-name="Trazado 1017442" d="M164.767,79.241c6.1-3.7,19.116-12.058,22.479-12.34,2.561-.215,17,7.276,24.746,11.04,3.5,1.7,3.2,4.4-.3,4.9-2.018.288-34.168.8-46.025.8C162.565,83.643,162.365,80.542,164.767,79.241Z" transform="translate(-32.556 -13.35)" fill="none" stroke="#31241c" stroke-linecap="round" stroke-linejoin="round" stroke-width="1.5"/>
            <path id="Trazado_1017443" data-name="Trazado 1017443" d="M189.842,49.445c2.956-1.345,7.014.081,6.851,5.4-.183,5.962-4.5,4.4-4.442,8.12" transform="translate(-37.887 -9.773)" fill="none" stroke="#31241c" stroke-linecap="round" stroke-linejoin="round" stroke-width="1.5"/>
            <path id="Trazado_1017444" data-name="Trazado 1017444" d="M172.088,73.282c1.176,3.384,14.6,22.765,15.777,22.765S198.6,79.72,200.222,72.069a77.416,77.416,0,0,1,7.723,3.752c.736,8.09-3.457,42.735-3.457,42.735,7.8,5.884,21.961,42.33,20.627,54.87-3.2,5.87-47.535,16.936-68.571-1.6.8-32.818,14.881-48.01,18.854-53.306-1.914-4.266-10.777-38.506-10.777-39.829.442-2.06,7.467-5.407,7.467-5.407" transform="translate(-31.241 -14.383)" fill="#fce2b5"/>
            <path id="Trazado_1017445" data-name="Trazado 1017445" d="M182.992,130.43a74.193,74.193,0,0,0,24.272-.331" transform="translate(-36.52 -25.964)" fill="none" stroke="#31241c" stroke-linecap="round" stroke-linejoin="round" stroke-width="1.5"/>
            <path id="Trazado_1017446" data-name="Trazado 1017446" d="M188.408,132.4c-.829,1.779-2.781,8.184-4.815,15.2" transform="translate(-36.639 -26.422)" fill="none" stroke="#31241c" stroke-linecap="round" stroke-linejoin="round" stroke-width="1.5"/>
            <path id="Trazado_1017447" data-name="Trazado 1017447" d="M195.342,132.212a97.166,97.166,0,0,0-.588,10.592" transform="translate(-38.867 -26.385)" fill="none" stroke="#31241c" stroke-linecap="round" stroke-linejoin="round" stroke-width="1.5"/>
            <path id="Trazado_1017448" data-name="Trazado 1017448" d="M207.805,131.294c1.029,1.618,3.531,7.944,5.737,15" transform="translate(-41.471 -26.202)" fill="none" stroke="#31241c" stroke-linecap="round" stroke-linejoin="round" stroke-width="1.5"/>
            <path id="Trazado_1017449" data-name="Trazado 1017449" d="M243.98,337.243c.555.905,1.555,2.106,5.257,2.306s14.608-2.7,19.911-6.3c2.2-1.2-.6-2.3-.6-2.3s-21.821,5.393-24.568,6.3" transform="translate(-48.691 -66.046)" fill="#31241c"/>
            <path id="Trazado_1017450" data-name="Trazado 1017450" d="M267.9,228.39c-1.365-10.859,3.96-30.9,3.96-38.289,0,0-11.241-4-21.405-3.542-.042,26.456,11.126,110.752,9.119,112.553-3.244,2.913-16.92,8.476-15.613,9.309,2.128,1.85,25.04-2.558,25.306-6.483,3.575-52.955.427-59.242-1.366-73.547" transform="translate(-48.669 -37.224)" fill="#9e5715"/>
            <path id="Trazado_1017451" data-name="Trazado 1017451" d="M315.064,329.77c-.066,1.134,1.8,2,5.078.267s10.838-8.658,13.532-14.475c1.27-2.162-3.735-3.2-3.735-3.2s-16.458,16.349-14.875,17.409" transform="translate(-62.856 -62.337)" fill="#31241c"/>
            <path id="Trazado_1017452" data-name="Trazado 1017452" d="M311.827,253.1h0c-5.453-16.094-12.048-23.746-13.4-27.651-2.918-8.4.437-30.528.437-39.536l-23.1-.694s2.814,20.879,4.928,37.784c1.189,9.526,21.377,44.409,33.868,65.671a78.632,78.632,0,0,1-7.214,13.925c-1.831,2.8,1.638,1.674,3.358.9,5.4-2.444,14.354-12.841,13.873-15.166-1.1-2.834-6.726-20.543-12.743-35.232" transform="translate(-55.032 -36.964)" fill="#9e5715"/>
            <line id="Línea_3665" data-name="Línea 3665" x1="2.452" y2="3.017" transform="translate(233.705 190.283)" fill="none" stroke="#31241c" stroke-linecap="round" stroke-linejoin="round" stroke-width="1.5"/>
            <line id="Línea_3666" data-name="Línea 3666" x1="3.216" y2="2.606" transform="translate(207.705 192.865)" fill="none" stroke="#31241c" stroke-linecap="round" stroke-linejoin="round" stroke-width="1.5"/>
            <path id="Trazado_1017453" data-name="Trazado 1017453" d="M266.338,72.423s5.469-.267,12.394.154c22.934,8.559,17.222,26.661,8.55,48.272,3.6,2.4,16.943,26.281,26.948,49.093-38.287,22.946-51.495,14.541-70.038,10.005-.533-8.4,4.669-72.039,5.87-79.643,0,0-8.271-14.674-8.8-17.075,6.671-4.27,20.012-10.539,25.081-10.807" transform="translate(-48.147 -14.437)" fill="#c0f1e1"/>
            <path id="Trazado_1017454" data-name="Trazado 1017454" d="M271.616,72.712c-6.27,3.2-6.271,9.739,1.068,5.6,1.468,6.537,11.473,1.066,13.207-5.2a23.154,23.154,0,0,1-2.668-2" transform="translate(-53.293 -14.191)" fill="#fff"/>
            <path id="Trazado_1017455" data-name="Trazado 1017455" d="M283.667,55.574l1.563,13.791s-5.349,6.84-12.8,3.332c-.263-4.648-.614-15.346-.614-15.346" transform="translate(-54.245 -11.091)" fill="#9e5715"/>
            <path id="Trazado_1017456" data-name="Trazado 1017456" d="M284.125,59.621l-.458-4.047-11.854,1.777s.079,2.419.19,5.454a11.514,11.514,0,0,0,2.593.559,11.382,11.382,0,0,0,9.53-3.744" transform="translate(-54.245 -11.091)" fill="#874b12"/>
            <path id="Trazado_1017457" data-name="Trazado 1017457" d="M262.515,40.881a11.407,11.407,0,1,0,22.715,2.108l1.116-12.013a11.407,11.407,0,0,0-22.716-2.107Z" transform="translate(-52.38 -3.695)" fill="#9e5715"/>
            <path id="Trazado_1017458" data-name="Trazado 1017458" d="M282.173,32.607a5.258,5.258,0,0,0-4.117-2.3" transform="translate(-55.491 -6.048)" fill="none" stroke="#31241c" stroke-linecap="round" stroke-linejoin="round" stroke-width="1.5"/>
            <path id="Trazado_1017459" data-name="Trazado 1017459" d="M265.4,31.7a3.618,3.618,0,0,1,3.189-1.594" transform="translate(-52.965 -6.006)" fill="none" stroke="#31241c" stroke-linecap="round" stroke-linejoin="round" stroke-width="1.5"/>
            <path id="Trazado_1017460" data-name="Trazado 1017460" d="M272.942,40.8l-2.391.942,1.935,2.243" transform="translate(-53.994 -8.143)" fill="none" stroke="#31241c" stroke-linecap="round" stroke-linejoin="round" stroke-width="1.5"/>
            <path id="Trazado_1017461" data-name="Trazado 1017461" d="M276.077,46.819c.483,5.069-4.342,5.2-4.652.634Z" transform="translate(-54.168 -9.344)" fill="#5c1308"/>
            <path id="Trazado_1017462" data-name="Trazado 1017462" d="M276.232,48.807a3.913,3.913,0,0,0-3.816,1.381c1.209,1.591,3.39,1.159,3.816-1.381" transform="translate(-54.366 -9.719)" fill="#912917"/>
            <line id="Línea_3667" data-name="Línea 3667" x2="1.225" y2="1.005" transform="translate(212.414 30.239)" fill="none" stroke="#1a191f" stroke-linecap="round" stroke-miterlimit="10" stroke-width="1.317"/>
            <line id="Línea_3668" data-name="Línea 3668" x1="1.01" y2="0.728" transform="translate(223.96 31.327)" fill="none" stroke="#1a191f" stroke-linecap="round" stroke-miterlimit="10" stroke-width="1.317"/>
            <path id="Trazado_1017463" data-name="Trazado 1017463" d="M266.633,39.421a1.123,1.123,0,0,1,2.2.388" transform="translate(-53.212 -7.706)" fill="none" stroke="#1a191f" stroke-linecap="round" stroke-miterlimit="10" stroke-width="1.317"/>
            <path id="Trazado_1017464" data-name="Trazado 1017464" d="M276.694,40.324c0-1.239,2-1.574,2.485.178" transform="translate(-55.22 -7.841)" fill="none" stroke="#1a191f" stroke-linecap="round" stroke-miterlimit="10" stroke-width="1.317"/>
            <path id="Trazado_1017465" data-name="Trazado 1017465" d="M265.131,107.611c-1.6,2.4-10.79,16.045-15.476,18.276-5.6,2.668-25.081,10.139-26.814,10.406s-8.372-.6-8.638,2.1c-.093.939,2.268,1.534,2.8,1.4-5.469,1.868-6.17,4.769-4.169,5.97-.667,1.6,1.068,2.535,2.535,2.135-.934,1.467,1.867,2.668,3.869,1.2s8.672-3.735,12.14-4.669,24.68-4.271,33.084-11.34a64.431,64.431,0,0,0,13.474-16.408s-3.335-5.336-12.807-9.071" transform="translate(-42.271 -21.476)" fill="#9e5715"/>
            <path id="Trazado_1017466" data-name="Trazado 1017466" d="M213.091,154.946c.668-1.467,3.869-3.468,5.47-4" transform="translate(-42.526 -30.124)" fill="none" stroke="#31241c" stroke-linecap="round" stroke-linejoin="round" stroke-width="1.5"/>
            <path id="Trazado_1017467" data-name="Trazado 1017467" d="M216.258,157.046a17.223,17.223,0,0,1,4.536-3.6" transform="translate(-43.158 -30.623)" fill="none" stroke="#31241c" stroke-linecap="round" stroke-linejoin="round" stroke-width="1.5"/>
            <path id="Trazado_1017468" data-name="Trazado 1017468" d="M285.8,91.444c-3.1,2.2-9.605,8.6-11.006,12.507,3.6.5,11.906,4.8,17.709,11.906" transform="translate(-54.841 -18.249)" fill="none" stroke="#31241c" stroke-linecap="round" stroke-linejoin="round" stroke-width="1.5"/>
            <path id="Trazado_1017469" data-name="Trazado 1017469" d="M265.315,22.7c.8.9,3.1-.3,4.2-1.1.8,2,3.7,1.4,5.6.5a6.007,6.007,0,0,0,5.3,2.7c.1,2.2,1.6,4.8,2.8,4.5-.5,2.6.1,7.8,1.5,7.8s1.2-2.6,1.9-3.2,2.7-.1,3-.4c2.5-4.4,1.6-16.309-9.305-18.01s-17.209,4.8-15.008,7.2" transform="translate(-52.862 -3.037)" fill="#31241c"/>
            <path id="Trazado_1017470" data-name="Trazado 1017470" d="M280.124,13.562c-4.5-2.1-3.2-9.2,2.5-7.6-1-4.9,4.8-7,8.7-4,3.4-4.5,10.606-.5,8.3,4.6,6.4-.7,8,8.8,1.8,9.805,2.3,4.2-1.8,7.6-4.8,6,.4,5.5-5.8,4.8-7.5.5s-7.6-8.2-9-9.305" transform="translate(-55.364 0)" fill="#31241c"/>
            <path id="Trazado_1017471" data-name="Trazado 1017471" d="M291.324,38.6c.9-2.1,5.108-2.16,4.7,2.452-.5,5.7-4.7,7.153-5.6,3.351.4-2.7.9-5.8.9-5.8" transform="translate(-57.96 -7.43)" fill="#9e5715"/>
            <path id="Trazado_1017472" data-name="Trazado 1017472" d="M246.3,335.049c1.9-.4,5.8.7,7.4,3.1" transform="translate(-49.154 -66.849)" fill="none" stroke="#31241c" stroke-linecap="round" stroke-linejoin="round" stroke-width="1.5"/>
            <path id="Trazado_1017473" data-name="Trazado 1017473" d="M251.674,334.147c1.7-.9,12.107-5.7,12.107-5.7" transform="translate(-50.226 -65.547)" fill="none" stroke="#31241c" stroke-linecap="round" stroke-linejoin="round" stroke-width="1.5"/>
            <path id="Trazado_1017474" data-name="Trazado 1017474" d="M262.049,326.944a8.318,8.318,0,0,1,7.4,6.2" transform="translate(-52.297 -65.248)" fill="none" stroke="#31241c" stroke-linecap="round" stroke-linejoin="round" stroke-width="1.5"/>
            <path id="Trazado_1017475" data-name="Trazado 1017475" d="M268.924,329.645c1.2-.5,5.7-2.7,5.7-2.7" transform="translate(-53.669 -65.248)" fill="none" stroke="#31241c" stroke-linecap="round" stroke-linejoin="round" stroke-width="1.5"/>
            <path id="Trazado_1017476" data-name="Trazado 1017476" d="M315.591,329.623c1.424-1.321,5.136-1.133,6.977-.279" transform="translate(-62.982 -65.592)" fill="none" stroke="#31241c" stroke-linecap="round" stroke-linejoin="round" stroke-width="1.5"/>
            <path id="Trazado_1017477" data-name="Trazado 1017477" d="M320.091,325.684c1-1.647,5.4-10.739,5.4-10.739" transform="translate(-63.88 -62.853)" fill="none" stroke="#31241c" stroke-linecap="round" stroke-linejoin="round" stroke-width="1.5"/>
            <path id="Trazado_1017478" data-name="Trazado 1017478" d="M323.706,315.661a8.321,8.321,0,0,1,9.541,1.51" transform="translate(-64.602 -62.822)" fill="none" stroke="#31241c" stroke-linecap="round" stroke-linejoin="round" stroke-width="1.5"/>
            <path id="Trazado_1017479" data-name="Trazado 1017479" d="M331.339,314.1c.772-1.046,3.471-4.569,3.471-4.569" transform="translate(-66.125 -61.772)" fill="none" stroke="#31241c" stroke-linecap="round" stroke-linejoin="round" stroke-width="1.5"/>
            <path id="Trazado_1017480" data-name="Trazado 1017480" d="M255.025,93.945a53.744,53.744,0,0,0-2.934,11.072" transform="translate(-50.31 -18.748)" fill="none" stroke="#31241c" stroke-linecap="round" stroke-linejoin="round" stroke-width="1.5"/>
            <path id="Trazado_1017481" data-name="Trazado 1017481" d="M121.353,67.9a58.652,58.652,0,0,1,5.582,3.255,13.1,13.1,0,0,1,.36-6.5c1.141-4.125-1.229-7.285-3.072-9.391-2.555-2.921-2.107-6.32.79-10.622s-1.931-7.461.088-13.166-2.809-10.007-5.53-10.709C95.959,13.655,93.677,41.217,93.677,41.217s-5.618,22.559-5.355,22.823c.183.182,19.4,4.872,30.907,7.357.465-2.449,1.2-3.827,2.124-3.5" transform="translate(-17.624 -3.91)" fill="#31241c"/>
            <path id="Trazado_1017482" data-name="Trazado 1017482" d="M121.972,73.957c.506.271,1.095.582,1.732.931a16.037,16.037,0,0,1,.436-3.915c.8-3.5-2.047-5.477-3.775-7.285-2.693-2.817-1.835-6.641-1.635-11.844-3-4.1-24.013-.3-24.013-.3l-3.3,23.112s16.106,1.612,28.279,3.706c.449-3.009,1.239-4.776,2.277-4.406" transform="translate(-18.244 -9.966)"/>
            <path id="Trazado_1017483" data-name="Trazado 1017483" d="M117.533,330.944c-.1,1.3-.3,2.9,1.4,3.9s12.207,6.1,22.112,4.2c1.4-.3,2.6-2.1.4-2.5" transform="translate(-23.443 -66.046)" fill="#31241c"/>
            <path id="Trazado_1017484" data-name="Trazado 1017484" d="M117.854,228.39c1.365-10.859-3.96-30.9-3.96-38.289,0,0,11.241-4,21.405-3.542.042,26.456-11.126,110.752-9.119,112.553,3.244,2.913,16.92,8.476,15.613,9.309-2.128,1.85-25.04-2.558-25.306-6.483-3.576-52.955-.427-59.242,1.366-73.547" transform="translate(-22.73 -37.224)" fill="#faa371"/>
            <line id="Línea_3669" data-name="Línea 3669" x2="3.216" y2="2.606" transform="translate(103.431 192.865)" fill="none" stroke="#31241c" stroke-linecap="round" stroke-linejoin="round" stroke-width="1.5"/>
            <path id="Trazado_1017485" data-name="Trazado 1017485" d="M73.756,346.777a2.234,2.234,0,0,0,2.3,3.135c1.9,0,9.505-3.235,12.407-14.241.2-2.7-.4-3.6-.4-3.6s-12.107,9.505-14.308,14.708" transform="translate(-14.685 -66.271)" fill="#31241c"/>
            <path id="Trazado_1017486" data-name="Trazado 1017486" d="M83.292,229.047c1.812-10.793-2.68-31.034-2.374-38.42,0,0,11.4-3.536,21.533-2.653C101.4,214.408,88.668,297.356,88.688,300.053c.087,11.3-10.851,20.741-13.787,19.14-3.235-1.45,4.906-13.677,4.8-17.609-1.384-53.057,1.205-58.317,3.589-72.536" transform="translate(-14.796 -37.486)" fill="#faa371"/>
            <path id="Trazado_1017487" data-name="Trazado 1017487" d="M115.379,70.972c.247-5.14.524-13.622.524-13.622L104.05,55.574l-1.562,13.79.01.014-6.7,2.2c5.6,18.81,22.012,18.61,23.213,2Z" transform="translate(-19.118 -11.091)" fill="#faa371"/>
            <path id="Trazado_1017488" data-name="Trazado 1017488" d="M105.534,59.621l.458-4.047,11.854,1.777s-.079,2.419-.19,5.454a11.513,11.513,0,0,1-2.593.559,11.382,11.382,0,0,1-9.53-3.744" transform="translate(-21.061 -11.091)" fill="#cf7a48"/>
            <path id="Trazado_1017489" data-name="Trazado 1017489" d="M98.325,238.944a12.208,12.208,0,0,0-2.4,3.2" transform="translate(-19.143 -47.686)" fill="none" stroke="#31241c" stroke-linecap="round" stroke-linejoin="round" stroke-width="1.5"/>
            <path id="Trazado_1017490" data-name="Trazado 1017490" d="M124.369,42.948a11.406,11.406,0,1,1-22.745-1.755l.928-12.03A11.407,11.407,0,0,1,125.3,30.922Z" transform="translate(-20.274 -3.719)" fill="#faa371"/>
            <path id="Trazado_1017491" data-name="Trazado 1017491" d="M111.913,32.032a5.261,5.261,0,0,1,4.447-1.573" transform="translate(-22.334 -6.068)" fill="none" stroke="#31241c" stroke-linecap="round" stroke-linejoin="round" stroke-width="1.5"/>
            <path id="Trazado_1017492" data-name="Trazado 1017492" d="M128.928,33.854a3.62,3.62,0,0,0-2.875-2.108" transform="translate(-25.156 -6.336)" fill="none" stroke="#31241c" stroke-linecap="round" stroke-linejoin="round" stroke-width="1.5"/>
            <path id="Trazado_1017493" data-name="Trazado 1017493" d="M120.129,41.581l2.2,1.332L120.041,44.8" transform="translate(-23.957 -8.298)" fill="none" stroke="#31241c" stroke-linecap="round" stroke-linejoin="round" stroke-width="1.5"/>
            <path id="Trazado_1017494" data-name="Trazado 1017494" d="M115.431,46.885c-1.332,4.915,3.4,5.861,4.478,1.41Z" transform="translate(-22.99 -9.357)" fill="#802212"/>
            <path id="Trazado_1017495" data-name="Trazado 1017495" d="M115.2,48.875a3.914,3.914,0,0,1,3.527,2.005c-1.459,1.366-3.537.572-3.527-2.005" transform="translate(-22.991 -9.751)" fill="#b33e2b"/>
            <line id="Línea_3670" data-name="Línea 3670" x1="1.379" y2="0.784" transform="translate(101.643 31.998)" fill="none" stroke="#1a191f" stroke-linecap="round" stroke-miterlimit="10" stroke-width="1.317"/>
            <line id="Línea_3671" data-name="Línea 3671" x2="0.872" y2="0.888" transform="translate(90.462 30.952)" fill="none" stroke="#1a191f" stroke-linecap="round" stroke-miterlimit="10" stroke-width="1.317"/>
            <path id="Trazado_1017496" data-name="Trazado 1017496" d="M126.6,41.333a1.123,1.123,0,0,0-2.232.013" transform="translate(-24.82 -8.05)" fill="none" stroke="#1a191f" stroke-linecap="round" stroke-miterlimit="10" stroke-width="1.317"/>
            <path id="Trazado_1017497" data-name="Trazado 1017497" d="M116.458,40.524c.213-1.22-1.7-1.887-2.48-.243" transform="translate(-22.746 -7.844)" fill="none" stroke="#1a191f" stroke-linecap="round" stroke-miterlimit="10" stroke-width="1.317"/>
            <path id="Trazado_1017498" data-name="Trazado 1017498" d="M79.72,83.223c2.2-2.3,9.705-6.8,13.907-7.9,7.2,12.707,16.909,19.31,21.712,1.8,2.7,1.1,5.2,2.3,5.2,2.3.6,6.5,7,16.909,5.5,26.414s-3.506,13.843-.9,23.549,7.308,35.183,7.408,46.489c-8,3.8-37.72,5.8-52.728.7-2.505-29.38,7.14-44.647,5.9-51.392-3.2-17.409-6.2-35.619-6-41.959" transform="translate(-15.846 -15.031)" fill="#bbc3dc"/>
            <path id="Trazado_1017499" data-name="Trazado 1017499" d="M75.049,344.178c1.6-.3,6.4.45,7.4,1.45,2.9-2.9,3.5-4.5,3.5-4.5-2.4-2.3-5.1-3.551-8.6-2.251a18.9,18.9,0,0,0-2.3,5.3" transform="translate(-14.977 -67.524)" fill="#31241c"/>
            <path id="Trazado_1017500" data-name="Trazado 1017500" d="M126.3,335.621c.3-1.7,3.6-5.4,7.2-5.3,1.8.8,5.2,2.6,5.3,3.1-3.3.2-4.9,3.8-4.9,3.8Z" transform="translate(-25.205 -65.921)" fill="#31241c"/>
            <path id="Trazado_1017501" data-name="Trazado 1017501" d="M102.524,72.915c.269,3.33,7.864,24.846,9.478,25.871,3.361-4.995,5.787-19.158,5.381-24.308" transform="translate(-20.461 -14.552)" fill="none" stroke="#31241c" stroke-linecap="round" stroke-linejoin="round" stroke-width="1.5"/>
            <path id="Trazado_1017502" data-name="Trazado 1017502" d="M113.994,105.506c-1.871-.349-2.328,5.385.11,5.491s2.1-5.6-.11-5.491" transform="translate(-22.438 -21.053)" fill="#fff"/>
            <path id="Trazado_1017503" data-name="Trazado 1017503" d="M84.579,88.277c-3.988-.017-7.47,0-8.671,8.8s14.608,33.952,28.816,40.355c6.311,2.844,13.807,4.4,38.287,5.6,6,1.467,14.409,2.668,15.742-1.334,1.6-1.334.267-2.4.267-2.4,1.735-.8.267-3.336-2.8-3.6a26.456,26.456,0,0,1-5.469-1.067c3.468-.933,4.136-3.468,2-4.269s-6.669,1.069-9.872.668-27.682-2.336-31.551-6.2S97.853,105.219,94.852,96.815C93.416,92.8,89.1,88.3,84.579,88.277" transform="translate(-15.136 -17.617)" fill="#faa371"/>
            <path id="Trazado_1017504" data-name="Trazado 1017504" d="M169.548,151.027c1.2.5,5.9,1.3,8.5.6" transform="translate(-33.836 -30.14)" fill="none" stroke="#31241c" stroke-linecap="round" stroke-linejoin="round" stroke-width="1.5"/>
            <path id="Trazado_1017505" data-name="Trazado 1017505" d="M169.048,154.527c1.1.5,6,1.2,8.305.4" transform="translate(-33.737 -30.839)" fill="none" stroke="#31241c" stroke-linecap="round" stroke-linejoin="round" stroke-width="1.5"/>
            <path id="Trazado_1017506" data-name="Trazado 1017506" d="M143.112,175.816c7.451-4.53,20.556-11.989,23.146-12.207,2.54-.214,17.65,6.724,25.08,11.206,2.412,1.454,3.068,4.269-.134,4.535-10.05.836-35.333,1.515-46.958,1.068C140.777,180.285,140.89,177.167,143.112,175.816Z" transform="translate(-28.244 -32.65)" fill="none" stroke="#31241c" stroke-linecap="round" stroke-linejoin="round" stroke-width="1.5"/>
            <path id="Trazado_1017507" data-name="Trazado 1017507" d="M171.933,145.684c2.38.083,4.632,1.883,4.51,5.875-.183,5.962-4.5,4.4-4.442,8.12" transform="translate(-34.312 -29.074)" fill="none" stroke="#31241c" stroke-linecap="round" stroke-linejoin="round" stroke-width="1.5"/>
            <path id="Trazado_1017508" data-name="Trazado 1017508" d="M151.8,189.289c.067-3.669,4.869-17.142,6.77-20.678,6.4,6.4,16.742,5.3,22.278.534,3.135,3.735,8.838,16.242,8.872,19.443C186.651,195.191,155.434,200.562,151.8,189.289Z" transform="translate(-30.294 -33.65)" fill="none" stroke="#31241c" stroke-linecap="round" stroke-linejoin="round" stroke-width="1.5"/>
            <path id="Trazado_1017509" data-name="Trazado 1017509" d="M157.463,168.611c2.534,2.268,11.606,5.97,22.278.534-1.334,7.2,3.2,18.944,9.605,18.944,1.867,14.674,3.6,32.551,5.069,35.219-2.934,2.668-4.535-1.2-6.937-.534s-3.2,2.668-5.87,2.4-3.067-3.6-6.536-2.935-3.869,3.336-7.071,3.469-5.069-4.137-9.071-3.069-7.07,4.136-12.673,1.735c1.734-3.868,2.936-27.215,4.137-35.353,4.935-.934,7.871-5.336,7.069-20.411" transform="translate(-29.188 -33.65)" fill="#31241c"/>
            <path id="Trazado_1017510" data-name="Trazado 1017510" d="M159.691,202.078a.8.8,0,1,1-.8-.8.8.8,0,0,1,.8.8" transform="translate(-31.55 -40.169)" fill="#fff"/>
            <path id="Trazado_1017511" data-name="Trazado 1017511" d="M163.358,206.578a.8.8,0,1,1-.8-.8.8.8,0,0,1,.8.8" transform="translate(-32.282 -41.067)" fill="#fff"/>
            <path id="Trazado_1017512" data-name="Trazado 1017512" d="M167.091,201.946a.667.667,0,1,1-.667-.668.667.667,0,0,1,.667.668" transform="translate(-33.08 -40.169)" fill="#fff"/>
            <path id="Trazado_1017513" data-name="Trazado 1017513" d="M168.625,207.211a.6.6,0,1,1-.6-.6.6.6,0,0,1,.6.6" transform="translate(-33.413 -41.233)" fill="#fff"/>
            <path id="Trazado_1017514" data-name="Trazado 1017514" d="M173.458,202.045a.6.6,0,1,1-.6-.6.6.6,0,0,1,.6.6" transform="translate(-34.377 -40.202)" fill="#fff"/>
            <path id="Trazado_1017515" data-name="Trazado 1017515" d="M175.891,207.679a.734.734,0,1,1-.733-.734.733.733,0,0,1,.733.734" transform="translate(-34.81 -41.3)" fill="#fff"/>
            <path id="Trazado_1017516" data-name="Trazado 1017516" d="M182.025,201.078a.8.8,0,1,1-.8-.8.8.8,0,0,1,.8.8" transform="translate(-36.007 -39.969)" fill="#fff"/>
            <path id="Trazado_1017517" data-name="Trazado 1017517" d="M157.891,212.679a.734.734,0,1,1-.733-.734.733.733,0,0,1,.733.734" transform="translate(-31.217 -42.298)" fill="#fff"/>
            <path id="Trazado_1017518" data-name="Trazado 1017518" d="M165.224,212.679a.734.734,0,1,1-.734-.734.733.733,0,0,1,.734.734" transform="translate(-32.681 -42.298)" fill="#fff"/>
            <path id="Trazado_1017519" data-name="Trazado 1017519" d="M169.89,218.511a.4.4,0,1,1-.4-.4.4.4,0,0,1,.4.4" transform="translate(-33.745 -43.528)" fill="#fff"/>
            <path id="Trazado_1017520" data-name="Trazado 1017520" d="M173.125,214.045a.6.6,0,1,1-.6-.6.6.6,0,0,1,.6.6" transform="translate(-34.311 -42.597)" fill="#fff"/>
            <path id="Trazado_1017521" data-name="Trazado 1017521" d="M157.992,224.478a.867.867,0,1,1-.867-.867.867.867,0,0,1,.867.867" transform="translate(-31.184 -44.626)" fill="#fff"/>
            <path id="Trazado_1017522" data-name="Trazado 1017522" d="M170.791,224.878a.6.6,0,1,1-.6-.6.6.6,0,0,1,.6.6" transform="translate(-33.845 -44.759)" fill="#fff"/>
            <path id="Trazado_1017523" data-name="Trazado 1017523" d="M181.325,215.478a.867.867,0,1,1-.868-.867.867.867,0,0,1,.868.867" transform="translate(-35.841 -42.83)" fill="#fff"/>
            <path id="Trazado_1017524" data-name="Trazado 1017524" d="M179.525,221.245a1.134,1.134,0,1,1-1.134-1.134,1.135,1.135,0,0,1,1.134,1.134" transform="translate(-35.375 -43.927)" fill="#fff"/>
            <path id="Trazado_1017525" data-name="Trazado 1017525" d="M186.025,209.745a.8.8,0,1,1-.8-.8.8.8,0,0,1,.8.8" transform="translate(-36.805 -41.699)" fill="#fff"/>
            <path id="Trazado_1017526" data-name="Trazado 1017526" d="M191.692,204.579a1.134,1.134,0,1,1-1.133-1.134,1.134,1.134,0,0,1,1.133,1.134" transform="translate(-37.803 -40.601)" fill="#fff"/>
            <path id="Trazado_1017527" data-name="Trazado 1017527" d="M192.358,216.911a.8.8,0,1,1-.8-.8.8.8,0,0,1,.8.8" transform="translate(-38.069 -43.129)" fill="#fff"/>
            <path id="Trazado_1017528" data-name="Trazado 1017528" d="M187.659,222.478a.867.867,0,1,1-.868-.867.867.867,0,0,1,.868.867" transform="translate(-37.105 -44.227)" fill="#fff"/>
            <path id="Trazado_1017529" data-name="Trazado 1017529" d="M199.657,221.979a.534.534,0,1,1-.533-.534.534.534,0,0,1,.533.534" transform="translate(-39.632 -44.194)" fill="#fff"/>
            <path id="Trazado_1017530" data-name="Trazado 1017530" d="M180.492,227.646a.867.867,0,1,1-.867-.868.867.867,0,0,1,.867.868" transform="translate(-35.674 -45.258)" fill="#fff"/>
            <path id="Trazado_1017531" data-name="Trazado 1017531" d="M165.991,194.645a.533.533,0,1,1-.533-.534.534.534,0,0,1,.533.534" transform="translate(-32.914 -38.738)" fill="#fff"/>
            <path id="Trazado_1017532" data-name="Trazado 1017532" d="M170.225,184.846a1.067,1.067,0,1,1-1.068-1.068,1.067,1.067,0,0,1,1.068,1.068" transform="translate(-33.546 -36.676)" fill="#fff"/>
            <path id="Trazado_1017533" data-name="Trazado 1017533" d="M175.058,191.345a.734.734,0,1,1-.734-.734.734.734,0,0,1,.734.734" transform="translate(-34.643 -38.04)" fill="#fff"/>
            <path id="Trazado_1017534" data-name="Trazado 1017534" d="M178.424,180.446a.667.667,0,1,1-.668-.668.667.667,0,0,1,.668.668" transform="translate(-35.342 -35.878)" fill="#fff"/>
            <path id="Trazado_1017535" data-name="Trazado 1017535" d="M180.125,185.378a.6.6,0,1,1-.6-.6.6.6,0,0,1,.6.6" transform="translate(-35.708 -36.876)" fill="#fff"/>
            <path id="Trazado_1017536" data-name="Trazado 1017536" d="M187.857,191.912a.467.467,0,1,1-.467-.467.467.467,0,0,1,.467.467" transform="translate(-37.304 -38.206)" fill="#fff"/>
            <path id="Trazado_1017537" data-name="Trazado 1017537" d="M180.724,193.511a.734.734,0,1,1-.734-.733.733.733,0,0,1,.734.733" transform="translate(-35.774 -38.472)" fill="#fff"/>
            <path id="Trazado_1017538" data-name="Trazado 1017538" d="M190.691,198.078a.8.8,0,1,1-.8-.8.8.8,0,0,1,.8.8" transform="translate(-37.736 -39.371)" fill="#fff"/>
            <path id="Trazado_1017539" data-name="Trazado 1017539" d="M196.557,198.511a.734.734,0,1,1-.733-.733.733.733,0,0,1,.733.733" transform="translate(-38.934 -39.47)" fill="#fff"/>
            <path id="Trazado_1017540" data-name="Trazado 1017540" d="M196.458,211.545a.934.934,0,1,1-.934-.934.935.935,0,0,1,.934.934" transform="translate(-38.834 -42.031)" fill="#fff"/>
            <path id="Trazado_1017541" data-name="Trazado 1017541" d="M163.324,228.979a.533.533,0,1,1-.534-.534.534.534,0,0,1,.534.534" transform="translate(-32.381 -45.59)" fill="#fff"/>
            <path id="Trazado_1017542" data-name="Trazado 1017542" d="M175.058,231.345a.734.734,0,1,1-.734-.734.734.734,0,0,1,.734.734" transform="translate(-34.643 -46.023)" fill="#fff"/>
            <path id="Trazado_1017543" data-name="Trazado 1017543" d="M194.025,228.578a.8.8,0,1,1-.8-.8.8.8,0,0,1,.8.8" transform="translate(-38.402 -45.457)" fill="#fff"/>
            <path id="Trazado_1017544" data-name="Trazado 1017544" d="M162.258,219.446a1,1,0,1,1-1-1,1,1,0,0,1,1,1" transform="translate(-31.982 -43.595)" fill="#fff"/>
            <path id="Trazado_1017545" data-name="Trazado 1017545" d="M170.424,177.612a.667.667,0,1,1-.667-.667.667.667,0,0,1,.667.667" transform="translate(-33.745 -35.313)" fill="#fff"/>
            <path id="Trazado_1017546" data-name="Trazado 1017546" d="M183.758,178.446a.667.667,0,1,1-.668-.668.667.667,0,0,1,.668.668" transform="translate(-36.406 -35.479)" fill="#fff"/>
            <path id="Trazado_1017547" data-name="Trazado 1017547" d="M171.691,197.245a.8.8,0,1,1-.8-.8.8.8,0,0,1,.8.8" transform="translate(-33.945 -39.204)" fill="#fff"/>
            <path id="Trazado_1017548" data-name="Trazado 1017548" d="M115.319,21.772c-3.8-2.6-11.508-1.568-16.009,5.437s2.7,13.007,1.4,20.111-9.2,4.1-7.4,11.606.7,7.8-2.2,10.105-.036,3.568.465,7.17-.5,10.106-2,12.808C79.4,85.341,72.761,85.074,64.757,81.538,64.757,74.6,70.695,72.5,71.7,70s-1.7-4.369-.6-8.271,4.435-2.3,5.936-6.8S76,49.322,78.2,44.22s4.733-3.909,4.37-8.706C82,28.042,85.1,19.205,93.7,15.6s23.217-2.235,21.616,6.17" transform="translate(-12.923 -2.741)" fill="#31241c"/>
            <path id="Trazado_1017549" data-name="Trazado 1017549" d="M132.424,138.278c3.335.8,17.743,2.135,21.745,2.735s8.8-1.535,9.872-.668" transform="translate(-26.428 -27.596)" fill="none" stroke="#31241c" stroke-linecap="round" stroke-linejoin="round" stroke-width="1.5"/>
          </g>
        </g>
      </g>
    </g>
  </g>
</svg>
