<svg xmlns="http://www.w3.org/2000/svg" xmlns:xlink="http://www.w3.org/1999/xlink" width="302.886" height="195.27" viewBox="0 0 302.886 195.27">
  <defs>
    <clipPath id="clip-path">
      <rect id="Rectángulo_462360" data-name="Rectángulo 462360" width="302.886" height="195.27" fill="none"/>
    </clipPath>
    <clipPath id="clip-path-2">
      <rect id="Rectángulo_462359" data-name="Rectángulo 462359" width="302.887" height="195.27" fill="none"/>
    </clipPath>
    <clipPath id="clip-path-3">
      <rect id="Rectángulo_462356" data-name="Rectángulo 462356" width="38.918" height="38.919" fill="none"/>
    </clipPath>
    <clipPath id="clip-path-4">
      <rect id="Rectángulo_462357" data-name="Rectángulo 462357" width="13.638" height="13.639" fill="none"/>
    </clipPath>
    <clipPath id="clip-path-5">
      <rect id="Rectángulo_462358" data-name="Rectángulo 462358" width="45.138" height="45.138" fill="none"/>
    </clipPath>
  </defs>
  <g id="Grupo_1196039" data-name="Grupo 1196039" transform="translate(-644.268 -5066.365)">
    <g id="Grupo_1195951" data-name="Grupo 1195951" transform="translate(644.268 5066.365)">
      <g id="Grupo_1195950" data-name="Grupo 1195950" clip-path="url(#clip-path)">
        <g id="Grupo_1195949" data-name="Grupo 1195949">
          <g id="Grupo_1195948" data-name="Grupo 1195948" clip-path="url(#clip-path-2)">
            <path id="Trazado_1016997" data-name="Trazado 1016997" d="M414.16,97.634A97.635,97.635,0,1,1,316.525,0,97.635,97.635,0,0,1,414.16,97.634" transform="translate(-165.081 0.001)" fill="#f6fbfe"/>
            <path id="Trazado_1016998" data-name="Trazado 1016998" d="M448.489,148.566a81.034,81.034,0,1,1-81.033-81.033,81.034,81.034,0,0,1,81.033,81.033" transform="translate(-216.012 -50.932)" fill="#d6e8f9"/>
            <path id="Trazado_1016999" data-name="Trazado 1016999" d="M451.267,736.466h-.013l-.7-.028a.351.351,0,0,1,.03-.7l.7.028a.351.351,0,0,1-.013.7" transform="translate(-339.54 -554.874)" fill="#87b1e0"/>
            <path id="Trazado_1017000" data-name="Trazado 1017000" d="M108.922,223.523H108.9c-.464-.029-.936-.062-1.4-.1a.351.351,0,0,1,.054-.7c.464.036.933.068,1.394.1a.351.351,0,0,1-.022.7m-3.494-.279-.034,0c-.464-.045-.935-.093-1.4-.144a.351.351,0,1,1,.077-.7c.461.051.929.1,1.39.143a.351.351,0,0,1-.033.7m-3.483-.394a.316.316,0,0,1-.045,0c-.463-.06-.932-.124-1.394-.19a.351.351,0,1,1,.1-.7c.459.065.925.129,1.385.188a.351.351,0,0,1-.045.7m-3.469-.506a.344.344,0,0,1-.057,0c-.46-.075-.927-.154-1.387-.235a.351.351,0,0,1,.121-.692c.457.08.921.159,1.379.233a.351.351,0,0,1-.056.7m-3.452-.618a.356.356,0,0,1-.068-.007c-.456-.089-.92-.183-1.379-.279a.351.351,0,1,1,.144-.688c.456.095.917.188,1.37.277a.351.351,0,0,1-.067.7M91.593,221a.345.345,0,0,1-.079-.009c-.455-.1-.916-.212-1.37-.322a.351.351,0,1,1,.165-.683c.451.109.909.217,1.362.32a.351.351,0,0,1-.078.694m-3.407-.835a.351.351,0,0,1-.089-.012c-.453-.119-.911-.241-1.359-.365a.351.351,0,1,1,.186-.677c.446.123.9.245,1.351.363a.351.351,0,0,1-.089.691m-3.38-.941a.35.35,0,0,1-.1-.014c-.448-.132-.9-.269-1.348-.407a.351.351,0,1,1,.207-.671c.443.137.894.273,1.34.4a.351.351,0,0,1-.1.688m-3.349-1.046a.35.35,0,0,1-.11-.018c-.442-.146-.891-.3-1.335-.449a.351.351,0,1,1,.228-.664c.441.151.887.3,1.326.446a.351.351,0,0,1-.11.685m-3.316-1.15a.35.35,0,0,1-.12-.021c-.439-.16-.883-.325-1.32-.49a.351.351,0,0,1,.249-.657c.434.164.876.328,1.312.487a.351.351,0,0,1-.12.681m-3.279-1.253a.349.349,0,0,1-.13-.025c-.434-.174-.873-.352-1.3-.531a.351.351,0,0,1,.269-.649c.429.178.865.355,1.3.528a.351.351,0,0,1-.131.678m-3.239-1.354a.351.351,0,0,1-.14-.03c-.428-.187-.862-.379-1.288-.572a.351.351,0,0,1,.289-.64c.423.191.854.383,1.28.568a.351.351,0,0,1-.141.673m-3.2-1.456a.349.349,0,0,1-.15-.034c-.422-.2-.849-.406-1.269-.612a.351.351,0,0,1,.309-.631c.417.2.841.409,1.261.608a.351.351,0,0,1-.151.669m-3.148-1.555a.348.348,0,0,1-.16-.039c-.418-.215-.838-.434-1.25-.652a.351.351,0,0,1,.329-.621c.409.217.826.435,1.241.648a.351.351,0,0,1-.161.664m-3.1-1.655a.35.35,0,0,1-.17-.044c-.408-.226-.821-.459-1.228-.692a.351.351,0,1,1,.349-.61c.4.231.815.463,1.22.687a.351.351,0,0,1-.171.659M299.57,208.4h-.013c-.469-.016-.942-.036-1.405-.057a.351.351,0,0,1,.033-.7c.461.022.931.041,1.4.057a.351.351,0,0,1-.012.7m-3.5-.173h-.022c-.466-.03-.937-.062-1.4-.1a.351.351,0,1,1,.053-.7c.462.035.93.067,1.393.1a.351.351,0,0,1-.022.7M59.139,208a.349.349,0,0,1-.18-.05c-.4-.242-.81-.488-1.205-.731a.351.351,0,1,1,.368-.6c.392.242.8.486,1.2.726a.351.351,0,0,1-.181.653m233.438-.042-.033,0c-.465-.043-.935-.09-1.4-.139a.351.351,0,0,1,.074-.7c.46.048.927.095,1.389.138a.351.351,0,0,1-.032.7m-3.482-.378-.044,0c-.467-.058-.935-.12-1.393-.183a.351.351,0,1,1,.1-.7c.455.063.92.124,1.384.182a.351.351,0,0,1-.043.7m-3.467-.489a.35.35,0,0,1-.055,0c-.465-.074-.931-.15-1.386-.229a.351.351,0,0,1,.119-.692c.452.078.915.154,1.376.227a.351.351,0,0,1-.054.7m-3.448-.607a.351.351,0,0,1-.067-.006c-.458-.089-.922-.182-1.377-.278a.351.351,0,1,1,.144-.688c.452.095.912.187,1.367.276a.351.351,0,0,1-.067.7M56.154,206.15a.35.35,0,0,1-.19-.056c-.394-.253-.791-.512-1.181-.77a.351.351,0,1,1,.388-.586c.387.256.782.514,1.173.765a.351.351,0,0,1-.19.647m222.6-.395a.357.357,0,0,1-.08-.009c-.455-.106-.915-.217-1.366-.329a.351.351,0,0,1,.17-.682c.448.112.9.221,1.356.326a.351.351,0,0,1-.079.693m-3.394-.859a.36.36,0,0,1-.093-.013c-.453-.125-.908-.253-1.352-.383a.351.351,0,1,1,.2-.674c.44.129.892.256,1.341.38a.351.351,0,0,1-.093.69M53.231,204.2a.35.35,0,0,1-.2-.062c-.384-.266-.773-.538-1.155-.809a.351.351,0,1,1,.407-.573c.379.27.765.54,1.147.8a.351.351,0,0,1-.2.64M272,203.9a.346.346,0,0,1-.107-.017c-.445-.142-.894-.29-1.336-.44a.351.351,0,0,1,.225-.665c.437.148.883.295,1.324.436a.351.351,0,0,1-.107.686m-3.311-1.138a.352.352,0,0,1-.122-.022c-.44-.162-.882-.33-1.315-.5a.351.351,0,1,1,.255-.655c.429.167.867.333,1.3.494a.351.351,0,0,1-.121.681m-218.319-.606a.349.349,0,0,1-.209-.069c-.377-.279-.756-.565-1.127-.848a.351.351,0,0,1,.426-.559c.368.281.745.564,1.119.842a.351.351,0,0,1-.209.633m215.061-.68a.354.354,0,0,1-.137-.028c-.434-.184-.868-.372-1.291-.56a.351.351,0,1,1,.286-.642c.418.186.849.373,1.279.555a.351.351,0,0,1-.137.675m-3.193-1.442a.351.351,0,0,1-.152-.035c-.422-.2-.847-.413-1.263-.624a.351.351,0,1,1,.318-.627c.411.209.832.416,1.25.618a.351.351,0,0,1-.153.668m-214.654-.019a.349.349,0,0,1-.219-.076c-.367-.292-.736-.59-1.1-.886a.351.351,0,1,1,.445-.544c.359.294.726.59,1.09.88a.351.351,0,0,1-.219.626m211.536-1.582a.351.351,0,0,1-.168-.043c-.412-.225-.826-.457-1.229-.689a.351.351,0,0,1,.35-.609c.4.23.809.459,1.216.682a.351.351,0,0,1-.169.66M44.88,197.779a.35.35,0,0,1-.228-.084c-.355-.3-.713-.614-1.065-.924a.351.351,0,1,1,.464-.528c.35.307.706.616,1.058.917a.351.351,0,0,1-.228.618m211.216-1.11a.35.35,0,0,1-.185-.053c-.4-.248-.8-.5-1.191-.756a.351.351,0,1,1,.383-.589c.386.251.782.5,1.178.748a.351.351,0,0,1-.185.65M42.25,195.45a.35.35,0,0,1-.237-.092c-.345-.316-.692-.64-1.032-.961a.351.351,0,1,1,.483-.511c.338.319.682.64,1.025.954a.351.351,0,0,1-.238.61m210.916-.71a.35.35,0,0,1-.2-.064c-.384-.269-.77-.546-1.147-.823a.351.351,0,1,1,.416-.566c.373.274.754.548,1.134.813a.351.351,0,0,1-.2.639m-213.46-1.711a.35.35,0,0,1-.247-.1c-.332-.328-.667-.664-1-1a.351.351,0,1,1,.5-.493c.326.332.659.665.989.991a.351.351,0,0,1-.247.6m210.644-.383a.351.351,0,0,1-.218-.076c-.369-.291-.738-.591-1.1-.889a.351.351,0,1,1,.448-.541c.356.3.721.591,1.086.879a.351.351,0,0,1-.218.627m-213.1-2.129a.35.35,0,0,1-.256-.111c-.32-.34-.642-.688-.958-1.034a.351.351,0,1,1,.519-.474c.314.343.634.689.952,1.026a.352.352,0,0,1-.256.592m210.408-.129a.35.35,0,0,1-.234-.089c-.351-.312-.7-.633-1.045-.954a.351.351,0,0,1,.48-.513c.339.317.686.634,1.032.943a.351.351,0,0,1-.234.614M34.688,188.205c-.127,0-.25,0-.375,0a.351.351,0,0,1,.005-.7h.058c-.223-.258-.446-.518-.664-.776a.351.351,0,1,1,.536-.454c.3.353.605.71.912,1.061a.349.349,0,0,1,.08.164c.156,0,.312-.009.466-.015a.351.351,0,1,1,.03.7c-.346.015-.7.023-1.048.023m-2.472-.123-.035,0c-.469-.047-.943-.107-1.411-.179a.351.351,0,1,1,.107-.694c.456.071.918.129,1.373.175a.351.351,0,0,1-.034.7m5.6-.085a.351.351,0,0,1-.047-.7c.458-.062.916-.139,1.361-.229a.351.351,0,1,1,.139.689c-.46.093-.933.172-1.406.236a.351.351,0,0,1-.048,0m207.291-.028a.35.35,0,0,1-.249-.1c-.331-.333-.662-.675-.986-1.017a.351.351,0,0,1,.51-.483c.32.338.647.676.974,1a.351.351,0,0,1-.249.6M28.758,187.5a.357.357,0,0,1-.082-.01c-.459-.109-.921-.233-1.375-.366a.351.351,0,0,1,.2-.674c.441.13.892.25,1.339.356a.351.351,0,0,1-.081.693m12.483-.255a.351.351,0,0,1-.1-.687c.44-.136.878-.29,1.3-.455a.351.351,0,0,1,.256.654c-.439.171-.892.33-1.348.471a.349.349,0,0,1-.1.016m-15.835-.782a.349.349,0,0,1-.126-.023c-.442-.17-.884-.353-1.314-.546a.351.351,0,1,1,.287-.641c.419.187.849.366,1.279.531a.351.351,0,0,1-.126.679m19.074-.556a.351.351,0,0,1-.164-.662c.406-.215.807-.447,1.19-.69a.351.351,0,1,1,.376.593c-.4.253-.815.495-1.238.718a.349.349,0,0,1-.164.041m198.23-.5a.351.351,0,0,1-.264-.12c-.308-.351-.617-.712-.917-1.072a.351.351,0,0,1,.54-.45c.3.355.6.711.905,1.058a.351.351,0,0,1-.264.583m-210.072-.177a.351.351,0,0,1-.274-.131c-.294-.364-.589-.736-.876-1.1a.351.351,0,1,1,.554-.433c.285.365.578.734.869,1.095a.351.351,0,0,1-.273.572m-10.414-.239a.35.35,0,0,1-.169-.044c-.416-.229-.83-.472-1.228-.722a.351.351,0,0,1,.373-.6c.387.243.788.479,1.193.7a.351.351,0,0,1-.17.659M47.4,183.97a.351.351,0,0,1-.223-.623c.353-.29.7-.6,1.026-.916a.351.351,0,0,1,.489.5c-.341.331-.7.652-1.069.955a.349.349,0,0,1-.223.08m-28.118-.888a.35.35,0,0,1-.209-.069c-.374-.278-.751-.57-1.12-.866a.351.351,0,0,1,.44-.547c.362.291.731.577,1.1.85a.351.351,0,0,1-.21.633m221.2-.387a.35.35,0,0,1-.279-.137c-.286-.371-.572-.751-.848-1.13a.351.351,0,1,1,.567-.415c.273.373.555.749.837,1.116a.351.351,0,0,1-.278.566m-209.994-.243a.351.351,0,0,1-.282-.142c-.279-.375-.559-.758-.832-1.137a.351.351,0,1,1,.57-.411c.271.376.548.755.826,1.128a.351.351,0,0,1-.281.561m19.377-.971a.351.351,0,0,1-.273-.573c.287-.354.564-.724.824-1.1a.351.351,0,0,1,.578.4c-.27.392-.558.777-.856,1.145a.351.351,0,0,1-.273.13m-33.3-.62a.351.351,0,0,1-.235-.09c-.348-.312-.7-.636-1.036-.963a.351.351,0,1,1,.487-.506c.334.321.677.64,1.018.946a.351.351,0,0,1-.235.613m221.862-1.009a.35.35,0,0,1-.292-.155c-.261-.387-.522-.784-.773-1.178a.351.351,0,1,1,.592-.378c.249.389.506.781.764,1.163a.351.351,0,0,1-.291.548M28.451,179.6a.351.351,0,0,1-.29-.153c-.265-.387-.529-.781-.786-1.17a.351.351,0,1,1,.586-.387c.255.386.517.776.78,1.16a.351.351,0,0,1-.29.55M51.8,178.561a.351.351,0,0,1-.309-.517c.215-.4.419-.816.608-1.237a.351.351,0,1,1,.641.288c-.2.436-.408.867-.63,1.282a.351.351,0,0,1-.31.185M14.06,178.41a.35.35,0,0,1-.255-.11c-.32-.339-.641-.691-.954-1.044a.351.351,0,0,1,.526-.466c.308.347.624.693.939,1.027a.351.351,0,0,1-.256.592m222.5-1.522a.351.351,0,0,1-.3-.173c-.237-.4-.473-.816-.7-1.224a.351.351,0,1,1,.614-.341c.224.4.457.81.691,1.209a.351.351,0,0,1-.3.529M26.545,176.65a.351.351,0,0,1-.3-.173c-.237-.4-.471-.819-.694-1.237a.351.351,0,0,1,.62-.331c.219.409.447.817.68,1.211a.351.351,0,0,1-.3.53m-14.791-.883a.351.351,0,0,1-.273-.13c-.294-.364-.588-.737-.873-1.112a.351.351,0,0,1,.559-.426c.281.369.57.737.86,1.1a.351.351,0,0,1-.273.572m41.433-.426a.352.352,0,0,1-.333-.463c.144-.43.279-.876.4-1.324a.351.351,0,0,1,.678.183c-.125.462-.263.921-.412,1.365a.351.351,0,0,1-.333.24m181.694-1.528a.351.351,0,0,1-.313-.192c-.212-.416-.422-.841-.625-1.265a.351.351,0,1,1,.633-.3c.2.418.409.839.618,1.25a.351.351,0,0,1-.154.472.348.348,0,0,1-.159.038m-209.96-.273a.351.351,0,0,1-.319-.2c-.2-.426-.387-.863-.568-1.3a.351.351,0,1,1,.649-.269c.177.428.365.856.557,1.274a.351.351,0,0,1-.319.5m-15.274-.579a.351.351,0,0,1-.288-.15c-.268-.384-.534-.778-.792-1.171a.351.351,0,1,1,.587-.386c.254.387.517.776.781,1.154a.351.351,0,0,1-.288.552m44.407-1.019a.369.369,0,0,1-.063-.006.352.352,0,0,1-.283-.409c.081-.448.153-.909.213-1.37a.351.351,0,0,1,.7.09c-.061.473-.135.946-.219,1.405a.351.351,0,0,1-.345.289m179.329-1.3a.352.352,0,0,1-.322-.211c-.187-.429-.373-.866-.55-1.3a.351.351,0,0,1,.65-.267c.176.428.359.86.544,1.284a.352.352,0,0,1-.322.492m-209.775-.355a.352.352,0,0,1-.332-.235c-.155-.443-.3-.9-.444-1.345a.351.351,0,0,1,.671-.208c.137.441.284.886.436,1.321a.352.352,0,0,1-.331.468M7.74,170.016a.351.351,0,0,1-.3-.17c-.241-.4-.481-.813-.711-1.222a.351.351,0,0,1,.612-.345c.228.4.464.809.7,1.206a.351.351,0,0,1-.3.532m46.727-1.557h-.021a.351.351,0,0,1-.33-.371c.027-.455.045-.922.052-1.388a.351.351,0,0,1,.7.012c-.008.476-.026.953-.054,1.418a.351.351,0,0,1-.35.331m177.6-1.067a.352.352,0,0,1-.329-.229c-.163-.439-.324-.885-.477-1.328a.351.351,0,1,1,.664-.23c.152.438.31.88.472,1.313a.351.351,0,0,1-.329.474M6.034,166.948a.351.351,0,0,1-.313-.191c-.215-.418-.427-.845-.629-1.267a.351.351,0,1,1,.633-.3c.2.417.409.838.621,1.25a.351.351,0,0,1-.312.512m16.563-.021a.352.352,0,0,1-.34-.266c-.115-.456-.223-.92-.322-1.379a.351.351,0,0,1,.687-.148c.1.451.2.907.317,1.355a.352.352,0,0,1-.341.437m31.893-1.978a.351.351,0,0,1-.351-.336c-.02-.457-.048-.924-.085-1.388a.351.351,0,1,1,.7-.056c.038.472.067.948.087,1.414a.351.351,0,0,1-.336.366H54.49m176.446-.878a.351.351,0,0,1-.335-.247c-.139-.446-.275-.9-.405-1.351a.351.351,0,1,1,.675-.195c.129.447.264.9.4,1.337a.351.351,0,0,1-.335.456m-226.4-.3a.351.351,0,0,1-.323-.212c-.187-.433-.369-.872-.543-1.307a.351.351,0,1,1,.652-.261c.171.429.352.863.536,1.289a.351.351,0,0,1-.322.49m17.355-.283a.351.351,0,0,1-.347-.3c-.074-.465-.141-.937-.2-1.4a.351.351,0,0,1,.7-.086c.056.458.122.921.195,1.378a.352.352,0,0,1-.292.4.361.361,0,0,1-.056,0m32.291-2.036a.351.351,0,0,1-.348-.305c-.06-.456-.129-.919-.2-1.377a.351.351,0,1,1,.693-.115c.077.466.147.937.208,1.4a.351.351,0,0,1-.3.394l-.046,0m175.8-.759a.351.351,0,0,1-.34-.264c-.115-.451-.228-.912-.336-1.37a.351.351,0,1,1,.684-.16c.106.454.218.91.332,1.356a.351.351,0,0,1-.253.427.343.343,0,0,1-.087.011M3.254,160.5a.351.351,0,0,1-.331-.235c-.157-.444-.308-.9-.451-1.34a.351.351,0,0,1,.669-.214c.14.439.29.884.444,1.321a.351.351,0,0,1-.331.468m18.239-.5a.352.352,0,0,1-.35-.327c-.032-.471-.056-.947-.07-1.415a.352.352,0,0,1,.34-.362h.011a.351.351,0,0,1,.351.34c.014.46.037.927.069,1.389a.351.351,0,0,1-.327.374h-.024M53.582,158a.351.351,0,0,1-.343-.278c-.1-.45-.2-.907-.312-1.358a.351.351,0,1,1,.682-.168c.113.458.219.922.317,1.378a.351.351,0,0,1-.27.417.364.364,0,0,1-.074.008m175.614-.722a.352.352,0,0,1-.344-.281c-.093-.457-.183-.923-.268-1.385a.351.351,0,1,1,.691-.127c.084.457.174.919.266,1.371a.352.352,0,0,1-.274.414.365.365,0,0,1-.071.007M2.208,157.152a.352.352,0,0,1-.339-.259q-.069-.254-.135-.508c-.074-.284-.147-.574-.216-.861a.351.351,0,0,1,.683-.165c.069.283.14.569.213.85q.065.25.133.5a.351.351,0,0,1-.339.443m19.212-.658h-.01a.351.351,0,0,1-.342-.361c.013-.472.035-.949.066-1.416a.351.351,0,0,1,.7.047c-.031.458-.053.925-.065,1.388a.351.351,0,0,1-.351.342m31.295-1.9a.351.351,0,0,1-.336-.25c-.133-.443-.277-.889-.426-1.324a.351.351,0,1,1,.664-.228c.152.444.3.9.435,1.35a.351.351,0,0,1-.235.438.346.346,0,0,1-.1.015m175.863-.776a.352.352,0,0,1-.347-.3c-.071-.459-.14-.929-.2-1.4a.351.351,0,1,1,.7-.095c.063.462.131.927.2,1.383a.351.351,0,0,1-.293.4.343.343,0,0,1-.054,0M1.405,153.736a.352.352,0,0,1-.344-.283c-.091-.459-.178-.927-.258-1.39a.351.351,0,0,1,.692-.119c.079.457.164.918.255,1.371a.351.351,0,0,1-.276.413.368.368,0,0,1-.069.007M21.7,153a.351.351,0,0,1-.348-.4c.071-.466.162-.94.273-1.406a.351.351,0,0,1,.684.162c-.106.448-.194.9-.262,1.35a.351.351,0,0,1-.347.3m29.846-1.712a.352.352,0,0,1-.325-.218c-.176-.431-.363-.86-.553-1.275a.351.351,0,0,1,.638-.293c.195.424.385.862.565,1.3a.352.352,0,0,1-.325.485m176.576-.946a.351.351,0,0,1-.349-.313c-.051-.465-.1-.937-.141-1.4a.351.351,0,0,1,.7-.064c.042.462.089.929.14,1.391a.351.351,0,0,1-.311.387l-.038,0M.833,150.273a.351.351,0,0,1-.348-.305c-.061-.463-.117-.935-.167-1.4a.351.351,0,0,1,.7-.074c.049.462.1.928.165,1.385a.351.351,0,0,1-.3.394l-.046,0m21.735-.669a.352.352,0,0,1-.33-.471c.162-.445.342-.891.538-1.325a.351.351,0,1,1,.641.288c-.188.418-.363.848-.518,1.276a.351.351,0,0,1-.33.232m27.476-1.49a.351.351,0,0,1-.309-.184c-.223-.41-.456-.814-.692-1.2a.351.351,0,1,1,.6-.366c.242.4.48.811.709,1.232a.351.351,0,0,1-.308.519m177.77-1.269a.351.351,0,0,1-.35-.328c-.031-.466-.058-.94-.081-1.407a.351.351,0,0,1,.7-.034c.023.463.05.932.08,1.4a.351.351,0,0,1-.327.374h-.024M.484,146.781a.351.351,0,0,1-.35-.327c-.032-.466-.058-.941-.079-1.41a.351.351,0,1,1,.7-.031c.02.464.046.933.078,1.393a.351.351,0,0,1-.327.374H.484m23.579-.348a.352.352,0,0,1-.3-.53c.241-.41.5-.815.771-1.2a.351.351,0,0,1,.577.4c-.26.375-.51.766-.743,1.161a.351.351,0,0,1-.3.173m24.113-1.287a.351.351,0,0,1-.284-.144c-.275-.377-.56-.744-.849-1.09a.351.351,0,1,1,.54-.449c.3.358.592.737.876,1.125a.351.351,0,0,1-.284.558m-22.06-1.556a.351.351,0,0,1-.264-.583c.316-.36.647-.71.985-1.039a.351.351,0,0,1,.49.5c-.325.316-.644.652-.947,1a.351.351,0,0,1-.264.12m201.54-.25a.351.351,0,0,1-.351-.343c-.012-.465-.019-.938-.023-1.408a.351.351,0,0,1,.348-.354h0a.351.351,0,0,1,.351.348c0,.466.012.936.023,1.4a.351.351,0,0,1-.343.36h-.009m-227.3-.066A.351.351,0,0,1,0,142.926q0-.223,0-.446c0-.32,0-.645.008-.966a.351.351,0,0,1,.351-.346H.365a.351.351,0,0,1,.346.357c-.005.317-.008.639-.008.955q0,.22,0,.441a.351.351,0,0,1-.349.354Zm45.533-.782a.35.35,0,0,1-.244-.1c-.333-.323-.678-.632-1.025-.916a.351.351,0,0,1,.446-.543c.361.3.72.618,1.067.955a.351.351,0,0,1-.245.6m-17.2-1.293a.351.351,0,0,1-.212-.632c.385-.29.784-.563,1.185-.811a.351.351,0,1,1,.37.6c-.383.237-.764.5-1.132.775a.349.349,0,0,1-.211.071m14.447-.866a.351.351,0,0,1-.183-.052,13.339,13.339,0,0,0-1.2-.654.351.351,0,1,1,.3-.633,14.111,14.111,0,0,1,1.263.689.351.351,0,0,1-.184.651m184.513-.5h-.005a.351.351,0,0,1-.346-.357c.007-.467.018-.941.033-1.409a.351.351,0,1,1,.7.022c-.014.465-.025.935-.032,1.4a.352.352,0,0,1-.351.346M.429,139.766H.411a.351.351,0,0,1-.333-.368c.023-.466.053-.94.087-1.409a.351.351,0,0,1,.7.051c-.034.464-.063.933-.086,1.394a.351.351,0,0,1-.351.334m31.276-.334a.351.351,0,0,1-.139-.674,13.462,13.462,0,0,1,1.352-.5.351.351,0,0,1,.206.672,12.716,12.716,0,0,0-1.281.47.35.35,0,0,1-.138.029m8.23-.522a.351.351,0,0,1-.1-.014,12.188,12.188,0,0,0-1.327-.307.351.351,0,0,1,.119-.692,12.893,12.893,0,0,1,1.4.324.351.351,0,0,1-.1.689m-4.86-.4a.351.351,0,0,1-.043-.7,12.059,12.059,0,0,1,1.441-.093.351.351,0,0,1,0,.7,11.415,11.415,0,0,0-1.357.088.339.339,0,0,1-.044,0m192.689-2.182h-.019a.351.351,0,0,1-.332-.37c.025-.468.054-.941.087-1.406a.351.351,0,1,1,.7.048c-.032.462-.061.932-.086,1.4a.351.351,0,0,1-.351.332M.7,136.267l-.037,0a.351.351,0,0,1-.312-.386c.049-.464.1-.935.163-1.4a.351.351,0,1,1,.7.088c-.059.462-.113.928-.162,1.387a.352.352,0,0,1-.349.314m227.316-3.443h-.033a.352.352,0,0,1-.318-.382c.043-.467.089-.938.139-1.4a.351.351,0,0,1,.7.074c-.049.46-.1.929-.138,1.392a.351.351,0,0,1-.349.319M1.164,132.788a.357.357,0,0,1-.056,0,.351.351,0,0,1-.292-.4c.073-.46.152-.928.236-1.391a.351.351,0,1,1,.692.124c-.082.458-.161.922-.233,1.377a.351.351,0,0,1-.346.3m.637-3.451a.352.352,0,0,1-.344-.424c.1-.457.2-.921.3-1.378a.351.351,0,1,1,.685.158c-.1.453-.206.912-.3,1.364a.351.351,0,0,1-.343.279m226.6,0-.045,0a.351.351,0,0,1-.3-.393c.046-.358.1-.723.147-1.087l.044-.309a.351.351,0,0,1,.7.1l-.044.308c-.051.36-.1.723-.145,1.078a.352.352,0,0,1-.348.307m-66.587-2.715a.351.351,0,0,1,0-.7q.7,0,1.4-.007h0a.351.351,0,0,1,0,.7c-.468,0-.942.006-1.406.007Zm-2.106-.008h0c-.468,0-.941-.01-1.406-.017a.351.351,0,1,1,.011-.7q.7.011,1.4.017a.351.351,0,0,1,0,.7m5.616-.027a.351.351,0,0,1-.006-.7q.7-.013,1.4-.03a.351.351,0,0,1,.017.7q-.7.017-1.406.03h-.007m-9.125-.033h-.009c-.467-.012-.939-.026-1.406-.041a.351.351,0,0,1,.023-.7c.465.015.936.029,1.4.041a.351.351,0,0,1-.009.7m12.633-.06a.351.351,0,0,1-.012-.7q.7-.025,1.4-.054a.351.351,0,0,1,.029.7q-.7.029-1.405.054h-.013m-16.141-.059h-.015c-.466-.02-.939-.041-1.4-.064a.351.351,0,0,1,.034-.7c.464.023.935.044,1.4.064a.351.351,0,0,1-.015.7m19.648-.093a.351.351,0,0,1-.018-.7q.7-.036,1.4-.077a.351.351,0,0,1,.041.7q-.7.041-1.4.077h-.019m-23.153-.084h-.021c-.464-.028-.936-.057-1.4-.088a.351.351,0,1,1,.046-.7c.466.031.937.06,1.4.088a.351.351,0,0,1-.02.7m26.657-.127a.351.351,0,0,1-.024-.7q.7-.048,1.4-.1a.351.351,0,1,1,.053.7q-.7.053-1.4.1h-.024m-30.159-.11h-.027c-.467-.035-.939-.073-1.4-.111a.351.351,0,0,1,.058-.7c.462.038.932.075,1.4.111a.351.351,0,0,1-.026.7m-143.081-.1a.352.352,0,0,1-.34-.44c.118-.451.241-.91.368-1.362a.351.351,0,1,1,.677.19c-.125.448-.248.9-.364,1.349a.352.352,0,0,1-.34.263m226.3-.057a.37.37,0,0,1-.057,0,.351.351,0,0,1-.291-.4c.075-.464.154-.931.234-1.389a.351.351,0,1,1,.692.121c-.079.455-.157.919-.232,1.38a.352.352,0,0,1-.346.3m-49.566,0a.351.351,0,0,1-.03-.7c.461-.04.931-.081,1.4-.124a.351.351,0,0,1,.065.7c-.467.043-.938.085-1.4.125h-.03m-37.155-.135h-.033c-.466-.044-.937-.089-1.4-.135a.351.351,0,0,1,.07-.7c.461.046.93.091,1.4.134a.351.351,0,0,1-.032.7m40.65-.194a.351.351,0,0,1-.035-.7c.461-.047.929-.1,1.394-.148a.351.351,0,1,1,.076.7c-.466.051-.936.1-1.4.148l-.036,0m-44.142-.161-.039,0c-.464-.051-.934-.1-1.4-.159a.351.351,0,1,1,.081-.7c.462.054.93.107,1.393.158a.351.351,0,0,1-.038.7m47.63-.227a.351.351,0,0,1-.041-.7c.463-.056.931-.113,1.391-.172a.351.351,0,0,1,.088.7c-.461.058-.931.116-1.4.172l-.042,0m-51.116-.186a.343.343,0,0,1-.044,0c-.463-.059-.932-.12-1.395-.182a.351.351,0,1,1,.093-.7c.461.062.928.123,1.39.181a.351.351,0,0,1-.044.7m54.6-.261a.351.351,0,0,1-.047-.7c.459-.063.926-.129,1.388-.195a.351.351,0,1,1,.1.7c-.464.067-.932.132-1.393.2a.355.355,0,0,1-.048,0m-58.075-.211a.351.351,0,0,1-.051,0c-.46-.067-.928-.136-1.391-.206a.351.351,0,0,1,.105-.695c.461.07.928.139,1.386.205a.351.351,0,0,1-.05.7m61.548-.295a.351.351,0,0,1-.053-.7c.46-.071.926-.144,1.384-.219a.351.351,0,0,1,.112.694c-.461.074-.928.148-1.389.219a.371.371,0,0,1-.054,0m-65.018-.236a.341.341,0,0,1-.057,0c-.459-.074-.926-.151-1.387-.229a.351.351,0,0,1,.117-.693c.46.078.926.154,1.383.228a.351.351,0,0,1-.056.7m68.482-.329a.351.351,0,0,1-.059-.7c.462-.079.926-.161,1.381-.242a.351.351,0,1,1,.124.692c-.456.082-.922.163-1.385.243a.354.354,0,0,1-.06,0m-71.942-.26a.338.338,0,0,1-.062-.006c-.462-.083-.928-.168-1.383-.253a.351.351,0,1,1,.129-.691c.454.085.918.169,1.379.252a.351.351,0,0,1-.061.7M200.2,123a.351.351,0,0,1-.065-.7c.459-.087.922-.177,1.376-.266a.351.351,0,0,1,.136.689c-.456.09-.92.179-1.381.267a.356.356,0,0,1-.066.006m-78.845-.285a.361.361,0,0,1-.068-.007c-.46-.09-.924-.184-1.379-.276a.351.351,0,0,1,.14-.689c.454.093.916.185,1.374.276a.351.351,0,0,1-.068.7M3.566,122.546a.351.351,0,0,1-.335-.456c.14-.447.289-.9.444-1.344a.351.351,0,0,1,.663.232c-.153.437-.3.882-.437,1.321a.351.351,0,0,1-.335.247m225.957-.137a.367.367,0,0,1-.067-.006.351.351,0,0,1-.278-.412c.089-.459.182-.924.276-1.381a.351.351,0,0,1,.688.142c-.094.454-.186.916-.274,1.372a.351.351,0,0,1-.344.285m-25.88-.09a.351.351,0,0,1-.071-.7c.453-.094.914-.191,1.371-.289a.351.351,0,0,1,.148.687c-.459.1-.922.2-1.376.29a.342.342,0,0,1-.072.007m-85.726-.309a.349.349,0,0,1-.074-.008c-.458-.1-.92-.2-1.374-.3a.351.351,0,1,1,.152-.686c.452.1.913.2,1.369.3a.351.351,0,0,1-.074.695m89.157-.433a.351.351,0,0,1-.077-.694c.455-.1.915-.208,1.366-.313a.351.351,0,0,1,.159.684c-.453.105-.914.211-1.371.314a.348.348,0,0,1-.077.009m-92.582-.334a.344.344,0,0,1-.08-.009c-.456-.106-.917-.215-1.368-.324a.351.351,0,0,1,.164-.683c.45.108.909.217,1.364.323a.351.351,0,0,1-.079.693m96-.467a.351.351,0,0,1-.083-.693c.453-.11.91-.223,1.361-.336a.351.351,0,1,1,.171.681c-.452.113-.911.227-1.365.338a.346.346,0,0,1-.083.01m-99.411-.358a.342.342,0,0,1-.086-.011c-.455-.114-.913-.231-1.363-.347a.351.351,0,0,1,.176-.68c.448.116.905.232,1.358.346a.351.351,0,0,1-.085.692m102.814-.5a.351.351,0,0,1-.089-.691c.447-.117.9-.238,1.354-.36a.351.351,0,0,1,.183.678c-.453.122-.91.244-1.359.361a.349.349,0,0,1-.089.012m-106.21-.382a.345.345,0,0,1-.091-.012c-.45-.121-.907-.246-1.357-.371a.351.351,0,1,1,.188-.677c.449.124.9.249,1.352.369a.351.351,0,0,1-.091.691M4.75,119.243a.351.351,0,0,1-.325-.483c.177-.436.363-.874.554-1.3a.351.351,0,0,1,.642.285c-.188.422-.371.853-.545,1.281a.351.351,0,0,1-.326.219M217.282,119a.351.351,0,0,1-.095-.69c.447-.126.9-.255,1.348-.384a.351.351,0,1,1,.195.675c-.449.13-.9.259-1.353.385a.353.353,0,0,1-.1.013m12.961-.021a.351.351,0,0,1-.343-.429c.1-.46.211-.922.319-1.371a.351.351,0,1,1,.683.163c-.107.447-.213.906-.317,1.363a.351.351,0,0,1-.342.274M104.3,118.59a.351.351,0,0,1-.1-.014c-.449-.13-.9-.262-1.35-.395a.351.351,0,1,1,.2-.674c.445.132.9.264,1.345.393a.351.351,0,0,1-.1.689m116.349-.573a.351.351,0,0,1-.1-.688c.446-.133.9-.27,1.341-.407a.351.351,0,0,1,.207.672c-.446.137-.9.274-1.346.409a.35.35,0,0,1-.1.015m-119.713-.429a.344.344,0,0,1-.1-.016c-.449-.138-.9-.279-1.343-.418a.351.351,0,0,1,.211-.67c.441.139.891.279,1.338.417a.351.351,0,0,1-.1.687m123.066-.608a.351.351,0,0,1-.107-.686c.446-.142.895-.287,1.333-.431a.351.351,0,1,1,.219.668c-.44.144-.89.29-1.338.432a.352.352,0,0,1-.107.017m-126.412-.452a.352.352,0,0,1-.109-.017c-.444-.145-.893-.294-1.336-.442a.351.351,0,0,1,.223-.666c.441.147.888.3,1.331.44a.351.351,0,0,1-.109.685M6.2,116.049a.348.348,0,0,1-.158-.038.351.351,0,0,1-.155-.472c.212-.42.434-.842.659-1.253a.351.351,0,0,1,.616.337c-.221.4-.44.819-.648,1.232a.352.352,0,0,1-.314.193m221.138-.165a.351.351,0,0,1-.113-.684c.441-.149.887-.3,1.326-.455a.351.351,0,0,1,.23.664c-.441.153-.888.306-1.33.456a.35.35,0,0,1-.113.019m3.73-.319a.352.352,0,0,1-.34-.439q.057-.221.116-.444l-.074.026a.351.351,0,0,1-.237-.661l.531-.191.025-.09a.351.351,0,0,1,.6-.138l.157-.058a.351.351,0,1,1,.242.66l-.444.162c-.081.3-.162.609-.24.911a.352.352,0,0,1-.34.263m-136.8-.156a.349.349,0,0,1-.115-.019c-.442-.153-.888-.309-1.327-.465a.351.351,0,1,1,.235-.662c.437.155.883.311,1.323.464a.351.351,0,0,1-.115.683m-3.306-1.178a.349.349,0,0,1-.121-.022c-.436-.16-.88-.324-1.319-.488a.351.351,0,0,1,.246-.658c.438.164.88.328,1.314.487a.351.351,0,0,1-.121.681m142.986-.716a.351.351,0,0,1-.124-.68c.435-.165.875-.333,1.309-.5a.351.351,0,0,1,.254.655c-.435.169-.877.338-1.313.5a.352.352,0,0,1-.125.023m-146.271-.521a.348.348,0,0,1-.127-.024c-.437-.169-.877-.341-1.31-.512a.351.351,0,1,1,.258-.653c.431.17.87.342,1.305.51a.351.351,0,0,1-.127.679m-79.764-.008a.351.351,0,0,1-.3-.535c.247-.4.5-.8.762-1.194a.351.351,0,0,1,.586.388c-.255.384-.507.779-.749,1.174a.351.351,0,0,1-.3.167m229.3-.744a.351.351,0,0,1-.131-.678c.433-.173.87-.35,1.3-.525a.351.351,0,1,1,.265.65c-.431.176-.869.353-1.3.527a.348.348,0,0,1-.13.025M232,112.185a.344.344,0,0,1-.1-.014.351.351,0,0,1-.238-.436c.131-.448.266-.9.4-1.346a.351.351,0,0,1,.672.206c-.135.442-.27.892-.4,1.338a.352.352,0,0,1-.337.253M84.413,111.7a.346.346,0,0,1-.132-.026c-.432-.176-.87-.356-1.3-.535a.351.351,0,1,1,.27-.649c.429.178.865.358,1.3.534a.351.351,0,0,1-.133.677m156.051-.789a.351.351,0,0,1-.136-.675q.509-.214,1.017-.432l.272-.117a.351.351,0,0,1,.277.646l-.273.117q-.51.218-1.021.433a.351.351,0,0,1-.136.028m-159.289-.566a.35.35,0,0,1-.138-.029c-.428-.184-.863-.372-1.291-.559a.351.351,0,1,1,.281-.644c.427.187.859.374,1.286.557a.351.351,0,0,1-.138.674m-71.3-.267a.351.351,0,0,1-.282-.56c.28-.379.571-.757.863-1.124a.351.351,0,0,1,.55.438c-.287.36-.572.732-.848,1.1a.35.35,0,0,1-.283.142m233.809-.559a.351.351,0,0,1-.143-.672c.43-.191.86-.383,1.278-.573a.351.351,0,0,1,.29.64c-.42.191-.851.384-1.283.575a.348.348,0,0,1-.142.03m-165.725-.586a.35.35,0,0,1-.143-.031q-.639-.286-1.281-.577a.351.351,0,0,1,.289-.64l1.28.576a.351.351,0,0,1-.144.672m155.074-.093a.352.352,0,0,1-.334-.46c.144-.442.293-.89.443-1.334a.351.351,0,0,1,.665.226c-.149.441-.3.887-.441,1.326a.352.352,0,0,1-.334.243m13.842-.778a.351.351,0,0,1-.149-.669c.425-.2.851-.4,1.264-.6a.351.351,0,1,1,.305.633c-.416.2-.843.4-1.271.6a.351.351,0,0,1-.149.033m-172.115-.576a.348.348,0,0,1-.145-.032l-1.281-.584a.351.351,0,1,1,.291-.639l1.281.583a.351.351,0,0,1-.146.671m-62.676-.134a.351.351,0,0,1-.263-.585c.314-.353.637-.7.961-1.042a.351.351,0,1,1,.508.486c-.318.332-.635.676-.943,1.023a.351.351,0,0,1-.263.118m237.949-.821a.351.351,0,0,1-.157-.665c.419-.21.839-.423,1.249-.633a.351.351,0,1,1,.321.625c-.412.212-.834.426-1.255.637a.35.35,0,0,1-.157.037m-178.473-.5a.351.351,0,0,1-.145-.031l-1.28-.58a.351.351,0,1,1,.29-.64l1.281.581a.351.351,0,0,1-.146.671m162.607-.5a.352.352,0,0,1-.331-.47c.158-.441.321-.885.483-1.321a.351.351,0,0,1,.659.245c-.161.434-.323.875-.48,1.313a.352.352,0,0,1-.331.233m18.983-.606a.351.351,0,0,1-.166-.661c.413-.221.827-.445,1.231-.668a.351.351,0,1,1,.339.615c-.406.224-.823.45-1.238.672a.35.35,0,0,1-.165.042m-238.617-.079a.351.351,0,0,1-.24-.608c.346-.322.7-.641,1.056-.947a.351.351,0,0,1,.459.532c-.348.3-.7.612-1.035.928a.351.351,0,0,1-.24.094m53.824-.255a.352.352,0,0,1-.143-.03q-.641-.286-1.283-.569a.351.351,0,0,1,.283-.643q.644.284,1.286.571a.351.351,0,0,1-.143.672m187.864-1.368a.351.351,0,0,1-.175-.656c.405-.233.812-.47,1.209-.706a.351.351,0,1,1,.358.6c-.4.237-.809.476-1.217.71a.349.349,0,0,1-.175.047m-191.079-.043a.353.353,0,0,1-.139-.029c-.439-.189-.873-.374-1.289-.55a.351.351,0,1,1,.273-.647c.418.176.853.362,1.294.552a.351.351,0,0,1-.139.674m-47.927-.6a.351.351,0,0,1-.213-.631c.376-.286.761-.568,1.146-.836a.351.351,0,0,1,.4.576c-.377.263-.754.539-1.122.819a.35.35,0,0,1-.213.072m218.185-.334a.352.352,0,0,1-.327-.48c.17-.433.345-.872.521-1.308a.351.351,0,0,1,.651.264c-.175.432-.349.87-.518,1.3a.352.352,0,0,1-.327.223m-173.494-.426a.35.35,0,0,1-.132-.026c-.439-.179-.876-.354-1.3-.522a.351.351,0,1,1,.259-.653c.425.168.864.345,1.3.525a.351.351,0,0,1-.133.677m197.33-.4a.351.351,0,0,1-.185-.65c.4-.246.795-.5,1.184-.746a.351.351,0,1,1,.379.592c-.392.251-.793.5-1.193.751a.348.348,0,0,1-.185.053M20.115,100.6a.351.351,0,0,1-.183-.652c.4-.245.817-.484,1.229-.709a.351.351,0,1,1,.338.616c-.4.221-.807.454-1.2.694a.348.348,0,0,1-.182.051m38.528-.067a.349.349,0,0,1-.124-.023c-.44-.166-.881-.329-1.311-.486a.351.351,0,1,1,.24-.66c.432.157.876.321,1.319.488a.351.351,0,0,1-.124.68m203.545-1.02a.351.351,0,0,1-.2-.643c.388-.261.777-.527,1.155-.79a.351.351,0,1,1,.4.577c-.381.265-.772.533-1.164.8a.349.349,0,0,1-.2.06M55.344,99.345a.35.35,0,0,1-.113-.019c-.445-.151-.891-.3-1.325-.439a.351.351,0,1,1,.216-.669c.438.141.887.29,1.336.442a.351.351,0,0,1-.113.684m181.384-.355a.351.351,0,0,1-.323-.488c.182-.429.369-.865.556-1.294a.351.351,0,0,1,.644.281c-.186.427-.372.86-.553,1.287a.352.352,0,0,1-.324.214M23.209,98.944a.351.351,0,0,1-.148-.67c.428-.2.865-.389,1.3-.567a.351.351,0,0,1,.266.65c-.425.174-.852.36-1.27.554a.352.352,0,0,1-.148.033M52,98.285a.355.355,0,0,1-.1-.014c-.449-.132-.9-.26-1.341-.38a.351.351,0,0,1,.185-.678c.445.121.9.251,1.354.384a.351.351,0,0,1-.1.688m-25.534-.632a.351.351,0,0,1-.111-.685c.447-.148.9-.289,1.356-.419a.351.351,0,0,1,.193.676c-.443.126-.89.264-1.327.41a.35.35,0,0,1-.111.018m238.593-.161a.351.351,0,0,1-.208-.635c.377-.276.754-.557,1.121-.836a.351.351,0,1,1,.425.559c-.37.282-.751.565-1.131.844a.349.349,0,0,1-.207.068M48.617,97.38a.349.349,0,0,1-.082-.01c-.454-.109-.911-.213-1.358-.309a.351.351,0,1,1,.148-.687c.452.1.914.2,1.373.313a.351.351,0,0,1-.081.693m-18.765-.653a.351.351,0,0,1-.074-.695c.459-.1.927-.191,1.393-.272a.351.351,0,0,1,.12.692c-.456.079-.914.168-1.363.266a.359.359,0,0,1-.075.008m15.335-.063a.375.375,0,0,1-.061-.005c-.459-.081-.922-.156-1.373-.223a.351.351,0,1,1,.1-.695c.458.068.926.144,1.392.226a.351.351,0,0,1-.061.7m-3.469-.489-.037,0c-.463-.048-.929-.089-1.385-.122a.351.351,0,1,1,.051-.7c.463.033.937.075,1.407.124a.351.351,0,0,1-.036.7m-8.4-.012a.351.351,0,0,1-.038-.7c.465-.052.941-.095,1.412-.128a.351.351,0,0,1,.05.7c-.462.033-.928.075-1.384.125l-.039,0m4.9-.21h-.008c-.465-.01-.929-.012-1.39-.005a.351.351,0,0,1-.01-.7c.469-.006.942,0,1.415.006a.351.351,0,0,1-.007.7m199.92-.177a.348.348,0,0,1-.145-.032.351.351,0,0,1-.174-.465c.192-.422.391-.853.59-1.28a.351.351,0,0,1,.637.3c-.2.425-.4.853-.587,1.273a.351.351,0,0,1-.32.206m29.708-.419a.351.351,0,0,1-.22-.625c.365-.293.729-.591,1.082-.885a.351.351,0,0,1,.45.54c-.356.3-.724.6-1.092.894a.35.35,0,0,1-.22.077m2.685-2.261a.351.351,0,0,1-.233-.615c.349-.309.7-.624,1.037-.936a.351.351,0,1,1,.476.517c-.342.315-.695.633-1.048.945a.35.35,0,0,1-.232.088m-30.9-.5a.352.352,0,0,1-.316-.5c.205-.423.414-.849.62-1.265a.351.351,0,1,1,.629.312c-.206.414-.413.838-.618,1.26a.352.352,0,0,1-.316.2M273.1,90.7a.351.351,0,0,1-.246-.6c.332-.325.664-.658.987-.987a.351.351,0,0,1,.5.491c-.326.334-.662.669-1,1a.351.351,0,0,1-.246.1M241.2,89.45a.351.351,0,0,1-.312-.512c.212-.413.43-.834.649-1.252a.351.351,0,0,1,.622.326c-.218.416-.435.836-.646,1.247a.351.351,0,0,1-.313.191m34.34-1.267a.351.351,0,0,1-.259-.589c.314-.343.627-.693.93-1.04a.351.351,0,0,1,.529.462c-.307.351-.623.7-.941,1.052a.35.35,0,0,1-.259.114m-32.7-1.845a.351.351,0,0,1-.309-.518c.221-.411.448-.827.674-1.239a.351.351,0,0,1,.616.338c-.225.41-.451.825-.672,1.234a.351.351,0,0,1-.31.185m35-.809a.351.351,0,0,1-.272-.573c.294-.36.586-.728.868-1.092a.351.351,0,1,1,.555.43c-.286.368-.581.74-.878,1.105a.35.35,0,0,1-.273.129m-33.3-2.271a.352.352,0,0,1-.306-.524c.231-.409.465-.821.695-1.223a.351.351,0,1,1,.61.349c-.229.4-.462.81-.692,1.218a.351.351,0,0,1-.306.179m35.427-.516a.352.352,0,0,1-.286-.555c.274-.385.539-.772.788-1.148a.351.351,0,0,1,.586.388c-.253.383-.523.776-.8,1.167a.35.35,0,0,1-.286.148m-33.678-2.526a.351.351,0,0,1-.3-.529q.355-.605.715-1.211a.351.351,0,0,1,.6.359q-.359.6-.712,1.207a.351.351,0,0,1-.3.174m35.583-.42a.352.352,0,0,1-.3-.528c.236-.406.461-.815.67-1.216a.351.351,0,0,1,.623.324c-.213.41-.444.828-.685,1.244a.352.352,0,0,1-.3.175M248.084,77.2a.351.351,0,0,1-.3-.533q.363-.6.732-1.2a.351.351,0,0,1,.6.368q-.368.6-.73,1.2a.351.351,0,0,1-.3.169m35.365-.539a.352.352,0,0,1-.323-.489c.182-.429.352-.863.5-1.288a.351.351,0,0,1,.662.236c-.156.439-.331.885-.518,1.327a.352.352,0,0,1-.323.214m-33.525-2.45a.351.351,0,0,1-.3-.537l.313-.5c.141-.225.293-.458.45-.692a.351.351,0,1,1,.583.392c-.153.228-.3.454-.438.673l-.313.5a.351.351,0,0,1-.3.165m34.645-.873a.357.357,0,0,1-.085-.01.351.351,0,0,1-.257-.425c.111-.449.205-.9.281-1.348a.351.351,0,0,1,.693.118c-.079.463-.177.933-.292,1.4a.351.351,0,0,1-.341.267m-32.657-2.02a.352.352,0,0,1-.279-.565c.276-.362.571-.736.877-1.111a.351.351,0,0,1,.545.443c-.3.37-.591.738-.863,1.095a.351.351,0,0,1-.279.138m33.167-1.446h-.014a.351.351,0,0,1-.337-.365c.008-.2.012-.407.012-.609,0-.253-.006-.51-.019-.763a.351.351,0,1,1,.7-.035c.013.265.02.533.02.8,0,.212,0,.426-.013.637a.351.351,0,0,1-.351.337m-30.936-1.266a.351.351,0,0,1-.264-.583c.3-.347.622-.7.944-1.051a.351.351,0,1,1,.517.475c-.318.347-.632.7-.933,1.04a.35.35,0,0,1-.264.119m30.682-2.228a.351.351,0,0,1-.345-.287c-.085-.451-.19-.9-.315-1.334a.351.351,0,1,1,.675-.193c.131.455.242.926.33,1.4a.352.352,0,0,1-.281.41.369.369,0,0,1-.065.006m-28.295-.347a.351.351,0,0,1-.251-.6c.329-.336.664-.673,1-1a.351.351,0,1,1,.493.5c-.329.324-.661.657-.987.99a.35.35,0,0,1-.251.106m2.516-2.449a.352.352,0,0,1-.239-.609c.349-.323.7-.641,1.048-.947a.351.351,0,0,1,.465.527c-.342.3-.691.617-1.036.936a.35.35,0,0,1-.238.093m24.728-.544a.352.352,0,0,1-.32-.2,12.457,12.457,0,0,0-.636-1.207.351.351,0,1,1,.6-.362,13.149,13.149,0,0,1,.672,1.276.352.352,0,0,1-.319.5m-22.08-1.762a.351.351,0,0,1-.222-.624c.377-.307.751-.6,1.112-.877a.351.351,0,0,1,.426.559c-.355.27-.723.561-1.094.863a.35.35,0,0,1-.222.079m20.189-1.18a.35.35,0,0,1-.264-.119,10.451,10.451,0,0,0-.96-.959.351.351,0,1,1,.463-.529,11.155,11.155,0,0,1,1.025,1.024.351.351,0,0,1-.264.583m-17.37-.913a.351.351,0,0,1-.192-.646c.4-.258.811-.5,1.233-.73a.351.351,0,0,1,.333.619c-.4.218-.8.454-1.183.7a.351.351,0,0,1-.191.057m14.662-1.295a.352.352,0,0,1-.173-.045,10.2,10.2,0,0,0-1.223-.587.351.351,0,1,1,.262-.652,10.97,10.97,0,0,1,1.307.628.351.351,0,0,1-.173.657m-11.545-.306a.351.351,0,0,1-.128-.678c.445-.174.9-.332,1.354-.468a.351.351,0,1,1,.2.673c-.435.131-.873.282-1.3.449a.352.352,0,0,1-.128.024m8.264-.9a.362.362,0,0,1-.069-.007,12.129,12.129,0,0,0-1.35-.187.351.351,0,0,1,.058-.7,12.883,12.883,0,0,1,1.429.2.351.351,0,0,1-.068.7m-4.888-.038a.351.351,0,0,1-.057-.7c.476-.078.956-.135,1.426-.168a.351.351,0,0,1,.049.7c-.449.031-.907.086-1.362.16a.349.349,0,0,1-.057,0" transform="translate(0 -42.07)" fill="#87b1e0"/>
            <path id="Trazado_1017001" data-name="Trazado 1017001" d="M1227.463,674.737h0l-.7-.011a.351.351,0,0,1,.006-.7h.007l.7.011a.351.351,0,0,1,0,.7" transform="translate(-924.927 -508.332)" fill="#87b1e0"/>
            <path id="Trazado_1017002" data-name="Trazado 1017002" d="M216.939,131.668l-6.349.937a.884.884,0,0,1-.258-1.748l6.349-.936a.883.883,0,1,1,.258,1.748" transform="translate(-158.058 -97.975)" fill="#87b1e0"/>
            <path id="Trazado_1017003" data-name="Trazado 1017003" d="M261.493,74.569a.883.883,0,0,1-1-.745l-.937-6.35a.884.884,0,0,1,1.748-.258l.936,6.349a.883.883,0,0,1-.745,1" transform="translate(-195.742 -50.124)" fill="#87b1e0"/>
            <path id="Trazado_1017004" data-name="Trazado 1017004" d="M226.649,95.219a.881.881,0,0,1-.656-.165l-5-3.718a.883.883,0,1,1,1.054-1.418l5.005,3.718a.883.883,0,0,1-.4,1.583" transform="translate(-166.395 -67.682)" fill="#87b1e0"/>
            <path id="Trazado_1017005" data-name="Trazado 1017005" d="M962.326,427.856a2.619,2.619,0,1,1,2.619-2.619,2.622,2.622,0,0,1-2.619,2.619m0-4.164a1.545,1.545,0,1,0,1.545,1.545,1.547,1.547,0,0,0-1.545-1.545" transform="translate(-723.787 -318.728)" fill="#87b1e0"/>
            <path id="Trazado_1017006" data-name="Trazado 1017006" d="M208.954,272.351A2.249,2.249,0,1,1,211.2,270.1a2.252,2.252,0,0,1-2.249,2.249m0-3.576a1.327,1.327,0,1,0,1.327,1.327,1.328,1.328,0,0,0-1.327-1.327" transform="translate(-155.892 -202.008)" fill="#87b1e0"/>
            <path id="Trazado_1017007" data-name="Trazado 1017007" d="M292.534,645.956h-1.381v-1.948a.392.392,0,1,0-.784,0v1.948h-1.381a.392.392,0,1,0,0,.784h1.381v1.948a.392.392,0,0,0,.784,0V646.74h1.381a.392.392,0,0,0,0-.784" transform="translate(-217.652 -485.399)" fill="#87b1e0"/>
            <path id="Trazado_1017008" data-name="Trazado 1017008" d="M834.29,44.09h-2.073V41.166a.588.588,0,1,0-1.177,0V44.09h-2.073a.588.588,0,0,0,0,1.177h2.073V48.19a.588.588,0,1,0,1.177,0V45.266h2.073a.588.588,0,1,0,0-1.177" transform="translate(-624.743 -30.603)" fill="#87b1e0"/>
            <path id="Trazado_1017009" data-name="Trazado 1017009" d="M684.726,193.682,664.634,269.8a6.434,6.434,0,0,1-7.862,4.579l-56.905-15.021-.112-.031a6.428,6.428,0,0,1-4.465-7.832l20.093-76.118a6.433,6.433,0,0,1,7.862-4.579l56.905,15.021a6.434,6.434,0,0,1,4.578,7.863" transform="translate(-448.79 -128.65)" fill="#1a2b5b"/>
            <path id="Trazado_1017010" data-name="Trazado 1017010" d="M719.3,299.782l-17.807,67.457a6.434,6.434,0,0,1-7.862,4.579L643.951,358.7c55.8,12.019,75.351-58.922,75.351-58.922" transform="translate(-485.652 -226.088)" fill="#14244d"/>
            <path id="Trazado_1017011" data-name="Trazado 1017011" d="M648.05,192.3l-19.333,73.238,3.106,5.334L683.038,284.4l20.447-77.458Z" transform="translate(-474.163 -145.032)" fill="#fff"/>
            <path id="Trazado_1017012" data-name="Trazado 1017012" d="M631.824,495.566l-3.106-5.334,4.22,1.114Z" transform="translate(-474.163 -369.721)" fill="#87b1e0"/>
            <path id="Trazado_1017013" data-name="Trazado 1017013" d="M788.667,482.455a6.055,6.055,0,1,0,7.4-4.308,6.055,6.055,0,0,0-7.4,4.308" transform="translate(-594.64 -360.454)" fill="#578cca"/>
            <path id="Trazado_1017014" data-name="Trazado 1017014" d="M800.938,497.72l-1.74-3.284,1.4-.742.88,1.661,4.063-2.986.939,1.277Z" transform="translate(-602.735 -371.332)" fill="#fff"/>
            <path id="Trazado_1017015" data-name="Trazado 1017015" d="M688.643,457.285l19.908,5.257a1.053,1.053,0,1,0,.538-2.036l-19.908-5.257a1.053,1.053,0,0,0-.538,2.036" transform="translate(-518.766 -343.311)" fill="#1a2b5b"/>
            <path id="Trazado_1017016" data-name="Trazado 1017016" d="M668.214,474.172l23.578,6.227a1.053,1.053,0,0,0,.538-2.036l-23.578-6.227a1.053,1.053,0,1,0-.538,2.036" transform="translate(-503.359 -356.047)" fill="#578cca"/>
            <path id="Trazado_1017017" data-name="Trazado 1017017" d="M807.24,412.123a6.055,6.055,0,1,0,7.4-4.308,6.055,6.055,0,0,0-7.4,4.308" transform="translate(-608.648 -307.411)" fill="#578cca"/>
            <path id="Trazado_1017018" data-name="Trazado 1017018" d="M722.162,411l-19.908-5.257a1.053,1.053,0,0,0-.538,2.036l19.908,5.257a1.053,1.053,0,0,0,.538-2.036" transform="translate(-528.625 -305.978)" fill="#578cca"/>
            <path id="Trazado_1017019" data-name="Trazado 1017019" d="M716.405,387.2l-23.578-6.227a1.053,1.053,0,0,0-.538,2.036l23.578,6.226a1.053,1.053,0,0,0,.538-2.036" transform="translate(-521.516 -287.295)" fill="#1a2b5b"/>
            <path id="Trazado_1017020" data-name="Trazado 1017020" d="M802.043,407.842a7.344,7.344,0,1,1,5.225,8.976,7.352,7.352,0,0,1-5.225-8.976m.469.124a6.859,6.859,0,1,0,8.383-4.88,6.867,6.867,0,0,0-8.383,4.88" transform="translate(-604.696 -303.459)" fill="#14244d"/>
            <path id="Trazado_1017021" data-name="Trazado 1017021" d="M825.813,341.791a6.055,6.055,0,1,0,7.4-4.308,6.055,6.055,0,0,0-7.4,4.308" transform="translate(-622.655 -254.368)" fill="#578cca"/>
            <path id="Trazado_1017022" data-name="Trazado 1017022" d="M838.07,357.051l-1.74-3.283,1.4-.742.88,1.661,4.063-2.987.939,1.278Z" transform="translate(-630.739 -265.243)" fill="#fff"/>
            <path id="Trazado_1017023" data-name="Trazado 1017023" d="M751.021,323.283l13.706,3.62a1.053,1.053,0,0,0,.538-2.036l-13.706-3.62a1.053,1.053,0,0,0-.538,2.036" transform="translate(-565.81 -242.25)" fill="#578cca"/>
            <path id="Trazado_1017024" data-name="Trazado 1017024" d="M720.289,337.45l19.908,5.257a1.053,1.053,0,0,0,.538-2.036l-19.908-5.257a1.053,1.053,0,0,0-.538,2.036" transform="translate(-542.633 -252.934)" fill="#1a2b5b"/>
            <path id="Trazado_1017025" data-name="Trazado 1017025" d="M843.048,276.527a6.055,6.055,0,1,0,7.4-4.308,6.055,6.055,0,0,0-7.4,4.308" transform="translate(-635.653 -205.148)" fill="#578cca"/>
            <path id="Trazado_1017026" data-name="Trazado 1017026" d="M855.312,291.79l-1.74-3.283,1.4-.742.88,1.661,4.063-2.986.939,1.277Z" transform="translate(-643.742 -216.025)" fill="#fff"/>
            <path id="Trazado_1017027" data-name="Trazado 1017027" d="M743.025,251.357l19.908,5.258a1.053,1.053,0,0,0,.538-2.036l-19.908-5.257a1.053,1.053,0,1,0-.538,2.036" transform="translate(-559.78 -188.005)" fill="#1a2b5b"/>
            <path id="Trazado_1017028" data-name="Trazado 1017028" d="M722.6,268.244l23.578,6.227a1.053,1.053,0,0,0,.538-2.036l-23.578-6.226a1.053,1.053,0,0,0-.538,2.036" transform="translate(-544.373 -200.741)" fill="#578cca"/>
            <path id="Trazado_1017029" data-name="Trazado 1017029" d="M795.294,185.553l-5.532-1.46a1.213,1.213,0,0,1-.863-1.482,1.676,1.676,0,0,0-1.189-2.042l-4.585-1.21a1.676,1.676,0,0,0-2.042,1.189,1.213,1.213,0,0,1-1.482.863l-5.531-1.46a1.221,1.221,0,0,0-1.494.87l-1.875,7.1a1.22,1.22,0,0,0,.343,1.2,1.189,1.189,0,0,0,.526.294l21.224,5.6a1.223,1.223,0,0,0,1.493-.871l1.875-7.1a1.222,1.222,0,0,0-.869-1.494" transform="translate(-581.213 -135.227)" fill="#87b1e0"/>
            <path id="Trazado_1017030" data-name="Trazado 1017030" d="M795.136,198.441a.346.346,0,0,1-.089-.012l.089-.34-.09.339-1.353-.357a.351.351,0,0,1,.179-.679l1.349.356a.352.352,0,0,1-.085.692m-3.377-.891a.354.354,0,0,1-.09-.012l-1.349-.356a.351.351,0,0,1,.179-.679l1.349.356a.351.351,0,0,1-.09.691m4.274-.778a.357.357,0,0,1-.09-.012.351.351,0,0,1-.25-.429l.356-1.349a.351.351,0,0,1,.679.179l-.356,1.349a.351.351,0,0,1-.339.262m-7.647-.112a.354.354,0,0,1-.09-.012l-1.349-.356a.351.351,0,1,1,.179-.679l1.349.356a.351.351,0,0,1-.09.691m-3.372-.89a.354.354,0,0,1-.09-.012l-1.349-.356a.351.351,0,0,1,.179-.679l1.349.356a.351.351,0,0,1-.089.691m-3.372-.89a.354.354,0,0,1-.09-.012l-1.349-.356a.351.351,0,0,1,.179-.679l1.349.356a.351.351,0,0,1-.089.691m-3.372-.89a.344.344,0,0,1-.09-.012l-1.349-.356a.351.351,0,0,1,.179-.679l1.349.356a.351.351,0,0,1-.089.691m18.654-.589a.352.352,0,0,1-.34-.441l.356-1.349a.351.351,0,0,1,.679.179l-.356,1.349a.352.352,0,0,1-.339.262m-22.027-.3a.354.354,0,0,1-.09-.012l-.526-.139a.8.8,0,0,1-.594-.772.789.789,0,0,1,.027-.2l.038-.146a.351.351,0,0,1,.679.179l-.039.146a.09.09,0,0,0,0,.024.1.1,0,0,0,.071.092l.525.139a.351.351,0,0,1-.089.691m21.328-2.3a.343.343,0,0,1-.09-.012l-1.349-.356a.351.351,0,1,1,.18-.679l1.349.356a.351.351,0,0,1-.09.691m-21.6-.55a.352.352,0,0,1-.34-.441l.356-1.349a.351.351,0,1,1,.679.179l-.356,1.349a.351.351,0,0,1-.339.262m18.225-.34a.356.356,0,0,1-.09-.012l-1.349-.356a.351.351,0,0,1,.179-.679l1.349.356a.351.351,0,0,1-.09.691m-3.372-.89a.355.355,0,0,1-.09-.012l-1.349-.356a.351.351,0,1,1,.179-.679l1.349.356a.351.351,0,0,1-.089.691m-3.372-.89a.357.357,0,0,1-.09-.012l-1.349-.356a.351.351,0,0,1,.179-.679l1.349.356a.351.351,0,0,1-.089.691m-3.372-.89a.355.355,0,0,1-.09-.012l-1.349-.356a.351.351,0,1,1,.179-.679l1.349.356a.351.351,0,0,1-.089.691m-7.218-.362a.357.357,0,0,1-.09-.012.351.351,0,0,1-.25-.429l.267-1.011a.793.793,0,0,1,.369-.484.351.351,0,0,1,.355.606.093.093,0,0,0-.044.057l-.267,1.011a.351.351,0,0,1-.34.262m3.845-.528a.346.346,0,0,1-.09-.012l-1.349-.356a.351.351,0,0,1,.179-.679l1.349.356a.351.351,0,0,1-.089.691" transform="translate(-583.496 -139.438)" fill="#fff"/>
            <rect id="Rectángulo_462351" data-name="Rectángulo 462351" width="107.324" height="149.884" transform="translate(66.736 31.324) rotate(-8.389)" fill="#fff"/>
            <path id="Trazado_1017031" data-name="Trazado 1017031" d="M288.787,225.192,266.612,74.826l108.26-15.965,22.175,150.365ZM269,76.6l21.56,146.2,104.09-15.35-21.56-146.2Z" transform="translate(-201.072 -44.392)" fill="#87b1e0"/>
            <rect id="Rectángulo_462352" data-name="Rectángulo 462352" width="10.158" height="23.462" transform="translate(86.074 62.817) rotate(-8.39)" fill="#87b1e0"/>
            <rect id="Rectángulo_462353" data-name="Rectángulo 462353" width="10.158" height="21.289" transform="translate(100.119 62.942) rotate(-8.39)" fill="#87b1e0"/>
            <rect id="Rectángulo_462354" data-name="Rectángulo 462354" width="10.158" height="25.744" transform="translate(113.198 56.51) rotate(-8.39)" fill="#87b1e0"/>
            <rect id="Rectángulo_462355" data-name="Rectángulo 462355" width="10.158" height="32.248" transform="translate(125.978 48.052) rotate(-8.39)" fill="#578cca"/>
            <path id="Trazado_1017032" data-name="Trazado 1017032" d="M381.389,142.826a3.649,3.649,0,0,0-5.106.753l-17.8,23.964L344.7,158.1a3.638,3.638,0,0,0-2.589-.6H342.1a3.639,3.639,0,0,0-2.3,1.314l-11.767,14.54a3.649,3.649,0,0,0,5.673,4.591l9.648-11.921,13.9,9.524a3.649,3.649,0,0,0,4.992-.834l19.9-26.783a3.654,3.654,0,0,0-.753-5.106" transform="translate(-246.779 -107.172)" fill="#152b60"/>
            <path id="Trazado_1017033" data-name="Trazado 1017033" d="M354.515,172.354a5.458,5.458,0,0,1-3.892-.9l-12.511-8.572-8.588,10.612a5.474,5.474,0,1,1-8.51-6.887l11.767-14.54a5.46,5.46,0,0,1,3.456-1.972h.006a5.46,5.46,0,0,1,3.887.9l12.334,8.451,16.757-22.554a5.474,5.474,0,0,1,8.788,6.529L358.11,170.2a5.439,5.439,0,0,1-3.6,2.151M337.4,157.968l15.29,10.476a1.825,1.825,0,0,0,2.5-.417l19.9-26.783a1.825,1.825,0,1,0-2.929-2.176L353.3,164.441l-15.231-10.436a1.82,1.82,0,0,0-1.295-.3h0a1.82,1.82,0,0,0-1.152.657L323.851,168.9a1.825,1.825,0,0,0,1.609,2.962,1.787,1.787,0,0,0,1.227-.667Z" transform="translate(-241.181 -101.573)" fill="#fff"/>
            <path id="Trazado_1017034" data-name="Trazado 1017034" d="M526.386,142.248l-4.274,1.849a1.573,1.573,0,0,0-.314,2.706l3.738,2.777a1.573,1.573,0,0,0,2.5-1.082l.536-4.625a1.573,1.573,0,0,0-2.187-1.625" transform="translate(-393.048 -107.181)" fill="#152b60"/>
            <path id="Trazado_1017035" data-name="Trazado 1017035" d="M408.02,553.218a9.4,9.4,0,1,1-10.671-7.928,9.4,9.4,0,0,1,10.671,7.928" transform="translate(-293.615 -411.168)" fill="#87b1e0"/>
            <path id="Trazado_1017036" data-name="Trazado 1017036" d="M411.1,572.034l-4.49-3.623,1.546-1.915,2.271,1.832,3.974-6.744,2.12,1.249Z" transform="translate(-306.652 -423.533)" fill="#fff"/>
            <path id="Trazado_1017037" data-name="Trazado 1017037" d="M519.829,534.512l-31.622,4.664a1.635,1.635,0,0,1-1.856-1.379h0a1.635,1.635,0,0,1,1.379-1.855l31.623-4.663a1.635,1.635,0,1,1,.477,3.234" transform="translate(-366.78 -400.663)" fill="#152b60"/>
            <path id="Trazado_1017038" data-name="Trazado 1017038" d="M530.538,564.1l-37.452,5.523a1.635,1.635,0,1,1-.477-3.234l37.452-5.523a1.635,1.635,0,0,1,.477,3.234" transform="translate(-370.461 -422.979)" fill="#578cca"/>
            <path id="Trazado_1017039" data-name="Trazado 1017039" d="M391.545,441.5a9.4,9.4,0,1,1-10.671-7.928,9.4,9.4,0,0,1,10.671,7.928" transform="translate(-281.19 -326.914)" fill="#87b1e0"/>
            <path id="Trazado_1017040" data-name="Trazado 1017040" d="M394.62,460.318l-4.49-3.623,1.546-1.915,2.271,1.832,3.974-6.744,2.12,1.249Z" transform="translate(-294.227 -339.28)" fill="#fff"/>
            <path id="Trazado_1017041" data-name="Trazado 1017041" d="M476.134,457.311l31.622-4.664a1.635,1.635,0,0,1,1.856,1.379h0a1.635,1.635,0,0,1-1.379,1.855l-31.623,4.663a1.635,1.635,0,1,1-.477-3.234" transform="translate(-358.036 -341.362)" fill="#578cca"/>
            <path id="Trazado_1017042" data-name="Trazado 1017042" d="M471.255,421.589l37.452-5.523a1.635,1.635,0,0,1,.477,3.234l-37.452,5.523a1.635,1.635,0,1,1-.477-3.234" transform="translate(-354.356 -313.773)" fill="#152b60"/>
            <path id="Trazado_1017043" data-name="Trazado 1017043" d="M377.773,448.016a11.4,11.4,0,1,1,9.615-12.942,11.414,11.414,0,0,1-9.615,12.942M374.556,426.2a10.648,10.648,0,1,0,12.087,8.98,10.66,10.66,0,0,0-12.087-8.98" transform="translate(-275.054 -320.778)" fill="#14244d"/>
            <path id="Trazado_1017044" data-name="Trazado 1017044" d="M694.429,629.2l-16.887,2.49a1.486,1.486,0,0,1-.434-2.94L694,626.258a1.486,1.486,0,1,1,.434,2.94" transform="translate(-509.701 -472.296)" fill="#152b60"/>
            <path id="Trazado_1017045" data-name="Trazado 1017045" d="M613.212,134.566l-19.021,2.805a1.208,1.208,0,0,1-.352-2.39l19.021-2.805a1.208,1.208,0,1,1,.352,2.39" transform="translate(-447.08 -99.675)" fill="#152b60"/>
            <path id="Trazado_1017046" data-name="Trazado 1017046" d="M616.723,158.376,597.7,161.181a1.208,1.208,0,1,1-.352-2.39l19.021-2.805a1.208,1.208,0,1,1,.353,2.39" transform="translate(-449.728 -117.631)" fill="#578cca"/>
            <g id="Grupo_1195941" data-name="Grupo 1195941" transform="translate(170.675 104.253)" opacity="0.1" style="mix-blend-mode: multiply;isolation: isolate">
              <g id="Grupo_1195940" data-name="Grupo 1195940">
                <g id="Grupo_1195939" data-name="Grupo 1195939" clip-path="url(#clip-path-3)">
                  <path id="Trazado_1017047" data-name="Trazado 1017047" d="M731.877,461.678h0a4.552,4.552,0,0,1-6.437,0L697.8,434.042l-3.512-3.512a22.7,22.7,0,0,0,6.437-6.437l31.148,31.148a4.551,4.551,0,0,1,0,6.436" transform="translate(-694.292 -424.093)" fill="#14244d"/>
                </g>
              </g>
            </g>
            <path id="Trazado_1017048" data-name="Trazado 1017048" d="M717.229,464.017h0a4.552,4.552,0,0,1-6.437,0l-27.636-27.636-3.512-3.512a22.7,22.7,0,0,0,6.437-6.437l31.148,31.148a4.551,4.551,0,0,1,0,6.436" transform="translate(-512.571 -321.604)" fill="#152b60"/>
            <g id="Grupo_1195944" data-name="Grupo 1195944" transform="translate(168.474 106.227)" opacity="0.5" style="mix-blend-mode: multiply;isolation: isolate">
              <g id="Grupo_1195943" data-name="Grupo 1195943">
                <g id="Grupo_1195942" data-name="Grupo 1195942" clip-path="url(#clip-path-4)">
                  <path id="Trazado_1017049" data-name="Trazado 1017049" d="M691.776,432.126l7.2,7.2a22.705,22.705,0,0,1-6.436,6.437h0l-3.69-3.691-3.512-3.512a22.7,22.7,0,0,0,6.436-6.437" transform="translate(-685.34 -432.126)" fill="#14244d"/>
                </g>
              </g>
            </g>
            <path id="Trazado_1017050" data-name="Trazado 1017050" d="M544.916,264.252a27.457,27.457,0,1,0,27.453,27.454,27.454,27.454,0,0,0-27.453-27.454m18.851,39.868a22.573,22.573,0,1,1,3.718-12.414,22.463,22.463,0,0,1-3.718,12.414" transform="translate(-390.258 -199.292)" fill="#152b60"/>
            <g id="Grupo_1195947" data-name="Grupo 1195947" transform="translate(132.09 69.844)" style="mix-blend-mode: multiply;isolation: isolate">
              <g id="Grupo_1195946" data-name="Grupo 1195946">
                <g id="Grupo_1195945" data-name="Grupo 1195945" clip-path="url(#clip-path-5)">
                  <path id="Trazado_1017051" data-name="Trazado 1017051" d="M582.469,306.691A22.569,22.569,0,1,1,559.9,284.122a22.569,22.569,0,0,1,22.569,22.569" transform="translate(-537.331 -284.122)" fill="#b9d6f2"/>
                </g>
              </g>
            </g>
            <path id="Trazado_1017052" data-name="Trazado 1017052" d="M553.153,319.515a2.108,2.108,0,0,1-2.108-2.108,19.572,19.572,0,0,1,19.572-19.572,2.108,2.108,0,0,1,0,4.215,15.374,15.374,0,0,0-15.357,15.357,2.108,2.108,0,0,1-2.108,2.108" transform="translate(-415.584 -224.62)" fill="#fff"/>
          </g>
        </g>
      </g>
    </g>
  </g>
</svg>
