<svg xmlns="http://www.w3.org/2000/svg" xmlns:xlink="http://www.w3.org/1999/xlink" width="396" height="363.153" viewBox="0 0 396 363.153">
  <defs>
    <clipPath id="clip-path">
      <path id="Trazado_994676" data-name="Trazado 994676" d="M1208.836,652.646l-.078,1.129.538.827.16-2.377q-.317.209-.621.42" transform="translate(-1208.758 -652.226)" fill="none"/>
    </clipPath>
    <clipPath id="clip-path-2">
      <rect id="Rectángulo_462285" data-name="Rectángulo 462285" width="336.211" height="307.514" fill="none"/>
    </clipPath>
  </defs>
  <g id="Grupo_1196054" data-name="Grupo 1196054" transform="translate(-497.961 -4676.744)">
    <g id="Grupo_1195248" data-name="Grupo 1195248" transform="translate(565.627 4678.113)">
      <g id="Grupo_1177236" data-name="Grupo 1177236" transform="translate(183.633 99.537)">
        <g id="Grupo_1177235" data-name="Grupo 1177235" clip-path="url(#clip-path)">
          <rect id="Rectángulo_454792" data-name="Rectángulo 454792" width="0.699" height="2.377" transform="translate(0 0)" fill="#dcedfb"/>
        </g>
      </g>
    </g>
    <rect id="Rectángulo_461868" data-name="Rectángulo 461868" width="396" height="363.153" transform="translate(497.961 4676.744)" fill="#bbc3dc"/>
    <g id="Grupo_1195812" data-name="Grupo 1195812" transform="translate(527.855 4732.381)">
      <g id="Grupo_1195811" data-name="Grupo 1195811" transform="translate(0 0.002)" clip-path="url(#clip-path-2)">
        <path id="Trazado_1016199" data-name="Trazado 1016199" d="M22.41,297.088s-61.184-91.777,18.642-163.879a48.167,48.167,0,0,1,8.229-5.928c5.884-3.4,18.654-14.551,19.892-47.558a106.206,106.206,0,0,1,7.069-35.069C83.938,25.261,99.5,1.811,129.989.1,147.944-.908,165.616,5.943,180.4,18.96a108.058,108.058,0,0,1,15.247,16.55,79.843,79.843,0,0,0,20.06,19.365c10.4,6.794,25.083,13.539,40.415,11.459a40.882,40.882,0,0,1,22.817,3.257c17.4,8.016,42.3,28.754,36.728,81.236,0,0-3.536,29.07,9.362,50.668A77.532,77.532,0,0,1,335.564,234c1.9,20.54.608,49.01-17.8,62.821Z" transform="translate(0 -0.002)" fill="#d2e1f1"/>
        <path id="Trazado_1016200" data-name="Trazado 1016200" d="M1622,358.951h-88.517a28.178,28.178,0,0,0-28.177,28.177V537.154h144.871V387.128A28.178,28.178,0,0,0,1622,358.951m-74.611,13.407a3.538,3.538,0,1,1,3.538-3.538,3.539,3.539,0,0,1-3.538,3.538m20.3,0a3.538,3.538,0,1,1,3.538-3.538,3.539,3.539,0,0,1-3.538,3.538m20.3,0a3.538,3.538,0,1,1,3.538-3.538,3.539,3.539,0,0,1-3.538,3.538m20.3,0a3.538,3.538,0,1,1,3.538-3.538,3.539,3.539,0,0,1-3.538,3.538" transform="translate(-1364.464 -325.366)" fill="#fbf4e8"/>
        <path id="Trazado_1016201" data-name="Trazado 1016201" d="M1901.8,186.187a7.55,7.55,0,0,1-5.833-3.133l.722-.588a6.656,6.656,0,0,0,5.111,2.79c4.672,0,8.473-6.14,8.473-13.686s-3.8-13.687-8.473-13.687-8.473,6.14-8.473,13.687a21.4,21.4,0,0,0,.407,4.192l-.913.183a22.316,22.316,0,0,1-.426-4.374c0-8.06,4.219-14.617,9.4-14.617s9.4,6.557,9.4,14.617-4.218,14.617-9.4,14.617" transform="translate(-1715.329 -142.267)"/>
        <path id="Trazado_1016202" data-name="Trazado 1016202" d="M2118.721,186.187a7.55,7.55,0,0,1-5.833-3.133l.722-.588a6.658,6.658,0,0,0,5.111,2.79c4.672,0,8.473-6.14,8.473-13.686s-3.8-13.687-8.473-13.687-8.473,6.14-8.473,13.687a21.409,21.409,0,0,0,.408,4.192l-.913.183a22.307,22.307,0,0,1-.426-4.374c0-8.06,4.218-14.617,9.4-14.617s9.4,6.557,9.4,14.617-4.219,14.617-9.4,14.617" transform="translate(-1911.957 -142.267)"/>
        <path id="Trazado_1016203" data-name="Trazado 1016203" d="M2335.646,186.187a7.549,7.549,0,0,1-5.833-3.133l.722-.588a6.657,6.657,0,0,0,5.111,2.79c4.672,0,8.472-6.14,8.472-13.686s-3.8-13.687-8.472-13.687-8.473,6.14-8.473,13.687a21.409,21.409,0,0,0,.407,4.192l-.913.183a22.326,22.326,0,0,1-.426-4.374c0-8.06,4.218-14.617,9.4-14.617s9.4,6.557,9.4,14.617-4.218,14.617-9.4,14.617" transform="translate(-2108.585 -142.267)"/>
        <path id="Trazado_1016204" data-name="Trazado 1016204" d="M2552.573,186.187a7.549,7.549,0,0,1-5.833-3.133l.722-.588a6.656,6.656,0,0,0,5.111,2.79c4.671,0,8.472-6.14,8.472-13.686s-3.8-13.687-8.472-13.687-8.473,6.14-8.473,13.687a21.391,21.391,0,0,0,.407,4.192l-.913.183a22.326,22.326,0,0,1-.426-4.374c0-8.06,4.219-14.617,9.4-14.617s9.4,6.557,9.4,14.617-4.218,14.617-9.4,14.617" transform="translate(-2305.214 -142.267)"/>
        <path id="Trazado_1016205" data-name="Trazado 1016205" d="M2367.632,1549.678h-24.711l-2.913-26.009-2.552,26.009h-24.718v-58.822h54.893Zm-23.635-1.2h22.432v-56.416h-52.488v56.416h22.425l3.563-36.32Z" transform="translate(-2096.345 -1351.362)"/>
        <path id="Trazado_1016206" data-name="Trazado 1016206" d="M1713.216,718.719h-40.489V680.743h-11.785V663.994l18.28-6.061,25.046.023,18.787,5.368.043,17.47-9.883-.051Zm-39.286-1.2h38.083V679.54l9.782-.05.021-15.27-17.8-5.085h-24.7l-17.175,5.725v14.68h11.786Z" transform="translate(-1505.534 -596.373)"/>
        <path id="Trazado_1016207" data-name="Trazado 1016207" d="M1989.064,677.676a.373.373,0,0,1-.373-.372v-1.024a.372.372,0,0,1,.745,0V677.3a.372.372,0,0,1-.372.372" transform="translate(-1802.617 -612.665)"/>
        <path id="Trazado_1016208" data-name="Trazado 1016208" d="M1989.064,759.8a.373.373,0,0,1-.373-.373v-2.023a.372.372,0,0,1,.745,0v2.023a.372.372,0,0,1-.372.373m0-4.047a.373.373,0,0,1-.373-.372V753.36a.372.372,0,1,1,.745,0v2.023a.372.372,0,0,1-.372.372m0-4.047a.373.373,0,0,1-.373-.372v-2.023a.372.372,0,1,1,.745,0v2.023a.372.372,0,0,1-.372.372m0-4.047a.373.373,0,0,1-.373-.373v-2.023a.372.372,0,0,1,.745,0v2.023a.373.373,0,0,1-.372.373m0-4.047a.372.372,0,0,1-.373-.372V741.22a.372.372,0,0,1,.745,0v2.024a.372.372,0,0,1-.372.372m0-4.047a.373.373,0,0,1-.373-.372v-2.023a.372.372,0,1,1,.745,0V739.2a.372.372,0,0,1-.372.372m0-4.047a.373.373,0,0,1-.373-.373v-2.023a.372.372,0,0,1,.745,0v2.023a.372.372,0,0,1-.372.373m0-4.047a.373.373,0,0,1-.373-.372v-2.023a.372.372,0,0,1,.745,0V731.1a.372.372,0,0,1-.372.372m0-4.047a.373.373,0,0,1-.373-.372v-2.023a.372.372,0,1,1,.745,0v2.023a.372.372,0,0,1-.372.372m0-4.047a.373.373,0,0,1-.373-.372v-2.023a.372.372,0,0,1,.745,0v2.023a.372.372,0,0,1-.372.372m0-4.047a.373.373,0,0,1-.373-.372v-2.023a.372.372,0,1,1,.745,0v2.023a.372.372,0,0,1-.372.372m0-4.047a.373.373,0,0,1-.373-.372v-2.023a.372.372,0,1,1,.745,0v2.023a.372.372,0,0,1-.372.372m0-4.047a.373.373,0,0,1-.373-.372v-2.023a.372.372,0,0,1,.745,0v2.023a.372.372,0,0,1-.372.372" transform="translate(-1802.617 -642.186)"/>
        <path id="Trazado_1016209" data-name="Trazado 1016209" d="M1989.064,1272.482a.372.372,0,0,1-.373-.372v-1.024a.372.372,0,0,1,.745,0v1.024a.372.372,0,0,1-.372.372" transform="translate(-1802.617 -1151.818)"/>
        <path id="Trazado_1016210" data-name="Trazado 1016210" d="M1979.176,673.123l1.263-1.263,1.263,1.263v-1.072l-1.263-1.263-1.263,1.263Z" transform="translate(-1793.992 -608.025)"/>
        <path id="Trazado_1016211" data-name="Trazado 1016211" d="M1979.176,1269.782l1.263,1.263,1.263-1.263v1.072l-1.263,1.263-1.263-1.263Z" transform="translate(-1793.992 -1150.974)"/>
        <path id="Trazado_1016212" data-name="Trazado 1016212" d="M2243.8,1499.6a.372.372,0,0,1-.372-.373v-1.024a.372.372,0,1,1,.745,0v1.024a.372.372,0,0,1-.373.373" transform="translate(-2033.521 -1357.688)"/>
        <path id="Trazado_1016213" data-name="Trazado 1016213" d="M2243.8,1581.732a.372.372,0,0,1-.372-.372v-2.023a.372.372,0,0,1,.745,0v2.023a.372.372,0,0,1-.373.372m0-4.047a.372.372,0,0,1-.372-.372v-2.023a.372.372,0,1,1,.745,0v2.023a.372.372,0,0,1-.373.372m0-4.047a.372.372,0,0,1-.372-.372v-2.023a.372.372,0,1,1,.745,0v2.023a.372.372,0,0,1-.373.372m0-4.047a.373.373,0,0,1-.372-.373V1567.2a.372.372,0,1,1,.745,0v2.023a.373.373,0,0,1-.373.373m0-4.047a.372.372,0,0,1-.372-.372v-2.023a.372.372,0,1,1,.745,0v2.023a.373.373,0,0,1-.373.372m0-4.047a.372.372,0,0,1-.372-.372V1559.1a.372.372,0,1,1,.745,0v2.023a.372.372,0,0,1-.373.372m0-4.047a.372.372,0,0,1-.372-.372v-2.023a.372.372,0,1,1,.745,0v2.023a.372.372,0,0,1-.373.372m0-4.047a.372.372,0,0,1-.372-.372v-2.023a.372.372,0,1,1,.745,0v2.023a.372.372,0,0,1-.373.372m0-4.047a.372.372,0,0,1-.372-.372v-2.023a.372.372,0,0,1,.745,0v2.023a.373.373,0,0,1-.373.372m0-4.047a.372.372,0,0,1-.372-.372v-2.023a.372.372,0,1,1,.745,0v2.023a.372.372,0,0,1-.373.372m0-4.047a.372.372,0,0,1-.372-.372v-2.023a.372.372,0,1,1,.745,0v2.023a.372.372,0,0,1-.373.372m0-4.047a.373.373,0,0,1-.372-.373v-2.023a.372.372,0,1,1,.745,0v2.023a.373.373,0,0,1-.373.373m0-4.047a.372.372,0,0,1-.372-.372v-2.023a.372.372,0,0,1,.745,0v2.023a.372.372,0,0,1-.373.372" transform="translate(-2033.521 -1387.21)"/>
        <path id="Trazado_1016214" data-name="Trazado 1016214" d="M2243.8,2094.411a.372.372,0,0,1-.372-.372v-1.024a.372.372,0,0,1,.745,0v1.024a.372.372,0,0,1-.373.372" transform="translate(-2033.521 -1896.842)"/>
        <path id="Trazado_1016215" data-name="Trazado 1016215" d="M2233.915,1495.051l1.263-1.264,1.263,1.264v-1.072l-1.263-1.263-1.263,1.263Z" transform="translate(-2024.896 -1353.049)"/>
        <path id="Trazado_1016216" data-name="Trazado 1016216" d="M2233.915,2091.711l1.263,1.264,1.263-1.264v1.072l-1.263,1.263-1.263-1.263Z" transform="translate(-2024.896 -1895.997)"/>
        <path id="Trazado_1016217" data-name="Trazado 1016217" d="M1790.445,1336.855h-1.024a.372.372,0,0,1,0-.745h1.024a.372.372,0,0,1,0,.745" transform="translate(-1621.653 -1211.095)"/>
        <path id="Trazado_1016218" data-name="Trazado 1016218" d="M1854.912,1336.855h-2.124a.372.372,0,0,1,0-.745h2.124a.372.372,0,0,1,0,.745m-4.247,0h-2.124a.372.372,0,1,1,0-.745h2.124a.372.372,0,0,1,0,.745m-4.247,0h-2.123a.372.372,0,0,1,0-.745h2.123a.372.372,0,0,1,0,.745m-4.247,0h-2.123a.372.372,0,0,1,0-.745h2.123a.372.372,0,0,1,0,.745m-4.247,0H1835.8a.372.372,0,0,1,0-.745h2.123a.372.372,0,1,1,0,.745m-4.247,0h-2.123a.372.372,0,0,1,0-.745h2.123a.372.372,0,0,1,0,.745m-4.247,0h-2.123a.372.372,0,0,1,0-.745h2.123a.372.372,0,0,1,0,.745m-4.247,0h-2.123a.372.372,0,0,1,0-.745h2.123a.372.372,0,0,1,0,.745" transform="translate(-1652.146 -1211.095)"/>
        <path id="Trazado_1016219" data-name="Trazado 1016219" d="M2187.19,1336.855h-1.024a.372.372,0,0,1,0-.745h1.024a.372.372,0,1,1,0,.745" transform="translate(-1981.277 -1211.095)"/>
        <path id="Trazado_1016220" data-name="Trazado 1016220" d="M1786.264,1329.121l-1.263-1.263,1.263-1.263h-1.072l-1.263,1.263,1.263,1.263Z" transform="translate(-1617.014 -1202.471)"/>
        <path id="Trazado_1016221" data-name="Trazado 1016221" d="M2184.865,1329.121l1.264-1.263-1.264-1.263h1.072l1.263,1.263-1.263,1.263Z" transform="translate(-1980.435 -1202.471)"/>
        <path id="Trazado_1016222" data-name="Trazado 1016222" d="M2322.287,1441.49h-1.412c-.283,0-.513-.155-.513-.347s.23-.347.513-.347h1.412c.284,0,.514.155.514.347s-.23.347-.514.347" transform="translate(-2103.254 -1305.986)"/>
        <path id="Trazado_1016223" data-name="Trazado 1016223" d="M2411.156,1441.49h-2.927c-.283,0-.513-.155-.513-.347s.23-.347.513-.347h2.927c.284,0,.514.155.514.347s-.23.347-.514.347m-5.854,0h-2.927c-.284,0-.514-.155-.514-.347s.23-.347.514-.347h2.927c.284,0,.514.155.514.347s-.23.347-.514.347m-5.854,0h-2.927c-.283,0-.513-.155-.513-.347s.23-.347.513-.347h2.927c.283,0,.513.155.513.347s-.23.347-.513.347m-5.854,0h-2.927c-.283,0-.513-.155-.513-.347s.23-.347.513-.347h2.927c.283,0,.513.155.513.347s-.23.347-.513.347m-5.854,0h-2.927c-.283,0-.513-.155-.513-.347s.23-.347.513-.347h2.927c.284,0,.513.155.513.347s-.23.347-.513.347m-5.854,0h-2.927c-.284,0-.513-.155-.513-.347s.23-.347.513-.347h2.927c.283,0,.513.155.513.347s-.23.347-.513.347m-5.854,0H2373.1c-.283,0-.513-.155-.513-.347s.23-.347.513-.347h2.927c.284,0,.513.155.513.347s-.23.347-.513.347m-5.854,0h-2.927c-.284,0-.513-.155-.513-.347s.23-.347.513-.347h2.927c.283,0,.513.155.513.347s-.23.347-.513.347" transform="translate(-2145.29 -1305.986)"/>
        <path id="Trazado_1016224" data-name="Trazado 1016224" d="M2869.2,1441.49h-1.412c-.283,0-.513-.155-.513-.347s.23-.347.513-.347h1.412c.284,0,.514.155.514.347s-.23.347-.514.347" transform="translate(-2598.999 -1305.986)"/>
        <path id="Trazado_1016225" data-name="Trazado 1016225" d="M2316.526,1434.286l-1.742-1.176,1.742-1.176h-1.478l-1.741,1.176,1.741,1.176Z" transform="translate(-2096.859 -1297.953)"/>
        <path id="Trazado_1016226" data-name="Trazado 1016226" d="M2866,1434.286l1.742-1.176-1.742-1.176h1.478l1.741,1.176-1.741,1.176Z" transform="translate(-2597.838 -1297.953)"/>
        <path id="Trazado_1016227" data-name="Trazado 1016227" d="M2371.394,720.084a.372.372,0,0,1-.373-.372v-1.024a.372.372,0,0,1,.745,0v1.024a.372.372,0,0,1-.372.372" transform="translate(-2149.174 -651.105)"/>
        <path id="Trazado_1016228" data-name="Trazado 1016228" d="M2371.394,760.408a.372.372,0,0,1-.373-.372V758.1a.372.372,0,1,1,.745,0v1.938a.372.372,0,0,1-.372.372m0-3.876a.372.372,0,0,1-.373-.372v-1.938a.372.372,0,1,1,.745,0v1.938a.372.372,0,0,1-.372.372m0-3.876a.372.372,0,0,1-.373-.372v-1.938a.372.372,0,0,1,.745,0v1.938a.372.372,0,0,1-.372.372" transform="translate(-2149.174 -679.801)"/>
        <path id="Trazado_1016229" data-name="Trazado 1016229" d="M2371.394,876.024a.373.373,0,0,1-.373-.372v-1.024a.372.372,0,0,1,.745,0v1.024a.372.372,0,0,1-.372.372" transform="translate(-2149.174 -792.454)"/>
        <path id="Trazado_1016230" data-name="Trazado 1016230" d="M2361.506,715.531l1.263-1.264,1.263,1.264v-1.072l-1.263-1.263-1.263,1.263Z" transform="translate(-2140.549 -646.465)"/>
        <path id="Trazado_1016231" data-name="Trazado 1016231" d="M2361.506,873.324l1.263,1.264,1.263-1.264V874.4l-1.263,1.263-1.263-1.263Z" transform="translate(-2140.549 -791.611)"/>
        <path id="Trazado_1016232" data-name="Trazado 1016232" d="M1864.079,624.384h-1.024a.372.372,0,0,1,0-.745h1.024a.372.372,0,1,1,0,.745" transform="translate(-1688.399 -565.288)"/>
        <path id="Trazado_1016233" data-name="Trazado 1016233" d="M1912.614,624.384h-1.961a.372.372,0,1,1,0-.745h1.961a.372.372,0,0,1,0,.745m-3.922,0h-1.961a.372.372,0,1,1,0-.745h1.961a.372.372,0,1,1,0,.745m-3.923,0h-1.961a.372.372,0,0,1,0-.745h1.961a.372.372,0,0,1,0,.745m-3.922,0h-1.961a.372.372,0,0,1,0-.745h1.961a.372.372,0,1,1,0,.745m-3.922,0h-1.961a.372.372,0,1,1,0-.745h1.961a.372.372,0,0,1,0,.745" transform="translate(-1717.32 -565.288)"/>
        <path id="Trazado_1016234" data-name="Trazado 1016234" d="M2105.6,624.384h-1.024a.372.372,0,0,1,0-.745h1.024a.372.372,0,0,1,0,.745" transform="translate(-1907.318 -565.288)"/>
        <path id="Trazado_1016235" data-name="Trazado 1016235" d="M1859.9,616.65l-1.264-1.263,1.264-1.263h-1.072l-1.263,1.263,1.263,1.263Z" transform="translate(-1683.76 -556.664)"/>
        <path id="Trazado_1016236" data-name="Trazado 1016236" d="M2103.269,616.65l1.263-1.263-1.263-1.263h1.072l1.263,1.263-1.263,1.263Z" transform="translate(-1906.474 -556.664)"/>
        <path id="Trazado_1016237" data-name="Trazado 1016237" d="M2634.264,2158.784h-1.024a.372.372,0,1,1,0-.745h1.024a.372.372,0,1,1,0,.745" transform="translate(-2386.52 -1956.12)"/>
        <path id="Trazado_1016238" data-name="Trazado 1016238" d="M2682.8,2158.784h-1.961a.372.372,0,0,1,0-.745h1.961a.372.372,0,0,1,0,.745m-3.923,0h-1.961a.372.372,0,0,1,0-.745h1.961a.372.372,0,1,1,0,.745m-3.923,0h-1.961a.372.372,0,0,1,0-.745h1.961a.372.372,0,1,1,0,.745m-3.922,0h-1.961a.372.372,0,1,1,0-.745h1.961a.372.372,0,0,1,0,.745m-3.922,0h-1.961a.372.372,0,0,1,0-.745h1.961a.372.372,0,0,1,0,.745" transform="translate(-2415.442 -1956.12)"/>
        <path id="Trazado_1016239" data-name="Trazado 1016239" d="M2875.781,2158.784h-1.024a.372.372,0,1,1,0-.745h1.024a.372.372,0,1,1,0,.745" transform="translate(-2605.44 -1956.12)"/>
        <path id="Trazado_1016240" data-name="Trazado 1016240" d="M2630.084,2151.05l-1.263-1.263,1.263-1.263h-1.072l-1.262,1.263,1.262,1.263Z" transform="translate(-2381.881 -1947.495)"/>
        <path id="Trazado_1016241" data-name="Trazado 1016241" d="M2873.454,2151.05l1.263-1.263-1.263-1.263h1.072l1.263,1.263-1.263,1.263Z" transform="translate(-2604.596 -1947.495)"/>
        <path id="Trazado_1016242" data-name="Trazado 1016242" d="M1680.4,1551.046V1578.6l-6.11,6.709h-17.725v-34.263Z" transform="translate(-1501.563 -1405.92)" fill="#bbc3dc"/>
        <path id="Trazado_1016243" data-name="Trazado 1016243" d="M1842.353,1842.212v.194l-6.109,6.709h-.22l-.788-7.031Z" transform="translate(-1663.52 -1669.727)" fill="#d68aa5"/>
        <rect id="Rectángulo_462276" data-name="Rectángulo 462276" width="9.124" height="3.166" transform="translate(162.447 143.636)" fill="#ffe086"/>
        <path id="Trazado_1016244" data-name="Trazado 1016244" d="M2617.752,697.275v27.553l-6.11,6.709h-17.725V697.275h23.835Z" transform="translate(-2351.214 -632.034)" fill="#bbc3dc"/>
        <path id="Trazado_1016245" data-name="Trazado 1016245" d="M2779.709,988.442v.194l-6.11,6.709h-.22l-.788-7.031Z" transform="translate(-2513.171 -895.841)" fill="#182e6e"/>
        <rect id="Rectángulo_462277" data-name="Rectángulo 462277" width="9.124" height="3.166" transform="translate(250.151 63.751)" fill="#ffe086"/>
        <path id="Trazado_1016246" data-name="Trazado 1016246" d="M1952.319,1603.892c-7.357-.658-12.357-5.1-15.255-8.706a30.547,30.547,0,0,1-4.562-7.729l.874-.323a30.2,30.2,0,0,0,4.432,7.491c2.783,3.458,7.573,7.711,14.594,8.339Z" transform="translate(-1751.686 -1438.632)"/>
        <path id="Trazado_1016247" data-name="Trazado 1016247" d="M2123.781,1746.124l1.687-1.463-1.464-1.686,1.337.094,1.463,1.686-1.686,1.463Z" transform="translate(-1925.067 -1579.891)"/>
        <path id="Trazado_1016248" data-name="Trazado 1016248" d="M2321.471,963.425l-.05-.93a30.834,30.834,0,0,0,16.233-5.476,23.677,23.677,0,0,0,5.253-4.9l.76.539a24.092,24.092,0,0,1-5.441,5.1,31.755,31.755,0,0,1-16.754,5.67" transform="translate(-2104.214 -863.031)"/>
        <path id="Trazado_1016249" data-name="Trazado 1016249" d="M2313.169,1050.217l-1.509,1.646,1.647,1.508-1.339.059-1.646-1.508,1.508-1.646Z" transform="translate(-2094.154 -951.952)"/>
        <rect id="Rectángulo_462278" data-name="Rectángulo 462278" width="308.106" height="11.713" transform="translate(10.535 295.8)" fill="#636363"/>
        <g id="Grupo_1195813" data-name="Grupo 1195813">
          <path id="Trazado_1016250" data-name="Trazado 1016250" d="M571.653,537.951a26.355,26.355,0,1,0,26.355,26.355,26.355,26.355,0,0,0-26.355-26.355m7.85,37.008a3.477,3.477,0,1,1,3.476-3.476,3.475,3.475,0,0,1-3.476,3.476m-3.7-17.832a3.476,3.476,0,1,1,3.476,3.478,3.475,3.475,0,0,1-3.476-3.478m-11.777,17.832a3.477,3.477,0,1,1,3.476-3.476,3.475,3.475,0,0,1-3.476,3.476m-3.7-17.832a3.476,3.476,0,1,1,3.476,3.478,3.475,3.475,0,0,1-3.476-3.478" transform="translate(-494.276 -487.617)" fill="#0c1737"/>
          <path id="Trazado_1016251" data-name="Trazado 1016251" d="M617.177,590.692a21.532,21.532,0,1,0,21.532,21.532,21.532,21.532,0,0,0-21.532-21.532m-7.738,10.766a3.477,3.477,0,1,1-3.476,3.476,3.475,3.475,0,0,1,3.476-3.476m.224,21.308a3.477,3.477,0,1,1,3.476-3.476,3.475,3.475,0,0,1-3.476,3.476m15.253-21.308a3.477,3.477,0,1,1-3.476,3.476,3.475,3.475,0,0,1,3.476-3.476m.224,21.308a3.477,3.477,0,1,1,3.476-3.476,3.475,3.475,0,0,1-3.476,3.476" transform="translate(-539.913 -535.424)" fill="#1e3a8a"/>
        </g>
        <g id="Grupo_1195814" data-name="Grupo 1195814" transform="translate(200.91 -43.283)">
          <path id="Trazado_1016250-2" data-name="Trazado 1016250" d="M571.653,537.951a26.355,26.355,0,1,0,26.355,26.355,26.355,26.355,0,0,0-26.355-26.355m7.85,37.008a3.477,3.477,0,1,1,3.476-3.476,3.475,3.475,0,0,1-3.476,3.476m-3.7-17.832a3.476,3.476,0,1,1,3.476,3.478,3.475,3.475,0,0,1-3.476-3.478m-11.777,17.832a3.477,3.477,0,1,1,3.476-3.476,3.475,3.475,0,0,1-3.476,3.476m-3.7-17.832a3.476,3.476,0,1,1,3.476,3.478,3.475,3.475,0,0,1-3.476-3.478" transform="translate(-494.276 -487.617)" fill="#0c1737"/>
          <path id="Trazado_1016251-2" data-name="Trazado 1016251" d="M617.177,590.692a21.532,21.532,0,1,0,21.532,21.532,21.532,21.532,0,0,0-21.532-21.532m-7.738,10.766a3.477,3.477,0,1,1-3.476,3.476,3.475,3.475,0,0,1,3.476-3.476m.224,21.308a3.477,3.477,0,1,1,3.476-3.476,3.475,3.475,0,0,1-3.476,3.476m15.253-21.308a3.477,3.477,0,1,1-3.476,3.476,3.475,3.475,0,0,1,3.476-3.476m.224,21.308a3.477,3.477,0,1,1,3.476-3.476,3.475,3.475,0,0,1-3.476,3.476" transform="translate(-539.913 -535.424)" fill="#1e3a8a"/>
        </g>
        <path id="Trazado_1016254" data-name="Trazado 1016254" d="M1208.544,707.383l36.708-47.494-16.9,30.919,3.7,4.061-12.592,17.993-8.345,1.133Z" transform="translate(-1095.466 -598.146)" fill="#c1c5cb"/>
        <path id="Trazado_1016255" data-name="Trazado 1016255" d="M1452.307,491.61l1.516,1.582-8.848,16.834-21.005,32.309-3.7-4.061,16.852-30.991Z" transform="translate(-1287.377 -445.612)" fill="#636363"/>
        <path id="Trazado_1016256" data-name="Trazado 1016256" d="M857.572,1186.492,859.3,1174.8l-2.53-6.539-4.892,6.881s2.979,6.763-1.662,7.475c0,0-18.312,3.63-28.036,29.638a27.261,27.261,0,0,0-1.767,8.954c-.112,5.235,1.282,12.118,8.887,14.032,0,0,8.081,2.295,11.866-5.206l15.416-32.929s2.717-6.618.99-10.612m-4.374,7.287c-6.716,10.828-14.3,26.345-16.757,31.454-.409.852-.768,1.725-1.112,2.606a5.286,5.286,0,0,1-4.05,3.621,6.028,6.028,0,0,1-6.261-2.835c-2.961-5-.052-14.551,2.437-20.8a42.011,42.011,0,0,1,8.9-13.8c4.147-4.257,7.789-6.189,10.521-7.034a5.165,5.165,0,0,1,6.366,6.7l-.006.017a.419.419,0,0,1-.038.079" transform="translate(-743.646 -1058.951)" fill="#12263f"/>
        <path id="Trazado_1016257" data-name="Trazado 1016257" d="M1092.329,1266.374a13.389,13.389,0,0,0-.782-1.263c-.958-1.387-4.051-6.286-4.017-11.647l.992-27.421-7.555,1.026.71,26.961s.408,5.445-1.873,8.424l-3.068,4.794q-2.55,3.984-4.9,8.09c-1.316,2.309-3.269,5.412-4.842,6.564-.1.071-.192.142-.281.221-1.034.911-6.552,6.3,2.41,10.453,0,0,.316.133.88.316a18.389,18.389,0,0,0,23.193-11.971c1.313-4.162,1.862-9.475-.865-14.548m-10.776,20.849a7.458,7.458,0,0,1-4.264-.031c-7.589-2.4-1.364-14.021-1.364-14.021,5.865-10.254,10.458-8.8,13.25-5.856a11.021,11.021,0,0,1,2.5,10.709c-1.8,6.1-7.287,8.4-10.122,9.2" transform="translate(-964.522 -1111.328)" fill="#12263f"/>
        <path id="Trazado_1016258" data-name="Trazado 1016258" d="M1338.6,1012.9a4.132,4.132,0,1,1-3.137-4.931,4.133,4.133,0,0,1,3.137,4.931" transform="translate(-1205.948 -913.565)" fill="#12263f"/>
        <rect id="Rectángulo_462279" data-name="Rectángulo 462279" width="1.712" height="147.954" transform="translate(29.285 147.217)"/>
        <rect id="Rectángulo_462280" data-name="Rectángulo 462280" width="1.712" height="147.954" transform="translate(191.795 147.358)"/>
        <path id="Trazado_1016259" data-name="Trazado 1016259" d="M1878.225,1763.742h-16.458v9.59h16.458a4.795,4.795,0,0,0,0-9.59" transform="translate(-1687.568 -1598.715)"/>
        <path id="Trazado_1016260" data-name="Trazado 1016260" d="M1821.5,1768.536a4.795,4.795,0,1,1-4.795-4.795,4.795,4.795,0,0,1,4.795,4.795" transform="translate(-1642.374 -1598.715)" fill="#1e1e1e"/>
        <path id="Trazado_1016261" data-name="Trazado 1016261" d="M1878.225,2356.72h-16.458v9.59h16.458a4.795,4.795,0,0,0,0-9.59" transform="translate(-1687.568 -2136.211)"/>
        <path id="Trazado_1016262" data-name="Trazado 1016262" d="M1821.5,2361.515a4.795,4.795,0,1,1-4.795-4.795,4.795,4.795,0,0,1,4.795,4.795" transform="translate(-1642.374 -2136.211)" fill="#1e1e1e"/>
        <path id="Trazado_1016263" data-name="Trazado 1016263" d="M538.1,1664.912H653.763a15.663,15.663,0,0,1,15.736,15.77q0,.3-.017.6v38.426s-30.24-12.38-114.94-16.439l-1.712-22.6c.057-6.7-7.575-14.367-14.152-15.652q-.283-.055-.575-.1" transform="translate(-487.754 -1509.133)" fill="#2ed19b"/>
        <path id="Trazado_1016264" data-name="Trazado 1016264" d="M410.16,1679.639a14.727,14.727,0,1,1-14.727-14.727,14.727,14.727,0,0,1,14.727,14.727" transform="translate(-345.085 -1509.133)" fill="#24a77c"/>
        <path id="Trazado_1016265" data-name="Trazado 1016265" d="M538.1,1846.988h15.765l-1.038-13.7s-.514,12.843-14.727,13.7" transform="translate(-487.754 -1661.755)" fill="#104936"/>
        <path id="Trazado_1016266" data-name="Trazado 1016266" d="M344.534,1763.742H328.076v9.59h16.458a4.795,4.795,0,0,0,0-9.59" transform="translate(-297.379 -1598.715)"/>
        <path id="Trazado_1016267" data-name="Trazado 1016267" d="M287.806,1768.536a4.795,4.795,0,1,1-4.795-4.795,4.795,4.795,0,0,1,4.795,4.795" transform="translate(-252.184 -1598.715)" fill="#1e1e1e"/>
        <path id="Trazado_1016268" data-name="Trazado 1016268" d="M538.1,2250.569H653.763a15.663,15.663,0,0,1,15.736,15.77q0,.3-.017.6v38.426s-30.24-12.38-114.94-16.439l-1.712-22.6c.057-6.7-7.575-14.367-14.152-15.653q-.283-.055-.575-.1" transform="translate(-487.754 -2039.992)" fill="#1e3a8a"/>
        <path id="Trazado_1016269" data-name="Trazado 1016269" d="M406.5,2265.3a14.727,14.727,0,1,1-14.727-14.727A14.727,14.727,0,0,1,406.5,2265.3" transform="translate(-341.767 -2039.993)" fill="#182e6e"/>
        <path id="Trazado_1016270" data-name="Trazado 1016270" d="M538.1,2402.6h15.765l-1.341-16.8s-.21,15.945-14.424,16.8" transform="translate(-487.754 -2162.568)" fill="#182e6e"/>
        <path id="Trazado_1016271" data-name="Trazado 1016271" d="M344.534,2349.4H328.076v9.59h16.458a4.795,4.795,0,0,0,0-9.59" transform="translate(-297.379 -2129.575)"/>
        <path id="Trazado_1016272" data-name="Trazado 1016272" d="M287.806,2354.194a4.795,4.795,0,1,1-4.795-4.795,4.795,4.795,0,0,1,4.795,4.795" transform="translate(-252.184 -2129.575)" fill="#1e1e1e"/>
        <rect id="Rectángulo_462281" data-name="Rectángulo 462281" width="20.892" height="1.712" transform="translate(19.524 294.486)"/>
        <rect id="Rectángulo_462282" data-name="Rectángulo 462282" width="20.892" height="1.712" transform="translate(182.205 294.285)"/>
        <rect id="Rectángulo_462283" data-name="Rectángulo 462283" width="20.892" height="1.712" transform="translate(182.205 146.331)"/>
        <rect id="Rectángulo_462284" data-name="Rectángulo 462284" width="20.892" height="1.712" transform="translate(19.524 146.532)"/>
        <path id="Trazado_1016273" data-name="Trazado 1016273" d="M2406.046,1459.093s-11.166,1.826-12.846,6.143c0,0,9.421-4.39,14.591-3.579,0,0-.008-.86-1.745-2.564" transform="translate(-2169.278 -1322.571)" fill="#915168"/>
        <path id="Trazado_1016274" data-name="Trazado 1016274" d="M2391.983,1273.812l.024,2.58a67.668,67.668,0,0,0-10.29,3.538,30.512,30.512,0,0,0,.8-6.029s-4.293.9-4.333-3.4c0,0-.089-9.462,2.846-12.94Z" transform="translate(-2155.67 -1139.896)" fill="#febca5"/>
        <path id="Trazado_1016275" data-name="Trazado 1016275" d="M2427.636,1431.5a17.355,17.355,0,0,1-6.888.6l-.38,3.411s4.712-1.41,7.268-4.015" transform="translate(-2193.903 -1297.565)" fill="#ce9a8d"/>
        <path id="Trazado_1016276" data-name="Trazado 1016276" d="M2596.835,1531.108s8.533,7.026,11.005,14.13a9.484,9.484,0,0,1-.211,6.637,13.156,13.156,0,0,1-3.786,5.519s-3.4-21.7-7.008-26.286" transform="translate(-2353.859 -1387.848)" fill="#141a22"/>
        <path id="Trazado_1016277" data-name="Trazado 1016277" d="M2604.444,2723.82s8.618,1.639,10.306-1.818c0,0-1.08-23.217-2.93-36.963,0,0-6.759,12.967-11,19.889,0,0,3.563,12.87,3.62,18.891" transform="translate(-2357.475 -2433.81)" fill="#c1c5cb"/>
        <path id="Trazado_1016278" data-name="Trazado 1016278" d="M2559.895,2133.885s-.421,46.457,4.789,51.569l-11,19.889a55.269,55.269,0,0,1-2.96-9.308l-1.742-57.889s8.378.924,10.909-4.262" transform="translate(-2310.486 -1934.226)" fill="#636363"/>
        <path id="Trazado_1016279" data-name="Trazado 1016279" d="M2381.765,2143.255s-2.087,11.349-4.553,23.416c0,0-3.311,13.8-.657,21.512,0,0-.19,25.379-4.337,41.763,0,0-6,2.637-9.47-.771,0,0-1.072-22.356-2.962-40.4,0,0-4.5-26.693-3.436-47.745,0,0,6.913,5.99,25.416,2.228" transform="translate(-2135.727 -1940.7)" fill="#636363"/>
        <path id="Trazado_1016280" data-name="Trazado 1016280" d="M2238.549,1524.913s-11.73-12.363-8.773-17.982c0,0,7.153-16.843,15.714-21.224a36.86,36.86,0,0,1,14.59-3.579s7.79,5.088,10.615,30.869c0,0,1.623,18.131,1.944,27.084a4.456,4.456,0,0,1-1.872,3.8c-2.459,1.737-7.365,4.153-15.229,3.666,0,0-16.351-.706-16.416-7.587l-.09-9.462Z" transform="translate(-2020.711 -1343.45)" fill="#283444"/>
        <path id="Trazado_1016281" data-name="Trazado 1016281" d="M2338.351,1736.21s-6.569-12.411.288-15.057c0,0,7.7-4.374,6.062,4.244,0,0-1.534,19.776-11.811,24.617l-.085-9.02s6-1.777,5.547-4.784" transform="translate(-2114.532 -1559.105)" fill="#141a22"/>
        <path id="Trazado_1016282" data-name="Trazado 1016282" d="M2324.338,1892.829s1.343,5.579-2.065,9.052c0,0-.86.008-.016-1.72,0,0-1.737-1.7-3.417,2.613,0,0-3.015-.4-.483-5.587,0,0,4.719-1.335,5.98-4.358" transform="translate(-2100.52 -1715.724)" fill="#febca5"/>
        <path id="Trazado_1016283" data-name="Trazado 1016283" d="M2336.5,3091.867s-.09,5.51-1.8,6.386l-16.343.154s-.024-2.58,5.137-2.629a35.815,35.815,0,0,1,6.089-4.441s3.633,1.935,6.919.53" transform="translate(-2101.436 -2802.092)"/>
        <path id="Trazado_1016284" data-name="Trazado 1016284" d="M2557.4,3094.033s.512,6.444-2.069,6.469l-16.343.154s.836-2.589,5.137-2.629a26.3,26.3,0,0,1,4.652-3.416s5.6.743,8.624-.578" transform="translate(-2301.428 -2804.536)"/>
        <path id="Trazado_1016285" data-name="Trazado 1016285" d="M2343.749,1237.725s1.506-1.011.779-4.921a16.063,16.063,0,0,1-.278-3.414c.083-2.818.7-7.53,3.588-10.9a5.36,5.36,0,0,1,4.135-1.858c4.575.055,14.633,1.27,12.631,11.064,0,0,1.362-1.273,2.323.092a1.537,1.537,0,0,1,.409.839,1.2,1.2,0,0,0,.536.887c1.345.856,4.253,3.151,1.541,5.651a2.965,2.965,0,0,0-.661.914.713.713,0,0,1-.656.433,1.155,1.155,0,0,0-1.016.715c-.608,1.43-2.116,4.066-4.848,3.614a4.174,4.174,0,0,1-3.006-2.167,4.663,4.663,0,0,1,.1-4.391s-7.4,3.407-8.6-2.955c0,0-.378,4.509-3.96,6.227a11.334,11.334,0,0,0,2.243-5.893,7.777,7.777,0,0,0-.324-2.636,14.769,14.769,0,0,1-.2-6.51s-1.59,14.22-4.733,15.207" transform="translate(-2124.453 -1102.798)" fill="#a37b5a"/>
      </g>
    </g>
  </g>
</svg>
