<svg xmlns="http://www.w3.org/2000/svg" xmlns:xlink="http://www.w3.org/1999/xlink" width="396" height="324" viewBox="0 0 396 324">
  <defs>
    <clipPath id="clip-path">
      <rect id="Rectángulo_462118" data-name="Rectángulo 462118" width="396" height="324" transform="translate(-84 0)" fill="none"/>
    </clipPath>
  </defs>
  <g id="Grupo_1196056" data-name="Grupo 1196056" transform="translate(-1018 -6959.415)">
    <g id="Grupo_1195562" data-name="Grupo 1195562" transform="translate(1102 6959.414)">
      <g id="Grupo_1195561" data-name="Grupo 1195561" transform="translate(0 0.001)" clip-path="url(#clip-path)">
        <path id="Trazado_1016033" data-name="Trazado 1016033" d="M181.03,1490.583c-31.278,8.353-68.514,33.261-63.55,47.042s270.255,5.036,303.434,3.287,77.955-45.4,80.391-53.017-289-5.664-320.276,2.689" transform="translate(-194.321 -1221.255)" fill="#dee4f0"/>
        <rect id="Rectángulo_462112" data-name="Rectángulo 462112" width="82.809" height="8.295" transform="translate(0 29.724)" fill="#2e2e47"/>
        <path id="Trazado_1016034" data-name="Trazado 1016034" d="M1135.3,390.727s-5.633-1.134-7.516-6.6,6.293-39.713,25.225-44.725.636,38.863-4.11,46.286-11.339,5.5-11.339,5.5,1.492,11.808,2.356,20.952c4.594,48.6,8.679,101.911,8.679,101.911H1146.9s-10.707-110.721-11.6-123.327" transform="translate(-928.434 -279.15)" fill="#515032"/>
        <path id="Trazado_1016035" data-name="Trazado 1016035" d="M1177.332,547l-.023,0a.182.182,0,0,1-.158-.2,143.653,143.653,0,0,1,3.454-17.209.183.183,0,1,1,.352.1,143.217,143.217,0,0,0-3.444,17.158.182.182,0,0,1-.181.159" transform="translate(-969.304 -435.965)" fill="#fff"/>
        <path id="Trazado_1016036" data-name="Trazado 1016036" d="M1209.968,369.743a.183.183,0,0,1-.18-.217,32.6,32.6,0,0,1,5.139-11.3c4.013-5.679,10.209-14.254,10.272-14.34a.183.183,0,1,1,.3.214c-.062.086-6.257,8.66-10.269,14.337a32.175,32.175,0,0,0-5.078,11.154.183.183,0,0,1-.179.148" transform="translate(-996.177 -283.108)" fill="#fff"/>
        <path id="Trazado_1016037" data-name="Trazado 1016037" d="M1111.494,1309.857h44.271s4.825,23.93-8.141,37.214h-25.585s-14.308-8.916-10.546-37.214" transform="translate(-914.721 -1078.58)" fill="#9c6f43"/>
        <path id="Trazado_1016038" data-name="Trazado 1016038" d="M960.883,671.693s-4.593-46.444-8.161-62.855c-5.589-25.705-9.969-38.209-9.969-38.209s4.191-12.6-10.013-25.742-30.271-12.78-27.943-2.367,13.971,23.918,23.285,27.411,12.574,2.329,12.574,2.329a299.651,299.651,0,0,1,10.2,39.473c1.136,5.84,7.7,52.666,7.928,59.962Z" transform="translate(-744.853 -440.415)" fill="#7a7642"/>
        <path id="Trazado_1016039" data-name="Trazado 1016039" d="M1243.848,483.84s2.24-56.6,1.076-74.294,6.52-44.185,11.41-53.877,23.052-38.1,35.161-43.223,14.437-7.684,16.533-3.958-3.958,30.613-5.821,33.353-15.6-6.109-17.231-4.246,14.9,6.054,13.738,10.246-11.876,21.865-17.231,23.39-22.354-6.583-24.45-4.392-8.616,18.957-8.616,27.805-1.863,89.2-1.863,89.2Z" transform="translate(-1024.226 -252.562)" fill="#515032"/>
        <path id="Trazado_1016040" data-name="Trazado 1016040" d="M1401.708,523.693a.182.182,0,0,1-.121-.046c-.14-.124-14.145-12.374-24.511-12.374a.182.182,0,1,1,0-.365c10.5,0,24.611,12.34,24.753,12.465a.182.182,0,0,1-.121.319" transform="translate(-1133.779 -420.699)" fill="#fff"/>
        <path id="Trazado_1016041" data-name="Trazado 1016041" d="M1477.94,418.766a.181.181,0,0,1-.065-.012c-.136-.052-13.641-5.192-21.509-5.192h-.16a.182.182,0,0,1,0-.365h.16c7.936,0,21.5,5.163,21.641,5.216a.183.183,0,0,1-.065.353" transform="translate(-1198.937 -340.24)" fill="#fff"/>
        <path id="Trazado_1016042" data-name="Trazado 1016042" d="M1472.6,376.361a.183.183,0,0,1-.071-.351c6.9-2.881,17.59-1.172,17.7-1.154a.183.183,0,1,1-.059.36c-.106-.017-10.694-1.71-17.5,1.131a.185.185,0,0,1-.071.014" transform="translate(-1212.44 -308.242)" fill="#fff"/>
        <path id="Trazado_1016043" data-name="Trazado 1016043" d="M943.571,561.555a.18.18,0,0,1-.1-.03,54.106,54.106,0,0,1-10.712-9.987.183.183,0,1,1,.3-.2,54.366,54.366,0,0,0,10.608,9.884.183.183,0,0,1-.1.335" transform="translate(-768.039 -453.921)" fill="#fff"/>
        <path id="Trazado_1016044" data-name="Trazado 1016044" d="M1045.7,650.036a.182.182,0,0,1-.165-.1,60.325,60.325,0,0,0-3.917-6.91c-2.139-3.161-10.869-12.819-10.957-12.917a.183.183,0,0,1,.271-.245c.088.1,8.836,9.775,10.989,12.957a60.786,60.786,0,0,1,3.944,6.958.182.182,0,0,1-.165.261" transform="translate(-848.644 -518.598)" fill="#fff"/>
        <path id="Trazado_1016045" data-name="Trazado 1016045" d="M1278.882,835.375s-.232-50.3,7.423-65.74c0,0-4.283-3.83-3.141-9.495s25.535-31.058,44.4-25.794-19.13,33.835-26.982,37.832-12.563-1-12.563-1a38.171,38.171,0,0,0-4.14,14.7c-.857,9.145-3.141,41.409-3.283,44.55a44.254,44.254,0,0,0,0,4.949Z" transform="translate(-1053.073 -604.098)" fill="#515032"/>
        <path id="Trazado_1016046" data-name="Trazado 1016046" d="M1327.862,875.7a.182.182,0,0,1-.144-.294,143.6,143.6,0,0,1,11.692-13.091.183.183,0,0,1,.254.262,143.251,143.251,0,0,0-11.658,13.052.182.182,0,0,1-.144.071" transform="translate(-1093.255 -710.014)" fill="#fff"/>
        <path id="Trazado_1016047" data-name="Trazado 1016047" d="M1425.97,767.547a.183.183,0,0,1-.137-.3,32.607,32.607,0,0,1,10.151-7.138c6.336-2.865,16.022-7.122,16.119-7.165a.183.183,0,1,1,.147.334c-.1.043-9.781,4.3-16.115,7.163a32.217,32.217,0,0,0-10.027,7.046.182.182,0,0,1-.137.062" transform="translate(-1174.04 -619.983)" fill="#fff"/>
        <path id="Trazado_1016048" data-name="Trazado 1016048" d="M870.671,899.1s.765-34.555-9.24-55.946-45.055-34.312-56.186-31.827,4.256,12.377,6.071,13.105,8.851-6.3,9.339-4.851-4.761,3.395-2.538,6.792,9.253,7.83,12.184,5.857,7.108-7.07,10.274-6.1,14.513,7.281,19.7,22.328,6.9,50.641,6.9,50.641Z" transform="translate(-659.764 -667.824)" fill="#7a7642"/>
        <path id="Trazado_1016049" data-name="Trazado 1016049" d="M922.816,862.845a.183.183,0,0,1-.17-.249c1.124-2.862,8.329-8.111,8.635-8.333a.183.183,0,1,1,.214.3c-.074.054-7.425,5.408-8.51,8.171a.182.182,0,0,1-.17.116" transform="translate(-759.727 -703.4)" fill="#fff"/>
        <path id="Trazado_1016050" data-name="Trazado 1016050" d="M690.715,139.738s7.994,6.356,11.945,7.584,13.28,8.84,12.244,12.273-15.936-.972-21.831-5.15-11.92-13.053-11.887-13.312,3.674-4.312,9.53-1.395" transform="translate(-560.91 -114.2)" fill="#2e2e47"/>
        <path id="Trazado_1016051" data-name="Trazado 1016051" d="M568.8,139.3s1.761,16.843,6.316,17.491,13.236-2.527,11.033-8.745-16.236-14.77-17.349-8.746" transform="translate(-468.37 -113.012)" fill="#2e2e47"/>
        <path id="Trazado_1016052" data-name="Trazado 1016052" d="M539.974,234.035s-2.029,4.238-4.512,15.41c-3.916,17.62-5.251,29.8-5.251,29.8s12.131,2.542,18.778,9.13a77.217,77.217,0,0,0,2.851-17.811c.4-13.437-6.289-26.415-11.866-36.528" transform="translate(-436.593 -192.712)" fill="#82a7af"/>
        <path id="Trazado_1016053" data-name="Trazado 1016053" d="M705.092,1498.665s0,.006,0,.008v-.008" transform="translate(-580.595 -1234.05)" fill="#cc8b70"/>
        <path id="Trazado_1016054" data-name="Trazado 1016054" d="M701.442,1423.437c-1.908-.409-1.227-2.385-3.68-3.2-2.369-.79-2.641,1.089-2.657,1.219.061-.331-1.048-10.321-2.142-16.165,4.853.294,9.818-.525,14.059-.372-.388,8.482-1.014,15.591-1.014,15.591s.09.421.207,1.1c-1.177.792-3.414,2.124-4.773,1.833" transform="translate(-570.608 -1156.838)" fill="#946255"/>
        <path id="Trazado_1016055" data-name="Trazado 1016055" d="M611.451,1500.53c-.37-1.161,4.925-2.253,9.565-3.889,4.914-1.732,6.813-3.994,6.953-4.554,0,0,0-.005,0-.008.016-.13.288-2.009,2.657-1.219,2.454.818,1.772,2.794,3.68,3.2,1.359.291,3.6-1.041,4.773-1.833.381,2.208,1.045,7.143-.207,9.125l-4.771.682s-.409-2.044-2.044-1.5-1.091,2.181-2.862,2.044-16.547,1.715-17.745-2.052" transform="translate(-503.474 -1227.465)" fill="#2e2e47"/>
        <path id="Trazado_1016056" data-name="Trazado 1016056" d="M1072.177,1498.665a.076.076,0,0,1,0,.008v-.008" transform="translate(-882.865 -1234.05)" fill="#cc8b70"/>
        <path id="Trazado_1016057" data-name="Trazado 1016057" d="M1062.014,1411.852c-1.908-.409-1.227-2.385-3.68-3.2-2.369-.79-2.641,1.089-2.657,1.219.062-.331-2.444-11.488-3.539-17.333,4.853.295,10.3-1.853,14.538-1.7-.388,8.482-.1,18.086-.1,18.086s.09.421.207,1.1c-1.177.792-3.414,2.124-4.773,1.833" transform="translate(-866.365 -1145.254)" fill="#946255"/>
        <path id="Trazado_1016058" data-name="Trazado 1016058" d="M978.535,1500.53c-.37-1.161,4.925-2.253,9.565-3.889,4.914-1.732,6.813-3.994,6.953-4.554,0,0,0-.005,0-.008.016-.13.288-2.009,2.657-1.219,2.453.818,1.772,2.794,3.68,3.2,1.359.291,3.6-1.041,4.773-1.833.381,2.208,1.045,7.143-.207,9.125l-4.771.682s-.409-2.044-2.044-1.5-1.09,2.181-2.862,2.044-16.547,1.715-17.745-2.052" transform="translate(-805.743 -1227.465)" fill="#2e2e47"/>
        <path id="Trazado_1016059" data-name="Trazado 1016059" d="M700.264,516.565C707.4,521.1,729.8,680.088,729.8,680.088L691.19,682.95,679.6,571.91,666.092,683.493,633.046,685.3l9.74-151.259s51.784-21.09,57.478-17.475" transform="translate(-521.271 -425.014)" fill="#82a7af"/>
        <path id="Trazado_1016060" data-name="Trazado 1016060" d="M603.382,185.079s12.306.759,22.28,8.981C654.019,217.435,662.1,254.2,662.1,254.2l-60.554,18.971c-3.477-8.685-8.507-32.881-8.507-32.881a86.559,86.559,0,0,1-10.475-26.042c-1.1-5.024-.087-15.489.009-19.693.081-3.573,4.889-7.985,20.812-9.478" transform="translate(-479.28 -152.4)" fill="#82a7af"/>
        <path id="Trazado_1016061" data-name="Trazado 1016061" d="M618.773,146.782c.907-2.656-.643-6.259-.648-6.284-.944-4.975,4.586-6.122,4.586-6.122a24.523,24.523,0,0,0,4.017,5.86,17.053,17.053,0,0,0,4.973,3.223l-7.559,6.515Z" transform="translate(-508.895 -110.65)" fill="#946255"/>
        <path id="Trazado_1016062" data-name="Trazado 1016062" d="M622.777,149.485s-2.466,1.54-4.608,2.85c.018.2.042.4.082.6a13.651,13.651,0,0,1,.881,3.459c2.816-1.233,3.645-6.913,3.645-6.913" transform="translate(-509.021 -123.091)" fill="#2e2e47"/>
        <path id="Trazado_1016063" data-name="Trazado 1016063" d="M560.177,60.294a2.71,2.71,0,0,0,1.571-1.511,3.312,3.312,0,0,0-1.434-3.41,3.194,3.194,0,0,0-2.042.082c-.219.034-1.221-3.873-3.327-5.553a7.628,7.628,0,0,0-8.641-.971,9.214,9.214,0,0,0-4.877,6.542c-.5,2.02.759,5.163,1.285,6.691a8.643,8.643,0,0,1,.447,3.034,8.483,8.483,0,0,0,1.968,5.341c1.47,1.831,4.555,2.925,7.982,1.367s8.243-5.632,7.069-11.612" transform="translate(-445.732 -39.528)" fill="#946255"/>
        <path id="Trazado_1016064" data-name="Trazado 1016064" d="M551.836,111.175a1.848,1.848,0,0,1-1.177-.362,1.2,1.2,0,0,1-.263-1.456,4,4,0,0,0,0-2.774l-.008-.027a2.414,2.414,0,0,0-.932-1.466,1.194,1.194,0,0,0-1.058.032,7.338,7.338,0,0,0-2.325,1.192.183.183,0,0,1-.321-.174c.282-.519,2.14-1.221,2.509-1.356a1.531,1.531,0,0,1,1.363-.017,2.708,2.708,0,0,1,1.118,1.7,4.365,4.365,0,0,1,0,3.012.881.881,0,0,0,.153,1.053,1.91,1.91,0,0,0,1.8.092c.1-.055.153-.116.146-.157a.183.183,0,0,1,.36-.06c.02.119,0,.346-.325.534a2.221,2.221,0,0,1-1.04.233" transform="translate(-449.368 -86.144)" fill="#2e2e47"/>
        <path id="Trazado_1016065" data-name="Trazado 1016065" d="M579.431,92.724a.183.183,0,0,1-.075-.349,7.619,7.619,0,0,1,3.21-.638.183.183,0,0,1-.02.365,7.382,7.382,0,0,0-3.041.607.182.182,0,0,1-.074.016" transform="translate(-476.972 -75.536)" fill="#2e2e47"/>
        <path id="Trazado_1016066" data-name="Trazado 1016066" d="M579.4,148.381a1.463,1.463,0,0,0,1.636.9c1.158-.272,1.478-2.168,1.478-2.168Z" transform="translate(-477.096 -121.136)" fill="#fff"/>
        <path id="Trazado_1016067" data-name="Trazado 1016067" d="M587.318,112.947a1.815,1.815,0,0,1-.674-.127.183.183,0,1,1,.134-.34c1.2.475,2.529-.894,2.543-.908a.183.183,0,0,1,.264.252,3.679,3.679,0,0,1-2.267,1.123" transform="translate(-482.967 -91.826)" fill="#2e2e47"/>
        <path id="Trazado_1016068" data-name="Trazado 1016068" d="M670.767,307.435a.183.183,0,0,1-.18-.152c-1.062-6.319-4.921-27.792-6.109-32.175-1.841-6.788-5.192-16.292-7.41-22.581-.359-1.017-.684-1.939-.962-2.735-1.943-5.559-4.4-18.2-4.428-18.328a.182.182,0,1,1,.358-.069c.025.127,2.48,12.743,4.414,18.277.278.8.6,1.718.962,2.735,2.22,6.294,5.574,15.806,7.418,22.607,1.191,4.394,5.054,25.887,6.117,32.21a.183.183,0,0,1-.15.21l-.031,0" transform="translate(-536.611 -190.415)" fill="#2e2e47"/>
        <path id="Trazado_1016069" data-name="Trazado 1016069" d="M554.443,124.845a.183.183,0,0,1-.006-.365,4.334,4.334,0,0,0,2.278-.931.183.183,0,0,1,.225.287,4.617,4.617,0,0,1-2.492,1.009h-.006" transform="translate(-456.396 -101.702)" fill="#2e2e47"/>
        <path id="Trazado_1016070" data-name="Trazado 1016070" d="M596.025,119.551s2.143-1.606,3.129-1.1-1.4,2.281-2.807,2.625-.876-1.147-.322-1.52" transform="translate(-490.313 -97.453)" fill="#774237"/>
        <path id="Trazado_1016071" data-name="Trazado 1016071" d="M549.051,139.457s2.143-1.606,3.129-1.1-1.4,2.281-2.807,2.625-.876-1.147-.322-1.52" transform="translate(-451.633 -113.844)" fill="#774237"/>
        <path id="Trazado_1016072" data-name="Trazado 1016072" d="M592.433,115.082s.274.823-.4,1.094a.771.771,0,0,1-.98-.458Z" transform="translate(-486.693 -94.762)" fill="#2e2e47"/>
        <path id="Trazado_1016073" data-name="Trazado 1016073" d="M559.747,126.477s.124.705-.407.921-.93-.378-.93-.378Z" transform="translate(-459.813 -104.146)" fill="#2e2e47"/>
        <path id="Trazado_1016074" data-name="Trazado 1016074" d="M721,539.835c.163.567.073,1.09-.2,1.168s-.625-.318-.788-.885-.073-1.09.2-1.168.625.318.788.885" transform="translate(-592.817 -443.781)" fill="#2e2e47"/>
        <path id="Trazado_1016075" data-name="Trazado 1016075" d="M698.551,456.125c.163.567.073,1.09-.2,1.168s-.626-.318-.788-.885-.073-1.09.2-1.169.626.318.788.885" transform="translate(-574.33 -374.851)" fill="#2e2e47"/>
        <path id="Trazado_1016076" data-name="Trazado 1016076" d="M675.544,375.867c.163.567.073,1.09-.2,1.168s-.626-.318-.788-.885-.073-1.09.2-1.169.626.318.788.885" transform="translate(-555.385 -308.764)" fill="#2e2e47"/>
        <path id="Trazado_1016077" data-name="Trazado 1016077" d="M646.461,279.142c.1.581-.04,1.092-.319,1.142s-.59-.381-.693-.962.04-1.092.319-1.142.59.381.693.962" transform="translate(-531.456 -229.059)" fill="#2e2e47"/>
        <rect id="Rectángulo_462113" data-name="Rectángulo 462113" width="5.198" height="143.888" transform="translate(60.076 132.887)" fill="#cecac8"/>
        <path id="Trazado_1016078" data-name="Trazado 1016078" d="M373.3,894.552l-3.615,1.954V752.618H373.3Z" transform="translate(-304.409 -619.73)" fill="#fff"/>
        <rect id="Rectángulo_462114" data-name="Rectángulo 462114" width="5.198" height="146.995" transform="translate(24.765 169.375)" fill="#cecac8"/>
        <path id="Trazado_1016079" data-name="Trazado 1016079" d="M173.315,1104.2l-3.615,2.061V959.269h3.615Z" transform="translate(-139.737 -789.894)" fill="#fff"/>
        <rect id="Rectángulo_462115" data-name="Rectángulo 462115" width="5.198" height="143.888" transform="translate(219.837 132.887)" fill="#cecac8"/>
        <path id="Trazado_1016080" data-name="Trazado 1016080" d="M1278.118,894.552l-3.615,1.954V752.618h3.615Z" transform="translate(-1049.468 -619.73)" fill="#fff"/>
        <rect id="Rectángulo_462116" data-name="Rectángulo 462116" width="5.198" height="146.995" transform="translate(184.527 169.375)" fill="#cecac8"/>
        <path id="Trazado_1016081" data-name="Trazado 1016081" d="M1078.136,1104.2l-3.615,2.061V959.269h3.615Z" transform="translate(-884.796 -789.894)" fill="#fff"/>
        <path id="Trazado_1016082" data-name="Trazado 1016082" d="M263.691,771.609H88.584c-.829,0-1.123-4.017-.4-5.531,0,0,48.336-41,48.711-41H312c.829,0,1.123,4.017.4,5.531,0,0-48.336,41-48.711,41" transform="translate(-72.275 -597.05)" fill="#2e2e47"/>
        <path id="Trazado_1016083" data-name="Trazado 1016083" d="M405.321,725.073l-44.486,46.535V822.7l-110.464,1.387V771.608l48.646-46.535h32.931l-5.2,11.69,11.353-11.69Z" transform="translate(-206.164 -597.05)" fill="#c0f1e1"/>
        <path id="Trazado_1016084" data-name="Trazado 1016084" d="M413.61,766.9H390.385a.183.183,0,0,1-.131-.31l26.692-27.5a.182.182,0,0,1,.131-.055h27.616a.183.183,0,0,1,.142.3l-13.057,16.292a.184.184,0,0,1-.167.067,20.63,20.63,0,0,0-9.841,1.836c-5.521,2.366-7.964,9.183-7.988,9.252a.182.182,0,0,1-.172.122m-22.794-.365h22.667c.362-.946,2.889-7.093,8.143-9.345a23.692,23.692,0,0,1,7.147-1.848,15.124,15.124,0,0,1,2.782-.025L444.312,739.4H417.154Z" transform="translate(-321.305 -608.549)" fill="#2e2e47"/>
        <path id="Trazado_1016085" data-name="Trazado 1016085" d="M672.766,761.582a37.034,37.034,0,0,1-6.7-.576.183.183,0,0,1-.107-.29l16.677-21.608a.183.183,0,0,1,.145-.071c6.094,0,10.1,1.919,11.279,5.4,1.3,3.839-1.173,9.1-6.012,12.8-4.614,3.528-10.687,4.336-15.28,4.336m-6.337-.88c1.989.35,13.747,2.1,21.4-3.747,4.717-3.607,7.138-8.7,5.888-12.4-1.12-3.308-4.969-5.137-10.843-5.156Z" transform="translate(-548.34 -608.548)" fill="#2e2e47"/>
        <path id="Trazado_1016086" data-name="Trazado 1016086" d="M786.266,777.475H772.4a.182.182,0,0,1-.125-.315c.129-.122,12.958-12.355,19.21-27.206.117-.277.786-.414,3.2-.776a27.551,27.551,0,0,0,2.73-.491c-.466-.113-1.465-.243-2.237-.344-2.039-.266-2.609-.368-2.736-.577a.221.221,0,0,1-.02-.19,41.617,41.617,0,0,0,2.158-8.382.183.183,0,0,1,.181-.157h26.172a.183.183,0,0,1,.138.3l-14.733,16.928a.182.182,0,0,1-.156.062c-.06-.006-6.006-.572-8.172,1.594a2.888,2.888,0,0,0-.547,3.328,6.661,6.661,0,0,0,1.074,1.8.182.182,0,0,1,0,.24L786.4,777.412a.183.183,0,0,1-.139.063m-13.416-.365h13.332l11.978-13.946c-.491-.617-2.5-3.412-.41-5.5,2.159-2.159,7.561-1.778,8.372-1.708L820.53,739.4H794.917a42.05,42.05,0,0,1-2.112,8.185,20.428,20.428,0,0,0,2.418.395c2.031.265,2.6.367,2.723.576a.219.219,0,0,1,.016.192c-.111.284-.787.424-3.226.79a15.851,15.851,0,0,0-2.924.577C786.087,763.7,774.9,775.1,772.85,777.111m24.8-28.34h0Z" transform="translate(-635.87 -608.548)" fill="#2e2e47"/>
        <path id="Trazado_1016087" data-name="Trazado 1016087" d="M849.305,388.039c-4.278,7.5-23.069,45.616-23.069,45.616a28.714,28.714,0,0,0,18.083-7.536c5.937-5.481,10.146-17.127,12.535-23.243a129.557,129.557,0,0,0-7.549-14.837" transform="translate(-680.35 -319.524)" fill="#2e2e47"/>
        <path id="Trazado_1016088" data-name="Trazado 1016088" d="M670.156,669.561c.952,4.641-.926,8.948-4.2,9.618s-6.691-2.548-7.643-7.19.926-8.947,4.2-9.618,6.691,2.548,7.643,7.189" transform="translate(-541.876 -545.346)" fill="#eae6e4"/>
        <path id="Trazado_1016089" data-name="Trazado 1016089" d="M687.491,700.539c.229,1.119-.223,2.157-1.012,2.319s-1.613-.614-1.842-1.733.223-2.157,1.011-2.319,1.613.614,1.843,1.733" transform="translate(-563.704 -575.402)" fill="#2e2e47"/>
        <path id="Trazado_1016090" data-name="Trazado 1016090" d="M692.383,632.56l.377-3.24a4.721,4.721,0,0,1,1.05-2.462l8.9-8.957c1.585-1.917,3.835-1.931,4.335.506l.166.81a5.5,5.5,0,0,1-1.567,5.061l-8.442,8.155a4.719,4.719,0,0,1-4.618,1.131Z" transform="translate(-570.131 -507.659)" fill="#fa634b"/>
        <path id="Trazado_1016091" data-name="Trazado 1016091" d="M561.8,894.318H526.012a.182.182,0,0,1-.176-.23,21.725,21.725,0,0,1,3.2-6.332,15.911,15.911,0,0,1,12.216-6.8,17.64,17.64,0,0,1,9.579,2.454.239.239,0,0,1,.115.154c.076.308-.424,1.123-1.67,3.051a22.539,22.539,0,0,0-1.6,2.686,16.744,16.744,0,0,0,2.874-1.948c2.088-1.586,2.975-2.205,3.338-1.93a37.834,37.834,0,0,1,8.069,8.617.183.183,0,0,1-.154.281m-35.545-.365h35.2a37.7,37.7,0,0,0-7.784-8.234,12.831,12.831,0,0,0-2.907,1.922c-2.093,1.59-2.982,2.213-3.365,1.968a.241.241,0,0,1-.1-.155c-.068-.311.431-1.123,1.671-3.04a20.241,20.241,0,0,0,1.614-2.727,17.25,17.25,0,0,0-9.312-2.37,15.556,15.556,0,0,0-11.941,6.653,21.75,21.75,0,0,0-3.075,5.982" transform="translate(-432.985 -725.391)" fill="#2e2e47"/>
        <path id="Trazado_1016092" data-name="Trazado 1016092" d="M1101.431,747.47c-.677.131-.709.168-1.26-.218a2.9,2.9,0,0,0-2.949.013c-.834.685-1.885,1.279-1.892,3.088s-.128,1.571-1.009,2.61-4.526,2.256-4.526,2.256l-.715-.2a11.713,11.713,0,0,1-.752-3.8c.19-1.153.232-2.436.944-3.1s2.4-2.472,2.4-2.472a1.911,1.911,0,0,0,.791-.261c.285-.211-.086-1.066-.142-1.115s-.263,0-.263,0a3.68,3.68,0,0,0-1.178-3.313,2.982,2.982,0,0,0-4.116-.123,3.5,3.5,0,0,0-1.268,3.5c.371,1.416,1.541,3.021,1.615,3.566a15.887,15.887,0,0,1-.022,4.865,24.657,24.657,0,0,1-1.039,4.07s-7.384,9.181-7.773,9.7-3.011,3.985-2.463,4.038,8.23-7.216,8.23-7.216-2.68,10.811-2.575,10.8,3.952-8.206,4.229-8.821,2.317-6.047,2.366-6.1a32.748,32.748,0,0,1,2.657-2.645c.49-.295,3.078-2.111,3.737-2.521s1.1-.878,1.664-.616a6.06,6.06,0,0,0,3.5.076,5.406,5.406,0,0,0,2.36-3.435c-.042-.928-.116-.993.454-1.679s-.333-1.085-1.009-.954m-11.2-1.567c-.586.441-1.76,1.026-2.473.6,0,0-1.572-1.251-1.338-2.531s1.12-2.81,2.117-2.857a2.932,2.932,0,0,1,2.533,2,3.354,3.354,0,0,1-.84,2.793m10.713,4.442a6.431,6.431,0,0,1-.863,1.881,3.214,3.214,0,0,1-2.118.645c-.354-.048-1.23-.59-1.663-2.273a3.265,3.265,0,0,1,1.025-2.216c1.042-1,1.588-.979,2.406-.259s1.483,1.5,1.213,2.222" transform="translate(-885.801 -609.4)" fill="#82a7af"/>
        <path id="Trazado_1016093" data-name="Trazado 1016093" d="M438.124,527.468c2.752,5.4,12.467,6.742,14.515,3.913,1.022-1.412,10.754-7.059,19.045-27.958.5-1.255.974-2.68,1.416-4.215-6.646-6.588-18.778-9.13-18.778-9.13s-17.545,34.747-16.2,37.39" transform="translate(-360.705 -403.547)" fill="#82a7af"/>
        <path id="Trazado_1016094" data-name="Trazado 1016094" d="M491.29,997.637a.183.183,0,0,1-.178-.225c.827-3.449.554-9.445.551-9.5a.183.183,0,0,1,.182-.191h51.188a.182.182,0,1,1,0,.365h-51a43.308,43.308,0,0,1-.568,9.416.183.183,0,0,1-.177.14" transform="translate(-404.394 -813.318)" fill="#2e2e47"/>
        <path id="Trazado_1016095" data-name="Trazado 1016095" d="M316.127,998.2a.182.182,0,0,1-.17-.117,62.576,62.576,0,0,1-2.241-10H281.751a.182.182,0,1,1,0-.365h32.122a.183.183,0,0,1,.181.156c.01.068.995,6.84,2.243,10.081a.183.183,0,0,1-.17.248" transform="translate(-231.852 -813.318)" fill="#2e2e47"/>
        <path id="Trazado_1016096" data-name="Trazado 1016096" d="M412.879,700.344s-8.372,5.24-9.867,7.373-3.025,4.63-2.407,5.138,3.143-2.918,3.143-2.918-3.184,6.258-2.716,6.665,1-.163,1-.163-.266,1.083.275,1.217,4.05-4.047,4.05-4.047-2.789,4.957-1.9,4.968,7.091-7.834,7.091-7.834,6.605-4.25,6.229-6.8-2.961-4.847-4.9-3.6" transform="translate(-329.755 -576.397)" fill="#946255"/>
        <path id="Trazado_1016097" data-name="Trazado 1016097" d="M462.332,724.123c2.3,1.814-4.766,7.888-5.33,9.482s-1.655,1.784-1.633,1.056a10.642,10.642,0,0,1,1.549-4.881c1.28-2.1,4.238-6.585,5.414-5.657" transform="translate(-374.965 -596.164)" fill="#946255"/>
        <path id="Trazado_1016098" data-name="Trazado 1016098" d="M748.438,216.084l13.2,21.106s-17.954,30.285-16.3,33.686,6.057,10.084,13.734,7.849,27.152-29.768,22.673-44.547c-3.887-12.827-28.277-35.467-36.925-33.645-9.821,2.069,1.138,11.742,3.625,15.552" transform="translate(-609.995 -165.04)" fill="#82a7af"/>
        <path id="Trazado_1016099" data-name="Trazado 1016099" d="M736.813,603.911a3.908,3.908,0,0,0-3.5.514c-1.743,1.229-4.373,3.215-4.9,4.347a6.852,6.852,0,0,0-.775,2.712s2.288-.484,3.045,1.282c.5,1.175.042,5.068.631,5.12a10.847,10.847,0,0,0,2.481-.915,9.579,9.579,0,0,0,2.018-.589c1.135-.463,1.051-1.365,1.808-1.9s2.481-6.213,2.144-7.979c-.2-1.075-1.305-2.036-2.958-2.591" transform="translate(-599.166 -497.114)" fill="#946255"/>
        <path id="Trazado_1016100" data-name="Trazado 1016100" d="M748.113,290.894a.181.181,0,0,1-.156-.088c-.057-.094-1.356-2.365,1.295-6.859,1.728-2.929,7.112-12.744,10.675-19.238,1.931-3.521,3.327-6.065,3.584-6.5.451-.768,3.3-.61,7.926-.258a34.571,34.571,0,0,0,6.5.172c.047-.01.086-.019.12-.028a67.307,67.307,0,0,0-7.73-1.167c-1.339-.158-2.4-.284-2.878-.367-.193-.033-.393-.068-.38-.258.014-.209.041-.21,1.451-.264,2.276-.087,7.606-.29,8.457-1.7.054-.089.068-.152.041-.188-.465-.628-6.135.25-13.19,2.042l-.129.033-.071-.112c-.3-.478-7.372-11.708-7.763-12.417-.055-.1-.45-.547-.949-1.113-2.864-3.246-10.472-11.869-10.745-17.876a.182.182,0,0,1,.174-.191.19.19,0,0,1,.191.174c.267,5.879,7.813,14.431,10.654,17.651a13.2,13.2,0,0,1,.995,1.178c.365.663,6.924,11.083,7.682,12.286.623-.156,3.4-.843,6.238-1.407,6.582-1.309,7.036-.7,7.206-.467a.5.5,0,0,1-.022.595c-.91,1.5-5.746,1.753-8.388,1.857.438.053.939.113,1.47.176,6.984.827,8.17,1.109,8.19,1.536.012.261-.352.338-.548.379a33.7,33.7,0,0,1-6.606-.165c-3.045-.231-7.216-.547-7.584.079-.254.432-1.721,3.107-3.578,6.492-3.564,6.5-8.95,16.315-10.681,19.248-2.528,4.286-1.309,6.465-1.3,6.487a.183.183,0,0,1-.157.275" transform="translate(-612.777 -184.876)" fill="#2e2e47"/>
        <path id="Trazado_1016101" data-name="Trazado 1016101" d="M545.389,36.414a6.031,6.031,0,0,1-2.294-.534c-.571-.437-.79-.292-.79-.292s-2.211.972-2.745.826-1.178-.243-1.178-.243a11.347,11.347,0,0,1-2.051,1.7,4.866,4.866,0,0,1-2.8.777c-.292-.194-2.089-2.72-.826-6.9s7.434-5.442,9.6-5,6.777.292,8.186,1.895,1.895,2.526,1.7,3.207-6.8,4.567-6.8,4.567" transform="translate(-438.284 -21.956)" fill="#2e2e47"/>
        <path id="Trazado_1016102" data-name="Trazado 1016102" d="M604.93,54.452s5.024,9.985,8.473,14.066,13.873,8.295,24.088,8.03c0,0-6.305-6.414-7.083-7.435S614.356,50.42,610.761,49.205s-7.383,2.832-5.831,5.247" transform="translate(-497.825 -40.334)" fill="#2e2e47"/>
        <path id="Trazado_1016103" data-name="Trazado 1016103" d="M567.772,5.873s-.72-1.87-.33-2.626l.39-.757s-1.184-2,.911-2.251,7.864-.673,10.374,1.025.783,2.959.783,2.959-.364,3.815-1.869,4.364-10.259-2.714-10.259-2.714" transform="translate(-467.155 -0.001)" fill="#2e2e47"/>
        <path id="Trazado_1016104" data-name="Trazado 1016104" d="M609.294,213.26a7.414,7.414,0,0,1-2.955-1.068,20.756,20.756,0,0,1-3.138-1.937c-.31-.3-.109-.89.632-1.862a16.089,16.089,0,0,1,1.068-1.247.182.182,0,1,1,.263.253c-.005.006-.561.585-1.043,1.217-.877,1.151-.676,1.367-.667,1.375a20.764,20.764,0,0,0,3.053,1.876c2.52,1.308,2.99,1.018,3.058.947a26.742,26.742,0,0,0,1.893-2.407.183.183,0,0,1,.3.209,26.553,26.553,0,0,1-1.929,2.451.64.64,0,0,1-.535.193" transform="translate(-496.581 -170.525)" fill="#2e2e47"/>
        <path id="Trazado_1016105" data-name="Trazado 1016105" d="M658.351,198.7c-1.649,0-4.7-2.258-5.092-2.555a.183.183,0,1,1,.22-.292c1.636,1.233,4.525,2.965,5.319,2.365.923-.7,3.824-5.839,5.229-8.459a.183.183,0,1,1,.322.173c-.167.312-4.114,7.657-5.33,8.578a1.081,1.081,0,0,1-.666.19" transform="translate(-537.855 -156.175)" fill="#2e2e47"/>
        <path id="Trazado_1016106" data-name="Trazado 1016106" d="M537.277,497.707c-1.4,0-5.453-2.652-6.767-3.538a.183.183,0,0,1,.2-.3c3.3,2.222,6.3,3.776,6.687,3.459.026-.021.046-.12-.049-.355-.506-1.265-2.182-2.886-3.405-4.069s-1.551-1.518-1.408-1.79c.1-.192.365-.139.452-.121a18.114,18.114,0,0,1,3.144,1.717c2.586,1.562,6.913,4.176,7.867,3.5.182-.13.227-.417.133-.854-.346-1.613-3-3.151-7.676-4.448a63.25,63.25,0,0,0-7.125-1.493.182.182,0,1,1,.051-.361c.58.081,14.206,2.031,15.107,6.226.127.592.034,1.005-.278,1.228-1.063.759-4.373-1.127-8.268-3.48a21.845,21.845,0,0,0-2.994-1.664,16.1,16.1,0,0,0,1.249,1.283c1.247,1.206,2.956,2.858,3.491,4.2.145.364.125.624-.061.775a.554.554,0,0,1-.353.1" transform="translate(-435.742 -402.695)" fill="#2e2e47"/>
        <path id="Trazado_1016107" data-name="Trazado 1016107" d="M599.766,307.789a.182.182,0,0,1-.157-.089c-.4-.673-3.91-6.6-4.014-7.656a16.666,16.666,0,0,0-1.18-2.727,39.732,39.732,0,0,1-3.352-8.614c-.8-4.18-1.08-16.153-.879-22.185a.185.185,0,0,1,.189-.177.183.183,0,0,1,.176.189c-.2,6.016.078,17.948.873,22.1a39.484,39.484,0,0,0,3.323,8.524,15,15,0,0,1,1.214,2.849c.081.825,2.889,5.7,3.965,7.505a.182.182,0,0,1-.157.276" transform="translate(-485.925 -219.315)" fill="#2e2e47"/>
        <path id="Trazado_1016108" data-name="Trazado 1016108" d="M212.835,166.2a17.477,17.477,0,0,0-25.934-7.659q-.154.106-.307.216c-9.811,7.052.284,28.956,3.412,34.995s-2.694,4.759-5.4,13.859,13.546,14.179,21,6.4c6.67-6.959.883-7.438,2.784-13.271.77-2.363,5.662-4.027,6.175-6.709,1.753-9.166,1.749-19.661-1.735-27.829m-27.284-.154c.022-.092.045-.182.069-.271a5.394,5.394,0,0,1,9.925-1.156c2.353,4.265,3.188,10.842-.61,14.318-5.592,5.118-10.806-7.014-9.384-12.891m5.88,20.19c2.556-2.18,4.652-.614,6.116,1.826s1.89,12.231-3.56,7.463c0,0-5.113-7.109-2.556-9.289m-.951,26.92c-4.645-2.18-3.886-4.929-1.612-5.308s5.5-2.749,10.2-3.033,5.254,3.033,5.254,3.033c1.232,7.773-9.195,7.488-13.839,5.308m15.166-16.825c-2.209.814-3.886-5.071-1.943-6.446s3.175,1.327,3.175,1.327c.332,1.9.569,4.455-1.232,5.119m1.9-8.294c-5.308-.758-.095-10.806-2.654-17.04s-9.479-10.828-5.4-12.453,9,7.313,9,7.313c3.318,6.256,4.361,22.939-.948,22.181" transform="translate(-150.201 -128.032)" fill="#84ceca"/>
        <rect id="Rectángulo_462117" data-name="Rectángulo 462117" width="8.292" height="75.172" transform="translate(70.709 29.107)" fill="#ffea8f"/>
        <path id="Trazado_1016109" data-name="Trazado 1016109" d="M432.859,245.508h-1.943v-.389h1.943Zm0-3.3h-1.943v-.389h1.943Zm0-3.3h-1.943v-.389h1.943Zm0-3.3h-1.943v-.389h1.943Zm0-3.3h-1.943V231.9h1.943Zm0-3.3h-1.943V228.6h1.943Zm0-3.3h-1.943V225.3h1.943Zm0-3.3h-1.943v-.389h1.943Zm0-3.3h-1.943v-.389h1.943Zm0-3.3h-1.943v-.389h1.943Zm0-3.3h-1.943v-.389h1.943Zm0-3.3h-1.943v-.389h1.943Zm0-3.3h-1.943v-.389h1.943Zm0-3.3h-1.943v-.389h1.943Zm0-3.3h-1.943v-.389h1.943Zm0-3.3h-1.943v-.389h1.943Zm0-3.3h-1.943v-.389h1.943Zm0-3.3h-1.943v-.389h1.943Zm0-3.3h-1.943v-.389h1.943Zm0-3.3h-1.943v-.389h1.943Zm0-3.3h-1.943v-.389h1.943Zm0-3.3h-1.943v-.389h1.943Z" transform="translate(-354.83 -144.709)" fill="#2e2e47"/>
        <path id="Trazado_1016110" data-name="Trazado 1016110" d="M68.014,247.975c-.281,2.1-4.021,6.735-4.021,6.735l-1.1.338s-3.443-2.664-4.161-4.329a20.189,20.189,0,0,1-1.347-3.363l-3.009.054a24.645,24.645,0,0,1,4.044,6.372,38.272,38.272,0,0,1,2.05,6.184s-3.43,22.777-3.5,23.776.879,3.119,1.639,2.729,4.374-19.008,4.374-19.008,5.884,19.056,6.015,18.96a3.343,3.343,0,0,0,1.154-3.017c-.513-4.221-5.054-21.881-5.037-21.995a50.8,50.8,0,0,1,1.255-5.68c.394-.8,2.252-5.333,2.768-6.421a4.668,4.668,0,0,1,1.657-2.2Z" transform="translate(-44.773 -203.483)" fill="#82a7af"/>
        <path id="Trazado_1016111" data-name="Trazado 1016111" d="M35.3,180.341c-3.815.316-6.237-5.461-6.872-9.207-.41-2.42-.7-5.368.736-6.694a2.945,2.945,0,0,1,2.869-.511c4.413,1.106,5.013,12.017,5.018,12.128a6.814,6.814,0,0,1-1.134,3.966l-.2.275-.336.035-.084.008M30.807,165.3a.934.934,0,0,0-.617.249c-.465.43-.889,1.7-.274,5.336.546,3.223,2.472,7.8,4.96,7.959a5.266,5.266,0,0,0,.671-2.709c-.156-3.1-1.349-10.107-3.879-10.741a2.668,2.668,0,0,0-.861-.094" transform="translate(-23.135 -134.865)" fill="#82a7af"/>
        <path id="Trazado_1016112" data-name="Trazado 1016112" d="M123.341,182.135l-.29-.173c-3.335-1.991-1.8-8.131-.046-11.533,1.124-2.182,2.662-4.713,4.6-4.914a2.966,2.966,0,0,1,2.6,1.313c2.867,3.532-3.2,12.622-3.26,12.713a6.816,6.816,0,0,1-3.287,2.492Zm4.457-15.124-.034,0c-.629.065-1.734.83-3.42,4.1-1.5,2.906-2.7,7.726-.806,9.344A5.262,5.262,0,0,0,125.7,178.7c1.735-2.573,4.984-8.9,3.34-10.921-.626-.771-1.065-.781-1.243-.767" transform="translate(-99.702 -136.28)" fill="#82a7af"/>
        <path id="Trazado_1016113" data-name="Trazado 1016113" d="M99.112,305.684a.829.829,0,1,1-.895-.758.829.829,0,0,1,.895.758" transform="translate(-80.249 -251.084)" fill="#fff"/>
        <path id="Trazado_1016114" data-name="Trazado 1016114" d="M784.343,1036.028a.182.182,0,0,1-.183-.182V994.3a.183.183,0,0,1,.365,0v41.549a.183.183,0,0,1-.183.182" transform="translate(-645.703 -818.587)" fill="#2e2e47"/>
        <path id="Trazado_1016115" data-name="Trazado 1016115" d="M801.852,1049.933a.182.182,0,0,1-.182-.17l-2.461-34.791a.182.182,0,1,1,.364-.026l2.462,34.791a.183.183,0,0,1-.169.2h-.013" transform="translate(-658.094 -835.601)" fill="#2e2e47"/>
      </g>
    </g>
  </g>
</svg>
