<svg xmlns="http://www.w3.org/2000/svg" width="107" height="107" viewBox="0 0 107 107">
  <g id="Grupo_1196057" data-name="Grupo 1196057" transform="translate(-290 -8622)">
    <g id="Grupo_1195838" data-name="Grupo 1195838">
      <g id="Grupo_1195270" data-name="Grupo 1195270" transform="translate(-50.5 94.063)">
        <g id="Grupo_1179280" data-name="Grupo 1179280" transform="translate(0 -165.063)">
          <g id="Grupo_156312" data-name="Grupo 156312" transform="translate(51.832 4244.563)">
            <path id="Elipse_5845" data-name="Elipse 5845" d="M53.5,0A53.5,53.5,0,1,1,0,53.5,53.5,53.5,0,0,1,53.5,0Z" transform="translate(288.668 4448.437)" fill="#fce2b5"/>
          </g>
        </g>
      </g>
      <g id="ropa-doblada" transform="translate(307 8637.542)">
        <path id="Trazado_1016477" data-name="Trazado 1016477" d="M66.927,53.544,66.4,49.485a8.18,8.18,0,0,0,.528-4.153l-3.988-30.5A8.2,8.2,0,0,0,54.845,7.69H51.162L47.994,3.467a.459.459,0,0,1-.059-.047,1.129,1.129,0,0,0-.258-.211c-.047-.023-.082-.07-.129-.082a1.041,1.041,0,0,0-.375-.094c-.035,0-.059-.023-.094-.023H25.918c-.035,0-.059.023-.094.023a1.041,1.041,0,0,0-.375.094c-.047.023-.082.059-.129.082a1.453,1.453,0,0,0-.258.211c-.012.023-.035.023-.059.047L21.836,7.69H18.153a8.2,8.2,0,0,0-8.094,7.144L6.07,45.333A8.2,8.2,0,0,0,6.6,49.485L6.07,53.544A8.2,8.2,0,0,0,6.6,57.7L6.07,61.755a8.255,8.255,0,0,0,1.971,6.5,8.165,8.165,0,0,0,6.123,2.78H58.833a8.124,8.124,0,0,0,6.123-2.78,8.212,8.212,0,0,0,1.971-6.5L66.4,57.7A8.18,8.18,0,0,0,66.927,53.544Zm-58.534.3.188-1.455a8.122,8.122,0,0,0,5.584,2.217H58.833a8.22,8.22,0,0,0,5.584-2.217l.188,1.455a5.848,5.848,0,0,1-5.771,6.628H14.164a5.848,5.848,0,0,1-5.771-6.628Zm52.223-38.71,3.988,30.5a5.848,5.848,0,0,1-5.771,6.628H37.672V19.421l2.815,2.111a1.207,1.207,0,0,0,.7.235,1.172,1.172,0,0,0,.915-.446l9.032-11.285h3.707a5.86,5.86,0,0,1,5.771,5.1ZM42.669,7.69H30.352L28.428,5.344H44.593Zm-1.924,2.346L36.5,15.221l-4.246-5.185h8.481Zm.246,8.938-2.8-2.1L47.021,6.083,49.1,8.852,40.991,18.987Zm-15-12.9,8.833,10.792-2.8,2.1L23.912,8.828,25.988,6.06ZM8.4,45.638l3.988-30.5a5.851,5.851,0,0,1,5.771-5.1h3.707L30.9,21.321a1.172,1.172,0,0,0,.915.446,1.207,1.207,0,0,0,.7-.235l2.815-2.111V52.265H14.164a5.848,5.848,0,0,1-5.771-6.628ZM63.2,66.705a5.824,5.824,0,0,1-4.364,1.982H14.164A5.848,5.848,0,0,1,8.393,62.06l.188-1.455a8.122,8.122,0,0,0,5.584,2.217H58.833a8.22,8.22,0,0,0,5.584-2.217L64.6,62.06A5.876,5.876,0,0,1,63.2,66.705Z" fill="#12263f"/>
        <path id="Trazado_1016478" data-name="Trazado 1016478" d="M36,25.348v12.9a3.529,3.529,0,0,0,3.519,3.519h12.54a3.523,3.523,0,0,0,3.484-4.023L54.112,27.706h0l-.387-2.7A2.359,2.359,0,0,0,51.4,22.99H38.346A2.353,2.353,0,0,0,36,25.336ZM52.95,39.025a1.157,1.157,0,0,1-.891.4H39.519a1.176,1.176,0,0,1-1.173-1.173v-9l6.71,1.924a1.2,1.2,0,0,0,.645,0l6.276-1.795,1.243,8.7a1.192,1.192,0,0,1-.27.938Zm-1.3-11.988L45.384,28.82l-7.038-2.006V25.348H51.4l.235,1.689Z" transform="translate(5.191 3.457)" fill="#12263f"/>
      </g>
    </g>
  </g>
</svg>
