<svg xmlns="http://www.w3.org/2000/svg" width="107" height="107" viewBox="0 0 107 107">
  <g id="Grupo_1196058" data-name="Grupo 1196058" transform="translate(-290 -8787.063)">
    <g id="Grupo_1195271" data-name="Grupo 1195271" transform="translate(-50.5 259.127)">
      <g id="Grupo_1179280" data-name="Grupo 1179280" transform="translate(0 -165.063)">
        <g id="Grupo_156312" data-name="Grupo 156312" transform="translate(51.832 4244.563)">
          <path id="Elipse_5845" data-name="Elipse 5845" d="M53.5,0A53.5,53.5,0,1,1,0,53.5,53.5,53.5,0,0,1,53.5,0Z" transform="translate(288.668 4448.437)" fill="#fce2b5"/>
        </g>
        <g id="Grupo_1195839" data-name="Grupo 1195839">
          <g id="ropa-sucia" transform="translate(363.359 8714.151)">
            <path id="Trazado_1016479" data-name="Trazado 1016479" d="M61.141,14.567C60.733-2.441,37.121-5.05,32.873,11.223H4.175a4.189,4.189,0,0,0-2.923,7.165,4.2,4.2,0,0,0,0,5.971,4.2,4.2,0,0,0,0,5.971,4.2,4.2,0,0,0,0,5.971,4.2,4.2,0,0,0,0,5.971,4.2,4.2,0,0,0,0,5.971,4.2,4.2,0,0,0,0,5.971,4.189,4.189,0,0,0,2.923,7.165H42.988a7.179,7.179,0,0,0,3.957-13.137,7.188,7.188,0,0,0,0-11.942,7.208,7.208,0,0,0,2.985-7.747,14.356,14.356,0,0,0,11.21-13.989ZM4.175,13.612H32.51a14.443,14.443,0,0,0,.21,3.583H4.175a1.791,1.791,0,0,1,0-3.583ZM2.384,21.375a1.793,1.793,0,0,1,1.791-1.791h29.21a14.325,14.325,0,0,0,1.968,3.583H4.175A1.793,1.793,0,0,1,2.384,21.375ZM47.765,54.216a4.782,4.782,0,0,1-4.777,4.777H4.175a1.791,1.791,0,0,1,0-3.583H42.988a1.194,1.194,0,0,0,0-2.388H4.175a1.791,1.791,0,0,1,0-3.583H42.988A4.783,4.783,0,0,1,47.765,54.216Zm0-11.942a4.782,4.782,0,0,1-4.777,4.777H4.175a1.791,1.791,0,0,1,0-3.583H42.988a1.194,1.194,0,0,0,0-2.388H4.175a1.791,1.791,0,0,1,0-3.583H42.988A4.782,4.782,0,0,1,47.765,42.274Zm0-11.942a4.782,4.782,0,0,1-4.777,4.777H4.175a1.791,1.791,0,0,1,0-3.583H42.988a1.194,1.194,0,0,0,0-2.388H4.175a1.791,1.791,0,0,1,0-3.583H37.619a14.31,14.31,0,0,0,9.919,3.325A4.7,4.7,0,0,1,47.765,30.331Zm-.955-3.822A11.956,11.956,0,0,1,34.867,14.567c.6-15.821,23.287-15.817,23.885,0A11.956,11.956,0,0,1,46.81,26.509Z" transform="translate(0 0)" fill="#12263f"/>
            <path id="Trazado_1016480" data-name="Trazado 1016480" d="M348.064,79.955l-6.321,6.321-2.738-2.738a1.194,1.194,0,0,0-1.689,1.689L340.9,88.81a1.2,1.2,0,0,0,1.689,0l7.165-7.165A1.194,1.194,0,0,0,348.064,79.955Z" transform="translate(-296.725 -69.816)" fill="#12263f"/>
          </g>
          <rect id="Rectángulo_462299" data-name="Rectángulo 462299" width="4" height="50" transform="translate(384.211 8724.937)" fill="#12263f"/>
          <ellipse id="Elipse_13673" data-name="Elipse 13673" cx="5.5" cy="2.5" rx="5.5" ry="2.5" transform="matrix(0.875, 0.485, -0.485, 0.875, 378.59, 8717.584)" fill="#12263f"/>
          <ellipse id="Elipse_13674" data-name="Elipse 13674" cx="5.5" cy="2.5" rx="5.5" ry="2.5" transform="matrix(-0.875, 0.485, -0.485, -0.875, 396.233, 8721.957)" fill="#12263f"/>
        </g>
      </g>
    </g>
  </g>
</svg>
