<svg xmlns="http://www.w3.org/2000/svg" width="107" height="107" viewBox="0 0 107 107">
  <g id="Grupo_1196061" data-name="Grupo 1196061" transform="translate(-290 -8940.127)">
    <g id="Grupo_1196059" data-name="Grupo 1196059">
      <g id="Grupo_1195272" data-name="Grupo 1195272" transform="translate(-50.5 412.19)">
        <g id="Grupo_1179280" data-name="Grupo 1179280" transform="translate(0 -165.063)">
          <g id="Grupo_156312" data-name="Grupo 156312" transform="translate(51.832 4244.563)">
            <path id="Elipse_5845" data-name="Elipse 5845" d="M53.5,0A53.5,53.5,0,1,1,0,53.5,53.5,53.5,0,0,1,53.5,0Z" transform="translate(288.668 4448.437)" fill="#fce2b5"/>
          </g>
        </g>
      </g>
    </g>
    <g id="Grupo_1195841" data-name="Grupo 1195841" transform="translate(2.289 -1.348)">
      <path id="camisa_1_" data-name="camisa (1)" d="M65,54.676a4.1,4.1,0,0,0-1.427-3.1,4.111,4.111,0,0,0-2.7-7.226H52.612v-6.6l1.18,1.966a1.032,1.032,0,0,0,1.458.327l9.29-6.193a1.032,1.032,0,0,0,.376-1.266l-9.29-21.677a1.025,1.025,0,0,0-.6-.563L44.219,6.422l-.919-4.6a1.032,1.032,0,0,0-.651-.766,1.055,1.055,0,0,0-.36-.052V1H23.709v.008a1.055,1.055,0,0,0-.36.056,1.032,1.032,0,0,0-.651.766l-.919,4.592-10.81,3.931a1.025,1.025,0,0,0-.6.563L1.084,32.592a1.032,1.032,0,0,0,.376,1.266l9.29,6.193a1.032,1.032,0,0,0,1.458-.327l1.18-1.966V63.966A1.032,1.032,0,0,0,14.419,65h46.45a4.111,4.111,0,0,0,2.7-7.226A4.1,4.1,0,0,0,65,54.676Zm-2.064-6.193a2.064,2.064,0,0,1-2.064,2.064H29.9a2.064,2.064,0,1,1,0-4.129H60.869A2.064,2.064,0,0,1,62.934,48.483ZM43.734,8.44l10.172,3.7L62.68,32.616l-7.675,5.117-2.394-3.988V16.483H50.547v27.87H34.031V13.144L36.232,17a1.032,1.032,0,0,0,.861.516h.035a1.032,1.032,0,0,0,.859-.459ZM24.393,3.873l7.264,5.65-2.854,5-5.03-7.546Zm2.324-.808H39.281L33,7.951ZM42.225,6.977,37.2,14.522l-2.854-5,7.266-5.65ZM13.387,16.483V33.745l-2.393,3.988L3.319,32.616,12.093,12.14l10.171-3.7,5.744,8.616a1.032,1.032,0,0,0,.862.459h.035A1.032,1.032,0,0,0,29.766,17l2.2-3.855V44.354H29.9a4.111,4.111,0,0,0-2.7,7.226,4.074,4.074,0,0,0,0,6.193,4.046,4.046,0,0,0-.853,5.161h-10.9V16.483ZM62.934,60.869a2.064,2.064,0,0,1-2.064,2.064H29.9a2.064,2.064,0,1,1,0-4.129H60.869A2.064,2.064,0,0,1,62.934,60.869ZM29.9,56.74a2.064,2.064,0,1,1,0-4.129H60.869a2.064,2.064,0,1,1,0,4.129Z" transform="translate(306.712 8958.001)" fill="#12263f"/>
      <rect id="Rectángulo_462300" data-name="Rectángulo 462300" width="1.495" height="18.688" transform="translate(351.974 9002.312)" fill="#12263f"/>
      <ellipse id="Elipse_13675" data-name="Elipse 13675" cx="2.056" cy="0.934" rx="2.056" ry="0.934" transform="matrix(0.875, 0.485, -0.485, 0.875, 349.872, 8999.563)" fill="#12263f"/>
      <ellipse id="Elipse_13676" data-name="Elipse 13676" cx="2.056" cy="0.934" rx="2.056" ry="0.934" transform="matrix(-0.875, 0.485, -0.485, -0.875, 356.467, 9001.198)" fill="#12263f"/>
      <g id="Grupo_1195840" data-name="Grupo 1195840" transform="translate(-2920.422 604.248) rotate(-19)">
        <rect id="Rectángulo_462301" data-name="Rectángulo 462301" width="19" height="10" transform="translate(335.711 9023)" fill="#12263f"/>
        <rect id="Rectángulo_462302" data-name="Rectángulo 462302" width="8" height="1" transform="translate(337.711 9025)" fill="#fff"/>
        <rect id="Rectángulo_462303" data-name="Rectángulo 462303" width="8" height="1" transform="translate(337.711 9028)" fill="#fff"/>
      </g>
      <path id="Trazado_1016481" data-name="Trazado 1016481" d="M-10171.11-2666.5s-21.89-1.75-17.39-24.5" transform="translate(10505.711 11700)" fill="none" stroke="#12263f" stroke-width="1"/>
      <path id="Polígono_11" data-name="Polígono 11" d="M3,0,6,4H0Z" transform="matrix(0.951, 0.309, -0.309, 0.951, 315.476, 9005.171)" fill="#12263f"/>
    </g>
  </g>
</svg>
