<svg xmlns="http://www.w3.org/2000/svg" xmlns:xlink="http://www.w3.org/1999/xlink" width="396" height="296.893" viewBox="0 0 396 296.893">
  <defs>
    <clipPath id="clip-path">
      <rect id="Rectángulo_462309" data-name="Rectángulo 462309" width="396" height="296.892" fill="none"/>
    </clipPath>
  </defs>
  <g id="Grupo_1196063" data-name="Grupo 1196063" transform="translate(-290 -10184.107)">
    <g id="Grupo_1195846" data-name="Grupo 1195846" transform="translate(290 10184.107)">
      <g id="Grupo_1195845" data-name="Grupo 1195845" clip-path="url(#clip-path)">
        <path id="Trazado_1016541" data-name="Trazado 1016541" d="M2190.464,2431.832c-42.78,0-77.671,4.469-77.671,9.947s34.891,9.947,77.671,9.947,77.671-4.468,77.671-9.947-34.891-9.947-77.671-9.947" transform="translate(-1872.135 -2154.833)" fill="#e0e8fc" fill-rule="evenodd"/>
        <path id="Trazado_1016542" data-name="Trazado 1016542" d="M196.994,2231.548c-72.512,0-131.653,4.468-131.653,9.947s59.141,9.946,131.653,9.946,131.652-4.469,131.652-9.946-59.141-9.947-131.652-9.947" transform="translate(-57.898 -1977.362)" fill="#e0e8fc" fill-rule="evenodd"/>
        <path id="Trazado_1016543" data-name="Trazado 1016543" d="M1109.981,16.4c6.166,6.669,122.9,6.669,129.021,0-6.121,6.669-6.121,178.012,0,189.379-6.121-11.367-122.855-11.367-129.021,0,6.166-11.367,6.166-182.71,0-189.379" transform="translate(-983.548 -14.531)" fill="#fff" fill-rule="evenodd"/>
        <path id="Trazado_1016544" data-name="Trazado 1016544" d="M1173.751,86.691a4.615,4.615,0,1,0-4.614-4.614,4.624,4.624,0,0,0,4.614,4.614" transform="translate(-1035.966 -68.639)" fill="#42557d" fill-rule="evenodd"/>
        <path id="Trazado_1016545" data-name="Trazado 1016545" d="M2113.625,82.062a4.614,4.614,0,1,0-4.614-4.615,4.624,4.624,0,0,0,4.614,4.615" transform="translate(-1868.783 -64.537)" fill="#42557d" fill-rule="evenodd"/>
        <path id="Trazado_1016546" data-name="Trazado 1016546" d="M2106.983,1527.259a4.614,4.614,0,1,0-4.614-4.614,4.623,4.623,0,0,0,4.614,4.614" transform="translate(-1862.898 -1345.118)" fill="#42557d" fill-rule="evenodd"/>
        <path id="Trazado_1016547" data-name="Trazado 1016547" d="M1179.838,1515.683a4.614,4.614,0,1,0-4.615-4.614,4.624,4.624,0,0,0,4.615,4.614" transform="translate(-1041.359 -1334.861)" fill="#42557d" fill-rule="evenodd"/>
        <path id="Trazado_1016548" data-name="Trazado 1016548" d="M1305.391,823.428h-3.164a1.582,1.582,0,0,1,0-3.164h3.164a1.582,1.582,0,1,1,0,3.164m-18.986,0h-3.164a1.582,1.582,0,1,1,0-3.164h3.164a1.582,1.582,0,1,1,0,3.164m-18.985,0h-3.164a1.582,1.582,0,0,1,0-3.164h3.164a1.582,1.582,0,1,1,0,3.164m-18.986,0h-3.164a1.582,1.582,0,1,1,0-3.164h3.164a1.582,1.582,0,0,1,0,3.164m-18.985,0h-3.164a1.582,1.582,0,1,1,0-3.164h3.164a1.582,1.582,0,1,1,0,3.164m-18.986,0H1207.3a1.582,1.582,0,1,1,0-3.164h3.164a1.582,1.582,0,1,1,0,3.164" transform="translate(-1068.378 -726.832)" fill="#cabea5"/>
        <path id="Trazado_1016549" data-name="Trazado 1016549" d="M1664.018,302.722a1.582,1.582,0,0,1-1.582-1.582v-1.717a1.582,1.582,0,0,1,3.164,0v1.717a1.582,1.582,0,0,1-1.582,1.582m0-17.54a1.582,1.582,0,0,1-1.582-1.582v-3.164a1.582,1.582,0,0,1,3.164,0V283.6a1.582,1.582,0,0,1-1.582,1.582m0-18.987a1.582,1.582,0,0,1-1.582-1.582v-3.165a1.582,1.582,0,1,1,3.164,0v3.165a1.582,1.582,0,0,1-1.582,1.582m0-18.988a1.582,1.582,0,0,1-1.582-1.582v-3.165a1.582,1.582,0,1,1,3.164,0v3.165a1.582,1.582,0,0,1-1.582,1.582m0-18.988a1.582,1.582,0,0,1-1.582-1.582v-3.164a1.582,1.582,0,1,1,3.164,0v3.164a1.582,1.582,0,0,1-1.582,1.582m0-18.987a1.582,1.582,0,0,1-1.582-1.582v-3.165a1.582,1.582,0,1,1,3.164,0v3.165a1.582,1.582,0,0,1-1.582,1.582m0-18.988a1.582,1.582,0,0,1-1.582-1.582V185.5a1.582,1.582,0,0,1,3.164,0v3.165a1.582,1.582,0,0,1-1.582,1.582m0-18.988a1.582,1.582,0,0,1-1.582-1.582v-3.164a1.582,1.582,0,0,1,3.164,0v3.164a1.582,1.582,0,0,1-1.582,1.582m0-18.987a1.582,1.582,0,0,1-1.582-1.582V147.52a1.582,1.582,0,0,1,3.164,0v3.165a1.582,1.582,0,0,1-1.582,1.582" transform="translate(-1473.075 -129.315)" fill="#cabea5"/>
        <path id="Trazado_1016550" data-name="Trazado 1016550" d="M1272.524,482.993c-8.443,0-16.847-1.672-26.654-5.019a1.837,1.837,0,0,1-1.194-2.156l7.972-33.968-3.343-22.138-12.281,8.952a1.836,1.836,0,0,1-2.562-.4l-13.479-18.407a1.836,1.836,0,0,1,.284-2.475L1245,386.965a1.833,1.833,0,0,1,1.2-.443h52.869a1.834,1.834,0,0,1,1.318.559l22.3,23.053a1.836,1.836,0,0,1,.188,2.324l-11.48,16.5a1.836,1.836,0,0,1-2.517.483l-15.125-9.977L1292.6,441.76l7.993,34.059a1.836,1.836,0,0,1-1.2,2.158c-9.949,3.344-18.428,5.016-26.867,5.016m-23.893-7.964c17.615,5.775,30.122,5.771,48.006-.007l-7.669-32.677a1.867,1.867,0,0,1-.046-.514l1.332-25.757a1.835,1.835,0,0,1,2.843-1.436l16.308,10.758,9.6-13.8-20.71-21.409h-51.41l-21.935,18.868,11.4,15.561,13.244-9.654a1.835,1.835,0,0,1,2.9,1.209l3.847,25.477a1.839,1.839,0,0,1-.027.693Z" transform="translate(-1081.593 -342.495)" fill="#374f53"/>
        <rect id="Rectángulo_462305" data-name="Rectángulo 462305" width="11.671" height="22.785" transform="translate(99.672 240.481)" fill="#2c3b52"/>
        <path id="Trazado_1016551" data-name="Trazado 1016551" d="M439.376,462.53V479.4s-6.054,11.46-17.082,14.056-19.648,9.308-19.432,24.229,17.7,19.237,20.512,30.7,2.813,29.623-11.46,54.275c-11.69,20.191-16.995,45.023-18.533,70.457h121.4c-1.538-25.434-6.843-50.266-18.533-70.457C481.975,578,481.976,559.84,484.787,548.38s20.3-15.778,20.513-30.7-8.4-21.634-19.432-24.229S468.785,479.4,468.785,479.4V462.53Z" transform="translate(-348.573 -409.845)" fill="#0c1737" fill-rule="evenodd"/>
        <path id="Trazado_1016552" data-name="Trazado 1016552" d="M1004.377,697.26V862.429s58.529-1.518,64.145-17.514c0,0-7.862-42.812-20.753-60.326s-12.891-41.352-3.144-46.947l18.551,11.433,16.037-31.623s-32.023-18.31-44.65-20.312c0,0-18.08-2.919-30.186.121" transform="translate(-889.973 -616.613)" fill="#1e3a8a" fill-rule="evenodd"/>
        <path id="Trazado_1016553" data-name="Trazado 1016553" d="M1150.86,705.089c-5.638-2.462-10.9-4.4-14.542-4.977,0,0-3.151-.508-7.7-.88a17.254,17.254,0,1,0,22.242,5.856" transform="translate(-991.729 -619.586)" fill="#ede1d1" fill-rule="evenodd"/>
        <path id="Trazado_1016554" data-name="Trazado 1016554" d="M1134.621,1572.7a17.253,17.253,0,1,1-17.253,17.253,17.252,17.252,0,0,1,17.253-17.253" transform="translate(-990.094 -1393.561)" fill="#ede1d1" fill-rule="evenodd"/>
        <path id="Trazado_1016555" data-name="Trazado 1016555" d="M262.656,697.26V862.429s-58.528-1.518-64.145-17.514c0,0,7.862-42.812,20.753-60.326s12.891-41.352,3.144-46.947l-18.551,11.433-16.036-31.623s32.022-18.31,44.65-20.312c0,0,18.08-2.919,30.186.121" transform="translate(-166.427 -616.613)" fill="#1e3a8a" fill-rule="evenodd"/>
        <path id="Trazado_1016556" data-name="Trazado 1016556" d="M681.237,993.2v33.675a17.253,17.253,0,1,1,0-33.675" transform="translate(-585.008 -879.699)" fill="#ede1d1" fill-rule="evenodd"/>
        <path id="Trazado_1016557" data-name="Trazado 1016557" d="M337.766,1558.5c2.659-9.173,6.087-19.089,10.162-26.883a17.254,17.254,0,1,1-10.162,26.883" transform="translate(-299.293 -1356.774)" fill="#ede1d1" fill-rule="evenodd"/>
        <path id="Trazado_1016558" data-name="Trazado 1016558" d="M238.145,405.837a12.5,12.5,0,1,1,12.5-12.5,12.519,12.519,0,0,1-12.5,12.5m0-23.722a11.218,11.218,0,1,0,11.218,11.218,11.231,11.231,0,0,0-11.218-11.218" transform="translate(-199.938 -337.451)" fill="#fff"/>
        <path id="Trazado_1016559" data-name="Trazado 1016559" d="M259.516,424.467a9.756,9.756,0,1,1,9.756-9.757,9.768,9.768,0,0,1-9.756,9.757m0-18.227a8.471,8.471,0,1,0,8.47,8.47,8.481,8.481,0,0,0-8.47-8.47" transform="translate(-221.31 -358.828)" fill="#fff"/>
        <path id="Trazado_1016560" data-name="Trazado 1016560" d="M304.066,460.606a1.648,1.648,0,1,1,1.647-1.648,1.65,1.65,0,0,1-1.647,1.648m0-2.011a.363.363,0,1,0,.362.363.363.363,0,0,0-.362-.363" transform="translate(-267.97 -405.219)" fill="#fff"/>
        <path id="Trazado_1016561" data-name="Trazado 1016561" d="M341.125,460.606a1.648,1.648,0,1,1,1.649-1.648,1.65,1.65,0,0,1-1.649,1.648m0-2.011a.363.363,0,1,0,.363.363.362.362,0,0,0-.363-.363" transform="translate(-300.81 -405.219)" fill="#fff"/>
        <path id="Trazado_1016562" data-name="Trazado 1016562" d="M304.066,498.265a1.648,1.648,0,1,1,1.647-1.648,1.65,1.65,0,0,1-1.647,1.648m0-2.01a.362.362,0,1,0,.362.362.363.363,0,0,0-.362-.362" transform="translate(-267.97 -438.59)" fill="#fff"/>
        <path id="Trazado_1016563" data-name="Trazado 1016563" d="M341.124,498.252a1.633,1.633,0,0,1-.285-.024h0a1.649,1.649,0,0,1-.659-2.973,1.619,1.619,0,0,1,1.232-.272,1.648,1.648,0,0,1-.286,3.271m-.063-1.291a.37.37,0,0,0,.421-.295.362.362,0,0,0-.06-.27.357.357,0,0,0-.234-.149.362.362,0,1,0-.127.713" transform="translate(-300.808 -438.576)" fill="#fff"/>
        <path id="Trazado_1016564" data-name="Trazado 1016564" d="M2448.256,2404.593s7.885-10.159,12.183-11.573c7.16.742,3.267-.465,11.531.936,5.4.916,4.8,10.636,4.8,10.636Z" transform="translate(-2169.386 -2120.442)" fill="#42557d" fill-rule="evenodd"/>
        <path id="Trazado_1016565" data-name="Trazado 1016565" d="M2822.876,2405.3s7.42-10.16,11.463-11.573c6.738.741,3.075-.465,10.851.936,5.083.916,4.515,10.637,4.515,10.637Z" transform="translate(-2501.335 -2121.071)" fill="#42557d" fill-rule="evenodd"/>
        <path id="Trazado_1016566" data-name="Trazado 1016566" d="M2523.016,1341.373l42.666-1.8,12.853,122.2h-21.749l-11.027-86.795-7.809,86.795h-22.472Z" transform="translate(-2228.949 -1186.987)" fill="#104936" fill-rule="evenodd"/>
        <path id="Trazado_1016567" data-name="Trazado 1016567" d="M2799.542,1737.242h-7.188l-11.027-86.795Z" transform="translate(-2464.52 -1462.452)" fill="#24a77c" fill-rule="evenodd"/>
        <path id="Trazado_1016568" data-name="Trazado 1016568" d="M2523.016,1353.732l5.041-.213-8.415,120.616h-4.165Z" transform="translate(-2228.949 -1199.346)" fill="#24a77c" fill-rule="evenodd"/>
        <path id="Trazado_1016569" data-name="Trazado 1016569" d="M2008.39,1153.588h25.034l26.029,20.061h-25.034Z" transform="translate(-1779.624 -1022.188)" fill="#42557d" fill-rule="evenodd"/>
        <path id="Trazado_1016570" data-name="Trazado 1016570" d="M2059.332,1173.6h19.345l20.113,15.5h-19.345Z" transform="translate(-1824.763 -1039.919)" fill="#fff" fill-rule="evenodd"/>
        <rect id="Rectángulo_462306" data-name="Rectángulo 462306" width="114.484" height="1.928" transform="translate(294.826 268.379) rotate(-87.2)" fill="#24a77c"/>
        <path id="Trazado_1016571" data-name="Trazado 1016571" d="M2294.776,1095.6l-1.893-2.084s.081-4.318-1.038-5.815-2.222.329-2.388,2.305a6.976,6.976,0,0,1-2.568-2.35c-.792-1.435-4.507-.487-4.23,1.224s-1.624-.431-3.117,1.706-2.872,2.638-1.493,4.617,5.624,5.078,8.79,4.9l3.623,2.547Z" transform="translate(-2018.063 -963.145)" fill="#f79e86" fill-rule="evenodd"/>
        <rect id="Rectángulo_462307" data-name="Rectángulo 462307" width="25.157" height="4.238" transform="matrix(0.803, -0.596, 0.596, 0.803, 253.628, 135.794)" fill="#f7b761"/>
        <path id="Trazado_1016572" data-name="Trazado 1016572" d="M2210.461,1196.167l.922-2,.922-2,1.262,1.7,1.263,1.7-2.185.3Z" transform="translate(-1958.678 -1056.366)" fill="#fdc175" fill-rule="evenodd"/>
        <path id="Trazado_1016573" data-name="Trazado 1016573" d="M2210.461,1213.641l.811-1.762,1.111,1.5Z" transform="translate(-1958.678 -1073.84)" fill="#2c3b52" fill-rule="evenodd"/>
        <path id="Trazado_1016574" data-name="Trazado 1016574" d="M2428.183,932.831a6.41,6.41,0,0,1,11.258,6.132c-.057.106-19.987,36.872-30.324,35.659-5.883-.69-27.431-8.337-31.764-9.919l6.61-10.284c4.692,1.711,20.863,6.032,25.232,6.545,1.19,0,18.943-28.05,18.988-28.134" transform="translate(-2106.56 -823.613)" fill="#2c3b52" fill-rule="evenodd"/>
        <path id="Trazado_1016575" data-name="Trazado 1016575" d="M2738.878,799.781l2.151,13.668-11.274,3.785.912-12.648Z" transform="translate(-2418.82 -708.682)" fill="#f79e86" fill-rule="evenodd"/>
        <path id="Trazado_1016576" data-name="Trazado 1016576" d="M2670.471,687.686c5.093,0,9.222,4.449,9.222,9.939s-4.128,9.938-9.222,9.938a9.16,9.16,0,0,1-8.161-5.307c-.57.075-1.452.1-1.452.1l.4-4.223c-.007-.17-.011-.34-.011-.512,0-5.49,4.128-9.939,9.221-9.939" transform="translate(-2357.772 -609.355)" fill="#f79e86" fill-rule="evenodd"/>
        <path id="Trazado_1016577" data-name="Trazado 1016577" d="M2687.286,818.822a9.535,9.535,0,0,1-1.473-1.389l2.015-2.149a11.5,11.5,0,0,1-.543,3.538" transform="translate(-2379.884 -722.419)" fill="#fff" fill-rule="evenodd"/>
        <path id="Trazado_1016578" data-name="Trazado 1016578" d="M2743.634,836.449a5.032,5.032,0,0,1-3.567,3.047l.155-.532a4.636,4.636,0,0,0,2.785-2.722Z" transform="translate(-2427.958 -740.989)" fill="#ef725e" fill-rule="evenodd"/>
        <path id="Trazado_1016579" data-name="Trazado 1016579" d="M2652.184,663.17s.109,2.123,3.25,2.43,2.057,3.173,5.641,1.667c0,0,.032-1.371.871.626s.329,10.622,6.1,11.75,11.594-4.134,9.76-8.786-4.407-2.577-5.145-5.339-2.438-8.357-7.554-10.257-12.279,1.853-12.927,7.91" transform="translate(-2350.086 -580.182)" fill="#2c3b52" fill-rule="evenodd"/>
        <path id="Trazado_1016580" data-name="Trazado 1016580" d="M2747.229,612.157a4.278,4.278,0,1,1-2.286,5.6,4.279,4.279,0,0,1,2.286-5.6" transform="translate(-2431.982 -542.132)" fill="#2c3b52" fill-rule="evenodd"/>
        <path id="Trazado_1016581" data-name="Trazado 1016581" d="M2721.136,756.995c.835,0,1.515-1.325,1.515-2.949s-.68-2.949-1.515-2.949-1.515,1.325-1.515,2.949.68,2.949,1.515,2.949" transform="translate(-2409.841 -665.543)" fill="#f79e86" fill-rule="evenodd"/>
        <path id="Trazado_1016582" data-name="Trazado 1016582" d="M2675.214,765.2c.309,0,.561-.473.561-1.052s-.252-1.052-.561-1.052-.562.473-.562,1.052.252,1.052.562,1.052" transform="translate(-2369.995 -676.178)" fill="#253046" fill-rule="evenodd"/>
        <path id="Trazado_1016583" data-name="Trazado 1016583" d="M2681.555,764.341a.37.37,0,1,0-.37-.37.37.37,0,0,0,.37.37" transform="translate(-2375.784 -676.624)" fill="#fff" fill-rule="evenodd"/>
        <path id="Trazado_1016584" data-name="Trazado 1016584" d="M2592.544,919.373c2.015,1.432,7.035,51.679,7.035,51.679l-49.645-.135c1.586-14.417,3.92-38.721,8.807-51.22,1.287-3.293,30.516-2.659,33.8-.323" transform="translate(-2259.483 -812.922)" fill="#2c3b52" fill-rule="evenodd"/>
        <path id="Trazado_1016585" data-name="Trazado 1016585" d="M2602.35,920.861c.275.2.606,1.305.973,3.067l-.368.113-1.465,4.767-1.464-4.767-4.767-1.464,4.767-1.464.3-.973a6.269,6.269,0,0,1,2.026.722m4.265,26.3.077.656-3.738,1.148-1.465,4.767-1.464-4.767-4.767-1.464,4.767-1.465,1.464-4.767,1.465,4.767Zm1.439,12.7.023.211-.355-.109Zm-.679,12.672L2595.5,972.5l-.241-.074,4.767-1.465,1.464-4.767,1.465,4.767,4.767,1.465Zm-24.706-.068-12.319-.033-.017-.006,4.767-1.465,1.465-4.767,1.464,4.767,4.768,1.465ZM2561,960.927l1.636.5,1.464,4.767,1.465-4.767,4.767-1.465-4.767-1.464-1.465-4.768-1.464,4.768-1.406.432Zm2.813-20.59c.45-2.647.939-5.228,1.47-7.68l.282.918,4.767,1.465-4.767,1.464-1.465,4.767Zm11.864-21.106c.557-.049,1.137-.092,1.733-.129l.617,2.011,4.768,1.464-4.768,1.464-1.464,4.767-1.465-4.767-4.767-1.464,4.767-1.464Zm13.349,34.5-1.464,4.768-4.767,1.464,4.767,1.465,1.464,4.767,1.465-4.767,4.767-1.465-4.767-1.464Zm-12.462-12.462,1.464,4.767,4.768,1.465-4.768,1.464-1.464,4.767-1.465-4.767-4.767-1.464,4.767-1.465Zm12.462-12.463-1.464,4.767-4.767,1.465,4.767,1.464,1.464,4.767,1.465-4.767,4.767-1.464-4.767-1.465Z" transform="translate(-2269.289 -814.411)" fill="#87d3a7" fill-rule="evenodd"/>
        <path id="Trazado_1016586" data-name="Trazado 1016586" d="M2878.682,924.239c2.015,1.432,7.036,51.678,7.036,51.678l-4.991-.013c-.839-9.359-3.67-40.953-3.985-44.765-.217-2.623-2.244-5.932-3.888-8.226,2.894.331,5.063.782,5.827,1.326" transform="translate(-2545.621 -817.788)" fill="#3b4e6b" fill-rule="evenodd"/>
        <path id="Trazado_1016587" data-name="Trazado 1016587" d="M2183.991,1257.463l-3.667-.662s-1.682-4.19-3.37-5.175-2,1.223-1.36,3.193c0,0-5.987-1.2-7.335-2.262s-3.083.145-1.878,2.285-1.963,2.463-1.146,4.681-.637,3.607,1.5,4.95,7.484,2.6,10.461,1.138l4.676,1.367Z" transform="translate(-1918.483 -1108.844)" fill="#f79e86" fill-rule="evenodd"/>
        <path id="Trazado_1016588" data-name="Trazado 1016588" d="M2784.136,1416.365c0,.034.737,11.7-6.638,17.967l-1.316,4.111-2.33,2.724,1.9-7.685a.959.959,0,0,1,.309-.452c6.846-5.59,6.176-15.5,6.174-15.535Z" transform="translate(-2457.895 -1255.033)" fill="#24a77c" fill-rule="evenodd"/>
        <rect id="Rectángulo_462308" data-name="Rectángulo 462308" width="1.928" height="96.61" transform="translate(322.82 171.61) rotate(-6.906)" fill="#24a77c"/>
        <path id="Trazado_1016589" data-name="Trazado 1016589" d="M2335.136,927.256a6.409,6.409,0,0,1,12.757,1.256c-.012.12-4.026,41.748-14.017,44.661-5.686,1.658-28.51,3.02-33.117,3.253l2.077-12.047c4.987-.254,21.563-2.581,25.786-3.813,1.1-.46,6.5-33.216,6.514-33.311" transform="translate(-2038.69 -816.514)" fill="#2c3b52" fill-rule="evenodd"/>
        <path id="Trazado_1016590" data-name="Trazado 1016590" d="M2347.909,928.943a6.411,6.411,0,0,1,4.722-5.565,26.407,26.407,0,0,0-2.409,8.684c-.361,6.389-4.858,32.094-7.071,32.857-1.844.635-21.479,2.924-27.978,3.67l.436-2.523c4.986-.254,21.563-2.581,25.786-3.813,1.1-.46,6.5-33.216,6.514-33.311" transform="translate(-2051.462 -818.2)" fill="#3b4e6b" fill-rule="evenodd"/>
        <path id="Trazado_1016591" data-name="Trazado 1016591" d="M2387.056,1090.413l.169-2.33s-1.436-2.492-2.219-1.919-.422,4.852-.241,5.786,2.291-1.537,2.291-1.537" transform="translate(-2112.912 -962.368)" fill="#f79e86" fill-rule="evenodd"/>
        <path id="Trazado_1016592" data-name="Trazado 1016592" d="M2487.8,984.1c-.01.078-3.6,25.974-6.783,33.48a39.019,39.019,0,0,1-3.952,7.512,6.491,6.491,0,0,1-2.506,2.335c-1.048.443-15.88,1.967-15.924,1.972l-.472-.788c.042-.006,15.029-2,15.9-2.364a5.358,5.358,0,0,0,1.963-1.908,37.78,37.78,0,0,0,3.812-7.261c3.121-7.348,6.886-34.506,6.9-34.584Z" transform="translate(-2178.164 -870.578)" fill="#253046" fill-rule="evenodd"/>
        <path id="Trazado_1016593" data-name="Trazado 1016593" d="M1774.289,1578.832s-1.181-.68-2.149,1.439-29.32,65.815-30.579,70.223c2.507-3.837,32.079-66.976,33.047-69.095s-.319-2.567-.319-2.567m-5.89,12.9a33.9,33.9,0,0,1,2.077-6.351c1.4-3.063,2.4-5.606,3.215-5.234s-.452,2.794-1.851,5.857a33.928,33.928,0,0,1-3.44,5.728" transform="translate(-1543.188 -1398.902)" fill="#4a424f" fill-rule="evenodd"/>
        <path id="Trazado_1016594" data-name="Trazado 1016594" d="M1503.539,1581.159s1.1-.351,1.519,1.572,12.524,59.588,12.781,63.453c-1.389-3.617-14.6-61.037-15.02-62.961s.72-2.064.72-2.064m2.573,11.7a28.672,28.672,0,0,0-.586-5.616c-.611-2.78-.989-5.058-1.725-4.9s-.123,2.389.488,5.169a28.679,28.679,0,0,0,1.824,5.344" transform="translate(-1331.556 -1401.034)" fill="#4a424f" fill-rule="evenodd"/>
        <path id="Trazado_1016595" data-name="Trazado 1016595" d="M1343.963,1919.69a43.551,43.551,0,0,0-43.551,43.551c0,.587.015,1.17.038,1.752h87.024c.024-.582.038-1.166.038-1.752a43.55,43.55,0,0,0-43.55-43.551" transform="translate(-1152.288 -1701.027)" fill="#87d3a7" fill-rule="evenodd"/>
        <path id="Trazado_1016596" data-name="Trazado 1016596" d="M1343.962,1919.69a43.9,43.9,0,0,0-5,.287l-.25.335-5.094,6.832-3.806-5.1a43.5,43.5,0,0,0-14.267,8.194l2.789,3.74,5.094,6.832-5.094,6.831-5.094,6.832-5.094-6.832-3.044-4.081a43.364,43.364,0,0,0-4.694,19.685c0,.462.01.921.025,1.379l.278.373h4.681l2.754-3.693,5.094-6.831,5.094,6.831,2.754,3.693h4.681l2.754-3.693,5.095-6.831,5.094,6.831,2.754,3.693h4.681l2.754-3.693,5.095-6.831,5.095,6.831,2.754,3.693h4.681l2.754-3.693,5.095-6.831,5.094,6.831,2.754,3.693h4.681l.592-.794q.012-.478.012-.958a43.355,43.355,0,0,0-4.816-19.925l-3.223,4.322-5.094,6.832-5.095-6.832-5.094-6.831,5.094-6.832,2.906-3.9a43.5,43.5,0,0,0-14.322-8.121l-3.867,5.186-5.095-6.832-.278-.373a43.879,43.879,0,0,0-4.665-.25m-10.34,7.454,5.094,6.831,5.095,6.832-5.095,6.831-5.094,6.832-5.095-6.832-5.095-6.831,5.095-6.832Zm10.189,13.663,5.094-6.832,5.095-6.831,5.095,6.831,5.094,6.832-5.094,6.831-5.095,6.832-5.095-6.832Z" transform="translate(-1152.287 -1701.027)" fill="#96e6b7" fill-rule="evenodd"/>
        <path id="Trazado_1016597" data-name="Trazado 1016597" d="M1354.592,2302.032h-91.356a2.378,2.378,0,1,0,0,4.755h91.356a2.378,2.378,0,1,0,0-4.755" transform="translate(-1117.24 -2039.818)" fill="#658ec8" fill-rule="evenodd"/>
        <path id="Trazado_1016598" data-name="Trazado 1016598" d="M1243.054,1678.108s.977-.839,2.248.959,38.792,55.955,40.736,59.826c-3-3.123-41.558-56.548-42.829-58.346s-.155-2.44-.155-2.44m7.736,10.939a32.061,32.061,0,0,0-3.044-5.532c-1.837-2.6-3.216-4.783-3.905-4.3s.911,2.515,2.748,5.113a32.048,32.048,0,0,0,4.2,4.714" transform="translate(-1101.062 -1486.789)" fill="#4a424f" fill-rule="evenodd"/>
        <path id="Trazado_1016599" data-name="Trazado 1016599" d="M1890.731,1788.07s.849.457-.066,1.83-28.683,42.18-30.867,44.581c1.375-2.94,28.353-44.274,29.269-45.646s1.664-.765,1.664-.765" transform="translate(-1647.958 -1584.28)" fill="#4a424f" fill-rule="evenodd"/>
        <path id="Trazado_1016600" data-name="Trazado 1016600" d="M2105.012,1757.7a3.647,3.647,0,1,0,1.012,5.058,3.647,3.647,0,0,0-1.012-5.058" transform="translate(-1860.215 -1556.948)" fill="#1e3a8a" fill-rule="evenodd"/>
        <path id="Trazado_1016601" data-name="Trazado 1016601" d="M1628.112,1520.461s.945-.194,1.124,1.446,5.048,50.758,4.912,54c-.83-3.138-6.644-52.153-6.822-53.793s.786-1.654.786-1.654" transform="translate(-1441.945 -1347.266)" fill="#4a424f" fill-rule="evenodd"/>
        <path id="Trazado_1016602" data-name="Trazado 1016602" d="M1605.631,1488.516a3.647,3.647,0,1,0,4.02,3.231,3.646,3.646,0,0,0-4.02-3.231" transform="translate(-1419.858 -1318.947)" fill="#1e3a8a" fill-rule="evenodd"/>
        <path id="Trazado_1016603" data-name="Trazado 1016603" d="M2503.544,1208.26l-.269-1.257,4.308-.924c.368-1.176,1.209-4.637,1.738-6.908l1.253.291c-.153.655-1.5,6.426-1.907,7.414a.643.643,0,0,1-.461.385Z" transform="translate(-2218.138 -1062.578)" fill="#253046"/>
        <path id="Trazado_1016604" data-name="Trazado 1016604" d="M654.517,25.008a12.5,12.5,0,1,1,12.5-12.5,12.518,12.518,0,0,1-12.5,12.5m0-23.722A11.218,11.218,0,1,0,665.735,12.5,11.231,11.231,0,0,0,654.517,1.286" transform="translate(-568.885 0)" fill="#fff"/>
        <path id="Trazado_1016605" data-name="Trazado 1016605" d="M675.89,43.632a9.757,9.757,0,1,1,9.756-9.756,9.767,9.767,0,0,1-9.756,9.756m0-18.227a8.471,8.471,0,1,0,8.47,8.471,8.48,8.48,0,0,0-8.47-8.471" transform="translate(-590.258 -21.372)" fill="#fff"/>
        <path id="Trazado_1016606" data-name="Trazado 1016606" d="M720.429,79.776a1.648,1.648,0,1,1,1.647-1.648,1.65,1.65,0,0,1-1.647,1.648m0-2.01a.362.362,0,1,0,.362.362.363.363,0,0,0-.362-.362" transform="translate(-636.907 -67.769)" fill="#fff"/>
        <path id="Trazado_1016607" data-name="Trazado 1016607" d="M757.489,79.776a1.648,1.648,0,1,1,1.648-1.648,1.65,1.65,0,0,1-1.648,1.648m0-2.01a.362.362,0,1,0,.363.362.362.362,0,0,0-.363-.362" transform="translate(-669.747 -67.769)" fill="#fff"/>
        <path id="Trazado_1016608" data-name="Trazado 1016608" d="M720.429,117.432a1.648,1.648,0,1,1,1.647-1.649,1.65,1.65,0,0,1-1.647,1.649m0-2.01a.362.362,0,1,0,.362.362.363.363,0,0,0-.362-.362" transform="translate(-636.907 -101.135)" fill="#fff"/>
        <path id="Trazado_1016609" data-name="Trazado 1016609" d="M757.487,117.427a1.624,1.624,0,0,1-.285-.025h0a1.648,1.648,0,1,1,.286.025m-.063-1.291a.362.362,0,1,0-.294-.419.363.363,0,0,0,.294.419" transform="translate(-669.745 -101.13)" fill="#fff"/>
        <path id="Trazado_1016610" data-name="Trazado 1016610" d="M2482.015,283.6a12.5,12.5,0,1,1,12.5-12.5,12.518,12.518,0,0,1-12.5,12.5m0-23.722a11.218,11.218,0,1,0,11.218,11.218,11.231,11.231,0,0,0-11.218-11.218" transform="translate(-2188.22 -229.141)" fill="#fff"/>
        <path id="Trazado_1016611" data-name="Trazado 1016611" d="M2503.386,302.229a9.757,9.757,0,1,1,9.757-9.756,9.767,9.767,0,0,1-9.757,9.756m0-18.227a8.471,8.471,0,1,0,8.471,8.471,8.481,8.481,0,0,0-8.471-8.471" transform="translate(-2209.591 -250.513)" fill="#fff"/>
        <path id="Trazado_1016612" data-name="Trazado 1016612" d="M2547.934,338.373a1.648,1.648,0,1,1,1.649-1.648,1.65,1.65,0,0,1-1.649,1.648m0-2.01a.362.362,0,1,0,.363.362.362.362,0,0,0-.363-.362" transform="translate(-2256.251 -296.91)" fill="#fff"/>
        <path id="Trazado_1016613" data-name="Trazado 1016613" d="M2584.985,338.373a1.648,1.648,0,1,1,1.649-1.648,1.65,1.65,0,0,1-1.649,1.648m0-2.01a.362.362,0,1,0,.363.362.363.363,0,0,0-.363-.362" transform="translate(-2289.081 -296.91)" fill="#fff"/>
        <path id="Trazado_1016614" data-name="Trazado 1016614" d="M2547.934,376.028a1.648,1.648,0,1,1,1.649-1.648,1.65,1.65,0,0,1-1.649,1.648m0-2.01a.362.362,0,1,0,.363.362.362.362,0,0,0-.363-.362" transform="translate(-2256.251 -330.276)" fill="#fff"/>
        <path id="Trazado_1016615" data-name="Trazado 1016615" d="M2585,376.02a1.668,1.668,0,0,1-.289-.025h0a1.648,1.648,0,0,1-.658-2.973,1.617,1.617,0,0,1,1.231-.272,1.648,1.648,0,0,1-.284,3.271m-.065-1.291a.374.374,0,0,0,.271-.061.361.361,0,0,0,.088-.5.362.362,0,0,0-.5-.089.361.361,0,0,0-.15.234.365.365,0,0,0,.294.42" transform="translate(-2289.089 -330.267)" fill="#fff"/>
        <path id="Trazado_1016616" data-name="Trazado 1016616" d="M3094.295,85.813a12.5,12.5,0,1,1,12.5-12.5,12.518,12.518,0,0,1-12.5,12.5m0-23.722a11.218,11.218,0,1,0,11.218,11.218,11.231,11.231,0,0,0-11.218-11.218" transform="translate(-2730.758 -53.879)" fill="#fff"/>
        <path id="Trazado_1016617" data-name="Trazado 1016617" d="M3115.656,104.437a9.757,9.757,0,1,1,9.756-9.756,9.767,9.767,0,0,1-9.756,9.756m0-18.227a8.471,8.471,0,1,0,8.47,8.471,8.481,8.481,0,0,0-8.47-8.471" transform="translate(-2752.12 -75.251)" fill="#fff"/>
        <path id="Trazado_1016618" data-name="Trazado 1016618" d="M3160.207,140.581a1.648,1.648,0,1,1,1.648-1.648,1.651,1.651,0,0,1-1.648,1.648m0-2.01a.362.362,0,1,0,.362.362.364.364,0,0,0-.362-.362" transform="translate(-2798.781 -121.647)" fill="#fff"/>
        <path id="Trazado_1016619" data-name="Trazado 1016619" d="M3197.265,140.581a1.648,1.648,0,1,1,1.648-1.648,1.65,1.65,0,0,1-1.648,1.648m0-2.01a.362.362,0,1,0,.363.362.363.363,0,0,0-.363-.362" transform="translate(-2831.619 -121.647)" fill="#fff"/>
        <path id="Trazado_1016620" data-name="Trazado 1016620" d="M3160.207,178.236a1.648,1.648,0,1,1,1.648-1.648,1.651,1.651,0,0,1-1.648,1.648m0-2.01a.362.362,0,1,0,.362.362.364.364,0,0,0-.362-.362" transform="translate(-2798.781 -155.013)" fill="#fff"/>
        <path id="Trazado_1016621" data-name="Trazado 1016621" d="M3197.264,178.234a1.63,1.63,0,0,1-.285-.024h0a1.648,1.648,0,0,1-.659-2.973,1.648,1.648,0,0,1,2.569,1.636,1.651,1.651,0,0,1-1.624,1.362m-.063-1.291a.362.362,0,0,0,.361-.564.363.363,0,0,0-.5-.089.362.362,0,0,0,.144.653" transform="translate(-2831.618 -155.011)" fill="#fff"/>
        <path id="Trazado_1016622" data-name="Trazado 1016622" d="M3146.678,870.448a12.5,12.5,0,1,1,12.5-12.5,12.518,12.518,0,0,1-12.5,12.5m0-23.722a11.218,11.218,0,1,0,11.218,11.219,11.231,11.231,0,0,0-11.218-11.219" transform="translate(-2777.174 -749.141)" fill="#fff"/>
        <path id="Trazado_1016623" data-name="Trazado 1016623" d="M3168.05,889.074a9.756,9.756,0,1,1,9.756-9.756,9.768,9.768,0,0,1-9.756,9.756m0-18.227a8.471,8.471,0,1,0,8.47,8.471,8.481,8.481,0,0,0-8.47-8.471" transform="translate(-2798.545 -770.513)" fill="#fff"/>
        <path id="Trazado_1016624" data-name="Trazado 1016624" d="M3212.61,925.217a1.648,1.648,0,1,1,1.648-1.648,1.65,1.65,0,0,1-1.648,1.648m0-2.01a.362.362,0,1,0,.362.362.362.362,0,0,0-.362-.362" transform="translate(-2845.217 -816.909)" fill="#fff"/>
        <path id="Trazado_1016625" data-name="Trazado 1016625" d="M3249.659,925.217a1.648,1.648,0,1,1,1.649-1.648,1.65,1.65,0,0,1-1.649,1.648m0-2.01a.362.362,0,1,0,.363.362.362.362,0,0,0-.363-.362" transform="translate(-2878.045 -816.909)" fill="#fff"/>
        <path id="Trazado_1016626" data-name="Trazado 1016626" d="M3212.61,962.873a1.648,1.648,0,1,1,1.648-1.648,1.65,1.65,0,0,1-1.648,1.648m0-2.01a.362.362,0,1,0,.362.362.362.362,0,0,0-.362-.362" transform="translate(-2845.217 -850.276)" fill="#fff"/>
        <path id="Trazado_1016627" data-name="Trazado 1016627" d="M3249.658,962.868a1.617,1.617,0,0,1-.285-.024h0a1.647,1.647,0,0,1-.658-2.973,1.648,1.648,0,0,1,2.568,1.636,1.652,1.652,0,0,1-1.624,1.362m-.063-1.291a.362.362,0,1,0-.293-.419.36.36,0,0,0,.293.419" transform="translate(-2878.044 -850.271)" fill="#fff"/>
      </g>
    </g>
  </g>
</svg>
