<svg xmlns="http://www.w3.org/2000/svg" width="98" height="98" viewBox="0 0 98 98">
  <g id="Grupo_1196065" data-name="Grupo 1196065" transform="translate(-951.254 -11109.951)">
    <g id="Grupo_1195281" data-name="Grupo 1195281" transform="translate(319.254 2564.57)">
      <g id="Grupo_1102209" data-name="Grupo 1102209" transform="translate(-19.771 1552.381)">
        <rect id="Rectángulo_403454" data-name="Rectángulo 403454" width="98" height="98" rx="18" transform="translate(651.771 6993)" fill="#fff"/>
      </g>
      <g id="patron-de-tela" transform="translate(643.767 8505.95)">
        <path id="Trazado_1016676" data-name="Trazado 1016676" d="M168.962,216.441H125.222a2.4,2.4,0,0,1-2.4-2.4V197.351h48.534v16.693A2.4,2.4,0,0,1,168.962,216.441Z" transform="translate(-104.428 -115.399)" fill="#24a77c"/>
        <path id="Trazado_1016677" data-name="Trazado 1016677" d="M102.317,69.12c-4.769,0-8.636,5.144-8.636,11.489S97.547,92.1,102.317,92.1h44.264V69.12Z" transform="translate(-79.649 -6.375)" fill="#2ed19b"/>
        <ellipse id="Elipse_13681" data-name="Elipse 13681" cx="8.636" cy="11.489" rx="8.636" ry="11.489" transform="translate(58.296 62.745)" fill="#c0f1e1"/>
        <path id="Trazado_1016679" data-name="Trazado 1016679" d="M82.777,334.521H39.037a2.4,2.4,0,0,1-2.4-2.4V315.431H85.174v16.693a2.4,2.4,0,0,1-2.4,2.4Z" transform="translate(-31.152 -215.792)" fill="#bbc3dc"/>
        <path id="Trazado_1016681" data-name="Trazado 1016681" d="M16.132,187.2c-4.769,0-8.636,5.144-8.636,11.489s3.866,11.489,8.636,11.489H60.4V187.2Z" transform="translate(-6.373 -106.768)" fill="#bbc3dc"/>
        <ellipse id="Elipse_13682" data-name="Elipse 13682" cx="8.636" cy="11.489" rx="8.636" ry="11.489" transform="translate(45.386 80.432)" fill="#1e3a8a"/>
        <path id="Trazado_1016683" data-name="Trazado 1016683" d="M408.4,72.486a14.271,14.271,0,0,1,1.415,6.3c0,6.345-3.866,11.489-8.636,11.489a6.681,6.681,0,0,1-2.535-.5c1.543,3.125,4.2,5.189,7.221,5.189,4.77,0,8.636-5.144,8.636-11.489C414.5,78.3,411.929,73.927,408.4,72.486Z" transform="translate(-338.93 -9.237)" fill="#24a77c"/>
        <ellipse id="Elipse_13683" data-name="Elipse 13683" cx="4.862" cy="6.469" rx="4.862" ry="6.469" transform="translate(62.069 67.765)" fill="#24a77c"/>
        <path id="Trazado_1016685" data-name="Trazado 1016685" d="M322.213,190.566a14.271,14.271,0,0,1,1.415,6.3c0,6.345-3.866,11.489-8.636,11.489a6.681,6.681,0,0,1-2.535-.5c1.543,3.125,4.2,5.189,7.221,5.189,4.77,0,8.636-5.144,8.636-11.489C328.314,196.38,325.745,192.007,322.213,190.566Z" transform="translate(-265.655 -109.63)" fill="#182e6e"/>
        <ellipse id="Elipse_13684" data-name="Elipse 13684" cx="4.862" cy="6.469" rx="4.862" ry="6.469" transform="translate(49.16 85.452)" fill="#bbc3dc"/>
        <path id="Trazado_1016687" data-name="Trazado 1016687" d="M73.936,65.436a8.773,8.773,0,0,0-7-3.814H22.668a8.772,8.772,0,0,0-7,3.814,14.681,14.681,0,0,0-2.755,8.8,15.884,15.884,0,0,0,.818,5.074H9.759a8.772,8.772,0,0,0-7,3.813,15.43,15.43,0,0,0,0,17.6,10.9,10.9,0,0,0,1.61,1.727v13.886a3.523,3.523,0,0,0,3.519,3.52H51.626a3.524,3.524,0,0,0,3.52-3.52v-.785a1.123,1.123,0,1,0-2.246,0v.785a1.275,1.275,0,0,1-1.274,1.274H7.885a1.275,1.275,0,0,1-1.273-1.274V103.869a7.842,7.842,0,0,0,3.148.665H52.9v6.235a1.123,1.123,0,0,0,2.246,0v-6.319a8.5,8.5,0,0,0,4.584-2.284h4.806a3.524,3.524,0,0,0,3.52-3.52V86.763a9.041,9.041,0,0,0,5.881-3.729,15.43,15.43,0,0,0,0-17.6ZM54.022,102.287H9.759c-4.143,0-7.513-4.65-7.513-10.366s3.37-10.366,7.513-10.366H20.482a1.123,1.123,0,0,0,0-2.246H16.123a13.416,13.416,0,0,1-.968-5.074c0-5.716,3.37-10.367,7.513-10.367H61.356a11,11,0,0,0-1.428,1.568,14.682,14.682,0,0,0-2.755,8.8,15.465,15.465,0,0,0,1.392,6.509,8.031,8.031,0,0,0-4.542-1.435H25.2a1.123,1.123,0,0,0,0,2.246H48.447a11.01,11.01,0,0,0-1.428,1.567,14.682,14.682,0,0,0-2.755,8.8,15.141,15.141,0,0,0,1.886,7.471A1.123,1.123,0,1,0,48.1,98.284a12.9,12.9,0,0,1-1.593-6.363c0-5.716,3.37-10.366,7.513-10.366s7.513,4.65,7.513,10.366-3.37,10.366-7.513,10.366ZM64.535,99.92H61.577a14.979,14.979,0,0,0,2.2-8,15.465,15.465,0,0,0-1.392-6.51,8.168,8.168,0,0,0,3.419,1.351V98.646a1.275,1.275,0,0,1-1.273,1.274Zm2.4-15.319c-4.143,0-7.513-4.65-7.513-10.366s3.37-10.367,7.513-10.367,7.513,4.65,7.513,10.367S71.074,84.6,66.932,84.6Z" transform="translate(0 0)"/>
        <path id="Trazado_1016688" data-name="Trazado 1016688" d="M412.874,95.139c-3.3,0-5.985,3.406-5.985,7.592s2.685,7.592,5.985,7.592,5.985-3.406,5.985-7.592-2.685-7.592-5.985-7.592Zm0,12.938c-2.027,0-3.74-2.448-3.74-5.346s1.712-5.346,3.74-5.346,3.74,2.448,3.74,5.346S414.9,108.077,412.874,108.077Z" transform="translate(-345.943 -28.497)"/>
        <path id="Trazado_1016689" data-name="Trazado 1016689" d="M439.37,134.124c-.728,0-1.318.785-1.318,1.753s.59,1.753,1.318,1.753,1.318-.785,1.318-1.753S440.1,134.124,439.37,134.124Z" transform="translate(-372.439 -61.642)"/>
        <path id="Trazado_1016690" data-name="Trazado 1016690" d="M326.689,213.219c-3.3,0-5.985,3.406-5.985,7.592s2.685,7.592,5.985,7.592,5.985-3.406,5.985-7.592S329.99,213.219,326.689,213.219Zm0,12.938c-2.027,0-3.74-2.448-3.74-5.346s1.713-5.346,3.74-5.346,3.74,2.448,3.74,5.346S328.716,226.157,326.689,226.157Z" transform="translate(-272.667 -128.89)"/>
        <path id="Trazado_1016691" data-name="Trazado 1016691" d="M353.186,252.2c-.728,0-1.318.785-1.318,1.753s.59,1.753,1.318,1.753,1.318-.785,1.318-1.753S353.913,252.2,353.186,252.2Z" transform="translate(-299.163 -162.035)"/>
      </g>
    </g>
  </g>
</svg>
