<svg xmlns="http://www.w3.org/2000/svg" width="98" height="98" viewBox="0 0 98 98">
  <g id="Grupo_1196069" data-name="Grupo 1196069" transform="translate(-1216.5 -11557.951)">
    <g id="Grupo_1195854" data-name="Grupo 1195854">
      <g id="Grupo_1195286" data-name="Grupo 1195286" transform="translate(584.5 3012.57)">
        <g id="Grupo_1102209" data-name="Grupo 1102209" transform="translate(-19.771 1552.381)">
          <rect id="Rectángulo_403454" data-name="Rectángulo 403454" width="98" height="98" rx="18" transform="translate(651.771 6993)" fill="#fff"/>
        </g>
      </g>
      <g id="vestido" transform="translate(1199.443 11566)">
        <g id="Grupo_1195852" data-name="Grupo 1195852" transform="translate(34.391 1.235)">
          <g id="Grupo_1195850" data-name="Grupo 1195850">
            <path id="Trazado_1016628" data-name="Trazado 1016628" d="M125.854,40.435l-1.364-15-5.456-1.364H94.481l-5.456,1.364-1.364,15a8.173,8.173,0,0,0,3.6,6.777,1.338,1.338,0,0,1,.582.91L93.117,56.8l13.641,2.728L120.4,56.8l1.275-8.681a1.339,1.339,0,0,1,.582-.91,8.173,8.173,0,0,0,3.6-6.777Z" transform="translate(-79.92 -21.339)" fill="#bbc3dc"/>
            <path id="Trazado_1016630" data-name="Trazado 1016630" d="M81.13,242.161l13.112,35.947a1.364,1.364,0,0,1-.948,1.8,106.393,106.393,0,0,1-51.607,0,1.364,1.364,0,0,1-.948-1.8l13.112-35.947,13.641-2.728Z" transform="translate(-40.652 -201.24)" fill="#bbc3dc"/>
            <g id="Grupo_1195847" data-name="Grupo 1195847" transform="translate(13.344)">
              <path id="Trazado_1016632" data-name="Trazado 1016632" d="M144.729,7.5l2.59,2.59a.658.658,0,0,1,.179.33l1.163,5.5a1.364,1.364,0,0,1-.919,1.487l-5.869,1.956a.682.682,0,0,0-.193,1.193l3.688,2.766a1.366,1.366,0,0,1,.485,1.494,14.7,14.7,0,0,1-10.67,9.963,14.7,14.7,0,0,1-10.67-9.963A1.366,1.366,0,0,1,125,23.323l3.688-2.766a.682.682,0,0,0-.193-1.193l-5.869-1.956a1.364,1.364,0,0,1-.919-1.487l1.163-5.5a.659.659,0,0,1,.179-.33l2.59-2.59,9.548,1.894Z" transform="translate(-121.687 -7.5)" fill="#eef1f3"/>
              <path id="Trazado_1016634" data-name="Trazado 1016634" d="M154.054,21.918,145.644,7.5h19.1l-8.41,14.418A1.317,1.317,0,0,1,154.054,21.918Z" transform="translate(-141.699 -7.5)" fill="#182e6e"/>
            </g>
            <g id="Grupo_1195849" data-name="Grupo 1195849" transform="translate(13.197 33.592)">
              <path id="Trazado_1016635" data-name="Trazado 1016635" d="M126.25,222.867h-5.456v5.456h27.281v-5.456H126.25Z" transform="translate(-120.794 -220.994)" fill="#eef1f3"/>
              <g id="Grupo_1195848" data-name="Grupo 1195848" transform="translate(5.456)">
                <path id="Trazado_1016636" data-name="Trazado 1016636" d="M163.729,213.9l4.6-2.263a1.364,1.364,0,0,1,1.966,1.224v6.471a1.364,1.364,0,0,1-1.974,1.22l-4.563-2.281-3.267.022-4.6,2.263a1.364,1.364,0,0,1-1.966-1.224v-6.471a1.364,1.364,0,0,1,1.974-1.22l4.563,2.281Z" transform="translate(-153.926 -211.492)" fill="#2ed19b"/>
                <circle id="Elipse_13677" data-name="Elipse 13677" cx="2.728" cy="2.728" r="2.728" transform="translate(4.319 4.601) rotate(-45)" fill="#2ed19b"/>
              </g>
              <path id="Trazado_1016637" data-name="Trazado 1016637" d="M263.46,222.867h3.787v5.456H263.46Z" transform="translate(-239.967 -220.994)" fill="#cadae6"/>
            </g>
          </g>
          <g id="Grupo_1195851" data-name="Grupo 1195851" transform="translate(47.216 32.907)">
            <path id="Trazado_1016638" data-name="Trazado 1016638" d="M350.293,222.532l-7.716,7.716a2.728,2.728,0,0,1-3.858,0l-10.542-10.542a2.728,2.728,0,0,1-.746-2.464l1.286-6.43a2.728,2.728,0,0,1,2.14-2.14l6.43-1.286a2.728,2.728,0,0,1,2.464.746l10.542,10.542A2.728,2.728,0,0,1,350.293,222.532Z" transform="translate(-327.378 -207.333)" fill="#2ed19b"/>
            <path id="Trazado_1016639" data-name="Trazado 1016639" d="M466.533,299.631Z" transform="translate(-443.618 -284.432)" fill="#2ed19b"/>
          </g>
        </g>
        <g id="Grupo_1195853" data-name="Grupo 1195853" transform="translate(33.157 0)">
          <path id="Trazado_1016640" data-name="Trazado 1016640" d="M105.4,44.609,94.853,34.068a3.956,3.956,0,0,0-3.579-1.084l-6.43,1.286a3.982,3.982,0,0,0-1.011.351L77.372,28.16a9.417,9.417,0,0,0,4.188-7.829c0-.037,0-.075-.005-.112l-1.364-15a1.235,1.235,0,0,0-.93-1.087L74.136,2.848,71.65.362A1.235,1.235,0,0,0,70.777,0H51.68a1.236,1.236,0,0,0-.873.362L48.321,2.848,43.2,4.129a1.235,1.235,0,0,0-.93,1.087L41.995,8.2a1.235,1.235,0,0,0,1.118,1.342c.038,0,.076.005.113.005a1.235,1.235,0,0,0,1.228-1.123l.192-2.112,2.689-.672L46.541,9.4q-.008.04-.014.081a2.6,2.6,0,0,0,1.751,2.834l4.868,1.623L50.3,16.07a2.61,2.61,0,0,0-.925,2.843A15.846,15.846,0,0,0,59.993,29.442v6.221a3.923,3.923,0,0,0-.463.185l-3.96-1.98a2.6,2.6,0,0,0-3.658,1.6H48.655L47.763,29.4a9.389,9.389,0,0,0,2.553.355,1.235,1.235,0,0,0,0-2.47,6.957,6.957,0,0,1-6.949-6.9l.638-7.02a1.235,1.235,0,1,0-2.46-.223L40.9,20.22q-.005.056-.005.112a9.417,9.417,0,0,0,4.188,7.829l1.268,8.63v5.148L33.318,77.674A2.6,2.6,0,0,0,35.125,81.1c2.213.553,4.474,1.042,6.719,1.453a1.235,1.235,0,0,0,.445-2.43c-2.194-.4-4.4-.88-6.565-1.42a.124.124,0,0,1-.083-.065.128.128,0,0,1,0-.111l.927-2.54a107.777,107.777,0,0,0,24.665,2.855,107.778,107.778,0,0,0,24.665-2.855l.929,2.546a.125.125,0,0,1-.007.105.124.124,0,0,1-.083.065,104.706,104.706,0,0,1-39.609,2.189,1.235,1.235,0,1,0-.331,2.448,107.9,107.9,0,0,0,14.484.98A107.266,107.266,0,0,0,87.332,81.1a2.6,2.6,0,0,0,1.809-3.418L76.1,41.939V36.787l.82-5.58,5.162,5.161a3.971,3.971,0,0,0-.351,1.011l-1.286,6.43a3.955,3.955,0,0,0,1.084,3.58L92.074,57.931a3.963,3.963,0,0,0,5.6,0l7.716-7.716a3.964,3.964,0,0,0,0-5.605ZM79.09,20.385a6.957,6.957,0,0,1-6.949,6.9,1.235,1.235,0,1,0,0,2.47,9.387,9.387,0,0,0,2.553-.355L73.8,35.465H70.544a2.6,2.6,0,0,0-3.643-1.6l-4.007,1.972a3.923,3.923,0,0,0-.43-.17V29.442A15.848,15.848,0,0,0,73.08,18.913a2.61,2.61,0,0,0-.925-2.843l-2.844-2.133,4.868-1.623a2.6,2.6,0,0,0,1.751-2.833c0-.027-.009-.054-.014-.081L75.122,5.64l2.689.672ZM64.784,41.175a3.951,3.951,0,0,0-.01-3.515l3.217-1.584a.129.129,0,0,1,.186.116v6.471a.129.129,0,0,1-.187.115Zm-5.049-1.747a1.493,1.493,0,1,1,1.493,1.493A1.495,1.495,0,0,1,59.735,39.428Zm11.3-36.187,1.336,1.336L73.487,9.85a.129.129,0,0,1-.088.122l-5.869,1.956a1.917,1.917,0,0,0-.544,3.353l3.688,2.766a.131.131,0,0,1,.045.145,13.374,13.374,0,0,1-8.254,8.639V17.938Zm-.389,34.694h2.987v2.986H70.648ZM68.626,2.47l-7.4,12.682L53.83,2.47ZM51.739,18.192a.132.132,0,0,1,.045-.145l3.688-2.766a1.917,1.917,0,0,0-.544-3.352L49.059,9.972a.129.129,0,0,1-.088-.121l1.114-5.273,1.336-1.336,8.573,14.7v8.893a13.372,13.372,0,0,1-8.254-8.639Zm2.54,18a.129.129,0,0,1,.187-.115l3.206,1.6a3.952,3.952,0,0,0,.01,3.515l-3.218,1.584a.118.118,0,0,1-.125-.006.119.119,0,0,1-.061-.11Zm-5.456,1.742h2.986v2.986H48.823ZM37.415,73.65,48.452,43.391h3.461a2.606,2.606,0,0,0,2.494,1.873,2.544,2.544,0,0,0,.269-.015L53.2,52.832a1.235,1.235,0,1,0,2.424.473l1.8-9.228,2.142-1.054a3.954,3.954,0,0,0,3.363-.015l2.106,1.053,1.8,9.244a1.235,1.235,0,0,0,2.424-.473l-1.48-7.582a2.6,2.6,0,0,0,2.763-1.858H74L85.042,73.65a105.613,105.613,0,0,1-47.626,0Zm66.233-25.183-7.716,7.716a1.493,1.493,0,0,1-2.111,0L83.279,45.642a1.489,1.489,0,0,1-.408-1.349l1.19-5.95,2.226,2.226a1.235,1.235,0,0,0,1.747-1.747L85.808,36.6l5.95-1.19a1.491,1.491,0,0,1,1.348.408l10.542,10.542a1.493,1.493,0,0,1,0,2.111Z" transform="translate(-33.157 0)"/>
        </g>
      </g>
    </g>
  </g>
</svg>
