<svg xmlns="http://www.w3.org/2000/svg" width="141.688" height="141.688" viewBox="0 0 141.688 141.688">
  <g id="Grupo_1196046" data-name="Grupo 1196046" transform="translate(-729.742 -2017.969)">
    <g id="Grupo_1194305" data-name="Grupo 1194305" transform="translate(354.996 -4491.27)">
      <g id="Grupo_1177320" data-name="Grupo 1177320" transform="translate(-1.98 -1379.43)">
        <g id="Grupo_1177319" data-name="Grupo 1177319" transform="translate(-327.941 1733.668)">
          <rect id="Rectángulo_402033" data-name="Rectángulo 402033" width="141.688" height="141.688" rx="5" transform="translate(704.668 6155)" fill="#104936"/>
        </g>
      </g>
      <path id="ropa-limpia" d="M50.076,66.519A4.12,4.12,0,1,0,54.2,70.647,4.127,4.127,0,0,0,50.076,66.519Zm0,5.616a1.5,1.5,0,0,1,0-2.992,1.5,1.5,0,1,1,0,2.992Zm0-20.075A4.12,4.12,0,1,0,54.2,56.187,4.127,4.127,0,0,0,50.076,52.06Zm0,5.63a1.5,1.5,0,1,1,1.5-1.5,1.5,1.5,0,0,1-1.5,1.5Zm0-20.09A4.12,4.12,0,1,0,54.2,41.728,4.127,4.127,0,0,0,50.076,37.6Zm0,5.63a1.5,1.5,0,1,1,1.5-1.5A1.5,1.5,0,0,1,50.076,43.231ZM88.5,23.568l-.678-.251A8.763,8.763,0,0,0,82.518,17.6l-.678-.251a8.851,8.851,0,0,0-5.306-5.734L64.256,6.957a4.419,4.419,0,0,0-1.327-2.594L59.672,1.238A4.384,4.384,0,0,0,56.68,0H25.638a4.353,4.353,0,0,0-3.007,1.238L19.374,4.363a4.419,4.419,0,0,0-1.326,2.594L5.755,11.615A8.888,8.888,0,0,0,.08,19.869V73.55a8.848,8.848,0,0,0,6.338,8.475,8.819,8.819,0,0,0,5.984,5.97,8.8,8.8,0,0,0,8.446,6.338H85.363a8.819,8.819,0,0,0,8.814-8.814v-53.7A8.888,8.888,0,0,0,88.5,23.568ZM63.652,9.831c.044-.088.088-.162.133-.251l11.821,4.481A6.249,6.249,0,0,1,79.6,19.869V73.55a6.2,6.2,0,0,1-6.191,6.205H42.46V25.519l2.782,3.43A4.411,4.411,0,0,0,48.676,30.6a1.974,1.974,0,0,0,.295-.015,4.476,4.476,0,0,0,3.493-2.122ZM56.414,2.638a1.8,1.8,0,0,1,.8.088,1.758,1.758,0,0,1,.649.4L61.116,6.25a1.291,1.291,0,0,1,.28.354,1.783,1.783,0,0,1,.015,1.872l-.457.752L50.209,27.106a1.779,1.779,0,0,1-1.415.87,1.855,1.855,0,0,1-1.518-.663L42.81,21.785l-.029-.044L55.117,3.42a1.783,1.783,0,0,1,1.3-.781Zm-3.906-.015L41.159,19.471,29.795,2.624ZM20.907,6.6a1.291,1.291,0,0,1,.28-.354l3.257-3.125a1.978,1.978,0,0,1,.649-.4,1.6,1.6,0,0,1,.59-.1.973.973,0,0,1,.206.015,1.839,1.839,0,0,1,1.3.781L39.523,21.741l-.03.044-4.466,5.527a1.823,1.823,0,0,1-1.533.663,1.768,1.768,0,0,1-1.4-.87L21.349,9.227l-.457-.752A1.783,1.783,0,0,1,20.907,6.6ZM2.689,73.55V19.869A6.241,6.241,0,0,1,6.7,14.061L18.5,9.581c.044.088.088.162.133.251l11.2,18.631a4.449,4.449,0,0,0,3.479,2.122,2.175,2.175,0,0,0,.31.015,4.411,4.411,0,0,0,3.434-1.651l2.771-3.434.007-.009v54.25H8.894A6.215,6.215,0,0,1,2.689,73.55Zm6.692,8.829H73.409a8.832,8.832,0,0,0,8.814-8.829V20.34a6.224,6.224,0,0,1,3.361,5.5v53.7a6.215,6.215,0,0,1-6.205,6.205h-64.5a6.188,6.188,0,0,1-5.5-3.361Zm82.188,3.139a6.2,6.2,0,0,1-6.205,6.191H20.848a6.188,6.188,0,0,1-5.5-3.361H79.379a8.832,8.832,0,0,0,8.829-8.814V26.325a6.207,6.207,0,0,1,3.361,5.5Z" transform="translate(398.207 6532.916)" fill="#c0f1e1"/>
    </g>
  </g>
</svg>
