<svg xmlns="http://www.w3.org/2000/svg" xmlns:xlink="http://www.w3.org/1999/xlink" width="396.001" height="341.37" viewBox="0 0 396.001 341.37">
  <defs>
    <clipPath id="clip-path">
      <rect id="Rectángulo_461386" data-name="Rectángulo 461386" width="341.37" height="396.001" transform="translate(0 0)" fill="#c0f1e1"/>
    </clipPath>
    <clipPath id="clip-path-2">
      <rect id="Rectángulo_462320" data-name="Rectángulo 462320" width="396" height="307.271" fill="none"/>
    </clipPath>
  </defs>
  <g id="Grupo_1196052" data-name="Grupo 1196052" transform="translate(-1018 -11681.974)">
    <g id="Grupo_1195896" data-name="Grupo 1195896">
      <g id="Grupo_1195895" data-name="Grupo 1195895">
        <g id="Grupo_1195338" data-name="Grupo 1195338" transform="translate(1017.995 12023.344) rotate(-90)">
          <g id="Grupo_1194448" data-name="Grupo 1194448" transform="translate(0 0.005)" clip-path="url(#clip-path)">
            <path id="Trazado_1013831" data-name="Trazado 1013831" d="M769.725,252.077H915.62c5.068,0,9.214-7.49,9.214-16.644s-4.146-16.644-9.214-16.644H769.725c-5.068,0-9.214,7.49-9.214,16.644s4.147,16.644,9.214,16.644" transform="translate(-624.269 -147.992)" fill="#c0f1e1"/>
            <path id="Trazado_1013832" data-name="Trazado 1013832" d="M9.214,252.077h96.234c5.068,0,9.214-7.49,9.214-16.644s-4.146-16.644-9.214-16.644H9.214c-5.068,0-9.214,7.49-9.214,16.644s4.147,16.644,9.214,16.644" transform="translate(0 -147.992)" fill="#c0f1e1"/>
            <path id="Trazado_1013833" data-name="Trazado 1013833" d="M1286.74,33.293h76.867c5.068,0,9.215-7.49,9.215-16.644S1368.675,0,1363.607,0H1286.74c-5.068,0-9.214,7.49-9.214,16.644s4.146,16.644,9.214,16.644" transform="translate(-1048.663 -0.005)" fill="#c0f1e1"/>
            <path id="Trazado_1013834" data-name="Trazado 1013834" d="M497.749,33.293h61.429c5.068,0,9.214-7.49,9.214-16.644S564.246,0,559.178,0H497.749c-5.068,0-9.214,7.49-9.214,16.644s4.146,16.644,9.214,16.644" transform="translate(-401.016 -0.005)" fill="#c0f1e1"/>
            <path id="Trazado_1013835" data-name="Trazado 1013835" d="M1028.063,33.293h12.419c5.068,0,9.214-7.49,9.214-16.644S1045.551,0,1040.483,0h-12.419c-5.068,0-9.214,7.49-9.214,16.644s4.147,16.644,9.214,16.644" transform="translate(-836.327 -0.005)" fill="#c0f1e1"/>
            <path id="Trazado_1013836" data-name="Trazado 1013836" d="M1534.76,775h19.3c5.068,0,9.214-7.49,9.214-16.644s-4.146-16.644-9.214-16.644h-19.3c-5.068,0-9.214,7.49-9.214,16.644S1529.692,775,1534.76,775" transform="translate(-1252.251 -501.702)" fill="#c0f1e1"/>
            <path id="Trazado_1013837" data-name="Trazado 1013837" d="M607.026,1154.188h88.418c5.068,0,9.214-7.49,9.214-16.644s-4.146-16.644-9.214-16.644H607.026c-5.068,0-9.214,7.49-9.214,16.644s4.146,16.644,9.214,16.644" transform="translate(-490.717 -758.187)" fill="#c0f1e1"/>
            <path id="Trazado_1013838" data-name="Trazado 1013838" d="M345.568,1154.188h16.252c5.068,0,9.214-7.49,9.214-16.644s-4.147-16.644-9.214-16.644H345.568c-5.068,0-9.214,7.49-9.214,16.644s4.147,16.644,9.214,16.644" transform="translate(-276.098 -758.187)" fill="#c0f1e1"/>
            <path id="Trazado_1013839" data-name="Trazado 1013839" d="M338.241,420.67h192.33c5.068,0,9.214-7.49,9.214-16.644s-4.146-16.644-9.214-16.644H338.241c-5.068,0-9.214,7.49-9.214,16.644s4.147,16.644,9.214,16.644" transform="translate(-270.083 -262.03)" fill="#c0f1e1"/>
            <path id="Trazado_1013840" data-name="Trazado 1013840" d="M532.552,597.835H761.74c5.068,0,9.214-7.49,9.214-16.644s-4.147-16.644-9.214-16.644H532.552c-5.068,0-9.214,7.49-9.214,16.644s4.146,16.644,9.214,16.644" transform="translate(-429.584 -381.866)" fill="#c0f1e1"/>
            <path id="Trazado_1013841" data-name="Trazado 1013841" d="M78.621,775H307.809c5.068,0,9.214-7.49,9.214-16.644s-4.146-16.644-9.214-16.644H78.621c-5.068,0-9.214,7.49-9.214,16.644S73.554,775,78.621,775" transform="translate(-56.973 -501.702)" fill="#c0f1e1"/>
            <path id="Trazado_1013842" data-name="Trazado 1013842" d="M272.519,952.166H507.485c5.068,0,9.214-7.49,9.214-16.644s-4.147-16.644-9.214-16.644H272.519c-5.068,0-9.215,7.49-9.215,16.644s4.147,16.644,9.215,16.644" transform="translate(-216.134 -621.538)" fill="#c0f1e1"/>
            <path id="Trazado_1013843" data-name="Trazado 1013843" d="M998.794,321.659c-2.143,2.149-3.474,6.245-3.467,10.668.007,4.4,1.336,8.462,3.467,10.6H909.215c2.478-1.747,4.1-6.1,4.045-10.86-.05-4.6-1.652-8.722-4.045-10.407Z" transform="translate(-746.333 -217.574)" fill="#c0f1e1"/>
            <path id="Trazado_1013844" data-name="Trazado 1013844" d="M533.407,844.583c-2.583,2.429-4.187,7.059-4.179,12.06.008,4.973,1.611,9.566,4.179,11.982H425.455c2.986-1.974,4.938-6.9,4.875-12.276-.061-5.2-1.991-9.86-4.875-11.765Z" transform="translate(-349.237 -571.284)" fill="#c0f1e1"/>
            <path id="Trazado_1013845" data-name="Trazado 1013845" d="M713.109,490.252c-2.143,2.429-3.474,7.059-3.468,12.06.007,4.973,1.336,9.566,3.468,11.982H623.53c2.478-1.975,4.1-6.9,4.045-12.276-.05-5.2-1.652-9.86-4.045-11.765Z" transform="translate(-511.828 -331.612)" fill="#c0f1e1"/>
            <path id="Trazado_1013846" data-name="Trazado 1013846" d="M893.321,667.418c-2.143,2.429-3.475,7.06-3.468,12.06.007,4.973,1.337,9.566,3.468,11.982H788.508c2.478-1.975,4.1-6.9,4.045-12.276-.05-5.2-1.652-9.86-4.045-11.765Z" transform="translate(-647.25 -451.448)" fill="#c0f1e1"/>
          </g>
        </g>
        <g id="Grupo_1195894" data-name="Grupo 1195894" transform="translate(1018 11716.073)">
          <g id="Grupo_1195893" data-name="Grupo 1195893" clip-path="url(#clip-path-2)">
            <path id="Trazado_1016739" data-name="Trazado 1016739" d="M393.427,534.627H2.573a2.573,2.573,0,1,1,0-5.146H393.427a2.573,2.573,0,0,1,0,5.146" transform="translate(0 -227.356)" fill="#636363"/>
            <rect id="Rectángulo_462313" data-name="Rectángulo 462313" width="3.425" height="278.421" transform="translate(86.449 15.753)" fill="#3d3936"/>
            <rect id="Rectángulo_462314" data-name="Rectángulo 462314" width="3.425" height="278.421" transform="translate(223.436 15.753)" fill="#3d3936"/>
            <path id="Trazado_1016740" data-name="Trazado 1016740" d="M140.4,515.548h11.333a2.9,2.9,0,0,1,2.9,2.9v6.739H137.5v-6.739a2.9,2.9,0,0,1,2.9-2.9" transform="translate(-59.042 -221.374)" fill="#3d3936"/>
            <path id="Trazado_1016741" data-name="Trazado 1016741" d="M382.468,515.548H393.8a2.9,2.9,0,0,1,2.9,2.9v6.739H379.573v-6.739a2.9,2.9,0,0,1,2.9-2.9" transform="translate(-162.987 -221.374)" fill="#3d3936"/>
            <path id="Trazado_1016742" data-name="Trazado 1016742" d="M281.683,138.581c-1.064,18.856-3.649,25.362-3.649,25.362H157.5c3.444-4.225,5.894-9.8,7.616-16,2.357-8.465,3.355-18.09,3.659-26.983.07-2.082.107-4.119.107-6.095a208.469,208.469,0,0,0-1.311-24.085l27.476.86,39.642,1.243,46.637,1.46q.484,8.717.663,16.131c.033,1.254.06,2.475.079,3.675.172,9.808-.019,17.863-.387,24.429" transform="translate(-67.631 -38.982)" fill="#1e3a8a"/>
            <rect id="Rectángulo_462315" data-name="Rectángulo 462315" width="136.987" height="1.835" transform="translate(88.161 43.769)" fill="#3d3936"/>
            <rect id="Rectángulo_462316" data-name="Rectángulo 462316" width="136.987" height="1.835" transform="translate(88.161 117.66)" fill="#3d3936"/>
            <path id="Trazado_1016743" data-name="Trazado 1016743" d="M281.576,405.605c-1.12,19.671-3.537,26.525-3.537,26.525H157.5c9.286-12.833,11.372-36.747,11.386-55.511.01-13.915-1.12-24.994-1.292-26.631-.014-.144-.023-.213-.023-.213l51.159,1.807,62.6,2.2q.14,2.9.256,5.662.231,5.53.364,10.553c.383,14.927.14,26.606-.373,35.6" transform="translate(-67.631 -150.192)" fill="#2ed19b"/>
            <path id="Trazado_1016744" data-name="Trazado 1016744" d="M289.182,359.608l-9.375-5.249-104.613-4.211c.172,1.637,1.3,12.715,1.292,26.631l113.06-6.617Z" transform="translate(-75.227 -150.352)" fill="#24a77c"/>
            <rect id="Rectángulo_462317" data-name="Rectángulo 462317" width="136.987" height="1.834" transform="translate(88.161 191.551)" fill="#3d3936"/>
            <path id="Trazado_1016745" data-name="Trazado 1016745" d="M326.013,406.965,260.99,356.009l2.179-3.068,62.6,2.2q.14,2.9.256,5.662.231,5.53.364,10.553c.383,14.927.14,26.606-.373,35.6" transform="translate(-112.068 -151.551)" fill="#24a77c"/>
            <path id="Trazado_1016746" data-name="Trazado 1016746" d="M284.155,343.612h-112a5.642,5.642,0,0,1-5.642-5.642V317.205a5.642,5.642,0,0,1,5.642-5.642h112a5.642,5.642,0,0,1,5.642,5.642V337.97a5.642,5.642,0,0,1-5.642,5.642" transform="translate(-71.498 -133.784)" fill="#2ed19b"/>
            <path id="Trazado_1016747" data-name="Trazado 1016747" d="M164.492,342.621h0a3.918,3.918,0,0,1-3.918-3.918V322.5a3.918,3.918,0,0,1,3.918-3.918Z" transform="translate(-68.95 -136.798)" fill="#3d3936"/>
            <path id="Trazado_1016748" data-name="Trazado 1016748" d="M164.492,210.785h0a3.918,3.918,0,0,1-3.918-3.918v-16.2a3.918,3.918,0,0,1,3.918-3.918Z" transform="translate(-68.95 -80.189)" fill="#3d3936"/>
            <path id="Trazado_1016749" data-name="Trazado 1016749" d="M164.492,81.289h0a3.918,3.918,0,0,1-3.918-3.918V61.17a3.918,3.918,0,0,1,3.918-3.918Z" transform="translate(-68.95 -24.584)" fill="#3d3936"/>
            <path id="Trazado_1016750" data-name="Trazado 1016750" d="M382.642,81.289h0a3.918,3.918,0,0,0,3.918-3.918V61.17a3.918,3.918,0,0,0-3.918-3.918Z" transform="translate(-164.304 -24.584)" fill="#3d3936"/>
            <path id="Trazado_1016751" data-name="Trazado 1016751" d="M382.642,210.785h0a3.918,3.918,0,0,0,3.918-3.918v-16.2a3.918,3.918,0,0,0-3.918-3.918Z" transform="translate(-164.304 -80.189)" fill="#3d3936"/>
            <path id="Trazado_1016752" data-name="Trazado 1016752" d="M382.642,342.621h0a3.918,3.918,0,0,0,3.918-3.918V322.5a3.918,3.918,0,0,0-3.918-3.918Z" transform="translate(-164.304 -136.798)" fill="#3d3936"/>
            <path id="Trazado_1016753" data-name="Trazado 1016753" d="M183.129,458.416H182.2c0-8.033,1.194-8.033,1.586-8.033,1.189,0,4.657,1.607,5.049,1.79l-.395.845a22.526,22.526,0,0,0-4.575-1.7c-.44.56-.733,4.064-.733,7.1" transform="translate(-78.234 -193.392)" fill="#fff"/>
            <path id="Trazado_1016754" data-name="Trazado 1016754" d="M208.136,422.532H207.2c0-8.033,1.193-8.033,1.586-8.033,1.189,0,4.658,1.607,5.049,1.79l-.395.845a22.559,22.559,0,0,0-4.575-1.7c-.441.56-.733,4.064-.733,7.1" transform="translate(-88.972 -177.984)" fill="#fff"/>
            <path id="Trazado_1016755" data-name="Trazado 1016755" d="M230.143,464.657h-.932c0-8.033,1.194-8.033,1.586-8.033,1.189,0,4.657,1.607,5.049,1.79l-.4.845a22.546,22.546,0,0,0-4.574-1.7c-.441.56-.733,4.064-.733,7.1" transform="translate(-98.422 -196.072)" fill="#fff"/>
            <path id="Trazado_1016756" data-name="Trazado 1016756" d="M256.151,428.772h-.932c0-8.033,1.193-8.033,1.586-8.033,1.189,0,4.658,1.607,5.049,1.79l-.395.844a22.6,22.6,0,0,0-4.575-1.7c-.441.56-.733,4.065-.733,7.1" transform="translate(-109.59 -180.663)" fill="#fff"/>
            <path id="Trazado_1016757" data-name="Trazado 1016757" d="M276.157,464.657h-.932c0-8.033,1.194-8.033,1.586-8.033,1.189,0,4.657,1.607,5.049,1.79l-.395.845a22.526,22.526,0,0,0-4.575-1.7c-.44.56-.733,4.064-.733,7.1" transform="translate(-118.18 -196.072)" fill="#fff"/>
            <path id="Trazado_1016758" data-name="Trazado 1016758" d="M315.169,464.657h-.932c0-8.033,1.194-8.033,1.586-8.033,1.189,0,4.657,1.607,5.049,1.79l-.4.845a22.512,22.512,0,0,0-4.575-1.7c-.44.56-.733,4.064-.733,7.1" transform="translate(-134.932 -196.072)" fill="#fff"/>
            <path id="Trazado_1016759" data-name="Trazado 1016759" d="M356.182,464.657h-.932c0-8.033,1.193-8.033,1.586-8.033,1.189,0,4.658,1.607,5.049,1.79l-.394.845a22.564,22.564,0,0,0-4.575-1.7c-.44.56-.733,4.064-.733,7.1" transform="translate(-152.543 -196.072)" fill="#fff"/>
            <path id="Trazado_1016760" data-name="Trazado 1016760" d="M313.168,386.647h-.932c0-8.033,1.194-8.033,1.586-8.033,1.189,0,4.657,1.607,5.049,1.79l-.4.844a22.51,22.51,0,0,0-4.574-1.7c-.44.56-.733,4.064-.733,7.1" transform="translate(-134.073 -162.575)" fill="#fff"/>
            <path id="Trazado_1016761" data-name="Trazado 1016761" d="M279.158,386.647h-.932c0-8.033,1.194-8.033,1.586-8.033,1.189,0,4.657,1.607,5.049,1.79l-.395.844a22.525,22.525,0,0,0-4.575-1.7c-.44.56-.733,4.064-.733,7.1" transform="translate(-119.469 -162.575)" fill="#fff"/>
            <path id="Trazado_1016762" data-name="Trazado 1016762" d="M232.144,386.647h-.932c0-8.033,1.194-8.033,1.586-8.033,1.189,0,4.658,1.607,5.049,1.79l-.395.844a22.548,22.548,0,0,0-4.575-1.7c-.441.56-.733,4.064-.733,7.1" transform="translate(-99.281 -162.575)" fill="#fff"/>
            <path id="Trazado_1016763" data-name="Trazado 1016763" d="M188.13,386.647H187.2c0-8.033,1.194-8.033,1.586-8.033,1.189,0,4.658,1.607,5.049,1.79l-.395.844a22.526,22.526,0,0,0-4.575-1.7c-.44.56-.733,4.064-.733,7.1" transform="translate(-80.382 -162.575)" fill="#fff"/>
            <path id="Trazado_1016764" data-name="Trazado 1016764" d="M297.163,428.772h-.932c0-8.033,1.194-8.033,1.586-8.033,1.189,0,4.657,1.607,5.049,1.79l-.395.844a22.557,22.557,0,0,0-4.575-1.7c-.44.56-.733,4.065-.733,7.1" transform="translate(-127.2 -180.663)" fill="#fff"/>
            <path id="Trazado_1016765" data-name="Trazado 1016765" d="M338.176,428.772h-.932c0-8.033,1.194-8.033,1.586-8.033,1.189,0,4.657,1.607,5.049,1.79l-.4.844a22.566,22.566,0,0,0-4.574-1.7c-.44.56-.733,4.065-.734,7.1" transform="translate(-144.811 -180.663)" fill="#fff"/>
            <path id="Trazado_1016766" data-name="Trazado 1016766" d="M175.126,355.444h-.932c0-8.033,1.194-8.033,1.586-8.033,1.189,0,4.658,1.606,5.049,1.789l-.395.845a22.561,22.561,0,0,0-4.575-1.7c-.44.56-.733,4.064-.733,7.1" transform="translate(-74.798 -149.176)" fill="#fff"/>
            <path id="Trazado_1016767" data-name="Trazado 1016767" d="M200.134,319.56H199.2c0-8.033,1.194-8.033,1.586-8.033,1.189,0,4.658,1.607,5.049,1.79l-.395.844a22.589,22.589,0,0,0-4.575-1.7c-.441.56-.733,4.065-.733,7.1" transform="translate(-85.536 -133.768)" fill="#fff"/>
            <path id="Trazado_1016768" data-name="Trazado 1016768" d="M222.141,361.685h-.932c0-8.033,1.194-8.033,1.586-8.033,1.189,0,4.658,1.607,5.049,1.79l-.4.845a22.586,22.586,0,0,0-4.574-1.7c-.441.56-.733,4.065-.733,7.1" transform="translate(-94.986 -151.856)" fill="#fff"/>
            <path id="Trazado_1016769" data-name="Trazado 1016769" d="M248.149,325.8h-.932c0-8.032,1.194-8.032,1.586-8.032,1.189,0,4.658,1.606,5.049,1.789l-.395.845a22.561,22.561,0,0,0-4.575-1.7c-.44.56-.733,4.065-.733,7.1" transform="translate(-106.154 -136.448)" fill="#fff"/>
            <path id="Trazado_1016770" data-name="Trazado 1016770" d="M268.154,361.685h-.932c0-8.033,1.194-8.033,1.586-8.033,1.189,0,4.657,1.607,5.049,1.79l-.395.845a22.567,22.567,0,0,0-4.575-1.7c-.44.56-.733,4.065-.733,7.1" transform="translate(-114.744 -151.856)" fill="#fff"/>
            <path id="Trazado_1016771" data-name="Trazado 1016771" d="M307.167,361.685h-.932c0-8.033,1.193-8.033,1.586-8.033,1.189,0,4.657,1.607,5.049,1.79l-.4.845a22.586,22.586,0,0,0-4.574-1.7c-.44.56-.733,4.065-.733,7.1" transform="translate(-131.496 -151.856)" fill="#fff"/>
            <path id="Trazado_1016772" data-name="Trazado 1016772" d="M348.18,361.685h-.932c0-8.033,1.193-8.033,1.586-8.033,1.188,0,4.657,1.607,5.049,1.79l-.4.845a22.586,22.586,0,0,0-4.574-1.7c-.44.56-.733,4.065-.733,7.1" transform="translate(-149.106 -151.856)" fill="#fff"/>
            <path id="Trazado_1016773" data-name="Trazado 1016773" d="M289.161,325.8h-.932c0-8.032,1.194-8.032,1.586-8.032,1.189,0,4.657,1.606,5.049,1.789l-.395.845a22.56,22.56,0,0,0-4.575-1.7c-.44.56-.733,4.065-.733,7.1" transform="translate(-123.764 -136.448)" fill="#fff"/>
            <path id="Trazado_1016774" data-name="Trazado 1016774" d="M330.174,325.8h-.932c0-8.032,1.193-8.032,1.585-8.032,1.189,0,4.658,1.606,5.049,1.789l-.394.845a22.6,22.6,0,0,0-4.575-1.7c-.439.56-.733,4.065-.733,7.1" transform="translate(-141.375 -136.448)" fill="#fff"/>
            <path id="Trazado_1016775" data-name="Trazado 1016775" d="M180.2,197.781l-.612-.276a53.085,53.085,0,0,0,2.49-6.68c4.047-13.612,2.579-17.913-7.14-20.921l.2-.642c10.1,3.126,11.733,7.8,7.586,21.754a53.7,53.7,0,0,1-2.522,6.765" transform="translate(-75.117 -72.68)" fill="#fff"/>
            <path id="Trazado_1016776" data-name="Trazado 1016776" d="M197.527,137.247a117.266,117.266,0,0,1-20.464-2.333l.125-.66c10.22,1.933,28.008,4.4,32.316-.809,1.138-1.376,1.247-3.264.323-5.611-4.541-11.533-22.281-7.237-32.453-3.65l-.223-.633c10.4-3.667,28.554-8.021,33.3,4.037,1.02,2.592.876,4.707-.431,6.285-2.05,2.478-6.758,3.374-12.494,3.374" transform="translate(-76.03 -51.386)" fill="#fff"/>
            <path id="Trazado_1016777" data-name="Trazado 1016777" d="M233.4,171.376c-3.155-7.8-4.8-19.136,5.3-28.84,9.622-9.244,9.259-17.237,8.994-23.074-.177-3.919-.318-7.015,2.531-8.989,3.956-2.741,12.61-4.182,17.72-.3,2.76,2.095,5.381,6.521,2.2,15.717-2.569,7.414-4.832,10.539-6.486,12.82-2.713,3.743-3.836,5.292-2.06,21.039a40.259,40.259,0,0,1-.34,11.564l-.661-.118a39.574,39.574,0,0,0,.333-11.371c-1.8-16.005-.637-17.617,2.183-21.509,1.628-2.247,3.859-5.324,6.4-12.646,2.417-6.977,1.737-12.15-1.967-14.961-4.8-3.641-13.232-2.242-16.93.321-2.544,1.763-2.418,4.549-2.243,8.407.27,5.965.641,14.134-9.2,23.589-9.823,9.442-8.216,20.494-5.138,28.1Z" transform="translate(-99.184 -46.288)" fill="#fff"/>
            <path id="Trazado_1016778" data-name="Trazado 1016778" d="M310.738,180.525c-4.658-10.345-9-24.765-3.261-34.709,6.843-11.85,17.022-15.247,21.081-16.157,4.677-1.049,8.927-.667,11.365,1.023,2.124,1.472,3.022,5.145,2.345,9.587a26.608,26.608,0,0,1-18.417,21.062c-5.647,1.768-6.931,7.972-3.925,18.967l-.649.177c-3.077-11.257-1.606-17.914,4.374-19.786A25.931,25.931,0,0,0,341.6,140.168c.638-4.187-.152-7.61-2.063-8.933-2.288-1.585-6.337-1.928-10.835-.92-3.973.891-13.937,4.218-20.646,15.838-5.6,9.7-1.3,23.895,3.291,34.1Z" transform="translate(-130.851 -55.425)" fill="#fff"/>
            <path id="Trazado_1016779" data-name="Trazado 1016779" d="M285.155,211h-112a5.642,5.642,0,0,1-5.642-5.642V184.588a5.642,5.642,0,0,1,5.642-5.642h112a5.642,5.642,0,0,1,5.642,5.642v20.765A5.642,5.642,0,0,1,285.155,211" transform="translate(-71.927 -76.839)" fill="#edebeb"/>
            <path id="Trazado_1016780" data-name="Trazado 1016780" d="M289.57,110.477l-113.107,4.391a208.475,208.475,0,0,0-1.311-24.085l27.476.86,39.642,1.243,46.637,1.46q.483,8.717.662,16.131" transform="translate(-75.209 -38.982)" fill="#182e6e"/>
            <path id="Trazado_1016781" data-name="Trazado 1016781" d="M290.8,58.053V76.018a10.234,10.234,0,0,1-.126,1.638c-.468,3.1-2.254,5.4-4.389,5.4H172.024c-2.495,0-4.515-3.151-4.515-7.042V58.053c0-3.89,2.021-7.042,4.515-7.042H286.283c2.494,0,4.515,3.151,4.515,7.042" transform="translate(-71.927 -21.904)" fill="#1e3a8a"/>
            <path id="Trazado_1016782" data-name="Trazado 1016782" d="M193.041,66.852c-5.119,0-10.177-5.312-15.045-15.8l.646-.3c3.368,7.26,8.688,15.819,14.88,15.374,3.819-.277,7.053-5.71,9.106-15.3l.7.149c-1.5,7.022-4.416,15.474-9.752,15.86-.177.013-.355.019-.533.019" transform="translate(-76.431 -21.791)" fill="#fff"/>
            <path id="Trazado_1016783" data-name="Trazado 1016783" d="M226.98,83.271a11.037,11.037,0,0,1-5.579-9.654c0-5.594,3.328-15.5,6.119-22.828l.666.254c-2.77,7.271-6.072,17.089-6.072,22.574a10.339,10.339,0,0,0,5.231,9.041Z" transform="translate(-95.068 -21.809)" fill="#fff"/>
            <path id="Trazado_1016784" data-name="Trazado 1016784" d="M248.105,83.2l-.58-.414c1.424-1.995,5.064-13.932,9.734-31.931l.69.179c-2.252,8.681-7.721,29.193-9.843,32.166" transform="translate(-106.286 -21.837)" fill="#fff"/>
            <path id="Trazado_1016785" data-name="Trazado 1016785" d="M289.975,65.892a10.492,10.492,0,0,1-8.98-4.466c-1.716-2.46-2.355-5.986-1.9-10.478l.709.072c-.437,4.318.16,7.681,1.776,10,2.987,4.271,7.565,4.5,10.879,3.946,6.328-1.064,13.012-5.979,14.3-10.516a13.238,13.238,0,0,0,.317-3.461l.713,0a13.668,13.668,0,0,1-.345,3.66c-1.356,4.769-8.3,9.921-14.869,11.025a15.727,15.727,0,0,1-2.6.225" transform="translate(-119.781 -21.877)" fill="#fff"/>
            <path id="Trazado_1016786" data-name="Trazado 1016786" d="M318.2,88.876l-.712-.045c.417-6.587,6.918-18.346,13.911-22.68,2.744-1.7,5.271-2.087,7.508-1.146,5.541,2.332,6.138,14.266,5.663,23.866l-.712-.035c.656-13.249-1.2-21.48-5.227-23.175-2.014-.846-4.319-.477-6.856,1.095-6.705,4.156-13.176,15.831-13.575,22.12" transform="translate(-136.329 -27.697)" fill="#fff"/>
            <path id="Trazado_1016787" data-name="Trazado 1016787" d="M552.791,465.431l2.123,4.908,2.428,5.607,3.715,8.575,3.663,8.463,5.11.761-1.8-11.341-1.024-6.458-.883-5.551L564.2,458.246Z" transform="translate(-237.365 -196.769)" fill="#f3af9f"/>
            <path id="Trazado_1016788" data-name="Trazado 1016788" d="M567.276,502.7l.286.662,3.376,7.8,5.11.761-1.63-10.275-.169-1.066Z" transform="translate(-243.585 -214.947)" fill="#4d7cff"/>
            <path id="Trazado_1016789" data-name="Trazado 1016789" d="M575.505,514.872l7.514,11.271-15.5.47,2.833-11.318a3.889,3.889,0,0,1,3.272-1.361,3.441,3.441,0,0,1,1.878.939" transform="translate(-243.691 -220.667)" fill="#182e6e"/>
            <path id="Trazado_1016790" data-name="Trazado 1016790" d="M582.877,532.885l-15.912.47a1.6,1.6,0,0,0-.265.939,1.747,1.747,0,0,0,.265.939h15.912a2.67,2.67,0,0,0,.265-1.409,2.3,2.3,0,0,0-.265-.939" transform="translate(-243.338 -228.818)" fill="#f8d11d"/>
            <path id="Trazado_1016791" data-name="Trazado 1016791" d="M572.813,522.4a.625.625,0,0,1-.375-1.125c2.062-1.546,5.485-1.078,5.63-1.057a.625.625,0,0,1-.176,1.237c-.03,0-3.059-.414-4.7.82a.621.621,0,0,1-.374.125" transform="translate(-245.694 -223.343)" fill="#f8f8f8"/>
            <path id="Trazado_1016792" data-name="Trazado 1016792" d="M579.163,525.154a7.95,7.95,0,0,0-1.1-.259,8.055,8.055,0,0,0-1.143-.109,4.324,4.324,0,0,0-2.147.46l-.012.007a.4.4,0,0,1-.417-.68,5.207,5.207,0,0,1,2.541-.81,9.266,9.266,0,0,1,1.308,0,9.077,9.077,0,0,1,1.313.188.626.626,0,1,1-.273,1.221.483.483,0,0,1-.056-.015Z" transform="translate(-246.546 -224.892)" fill="#f8f8f8"/>
            <path id="Trazado_1016793" data-name="Trazado 1016793" d="M567.276,502.7l.286.662,6.856-1.714-.169-1.066Z" transform="translate(-243.585 -214.947)" fill="#e6dce2"/>
            <path id="Trazado_1016794" data-name="Trazado 1016794" d="M452.318,464.352c.183.972.37,1.949.553,2.921q.8,4.191,1.592,8.387.972,5.107,1.94,10.214.775,4.05,1.541,8.1c-.733,2.08.521,4.006,1.878,4.227a3.075,3.075,0,0,0,3.085-2.55l.516-8.862.644-11.13.361-6.208.564-9.684Z" transform="translate(-194.223 -197.422)" fill="#f3af9f"/>
            <path id="Trazado_1016795" data-name="Trazado 1016795" d="M459.552,505.905q.733,3.86,1.465,7.716c-.733,2.08.521,4.006,1.878,4.227a3.076,3.076,0,0,0,3.085-2.55l.427-7.307.089-1.554-7.021-.916c.023.127.047.259.075.385" transform="translate(-197.297 -217.068)" fill="#4d7cff"/>
            <path id="Trazado_1016796" data-name="Trazado 1016796" d="M429.578,526.458H458.41l-5.378-11.679-.308.006c-.223,2.25-1.375,3.9-2.729,4.124a2.005,2.005,0,0,1-1.688-.414c-.839-.855-.143-2.5-1.014-3.185a1.352,1.352,0,0,0-.876-.255c-1.353.749-2.649,1.38-3.849,1.922-.249.111-.494.223-.738.329-.541.239-1.062.456-1.555.669-.154.058-.3.122-.451.185q-.892.366-1.656.685c-.276.122-.541.233-.8.35-.186.079-.361.159-.531.238-4.119,1.938-8.016,3.876-8.244,4.369-.483,1.062.982,2.654.982,2.654" transform="translate(-183.995 -221.043)" fill="#182e6e"/>
            <path id="Trazado_1016797" data-name="Trazado 1016797" d="M457.728,531.525l-30.312.531a1.369,1.369,0,0,0,0,2.124h30.312a2.072,2.072,0,0,0,.505-1.593,1.945,1.945,0,0,0-.505-1.062" transform="translate(-183.313 -228.234)" fill="#f8d11d"/>
            <path id="Trazado_1016798" data-name="Trazado 1016798" d="M451.863,518.959a.052.052,0,0,0,.011.026c.355.627.664,1.28,1.061,1.88a19.776,19.776,0,0,0,1.274,1.757.534.534,0,0,0,.828-.674.054.054,0,0,1-.022-.027,17.993,17.993,0,0,1-1.311-1.582c-.409-.547-.732-1.136-1.1-1.709-.249.111-.494.223-.738.329" transform="translate(-194.028 -222.697)" fill="#f8f8f8"/>
            <path id="Trazado_1016799" data-name="Trazado 1016799" d="M448.347,520.565c.143.488.281.982.472,1.46a19.887,19.887,0,0,0,.887,1.974.533.533,0,1,0,.95-.483.844.844,0,0,0-.048-.074,17.963,17.963,0,0,1-1.13-1.731c-.255-.43-.467-.882-.68-1.333-.154.059-.3.122-.451.186" transform="translate(-192.518 -223.448)" fill="#f8f8f8"/>
            <path id="Trazado_1016800" data-name="Trazado 1016800" d="M459.478,505.52c.023.127.047.259.075.385l6.856,2.085.089-1.554Z" transform="translate(-197.298 -217.068)" fill="#e6dce2"/>
            <path id="Trazado_1016801" data-name="Trazado 1016801" d="M444.048,522.255q.087.231.191.462a19.957,19.957,0,0,0,.966,1.938.538.538,0,0,0,.727.2.532.532,0,0,0,.2-.728.124.124,0,0,0-.021-.032,18.381,18.381,0,0,1-1.051-1.768c-.075-.138-.143-.281-.212-.424-.276.122-.542.233-.8.35" transform="translate(-190.672 -224.103)" fill="#f8f8f8"/>
            <path id="Trazado_1016802" data-name="Trazado 1016802" d="M518.672,378.1q-6.251.628-12.5,1.25-9.926-31.408-19.845-62.816Q481.194,300.266,476.051,284q-2.8-8.867-5.605-17.74-1.762,9.747-3.518,19.5-2.8,15.559-5.611,31.111-.852,10.544-1.712,21.095-1.6,19.758-3.206,39.516a32.7,32.7,0,0,1-14.584-1.874q-1.884-10.957-3.774-21.92-3.112-18.1-6.224-36.191,1.556-12.785,3.112-25.563,2.493-20.47,4.986-40.947.844-6.86,1.675-13.715c.131-1.075.262-2.156.394-3.231q.853-7.011,1.706-14.021,26.872-3.121,53.737-6.249.684,5.268,1.362,10.529.619,4.837,1.25,9.673,1.753,13.562,3.506,27.119,1.106,8.585,2.218,17.171v.006q1.274,9.86,2.549,19.72,5.183,40.059,10.36,80.118" transform="translate(-185.42 -91.791)" fill="#3d3936"/>
            <path id="Trazado_1016803" data-name="Trazado 1016803" d="M535.1,128.638l24.155,65.376-4.374,1.824-38.741-67.484Z" transform="translate(-221.627 -55.115)" fill="#f3af9f"/>
            <path id="Trazado_1016804" data-name="Trazado 1016804" d="M581.362,250.7l4.473,11.652a.647.647,0,0,0,1.245-.317q-.559-4.175-1.118-8.351l6.754,13.1,1.264-.269-4.723-12.868,8.162,13.12a.629.629,0,0,0,1.12-.563l-5.76-14.629,6.976,10.41a.915.915,0,0,0,1.528-.011l.24-.369-7.562-16.887-9.243-10.14-5.554,1.155q1.1,7.487,2.2,14.973" transform="translate(-248.69 -100.725)" fill="#f3af9f"/>
            <path id="Trazado_1016805" data-name="Trazado 1016805" d="M506.44,224.3l-56.8,9.741q.853-7.011,1.706-14.021,26.872-3.121,53.737-6.249.681,5.265,1.362,10.529" transform="translate(-193.071 -91.791)" fill="#22201f"/>
            <path id="Trazado_1016806" data-name="Trazado 1016806" d="M434.929,346.1l32-6.173q-2.8,15.559-5.611,31.111-.852,10.544-1.712,21.095c-7.611,5.868-15.027,11.335-21.564,15.721q-3.111-18.1-6.223-36.191,1.555-12.785,3.111-25.563" transform="translate(-185.42 -145.965)" fill="#22201f"/>
            <path id="Trazado_1016807" data-name="Trazado 1016807" d="M541.6,346.521c-5.5,4.737-13.265,11.335-21.982,18.552q-5.136-16.271-10.279-32.542l29.711-5.73q1.274,9.86,2.549,19.72" transform="translate(-218.707 -140.327)" fill="#22201f"/>
            <path id="Trazado_1016808" data-name="Trazado 1016808" d="M431.64,255.789c-2.425,3.127-4.924,6.26-7.5,9.369q-5.675,6.856-11.549,13.3c-31.058,34.077-66.2,59.731-101.551,79.177a108.186,108.186,0,0,0-10.288-13.112C290,332.918,279.951,328.3,272.042,326.4c-7.344-1.763-12.4-1.986-24.428-4.377-.576-.108-1.136-.228-1.695-.359a66.9,66.9,0,0,1-13.512-4.582q-2.225-1.583-4.377-3.275a82.472,82.472,0,0,1-21.791-25.329q-1.258-2.277-2.408-4.725c-2.545-5.409-5.324-10.739-8.171-15.829-5.689-10.2-11.623-19.446-16.382-26.482-2.8-4.131-5.193-7.5-6.9-9.849q55.275.762,110.543,1.535h.034c2.556.029,5.1.068,7.652.108h.006c1.569.017,3.133.04,4.7.063,1.518.234,3.287.553,5.261,1a80.026,80.026,0,0,1,14.117,4.565c7.754,3.338,10.579,6.031,14.727,8.519.514.3,1.044.611,1.6.913a42.311,42.311,0,0,0,15.52,4.571h.006c10.476,1.141,21.329-.81,30.128-3.036,3.766-.947,7.155-1.957,9.969-2.785,2.676-.793,4.981-1.575,7.03-2.305h.011c7.834-2.8,11.926-4.787,18.579-3.321,9.061,2,15.372,8.776,19.372,14.374" transform="translate(-74.019 -99.444)" fill="#dbd2d8"/>
            <path id="Trazado_1016809" data-name="Trazado 1016809" d="M357.9,235.527l-18.276,14.622-10.623,15-5.623-3.749-15,3.749,10.622-6.874a15.073,15.073,0,0,0-3.749,0c-3.626.466-5.577,2.111-8.123,1.25a5.166,5.166,0,0,1-1.25-.625q3.285-1.881,6.874-3.749,2.539-1.316,5-2.5l-8.123-2.5v-1.875a3.325,3.325,0,0,0,2.5,0,3.564,3.564,0,0,0,1.874-3.749c5.329-1.694,10.183-.454,11.872,2.5a5.876,5.876,0,0,1,.625,3.749l21.432-16.309h.006c1.568.019,3.13.044,4.7.063,1.518.237,3.287.556,5.261,1" transform="translate(-131.346 -100.678)" fill="#c6bec0"/>
            <path id="Trazado_1016810" data-name="Trazado 1016810" d="M405.011,125.58l-24.4,37.824L347.5,200.9h4.374l37.49-25.619,21.245-28.118q-2.8-10.789-5.6-21.578" transform="translate(-149.214 -53.923)" fill="#f3af9f"/>
            <path id="Trazado_1016811" data-name="Trazado 1016811" d="M312.374,248.459l-.126.229a.63.63,0,0,0,.321.891c.478.179.957.371,1.435.551l.011.006q2.218.842,4.433,1.7l.011.006c.949.37,1.9.737,2.853,1.1.039.014.082.033.121.047-.348.034-.7.077-1.043.116l-.072.01-.008,0c-3.566.4-7.123.8-10.693,1.193a.64.64,0,0,0-.566.605c-.006.148-.008.3-.022.447a.636.636,0,0,0,.6.66c1.68.124,3.353.248,5.03.367h.009l2.968.223c1.023.071,2.038.141,3.052.219.082,0,.168.013.249.017q-7.621,3.463-15.238,6.93a.512.512,0,0,0-.3.443c-.008.193-.014.4-.027.6a.508.508,0,0,0,.651.511l7.778-2.209.068-.015,6.064-1.727,0,0,.146-.036-.787.56q-5.551,3.96-11.108,7.919a.6.6,0,0,0-.144.818c.1.138.193.281.284.423a.586.586,0,0,0,.767.181q4.576-2.432,9.154-4.872c.88-.463,1.751-.928,2.628-1.4,1.854-.983,3.7-1.962,5.549-2.949l0,0,.09-.044c.1-.051.189-.1.288-.155,1.758-.939,3.531-1.876,5.3-2.813.022-.009.036-.019.058-.029l.679-1.221.154-.279.021-.03,2.665-4.78c-.11-.177-.218-.334-.309-.476-.75-1.171-1.011-1.582-1.9-2.973-.1.01-.193.021-.289.027-.155.014-.309.02-.464.034l-.49.038c-3.335.264-6.679.535-10.017.794q-4.579-.973-9.158-1.955a.621.621,0,0,0-.678.308" transform="translate(-131.124 -106.549)" fill="#f5ae9f"/>
            <path id="Trazado_1016812" data-name="Trazado 1016812" d="M327.937,275.632c.88-.463,1.752-.927,2.628-1.4,1.855-.983,3.7-1.962,5.549-2.949l.094-.048c.1-.051.189-.1.288-.155l1.093-1.361Z" transform="translate(-140.814 -115.818)" fill="#f4948b"/>
            <path id="Trazado_1016813" data-name="Trazado 1016813" d="M320.141,272.519l.068-.015,6.064-1.727,0,0,.908-.736Z" transform="translate(-137.467 -115.953)" fill="#f4948b"/>
            <path id="Trazado_1016814" data-name="Trazado 1016814" d="M321.659,262.49l2.968.223c1.023.071,2.038.141,3.051.219l1.233-.579Z" transform="translate(-138.119 -112.653)" fill="#f4948b"/>
            <path id="Trazado_1016815" data-name="Trazado 1016815" d="M320.523,251.641q2.218.841,4.433,1.7l.011.006c.949.37,1.9.737,2.853,1.1l1.554-.271Z" transform="translate(-137.631 -108.053)" fill="#f4948b"/>
            <path id="Trazado_1016816" data-name="Trazado 1016816" d="M342.852,261.117a15.837,15.837,0,0,0-.573,3.565c-.013.225-.026.451-.036.681a41.106,41.106,0,0,0,.377,8.032c.278.98,1.893,1.053,1.893,1.053s-.557-1.961,2.329-8.622c.48-1.1.879-2.108,1.219-3.021.224-.611.424-1.177.6-1.7.034-.09.06-.181.086-.272a.623.623,0,0,0,.038-.114,20.946,20.946,0,0,0,1.1-4.78,17.911,17.911,0,0,0-3.364,1.421l0,0a.531.531,0,0,1-.117.065,7.317,7.317,0,0,0-3.54,3.693" transform="translate(-146.939 -109.897)" fill="#f5ae9f"/>
            <path id="Trazado_1016817" data-name="Trazado 1016817" d="M587.459,234.575l9.067,6.638v8.634a.587.587,0,0,1-1,.415,4.509,4.509,0,0,1-1.146-1.947l-1.507-5.274c-4.086.281-7.1-2.119-7.31-4.569-.168-1.979,1.532-3.568,1.9-3.9" transform="translate(-251.431 -100.725)" fill="#f3af9f"/>
            <path id="Trazado_1016818" data-name="Trazado 1016818" d="M443.7,490.8l-3.124-13.122L463.7,480.8l-.625,11.872L443.7,490.8" transform="translate(-189.182 -205.113)" fill="#22201f"/>
            <path id="Trazado_1016819" data-name="Trazado 1016819" d="M548.99,480.8l24.369-3.124-4.374,13.746-16.871,1.25Z" transform="translate(-235.733 -205.113)" fill="#22201f"/>
            <path id="Trazado_1016820" data-name="Trazado 1016820" d="M558.306,150.038,546.29,157.5l-11.1,6.9-19.3-32.948-6.323-10.791,15.621-13.122Z" transform="translate(-218.806 -46.181)" fill="#f59e0b"/>
            <path id="Trazado_1016821" data-name="Trazado 1016821" d="M507.728,9.505c-.237,2.724-2.325,4.5-4.374,6.249-1.662,1.412-5.205,4.43-8.548,4.236a4.889,4.889,0,0,1-1.793-.456c-3.093-1.481-3.655-5.842-3.736-6.561,2.462-4.037,4.7-7.5,6.58-10.342.924-1.4,1.468-2.193,2.5-2.5,2.287-.688,5.836,1.387,7.854,4.349a7.874,7.874,0,0,1,1.518,5.024" transform="translate(-210.093 0)" fill="#74584d"/>
            <path id="Trazado_1016822" data-name="Trazado 1016822" d="M510.408,12.878c-.237,2.724-2.325,4.5-4.374,6.249-1.662,1.412-5.205,4.43-8.548,4.236-2.325-1.918-3.474-4.2,1.675-5.486,6.467-1.618,8.754-6.68,9.729-10.022a7.873,7.873,0,0,1,1.518,5.024" transform="translate(-212.772 -3.372)" fill="#644d43"/>
            <path id="Trazado_1016823" data-name="Trazado 1016823" d="M506.373,54.928c-.131.35-.288.743-.475,1.169a20.287,20.287,0,0,1-6.4,8.2c-6.1,4.543-13.265,4.18-17.852,3.243a26.957,26.957,0,0,1-4.642-1.368c-.056-1.343-1.356-28.112-11.385-32.148a6.714,6.714,0,0,0-1.112-.344,7.6,7.6,0,0,0-3.125,0,17.537,17.537,0,0,1,3.287-7.473c.15-.2.313-.394.488-.587a12.644,12.644,0,0,1,3.1-2.562,11.9,11.9,0,0,1,3.587-1.387C477.618,20.43,483.7,23.417,487,26.185c2.9,2.431,4,4.968,5.624,8.123a113.934,113.934,0,0,0,13.746,20.62" transform="translate(-198.116 -9.182)" fill="#74584d"/>
            <path id="Trazado_1016824" data-name="Trazado 1016824" d="M521.12,76.092a20.283,20.283,0,0,1-6.4,8.2c-6.1,4.543-13.265,4.18-17.852,3.243-.25-8.285.681-17.633,5.355-19.589,0,0,.556,7.3,18.9,8.142" transform="translate(-213.337 -29.177)" fill="#644d43"/>
            <path id="Trazado_1016825" data-name="Trazado 1016825" d="M494.526,89.055a13.686,13.686,0,0,1-15.621,2.5V67.81l13.122-1.874q.834,7.761,1.68,15.527.413,3.8.819,7.592" transform="translate(-205.639 -28.313)" fill="#f8928c"/>
            <path id="Trazado_1016826" data-name="Trazado 1016826" d="M493.709,81.463l-14.8,3.824V67.81l13.122-1.874q.835,7.761,1.681,15.527" transform="translate(-205.64 -28.313)" fill="#e6817a"/>
            <rect id="Rectángulo_462318" data-name="Rectángulo 462318" width="9.486" height="0.625" transform="matrix(0.961, -0.277, 0.277, 0.961, 258.752, 35.882)" fill="#2c57ff"/>
            <path id="Trazado_1016827" data-name="Trazado 1016827" d="M483.405,54.85a24.224,24.224,0,0,1-.35,3.006c-.094.575-.2,1.05-.275,1.368a20.275,20.275,0,0,1-1.874,5c-2.537,4.236-9.341,7.285-13.747,5-1.625-.844-2.406-2.138-3.749-4.374a24.879,24.879,0,0,1-2.956-10.1c-.037-.544-.075-1.2-.075-1.2q-.075-1.424-.094-3.074a85.345,85.345,0,0,1,.625-11.248,14.767,14.767,0,0,1,9.373-1.874c6.573.968,9.916,6.361,10.622,7.5a17.356,17.356,0,0,1,2.5,10" transform="translate(-197.642 -15.978)" fill="#f3aea0"/>
            <path id="Trazado_1016828" data-name="Trazado 1016828" d="M243.879,296.5l-.919,2.762s-8.884,7.424-19.2,15.19q-1.258-2.277-2.408-4.725c-2.545-5.409-5.324-10.739-8.171-15.829l27.292-1.8a3.354,3.354,0,0,1,3.407,4.405" transform="translate(-91.538 -125.42)" fill="#c6bec0"/>
            <path id="Trazado_1016829" data-name="Trazado 1016829" d="M481.648,59.978a1.008,1.008,0,1,1-1.366-.406,1.008,1.008,0,0,1,1.366.406" transform="translate(-206.004 -25.527)" fill="#3d3936"/>
            <path id="Trazado_1016830" data-name="Trazado 1016830" d="M464.127,59.978a1.008,1.008,0,1,1-1.366-.406,1.008,1.008,0,0,1,1.366.406" transform="translate(-198.48 -25.527)" fill="#3d3936"/>
            <path id="Trazado_1016831" data-name="Trazado 1016831" d="M469.562,68.908c-1.022-.107-2.329-.444-2.754-1.438-.337-.788.05-1.574.5-2.485l.133-.273a29.637,29.637,0,0,0,1.855-4.947l.6.168A30.376,30.376,0,0,1,468,64.984l-.136.276c-.4.8-.708,1.44-.483,1.964.321.752,1.545.988,2.245,1.062Z" transform="translate(-200.39 -25.663)" fill="#e6817a"/>
            <path id="Trazado_1016832" data-name="Trazado 1016832" d="M481.453,53.536a.406.406,0,0,1-.052,0l-5.727-.627a.469.469,0,0,1,.1-.932l5.727.627a.469.469,0,0,1-.051.935" transform="translate(-204.073 -22.316)" fill="#74584d"/>
            <path id="Trazado_1016833" data-name="Trazado 1016833" d="M458.179,52.4a.469.469,0,0,1-.022-.937l5.755-.278a.477.477,0,0,1,.491.446.468.468,0,0,1-.445.491L458.2,52.4h-.023" transform="translate(-196.539 -21.978)" fill="#74584d"/>
            <path id="Trazado_1016834" data-name="Trazado 1016834" d="M470.872,80.208a2.963,2.963,0,0,1-1.579-.366l.344-.522c.018.011,1.783,1.082,5.28-1.248l.346.52a8.062,8.062,0,0,1-4.391,1.615" transform="translate(-201.512 -33.524)" fill="#e6817a"/>
            <path id="Trazado_1016835" data-name="Trazado 1016835" d="M478.074,67.051h5.155a.426.426,0,0,0,.424-.425v-.351a.425.425,0,0,0-.424-.425h-5.155a.426.426,0,0,0-.425.425v.351a.426.426,0,0,0,.425.425" transform="translate(-205.1 -28.276)" fill="#f8928c"/>
            <path id="Trazado_1016836" data-name="Trazado 1016836" d="M463.772,66.272v.35a.422.422,0,0,1-.425.425h-2.818q-.038-.581-.075-1.2h2.893a.426.426,0,0,1,.425.425" transform="translate(-197.717 -28.274)" fill="#f8928c"/>
            <path id="Trazado_1016837" data-name="Trazado 1016837" d="M471.788,35.461c7.167,9.7,12.946,11.115,15.309,11.392.668.079,3.931.461,4.374-.625.332-.814-1.178-1.82-2.751-3.8-3.1-3.9-2.316-6.394-4.123-8.071-1.584-1.469-4.972-2.14-12.81,1.1" transform="translate(-202.583 -14.229)" fill="#74584d"/>
            <path id="Trazado_1016838" data-name="Trazado 1016838" d="M466.821,31.8s-.306.568-.812,1.431c-.131.225-.275.468-.431.725-.556.938-1.262,2.068-2.018,3.187-1.694,2.5-3.655,4.911-4.868,4.83-2.493-.175-3.743-8.3,1.881-12.047a9.807,9.807,0,0,1,.963-.575,6.3,6.3,0,0,1,1.562-.612,2.6,2.6,0,0,1,2.793.819,4.715,4.715,0,0,1,.931,2.243" transform="translate(-196.055 -12.296)" fill="#74584d"/>
            <path id="Trazado_1016839" data-name="Trazado 1016839" d="M476.786,65.531a5,5,0,1,1,5-5,5,5,0,0,1-5,5m0-8.748a3.749,3.749,0,1,0,3.749,3.749,3.753,3.753,0,0,0-3.749-3.749" transform="translate(-202.583 -23.846)" fill="#2c57ff"/>
            <path id="Trazado_1016840" data-name="Trazado 1016840" d="M457.076,65.531a5,5,0,1,1,5-5,5,5,0,0,1-5,5m0-8.748a3.749,3.749,0,1,0,3.749,3.749,3.753,3.753,0,0,0-3.749-3.749" transform="translate(-194.12 -23.846)" fill="#2c57ff"/>
            <path id="Trazado_1016841" data-name="Trazado 1016841" d="M470.558,63.652c-.557-.557-1.038-.809-1.4-.726-.4.093-.583.6-.584.606l-.592-.2a1.61,1.61,0,0,1,1.03-1.013c.588-.139,1.256.161,1.986.892Z" transform="translate(-200.95 -26.745)" fill="#2c57ff"/>
            <path id="Trazado_1016842" data-name="Trazado 1016842" d="M488.232,73.012c-.094.575-.2,1.05-.275,1.368a20.281,20.281,0,0,1-1.874,5c-2.537,4.236-9.341,7.285-13.746,5,15-1.874,15.621-11.872,15.621-11.872.094.169.188.337.275.506" transform="translate(-202.819 -31.134)" fill="#f8a399"/>
            <path id="Trazado_1016843" data-name="Trazado 1016843" d="M435.51,152.859l-26.869,24.369L392.4,160.982l32.492-46.864,6.117,22.3Z" transform="translate(-168.493 -49.002)" fill="#f59e0b"/>
            <path id="Trazado_1016844" data-name="Trazado 1016844" d="M445.225,169.641,418.356,194.01l-3.336-3.337,25.7-37.472Z" transform="translate(-178.207 -65.784)" fill="#c28114"/>
            <path id="Trazado_1016845" data-name="Trazado 1016845" d="M551.048,170.671l-11.1,6.9-19.3-32.948,5.549-6.417Z" transform="translate(-223.564 -59.347)" fill="#c28114"/>
            <path id="Trazado_1016846" data-name="Trazado 1016846" d="M507.6,173.539q-28.69,1.246-57.38,2.5-.993-33.113-1.981-66.234a88.943,88.943,0,0,1,27.043-5.624,85.733,85.733,0,0,1,8.885.013c3.043.15,5.861.45,8.423.825,2.106.306,4.037.669,5.773,1.037q3.843,25.606,7.255,51.862,1.021,7.836,1.981,15.621" transform="translate(-192.474 -44.688)" fill="#f59e0b"/>
            <path id="Trazado_1016847" data-name="Trazado 1016847" d="M471.788,104.243l2.187-2.5,17.5-1.893,5,4.393c-.8.765-6.364,5.918-14.371,5a17.8,17.8,0,0,1-10.31-5" transform="translate(-202.583 -42.875)" fill="#f59e0b"/>
            <path id="Trazado_1016848" data-name="Trazado 1016848" d="M507.642,105.11l-24.357,1.662,15.934-2.487c3.044.149,5.861.45,8.423.825" transform="translate(-207.52 -44.779)" fill="#c28114"/>
            <path id="Trazado_1016849" data-name="Trazado 1016849" d="M501.088,172.975q-13.375.309-26.763.625-1.218-14.687-2.449-29.368Z" transform="translate(-202.621 -61.932)" fill="#c28114"/>
            <rect id="Rectángulo_462319" data-name="Rectángulo 462319" width="9.486" height="0.625" transform="matrix(0.961, -0.277, 0.277, 0.961, 278.122, 34.632)" fill="#2c57ff"/>
            <path id="Trazado_1016850" data-name="Trazado 1016850" d="M495.411,59.83s2.079-3.017,4.411-2.835a3.349,3.349,0,0,1,1.591.6,4.684,4.684,0,0,1-1.092,7.86,3.8,3.8,0,0,1-2.466.274c-1.65-.513-2.824-2.93-2.444-5.9" transform="translate(-212.696 -24.47)" fill="#f3aea0"/>
            <path id="Trazado_1016851" data-name="Trazado 1016851" d="M501.3,65.266l-.18-.6a2.487,2.487,0,0,0,1.569-1.4,2.775,2.775,0,0,0-.22-2.445,1.317,1.317,0,0,0-.884-.729,4.164,4.164,0,0,0-2.64.815l-.365-.507a4.673,4.673,0,0,1,3.146-.918,1.937,1.937,0,0,1,1.3,1.046,3.459,3.459,0,0,1,.244,2.979,3.12,3.12,0,0,1-1.966,1.76" transform="translate(-214.086 -25.517)" fill="#e6817a"/>
            <path id="Trazado_1016852" data-name="Trazado 1016852" d="M501.741,74.374a3.124,3.124,0,1,1,3.125-3.125,3.128,3.128,0,0,1-3.125,3.125m0-5.624a2.5,2.5,0,1,0,2.5,2.5,2.5,2.5,0,0,0-2.5-2.5" transform="translate(-214.103 -29.253)" fill="#f8d11d"/>
            <path id="Trazado_1016853" data-name="Trazado 1016853" d="M282.923,233.125l-103.645,8.314c-2.8-4.131-5.193-7.5-6.9-9.849q55.275.762,110.543,1.535" transform="translate(-74.019 -99.444)" fill="#c6bec0"/>
            <path id="Trazado_1016854" data-name="Trazado 1016854" d="M435.082,264.743l-54.249,24.169a2.265,2.265,0,0,1-1.254-4.151l38.375-25.5c.512.306,1.044.612,1.606.912a42.229,42.229,0,0,0,15.521,4.574" transform="translate(-162.553 -111.324)" fill="#c6bec0"/>
            <path id="Trazado_1016855" data-name="Trazado 1016855" d="M349.8,332.04l-62,32.753a66.891,66.891,0,0,1-13.512-4.582q-2.225-1.583-4.377-3.275,39.945-12.454,79.89-24.9" transform="translate(-115.898 -142.576)" fill="#c6bec0"/>
            <path id="Trazado_1016856" data-name="Trazado 1016856" d="M529.559,254.626l-39.076,29.309a1.032,1.032,0,0,1-1.478-1.4l.964-1.447a10.616,10.616,0,0,1,1.608-1.889l20.979-19.483c3.768-.95,7.155-1.956,9.973-2.787,2.674-.794,4.98-1.575,7.029-2.306" transform="translate(-209.898 -109.335)" fill="#c6bec0"/>
            <path id="Trazado_1016857" data-name="Trazado 1016857" d="M509.2,313.726c-31.061,34.079-66.2,59.736-101.551,79.181a107.922,107.922,0,0,0-10.291-13.115Z" transform="translate(-170.623 -134.712)" fill="#c6bec0"/>
            <path id="Trazado_1016858" data-name="Trazado 1016858" d="M473.262,168.507l-.025-.293q-.609-7.344-1.223-14.684c-.11-1.315-.2-2.646-.29-4.047-.2-3-.422-6.4-.935-10.626-.2-1.678-.43-3.357-.674-4.99l-.047-.314.315-.042c3.939-.522,7.939-.943,11.889-1.251,4.144-.324,8.354-.535,12.515-.626l.267-.006.047.263c1.219,6.818,2.375,13.758,3.437,20.627.767,4.959,1.5,10.007,2.188,15l.049.355h-.465ZM470.78,134.09c.227,1.539.439,3.117.63,4.693.515,4.245.74,7.652.938,10.659.092,1.4.18,2.725.29,4.036q.6,7.195,1.2,14.391l26.224-.612c-.671-4.878-1.39-9.8-2.139-14.642-1.047-6.775-2.187-13.62-3.388-20.349-4.062.094-8.169.3-12.212.618-3.834.3-7.715.705-11.542,1.206" transform="translate(-201.845 -56.521)" fill="#fff"/>
          </g>
        </g>
      </g>
    </g>
  </g>
</svg>
