<svg xmlns="http://www.w3.org/2000/svg" width="141.688" height="141.688" viewBox="0 0 141.688 141.688">
  <g id="Grupo_1196047" data-name="Grupo 1196047" transform="translate(-1084.898 -2017.969)">
    <g id="Grupo_1194306" data-name="Grupo 1194306" transform="translate(710.152 -4491.27)">
      <g id="Grupo_1177320" data-name="Grupo 1177320" transform="translate(-1.98 -1379.43)">
        <g id="Grupo_1177319" data-name="Grupo 1177319" transform="translate(-327.941 1733.668)">
          <rect id="Rectángulo_402033" data-name="Rectángulo 402033" width="141.688" height="141.688" rx="5" transform="translate(704.668 6155)" fill="#104936"/>
        </g>
      </g>
      <g id="documento-de-cumplimiento" transform="translate(396.105 6531.594)">
        <g id="Grupo_1195537" data-name="Grupo 1195537" transform="translate(21.764 1)">
          <path id="Trazado_1016010" data-name="Trazado 1016010" d="M69.9,85.447H22.736A7.668,7.668,0,0,1,15.1,77.811V61.79a1.415,1.415,0,0,1,1.5-1.5,1.415,1.415,0,0,1,1.5,1.5V77.811a4.665,4.665,0,0,0,4.642,4.642H69.9a4.665,4.665,0,0,0,4.642-4.642V8.636A4.665,4.665,0,0,0,69.9,3.995H22.736a4.665,4.665,0,0,0-4.642,4.642v29.2a1.415,1.415,0,0,1-1.5,1.5,1.415,1.415,0,0,1-1.5-1.5V8.636A7.668,7.668,0,0,1,22.736,1H69.9a7.668,7.668,0,0,1,7.636,7.636V77.811A7.668,7.668,0,0,1,69.9,85.447Z" transform="translate(-15.1 -1)" fill="#c0f1e1"/>
        </g>
        <g id="Grupo_1195538" data-name="Grupo 1195538" transform="translate(26.662 12.23)">
          <path id="Trazado_1016011" data-name="Trazado 1016011" d="M73.065,93.1h-.749L25.3,88.755a7.7,7.7,0,0,1-6.888-8.385v-.15a1.362,1.362,0,0,1,.6-1.2,1.164,1.164,0,0,1,1.2-.3c.3,0,.6.15.9.15H68.274a4.665,4.665,0,0,0,4.642-4.642V10a1.359,1.359,0,0,1,.449-1.048,1.7,1.7,0,0,1,1.2-.449l5.54.449a7.8,7.8,0,0,1,5.241,2.7,7.527,7.527,0,0,1,1.8,5.54L80.851,86.06a7.8,7.8,0,0,1-2.7,5.241,8.448,8.448,0,0,1-5.091,1.8ZM21.409,81.718A4.927,4.927,0,0,0,25.6,85.76L72.616,90.1a4.68,4.68,0,0,0,5.091-4.192L84,17.035a4.95,4.95,0,0,0-1.048-3.444A4.981,4.981,0,0,0,79.8,11.944l-3.893-.3V74.231a7.668,7.668,0,0,1-7.636,7.636H21.409Z" transform="translate(-18.371 -8.5)" fill="#c0f1e1"/>
        </g>
        <g id="Grupo_1195543" data-name="Grupo 1195543" transform="translate(36.737 6.765)">
          <g id="Grupo_1195541" data-name="Grupo 1195541">
            <g id="Grupo_1195540" data-name="Grupo 1195540">
              <g id="Grupo_1195539" data-name="Grupo 1195539">
                <path id="Trazado_1016012" data-name="Trazado 1016012" d="M41.271,39.962a1.144,1.144,0,0,1-.749-.3A33.14,33.14,0,0,1,25.1,11.513a1.754,1.754,0,0,1,1.348-1.647,23.882,23.882,0,0,0,5.69-1.048,35.035,35.035,0,0,0,8.385-3.743,1.622,1.622,0,0,1,1.647,0A29.137,29.137,0,0,0,50.4,8.818a26.963,26.963,0,0,0,5.69,1.048,1.477,1.477,0,0,1,1.348,1.5v.15a33.554,33.554,0,0,1-15.422,28.3A1.122,1.122,0,0,1,41.271,39.962ZM28.095,12.711A30.93,30.93,0,0,0,41.271,36.817,30.513,30.513,0,0,0,54.447,12.711a29.083,29.083,0,0,1-4.941-1.048,41.623,41.623,0,0,1-8.385-3.594,27.853,27.853,0,0,1-8.385,3.594A35.581,35.581,0,0,1,28.095,12.711Z" transform="translate(-25.1 -4.85)" fill="#c0f1e1"/>
              </g>
            </g>
          </g>
          <g id="Grupo_1195542" data-name="Grupo 1195542" transform="translate(8.984 10.256)">
            <path id="Trazado_1016013" data-name="Trazado 1016013" d="M35.592,23.229a1.359,1.359,0,0,1-1.048-.449l-2.995-2.995a1.482,1.482,0,1,1,2.1-2.1l1.946,1.946,7.486-7.486a1.482,1.482,0,0,1,2.1,2.1L36.64,22.78a1.359,1.359,0,0,1-1.048.449Z" transform="translate(-31.1 -11.7)" fill="#c0f1e1"/>
          </g>
        </g>
        <g id="Grupo_1195551" data-name="Grupo 1195551" transform="translate(4.994 33.604)">
          <g id="Grupo_1195544" data-name="Grupo 1195544" transform="translate(26.802 35.673)">
            <path id="Trazado_1016014" data-name="Trazado 1016014" d="M45.308,56.183H23.3a1.415,1.415,0,0,1-1.5-1.5V51.691A5.049,5.049,0,0,1,26.891,46.6H41.564a5.049,5.049,0,0,1,5.091,5.091v2.995A1.3,1.3,0,0,1,45.308,56.183ZM24.795,53.188H43.81v-1.5a2.047,2.047,0,0,0-2.1-2.1H27.041a2.047,2.047,0,0,0-2.1,2.1v1.5Z" transform="translate(-21.8 -46.6)" fill="#c0f1e1"/>
          </g>
          <g id="Grupo_1195545" data-name="Grupo 1195545" transform="translate(23.957 42.261)">
            <path id="Trazado_1016015" data-name="Trazado 1016015" d="M48.948,60.583H21.4a1.415,1.415,0,0,1-1.5-1.5V52.5A1.415,1.415,0,0,1,21.4,51h27.55a1.415,1.415,0,0,1,1.5,1.5v6.588A1.415,1.415,0,0,1,48.948,60.583ZM22.895,57.588H47.45V53.995H22.895Z" transform="translate(-19.9 -51)" fill="#c0f1e1"/>
          </g>
          <g id="Grupo_1195550" data-name="Grupo 1195550">
            <g id="Grupo_1195546" data-name="Grupo 1195546" transform="translate(14.374 4.829)">
              <path id="Trazado_1016016" data-name="Trazado 1016016" d="M26.377,48.759a1.359,1.359,0,0,1-1.048-.449L13.949,36.93a1.447,1.447,0,0,1,0-2.1l8.385-8.385a1.447,1.447,0,0,1,2.1,0L35.81,37.829a1.447,1.447,0,0,1,0,2.1L27.425,48.31a1.359,1.359,0,0,1-1.048.449ZM17.094,35.732l9.283,9.283,6.289-6.289-9.283-9.283Z" transform="translate(-13.5 -26)" fill="#c0f1e1"/>
            </g>
            <g id="Grupo_1195547" data-name="Grupo 1195547" transform="translate(24.967 15.272)">
              <path id="Trazado_1016017" data-name="Trazado 1016017" d="M24.8,49.782a4.755,4.755,0,0,1-2.995-1.2,4.247,4.247,0,0,1,0-5.989L30.2,34.21A4.235,4.235,0,0,1,36.184,40.2L27.8,48.584A4.755,4.755,0,0,1,24.8,49.782ZM33.19,36.007a2.128,2.128,0,0,0-.9.3l-8.385,8.385a1.165,1.165,0,0,0,1.647,1.647l8.385-8.385a1.175,1.175,0,0,0,0-1.647A1.144,1.144,0,0,0,33.19,36.007Z" transform="translate(-20.575 -32.975)" fill="#c0f1e1"/>
            </g>
            <g id="Grupo_1195548" data-name="Grupo 1195548" transform="translate(9.732)">
              <path id="Trazado_1016018" data-name="Trazado 1016018" d="M14.592,39.582a4.755,4.755,0,0,1-2.995-1.2,4.181,4.181,0,0,1-1.2-2.995A4.452,4.452,0,0,1,11.6,32.4l8.385-8.385A4.235,4.235,0,0,1,25.972,30l-8.385,8.385A4.755,4.755,0,0,1,14.592,39.582Zm8.385-13.775a2.128,2.128,0,0,0-.9.3l-8.385,8.385a1.1,1.1,0,0,0-.3.9,2.128,2.128,0,0,0,.3.9,1.175,1.175,0,0,0,1.647,0L23.726,27.9a1.175,1.175,0,0,0,0-1.647.823.823,0,0,0-.749-.449Z" transform="translate(-10.4 -22.775)" fill="#c0f1e1"/>
            </g>
            <g id="Grupo_1195549" data-name="Grupo 1195549" transform="translate(0 16.657)">
              <path id="Trazado_1016019" data-name="Trazado 1016019" d="M9.141,59.055a5.908,5.908,0,0,1-3.743-1.5,5.3,5.3,0,0,1-1.5-3.893,4.866,4.866,0,0,1,1.647-3.743l16.77-15.572a1.447,1.447,0,0,1,2.1,0l4.192,4.192a1.447,1.447,0,0,1,0,2.1L13.033,57.408a5.437,5.437,0,0,1-3.893,1.647ZM23.365,37.494,7.643,52.167a2.4,2.4,0,0,0-.749,1.647,3.14,3.14,0,0,0,.6,1.647,1.662,1.662,0,0,0,1.647.6,2.4,2.4,0,0,0,1.647-.749L25.461,39.59Z" transform="translate(-3.9 -33.9)" fill="#c0f1e1"/>
            </g>
          </g>
        </g>
        <g id="Grupo_1195555" data-name="Grupo 1195555" transform="translate(1.7 1.075)">
          <g id="Grupo_1195552" data-name="Grupo 1195552" transform="translate(0.088 38.943)">
            <path id="Trazado_1016020" data-name="Trazado 1016020" d="M7.66,38.051A1.572,1.572,0,0,1,6.312,37.3L1.97,29.366a1.515,1.515,0,0,1,.6-2.1,1.515,1.515,0,0,1,2.1.6l3.144,5.69,3.144-5.69a1.542,1.542,0,1,1,2.7,1.5L9.307,37.3a2.73,2.73,0,0,1-1.647.749Z" transform="translate(-1.759 -27.059)" fill="#c0f1e1"/>
          </g>
          <g id="Grupo_1195553" data-name="Grupo 1195553" transform="translate(0 0)">
            <path id="Trazado_1016021" data-name="Trazado 1016021" d="M12.181,43.049H3.2a1.415,1.415,0,0,1-1.5-1.5V5.168A3.552,3.552,0,0,1,4.1,1.724a10.321,10.321,0,0,1,7.337,0,3.926,3.926,0,0,1,2.4,3.444V41.552A1.76,1.76,0,0,1,12.181,43.049ZM4.844,40.055h5.989V5.168a.823.823,0,0,0-.449-.749,7.867,7.867,0,0,0-5.241,0,1.144,1.144,0,0,0-.3.749Z" transform="translate(-1.7 -1.05)" fill="#c0f1e1"/>
          </g>
          <g id="Grupo_1195554" data-name="Grupo 1195554">
            <path id="Trazado_1016022" data-name="Trazado 1016022" d="M12.181,10.109H3.2a1.415,1.415,0,0,1-1.5-1.5V5.168A3.552,3.552,0,0,1,4.1,1.724a10.321,10.321,0,0,1,7.337,0,3.926,3.926,0,0,1,2.4,3.444V8.611A1.632,1.632,0,0,1,12.181,10.109ZM4.844,7.114h5.989V5.168a.823.823,0,0,0-.449-.749,7.867,7.867,0,0,0-5.241,0,1.144,1.144,0,0,0-.3.749Z" transform="translate(-1.7 -1.05)" fill="#c0f1e1"/>
          </g>
        </g>
        <g id="Grupo_1195560" data-name="Grupo 1195560" transform="translate(50.212 47.416)">
          <g id="Grupo_1195556" data-name="Grupo 1195556" transform="translate(2.396)">
            <path id="Trazado_1016023" data-name="Trazado 1016023" d="M57.561,34.995H37.2A1.5,1.5,0,1,1,37.2,32H57.561a1.415,1.415,0,0,1,1.5,1.5A1.5,1.5,0,0,1,57.561,34.995Z" transform="translate(-35.7 -32)" fill="#c0f1e1"/>
          </g>
          <g id="Grupo_1195557" data-name="Grupo 1195557" transform="translate(0 8.684)">
            <path id="Trazado_1016024" data-name="Trazado 1016024" d="M58.356,40.795H35.6a1.5,1.5,0,0,1,0-2.995H58.356a1.415,1.415,0,0,1,1.5,1.5A1.5,1.5,0,0,1,58.356,40.795Z" transform="translate(-34.1 -37.8)" fill="#c0f1e1"/>
          </g>
          <g id="Grupo_1195558" data-name="Grupo 1195558" transform="translate(8.834 17.219)">
            <path id="Trazado_1016025" data-name="Trazado 1016025" d="M55.422,46.495H41.5a1.5,1.5,0,0,1,0-2.995H55.422a1.415,1.415,0,0,1,1.5,1.5A1.5,1.5,0,0,1,55.422,46.495Z" transform="translate(-40 -43.5)" fill="#c0f1e1"/>
          </g>
          <g id="Grupo_1195559" data-name="Grupo 1195559" transform="translate(14.973 25.903)">
            <path id="Trazado_1016026" data-name="Trazado 1016026" d="M53.383,52.295H45.6a1.5,1.5,0,1,1,0-2.995h7.786a1.415,1.415,0,0,1,1.5,1.5A1.5,1.5,0,0,1,53.383,52.295Z" transform="translate(-44.1 -49.3)" fill="#c0f1e1"/>
          </g>
        </g>
      </g>
    </g>
  </g>
</svg>
