<svg xmlns="http://www.w3.org/2000/svg" xmlns:xlink="http://www.w3.org/1999/xlink" width="396" height="298" viewBox="0 0 396 298">
  <defs>
    <clipPath id="clip-path">
      <rect id="Rectángulo_462111" data-name="Rectángulo 462111" width="371.055" height="276.171" fill="none"/>
    </clipPath>
    <clipPath id="clip-path-3">
      <rect id="Rectángulo_462086" data-name="Rectángulo 462086" width="104.477" height="9.726" fill="none"/>
    </clipPath>
    <clipPath id="clip-path-4">
      <rect id="Rectángulo_462091" data-name="Rectángulo 462091" width="0.548" height="92.123" fill="none"/>
    </clipPath>
    <clipPath id="clip-path-5">
      <rect id="Rectángulo_462092" data-name="Rectángulo 462092" width="94.276" height="0.444" fill="none"/>
    </clipPath>
    <clipPath id="clip-path-6">
      <rect id="Rectángulo_462093" data-name="Rectángulo 462093" width="5.763" height="7.038" fill="none"/>
    </clipPath>
    <clipPath id="clip-path-7">
      <rect id="Rectángulo_462094" data-name="Rectángulo 462094" width="4.666" height="6.831" fill="none"/>
    </clipPath>
    <clipPath id="clip-path-8">
      <rect id="Rectángulo_462095" data-name="Rectángulo 462095" width="2.485" height="2.601" fill="none"/>
    </clipPath>
    <clipPath id="clip-path-9">
      <rect id="Rectángulo_462096" data-name="Rectángulo 462096" width="4.225" height="4.481" fill="none"/>
    </clipPath>
    <clipPath id="clip-path-10">
      <rect id="Rectángulo_462097" data-name="Rectángulo 462097" width="4.019" height="4.561" fill="none"/>
    </clipPath>
    <clipPath id="clip-path-11">
      <rect id="Rectángulo_462098" data-name="Rectángulo 462098" width="4.19" height="5.396" fill="none"/>
    </clipPath>
    <clipPath id="clip-path-12">
      <rect id="Rectángulo_462099" data-name="Rectángulo 462099" width="2.214" height="2.622" fill="none"/>
    </clipPath>
    <clipPath id="clip-path-13">
      <rect id="Rectángulo_462100" data-name="Rectángulo 462100" width="33.107" height="24.316" fill="none"/>
    </clipPath>
    <clipPath id="clip-path-14">
      <rect id="Rectángulo_462102" data-name="Rectángulo 462102" width="5.454" height="17.951" fill="none"/>
    </clipPath>
    <clipPath id="clip-path-15">
      <rect id="Rectángulo_462103" data-name="Rectángulo 462103" width="5.454" height="9.897" fill="none"/>
    </clipPath>
    <clipPath id="clip-path-16">
      <rect id="Rectángulo_462107" data-name="Rectángulo 462107" width="51.129" height="76.109" fill="none"/>
    </clipPath>
    <clipPath id="clip-path-17">
      <rect id="Rectángulo_462104" data-name="Rectángulo 462104" width="7.773" height="20.456" fill="none"/>
    </clipPath>
    <clipPath id="clip-path-18">
      <rect id="Rectángulo_462105" data-name="Rectángulo 462105" width="10.805" height="16.024" fill="none"/>
    </clipPath>
    <clipPath id="clip-path-19">
      <rect id="Rectángulo_462106" data-name="Rectángulo 462106" width="24.969" height="46.626" fill="none"/>
    </clipPath>
    <clipPath id="clip-path-20">
      <path id="Trazado_1015966" data-name="Trazado 1015966" d="M75.213,135.248s-16.77,1.713-17.825,15.6,5.922,71.478,5.922,71.478l45.714-2.918-4.31-65.277a20.224,20.224,0,0,0-3.16-9.933c-1.753-2.737-3.806-5.841-4.973-5.987l-18.8-4.834Z" transform="translate(-57.278 -133.376)" fill="none"/>
    </clipPath>
    <clipPath id="clip-path-22">
      <path id="Trazado_1015981" data-name="Trazado 1015981" d="M62.553,142.386c-8.145,4.993-.791,41.594,3.734,46.587l22.857-17.021-14.223-22.7s-2.883-8.092-8.476-8.093a7.42,7.42,0,0,0-3.892,1.227" transform="translate(-58.894 -141.159)" fill="none"/>
    </clipPath>
  </defs>
  <g id="Grupo_1196043" data-name="Grupo 1196043" transform="translate(-1018 -1565.427)">
    <g id="Grupo_1195536" data-name="Grupo 1195536">
      <rect id="Rectángulo_461737" data-name="Rectángulo 461737" width="396" height="298" transform="translate(1018 1565.427)" fill="#bbc3dc"/>
      <g id="Grupo_1195535" data-name="Grupo 1195535" transform="translate(1027.773 1587.256)">
        <g id="Grupo_1195534" data-name="Grupo 1195534" clip-path="url(#clip-path)">
          <g id="Grupo_1195525" data-name="Grupo 1195525">
            <g id="Grupo_1195524" data-name="Grupo 1195524" clip-path="url(#clip-path)">
              <path id="Trazado_1015848" data-name="Trazado 1015848" d="M97.78,131.871s-.425-3.446,2.761-3.947,12.644-3.4,35.744-1.216c0,0,3.8-19.455,3.834-21.165.1-4.451,1.506-10.228,4.951-13.279.282-.25.487,11.038.611,17.06,0,0,2.907,30.324-.638,33.373s-50.787-.437-47.262-10.827" transform="translate(-33.032 -31.228)" fill="#d1744f"/>
              <path id="Trazado_1015849" data-name="Trazado 1015849" d="M123.751,143.156a91.221,91.221,0,0,0-23.211,1.982c-3.185.5-2.761,3.947-2.761,3.947-2.363,6.965,18.087,10.827,32.9,11.7a172.5,172.5,0,0,1-6.924-17.626" transform="translate(-33.032 -48.442)" fill="#944438"/>
              <path id="Trazado_1015850" data-name="Trazado 1015850" d="M104.76,137.755S92.438,135.71,92.8,145.319s24.369,16.13,30.895,14.569l.026-20.761Z" transform="translate(-31.406 -46.565)" fill="#ffe18f"/>
              <path id="Trazado_1015851" data-name="Trazado 1015851" d="M114.793,137.773c-1.716.585-4,1.247-4.672,3.155a3.854,3.854,0,0,0,2.394,4.978c2.607.988,5.339-.331,7.961-.557a16.387,16.387,0,0,1,8.4,1.512c.529.25.994-.538.462-.789a17.522,17.522,0,0,0-6.429-1.668,16.857,16.857,0,0,0-3.406.144c-1.228.176-2.422.533-3.649.71-2.1.3-5.086-.275-5.044-2.962.037-2.333,2.385-3.013,4.228-3.641.554-.189.316-1.072-.243-.881" transform="translate(-37.193 -46.624)" fill="#fbf3e8"/>
              <path id="Trazado_1015852" data-name="Trazado 1015852" d="M127.7,162.369c-1.916,2.3-20.664-2.526-22.72-5.657,0,0-.32-10.494.478-10.711C113.6,143.8,127.7,162.369,127.7,162.369" transform="translate(-35.512 -49.356)" fill="#ffc557"/>
              <path id="Trazado_1015853" data-name="Trazado 1015853" d="M339.13,44.3a18.28,18.28,0,0,0-18.281-18.28l-165.868.108a23.35,23.35,0,0,0-23.335,23.351V257.3A25.593,25.593,0,0,0,157.238,282.9H295.989l43.894-.611Z" transform="translate(-44.559 -8.808)" fill="#fbf3e8"/>
              <path id="Trazado_1015854" data-name="Trazado 1015854" d="M165.27,406.262c6.849,0,16.778-9.2,16.778-16.049H370.982s-.73,16.049-18.967,16.049Z" transform="translate(-55.94 -132.077)" fill="#944438"/>
              <g id="Grupo_1195475" data-name="Grupo 1195475" transform="translate(133.032 23.992)" style="mix-blend-mode: multiply;isolation: isolate">
                <g id="Grupo_1195474" data-name="Grupo 1195474">
                  <g id="Grupo_1195473" data-name="Grupo 1195473" clip-path="url(#clip-path-3)">
                    <path id="Trazado_1015855" data-name="Trazado 1015855" d="M210.825,41.132A4.863,4.863,0,1,0,205.963,46a4.863,4.863,0,0,0,4.863-4.864" transform="translate(-201.099 -36.268)" fill="#f7ead7"/>
                    <path id="Trazado_1015856" data-name="Trazado 1015856" d="M283.237,41.132A4.863,4.863,0,1,0,278.375,46a4.863,4.863,0,0,0,4.863-4.864" transform="translate(-225.609 -36.268)" fill="#f7ead7"/>
                    <path id="Trazado_1015857" data-name="Trazado 1015857" d="M354.055,41.132A4.863,4.863,0,1,0,349.193,46a4.863,4.863,0,0,0,4.863-4.864" transform="translate(-249.579 -36.268)" fill="#f7ead7"/>
                  </g>
                </g>
              </g>
              <path id="Trazado_1015858" data-name="Trazado 1015858" d="M202.769,26.181a15.376,15.376,0,1,0-2.626-8.6" transform="translate(-67.743 -0.748)" fill="none" stroke="#944438" stroke-miterlimit="10" stroke-width="4.421"/>
              <path id="Trazado_1015859" data-name="Trazado 1015859" d="M274.446,26.181a15.376,15.376,0,1,0-2.626-8.6" transform="translate(-92.004 -0.748)" fill="none" stroke="#944438" stroke-miterlimit="10" stroke-width="4.421"/>
              <path id="Trazado_1015860" data-name="Trazado 1015860" d="M346.122,26.181a15.376,15.376,0,1,0-2.626-8.6" transform="translate(-116.264 -0.748)" fill="none" stroke="#944438" stroke-miterlimit="10" stroke-width="4.421"/>
              <rect id="Rectángulo_462087" data-name="Rectángulo 462087" width="35.055" height="13.098" transform="translate(232.841 203.697)" fill="#2ed19b"/>
              <rect id="Rectángulo_462088" data-name="Rectángulo 462088" width="35.055" height="13.098" transform="translate(233.043 186.363)" fill="#064260"/>
              <path id="Trazado_1015861" data-name="Trazado 1015861" d="M225.317,166.24H195.8V127.585h38.655V157.1l-9.142,9.142" transform="translate(-66.275 -43.184)" fill="#e0e8fc"/>
              <path id="Trazado_1015862" data-name="Trazado 1015862" d="M240.122,181.123c2.389-3.474.435-8.9.435-8.9l8.9-.022s-6.4,10.267-9.338,8.925" transform="translate(-81.275 -58.285)" fill="#b0c0d2"/>
              <rect id="Rectángulo_462089" data-name="Rectángulo 462089" width="18.242" height="7.156" transform="translate(138.821 80.225)" fill="#ffe18f"/>
              <path id="Trazado_1015863" data-name="Trazado 1015863" d="M194.988,119.5H165.475V80.841H204.13v29.513l-9.142,9.142" transform="translate(-56.009 -27.363)" fill="#34755a"/>
              <path id="Trazado_1015864" data-name="Trazado 1015864" d="M209.792,134.379c2.389-3.474.434-8.9.434-8.9l8.9-.022s-6.4,10.267-9.338,8.925" transform="translate(-71.009 -42.463)" fill="#659c85"/>
              <rect id="Rectángulo_462090" data-name="Rectángulo 462090" width="18.242" height="7.156" transform="translate(118.757 49.304)" fill="#ffe18f"/>
              <path id="Trazado_1015865" data-name="Trazado 1015865" d="M305.6,105.624c-19.371,0-22.307-22.307-22.307-22.307l-7.631,2.348s11.447,51.95-5.674,48.918v36.2h36.2" transform="translate(-91.384 -28.201)" fill="none" stroke="#064260" stroke-miterlimit="10" stroke-width="0.553"/>
              <g id="Grupo_1195478" data-name="Grupo 1195478" transform="translate(214.529 61.3)" opacity="0.49">
                <g id="Grupo_1195477" data-name="Grupo 1195477">
                  <g id="Grupo_1195476" data-name="Grupo 1195476" clip-path="url(#clip-path-4)">
                    <line id="Línea_3636" data-name="Línea 3636" y2="2.194" transform="translate(0.274 0.274)" fill="none" stroke="#064260" stroke-linecap="round" stroke-linejoin="round" stroke-width="0.829"/>
                    <line id="Línea_3637" data-name="Línea 3637" y2="80.304" transform="translate(0.274 7.056)" fill="none" stroke="#064260" stroke-linecap="round" stroke-linejoin="round" stroke-width="0.829" stroke-dasharray="6.937 6.937"/>
                    <line id="Línea_3638" data-name="Línea 3638" y2="2.194" transform="translate(0.274 89.655)" fill="none" stroke="#064260" stroke-linecap="round" stroke-linejoin="round" stroke-width="0.829"/>
                  </g>
                </g>
              </g>
              <line id="Línea_3639" data-name="Línea 3639" y1="22.857" transform="translate(197.866 119.472)" fill="none" stroke="#064260" stroke-miterlimit="10" stroke-width="1.334"/>
              <path id="Trazado_1015866" data-name="Trazado 1015866" d="M194.777,296.058c0-10.506,3.261-11.955,7.608-17.39s3.985-9.419,3.985-9.419l63.4,9.419v30.794l-63.4,9.419s.363-3.985-3.985-9.419-7.608-6.883-7.608-17.39" transform="translate(-65.927 -91.134)" fill="none" stroke="#064260" stroke-miterlimit="10" stroke-width="0.671"/>
              <g id="Grupo_1195481" data-name="Grupo 1195481" transform="translate(120.658 201.079)" opacity="0.49">
                <g id="Grupo_1195480" data-name="Grupo 1195480">
                  <g id="Grupo_1195479" data-name="Grupo 1195479" clip-path="url(#clip-path-5)">
                    <line id="Línea_3640" data-name="Línea 3640" x2="93.832" transform="translate(0.222 0.222)" fill="none" stroke="#064260" stroke-linecap="round" stroke-linejoin="round" stroke-width="0.671" stroke-dasharray="5.368 5.368"/>
                  </g>
                </g>
              </g>
              <path id="Trazado_1015867" data-name="Trazado 1015867" d="M237.476,220.013a18.036,18.036,0,0,1,8.367,24.236c-.256.527.532.991.789.462a18.953,18.953,0,0,0-8.7-25.487c-.526-.259-.99.529-.461.789" transform="translate(-80.3 -74.184)" fill="#064260"/>
              <path id="Trazado_1015868" data-name="Trazado 1015868" d="M245.3,246.515a24.2,24.2,0,0,1,1.948,8.546.463.463,0,0,0,.78.323L256.6,248.4c.456-.372-.194-1.015-.646-.646l-8.572,6.988.78.323a25.407,25.407,0,0,0-2.073-9.007c-.232-.538-1.02-.074-.789.461" transform="translate(-83.014 -83.202)" fill="#064260"/>
              <path id="Trazado_1015869" data-name="Trazado 1015869" d="M261.877,133.53h21.885a.457.457,0,0,0,0-.914H261.877a.457.457,0,0,0,0,.914" transform="translate(-88.489 -44.887)" fill="#064260"/>
              <path id="Trazado_1015870" data-name="Trazado 1015870" d="M290.17,124.468a15.382,15.382,0,0,0,4.749,5.989q-.047-.358-.093-.718a27.821,27.821,0,0,1-4.519,4.307c-.464.35-.009,1.144.461.789a28.834,28.834,0,0,0,4.7-4.449.467.467,0,0,0-.093-.718,14.508,14.508,0,0,1-4.421-5.661c-.237-.537-1.025-.073-.789.461" transform="translate(-98.196 -41.892)" fill="#064260"/>
              <path id="Trazado_1015871" data-name="Trazado 1015871" d="M326.524,88.24a5.465,5.465,0,1,0-5.466,5.466,5.466,5.466,0,0,0,5.466-5.466" transform="translate(-106.82 -28.017)" fill="#34755a"/>
              <path id="Trazado_1015872" data-name="Trazado 1015872" d="M177.723,300.637a5.466,5.466,0,1,0-5.466,5.466,5.466,5.466,0,0,0,5.466-5.466" transform="translate(-56.455 -99.908)" fill="#2ed19b"/>
              <path id="Trazado_1015873" data-name="Trazado 1015873" d="M449.17,110.211a11.744,11.744,0,0,0-2.711,4.894,8.821,8.821,0,0,0,.327,5.542" transform="translate(-151.015 -37.304)" fill="none" stroke="#0d294d" stroke-linecap="round" stroke-miterlimit="10" stroke-width="1.105"/>
              <path id="Trazado_1015874" data-name="Trazado 1015874" d="M479.533,113.749c-.214-2.547-5.689-5.013-4.142-8.161s1.934-3.934-1.9-6-2.215-1.915-2.578-6.527-6.464-4.8-6.464-4.8a17.99,17.99,0,0,0-12.187,3.185c-1.244.948-3.535,4.989-3.142,6.5,0,0,3.17-.1-.71,5.808s-1.129,9.1.2,9.906l24.834-.456.116-2.836.984,2.813Z" transform="translate(-151.102 -29.854)" fill="#0d294d"/>
              <path id="Trazado_1015875" data-name="Trazado 1015875" d="M451.162,112.859a3.888,3.888,0,1,0,1.883.216" transform="translate(-151.562 -38.2)" fill="none" stroke="#34755a" stroke-miterlimit="10" stroke-width="1.105"/>
              <path id="Trazado_1015876" data-name="Trazado 1015876" d="M452.737,112.521a.406.406,0,1,0-.349.454A.406.406,0,0,0,452.737,112.521Z" transform="translate(-152.966 -37.966)" fill="none" stroke="#34755a" stroke-miterlimit="10" stroke-width="1.105"/>
              <path id="Trazado_1015877" data-name="Trazado 1015877" d="M465.7,102.6a.363.363,0,0,0,.41.325c.854-.116,2.8-.559,3.376,1.64.58,2.223-1.406,3.779-2.692,4.021-.371.069-1.225.26-1.441.57-.667.95-.789,2.851-1.084,5.239a6.615,6.615,0,0,0,3.662,7.076S455.44,129.8,454.695,123.2c0,0-.543-12.252-.613-12.306-1.18-.9-5.29-.819-3.882-9.789,1.3-8.309,7.247-8.514,8.773-8.447,1.288.058,5.694-.245,6.73,9.941" transform="translate(-152.283 -31.361)" fill="#f79354"/>
              <path id="Trazado_1015878" data-name="Trazado 1015878" d="M476.672,111.4s-1.717-2.656-2.921,1.365" transform="translate(-160.352 -37.413)" fill="#d96c21"/>
              <path id="Trazado_1015879" data-name="Trazado 1015879" d="M461.635,109.183a2.025,2.025,0,1,0,2.233,1.793,2.024,2.024,0,0,0-2.233-1.793" transform="translate(-155.641 -36.951)" fill="#f78737"/>
              <path id="Trazado_1015880" data-name="Trazado 1015880" d="M450,110.052a2.026,2.026,0,0,0,.183-3.787,9.872,9.872,0,0,0-.183,3.787" transform="translate(-152.268 -35.968)" fill="#f78737"/>
              <path id="Trazado_1015881" data-name="Trazado 1015881" d="M452.413,110.089l3.261,1.121s-1.353,1.287-2.241.8-1.021-1.918-1.021-1.918" transform="translate(-153.13 -37.262)" fill="#fff"/>
              <path id="Trazado_1015882" data-name="Trazado 1015882" d="M455.232,106.32l-.2,2.249-1.125-.329a.284.284,0,0,1-.121-.474Z" transform="translate(-153.568 -35.987)" fill="#f67216"/>
              <path id="Trazado_1015883" data-name="Trazado 1015883" d="M460.4,103.578c.314.336-.01-.938-.486-1.178a.906.906,0,0,0-1.236.309,2.829,2.829,0,0,1,1.722.869" transform="translate(-155.251 -34.62)"/>
              <path id="Trazado_1015884" data-name="Trazado 1015884" d="M452.064,101.638c-.423.181.386-.855.918-.884a.906.906,0,0,1,1.008.779,2.834,2.834,0,0,0-1.926.1" transform="translate(-152.972 -34.102)"/>
              <path id="Trazado_1015885" data-name="Trazado 1015885" d="M458.567,106.618c-.1.385-.331.658-.518.611s-.258-.4-.158-.785.331-.658.518-.61.257.4.158.785" transform="translate(-154.969 -35.82)"/>
              <path id="Trazado_1015886" data-name="Trazado 1015886" d="M454.029,105.161c-.1.368-.316.629-.495.583s-.246-.382-.152-.75.317-.628.495-.583.246.382.151.75" transform="translate(-153.444 -35.339)"/>
              <path id="Trazado_1015887" data-name="Trazado 1015887" d="M456.217,120.146a32.383,32.383,0,0,0,5.819-.153c1.909-.378-4.69,6.4-5.819.153" transform="translate(-154.418 -40.609)" fill="#d96c21"/>
              <path id="Trazado_1015888" data-name="Trazado 1015888" d="M479.962,90.736c1.346,1.119,2.767,2.6,2.539,4.332a7.868,7.868,0,0,0-.352,2.055,2.35,2.35,0,0,0,1.4,1.656,19.647,19.647,0,0,0,2.143.71c2.188.76,4.052,3.064,3.417,5.292a9.6,9.6,0,0,0-.74,2.287,4.009,4.009,0,0,0,1.283,2.534L493,113.468" transform="translate(-162.454 -30.712)" fill="none" stroke="#0d294d" stroke-linecap="round" stroke-miterlimit="10" stroke-width="1.105"/>
              <path id="Trazado_1015889" data-name="Trazado 1015889" d="M456.442,91.131s-1.163,4.2,1.892,3.184,3.682-1.834,5.292,2,.643,5.8,5.642,4.651c0,0,2.759-19.985-12.825-9.835" transform="translate(-154.42 -29.872)" fill="#0d294d"/>
              <path id="Trazado_1015890" data-name="Trazado 1015890" d="M448.451,104.25l.433.089A.434.434,0,0,0,449.4,104l.018-.091a.433.433,0,0,0-.338-.511l-.433-.089Z" transform="translate(-151.789 -34.968)"/>
              <path id="Trazado_1015891" data-name="Trazado 1015891" d="M448.451,104.25l.433.089A.434.434,0,0,0,449.4,104l.018-.091a.433.433,0,0,0-.338-.511l-.433-.089Z" transform="translate(-151.789 -34.968)" fill="none" stroke="#000" stroke-miterlimit="10" stroke-width="0.323"/>
              <g id="Grupo_1195484" data-name="Grupo 1195484" transform="translate(301.919 67.297)" opacity="0.27">
                <g id="Grupo_1195483" data-name="Grupo 1195483">
                  <g id="Grupo_1195482" data-name="Grupo 1195482" clip-path="url(#clip-path-6)">
                    <path id="Trazado_1015892" data-name="Trazado 1015892" d="M456.486,104.679c-.392,1.917.542,3.727,2.084,4.042s3.109-.984,3.5-2.9-.542-3.727-2.084-4.042-3.109.985-3.5,2.9" transform="translate(-456.397 -101.73)" fill="#fff"/>
                  </g>
                </g>
              </g>
              <path id="Trazado_1015893" data-name="Trazado 1015893" d="M456.486,104.679c-.392,1.917.542,3.727,2.084,4.042s3.109-.984,3.5-2.9-.542-3.727-2.084-4.042S456.878,102.762,456.486,104.679Z" transform="translate(-154.478 -34.433)" fill="none" stroke="#34755a" stroke-miterlimit="10" stroke-width="0.367"/>
              <path id="Trazado_1015894" data-name="Trazado 1015894" d="M448.251,102.874c-.382,1.869.307,3.588,1.537,3.84s2.538-1.06,2.919-2.93-.306-3.588-1.537-3.84S448.633,101,448.251,102.874Z" transform="translate(-151.686 -33.818)" fill="none" stroke="#000" stroke-miterlimit="10" stroke-width="0.323"/>
              <path id="Trazado_1015895" data-name="Trazado 1015895" d="M448.251,102.874c-.382,1.869.307,3.588,1.537,3.84s2.538-1.06,2.919-2.93-.306-3.588-1.537-3.84S448.633,101,448.251,102.874Z" transform="translate(-151.686 -33.818)" fill="none" stroke="#000" stroke-miterlimit="10" stroke-width="0.323"/>
              <g id="Grupo_1195487" data-name="Grupo 1195487" transform="translate(296.46 66.095)" opacity="0.27">
                <g id="Grupo_1195486" data-name="Grupo 1195486">
                  <g id="Grupo_1195485" data-name="Grupo 1195485" clip-path="url(#clip-path-7)">
                    <path id="Trazado_1015896" data-name="Trazado 1015896" d="M448.251,102.874c-.382,1.869.307,3.588,1.537,3.84s2.538-1.06,2.919-2.93-.306-3.588-1.537-3.84-2.537,1.06-2.919,2.93" transform="translate(-448.146 -99.913)" fill="#fff"/>
                  </g>
                </g>
              </g>
              <g id="Grupo_1195490" data-name="Grupo 1195490" transform="translate(305.151 67.301)" opacity="0.27">
                <g id="Grupo_1195489" data-name="Grupo 1195489">
                  <g id="Grupo_1195488" data-name="Grupo 1195488" clip-path="url(#clip-path-8)">
                    <path id="Trazado_1015897" data-name="Trazado 1015897" d="M461.284,101.736a2.27,2.27,0,0,1,.357.044,2.894,2.894,0,0,1,2.127,2.557c-.863-.834-1.684-1.708-2.485-2.6" transform="translate(-461.284 -101.736)" fill="#fff"/>
                  </g>
                </g>
              </g>
              <g id="Grupo_1195493" data-name="Grupo 1195493" transform="translate(303.297 67.703)" opacity="0.27">
                <g id="Grupo_1195492" data-name="Grupo 1195492">
                  <g id="Grupo_1195491" data-name="Grupo 1195491" clip-path="url(#clip-path-9)">
                    <path id="Trazado_1015898" data-name="Trazado 1015898" d="M458.481,102.628a3.129,3.129,0,0,1,.384-.284,49.02,49.02,0,0,0,3.841,3.972,4.165,4.165,0,0,1-.179.509q-2.047-2.075-4.047-4.2" transform="translate(-458.481 -102.344)" fill="#fff"/>
                  </g>
                </g>
              </g>
              <g id="Grupo_1195496" data-name="Grupo 1195496" transform="translate(301.919 69.774)" opacity="0.27">
                <g id="Grupo_1195495" data-name="Grupo 1195495">
                  <g id="Grupo_1195494" data-name="Grupo 1195494" clip-path="url(#clip-path-10)">
                    <path id="Trazado_1015899" data-name="Trazado 1015899" d="M460.416,109.618a2.5,2.5,0,0,1-1.846.37c-1.542-.315-2.475-2.125-2.084-4.042a4.5,4.5,0,0,1,.125-.472c1.237,1.41,2.5,2.8,3.8,4.144" transform="translate(-456.397 -105.474)" fill="#fff"/>
                  </g>
                </g>
              </g>
              <g id="Grupo_1195499" data-name="Grupo 1195499" transform="translate(296.46 67.348)" opacity="0.27">
                <g id="Grupo_1195498" data-name="Grupo 1195498">
                  <g id="Grupo_1195497" data-name="Grupo 1195497" clip-path="url(#clip-path-11)">
                    <path id="Trazado_1015900" data-name="Trazado 1015900" d="M450.85,107.2c-.869-.88-1.778-1.719-2.7-2.539a5.062,5.062,0,0,1,.1-1.15,4.818,4.818,0,0,1,.7-1.707,25.451,25.451,0,0,0,3.389,3.746,3.366,3.366,0,0,1-1.486,1.651" transform="translate(-448.146 -101.807)" fill="#fff"/>
                  </g>
                </g>
              </g>
              <g id="Grupo_1195502" data-name="Grupo 1195502" transform="translate(298.906 66.095)" opacity="0.27">
                <g id="Grupo_1195501" data-name="Grupo 1195501">
                  <g id="Grupo_1195500" data-name="Grupo 1195500" clip-path="url(#clip-path-12)">
                    <path id="Trazado_1015901" data-name="Trazado 1015901" d="M451.843,99.937a1.556,1.556,0,0,1,.578.007c.948.193,1.573,1.258,1.637,2.591q-1.1-1.307-2.214-2.6" transform="translate(-451.843 -99.913)" fill="#fff"/>
                  </g>
                </g>
              </g>
              <path id="Trazado_1015902" data-name="Trazado 1015902" d="M448.251,102.874c-.382,1.869.307,3.588,1.537,3.84s2.538-1.06,2.919-2.93-.306-3.588-1.537-3.84S448.633,101,448.251,102.874Z" transform="translate(-151.686 -33.818)" fill="none" stroke="#34755a" stroke-miterlimit="10" stroke-width="0.323"/>
              <path id="Trazado_1015903" data-name="Trazado 1015903" d="M455.941,106.351s-.222-1.619-1.021-.208" transform="translate(-153.979 -35.731)" fill="none" stroke="#34755a" stroke-miterlimit="10" stroke-width="0.367"/>
              <path id="Trazado_1015904" data-name="Trazado 1015904" d="M465,107.628l.433.089a.434.434,0,0,0,.511-.338l.019-.091a.433.433,0,0,0-.338-.511l-.433-.089Z" transform="translate(-157.39 -36.111)" fill="#34755a"/>
              <path id="Trazado_1015905" data-name="Trazado 1015905" d="M465,107.628l.433.089a.434.434,0,0,0,.511-.338l.019-.091a.433.433,0,0,0-.338-.511l-.433-.089Z" transform="translate(-157.39 -36.111)" fill="none" stroke="#34755a" stroke-miterlimit="10" stroke-width="0.323"/>
              <line id="Línea_3641" data-name="Línea 3641" x1="6.039" y1="0.435" transform="translate(307.715 71.049)" fill="none" stroke="#34755a" stroke-miterlimit="10" stroke-width="0.323"/>
              <path id="Trazado_1015906" data-name="Trazado 1015906" d="M474.731,113.518a3.889,3.889,0,1,0,1.883.217" transform="translate(-159.539 -38.423)" fill="none" stroke="#34755a" stroke-miterlimit="10" stroke-width="1.105"/>
              <path id="Trazado_1015907" data-name="Trazado 1015907" d="M476.3,113.181a.405.405,0,1,0-.349.454A.405.405,0,0,0,476.3,113.181Z" transform="translate(-160.944 -38.19)" fill="none" stroke="#34755a" stroke-miterlimit="10" stroke-width="1.105"/>
              <path id="Trazado_1015908" data-name="Trazado 1015908" d="M519.8,410.515c0-1.276-17.984-2.311-40.167-2.311s-40.168,1.035-40.168,2.311,17.984,2.311,40.168,2.311,40.167-1.035,40.167-2.311" transform="translate(-148.748 -138.166)" fill="#064260"/>
              <path id="Trazado_1015909" data-name="Trazado 1015909" d="M455.376,377.086l-2.371,17.831a20.733,20.733,0,0,1,1.094,5.106c-2.358,1.619-10.436,1.289-11.489,0a17.57,17.57,0,0,0,3.648-5.593L443.7,376.762Z" transform="translate(-149.812 -127.524)" fill="#d96c21"/>
              <path id="Trazado_1015910" data-name="Trazado 1015910" d="M453.27,381.509l3.1,21.155s.684.536,1.338-.851c.392-.832-.122-1.459-1.033-4.8l1.885-15.684Z" transform="translate(-153.42 -129.069)" fill="#f78737"/>
              <path id="Trazado_1015911" data-name="Trazado 1015911" d="M508.467,376.762l5.431,16.291s-.73,5.917-.892,6.322c-.575,1.438,5.917-6.565,5.917-6.565l.567-15.724Z" transform="translate(-172.103 -127.524)" fill="#d96c21"/>
              <path id="Trazado_1015912" data-name="Trazado 1015912" d="M516.8,376.762l3.14,19.252s5.584,3.844,6.019,2.632c.181-.5-3.317-4.578-4.037-5.875l.39-15.685Z" transform="translate(-174.923 -127.524)" fill="#f78737"/>
              <path id="Trazado_1015913" data-name="Trazado 1015913" d="M432.687,410.058c-.425.316-.122.849.487.854l12.285.1c.3,0,5.892-.308,6.111-.454.023-.015-.608-2.34-.608-2.34l-5.577,1.4a58.942,58.942,0,0,0-2.553-5.41c-.259-.228-10.145,5.853-10.145,5.853" transform="translate(-146.386 -136.811)" fill="#ffe18f"/>
              <path id="Trazado_1015914" data-name="Trazado 1015914" d="M525.884,407.5a1.542,1.542,0,0,1-.689,2.231c-1.478.88-3.894,2.2-3.894,2.2s-4.012-1.264-5.535-1.928c-1.021-.445-1.821-1.1-1.695-1.952l.177-1.146c.015-.1,2.675-4.539,2.675-4.539l3.89-.486Z" transform="translate(-173.996 -136.026)" fill="#ffe18f"/>
              <path id="Trazado_1015915" data-name="Trazado 1015915" d="M468.2,188.682a72.822,72.822,0,0,1,8.024,20.261c2.543,9.945,26.667,86.334,31.854,105.138-3.134.755-27.984-.18-29.964-.29-6.3-18.054-18.8-68.844-21.5-80.217-.415-1.748-2.243-1.357-2.033.427,1.533,12.988,8.754,62.9,8.754,82.025-1.644.837-27.6.886-29.5.649-2.064-22.277-6.636-101.2,9.9-128.542,7.563-1.043,16.793.32,24.462.548" transform="translate(-146.106 -63.547)" fill="#064260"/>
              <path id="Trazado_1015916" data-name="Trazado 1015916" d="M446.839,192.809a95.85,95.85,0,0,0-8.946,40.637c0,23.529,1.946,84.943,1.946,84.943" transform="translate(-148.215 -65.261)" fill="none" stroke="#fff" stroke-miterlimit="10" stroke-width="0.446"/>
              <line id="Línea_3642" data-name="Línea 3642" x1="35.906" y1="124.74" transform="translate(318.289 125.47)" fill="none" stroke="#fff" stroke-miterlimit="10" stroke-width="0.446"/>
              <path id="Trazado_1015917" data-name="Trazado 1015917" d="M473.547,189.178s.617,23.845,10.29,22.146" transform="translate(-160.283 -64.032)" fill="none" stroke="#fff" stroke-miterlimit="10" stroke-width="0.446"/>
              <g id="Grupo_1195505" data-name="Grupo 1195505" transform="translate(296.611 122.958)" opacity="0.21" style="mix-blend-mode: multiply;isolation: isolate">
                <g id="Grupo_1195504" data-name="Grupo 1195504">
                  <g id="Grupo_1195503" data-name="Grupo 1195503" clip-path="url(#clip-path-13)">
                    <path id="Trazado_1015918" data-name="Trazado 1015918" d="M448.374,188.144l33.107,22.042a75.19,75.19,0,0,0-8.754-24.316Z" transform="translate(-448.374 -185.87)"/>
                  </g>
                </g>
              </g>
              <path id="Trazado_1015919" data-name="Trazado 1015919" d="M440.343,214.174c9.674,1.7,10.4-19.872,10.4-19.872" transform="translate(-149.045 -65.766)" fill="none" stroke="#fff" stroke-miterlimit="10" stroke-width="0.446"/>
              <path id="Trazado_1015920" data-name="Trazado 1015920" d="M377.315,168.429c6.967-.215,11.618-.206,12.269-.155l22.458-.492-.067-.058s1.134-.006,1.932-.066a.885.885,0,0,0,.8-.677c2.155-9.09,6.513-33.049,14.329-31.1.112.028,2.749.414,2.467.768-2.559,3.224-7.226,19.065-7.226,19.065-.054.24-.046,1.3-.041,2.833,2.751,15.769-.539,16.991-.539,16.991a7.524,7.524,0,0,1-1.658.73l-.036.05-.032-.027c-10.029,3.116-39.044-3.658-39.044-3.658-2.364-.635-7.631-4.146-5.61-4.208" transform="translate(-127.558 -45.956)" fill="#f79354"/>
              <path id="Trazado_1015921" data-name="Trazado 1015921" d="M451,135.887c-3.88-.97-6.907,4.444-9.236,11.254,1.551,2.946,3.08,5.9,4.447,8.931a2.285,2.285,0,0,1,.031-.351s4.667-15.841,7.226-19.065c.281-.354-2.355-.74-2.468-.768" transform="translate(-149.526 -45.956)" fill="#d96c21"/>
              <path id="Trazado_1015922" data-name="Trazado 1015922" d="M440.7,191.283a12.908,12.908,0,0,0-.044,2.229,16.735,16.735,0,0,0,2.893-.583l.032.028c.013-.016.024-.034.036-.05a7.51,7.51,0,0,0,1.658-.73s1.772-.666,1.625-7.262c-3.143.276-5.856,3.428-6.2,6.369" transform="translate(-149.143 -62.589)" fill="#d96c21"/>
              <path id="Trazado_1015923" data-name="Trazado 1015923" d="M447.263,145.942,439,142.051s4.133-7.295,11.915-6.566" transform="translate(-148.589 -45.841)" fill="#1e3a8a"/>
              <path id="Trazado_1015924" data-name="Trazado 1015924" d="M389.882,183.482s-5.27-3.337-5.489-2.528c-.433,1.589,3.944,3.261,3.394,3.756,0,0,1.27-.788,2.1-1.228" transform="translate(-130.097 -61.205)" fill="#fcb6a3"/>
              <path id="Trazado_1015925" data-name="Trazado 1015925" d="M451.567,133.942c.22.534-8.013,16.552-7.751,21.789.265,5.276,1.953,7.813,1.672,8.606,0,0,3.679,3.556,26.261,0,.325-5.511,7.3-17.507-1.621-27.072-.979-1.527-5.385-4.776-7.619-5.673,0,0-2.035,4.994-10.942,2.35" transform="translate(-150.218 -44.54)" fill="#1e3a8a"/>
              <path id="Trazado_1015926" data-name="Trazado 1015926" d="M472.262,184.784l1.7-6.8s.162.324-3.242,1.135-4.377-3.242-7.133-1.783,0,3.728-3.89,3.4-5.187-5.835-7.781-4.215-8.268.972-8.268.972l4.149,6.736Z" transform="translate(-150.164 -59.649)" fill="#064260"/>
              <line id="Línea_3643" data-name="Línea 3643" x2="24.462" y2="0.548" transform="translate(297.636 124.587)" fill="none" stroke="#fff" stroke-miterlimit="10" stroke-width="0.446"/>
              <path id="Trazado_1015927" data-name="Trazado 1015927" d="M419.307,165.858c-2.905,0-6.994-1.353-11.452-6.962l3.435-2.731c2.93,3.687,5.974,5.568,8.545,5.277,1.939-.213,3.684-1.634,4.786-3.9.53-1.09,1.083-2.249,1.655-3.448,4.287-8.986,7.121-25.426,13.929-24.778l.162,3.81c-5.106,1.783-6.3,14.821-10.131,22.857-.578,1.211-1.135,2.379-1.67,3.479-1.775,3.649-4.783,5.96-8.252,6.341a9.32,9.32,0,0,1-1.006.054" transform="translate(-138.048 -43.764)" fill="#ffe18f"/>
              <path id="Trazado_1015928" data-name="Trazado 1015928" d="M463.822,125.774c-.986,2.469-.533,4.088-1.195,6.681a3.557,3.557,0,0,1-.862,1.609A34.243,34.243,0,0,1,458,140.7c-.255.383-.51.764-.761,1.146-5.866,8.907-8.963,17.059-9.469,24.926-.651,10.109,3.394,19.576,10.555,24.705l2.555-3.567c-5.94-4.255-9.286-12.247-8.731-20.856.456-7.086,3.32-14.542,8.754-22.795.246-.374.5-.748.746-1.123,2.188-3.277,4.449-6.666,5.112-10.794.468-2.915-1.412-4.51-2.935-6.566" transform="translate(-151.534 -42.571)" fill="#ffe18f"/>
              <path id="Trazado_1015929" data-name="Trazado 1015929" d="M423.521,155.5s19.929,25.7,24.615,22.391c0,0,24.316-29.828,13.617-37.77-6.354-4.718-10.861,14.1-17.183,24.8-.193.327-16.457-14.143-16.457-14.143s-7.678-10.15-8.213-9.57c-.776.841,2.2,5.367,2.2,5.367a1.528,1.528,0,0,1-.776.776,1.838,1.838,0,0,0-1.1,1.423c-.194.776-.97,1.228-1.1,1.681s2.759,3.859,4.4,5.044" transform="translate(-141.861 -47.175)" fill="#f79354"/>
              <path id="Trazado_1015930" data-name="Trazado 1015930" d="M480.2,155.027c2.532-6.206,3.286-12.011-.614-14.906-2.858-2.122-5.343.525-7.786,5.045q4.315,4.833,8.4,9.861" transform="translate(-159.691 -47.175)" fill="#d96c21"/>
              <path id="Trazado_1015931" data-name="Trazado 1015931" d="M457,192.6a11.55,11.55,0,0,0-.925,1.519c1.968,1.32,3.595,1.883,4.567,1.2,0,0,.952-1.169,2.394-3.1-2.092-1.571-4.16-2.155-6.035.384" transform="translate(-154.371 -64.604)" fill="#d96c21"/>
              <path id="Trazado_1015932" data-name="Trazado 1015932" d="M469.627,146.471l17.021,5.025s-3.136-10.371-7.943-13.454c-4.3-2.756-4.7-1.459-4.7-1.459Z" transform="translate(-158.956 -46.126)" fill="#1e3a8a"/>
              <rect id="Rectángulo_462101" data-name="Rectángulo 462101" width="5.454" height="106.99" transform="translate(239.263 165.996)" fill="#165c80"/>
              <g id="Grupo_1195508" data-name="Grupo 1195508" transform="translate(239.263 165.997)" style="mix-blend-mode: multiply;isolation: isolate">
                <g id="Grupo_1195507" data-name="Grupo 1195507">
                  <g id="Grupo_1195506" data-name="Grupo 1195506" clip-path="url(#clip-path-14)">
                    <path id="Trazado_1015933" data-name="Trazado 1015933" d="M367.137,254.774V250.93h-5.454v17.951q2.636-7.087,5.454-14.106" transform="translate(-361.683 -250.93)" fill="#064260"/>
                  </g>
                </g>
              </g>
              <g id="Grupo_1195511" data-name="Grupo 1195511" transform="translate(239.263 263.089)" style="mix-blend-mode: multiply;isolation: isolate">
                <g id="Grupo_1195510" data-name="Grupo 1195510">
                  <g id="Grupo_1195509" data-name="Grupo 1195509" clip-path="url(#clip-path-15)">
                    <path id="Trazado_1015934" data-name="Trazado 1015934" d="M361.683,397.7v9.9h5.454v-8.155q-2.718-.9-5.454-1.742" transform="translate(-361.683 -397.7)" fill="#064260"/>
                  </g>
                </g>
              </g>
              <path id="Trazado_1015935" data-name="Trazado 1015935" d="M372.412,410.586H344.53a7.236,7.236,0,0,1,7.236-7.236h13.409a7.236,7.236,0,0,1,7.236,7.236" transform="translate(-116.614 -136.523)" fill="#636363"/>
              <path id="Trazado_1015936" data-name="Trazado 1015936" d="M368.808,175.376a12.14,12.14,0,0,1-1.189-8.563c1.791-7.943,6.335-19.381,6.335-19.381a10.06,10.06,0,0,0-6.041-12.145l-5.669-2.194c-1.352-.523-4.1-1.823-4.1-3.273v-6.807H342.257v6.807c0,1.449-2.808,2.749-4.16,3.273l-5.669,2.194a10.06,10.06,0,0,0-6.04,12.145s4.545,11.44,6.335,19.383a12.4,12.4,0,0,1-1.222,8.636c-9.089,16.774-11.887,35.425-11.887,35.425h61.114s-.718-15.316-11.919-35.5" transform="translate(-108.181 -41.637)" fill="#064260"/>
              <g id="Grupo_1195523" data-name="Grupo 1195523" transform="translate(211.432 93.13)" opacity="0.45">
                <g id="Grupo_1195522" data-name="Grupo 1195522">
                  <g id="Grupo_1195521" data-name="Grupo 1195521" clip-path="url(#clip-path-16)">
                    <g id="Grupo_1195514" data-name="Grupo 1195514" transform="translate(6.386)" style="mix-blend-mode: multiply;isolation: isolate">
                      <g id="Grupo_1195513" data-name="Grupo 1195513">
                        <g id="Grupo_1195512" data-name="Grupo 1195512" clip-path="url(#clip-path-17)">
                          <path id="Trazado_1015937" data-name="Trazado 1015937" d="M332.527,161.237a29.519,29.519,0,0,1-.357-5.815c.19-4.787,1.905-9.136,4.143-13.313q.358-.669.725-1.328l-1.344.52a10.06,10.06,0,0,0-6.041,12.145s1.353,3.407,2.873,7.791" transform="translate(-329.266 -140.781)" fill="#064260"/>
                        </g>
                      </g>
                    </g>
                    <g id="Grupo_1195517" data-name="Grupo 1195517" transform="translate(40.324 28.221)" style="mix-blend-mode: multiply;isolation: isolate">
                      <g id="Grupo_1195516" data-name="Grupo 1195516">
                        <g id="Grupo_1195515" data-name="Grupo 1195515" clip-path="url(#clip-path-18)">
                          <path id="Trazado_1015938" data-name="Trazado 1015938" d="M389.238,183.442c-4.967,2.911-11.11,7.461-7.667,12.233,1.883,2.61,5.939,3.434,9.8,3.791q-.911-1.789-1.934-3.636a12.135,12.135,0,0,1-1.189-8.563c.273-1.211.612-2.505.987-3.825" transform="translate(-380.569 -183.442)" fill="#064260"/>
                        </g>
                      </g>
                    </g>
                    <g id="Grupo_1195520" data-name="Grupo 1195520" transform="translate(0 29.484)" style="mix-blend-mode: multiply;isolation: isolate">
                      <g id="Grupo_1195519" data-name="Grupo 1195519">
                        <g id="Grupo_1195518" data-name="Grupo 1195518" clip-path="url(#clip-path-19)">
                          <path id="Trazado_1015939" data-name="Trazado 1015939" d="M336.346,224.709a22.668,22.668,0,0,1-4.467-16.09c.555-5.712,3.045-10.047,6.175-14.327a36.663,36.663,0,0,1-5.97-8.942c.236.881.452,1.742.638,2.565a12.392,12.392,0,0,1-1.223,8.636c-9.089,16.774-11.887,35.425-11.887,35.425h24.969a30.189,30.189,0,0,1-8.236-7.267" transform="translate(-319.613 -185.35)" fill="#064260"/>
                        </g>
                      </g>
                    </g>
                  </g>
                </g>
              </g>
              <path id="Trazado_1015940" data-name="Trazado 1015940" d="M376.52,134.532s-1.649,4.077-5.2,5.5l-4.6,6.884.394,28.948,17.507.162,2.432-16.049s-8.754-2.269-5.349-22.856Z" transform="translate(-124.126 -45.536)" fill="#2ed19b"/>
              <path id="Trazado_1015941" data-name="Trazado 1015941" d="M372.629,149.669l-1.308-6.815-4.6,6.884Z" transform="translate(-124.126 -48.352)" fill="#24a77c"/>
              <line id="Línea_3644" data-name="Línea 3644" x1="2.038" y2="6.951" transform="translate(252.868 83.201)" fill="none" stroke="#064260" stroke-linecap="round" stroke-miterlimit="10" stroke-width="0.553"/>
              <path id="Trazado_1015942" data-name="Trazado 1015942" d="M385.805,125.274a.973.973,0,1,0-.972.972.973.973,0,0,0,.972-.972" transform="translate(-129.926 -42.073)" fill="#f67d68"/>
              <line id="Línea_3645" data-name="Línea 3645" x1="7.23" y1="0.458" transform="translate(261.415 116.299)" fill="none" stroke="#064260" stroke-linecap="round" stroke-miterlimit="10" stroke-width="0.553"/>
              <path id="Trazado_1015943" data-name="Trazado 1015943" d="M405.815,176.948a.972.972,0,1,0-1.163-.735.973.973,0,0,0,1.163.735" transform="translate(-136.956 -59.242)" fill="#f67d68"/>
              <line id="Línea_3646" data-name="Línea 3646" x1="3.601" y2="6.286" transform="translate(256.533 85.876)" fill="none" stroke="#064260" stroke-linecap="round" stroke-miterlimit="10" stroke-width="0.553"/>
              <path id="Trazado_1015944" data-name="Trazado 1015944" d="M393.681,129.544a.973.973,0,1,0-1.172.719.973.973,0,0,0,1.172-.719" transform="translate(-132.601 -43.442)" fill="#ffe18f"/>
              <path id="Trazado_1015945" data-name="Trazado 1015945" d="M91.934,412.124c0-1.461-20.58-2.645-45.967-2.645S0,410.663,0,412.124s20.58,2.645,45.967,2.645,45.967-1.184,45.967-2.645" transform="translate(0 -138.598)" fill="#064260"/>
              <path id="Trazado_1015946" data-name="Trazado 1015946" d="M123.751,397.4l-.162-8.754-8.43.649.212,8.412,3.941,6.838,7.095-5.47Z" transform="translate(-38.978 -131.547)" fill="#d1744f"/>
              <path id="Trazado_1015947" data-name="Trazado 1015947" d="M122.941,388.892l-6.484,13.779s1.252-2.16-1.3-4.443v-9.335Z" transform="translate(-38.979 -131.63)" fill="#944438"/>
              <path id="Trazado_1015948" data-name="Trazado 1015948" d="M124.269,400.822a39.708,39.708,0,0,1-5.086,4.681c-1.707,1.295-4.248-4.224-5.038-4.914-.161-.14-.379-.015-.407.235l-.992,9.031H137.71a.578.578,0,0,0,.526-.684c-1.323-6.707-13.967-8.348-13.967-8.348" transform="translate(-38.162 -135.569)" fill="#ffc557"/>
              <path id="Trazado_1015949" data-name="Trazado 1015949" d="M127.45,409.475s.972-4.62,4.256-5.471c0,0,5.167,1.7,6.382,5.593H113.164" transform="translate(-38.303 -136.745)" fill="none" stroke="#fff" stroke-miterlimit="10" stroke-width="0.553"/>
              <line id="Línea_3647" data-name="Línea 3647" x2="5.167" y2="5.653" transform="translate(75.408 267.137)" fill="none" stroke="#fff" stroke-miterlimit="10" stroke-width="0.553"/>
              <path id="Trazado_1015950" data-name="Trazado 1015950" d="M63.307,399.116l2.594-8.43-9.078-.324-1.946,8.916,3.359,5.849,7.095-5.471Z" transform="translate(-18.574 -132.127)" fill="#d1744f"/>
              <path id="Trazado_1015951" data-name="Trazado 1015951" d="M63.54,390.686l-7.457,10.375s.116.338-2.432-1.945l2.918-8.754Z" transform="translate(-18.16 -132.127)" fill="#944438"/>
              <path id="Trazado_1015952" data-name="Trazado 1015952" d="M63.532,402.5a39.656,39.656,0,0,1-5.086,4.681c-1.707,1.295-4.248-4.224-5.038-4.914-.161-.14-.379-.015-.407.235l-.992,9.031H76.973a.578.578,0,0,0,.526-.684c-1.323-6.707-13.967-8.348-13.967-8.348" transform="translate(-17.604 -136.135)" fill="#ffc557"/>
              <path id="Trazado_1015953" data-name="Trazado 1015953" d="M66.713,411.149s.972-4.62,4.255-5.471c0,0,5.167,1.7,6.383,5.592H52.427" transform="translate(-17.745 -137.311)" fill="none" stroke="#fff" stroke-miterlimit="10" stroke-width="0.553"/>
              <line id="Línea_3648" data-name="Línea 3648" x2="5.167" y2="5.653" transform="translate(35.229 268.245)" fill="none" stroke="#fff" stroke-miterlimit="10" stroke-width="0.553"/>
              <path id="Trazado_1015954" data-name="Trazado 1015954" d="M110.837,237.11s3.21,38.4,3.511,49.013-2.424,52.043-2.424,52.043l-10.729-.034s-11.36-73.216-24.331-98.806Z" transform="translate(-26.017 -80.256)" fill="#053142"/>
              <path id="Trazado_1015955" data-name="Trazado 1015955" d="M116.8,340.509l-1.7-48.631-7.538-28.45" transform="translate(-36.407 -89.163)" fill="none" stroke="#fff" stroke-miterlimit="10" stroke-width="0.446"/>
              <path id="Trazado_1015956" data-name="Trazado 1015956" d="M110.984,386.507l12.4-.243.73-7.051H109.768Z" transform="translate(-37.154 -128.354)" fill="#2a7396"/>
              <path id="Trazado_1015957" data-name="Trazado 1015957" d="M103.707,237.11s-7.424,32.012-14.963,54.659c-6.093,18.3-22.234,47.207-22.234,47.207L55.721,338.5l11.466-46.19a45.572,45.572,0,0,0,1.307-8.34c.669-10.635-1.517-32.124-2.431-45.894Z" transform="translate(-18.86 -80.256)" fill="#064260"/>
              <path id="Trazado_1015958" data-name="Trazado 1015958" d="M64.556,342c-.243-.73,14.833-44.5,14.833-50.091s-.243-24.8-.243-24.8" transform="translate(-21.849 -90.407)" fill="none" stroke="#fff" stroke-miterlimit="10" stroke-width="0.446"/>
              <path id="Trazado_1015959" data-name="Trazado 1015959" d="M53.9,386.756l12,.568,4.053-6.646-15.076-.73Z" transform="translate(-18.243 -128.602)" fill="#2a7396"/>
              <path id="Trazado_1015960" data-name="Trazado 1015960" d="M75.212,135.248s-16.77,1.713-17.825,15.6,5.923,71.478,5.923,71.478l45.713-2.918-4.309-65.277a20.224,20.224,0,0,0-3.16-9.933c-1.753-2.737-3.806-5.841-4.973-5.987l-18.8-4.834Z" transform="translate(-19.387 -45.144)" fill="#ffe18f"/>
              <path id="Trazado_1015961" data-name="Trazado 1015961" d="M71.333,138.453c-11.185,1.7-13.419,7.17-13.947,14.114-1.056,13.887,5.923,70.992,5.923,70.992l45.227-2.432" transform="translate(-19.387 -46.863)" fill="#ffc557"/>
            </g>
          </g>
          <g id="Grupo_1195527" data-name="Grupo 1195527" transform="translate(37.891 88.232)">
            <g id="Grupo_1195526" data-name="Grupo 1195526" clip-path="url(#clip-path-20)">
              <path id="Trazado_1015962" data-name="Trazado 1015962" d="M90.281,140.119A54.588,54.588,0,0,0,96.9,154.766a19.255,19.255,0,0,0,4.594,4.875,15.572,15.572,0,0,0,7.006,2.482c2.724.42,6.23,1.031,7.4,3.932.218.538,1.1.3.882-.243-2.069-5.111-8.577-3.867-12.713-5.731-4.47-2.014-7.167-6.55-9.218-10.784a67.1,67.1,0,0,1-3.7-9.419c-.173-.56-1.056-.322-.881.243" transform="translate(-68.441 -135.468)" fill="#fbf3e8"/>
              <path id="Trazado_1015963" data-name="Trazado 1015963" d="M58.626,226.547c3.251-.394,7.207-.773,10.076,1.156,3.41,2.293,2.658,6.749,3.935,10.154,1.224,3.263,4.218,4.953,7.241,6.3a50.817,50.817,0,0,1,4.818,2.266,18.3,18.3,0,0,1,4.316,3.484,18.955,18.955,0,0,1,4.954,11.485c.038.583.953.588.914,0a19.791,19.791,0,0,0-3.888-10.516,21.307,21.307,0,0,0-8.8-6.7c-3.245-1.432-7.154-2.822-8.6-6.382-1.412-3.482-.627-7.8-3.826-10.435-3.032-2.493-7.5-2.168-11.139-1.727-.577.07-.583.985,0,.914" transform="translate(-57.587 -164.499)" fill="#fbf3e8"/>
              <path id="Trazado_1015964" data-name="Trazado 1015964" d="M122.4,248.675c-5.513-2.1-11.1-5.229-14.522-10.193a16.376,16.376,0,0,1-2.061-3.994,1.47,1.47,0,0,1,.074-1.518,3.664,3.664,0,0,1,.882-.668,15,15,0,0,1,2.391-1.146,25.207,25.207,0,0,0,4.094-1.811c1.4-.868,2.4-2.222,3.789-3.1a8.207,8.207,0,0,1,9.353.533c.453.368,1.1-.275.646-.646a9.164,9.164,0,0,0-8.661-1.53,11.928,11.928,0,0,0-4.161,2.852,14.911,14.911,0,0,1-4.931,2.679c-1.39.539-3.329,1.144-4.229,2.418s.178,3.118.787,4.316a21.9,21.9,0,0,0,6.31,7.313,39.3,39.3,0,0,0,10,5.378c.55.21.788-.673.243-.881" transform="translate(-73.337 -164.09)" fill="#fbf3e8"/>
              <path id="Trazado_1015965" data-name="Trazado 1015965" d="M107.267,184.056A12.208,12.208,0,0,0,97.256,192.2c-1.643,4.865-.429,10.191-2.056,15.052a9.946,9.946,0,0,1-9.836,6.662,9.408,9.408,0,0,1-5.625-1.908c-1.873-1.473-3.026-3.666-4.936-5.1-1.961-1.477-4.42-1.654-6.788-1.751-2.423-.1-5.157-.07-6.949-1.966-.4-.428-1.05.219-.646.646,3.177,3.363,8.338,1.451,12.256,2.926,2.415.909,3.735,3.251,5.455,5.017a9.931,9.931,0,0,0,5.1,2.812,11.491,11.491,0,0,0,10.709-3.3c3.359-3.741,2.96-9.148,3.3-13.815.216-2.994.8-6.023,2.742-8.411a11.315,11.315,0,0,1,7.281-4.09c.576-.073.583-.988,0-.914" transform="translate(-58.299 -150.528)" fill="#fbf3e8"/>
            </g>
          </g>
          <g id="Grupo_1195529" data-name="Grupo 1195529">
            <g id="Grupo_1195528" data-name="Grupo 1195528" clip-path="url(#clip-path)">
              <path id="Trazado_1015967" data-name="Trazado 1015967" d="M89.861,116.421l-4.9,13.074,3.647,1.824c5.593,2.067,10.648.761,11.436-1.557l-.754-7.8-7.843-7.1a7.675,7.675,0,0,0-1.357,1.17,1.75,1.75,0,0,1-.226.39" transform="translate(-28.756 -38.877)" fill="#d1744f"/>
              <path id="Trazado_1015968" data-name="Trazado 1015968" d="M94.306,114.86l7.843,7.1.26,2.794s-6.565,1.58-9-8.875" transform="translate(-31.618 -38.877)" fill="#944438"/>
              <path id="Trazado_1015969" data-name="Trazado 1015969" d="M124.948,187.558l9.348-29.333a5.827,5.827,0,0,1,3.22-3.6l19.141-8.268a.724.724,0,0,1,.95.919l-9.445,28.738a5.833,5.833,0,0,1-3.053,3.479l-19.19,8.967a.723.723,0,0,1-.971-.9" transform="translate(-42.279 -49.518)" fill="#2ed19b"/>
              <path id="Trazado_1015970" data-name="Trazado 1015970" d="M127.377,190.154l8.519-28.815a8.218,8.218,0,0,1,4.049-4.117l19.141-8.267a.724.724,0,0,1,.95.918l-9.445,28.738a5.833,5.833,0,0,1-3.053,3.479l-19.19,8.968a.724.724,0,0,1-.971-.9" transform="translate(-43.101 -50.397)" fill="#34755a"/>
              <path id="Trazado_1015971" data-name="Trazado 1015971" d="M133.311,180.341l7.423,1.073-8.9,3.607Z" transform="translate(-44.621 -61.041)" fill="#020f2b"/>
              <path id="Trazado_1015972" data-name="Trazado 1015972" d="M133.311,180.341l7.423,1.073-8.9,3.607Z" transform="translate(-44.621 -61.041)" fill="none" stroke="#1d254a" stroke-miterlimit="10" stroke-width="0"/>
              <path id="Trazado_1015973" data-name="Trazado 1015973" d="M135.184,196.569l16.779-8.094-1.154,3.712L133.7,200.618Z" transform="translate(-45.254 -63.794)" fill="#fbf3e8"/>
              <path id="Trazado_1015974" data-name="Trazado 1015974" d="M113.044,187.892c-1.035.929-12.283,15.245-22.127,22.735-2.714,2.065-7.311-.612-9-3.526L66.645,182.514l14.824-11.5c.105.163,6.221,16.134,9.691,21.379,1.242,1.877.669,1.687,2.431.608l13.374-10.456a11.367,11.367,0,0,0,1.31-2.265c.572-1.7,3.284-3.982,3.284-3.982l-1.174,3.607c-.212.608.187.656,1.2-.034l6.767-4.539s1.593-.681.851.162-3.31,3.247-3.4,3.323c-1.679,1.366,4.414-3.11,4.518-2.477s-3.344,3.589-3.261,3.652,3.848-2.657,3.972-2.067-3.2,3.12-3.324,3.161c-.234.078,2.633-2.221,2.716-1.9s-6.785,8.182-7.376,8.713" transform="translate(-22.558 -57.883)" fill="#d1744f"/>
              <path id="Trazado_1015975" data-name="Trazado 1015975" d="M85.974,181.945c-2.393-5.508-4.444-10.838-4.506-10.932l-14.823,11.5,9.7,15.61c3.1-5.458,6.264-10.882,9.632-16.18" transform="translate(-22.558 -57.883)" fill="#944438"/>
              <path id="Trazado_1015976" data-name="Trazado 1015976" d="M96.907,224.758c-1.688-.685-5.571-1.156-6.542.968,1.932,2.648,6.064,4.812,8.581,2.9.381-.29.765-.593,1.149-.9a5.9,5.9,0,0,0-3.188-2.963" transform="translate(-30.586 -75.879)" fill="#944438"/>
              <path id="Trazado_1015977" data-name="Trazado 1015977" d="M74.92,149.251s-4.223-11.859-12.369-6.865-.79,41.594,3.735,46.587l22.857-17.021Z" transform="translate(-19.934 -47.779)" fill="#ffe18f"/>
            </g>
          </g>
          <g id="Grupo_1195531" data-name="Grupo 1195531" transform="translate(38.96 93.38)">
            <g id="Grupo_1195530" data-name="Grupo 1195530" clip-path="url(#clip-path-22)">
              <path id="Trazado_1015978" data-name="Trazado 1015978" d="M67.889,140.994c1.752,5.64,2.475,11.754,1.047,17.55A20.734,20.734,0,0,1,60.7,170.759a16.155,16.155,0,0,1-7.638,2.816c-.581.052-.587.966,0,.914A18.478,18.478,0,0,0,65.8,167.17a24.721,24.721,0,0,0,4.8-15.945,38.869,38.869,0,0,0-1.824-10.474c-.174-.56-1.056-.322-.881.243" transform="translate(-56.771 -140.913)" fill="#fbf3e8"/>
              <path id="Trazado_1015979" data-name="Trazado 1015979" d="M85.61,164.641A15.83,15.83,0,0,0,83,167.26a7.335,7.335,0,0,0-1.674,3.034c-.312,1.852,1.372,2.983,2.46,4.18,2.123,2.337-.068,4.707-1.565,6.656A7.6,7.6,0,0,0,83.8,192.166c.487.333.945-.459.461-.789a6.785,6.785,0,0,1-2.794-6.319c.339-2.956,3.139-4.508,3.965-7.234a3.788,3.788,0,0,0-.419-3.274,24.519,24.519,0,0,0-2.087-2.254,2.563,2.563,0,0,1-.717-1.416,3.676,3.676,0,0,1,.89-2.2,15.144,15.144,0,0,1,3.158-3.389c.46-.367-.191-1.01-.646-.646" transform="translate(-66.213 -149.07)" fill="#fbf3e8"/>
              <path id="Trazado_1015980" data-name="Trazado 1015980" d="M64.526,200.2a2.914,2.914,0,0,1,2.484-.936,3.111,3.111,0,0,1,2.045,1.254c1.072,1.378,1.461,3.165,2.372,4.641.309.5,1.1.041.789-.461-1.027-1.665-1.425-3.745-2.821-5.176a3.8,3.8,0,0,0-5.515.031c-.395.435.249,1.083.646.646" transform="translate(-60.54 -160.519)" fill="#fbf3e8"/>
            </g>
          </g>
          <g id="Grupo_1195533" data-name="Grupo 1195533">
            <g id="Grupo_1195532" data-name="Grupo 1195532" clip-path="url(#clip-path)">
              <path id="Trazado_1015982" data-name="Trazado 1015982" d="M106.356,90.491c1.982-2.792-.086-3.345.408-4.561a5.7,5.7,0,0,0,.512-2.485,2.683,2.683,0,0,0-1.2-2.149,2.733,2.733,0,0,0-2.631.081,6.37,6.37,0,0,0-1.978,1.881c-.368-1.3-.464-2.657-2.281-3.08-3.37-.63-3.6,2.067-4.262,2.936-.486-2.35-2.512-2.593-3.98-2.181a3.816,3.816,0,0,0-2.678,2.3c-.412,1.179-2.46-1.131-2.946,3.489-.12,1.14,2.432,3.89,2.432,3.89s.486,5.714.608,10.577c.016.637,2.553,1.094,2.553,1.094a130.793,130.793,0,0,1,12.4-9.6,15.026,15.026,0,0,0,3.04-2.188" transform="translate(-28.878 -27.106)" fill="#0d294d"/>
              <path id="Trazado_1015983" data-name="Trazado 1015983" d="M92.061,105.564a.359.359,0,0,1-.59.138c-.639-.627-1.91-1.486-2.366,1.01-.62,3.39,2.917,2.806,3.2,3.263.572.925,2.4,4.035,5.138,5.241a5.4,5.4,0,0,0,5.952-.894c1.819-1.747,2.823.313,2.059-18.361a1.785,1.785,0,0,1-2.221,1.158c-1.243-.25-2.219-1.295-3.584-1.675-1.108-.31-4.156-1.075-5.469,2.78-.6,1.772-1.563,5.87-2.119,7.34" transform="translate(-30.135 -32.212)" fill="#d1744f"/>
              <path id="Trazado_1015984" data-name="Trazado 1015984" d="M111.545,115.372a7.7,7.7,0,0,1-3.779.294s1.442,1.954,2.5,1.576,1.28-1.87,1.28-1.87" transform="translate(-36.476 -39.05)" fill="#fff"/>
              <path id="Trazado_1015985" data-name="Trazado 1015985" d="M89.944,111.916l1.868,1.408s-.7-3.406-1.868-1.408" transform="translate(-30.444 -37.668)" fill="#944438"/>
              <path id="Trazado_1015986" data-name="Trazado 1015986" d="M109.8,109.008c0,.408-.161.739-.361.739s-.361-.331-.361-.739.161-.738.361-.738.361.33.361.738" transform="translate(-36.919 -36.647)" fill="#020f2b"/>
              <path id="Trazado_1015987" data-name="Trazado 1015987" d="M113.348,108.462c0,.408-.161.739-.361.739s-.361-.331-.361-.739.161-.738.361-.738.361.33.361.738" transform="translate(-38.121 -36.462)" fill="#020f2b"/>
              <path id="Trazado_1015988" data-name="Trazado 1015988" d="M105.492,103.78c-.535.373.3-1.316,1.029-1.5a1.269,1.269,0,0,1,1.6.823,3.908,3.908,0,0,0-2.632.681" transform="translate(-35.649 -34.601)" fill="#020f2b"/>
              <path id="Trazado_1015989" data-name="Trazado 1015989" d="M113.211,103.783a3.925,3.925,0,0,0-1.317.036,1.329,1.329,0,0,1,1.33-1.051" transform="translate(-37.873 -34.784)" fill="#020f2b"/>
              <path id="Trazado_1015990" data-name="Trazado 1015990" d="M111.872,108.781l1.1,3.129a.081.081,0,0,1-.064.11l-1.3.1a.078.078,0,0,1-.079-.087l.2-3.227a.074.074,0,0,1,.144-.024" transform="translate(-37.75 -36.802)" fill="#944438"/>
            </g>
          </g>
        </g>
      </g>
    </g>
  </g>
</svg>
