<svg xmlns="http://www.w3.org/2000/svg" xmlns:xlink="http://www.w3.org/1999/xlink" width="396" height="284" viewBox="0 0 396 284">
  <defs>
    <clipPath id="clip-path">
      <rect id="Rectángulo_462436" data-name="Rectángulo 462436" width="282" height="277" transform="translate(0.334 -0.001)" fill="none"/>
    </clipPath>
    <clipPath id="clip-path-3">
      <rect id="Rectángulo_462403" data-name="Rectángulo 462403" width="282.616" height="174.94" fill="none"/>
    </clipPath>
    <clipPath id="clip-path-4">
      <rect id="Rectángulo_462405" data-name="Rectángulo 462405" width="153.232" height="9.384" fill="none"/>
    </clipPath>
    <clipPath id="clip-path-5">
      <path id="Trazado_1017233" data-name="Trazado 1017233" d="M207.161,31.241c-2.805-1.176-2.9-3.709-2.715-6.513.181-2.353.271-5.067,3.076-5.157.374-.019.787-.027,1.213-.025a79.152,79.152,0,0,0,.143,8.257c.047,1.29.116,2.6.2,3.929a5.26,5.26,0,0,1-1.915-.49m13.66-27.23a19.531,19.531,0,0,0-3.98.181c-.181,2.261.451,3.709-2.262,4.343a5.705,5.705,0,0,0-4.7,4.161c-.206.642-.376,1.294-.521,1.953-.656-.012-1.275.006-1.742.037-1.99.181-3.709.543-4.884,2.443-1.267,2.08-1.358,4.976-1.358,7.419,0,2.623,0,5.971,1.176,8.324,1.2,2.562,4.174,2.714,6.786,2.715.091,1.176-.182,3.255.271,4.25l16.287.543c.091,0,.091.091.181.181,4.523-12.3-.817-32.206-2.265-35.916-.221-.565-.9-.672-1.641-.672-.454,0-.932.04-1.345.04" transform="translate(-201.371 -3.971)" fill="none"/>
    </clipPath>
    <clipPath id="clip-path-7">
      <path id="Trazado_1017238" data-name="Trazado 1017238" d="M264.773,18.861a18.8,18.8,0,0,0-1.134,7.483,87.574,87.574,0,0,0,1.247,15.422L276,42.559c.227.567.68-1.7.794-2.268.339-1.247.339-2.494.567-3.742a46.284,46.284,0,0,0,.114-7.938,34.187,34.187,0,0,0-1.134-7.6c-.794-2.948-1.928-4.423-4.989-4.649-.529-.046-1.063-.078-1.589-.078-2.063,0-3.994.495-4.988,2.574" transform="translate(-263.639 -16.287)" fill="none"/>
    </clipPath>
    <clipPath id="clip-path-9">
      <path id="Rectángulo_462415" data-name="Rectángulo 462415" d="M3.482,0H9.545a3.482,3.482,0,0,1,3.482,3.482v0A3.483,3.483,0,0,1,9.544,6.965H3.482A3.482,3.482,0,0,1,0,3.483v0A3.482,3.482,0,0,1,3.482,0Z" fill="none"/>
    </clipPath>
    <clipPath id="clip-path-11">
      <rect id="Rectángulo_462416" data-name="Rectángulo 462416" width="106.927" height="24.198" fill="none"/>
    </clipPath>
    <clipPath id="clip-path-12">
      <rect id="Rectángulo_462418" data-name="Rectángulo 462418" width="111.093" height="10.627" fill="none"/>
    </clipPath>
    <clipPath id="clip-path-13">
      <path id="Trazado_1017294" data-name="Trazado 1017294" d="M288.394,191.633a4.839,4.839,0,1,0,4.839-4.839,4.838,4.838,0,0,0-4.839,4.839" transform="translate(-288.394 -186.794)" fill="none"/>
    </clipPath>
  </defs>
  <g id="Grupo_1196040" data-name="Grupo 1196040" transform="translate(-1037.711 -11776.938)">
    <g id="Grupo_1196011" data-name="Grupo 1196011" transform="translate(20 23.639)">
      <rect id="Rectángulo_462402" data-name="Rectángulo 462402" width="396" height="284" transform="translate(1017.711 11753.3)" fill="#c0f1e1"/>
      <g id="Grupo_1196010" data-name="Grupo 1196010" transform="translate(1074.377 11755.863)">
        <g id="Grupo_1196009" data-name="Grupo 1196009" transform="translate(0 0.138)" clip-path="url(#clip-path)">
          <g id="Grupo_1195986" data-name="Grupo 1195986">
            <g id="Grupo_1195985" data-name="Grupo 1195985" clip-path="url(#clip-path)">
              <g id="Grupo_1195981" data-name="Grupo 1195981" transform="translate(0 34.202)" opacity="0.15">
                <g id="Grupo_1195980" data-name="Grupo 1195980">
                  <g id="Grupo_1195979" data-name="Grupo 1195979" clip-path="url(#clip-path-3)">
                    <path id="Trazado_1017230" data-name="Trazado 1017230" d="M282.616,58.815,261.042,203.49l-240.187,19.2L0,47.748Z" transform="translate(0 -47.748)" fill="#ffb6c7"/>
                  </g>
                </g>
              </g>
              <g id="Grupo_1195984" data-name="Grupo 1195984" transform="translate(74.117 40.567)" opacity="0.3">
                <g id="Grupo_1195983" data-name="Grupo 1195983">
                  <g id="Grupo_1195982" data-name="Grupo 1195982" clip-path="url(#clip-path-4)">
                    <rect id="Rectángulo_462404" data-name="Rectángulo 462404" width="153.232" height="9.385" transform="translate(0 -0.001)" fill="#a2cddd"/>
                  </g>
                </g>
              </g>
              <path id="Trazado_1017231" data-name="Trazado 1017231" d="M223.807,4.643c-.357-.911-1.9-.633-2.986-.633a19.593,19.593,0,0,0-3.98.181c-.18,2.262.452,3.71-2.262,4.344a5.707,5.707,0,0,0-4.7,4.161c-.206.642-.375,1.294-.521,1.953-.655-.012-1.274.006-1.742.037-1.989.181-3.709.543-4.884,2.443-1.266,2.081-1.357,4.976-1.357,7.419,0,2.623,0,5.971,1.175,8.323,1.2,2.562,4.174,2.715,6.786,2.715.091,1.176-.182,3.255.271,4.25l16.286.543c.091,0,.091.091.181.181,4.523-12.3-.816-32.207-2.264-35.916m-19.36,20.084c.181-2.353.271-5.066,3.076-5.157.375-.019.787-.027,1.214-.025a79.165,79.165,0,0,0,.143,8.258c.047,1.289.116,2.6.2,3.928a5.253,5.253,0,0,1-1.915-.49c-2.8-1.176-2.894-3.709-2.714-6.513" transform="translate(-56.56 -1.25)" fill="#f78bbc"/>
            </g>
          </g>
          <g id="Grupo_1195988" data-name="Grupo 1195988" transform="translate(144.811 2.721)">
            <g id="Grupo_1195987" data-name="Grupo 1195987" clip-path="url(#clip-path-5)">
              <path id="Trazado_1017232" data-name="Trazado 1017232" d="M234.113,14.674c-1.357-.723-3.528-.452-4.976.09a7.706,7.706,0,0,0-5.157,6.7,30.542,30.542,0,0,0,.9,9.951c.9,3.257,2.352,4.343,5.79,4.433a53.035,53.035,0,0,0,6.513-.723Z" transform="translate(-207.696 -6.854)" fill="#ffcae5"/>
            </g>
          </g>
          <g id="Grupo_1195990" data-name="Grupo 1195990">
            <g id="Grupo_1195989" data-name="Grupo 1195989" clip-path="url(#clip-path)">
              <path id="Trazado_1017234" data-name="Trazado 1017234" d="M231.062,2.172a2.172,2.172,0,0,1-2.172,2.171h-6.6a2.171,2.171,0,1,1,0-4.343h6.6a2.172,2.172,0,0,1,2.172,2.172" transform="translate(-61.825 -0.134)" fill="#cc5490"/>
              <path id="Trazado_1017235" data-name="Trazado 1017235" d="M268.826,8.178a51.5,51.5,0,0,0-.9,7.508c1.99.634,7.154.309,7.038.309,0-2.081-.521-6.351-1.61-7.817Z" transform="translate(-75.252 -2.431)" fill="#5e90b5"/>
              <path id="Trazado_1017236" data-name="Trazado 1017236" d="M264.886,41.765a87.565,87.565,0,0,1-1.247-15.421,18.806,18.806,0,0,1,1.134-7.484c1.247-2.608,3.968-2.722,6.576-2.495,3.061.227,4.2,1.7,4.989,4.649a34.18,34.18,0,0,1,1.134,7.6,46.276,46.276,0,0,1-.114,7.937c-.227,1.248-.227,2.5-.567,3.742-.114.567-.567,2.835-.794,2.268Z" transform="translate(-74.049 -4.709)" fill="#86c0d1"/>
            </g>
          </g>
          <g id="Grupo_1195992" data-name="Grupo 1195992" transform="translate(189.59 11.578)">
            <g id="Grupo_1195991" data-name="Grupo 1195991" clip-path="url(#clip-path-7)">
              <path id="Trazado_1017237" data-name="Trazado 1017237" d="M281.7,26.6c-3.289.113-6.576-.114-9.866-.114a59.163,59.163,0,0,0,.341,8.958,62.637,62.637,0,0,0,10.205.454Z" transform="translate(-265.937 -19.152)" fill="#dcf8ff"/>
            </g>
          </g>
          <g id="Grupo_1195994" data-name="Grupo 1195994">
            <g id="Grupo_1195993" data-name="Grupo 1195993" clip-path="url(#clip-path)">
              <path id="Trazado_1017239" data-name="Trazado 1017239" d="M300.724,40.115a1.434,1.434,0,1,1-2.868,0V4.454a1.434,1.434,0,0,1,2.868,0Z" transform="translate(-83.66 -0.983)" fill="#5e303c"/>
              <path id="Trazado_1017240" data-name="Trazado 1017240" d="M103.94,40.115a1.434,1.434,0,1,1-2.869,0V4.454a1.434,1.434,0,0,1,2.869,0Z" transform="translate(-28.388 -0.983)" fill="#5e303c"/>
              <rect id="Rectángulo_462408" data-name="Rectángulo 462408" width="152.589" height="8.881" transform="translate(68.601 36.125)" fill="#c96"/>
              <rect id="Rectángulo_462409" data-name="Rectángulo 462409" width="9.409" height="7.273" transform="translate(176.746 28.906)" fill="#ffdc6c"/>
              <rect id="Rectángulo_462410" data-name="Rectángulo 462410" width="13.028" height="6.965" rx="3.483" transform="translate(174.846 23.478)" fill="#d8a43d"/>
            </g>
          </g>
          <g id="Grupo_1195996" data-name="Grupo 1195996" transform="translate(174.846 23.478)">
            <g id="Grupo_1195995" data-name="Grupo 1195995" clip-path="url(#clip-path-9)">
              <rect id="Rectángulo_462412" data-name="Rectángulo 462412" width="2.169" height="10.839" transform="translate(1.758 -1.775)" fill="#c1913a"/>
              <rect id="Rectángulo_462413" data-name="Rectángulo 462413" width="2.169" height="10.839" transform="translate(5.603 -1.775)" fill="#c1913a"/>
              <rect id="Rectángulo_462414" data-name="Rectángulo 462414" width="2.169" height="10.839" transform="translate(9.45 -1.775)" fill="#c1913a"/>
            </g>
          </g>
          <g id="Grupo_1196004" data-name="Grupo 1196004">
            <g id="Grupo_1196003" data-name="Grupo 1196003" clip-path="url(#clip-path)">
              <g id="Grupo_1195999" data-name="Grupo 1195999" transform="translate(50.76 253.25)" opacity="0.3">
                <g id="Grupo_1195998" data-name="Grupo 1195998">
                  <g id="Grupo_1195997" data-name="Grupo 1195997" clip-path="url(#clip-path-11)">
                    <path id="Trazado_1017241" data-name="Trazado 1017241" d="M177.513,364.45c0,6.682-23.937,12.1-53.464,12.1s-53.463-5.417-53.463-12.1,23.937-12.1,53.463-12.1,53.464,5.416,53.464,12.1" transform="translate(-70.585 -352.351)" fill="#a2cddd"/>
                  </g>
                </g>
              </g>
              <path id="Trazado_1017242" data-name="Trazado 1017242" d="M143.911,18.4c-.3-4.838-5.593-7.257-9.827-6.955-6.653.3-14.363,5.594-17.992,11.036-4.233,6.955-5.14,15.271-5.14,23.132A23.717,23.717,0,0,0,113.371,56.8c1.814,3.477,5.9,4.233,9.525,4.536,6.653.6,13,0,19.5-.3a22.891,22.891,0,0,0,9.979-2.722c3.477-2.116,3.628-5.9,3.78-9.525a49.444,49.444,0,0,0-3.175-18.747c-1.21-3.478-4.234-12.1-9.072-11.642" transform="translate(-31.164 -3.342)" fill="#5e303c"/>
              <path id="Trazado_1017243" data-name="Trazado 1017243" d="M147.322,55.895c2.381-4.989,2.721-8.731,2.495-14.4a23.382,23.382,0,0,0-1.248-7.37c-.794-2.155-2.154-5.783-4.422-6.691a23.869,23.869,0,0,1-8.958,5.217c-2.835,1.02-5.9,2.608-8.958,2.041-.227,2.268-.567,4.536-.567,6.69-.114,5.216.567,10.545,3.4,14.968,1.474,2.381,3.062,4.762,5.783,5.782.169.064.338.112.507.169q-.263,4.735-.847,9.469c-.114,1.928-.34,2.835-2.268,3.061-.567,0-1.133.114-1.7.114v.567c.794.339.454,4.536.567,5.67.34,3.175,2.267,6.463,5.669,6.917,3.289.454,6.917-2.268,8.278-4.876a23.144,23.144,0,0,0,2.268-8.618c-1.474-.227-3.4-.227-4.2-1.814-.68-1.361-1.8-8.373-2.18-10.209a7.225,7.225,0,0,0,1.84-.9,13.29,13.29,0,0,0,4.536-5.783" transform="translate(-35.293 -7.84)" fill="#c96"/>
              <path id="Trazado_1017244" data-name="Trazado 1017244" d="M132.111,41.032a1.845,1.845,0,0,1-.16-1.176,2.01,2.01,0,0,1,.6-1.1,2.21,2.21,0,0,1,2.282-.444,5.3,5.3,0,0,0-1.79.968,3.537,3.537,0,0,0-.931,1.753" transform="translate(-37.052 -10.854)" fill="#3f2215"/>
              <path id="Trazado_1017245" data-name="Trazado 1017245" d="M149.321,36.87a1.817,1.817,0,0,1,1.476.246,2.8,2.8,0,0,1,.982,1.189,5.034,5.034,0,0,1,.339,2.874c-.406-.892-.622-1.786-.992-2.573a3.694,3.694,0,0,0-.677-1.053,2.857,2.857,0,0,0-1.128-.683" transform="translate(-41.94 -10.473)" fill="#3f2215"/>
              <path id="Trazado_1017246" data-name="Trazado 1017246" d="M142.994,48.983a4.353,4.353,0,0,0,.159,1.633,2.585,2.585,0,0,0,.89,1.208l-.03-.023c.181.114.3.221.434.3a1.023,1.023,0,0,0,.356.158l-.07-.007.516-.024.283,0,.157.007.1.012.079.019a.477.477,0,0,1,.17.1l-.044-.037a1.044,1.044,0,0,1,.39.526,1.135,1.135,0,0,1,.012.63,2.28,2.28,0,0,1-.523.9,3.978,3.978,0,0,1-.733.627,2.577,2.577,0,0,1-.859.4,4.087,4.087,0,0,0,.667-.62,5.214,5.214,0,0,0,.533-.7,1.949,1.949,0,0,0,.309-.728.419.419,0,0,0-.2-.464l-.044-.037c.022.038.123.078.111.072a.042.042,0,0,0,.014,0l-.035,0h-.108l-.25.01-.26.017c-.092.007-.166.013-.287.014h-.006a.324.324,0,0,1-.065-.007,2.619,2.619,0,0,1-1.023-.6l-.029-.022h0a2.728,2.728,0,0,1-.907-1.617,3.1,3.1,0,0,1,.293-1.74" transform="translate(-40.073 -13.892)" fill="#915e30"/>
              <path id="Trazado_1017247" data-name="Trazado 1017247" d="M140.769,65.051c1.621.068,3.839.07,4.134-1.654l-6.65.316a2.813,2.813,0,0,0,2.516,1.338" transform="translate(-38.832 -17.941)" fill="#fff"/>
              <path id="Trazado_1017248" data-name="Trazado 1017248" d="M143.749,65.324a7.868,7.868,0,0,1-2.88.268,4.84,4.84,0,0,1-.922-.153,3.326,3.326,0,0,0-1.343,1.206,5.947,5.947,0,0,0,2.567,1.215A4.948,4.948,0,0,0,145.5,66.51a4.336,4.336,0,0,0-1.748-1.186" transform="translate(-38.93 -18.482)" fill="#e5889e"/>
              <path id="Trazado_1017249" data-name="Trazado 1017249" d="M148.774,63.28l-1.763.084a1.757,1.757,0,0,1-1.253,1.386,4.331,4.331,0,0,1,1.748,1.186,4.392,4.392,0,0,0,1.268-2.656" transform="translate(-40.94 -17.908)" fill="#bf5a77"/>
              <path id="Trazado_1017250" data-name="Trazado 1017250" d="M139.414,65.021a2.259,2.259,0,0,1-1.6-1.184l-1.112.053a3.322,3.322,0,0,0,1.364,2.338,3.323,3.323,0,0,1,1.343-1.207" transform="translate(-38.397 -18.065)" fill="#bf5a77"/>
              <path id="Trazado_1017251" data-name="Trazado 1017251" d="M141.364,67.535a5.121,5.121,0,0,1-.888-.078,6.249,6.249,0,0,1-2.7-1.276,3.62,3.62,0,0,1-1.469-2.549.287.287,0,0,1,.274-.3l9.524-.454a.284.284,0,0,1,.223.09.3.3,0,0,1,.078.229,4.686,4.686,0,0,1-1.351,2.828,5.251,5.251,0,0,1-3.691,1.509m-4.45-3.641a3.251,3.251,0,0,0,1.226,1.842,5.656,5.656,0,0,0,2.437,1.155,4.673,4.673,0,0,0,4.071-1.271,4.111,4.111,0,0,0,1.135-2.149l-1.412.067Zm7.443-.642h0Z" transform="translate(-38.285 -17.795)" fill="#915e30"/>
              <path id="Trazado_1017252" data-name="Trazado 1017252" d="M136.133,47.541c0,.916-.424,1.658-.948,1.658s-.949-.742-.949-1.658.424-1.658.949-1.658.948.743.948,1.658" transform="translate(-37.704 -13.022)"/>
              <path id="Trazado_1017253" data-name="Trazado 1017253" d="M149.9,47.346c0,.916-.424,1.658-.948,1.658S148,48.262,148,47.346s.424-1.658.949-1.658.948.743.948,1.658" transform="translate(-41.57 -12.967)"/>
              <path id="Trazado_1017254" data-name="Trazado 1017254" d="M127.663,364.762c-1-2.039-2.192-2.985-3.675-3.312a11.685,11.685,0,0,0-3.492,4.177c-.77,1.683-1.2,4.582.77,5.331,1.8.747,4.021-.749,5.56-1.684,2.139-1.122,8.056-8.1,8.655-9.132,0,0-.1-.744-.242-1.791-.818.7-1.762,1.367-2.359,1.947a59.9,59.9,0,0,1-5.216,4.462" transform="translate(-33.663 -100.786)" fill="#273552"/>
              <path id="Trazado_1017255" data-name="Trazado 1017255" d="M135.628,329.062c0-2.337-.086-4.675-.086-7.013l-6.245.281,3.422,23.376c-1.112,1.87-4.105,2.993-5.731,4.4-.462.388-.928.767-1.384,1.151,1.484.326,2.671,1.272,3.675,3.312A60.036,60.036,0,0,0,134.5,350.1c.6-.58,1.54-1.247,2.359-1.947-.246-1.85-.6-4.663-.714-6.1-.256-4.3-.513-8.7-.513-13" transform="translate(-35.279 -90.589)" fill="#c96"/>
              <path id="Trazado_1017256" data-name="Trazado 1017256" d="M156.681,364.762c1-2.039,2.192-2.985,3.675-3.312a11.685,11.685,0,0,1,3.492,4.177c.77,1.683,1.2,4.582-.769,5.331-1.8.747-4.021-.749-5.561-1.684-2.139-1.122-8.056-8.1-8.655-9.132,0,0,.1-.744.242-1.791.818.7,1.762,1.367,2.359,1.947a59.9,59.9,0,0,0,5.216,4.462" transform="translate(-41.812 -100.786)" fill="#273552"/>
              <path id="Trazado_1017257" data-name="Trazado 1017257" d="M150.427,329.062c0-2.337.086-4.675.086-7.013l6.245.281-3.422,23.376c1.112,1.87,4.106,2.993,5.731,4.4.461.388.927.767,1.384,1.151-1.484.326-2.671,1.272-3.675,3.312a60.141,60.141,0,0,1-5.216-4.462c-.6-.58-1.54-1.247-2.359-1.947.246-1.85.6-4.663.714-6.1.257-4.3.513-8.7.513-13" transform="translate(-41.906 -90.589)" fill="#c96"/>
              <path id="Trazado_1017258" data-name="Trazado 1017258" d="M123.019,282.263c0-1.24.453-1.983.453-2.975.227-2.478-.453-3.222-1.133-5.7-1.134-4.463.68-10.908.907-15.617.454-10.908.227-21.072-3.4-31.731-3.4-10.659-7.257-21.814-6.8-33.219.227-4.957.227-11.4,2.948-15.368,3.629-5.454,10.205-7.685,16.1-8.428,10.206-1.488,22,.247,24.493,12.89,2.495,11.155.454,21.319-2.041,32.475-2.495,10.659-6.577,21.07-6.577,32.474,0,5.206-1.361,10.659-.68,15.865.227,2.48,1.588,4.71,1.814,7.436.227,2.975-1.361,4.959-1.587,7.933,0,1.983,1.134,3.718,1.134,5.949-3.175.5-7.488-.42-10.662-.668-.907-4.957,0-8.752,0-13.958,0-5.453-.68-10.908-.68-16.361,0-10.908-.908-48.588-.908-48.588h-2.948s0,28.508.227,33.713S133.9,248.8,133.9,254s-1.361,10.908-.68,16.113a123.221,123.221,0,0,1,.908,12.643Z" transform="translate(-31.74 -47.54)" fill="#355087"/>
              <path id="Trazado_1017259" data-name="Trazado 1017259" d="M128.849,313.116a1.419,1.419,0,0,0,.782.164c.272,0,.539-.022.826-.014h.011c1.027.137,2.052.254,3.079.316.255.014.521.029.758.032s.528-.015.8,0a3.6,3.6,0,0,1,.833.122,1.451,1.451,0,0,1,.451.2.722.722,0,0,1,.311.6v.009l0,.017a.767.767,0,0,1-.3.468,1.661,1.661,0,0,1-.338.2,4.08,4.08,0,0,1-.652.233,11.038,11.038,0,0,1-1.287.252l.032-.007c-1.046.256-2.092.41-3.1.662-.526.145-1.05.216-1.5.379a1.021,1.021,0,0,0-.247.118c.011-.019-.012.024-.028.05s-.018.035-.011.037c-.041.006.151.177.367.25a9.447,9.447,0,0,0,1.487.354c.511.094,1.032.156,1.557.209a20.846,20.846,0,0,1,3.145.5c-1.056-.116-2.106-.109-3.171-.122-.531-.017-1.066-.042-1.6-.1a9.759,9.759,0,0,1-1.62-.276,1.617,1.617,0,0,1-.429-.2.755.755,0,0,1-.357-.523.685.685,0,0,1,.043-.349.856.856,0,0,1,.18-.285,1.438,1.438,0,0,1,.447-.261,14.767,14.767,0,0,1,1.565-.442c1.046-.275,2.095-.449,3.11-.675H134l.027,0a10.206,10.206,0,0,0,1.2-.222,4.16,4.16,0,0,0,.549-.177c.17-.055.3-.2.271-.15l0,.027c-.005-.005.009-.005-.042-.053a.851.851,0,0,0-.251-.119,3.838,3.838,0,0,0-.7-.133c-.249-.028-.49-.041-.759-.049s-.532-.054-.793-.086a22.929,22.929,0,0,1-3.076-.588h.011c-.259-.037-.54-.042-.815-.076a1.438,1.438,0,0,1-.773-.284" transform="translate(-36.131 -88.08)" fill="#1d3256"/>
              <path id="Trazado_1017260" data-name="Trazado 1017260" d="M135.9,321.943a11.384,11.384,0,0,1-1.806.849,6.958,6.958,0,0,1-1.99.428,7.059,7.059,0,0,1-3.882-.977,24.122,24.122,0,0,0,3.844.26c1.242-.045,2.49-.44,3.834-.559" transform="translate(-36.015 -90.56)" fill="#1d3256"/>
              <path id="Trazado_1017261" data-name="Trazado 1017261" d="M152.4,310.61l3.033-.045a7.354,7.354,0,0,1,3.047.513,28.671,28.671,0,0,1-3.051.2,5.976,5.976,0,0,1-3.029-.673" transform="translate(-42.805 -87.364)" fill="#1d3256"/>
              <path id="Trazado_1017262" data-name="Trazado 1017262" d="M150.4,314.405a7.262,7.262,0,0,1,1.686.035c.557.06,1.1.075,1.665.106a14.233,14.233,0,0,1,1.7.153,5.677,5.677,0,0,1,.856.211,1.475,1.475,0,0,1,.461.225.563.563,0,0,1,.228.372.614.614,0,0,1-.109.408,7.422,7.422,0,0,1-3.019,1.785c-1.064.391-2.146.723-3.219,1.078l-.032.007a3.143,3.143,0,0,0-.866.207.338.338,0,0,0-.092.06c0,.007,0-.035,0-.032a.472.472,0,0,0,.189.167,7.069,7.069,0,0,0,1.782.65c.64.148,1.294.339,1.925.5s1.289.3,1.946.411a14.773,14.773,0,0,1-2-.145c-.674-.079-1.306-.225-1.97-.328a7.418,7.418,0,0,1-1.993-.576.914.914,0,0,1-.485-.529.553.553,0,0,1,.091-.5.888.888,0,0,1,.293-.247,3.585,3.585,0,0,1,1.049-.311l-.032.007,3.133-1.082c.524-.215,1.043-.4,1.523-.641a6.2,6.2,0,0,0,.691-.386,2.641,2.641,0,0,0,.554-.454c.02-.027.011-.032.014.018s.039.057.005.032a1.238,1.238,0,0,0-.284-.152,5.247,5.247,0,0,0-.756-.245,13.723,13.723,0,0,0-1.627-.267c-1.128-.088-2.2-.483-3.317-.544" transform="translate(-41.861 -88.432)" fill="#1d3256"/>
              <path id="Trazado_1017263" data-name="Trazado 1017263" d="M123.988,217.173a18.639,18.639,0,0,1,3.44.042c.57.048,1.141.113,1.7.147l1.714.036c2.283.035,4.568.181,6.837.227s4.548-.054,6.832-.127l3.43-.114c.568,0,1.143-.035,1.723,0a4.29,4.29,0,0,0,1.686-.125,3.867,3.867,0,0,1-1.686.316c-.565.023-1.127.116-1.7.165l-3.417.314a67.643,67.643,0,0,1-6.878.293c-2.3-.065-4.583-.229-6.868-.4-2.3-.043-4.532-.731-6.814-.775" transform="translate(-34.825 -61.114)" fill="#1d3256"/>
              <path id="Trazado_1017264" data-name="Trazado 1017264" d="M127.036,219.841a5.058,5.058,0,0,0,1.985.78,11.151,11.151,0,0,0,2.13.122c.722-.015,1.457-.032,2.208.02a6.1,6.1,0,0,1,2.227.577l.011.006a.349.349,0,0,1,.152.468.306.306,0,0,1-.032.051,3.256,3.256,0,0,1-1.934,1.107c-.685.165-1.377.234-2.02.332-.68.147-1.368.155-2.02.26a2.3,2.3,0,0,0-1.726.823,1.411,1.411,0,0,1,.685-.761,4.61,4.61,0,0,1,.968-.4c.67-.194,1.341-.276,1.975-.463.684-.169,1.341-.257,1.965-.443a2.739,2.739,0,0,0,1.522-.87l.132.526a10.488,10.488,0,0,0-4.128-.666,9.269,9.269,0,0,1-2.2-.341,4.61,4.61,0,0,1-1.9-1.132" transform="translate(-35.681 -61.882)" fill="#1d3256"/>
              <path id="Trazado_1017265" data-name="Trazado 1017265" d="M157.508,219.382a5.06,5.06,0,0,1-1.887.773c-.665.157-1.338.273-1.985.421-.634.168-1.272.44-1.907.654l-1.906.677-.079-.6,2.342.243,1.17.133c.37.038.764.067,1.15.093.777.05,1.565.113,2.357.231a11.089,11.089,0,0,1,1.183.24,3.453,3.453,0,0,1,.612.21,1.447,1.447,0,0,1,.33.2,1.014,1.014,0,0,1,.168.219.56.56,0,0,1,.045.342.726.726,0,0,1-.264.426,1.677,1.677,0,0,1-.293.2,4.054,4.054,0,0,1-.579.265,5.1,5.1,0,0,1-1.19.3c-.79.109-1.573.173-2.362.2a19.506,19.506,0,0,1-4.69-.363,27.688,27.688,0,0,0,4.661-.07c.769-.076,1.541-.186,2.291-.334a5.757,5.757,0,0,0,1.064-.321,3.531,3.531,0,0,0,.479-.236,1.278,1.278,0,0,0,.233-.186c.01.012-.012.042.01.058,0,.006-.015,0-.013-.009a.988.988,0,0,0-.173-.091,3.531,3.531,0,0,0-.5-.156,10.614,10.614,0,0,0-1.114-.214c-.755-.109-1.527-.15-2.307-.215-1.6-.118-3.1-.364-4.652-.561l-.03,0a.307.307,0,0,1-.049-.6l1.959-.582c.661-.18,1.289-.409,1.974-.548s1.358-.156,2.024-.253a5.643,5.643,0,0,0,1.929-.554" transform="translate(-41.963 -61.753)" fill="#1d3256"/>
              <path id="Trazado_1017266" data-name="Trazado 1017266" d="M138.9,188.587c.129,3.569.542,7.111.692,10.69.173,3.576.071,7.148.256,10.7l-.314-.327a54.248,54.248,0,0,0,5.854,0l-.327.3a30.665,30.665,0,0,0-.171-5.281c-.068-1.791-.227-3.552-.308-5.352s-.006-3.589.01-5.37l0-1.34c.007-.452.04-.9.075-1.345a13.471,13.471,0,0,0,.058-2.669,12,12,0,0,1,.114,2.678c-.012.447-.021.892,0,1.333l.073,1.338c.078,1.791.037,3.578.18,5.345s.362,3.56.433,5.341a30.872,30.872,0,0,1,.225,5.411.336.336,0,0,1-.316.3h-.012a41.458,41.458,0,0,1-5.94,0h-.005a.341.341,0,0,1-.309-.326c-.132-3.583-.051-7.153-.073-10.714-.049-3.556-.314-7.131-.189-10.7" transform="translate(-39.004 -53.104)" fill="#1d3256"/>
              <path id="Trazado_1017267" data-name="Trazado 1017267" d="M122.89,187.438a7.315,7.315,0,0,1-1.586,5.392,7.047,7.047,0,0,1-2.2,1.884,4.7,4.7,0,0,1-2.789.574,6.468,6.468,0,0,0,2.5-1.055,8.744,8.744,0,0,0,1.925-1.845,10.8,10.8,0,0,0,2.152-4.95" transform="translate(-32.669 -52.781)" fill="#1d3256"/>
              <path id="Trazado_1017268" data-name="Trazado 1017268" d="M164.248,187.668a15.013,15.013,0,0,0,2.71,4.56,6.572,6.572,0,0,0,2.121,1.453,12.758,12.758,0,0,0,2.577.762,6.794,6.794,0,0,1-2.772-.235,5.722,5.722,0,0,1-2.436-1.473,8.6,8.6,0,0,1-2.2-5.066" transform="translate(-46.133 -52.845)" fill="#1d3256"/>
              <path id="Trazado_1017269" data-name="Trazado 1017269" d="M169.057,103.889c8.993,12.105,16.428,26.113,27.323,36.834,4.669,4.669,9.511,9.339,16.6,9.165a18.509,18.509,0,0,1,8.645,1.253c2.941,1.21,5.753,2.725,6.617,5.664-4.15,0-10.076,0-14.226.346-2.076.173-3.977.346-6.054.346-2.075.173-3.458.346-4.5-1.383a20.9,20.9,0,0,0-.865-2.421c-.519-.865-1.556-1.211-2.421-1.9L195,147.641c-3.286-3.112-6.572-6.052-9.512-9.338a92.13,92.13,0,0,1-6.225-8.128c-2.075-2.594-9.511-12.969-11.067-15.737-1.038-1.729-3.977-6.4-3.977-6.4Z" transform="translate(-46.124 -29.314)" fill="#c96"/>
              <path id="Trazado_1017270" data-name="Trazado 1017270" d="M226.092,170.741c2.766.519,6.571.346,8.993,1.211,1.21.518,2.593,1.556,1.729,2.939-.692,1.038-3.113.692-4.323.692-2.248,0-5.361.173-7.436-.692" transform="translate(-63.212 -48.091)" fill="#c96"/>
              <path id="Trazado_1017271" data-name="Trazado 1017271" d="M226.092,170.741c1.039.126,2.08.184,3.125.219,1.043.053,2.09.1,3.14.195a10.2,10.2,0,0,1,3.13.695,4.4,4.4,0,0,1,1.358.961,1.77,1.77,0,0,1,.452,1.709,1.724,1.724,0,0,1-.483.793,2.051,2.051,0,0,1-.8.412,5.963,5.963,0,0,1-1.63.175c-.534,0-1.061-.04-1.576-.062l-1.558-.024a15.718,15.718,0,0,1-6.2-.923,10.873,10.873,0,0,0,3.07.492c1.038.05,2.078.025,3.122-.012.526-.017,1.039-.043,1.578-.03s1.046.042,1.558.036c.977-.019,2.179-.117,2.364-1.02a1.2,1.2,0,0,0-.313-1.182,3.88,3.88,0,0,0-1.176-.855,11.364,11.364,0,0,0-2.953-.726c-2.052-.3-4.168-.365-6.213-.851" transform="translate(-63.212 -48.091)" fill="#915e30"/>
              <path id="Trazado_1017272" data-name="Trazado 1017272" d="M111.583,157.275c2.117,2.419,8.315,3.327,11.49,4.082a76.123,76.123,0,0,0,11.793,1.361,63.88,63.88,0,0,0,24.492-3.629c.3-3.326-1.663-7.408-2.569-10.583a39.891,39.891,0,0,0-4.234-10.13,60.829,60.829,0,0,1-4.536-9.525c-.908-2.722-2.268-6.653-1.361-9.374.454-1.965,1.966-3.78,2.571-5.746a15.817,15.817,0,0,0-.454-6.5c2.57-.151,9.222-5.292,9.222-5.292a21.2,21.2,0,0,0-6.5-7.71c-1.965-1.512-6.5-3.89-8.806-3.289,0,0-7.521,12.511-8.278,13.267-.907-2.419-8.013-12.7-8.013-12.7-6.2,0-11.944,4.234-14.817,9.676a12.651,12.651,0,0,0,9.223,6.955c-1.21,3.629-1.361,6.2.907,9.526s2.722,5.745,1.966,9.827c-1.512,7.862-6.653,12.852-9.525,20.259-1.059,3.024-1.663,6.2-2.42,9.223Z" transform="translate(-31.341 -25.65)" fill="#ffdc6c"/>
              <path id="Trazado_1017273" data-name="Trazado 1017273" d="M129.175,169.661c2.139.28,4.272.549,6.409.755s4.276.375,6.418.476c2.142.117,4.285.154,6.43.153,1.073,0,2.146-.029,3.219-.076l1.612-.07c.536-.039,1.074-.076,1.613-.1-1.056.224-2.125.377-3.2.525-1.074.119-2.151.209-3.23.278a60,60,0,0,1-6.484.012c-2.159-.119-4.313-.318-6.449-.647a54.745,54.745,0,0,1-6.342-1.3" transform="translate(-36.282 -47.788)" fill="#d8a43d"/>
              <path id="Trazado_1017274" data-name="Trazado 1017274" d="M152.931,174.025a13.745,13.745,0,0,1-3.94.947c-1.348.142-2.686.3-4.044.394-2.713.161-5.424.035-8.117.075s-5.385.235-8.089.368l-2.036.084-2.026.014a13.87,13.87,0,0,0-1.969.166,4.01,4.01,0,0,0-1.724.64l.063-.5a1.809,1.809,0,0,0,.79.451,8.06,8.06,0,0,0,1.042.239c.72.117,1.46.172,2.208.219,1.513.1,3,.251,4.5.386s2.989.262,4.484.337c1.494.052,3,.018,4.5.05l4.5.052c1.5.012,3.005.065,4.5-.034,3-.127,5.98-.526,8.959-.937a81.078,81.078,0,0,1-8.936,1.3c-1.505.134-3.012.116-4.516.138l-4.517.053c-1.507.012-3.01.042-4.521.005-1.51-.063-3.014-.18-4.513-.3s-3-.26-4.488-.35c-.752-.042-1.514-.092-2.28-.211a7.482,7.482,0,0,1-1.153-.27,2.425,2.425,0,0,1-1.12-.694l-.236-.28.3-.216a4.665,4.665,0,0,1,2.04-.762,14.652,14.652,0,0,1,2.07-.16h2.029l2.016-.068c2.7-.117,5.4-.288,8.118-.256s5.409.2,8.1.122c1.342-.042,2.7-.15,4.041-.24a14.649,14.649,0,0,0,3.958-.767" transform="translate(-33.777 -49.013)" fill="#d8a43d"/>
              <path id="Trazado_1017275" data-name="Trazado 1017275" d="M69.7,213.811c-7.71.227-3.629,15.875-.68,18.823,4.762,4.763,10.885-.454,12.246-5.443a16.66,16.66,0,0,0-.453-8.164c-1.361-3.629-3.856-2.72-6.577-4.761v-.228Z" transform="translate(-18.33 -60.188)" fill="#969"/>
              <path id="Trazado_1017276" data-name="Trazado 1017276" d="M74.122,186.74c-2.495.227-4.763-.908-7.03.907-2.722,2.495-2.268,7.484-2.041,10.885.227,4.536-.681,9.3,1.814,13.154s9.751,4.989,14.06,4.763c3.4-.227,7.257-2.268,9.979-4.309,3.4-2.494,4.082-5.669,4.536-9.751.907-7.257-.68-13.834-8.391-16.328Z" transform="translate(-18.221 -52.394)" fill="#f78bbc"/>
              <path id="Trazado_1017277" data-name="Trazado 1017277" d="M90.36,188.2c2.495-2.267,7.257-3.4,10.432-3.4,4.989,0,7.257,2.721,7.938,7.484.454,4.989-.907,10.205-1.361,14.967-.454,4.99-.454,9.752-1.361,14.515-.454,2.267-.681,2.948-2.948,3.4a51.006,51.006,0,0,1-5.9,0c-3.855,0-7.937,1.361-11.566.454-6.8-1.587-4.536-14.513-4.536-19.729Z" transform="translate(-22.666 -52.039)" fill="#86c0d1"/>
              <path id="Trazado_1017278" data-name="Trazado 1017278" d="M70.464,171.428c.528-3.7,3.7-8.1,6.336-10.561,4.752-4.224,9.681-4.224,14.433-.352,3.7,2.992,7.745,8.1,8.977,12.849.352,1.408.7,1.056-.352,1.937-.88.7-3.344.879-4.4,1.056-3.345.352-6.689.352-9.857.528-2.112,0-4.4.175-6.512,0-1.056-.176-2.112-.7-2.992-.352Z" transform="translate(-19.791 -44.415)" fill="#969"/>
              <path id="Trazado_1017279" data-name="Trazado 1017279" d="M90.289,178.465c1.76-5.984,7.393-14.081,13.553-16.016,8.976-2.817,11.793,9.152,12.849,15.489v-.528Z" transform="translate(-25.36 -45.643)" fill="#86c0d1"/>
              <path id="Trazado_1017280" data-name="Trazado 1017280" d="M88.53,178.964c-.528-3.168-2.288-7.216-5.456-8.8a7.869,7.869,0,0,0-4.929,0c-2.64.529-2.288,1.584-4.048-.528-3.345-4.049-8.448-5.984-11.968-.88a10.916,10.916,0,0,0-1.233,6.689c0,.7.175,4.224.7,3.7Z" transform="translate(-17.088 -46.671)" fill="#f78bbc"/>
              <path id="Trazado_1017281" data-name="Trazado 1017281" d="M103.952,186.794H63.43a2.673,2.673,0,0,0-2.5,3.07l2.593,35.295a2.624,2.624,0,0,0,2.568,2.412h34.8a2.583,2.583,0,0,0,2.538-2.412l3.045-35.295a2.7,2.7,0,0,0-2.526-3.07M69.4,224.112a.855.855,0,0,1-.888.889.981.981,0,0,1-.989-.889l-.738-12.334a.909.909,0,0,1,.922-.972,1.042,1.042,0,0,1,1.033.972Zm-.911-17.02a.93.93,0,0,1-.936,1,1.066,1.066,0,0,1-1.048-1l-.826-13.815a.993.993,0,0,1,.974-1.091,1.14,1.14,0,0,1,1.1,1.091Zm5.963,17.02a.872.872,0,0,1-.9.889.959.959,0,0,1-.973-.889l-.53-12.334a.928.928,0,0,1,.939-.972,1.02,1.02,0,0,1,1.015.972Zm-.623-17.02a.949.949,0,0,1-.953,1,1.044,1.044,0,0,1-1.031-1l-.593-13.815a1.014,1.014,0,0,1,.992-1.091,1.115,1.115,0,0,1,1.079,1.091Zm5.675,17.02a.891.891,0,0,1-.918.889.94.94,0,0,1-.959-.889l-.32-12.334a.946.946,0,0,1,.956-.972,1,1,0,0,1,1,.972Zm-.334-17.02a.968.968,0,0,1-.969,1,1.023,1.023,0,0,1-1.015-1l-.359-13.815a1.035,1.035,0,0,1,1.011-1.091,1.093,1.093,0,0,1,1.061,1.091Zm5.386,17.02a.909.909,0,0,1-.933.889.923.923,0,0,1-.944-.889l-.111-12.334a.967.967,0,0,1,.972-.972.98.98,0,0,1,.983.972Zm-.046-17.02a.988.988,0,0,1-.986,1,1,1,0,0,1-1-1L82.4,193.277a1.054,1.054,0,0,1,1.028-1.091,1.07,1.07,0,0,1,1.042,1.091Zm5.1,17.02a.928.928,0,0,1-.949.889.9.9,0,0,1-.928-.889l.1-12.334a.987.987,0,0,1,.988-.972.961.961,0,0,1,.967.972Zm.242-17.02a1.009,1.009,0,0,1-1,1,.982.982,0,0,1-.981-1l.11-13.815a1.077,1.077,0,0,1,1.048-1.091,1.048,1.048,0,0,1,1.023,1.091Zm4.81,17.02a.947.947,0,0,1-.964.889.884.884,0,0,1-.913-.889l.307-12.334a1.006,1.006,0,0,1,1-.972.94.94,0,0,1,.95.972Zm.531-17.02a1.029,1.029,0,0,1-1.02,1,.962.962,0,0,1-.964-1l.344-13.815a1.1,1.1,0,0,1,1.066-1.091,1.028,1.028,0,0,1,1.005,1.091Zm4.521,17.02a.966.966,0,0,1-.978.889.867.867,0,0,1-.9-.889l.516-12.334a1.027,1.027,0,0,1,1.02-.972.922.922,0,0,1,.934.972Zm.819-17.02a1.051,1.051,0,0,1-1.036,1,.944.944,0,0,1-.948-1l.578-13.815a1.122,1.122,0,0,1,1.084-1.091,1.007,1.007,0,0,1,.987,1.091Z" transform="translate(-17.112 -52.6)" fill="#af4343"/>
              <rect id="Rectángulo_462417" data-name="Rectángulo 462417" width="53.006" height="7.836" rx="3.784" transform="translate(40.09 129.357)" fill="#d36262"/>
              <path id="Trazado_1017282" data-name="Trazado 1017282" d="M84.139,179.714c-3.024,3.931-4.838,9.223-6.048,14.06-.151,1.059-2.268,9.979-.6,9.525,1.814-.453,2.631-9.121,2.631-9.121s-.8,5.589-.8,6.5-.209,6.726,2.455,4.179c.453,1.361,1.161,2.528,1.917,1.168.454-.756.3-3.175.3-3.931.152-2.721.6-5.141.908-7.711a1.363,1.363,0,0,1,.756-.151c.3,3.326-.6,6.955,0,10.281.454,2.116,1.663,1.814,2.116-.3.3-1.511.152-3.175.3-4.838.151-2.117,0-9.525,3.477-6.653,1.361,1.21,1.965,2.722,4.082,2.722,1.512,0,3.477-1.059,1.814-2.268-.454-.3-1.512,0-2.268-.454-.6-.454-.907-1.663-1.361-2.419-.908-1.21-2.721-2.117-3.78-3.629-1.512-2.116-2.268-5.442-3.175-7.862Z" transform="translate(-21.586 -50.356)" fill="#c96"/>
              <path id="Trazado_1017283" data-name="Trazado 1017283" d="M84.88,212.117c-2.621-.477-.509-11.944.095-13.759" transform="translate(-23.481 -55.848)" fill="#c96"/>
              <path id="Trazado_1017284" data-name="Trazado 1017284" d="M84.781,212.117a1.071,1.071,0,0,1-.757-.485,2.989,2.989,0,0,1-.409-.831A9.027,9.027,0,0,1,83.3,209a20.867,20.867,0,0,1,.067-3.617,32.959,32.959,0,0,1,.542-3.561,20.719,20.719,0,0,1,.97-3.466c-.116.588-.209,1.176-.286,1.769q-.138.883-.247,1.77c-.145,1.182-.3,2.361-.406,3.542s-.2,2.364-.2,3.542a9.021,9.021,0,0,0,.15,1.748,1.636,1.636,0,0,0,.895,1.386" transform="translate(-23.381 -55.848)" fill="#915e30"/>
              <path id="Trazado_1017285" data-name="Trazado 1017285" d="M81.506,211.027a1.688,1.688,0,0,1-.841-1.285,15.121,15.121,0,0,1-.3-3.439,22.342,22.342,0,0,1,1.209-7.031,2.511,2.511,0,0,0,.227-.757" transform="translate(-22.572 -55.892)" fill="#c96"/>
              <path id="Trazado_1017286" data-name="Trazado 1017286" d="M81.4,211.027a1.7,1.7,0,0,1-.978-1.264l0,.011A12.011,12.011,0,0,1,80,206.913a17.408,17.408,0,0,1,.693-5.711c.138-.46.278-.919.457-1.365.088-.224.182-.442.279-.665a2.256,2.256,0,0,0,.263-.656c-.155.95-.445,1.847-.607,2.782s-.314,1.859-.417,2.792a28,28,0,0,0-.146,2.814,15.63,15.63,0,0,0,.172,2.807v.011a1.667,1.667,0,0,0,.7,1.306" transform="translate(-22.464 -55.892)" fill="#915e30"/>
              <path id="Trazado_1017287" data-name="Trazado 1017287" d="M106.471,109.738c-1.342,3.424-3.162,6.806-4.712,9.906-3.327,6.955-8.467,12.549-10.885,19.805a136.383,136.383,0,0,0-4.234,14.817c-.755,3.024-1.9,10.205-1.21,12.945,1.389,5.527,4.99-6.591,5.745-8.706,1.361-3.478,3.357-8.279,4.869-11.756,2.57-6.955,4.656-10.625,8.133-17.127,2.787-5.332,5.489-11.136,8.86-16.272a12.854,12.854,0,0,1-6.567-3.612" transform="translate(-23.935 -30.957)" fill="#c96"/>
              <g id="Grupo_1196002" data-name="Grupo 1196002" transform="translate(128.049 241.86)" opacity="0.3">
                <g id="Grupo_1196001" data-name="Grupo 1196001">
                  <g id="Grupo_1196000" data-name="Grupo 1196000" clip-path="url(#clip-path-12)">
                    <path id="Trazado_1017288" data-name="Trazado 1017288" d="M186.347,336.512h91.015l11.792,10.627H178.063Z" transform="translate(-178.062 -336.512)" fill="#a2cddd"/>
                  </g>
                </g>
              </g>
              <rect id="Rectángulo_462419" data-name="Rectángulo 462419" width="11.905" height="19.201" transform="translate(216.384 87.864)" fill="#edd8a4"/>
              <path id="Trazado_1017289" data-name="Trazado 1017289" d="M301.781,134.924c0-2.324-.679-4.759,4.208-4.208a4.4,4.4,0,0,1,4.207,4.208,4.3,4.3,0,0,1-4.207,4.208c-5.631.329-4.208-1.884-4.208-4.208" transform="translate(-84.717 -36.827)"/>
              <path id="Trazado_1017290" data-name="Trazado 1017290" d="M299.321,134.955a4.207,4.207,0,1,1,4.207,4.208,4.207,4.207,0,0,1-4.207-4.208" transform="translate(-84.071 -36.858)" fill="#486470"/>
              <path id="Trazado_1017291" data-name="Trazado 1017291" d="M293.651,167.723c1.691-7.058-.457-13.641-1.909-20.517-.546-2.585-.521-5.365,1.123-7.571,1.724-2.316,4.641-3,7.39-2.927.46.012-.094-.309-.309-.314-5.1-.133-9.421,2.756-9.244,8.243.112,3.483,1.456,6.965,2.147,10.364a28.654,28.654,0,0,1,.1,12.583c-.046.192.657.343.705.138" transform="translate(-81.649 -38.443)"/>
              <rect id="Rectángulo_462420" data-name="Rectángulo 462420" width="83.154" height="13.187" transform="translate(140.264 233.677)" fill="#9db6c6"/>
              <rect id="Rectángulo_462421" data-name="Rectángulo 462421" width="91.015" height="83.531" transform="translate(136.333 150.146)" fill="#c5daea"/>
              <rect id="Rectángulo_462422" data-name="Rectángulo 462422" width="91.015" height="24.14" transform="translate(136.333 126.006)" fill="#9db6c6"/>
              <rect id="Rectángulo_462423" data-name="Rectángulo 462423" width="18.788" height="16.631" rx="3.784" transform="translate(202.53 130.718)" fill="#c5daea"/>
              <path id="Trazado_1017292" data-name="Trazado 1017292" d="M288.395,191.633a4.838,4.838,0,1,1,4.838,4.838,4.838,4.838,0,0,1-4.838-4.838" transform="translate(-81.003 -52.6)" fill="#fff"/>
            </g>
          </g>
          <g id="Grupo_1196006" data-name="Grupo 1196006" transform="translate(207.392 134.194)">
            <g id="Grupo_1196005" data-name="Grupo 1196005" clip-path="url(#clip-path-13)">
              <path id="Trazado_1017293" data-name="Trazado 1017293" d="M297.115,185.585c-2.1,3.581-4.213,7.191-6.609,10.583-.124.175.553.356.671.189,2.4-3.392,4.51-7,6.61-10.583.114-.195-.572-.359-.672-.189" transform="translate(-288.983 -186.435)" fill="#9db6c6"/>
            </g>
          </g>
          <g id="Grupo_1196008" data-name="Grupo 1196008">
            <g id="Grupo_1196007" data-name="Grupo 1196007" clip-path="url(#clip-path)">
              <path id="Rectángulo_462425" data-name="Rectángulo 462425" d="M3.784,0H54.011a3.784,3.784,0,0,1,3.784,3.784v9.063a3.784,3.784,0,0,1-3.784,3.784H3.785A3.785,3.785,0,0,1,0,12.846V3.784A3.784,3.784,0,0,1,3.784,0Z" transform="translate(141.752 130.718)" fill="#c5daea"/>
              <rect id="Rectángulo_462426" data-name="Rectángulo 462426" width="4.385" height="4.939" transform="translate(146.614 133.288)" fill="#9db6c6"/>
              <rect id="Rectángulo_462427" data-name="Rectángulo 462427" width="4.385" height="4.939" transform="translate(154.626 133.288)" fill="#9db6c6"/>
              <rect id="Rectángulo_462428" data-name="Rectángulo 462428" width="4.385" height="4.939" transform="translate(162.637 133.288)" fill="#9db6c6"/>
              <rect id="Rectángulo_462429" data-name="Rectángulo 462429" width="4.386" height="4.939" transform="translate(170.648 133.288)" fill="#9db6c6"/>
              <rect id="Rectángulo_462430" data-name="Rectángulo 462430" width="28.42" height="3.957" transform="translate(146.614 140.772)" fill="#fff"/>
              <rect id="Rectángulo_462431" data-name="Rectángulo 462431" width="15.439" height="2.999" transform="translate(180.173 141.73)" fill="#a4d36c"/>
              <rect id="Rectángulo_462432" data-name="Rectángulo 462432" width="15.439" height="2.999" transform="translate(180.173 133.288)" fill="#bf5656"/>
              <rect id="Rectángulo_462433" data-name="Rectángulo 462433" width="15.439" height="2.722" transform="translate(180.173 139.008)" fill="#ffe876"/>
              <rect id="Rectángulo_462434" data-name="Rectángulo 462434" width="15.439" height="2.722" transform="translate(180.173 136.287)" fill="#e89b46"/>
              <path id="Trazado_1017295" data-name="Trazado 1017295" d="M211.363,255.29a30.125,30.125,0,1,1,30.125,30.124,30.125,30.125,0,0,1-30.125-30.124" transform="translate(-59.366 -63.377)" fill="#fff"/>
              <path id="Trazado_1017296" data-name="Trazado 1017296" d="M242.01,258.14c.567-1.474.794-2.608-.114-4.082-.794-1.361-1.928-2.155-1.7-3.855.339-2.495,2.721-4.536,4.422-6.123.469-.434.955-.838,1.449-1.228a17.386,17.386,0,0,0-14.441,26.534,27.761,27.761,0,0,0,4.714-3.988c2.269-2.041,4.649-4.308,5.67-7.257" transform="translate(-64.327 -68.345)" fill="#586972"/>
              <path id="Trazado_1017297" data-name="Trazado 1017297" d="M263.061,248.631a33.83,33.83,0,0,0-4.06,4.1c-1.02,1.474-2.38,2.948-2.267,4.876.114,1.814,1.7,2.495,2.382,4.082a5.77,5.77,0,0,1-.114,3.4,19.207,19.207,0,0,1-4.422,7.823c-1.838,2.173-4.474,3.916-6.643,5.954a17.411,17.411,0,0,0,15.124-30.24" transform="translate(-69.639 -69.968)" fill="#586972"/>
              <path id="Trazado_1017298" data-name="Trazado 1017298" d="M250.284,271.286a19.206,19.206,0,0,0,4.422-7.824,5.768,5.768,0,0,0,.114-3.4c-.681-1.588-2.268-2.269-2.382-4.083-.113-1.928,1.247-3.4,2.267-4.876a33.833,33.833,0,0,1,4.059-4.1,17.338,17.338,0,0,0-11.3-4.176c-.129,0-.252.017-.381.019-.494.39-.979.794-1.449,1.228-1.7,1.588-4.082,3.629-4.422,6.123-.227,1.7.908,2.495,1.7,3.855.908,1.474.68,2.608.114,4.083-1.021,2.948-3.4,5.216-5.67,7.257a27.733,27.733,0,0,1-4.714,3.988,17.422,17.422,0,0,0,11,7.862c2.168-2.038,4.8-3.781,6.643-5.954" transform="translate(-65.343 -68.337)" fill="#6d8c99"/>
              <path id="Trazado_1017299" data-name="Trazado 1017299" d="M286.452,277.017a5.2,5.2,0,0,1-4.7,1.408c-2.268-.227-4.99-.68-6.8-1.814-3.175-1.587-3.175-2.495-2.721-5.443a41.739,41.739,0,0,0,.68-7.484,58.637,58.637,0,0,0-.68-6.577c-.227-5.216,6.123-7.03,10.205-7.03,7.937,0,7.483,5.9,7.483,12.247a36.894,36.894,0,0,1-1.1,9.719,11.431,11.431,0,0,1-2.365,4.974" transform="translate(-76.401 -70.374)" fill="#9db6c6"/>
            </g>
          </g>
        </g>
      </g>
    </g>
  </g>
</svg>
