<svg xmlns="http://www.w3.org/2000/svg" width="107" height="107" viewBox="0 0 107 107">
  <g id="Grupo_1196057" data-name="Grupo 1196057" transform="translate(-476.367 -7499.423)">
    <g id="Grupo_156312" data-name="Grupo 156312" transform="translate(476.367 7499.423)">
      <path id="Elipse_5845" data-name="Elipse 5845" d="M53.5,0A53.5,53.5,0,1,1,0,53.5,53.5,53.5,0,0,1,53.5,0Z" transform="translate(0)" fill="#c0f1e1"/>
    </g>
    <g id="etiqueta-de-precio_1_" data-name="etiqueta-de-precio (1)" transform="translate(493.903 7516.958)">
      <path id="Trazado_1016286" data-name="Trazado 1016286" d="M12.219,16.64H3.258A2.068,2.068,0,0,0,1.19,18.708v2.757a4.83,4.83,0,0,0,4.825,4.825h6.2a2.068,2.068,0,0,0,2.068-2.068V18.708A2.068,2.068,0,0,0,12.219,16.64Z" transform="translate(2.376 33.231)" fill="#90a4ae"/>
      <path id="Trazado_1016287" data-name="Trazado 1016287" d="M4.87,23.157a7.591,7.591,0,0,0,7.583,7.583H40.715c4,0,6.893-3.189,6.893-7.583V20.4H4.87Z" transform="translate(9.725 40.74)" fill="#2ed19b"/>
      <path id="Trazado_1016288" data-name="Trazado 1016288" d="M65.059,16.6A15.77,15.77,0,0,0,51.887,1.97L47.316,1.1A14.409,14.409,0,0,1,34.048,9.939,14.409,14.409,0,0,1,20.78,1.1l-4.523.857A15.785,15.785,0,0,0,3.041,16.6L.964,48.406a2.085,2.085,0,0,0,.554,1.549,2.058,2.058,0,0,0,1.511.653h9.651v6.2H55.417v-6.2h9.651a2.067,2.067,0,0,0,2.065-2.2Z" transform="translate(1.916 2.205)" fill="#bbc3dc"/>
      <path id="Trazado_1016289" data-name="Trazado 1016289" d="M35.458.825A2.212,2.212,0,0,0,33.917.22L28.349.969c-.983,0-1.831,2.856-2.029,3.7A4.723,4.723,0,0,1,21.59,8.051a4.726,4.726,0,0,1-4.729-3.381c-.195-.845-1.043-3.7-2.026-3.7L9.267.22a2.2,2.2,0,0,0-1.54.605,1.668,1.668,0,0,0-.515,1.409c.815,6.432,7,11.281,14.38,11.281S35.155,8.666,35.97,2.234A1.674,1.674,0,0,0,35.458.825Z" transform="translate(14.374 0.439)" fill="#2ed19b"/>
      <path id="Trazado_1016290" data-name="Trazado 1016290" d="M29.469,16.64H20.508a2.068,2.068,0,0,0-2.068,2.068v5.515a2.068,2.068,0,0,0,2.068,2.068h6.2a4.83,4.83,0,0,0,4.825-4.825V18.708A2.068,2.068,0,0,0,29.469,16.64Z" transform="translate(36.825 33.231)" fill="#90a4ae"/>
      <path id="Trazado_1016291" data-name="Trazado 1016291" d="M42.529,14.728,29.81,1.745a4.381,4.381,0,0,0-3.1-1.3h-.012L16.662.465a3.209,3.209,0,0,0-3.2,3.2L13.44,13.691a4.354,4.354,0,0,0,1.3,3.117l12.98,12.719a4.36,4.36,0,0,0,6.114-.033l8.655-8.655a4.354,4.354,0,0,0,.036-6.111Z" transform="translate(26.84 0.881)" fill="#1e3a8a"/>
      <path id="Trazado_1016292" data-name="Trazado 1016292" d="M14.985,53.946H2.247a2.252,2.252,0,0,1-1.639-.71,2.225,2.225,0,0,1-.6-1.684L2.259,16.986A17.154,17.154,0,0,1,16.624,1.069L22.058.038A2.248,2.248,0,1,1,22.9,4.455L17.412,5.492A12.7,12.7,0,0,0,6.746,17.271L4.648,49.45H14.985a2.248,2.248,0,1,1,0,4.5Z" transform="translate(0 0.001)"/>
      <path id="Trazado_1016293" data-name="Trazado 1016293" d="M48.456,47.461H6.5A2.249,2.249,0,0,1,4.25,45.213V10a2.248,2.248,0,1,1,4.5,0V42.965H46.209V22.735a2.248,2.248,0,1,1,4.5,0V45.213A2.249,2.249,0,0,1,48.456,47.461Z" transform="translate(8.487 15.477)"/>
      <path id="Trazado_1016294" data-name="Trazado 1016294" d="M43.212,32.987H12.492A8.249,8.249,0,0,1,4.25,24.745v-3A2.249,2.249,0,0,1,6.5,19.5H48.456A2.249,2.249,0,0,1,50.7,21.748v3C50.7,29.519,47.551,32.987,43.212,32.987ZM8.746,24v.749a3.752,3.752,0,0,0,3.746,3.746h30.72c2.853,0,3-3.123,3-3.746V24Z" transform="translate(8.487 38.942)"/>
      <path id="Trazado_1016295" data-name="Trazado 1016295" d="M12.988,26.99H6.245A5.251,5.251,0,0,1,1,21.745v-3A2.249,2.249,0,0,1,3.248,16.5h9.74a2.249,2.249,0,0,1,2.248,2.248v5.994A2.249,2.249,0,0,1,12.988,26.99ZM5.5,21v.749a.75.75,0,0,0,.749.749h4.5V21Z" transform="translate(1.996 32.951)"/>
      <path id="Trazado_1016296" data-name="Trazado 1016296" d="M33.235,34.947H20.5a2.248,2.248,0,1,1,0-4.5H30.835L29.627,11.906a2.247,2.247,0,1,1,4.484-.291l1.367,20.94a2.242,2.242,0,0,1-2.242,2.392Z" transform="translate(36.446 19)"/>
      <path id="Trazado_1016297" data-name="Trazado 1016297" d="M27.241,26.99H20.5a2.249,2.249,0,0,1-2.248-2.248V18.748A2.249,2.249,0,0,1,20.5,16.5h9.74a2.249,2.249,0,0,1,2.248,2.248v3A5.251,5.251,0,0,1,27.241,26.99Zm-4.5-4.5h4.5a.75.75,0,0,0,.749-.749V21H22.746Z" transform="translate(36.446 32.951)"/>
      <path id="Trazado_1016298" data-name="Trazado 1016298" d="M19.429,16.151a2.192,2.192,0,0,1-.5-.057A15.72,15.72,0,0,1,6.794,2.5,2.251,2.251,0,0,1,9.027,0h6.054a2.249,2.249,0,0,1,2.2,1.8,5.23,5.23,0,0,0,3.042,3.755,2.248,2.248,0,1,1-1.8,4.121,9.736,9.736,0,0,1-5.1-5.182h-1.6a11.222,11.222,0,0,0,8.092,7.214,2.249,2.249,0,0,1-.495,4.442Z" transform="translate(13.541 0)"/>
      <path id="Trazado_1016299" data-name="Trazado 1016299" d="M31.83,32.962a4.717,4.717,0,0,1-3.306-1.343L14.415,17.793A4.752,4.752,0,0,1,13,14.4l.027-10.9A3.487,3.487,0,0,1,16.5.027L27.407,0h.012a4.75,4.75,0,0,1,3.375,1.418l13.825,14.11a4.739,4.739,0,0,1-.036,6.647l-9.411,9.408A4.7,4.7,0,0,1,31.83,32.962ZM17.52,4.526,17.5,14.419,31.675,28.406a.229.229,0,0,0,.318,0L41.4,19a.233.233,0,0,0,0-.321L27.581,4.565ZM42.995,20.587h.03ZM17.523,3.51v0Z" transform="translate(25.961 0)"/>
    </g>
  </g>
</svg>
