<svg xmlns="http://www.w3.org/2000/svg" width="154" height="154" viewBox="0 0 154 154">
  <g id="Grupo_1196043" data-name="Grupo 1196043" transform="translate(-931.355 -12230.3)">
    <g id="Grupo_1194374" data-name="Grupo 1194374" transform="translate(417.297 4535.3)">
      <g id="Grupo_1192984" data-name="Grupo 1192984" transform="translate(204 324)">
        <path id="Trazado_995327" data-name="Trazado 995327" d="M77,0A77,77,0,1,1,0,77,77,77,0,0,1,77,0Z" transform="translate(310.059 7371)" fill="#104936"/>
      </g>
      <g id="XMLID_1_" transform="translate(543.604 7722.531)">
        <g id="XMLID_3738_" transform="translate(-0.052 -0.03)">
          <g id="XMLID_2241_" transform="translate(0 0.006)">
            <path id="XMLID_3389_" d="M77.14,94.994H17.769a.919.919,0,0,1-.928-.928v-40.5L.366,42.71a.915.915,0,0,1-.3-1.225L16.953,11.614a.913.913,0,0,1,.519-.427l16.4-5.473L37.4.408A.919.919,0,0,1,38.178,0H56.731a.943.943,0,0,1,.779.408l3.525,5.306,16.4,5.473a.913.913,0,0,1,.52.427L94.84,41.486a.915.915,0,0,1-.3,1.225L81.37,51.393l-1.02-1.54,12.449-8.2L76.509,12.82,60.145,7.366a.88.88,0,0,1-.482-.371L56.23,1.855H38.679L35.246,7.013a.973.973,0,0,1-.482.371L18.4,12.82,2.128,41.634l16.16,10.65a.919.919,0,0,1,.408.779V93.139H76.212V26.717h1.855V94.066a.919.919,0,0,1-.928.928Z" transform="translate(0.052 0)" fill="#c0f1e1"/>
          </g>
          <g id="XMLID_1733_" transform="translate(16.893 26.723)">
            <path id="XMLID_3388_" d="M91,144h1.855v26.346H91Z" transform="translate(-91 -144)" fill="#c0f1e1"/>
          </g>
          <g id="XMLID_70_" transform="translate(28.03 0.019)">
            <path id="XMLID_3385_" d="M170.5,27.887a.876.876,0,0,1-.557-.186l-9.277-6.9a.889.889,0,0,1-.371-.742V16.941h-8.349a.928.928,0,0,1-.8-1.392l5.566-9.462a.065.065,0,0,1,.019-.037L160.446.484a.927.927,0,0,1,.891-.408.9.9,0,0,1,.761.612l9.277,25.975a.953.953,0,0,1-.315,1.058,1.026,1.026,0,0,1-.557.167Zm-8.349-8.293,6.438,4.805L160.965,3.044l-2.672,4.008-4.731,8.034h7.663a.919.919,0,0,1,.928.928Z" transform="translate(-151.025 -0.07)" fill="#c0f1e1"/>
          </g>
          <g id="XMLID_67_" transform="translate(46.574 0)">
            <path id="XMLID_3382_" d="M251.9,27.806a.912.912,0,0,1-.557-.186.9.9,0,0,1-.315-1.058L260.31.588a.933.933,0,0,1,.761-.612.944.944,0,0,1,.891.408l3.711,5.566a.057.057,0,0,1,.019.037l5.566,9.462a.922.922,0,0,1,0,.928.9.9,0,0,1-.8.464h-8.349v3.117a.889.889,0,0,1-.371.742l-9.277,6.92a.912.912,0,0,1-.557.186Zm9.537-24.843-7.626,21.355,6.438-4.805V15.931a.919.919,0,0,1,.928-.928h7.663L264.113,6.97Z" transform="translate(-250.972 0.03)" fill="#c0f1e1"/>
          </g>
          <g id="XMLID_69_" transform="translate(46.579 56.223)">
            <path id="XMLID_3381_" d="M251,303h1.855v37.849H251Z" transform="translate(-251 -303)" fill="#c0f1e1"/>
          </g>
          <g id="XMLID_2079_" transform="translate(46.579 26.908)">
            <path id="XMLID_3380_" d="M251,145h1.855v17.626H251Z" transform="translate(-251 -145)" fill="#c0f1e1"/>
          </g>
          <g id="XMLID_12_" transform="translate(44.167 5.572)">
            <path id="XMLID_3379_" d="M238,30h10.39v1.855H238Z" transform="translate(-238 -30)" fill="#c0f1e1"/>
          </g>
          <g id="XMLID_68_" transform="translate(54.928 34.144)">
            <path id="XMLID_3376_" d="M303.421,200.7a.837.837,0,0,1-.464-.13l-6.494-3.711a.9.9,0,0,1-.464-.8V184.928a.919.919,0,0,1,.928-.928h12.987a.919.919,0,0,1,.928.928V196.06a.913.913,0,0,1-.464.8l-6.494,3.711A.837.837,0,0,1,303.421,200.7Zm-5.566-5.176,5.566,3.173,5.566-3.173v-9.666H297.855Z" transform="translate(-296 -184)" fill="#c0f1e1"/>
          </g>
          <g id="XMLID_79_" transform="translate(16.893 59.581)">
            <g id="XMLID_92_">
              <path id="XMLID_3373_" d="M101.334,354.533a.9.9,0,0,1-.482-.13c-5.251-3.154-7.588-3.841-8.182-3.748a.922.922,0,0,1-.965.352A.936.936,0,0,1,91,350.1v-9.147a.885.885,0,0,1,.5-.816.948.948,0,0,1,.965.056c1.392.983,2.078,1,2.264.872.019-.019,1.169-1.206-3.618-10.242A.862.862,0,0,1,91,330.4v-2.412a.917.917,0,0,1,.334-.705,25.209,25.209,0,0,1,7.718-4.4.935.935,0,0,1,1.169.5,53.623,53.623,0,0,0,2.783,5.6,51.169,51.169,0,0,0-.835-6.1.937.937,0,0,1,.724-1.076,35.621,35.621,0,0,1,7.2-.705.92.92,0,0,1,.928.872,64.35,64.35,0,0,1-1.614,16.086.939.939,0,0,1-.52.631.9.9,0,0,1-.816-.037,25.268,25.268,0,0,0-5.733-2.523c.26.853,1.225,3.08,4.675,8.535a.93.93,0,0,1,.074.853,34.65,34.65,0,0,1-4.991,8.664A1.115,1.115,0,0,1,101.334,354.533Zm-8.479-5.752a9.917,9.917,0,0,1,3.414,1.039,51.263,51.263,0,0,1,4.824,2.56,33.024,33.024,0,0,0,4.045-7.143c-5.195-8.275-4.9-9.444-4.75-10.019a1.252,1.252,0,0,1,.594-.8c.408-.223,1.466-.816,6.846,2a64.984,64.984,0,0,0,1.336-13.488,33.5,33.5,0,0,0-5.047.482c.315,1.781.52,3.284.631,4.471.2,2.226.148,3.507-.816,3.9-1.169.482-2.1-1-3.043-2.709-.594-1.076-1.28-2.486-2.059-4.193a22.9,22.9,0,0,0-6.011,3.507v1.744c4.9,9.314,4.156,11.522,2.969,12.394a2.889,2.889,0,0,1-2.969.019v6.234Z" transform="translate(-91 -321.1)" fill="#c0f1e1"/>
            </g>
            <g id="XMLID_94_" transform="translate(0 28.894)">
              <path id="XMLID_3370_" d="M95.267,483.36h-3.34a.919.919,0,0,1-.928-.928v-4.675a.929.929,0,0,1,1.818-.26c.148.482.742,1.688,3.136,4.323a.914.914,0,0,1-.686,1.54ZM92.855,481.5h.371c-.13-.167-.26-.315-.371-.464Z" transform="translate(-91 -476.836)" fill="#c0f1e1"/>
            </g>
          </g>
          <g id="XMLID_77_" transform="translate(62.368 10.616)">
            <path id="XMLID_3367_" d="M338.085,76.911c-.668,0-1.058-.019-1.113-.019a.907.907,0,0,1-.872-.928,24.415,24.415,0,0,1,.482-4.917.937.937,0,0,1,1.076-.724c1.095.2,1.967.334,2.635.427-.612-.315-1.429-.686-2.468-1.15a.935.935,0,0,1-.5-1.169,17.065,17.065,0,0,1,3.6-5.937.934.934,0,0,1,1.132-.186c4.861,2.672,7.05,3.191,7.644,3.08-.037-.315-.482-1.651-4.323-5.009a1,1,0,0,1-.315-.8.892.892,0,0,1,.464-.705,24.124,24.124,0,0,1,3.488-1.633,1.047,1.047,0,0,1,.631-.019l1.577.52a.913.913,0,0,1,.52.427l6.772,11.986a.928.928,0,0,1-.26,1.206,24.146,24.146,0,0,1-5.176,2.82.887.887,0,0,1-.835-.074,40.585,40.585,0,0,0-5.195-2.913,22.37,22.37,0,0,0,1.521,3.247.906.906,0,0,1,.037.816.894.894,0,0,1-.631.52A44.513,44.513,0,0,1,338.085,76.911Zm-.13-1.948h.056a43.041,43.041,0,0,0,8.349-.779c-1.763-3.47-1.373-4.175-1.169-4.527a1.078,1.078,0,0,1,.724-.538c.464-.111,1.3-.315,6.9,3.173a24.511,24.511,0,0,0,3.674-1.948L350.312,59.4l-.928-.315q-.918.362-1.781.779c3.488,3.228,4.6,5.288,3.618,6.642-.742,1-2.449,1.5-9.407-2.245a15.214,15.214,0,0,0-2.431,3.97c1.058.482,1.93.909,2.6,1.28,1.02.557,2.412,1.317,1.967,2.431-.371.891-1.559.853-2.95.724-.742-.074-1.67-.241-2.764-.427A18.868,18.868,0,0,0,337.955,74.963Z" transform="translate(-336.1 -57.186)" fill="#c0f1e1"/>
          </g>
          <g id="XMLID_93_" transform="translate(37.298 42.864)">
            <path id="XMLID_2555_" d="M207.642,251.409a3.092,3.092,0,0,1-1.558-.445,2.966,2.966,0,0,1-1.6-2.245c-.26-1.818,1.058-3.989,2.152-5.4-1.8-.148-4.23-.631-5.214-2.059a2.667,2.667,0,0,1-.2-2.635,3.1,3.1,0,0,1,2.022-1.892c1.466-.445,3.265.13,4.694.8-.482-1.614-.779-3.636.074-5.009A3.44,3.44,0,0,1,211.186,231a3.4,3.4,0,0,1,3.173,1.521c.853,1.392.557,3.414.074,5.009,1.429-.668,3.247-1.243,4.694-.8a3.1,3.1,0,0,1,2.022,1.892,2.629,2.629,0,0,1-.2,2.635c-.983,1.429-3.414,1.911-5.214,2.059,1.095,1.429,2.412,3.581,2.152,5.4a3.011,3.011,0,0,1-1.6,2.245,2.784,2.784,0,0,1-2.727.167,5.622,5.622,0,0,1-2.356-3.117,5.622,5.622,0,0,1-2.356,3.117A2.889,2.889,0,0,1,207.642,251.409Zm3.544-7.941a.905.905,0,0,1,.909.8c.278,1.837,1.15,4.657,2.264,5.195a1.015,1.015,0,0,0,1-.111,1.15,1.15,0,0,0,.668-.891c.223-1.466-1.688-4.063-2.931-5.343a.942.942,0,0,1-.186-1.02.889.889,0,0,1,.872-.557c1.911.037,4.935-.353,5.6-1.336.074-.093.223-.334,0-.872a1.262,1.262,0,0,0-.835-.816c-1.392-.408-4.082.928-5.455,1.874a.92.92,0,0,1-1.132-.056.939.939,0,0,1-.223-1.113c.779-1.559,1.744-4.508,1-5.733-.093-.148-.39-.631-1.6-.631s-1.484.482-1.6.631c-.779,1.262.334,4.4,1,5.733a.939.939,0,0,1-.223,1.113.921.921,0,0,1-1.132.056c-1.373-.946-4.063-2.3-5.455-1.874a1.26,1.26,0,0,0-.835.816c-.223.557-.056.779,0,.872.686.983,3.692,1.373,5.6,1.336a.906.906,0,0,1,.872.557.942.942,0,0,1-.186,1.02c-1.243,1.28-3.136,3.878-2.931,5.343a1.15,1.15,0,0,0,.668.891.969.969,0,0,0,1,.111c1.225-.594,2.059-3.766,2.264-5.195A1.043,1.043,0,0,1,211.186,243.468Z" transform="translate(-200.977 -231)" fill="#c0f1e1"/>
          </g>
          <g id="XMLID_74_" transform="translate(56.851 69.061)">
            <path id="XMLID_2552_" d="M326.7,398.136h-7.959a.927.927,0,0,1-.705-1.521c.408-.5.816-.946,1.169-1.336-3.247-.278-9.462-1.243-11.837-4.434a5.042,5.042,0,0,1-.761-4.638,4.731,4.731,0,0,1,3.043-3.47c2.8-.946,6.661.649,9.481,2.226-1.577-2.82-3.191-6.679-2.226-9.481a4.731,4.731,0,0,1,3.47-3.043c2.171-.612,5.176-.353,7.2,4.286a.831.831,0,0,1,.074.371v20.112A.946.946,0,0,1,326.7,398.136Zm-5.919-1.855h4.991V377.3c-1.8-3.952-4.156-3.284-4.935-3.061a2.938,2.938,0,0,0-2.208,1.855c-1.076,3.173,2.727,9.314,4.286,11.41a.909.909,0,0,1-.093,1.206.931.931,0,0,1-1.206.093c-2.1-1.559-8.238-5.381-11.41-4.286a2.974,2.974,0,0,0-1.855,2.208,3.247,3.247,0,0,0,.464,3.024c2.226,2.987,9.722,3.766,12.431,3.8a.943.943,0,0,1,.853.594.917.917,0,0,1-.223,1S321.435,395.575,320.786,396.28Z" transform="translate(-306.363 -372.197)" fill="#c0f1e1"/>
          </g>
          <g id="XMLID_2080_" transform="translate(8.543 15.646)">
            <path id="XMLID_2550_" d="M60.839,108.735c-2.059,0-3.525-.686-4.36-2.059-1.392-2.245-.575-5.752.278-8.182-2.152,1.132-5.288,2.375-7.7,1.651a4.145,4.145,0,0,1-2.727-2.579,3.853,3.853,0,0,1-.223-2.468,1.135,1.135,0,0,1,.093-.223l.594-1.058a1.019,1.019,0,0,1,.13-.167c1.725-1.874,5.6-2.393,8.015-2.542A20.128,20.128,0,0,1,51.692,85.8l1.744-.631A21.849,21.849,0,0,0,57.61,91.35a.944.944,0,0,1-.668,1.6h-.019c-1.837,0-6.883.223-8.572,1.892l-.464.835a2.178,2.178,0,0,0,.186,1.187,2.315,2.315,0,0,0,1.54,1.484c2.542.761,7.05-1.818,8.572-2.876a.92.92,0,0,1,1.132.056.939.939,0,0,1,.223,1.113c-.872,1.763-2.857,6.809-1.466,9.036a2.994,2.994,0,0,0,2.783,1.169,3.014,3.014,0,0,0,2.783-1.169c1.392-2.245-.594-7.292-1.466-9.036a.939.939,0,0,1,.223-1.113.92.92,0,0,1,1.132-.056c1.521,1.058,6.048,3.636,8.572,2.876a2.315,2.315,0,0,0,1.54-1.484,1.663,1.663,0,0,0-.056-1.744c-1.187-1.707-6.03-2.245-8.813-2.189a.906.906,0,0,1-.872-.557.942.942,0,0,1,.186-1.02c.037-.037,3.711-3.859,4.434-7.05l1.818.408a17.549,17.549,0,0,1-3.562,6.4c2.579.148,6.828.742,8.349,2.95a3.515,3.515,0,0,1,.241,3.507,4.231,4.231,0,0,1-2.727,2.579c-2.412.724-5.529-.52-7.7-1.651.853,2.431,1.67,5.937.278,8.182a4.751,4.751,0,0,1-4.379,2.059Z" transform="translate(-45.995 -84.3)" fill="#c0f1e1"/>
          </g>
          <g id="XMLID_73_" transform="translate(18.823 10.4)">
            <path id="XMLID_2549_" d="M105.964,67a.905.905,0,0,1-.909-.8c-.278-1.911-1.484-7.087-3.655-8.145l.816-1.67c1.855.909,3.043,3.414,3.748,5.622.705-2.226,1.892-4.713,3.748-5.622a3.762,3.762,0,0,1,3.674.241,5.558,5.558,0,0,1,1.039.761l-1.3,1.317a2.777,2.777,0,0,0-.631-.464,1.9,1.9,0,0,0-1.93-.186c-2.171,1.058-3.377,6.253-3.655,8.145A.971.971,0,0,1,105.964,67Z" transform="translate(-101.4 -56.024)" fill="#c0f1e1"/>
          </g>
        </g>
      </g>
    </g>
  </g>
</svg>
