<svg xmlns="http://www.w3.org/2000/svg" width="107" height="107" viewBox="0 0 107 107">
  <g id="Grupo_1196058" data-name="Grupo 1196058" transform="translate(-1003.746 -7499.423)">
    <path id="Elipse_5845" data-name="Elipse 5845" d="M53.5,0A53.5,53.5,0,1,1,0,53.5,53.5,53.5,0,0,1,53.5,0Z" transform="translate(1003.746 7499.423)" fill="#c0f1e1"/>
    <g id="codigo-de-barras" transform="translate(1021 7513.594)">
      <g id="Grupo_1195820" data-name="Grupo 1195820" transform="translate(1.168 1.168)">
        <g id="Grupo_1195815" data-name="Grupo 1195815">
          <path id="Trazado_1016300" data-name="Trazado 1016300" d="M38.371,8.007a2.336,2.336,0,1,0-2.336,2.336A2.343,2.343,0,0,0,38.371,8.007Zm2.336,33.867a15.039,15.039,0,0,0,2.336,8.081V69.9a1.171,1.171,0,0,1-1.168,1.168H8.007A7.013,7.013,0,0,1,1,64.064V50.528a3.988,3.988,0,0,1,1.168-2.814A3.988,3.988,0,0,1,1,44.9V23.189A22.194,22.194,0,0,1,23.189,1H41.874a1.171,1.171,0,0,1,1.168,1.168V33.7l.047.023A15.055,15.055,0,0,0,40.707,41.874Z" transform="translate(-1 -1)" fill="#1e3a8a"/>
        </g>
        <g id="Grupo_1195816" data-name="Grupo 1195816" transform="translate(51.385 55.648)">
          <path id="Trazado_1016301" data-name="Trazado 1016301" d="M52.007,48.65V60.737a2.343,2.343,0,0,1-2.336,2.336H47.336A2.343,2.343,0,0,1,45,60.737V48.65a15.22,15.22,0,0,0,7.007,0Z" transform="translate(-45 -48.65)" fill="#104936"/>
        </g>
        <g id="Grupo_1195817" data-name="Grupo 1195817" transform="translate(39.707 25.693)">
          <path id="Trazado_1016302" data-name="Trazado 1016302" d="M50.182,23a15.2,15.2,0,1,1-12.8,7.03A15.182,15.182,0,0,1,50.182,23Z" transform="translate(-35 -23)" fill="#2ed19b"/>
        </g>
        <g id="Grupo_1195818" data-name="Grupo 1195818" transform="translate(44.378 30.364)">
          <circle id="Elipse_13672" data-name="Elipse 13672" cx="10.5" cy="10.5" r="10.5" transform="translate(0.454 -0.125)" fill="#bbc3dc"/>
        </g>
        <g id="Grupo_1195819" data-name="Grupo 1195819" transform="translate(7.007 18.685)">
          <path id="Trazado_1016303" data-name="Trazado 1016303" d="M35.028,18.168V20.5a1.171,1.171,0,0,1-1.168,1.168H8.168A1.171,1.171,0,0,1,7,20.5V18.168A1.171,1.171,0,0,1,8.168,17H33.86A1.171,1.171,0,0,1,35.028,18.168Z" transform="translate(-7 -17)" fill="#2ed19b"/>
        </g>
      </g>
      <g id="Grupo_1195821" data-name="Grupo 1195821" transform="translate(0 0)">
        <path id="Trazado_1016304" data-name="Trazado 1016304" d="M72.406,42.042a16.238,16.238,0,0,0-2.573-8.768l2.2-2.055L70.442,29.51l-2.011,1.877a16.3,16.3,0,0,0-24.053-.765V9.343H63.064a2.336,2.336,0,1,1,0,4.671H53.721a4.671,4.671,0,1,0,0,9.343h2.336V21.021H53.721a2.336,2.336,0,0,1,0-4.671h9.343a4.671,4.671,0,1,0,0-9.343H44.378V2.336A2.338,2.338,0,0,0,42.042,0H23.357A23.383,23.383,0,0,0,0,23.357V45.062a5.119,5.119,0,0,0,.837,2.819A5.119,5.119,0,0,0,0,50.7V64.231a8.185,8.185,0,0,0,8.175,8.175H42.042a2.338,2.338,0,0,0,2.336-2.336V53.463a16.355,16.355,0,0,0,7.007,4.24V68.9a3.508,3.508,0,0,0,3.5,3.5h2.336a3.508,3.508,0,0,0,3.5-3.5V57.7A16.373,16.373,0,0,0,72.406,42.042ZM42.042,70.071H8.175a5.846,5.846,0,0,1-5.839-5.839V50.7a2.8,2.8,0,0,1,.826-1.994l.826-.826-.826-.826a2.8,2.8,0,0,1-.826-1.994V23.357A21.045,21.045,0,0,1,23.357,2.336H42.042V7.007H39.492a3.5,3.5,0,1,0,0,2.336h2.551V33.664a16.194,16.194,0,0,0,0,16.756Zm-4.671-61.9A1.168,1.168,0,1,1,36.2,7.007,1.168,1.168,0,0,1,37.371,8.175ZM58.392,68.9a1.168,1.168,0,0,1-1.168,1.168H54.889A1.168,1.168,0,0,1,53.721,68.9v-10.7a16.382,16.382,0,0,0,2.336.187,16.214,16.214,0,0,0,2.336-.187ZM56.056,56.056A14.014,14.014,0,1,1,66.726,32.978l-1.705,1.592a11.647,11.647,0,1,0,1.326,1.958L68.092,34.9A13.987,13.987,0,0,1,56.056,56.056Zm-2.364-7.718L64.561,38.2a9.342,9.342,0,1,1-1.251-2.03l-9.561,8.923-2.706-2.7-1.651,1.651Z" transform="translate(0 0)"/>
        <path id="Trazado_1016305" data-name="Trazado 1016305" d="M50,18h2.336v2.336H50Z" transform="translate(8.392 3.021)"/>
        <path id="Trazado_1016306" data-name="Trazado 1016306" d="M54,18h2.336v2.336H54Z" transform="translate(9.064 3.021)"/>
        <path id="Trazado_1016307" data-name="Trazado 1016307" d="M5,40H9.671v2.336H5Z" transform="translate(0.839 6.714)" fill="#fff"/>
        <path id="Trazado_1016308" data-name="Trazado 1016308" d="M11,40h4.671v2.336H11Z" transform="translate(1.846 6.714)" fill="#fff"/>
        <path id="Trazado_1016309" data-name="Trazado 1016309" d="M17,40h4.671v2.336H17Z" transform="translate(2.853 6.714)" fill="#fff"/>
        <path id="Trazado_1016310" data-name="Trazado 1016310" d="M23,40h4.671v2.336H23Z" transform="translate(3.86 6.714)" fill="#fff"/>
        <path id="Trazado_1016311" data-name="Trazado 1016311" d="M29,40h4.671v2.336H29Z" transform="translate(4.867 6.714)" fill="#fff"/>
        <path id="Trazado_1016312" data-name="Trazado 1016312" d="M9,44h2.336V54.511H9Z" transform="translate(1.511 7.385)" fill="#fff"/>
        <path id="Trazado_1016313" data-name="Trazado 1016313" d="M9,54h2.336v2.336H9Z" transform="translate(1.511 9.064)" fill="#fff"/>
        <path id="Trazado_1016314" data-name="Trazado 1016314" d="M18,44h2.336V54.511H18Z" transform="translate(3.021 7.385)" fill="#fff"/>
        <path id="Trazado_1016315" data-name="Trazado 1016315" d="M18,54h2.336v2.336H18Z" transform="translate(3.021 9.064)" fill="#fff"/>
        <path id="Trazado_1016316" data-name="Trazado 1016316" d="M21,44h2.336V54.511H21Z" transform="translate(3.525 7.385)" fill="#fff"/>
        <path id="Trazado_1016317" data-name="Trazado 1016317" d="M21,54h2.336v2.336H21Z" transform="translate(3.525 9.064)" fill="#fff"/>
        <path id="Trazado_1016318" data-name="Trazado 1016318" d="M12,44h2.336V58.014H12Z" transform="translate(2.014 7.385)" fill="#fff"/>
        <path id="Trazado_1016319" data-name="Trazado 1016319" d="M6,44H8.336V58.014H6Z" transform="translate(1.007 7.385)" fill="#fff"/>
        <path id="Trazado_1016320" data-name="Trazado 1016320" d="M27,44h2.336V54.511H27Z" transform="translate(4.532 7.385)" fill="#fff"/>
        <path id="Trazado_1016321" data-name="Trazado 1016321" d="M27,54h2.336v2.336H27Z" transform="translate(4.532 9.064)" fill="#fff"/>
        <path id="Trazado_1016322" data-name="Trazado 1016322" d="M24,44h2.336V58.014H24Z" transform="translate(4.028 7.385)" fill="#fff"/>
        <path id="Trazado_1016323" data-name="Trazado 1016323" d="M30,44h2.336V58.014H30Z" transform="translate(5.035 7.385)" fill="#fff"/>
        <path id="Trazado_1016324" data-name="Trazado 1016324" d="M15,44h2.336V58.014H15Z" transform="translate(2.518 7.385)" fill="#fff"/>
        <path id="Trazado_1016325" data-name="Trazado 1016325" d="M8.336,23.007H34.028a2.338,2.338,0,0,0,2.336-2.336V18.336A2.338,2.338,0,0,0,34.028,16H8.336A2.338,2.338,0,0,0,6,18.336v2.336A2.338,2.338,0,0,0,8.336,23.007Zm16.35-2.336H22.35V18.336h2.336Zm2.336-2.336h2.336v2.336H27.021Zm-7.007,2.336H17.678V18.336h2.336Zm-4.671,0H13.007V18.336h2.336Zm18.688,0H31.693V18.336h2.336ZM8.336,18.336h2.336v2.336H8.336Z" transform="translate(1.007 2.685)" fill="#fff"/>
        <path id="Trazado_1016326" data-name="Trazado 1016326" d="M6,12H36.364v2.336H6Z" transform="translate(1.007 2.014)" fill="#fff"/>
        <path id="Trazado_1016327" data-name="Trazado 1016327" d="M8,26h2.336v2.336H8Z" transform="translate(1.343 4.364)" fill="#fff"/>
        <path id="Trazado_1016328" data-name="Trazado 1016328" d="M12,26H33.021v2.336H12Z" transform="translate(2.014 4.364)" fill="#fff"/>
        <path id="Trazado_1016329" data-name="Trazado 1016329" d="M8,30h2.336v2.336H8Z" transform="translate(1.343 5.035)" fill="#fff"/>
        <path id="Trazado_1016330" data-name="Trazado 1016330" d="M12,30H33.021v2.336H12Z" transform="translate(2.014 5.035)" fill="#fff"/>
        <path id="Trazado_1016331" data-name="Trazado 1016331" d="M8,34h2.336v2.336H8Z" transform="translate(1.343 5.707)" fill="#fff"/>
        <path id="Trazado_1016332" data-name="Trazado 1016332" d="M12,34H33.021v2.336H12Z" transform="translate(2.014 5.707)" fill="#fff"/>
      </g>
    </g>
  </g>
</svg>
