<svg xmlns="http://www.w3.org/2000/svg" width="98" height="98" viewBox="0 0 98 98">
  <g id="Grupo_1196064" data-name="Grupo 1196064" transform="translate(-702 -11109.951)">
    <g id="Grupo_1195280" data-name="Grupo 1195280" transform="translate(70 2564.57)">
      <g id="Grupo_1102209" data-name="Grupo 1102209" transform="translate(-19.771 1552.381)">
        <rect id="Rectángulo_403454" data-name="Rectángulo 403454" width="98" height="98" rx="18" transform="translate(651.771 6993)" fill="#fff"/>
      </g>
      <g id="sueter" transform="translate(607.697 8561.93)">
        <g id="Grupo_1195878" data-name="Grupo 1195878" transform="translate(47.029 0.98)">
          <path id="Trazado_1016692" data-name="Trazado 1016692" d="M94.108,9.767,89.459,7.5H70.515l-4.649,2.27A21.949,21.949,0,0,0,53.547,29.49v29.3a1.914,1.914,0,0,0,1.914,1.914h6.529V64.67a2.151,2.151,0,0,0,2.151,2.151H95.833a2.151,2.151,0,0,0,2.151-2.151V60.708h6.529a1.914,1.914,0,0,0,1.914-1.914v-29.3A21.949,21.949,0,0,0,94.108,9.767Z" transform="translate(-53.547 -7.497)" fill="#1e3a8a"/>
        </g>
        <g id="Grupo_1195886" data-name="Grupo 1195886" transform="translate(55.462 24.178)">
          <g id="Grupo_1195881" data-name="Grupo 1195881">
            <path id="Trazado_1016695" data-name="Trazado 1016695" d="M154.088,186.726v6.852l-3.011,2.574a1.742,1.742,0,0,1-2.263,0l-4.5-3.845a1.742,1.742,0,0,0-2.263,0l-4.5,3.844a1.741,1.741,0,0,1-2.263,0l-4.495-3.844a1.741,1.741,0,0,0-2.263,0l-4.5,3.844a1.742,1.742,0,0,1-2.263,0L118.087,193v-6.852l3.687,3.153a1.742,1.742,0,0,0,2.263,0l4.5-3.844a1.741,1.741,0,0,1,2.263,0l4.495,3.844a1.741,1.741,0,0,0,2.263,0l4.5-3.844a1.742,1.742,0,0,1,2.263,0l4.5,3.845a1.742,1.742,0,0,0,2.263,0Z" transform="translate(-118.087 -185.037)" fill="#2ed19b"/>
          </g>
          <g id="Grupo_1195885" data-name="Grupo 1195885" transform="translate(0 16.734)">
            <path id="Trazado_1016698" data-name="Trazado 1016698" d="M154.088,314.794v6.852l-3.011,2.573a1.741,1.741,0,0,1-2.263,0l-4.5-3.845a1.742,1.742,0,0,0-2.263,0l-4.5,3.844a1.741,1.741,0,0,1-2.263,0l-4.495-3.844a1.741,1.741,0,0,0-2.263,0l-4.5,3.844a1.742,1.742,0,0,1-2.263,0l-3.687-3.153v-6.852l3.687,3.153a1.742,1.742,0,0,0,2.263,0l4.5-3.844a1.741,1.741,0,0,1,2.263,0l4.495,3.844a1.741,1.741,0,0,0,2.263,0l4.5-3.844a1.742,1.742,0,0,1,2.263,0l4.5,3.845a1.742,1.742,0,0,0,2.263,0Z" transform="translate(-118.087 -313.105)" fill="#2ed19b"/>
          </g>
        </g>
        <g id="Grupo_1195887" data-name="Grupo 1195887" transform="translate(64.223 0.98)">
          <path id="Trazado_1016699" data-name="Trazado 1016699" d="M203.608,7.5h-4.391c-.421,2.582-1.458,4.391-3.712,5.156a3.5,3.5,0,0,1-2.25,0c-2.252-.765-3.283-2.574-3.7-5.156H185.16a15.9,15.9,0,0,0,.283,2.5,9.774,9.774,0,0,0,3.8,5.759,9.073,9.073,0,0,0,10.1.113,9.784,9.784,0,0,0,4.093-6.438,15.893,15.893,0,0,0,.171-1.931Z" transform="translate(-185.139 -7.499)" fill="#f9f3f1"/>
        </g>
        <g id="Grupo_1195888" data-name="Grupo 1195888" transform="translate(68.8 0.98)">
          <path id="Trazado_1016700" data-name="Trazado 1016700" d="M233.886,9.433a9.784,9.784,0,0,1-4.094,6.438,9.1,9.1,0,0,1-9.628.2,9.134,9.134,0,0,0,7.351-1.169,9.785,9.785,0,0,0,4.094-6.438c.013-.076.067-.517.112-.959h2.335a16.258,16.258,0,0,1-.171,1.931Z" transform="translate(-220.165 -7.502)" fill="#f3eae6"/>
        </g>
        <g id="Grupo_1195889" data-name="Grupo 1195889" transform="translate(58.774 60.304)">
          <path id="Trazado_1016701" data-name="Trazado 1016701" d="M171.968,467.1H144.294a.857.857,0,0,1-.857-.857v-4.733h29.388v4.733A.857.857,0,0,1,171.968,467.1Z" transform="translate(-143.437 -461.509)" fill="#f9f3f1"/>
        </g>
        <g id="Grupo_1195890" data-name="Grupo 1195890" transform="translate(84.491 60.304)">
          <path id="Trazado_1016702" data-name="Trazado 1016702" d="M343.917,461.511v4.671a.919.919,0,0,1-.918.918h-2.754a.917.917,0,0,0,.917-.918v-4.671Z" transform="translate(-340.245 -461.511)" fill="#f3eae6"/>
        </g>
        <path id="Trazado_1016703" data-name="Trazado 1016703" d="M97.406,10.827A22.9,22.9,0,0,0,88.02,2.37L83.37.1a.979.979,0,0,0-.43-.1H64a.981.981,0,0,0-.43.1l-4.649,2.27a22.929,22.929,0,0,0-12.868,20.6V41.226a.98.98,0,1,0,1.959,0V22.973A20.969,20.969,0,0,1,59.777,4.13l3.592-1.754c.068.505.165,1.156.2,1.324a10.692,10.692,0,0,0,4.191,6.336,9.768,9.768,0,0,0,5.579,1.771h.1a9.963,9.963,0,0,0,5.524-1.642,10.734,10.734,0,0,0,4.516-7.082c.017-.094.054-.4.088-.7L87.16,4.13A20.969,20.969,0,0,1,98.929,22.973v29.3a.935.935,0,0,1-.934.934H92.443V22.595l1.63-5.525a.98.98,0,0,0-1.879-.554l-1.67,5.66a.981.981,0,0,0-.04.277v2.963L87.816,27.7a.758.758,0,0,1-.99,0l-4.5-3.845a2.708,2.708,0,0,0-3.536,0l-.523.447a.98.98,0,0,0,1.273,1.489l.523-.447a.759.759,0,0,1,.99,0l4.5,3.845a2.708,2.708,0,0,0,3.536,0l1.395-1.192v4.274l-2.668,2.28a.759.759,0,0,1-.99,0l-4.5-3.845a2.709,2.709,0,0,0-3.536,0l-4.5,3.844a.758.758,0,0,1-.99,0L68.81,30.7a2.708,2.708,0,0,0-3.537,0l-4.5,3.844a.759.759,0,0,1-.99,0L56.444,31.69V27.415l2.07,1.77a2.708,2.708,0,0,0,3.537,0l4.5-3.844a.758.758,0,0,1,.99,0l4.495,3.844a2.708,2.708,0,0,0,3.537,0l.517-.442a.98.98,0,1,0-1.273-1.489l-.517.442a.758.758,0,0,1-.99,0L68.81,23.852a2.708,2.708,0,0,0-3.537,0l-4.5,3.844a.759.759,0,0,1-.99,0l-3.344-2.859V22.453a.98.98,0,0,0-.04-.277l-1.67-5.66a.98.98,0,0,0-1.879.554l1.63,5.525V53.211h-5.54a.935.935,0,0,1-.934-.934v-6.51a.98.98,0,0,0-1.959,0v6.51a2.9,2.9,0,0,0,2.893,2.893h5.549v2.982a3.134,3.134,0,0,0,3.131,3.131h.173v3.753a1.838,1.838,0,0,0,1.836,1.836H87.306a1.838,1.838,0,0,0,1.836-1.836V61.284h.173a3.134,3.134,0,0,0,3.131-3.131V55.17h5.549a2.9,2.9,0,0,0,2.894-2.893v-29.3a22.906,22.906,0,0,0-3.481-12.146ZM77.086,1.959a4.29,4.29,0,0,1-2.811,3.25,2.531,2.531,0,0,1-1.62,0,4.285,4.285,0,0,1-2.8-3.249Zm4.471.778a8.768,8.768,0,0,1-3.669,5.795,8.119,8.119,0,0,1-8.992-.1,8.73,8.73,0,0,1-3.412-5.173c-.031-.149-.123-.761-.193-1.3h2.539c.619,2.683,2,4.356,4.195,5.1a4.5,4.5,0,0,0,2.88,0c2.2-.748,3.584-2.422,4.2-5.1h2.541c-.037.35-.077.686-.092.778Zm-23.044,33.3a2.708,2.708,0,0,0,3.537,0l4.5-3.844a.758.758,0,0,1,.99,0l4.495,3.844a2.708,2.708,0,0,0,3.537,0l4.5-3.844a.758.758,0,0,1,.99,0l4.5,3.845a2.708,2.708,0,0,0,3.536,0l1.4-1.193v7.3l-2.669,2.281a.758.758,0,0,1-.99,0l-4.5-3.845a2.708,2.708,0,0,0-3.536,0l-4.5,3.844a.758.758,0,0,1-.99,0l-4.495-3.844a2.708,2.708,0,0,0-3.537,0l-4.5,3.844a.759.759,0,0,1-.99,0l-3.339-2.855,0-7.306Zm-2.065,8.117,2.065,1.766a2.708,2.708,0,0,0,3.537,0l4.5-3.844a.758.758,0,0,1,.99,0l4.495,3.844a2.708,2.708,0,0,0,3.537,0l4.5-3.844a.759.759,0,0,1,.99,0l4.5,3.845a2.708,2.708,0,0,0,3.536,0l1.395-1.192V49l-2.668,2.28a.758.758,0,0,1-.99,0l-4.5-3.845a2.709,2.709,0,0,0-3.536,0l-4.5,3.844a.758.758,0,0,1-.99,0l-4.495-3.844a2.708,2.708,0,0,0-3.537,0l-4.5,3.844a.759.759,0,0,1-.99,0l-3.338-2.854Zm30.736,20.76H84.526l0-1.051a.98.98,0,0,0-.98-.977h0a.98.98,0,0,0-.977.982l0,1.046h-2.9l0-1.039a.98.98,0,0,0-.98-.977h0a.98.98,0,0,0-.977.982l0,1.034H74.448l0-1.063a.98.98,0,0,0-.98-.977h0a.98.98,0,0,0-.977.982l0,1.058H69.231l0-1.051a.98.98,0,0,0-.98-.977h0a.98.98,0,0,0-.977.982l0,1.046h-2.9l0-1.039a.98.98,0,0,0-.98-.977h0a.98.98,0,0,0-.977.982l0,1.034H59.754v-3.63H87.183v3.63Zm2.132-5.589H57.622a1.173,1.173,0,0,1-1.172-1.172l0-7.146,2.064,1.765a2.708,2.708,0,0,0,3.537,0l4.5-3.844a.758.758,0,0,1,.99,0l4.495,3.844a2.708,2.708,0,0,0,3.537,0l4.5-3.844a.759.759,0,0,1,.99,0l4.5,3.845a2.708,2.708,0,0,0,3.536,0l1.4-1.194v6.575a1.173,1.173,0,0,1-1.172,1.171Z" transform="translate(0 0)"/>
      </g>
    </g>
  </g>
</svg>
