<svg xmlns="http://www.w3.org/2000/svg" width="98" height="98" viewBox="0 0 98 98">
  <g id="Grupo_1196066" data-name="Grupo 1196066" transform="translate(-1221.754 -11109.951)">
    <g id="Grupo_1195282" data-name="Grupo 1195282" transform="translate(589.754 2564.57)">
      <g id="Grupo_1102209" data-name="Grupo 1102209" transform="translate(-19.771 1552.381)">
        <rect id="Rectángulo_403454" data-name="Rectángulo 403454" width="98" height="98" rx="18" transform="translate(651.771 6993)" fill="#fff"/>
      </g>
      <g id="lugar-de-trabajo_1_" data-name="lugar-de-trabajo (1)" transform="translate(638.246 8525.284)">
        <g id="Grupo_1195877" data-name="Grupo 1195877" transform="translate(1.276 32.868)">
          <g id="Grupo_1195876" data-name="Grupo 1195876">
            <path id="Trazado_1016663" data-name="Trazado 1016663" d="M101.42,42.7a.738.738,0,0,0-.732.847,5.186,5.186,0,0,1-4.882,4.772.734.734,0,0,0,0,1.469,5.176,5.176,0,0,1,4.882,4.767.74.74,0,1,0,1.464,0,5.177,5.177,0,0,1,4.882-4.767.734.734,0,0,0,0-1.469,5.187,5.187,0,0,1-4.882-4.772A.738.738,0,0,0,101.42,42.7Z" transform="translate(-80.201 -42.705)" fill="#c1c5cb" fill-rule="evenodd"/>
            <path id="Trazado_1016664" data-name="Trazado 1016664" d="M242.163,334.875a.742.742,0,0,0-.732.852,5.167,5.167,0,0,1-4.877,4.767.734.734,0,1,0,0,1.469,4.887,4.887,0,0,1,3.375,1.5,4.938,4.938,0,0,1,1.5,3.269.742.742,0,1,0,1.469,0,5.167,5.167,0,0,1,4.878-4.772.734.734,0,1,0,0-1.469,5.167,5.167,0,0,1-4.878-4.767A.748.748,0,0,0,242.163,334.875Z" transform="translate(-197.039 -285.249)" fill="#c1c5cb" fill-rule="evenodd"/>
            <path id="Trazado_1016665" data-name="Trazado 1016665" d="M370.308,275.2H349.729a1.328,1.328,0,0,0-1.319,1.319v31.065a1.325,1.325,0,0,0,1.319,1.319h20.578a1.321,1.321,0,0,0,1.319-1.319V276.524A1.324,1.324,0,0,0,370.308,275.2Z" transform="translate(-290.507 -235.714)" fill="#e0e8fc" fill-rule="evenodd"/>
            <path id="Trazado_1016667" data-name="Trazado 1016667" d="M304.3,202.834l3.274-.905,3.264.905,1.021,8.243-4.41,1.363-4.165-1.363Z" transform="translate(-253.045 -174.884)" fill="#d3cee5" fill-rule="evenodd"/>
            <path id="Trazado_1016668" data-name="Trazado 1016668" d="M8.831,262.383H90.61a1.324,1.324,0,0,0,1.319-1.319v-3.958a1.328,1.328,0,0,0-1.319-1.319H8.831a1.324,1.324,0,0,0-1.319,1.319v3.958a1.321,1.321,0,0,0,1.319,1.319Z" transform="translate(-7.512 -219.594)" fill="#bbc3dc" fill-rule="evenodd"/>
            <path id="Trazado_1016669" data-name="Trazado 1016669" d="M74.874,189.117H88.952a3.306,3.306,0,0,0,3.3-3.3V165.91a3.306,3.306,0,0,0-3.3-3.3H74.874a3.306,3.306,0,0,0-3.3,3.3v19.909A3.306,3.306,0,0,0,74.874,189.117Z" transform="translate(-60.695 -142.245)" fill="#2ed19b" fill-rule="evenodd"/>
            <path id="Trazado_1016671" data-name="Trazado 1016671" d="M74.113,352.62h15.6a2.544,2.544,0,0,1,2.537,2.537v1.916a1.322,1.322,0,0,1-1.319,1.319H72.9a1.321,1.321,0,0,1-1.319-1.319v-1.916A2.544,2.544,0,0,1,74.113,352.62Z" transform="translate(-60.695 -299.98)" fill="#2ed19b" fill-rule="evenodd"/>
            <path id="Trazado_1016672" data-name="Trazado 1016672" d="M236.173,89.817h29.182a1.321,1.321,0,0,1,1.319,1.319v17.309a1.321,1.321,0,0,1-1.319,1.319H236.173a1.321,1.321,0,0,1-1.319-1.319V91.136A1.321,1.321,0,0,1,236.173,89.817Z" transform="translate(-196.239 -81.815)" fill="#faf8f9" fill-rule="evenodd"/>
          </g>
          <path id="Trazado_1016674" data-name="Trazado 1016674" d="M371.627,359.618H348.41v-2.475h23.217v2.475Zm-23.217-12.61h23.217v2.475H348.41Z" transform="translate(-290.507 -295.321)" fill="#ce835d"/>
        </g>
        <path id="Trazado_1016675" data-name="Trazado 1016675" d="M39.313,87.573a6.174,6.174,0,0,0,5.816-5.816,1.273,1.273,0,0,1,2.547,0,6.163,6.163,0,0,0,5.816,5.816,1.273,1.273,0,0,1,0,2.547,6.2,6.2,0,0,0-5.821,5.72,1.273,1.273,0,1,1-2.537,0,6.206,6.206,0,0,0-5.821-5.72,1.273,1.273,0,1,1,0-2.547ZM29.582,37.947a1.273,1.273,0,1,1,0,2.547,6.164,6.164,0,0,0-5.812,5.816,1.276,1.276,0,0,1-2.552,0,5.789,5.789,0,0,0-1.8-4.02,5.813,5.813,0,0,0-4.02-1.8,1.273,1.273,0,0,1,0-2.547,5.819,5.819,0,0,0,4.02-1.8,5.811,5.811,0,0,0,1.8-4.016,1.276,1.276,0,1,1,2.552,0,6.174,6.174,0,0,0,5.812,5.816Zm39.476,64.321a1.274,1.274,0,1,1,0-2.547H72.52a1.274,1.274,0,0,1,0,2.547Zm0-10.135a1.274,1.274,0,1,1,0-2.547H72.52a1.274,1.274,0,0,1,0,2.547Zm0-10.135a1.273,1.273,0,1,1,0-2.547H72.52a1.273,1.273,0,0,1,0,2.547Zm-8.6,2.523H81.12V76.933H60.454ZM81.12,97.2H60.454v7.588H81.12Zm0-10.135H60.454v7.588H81.12ZM70.436,59.546V53.73a1.273,1.273,0,1,1,2.547,0v7.087a1.274,1.274,0,0,1-1.271,1.276h-11.2l.7,5.7H85.694a1.27,1.27,0,0,1,1.271,1.271v6.6a1.274,1.274,0,0,1-1.271,1.276H83.667v29.129a1.274,1.274,0,0,1-1.271,1.276H59.179a1.274,1.274,0,0,1-1.271-1.276V76.933H49.289a1.274,1.274,0,1,1,0-2.547H84.418V70.336H34.1v4.049h9.413a1.274,1.274,0,1,1,0,2.547H34.079a4.575,4.575,0,0,1-4.545,4.078H23.771v3.226h6.524A3.814,3.814,0,0,1,34.1,88.045v3.236a1.27,1.27,0,0,1-1.271,1.271H23.771v6.673l9.326,2.008A1.278,1.278,0,0,1,34.1,102.48v3.582a1.273,1.273,0,1,1-2.547,0v-2.557l-7.786-1.68v4.237a1.276,1.276,0,1,1-2.552,0v-4.237l-7.785,1.68v2.557a1.273,1.273,0,1,1-2.547,0V102.48a1.272,1.272,0,0,1,1.079-1.261l9.254-1.993V92.552H12.157a1.27,1.27,0,0,1-1.271-1.271V88.045a3.814,3.814,0,0,1,3.808-3.808h6.524V81.011H15.455a4.575,4.575,0,0,1-4.545-4.078H6.669v29.129a1.274,1.274,0,1,1-2.547,0V76.933H1.276A1.278,1.278,0,0,1,0,75.657v-6.6a1.274,1.274,0,0,1,1.276-1.271h9.61v-3a1.273,1.273,0,0,1,2.547,0V76.442a2.03,2.03,0,0,0,2.022,2.022h5.763V66.485a1.276,1.276,0,0,1,2.552,0V78.464h5.763a2.03,2.03,0,0,0,2.022-2.022V56.533a2.022,2.022,0,0,0-2.022-2.022H15.455a2.022,2.022,0,0,0-2.022,2.022v2.489a1.273,1.273,0,0,1-2.547,0V56.533a4.578,4.578,0,0,1,4.569-4.574H29.534A4.578,4.578,0,0,1,34.1,56.533V67.789H50.387l.7-5.7h-11.2a1.278,1.278,0,0,1-1.276-1.276V40.87a1.278,1.278,0,0,1,1.276-1.276H71.712a1.274,1.274,0,0,1,1.271,1.276v7.087a1.273,1.273,0,1,1-2.547,0V42.141H41.162V59.547H70.436ZM53.656,62.094l-.7,5.7h5.691l-.7-5.7ZM2.547,74.386h8.339V70.336H2.547Zm27.748,12.4h-15.6a1.266,1.266,0,0,0-1.261,1.261V90H31.556v-1.96a1.266,1.266,0,0,0-1.262-1.261ZM21.224,37.947a9.153,9.153,0,0,1-1.589,1.271,9.214,9.214,0,0,1,2.86,2.86,9.211,9.211,0,0,1,2.86-2.86,17.051,17.051,0,0,1-1.589-1.271l-1.271-1.589a16.569,16.569,0,0,1-1.271,1.589Zm23.91,49.631a9.147,9.147,0,0,1-1.589,1.271,9.133,9.133,0,0,1,1.589,1.271A8.991,8.991,0,0,1,46.4,91.709a8.806,8.806,0,0,1,1.271-1.589,9.158,9.158,0,0,1,1.589-1.271,9.154,9.154,0,0,1-1.589-1.271A9.389,9.389,0,0,1,46.4,85.989,9.368,9.368,0,0,1,45.134,87.578Z" transform="translate(0)"/>
      </g>
    </g>
  </g>
</svg>
