<svg xmlns="http://www.w3.org/2000/svg" width="107" height="107" viewBox="0 0 107 107">
  <g id="Grupo_1196054" data-name="Grupo 1196054" transform="translate(-1513.746 -15138.423)">
    <g id="Grupo_1196030" data-name="Grupo 1196030">
      <path id="Elipse_5845" data-name="Elipse 5845" d="M53.5,0A53.5,53.5,0,1,1,0,53.5,53.5,53.5,0,0,1,53.5,0Z" transform="translate(1513.746 15138.423)" fill="#c0f1e1"/>
      <g id="desventaja" transform="translate(1525.006 15191.016)">
        <g id="Grupo_1196029" data-name="Grupo 1196029" transform="translate(9.108 -36.688)">
          <g id="Grupo_1196023" data-name="Grupo 1196023" transform="translate(22.84 36.105)">
            <path id="Trazado_1017550" data-name="Trazado 1017550" d="M188.71,260.7l-8.32-9.8a.6.6,0,0,1,.461-1h3.875V222.94h8.89V249.9h3.875a.6.6,0,0,1,.461,1l-8.32,9.8A.6.6,0,0,1,188.71,260.7Z" transform="translate(-180.244 -222.94)" fill="#2ed19b" fill-rule="evenodd"/>
            <path id="Trazado_1017551" data-name="Trazado 1017551" d="M237.385,260.7l-.6-.71L244.5,250.9a.6.6,0,0,0-.461-1h2.127a.6.6,0,0,1,.461,1l-8.32,9.8A.6.6,0,0,1,237.385,260.7Zm2.778-37.76V249.9h2.127V222.939Z" transform="translate(-228.92 -222.939)" fill="#2ed19b" fill-rule="evenodd"/>
          </g>
          <g id="Grupo_1196024" data-name="Grupo 1196024" transform="translate(0 25.67)">
            <path id="Trazado_1017552" data-name="Trazado 1017552" d="M24.466,196.1l-8.32-9.8a.6.6,0,0,1,.461-1h3.875v-37.4h8.89v37.4h3.875a.6.6,0,0,1,.461,1l-8.32,9.8A.6.6,0,0,1,24.466,196.1Z" transform="translate(-16 -147.907)" fill="#bbc3dc" fill-rule="evenodd"/>
            <path id="Trazado_1017553" data-name="Trazado 1017553" d="M73.142,196.1l-.6-.71,7.717-9.089a.6.6,0,0,0-.461-1h2.127a.6.6,0,0,1,.461,1l-8.32,9.8A.6.6,0,0,1,73.142,196.1Zm2.778-48.194v37.4h2.127v-37.4Z" transform="translate(-64.677 -147.906)" fill="#bbc3dc" fill-rule="evenodd"/>
          </g>
          <g id="Grupo_1196025" data-name="Grupo 1196025" transform="translate(45.681 46.539)">
            <path id="Trazado_1017554" data-name="Trazado 1017554" d="M352.955,325.3l-8.32-9.8a.6.6,0,0,1,.461-1h3.875v-16.53h8.89V314.5h3.875a.6.6,0,0,1,.461,1l-8.32,9.8A.6.6,0,0,1,352.955,325.3Z" transform="translate(-344.49 -297.973)" fill="#1e3a8a" fill-rule="evenodd"/>
            <path id="Trazado_1017555" data-name="Trazado 1017555" d="M401.631,325.3l-.6-.71,7.717-9.089a.6.6,0,0,0-.461-1h2.127a.6.6,0,0,1,.461,1l-8.32,9.8A.6.6,0,0,1,401.631,325.3Zm2.778-27.325V314.5h2.127v-16.53Z" transform="translate(-393.166 -297.972)" fill="#1e3a8a" fill-rule="evenodd"/>
          </g>
          <g id="Grupo_1196026" data-name="Grupo 1196026" transform="translate(24 0)">
            <circle id="Elipse_13690" data-name="Elipse 13690" cx="17.706" cy="17.706" r="17.706" transform="translate(0 25.037) rotate(-45)" fill="#eceff1"/>
            <path id="Trazado_1017556" data-name="Trazado 1017556" d="M360.066,51.413a17.706,17.706,0,0,0,0-35.413q-.7,0-1.391.054a17.707,17.707,0,0,1,0,35.3q.688.053,1.391.054Z" transform="translate(-335.021 -8.673)" fill="#d1d1d6" fill-rule="evenodd"/>
          </g>
          <g id="Grupo_1196028" data-name="Grupo 1196028" transform="translate(36.494 14.291)">
            <path id="Trazado_1017557" data-name="Trazado 1017557" d="M411.567,93.453q-.013-12.878,0-12.858h4.28a.677.677,0,0,1,.676.676V92.778a.677.677,0,0,1-.676.676Z" transform="translate(-393.046 -78.577)" fill="#d1d1d6" fill-rule="evenodd"/>
            <path id="Trazado_1017558" data-name="Trazado 1017558" d="M416.533,81.271v0a.677.677,0,0,0-.676-.674h-4.284V93.453h.676V81.271h4.284Z" transform="translate(-393.057 -78.577)" fill="#b1b1b5" fill-rule="evenodd"/>
            <path id="Trazado_1017559" data-name="Trazado 1017559" d="M319.629,66.81c4.983-.858,7.881-1.485,10.777,1.289V80.957c-2.283,1.715-5.3,3.184-5.3,6.428v3.9a4.7,4.7,0,0,1-4.682-4.681V83.58a4.5,4.5,0,0,1,1.3-2.383C314.475,79.333,317.561,66.722,319.629,66.81Z" transform="translate(-311.785 -66.081)" fill="#f6dccd" fill-rule="evenodd"/>
            <path id="Trazado_1017560" data-name="Trazado 1017560" d="M358.145,74a8.165,8.165,0,0,1,1.137.918V87.771c-2.283,1.715-5.3,3.184-5.3,6.428v3.9a4.666,4.666,0,0,1-3.271-1.34,4.643,4.643,0,0,0,2.4.664v-3.9c0-3.244,3.015-4.713,5.3-6.428V74.237q-.132-.126-.263-.242Z" transform="translate(-340.66 -72.894)" fill="#f1cbbc" fill-rule="evenodd"/>
            <path id="Trazado_1017561" data-name="Trazado 1017561" d="M285.7,70.686h-3a1.86,1.86,0,1,0,0,3.72h-1.109a1.86,1.86,0,0,0,0,3.72h-1.305a1.86,1.86,0,1,0,0,3.72h.784a1.86,1.86,0,0,0,0,3.72H285.7a1.86,1.86,0,0,0,0-3.72h.784a1.86,1.86,0,1,0,0-3.72H285.7a1.86,1.86,0,1,0,0-3.72,1.86,1.86,0,0,0,0-3.72Z" transform="translate(-278.426 -70.046)" fill="#f6dccd" fill-rule="evenodd"/>
            <g id="Grupo_1196027" data-name="Grupo 1196027" transform="translate(0 0.64)">
              <path id="Trazado_1017562" data-name="Trazado 1017562" d="M300.654,70.686h-3a1.865,1.865,0,0,0-1.86,1.86h6.723A1.865,1.865,0,0,0,300.654,70.686Z" transform="translate(-293.376 -70.686)" fill="#f1cbbc" fill-rule="evenodd"/>
              <path id="Trazado_1017563" data-name="Trazado 1017563" d="M290.782,97.438h-1.109a1.866,1.866,0,0,0-1.86,1.86h7.833a1.866,1.866,0,0,0-1.86-1.86Z" transform="translate(-286.507 -93.718)" fill="#f1cbbc" fill-rule="evenodd"/>
              <path id="Trazado_1017564" data-name="Trazado 1017564" d="M281.59,124.19h-1.305a1.866,1.866,0,0,0-1.86,1.86h9.922a1.865,1.865,0,0,0-1.86-1.86h-4.9Z" transform="translate(-278.425 -116.75)" fill="#f1cbbc" fill-rule="evenodd"/>
              <path id="Trazado_1017565" data-name="Trazado 1017565" d="M285.921,150.942a1.866,1.866,0,0,0-1.86,1.86h8.354a1.865,1.865,0,0,0-1.86-1.86Z" transform="translate(-283.277 -139.781)" fill="#f1cbbc" fill-rule="evenodd"/>
            </g>
          </g>
        </g>
        <path id="Trazado_1017566" data-name="Trazado 1017566" d="M47.5,29.738a.757.757,0,0,1,.747-.748H52.88a.748.748,0,0,1,0,1.5H48.246A.757.757,0,0,1,47.5,29.738Zm-.784-3.72a.757.757,0,0,1,.748-.748h6.2a.748.748,0,1,1,0,1.5h-6.2A.757.757,0,0,1,46.715,26.018Zm2.054-4.468H52.88a.748.748,0,0,1,0,1.5H48.768a.757.757,0,0,1-.748-.748A.748.748,0,0,1,48.768,21.549Zm1.108-3.72h3a.747.747,0,0,1,0,1.495h-3a.747.747,0,0,1,0-1.495Zm13.133.758v11.8c-.2.142-.4.284-.606.431-2.152,1.517-4.59,3.236-4.59,6.561v2.613a3.572,3.572,0,0,1-2.457-3.39v-2.94a3.519,3.519,0,0,1,.973-1.685,1.112,1.112,0,0,0,.13-1.414,2.57,2.57,0,0,1-.53-2.061c.3-1.309,1.818-2.3,2.457-2.671A1.112,1.112,0,1,0,57.279,23.9a10.02,10.02,0,0,0-1.019.667,3.016,3.016,0,0,0-.753-.883,2.969,2.969,0,0,0-.31-3.25,2.953,2.953,0,0,0,.47-2.884c3.374-.557,5.357-.662,7.343,1.034Zm4.956,11.252H65.235V19.208h2.731ZM52.88,32.709a2.94,2.94,0,0,0,.444-.036,4.12,4.12,0,0,0-.183.75,1.2,1.2,0,0,0-.011.153V36.6a5.8,5.8,0,0,0,5.8,5.793,1.112,1.112,0,0,0,1.112-1.113v-3.9c0-2.171,1.689-3.363,3.648-4.743.264-.186.533-.378.8-.573h4.594a1.113,1.113,0,0,0,1.113-1.113V18.1a1.113,1.113,0,0,0-1.113-1.113H64.555c-3.068-2.7-6.133-2.169-10.689-1.379l-.372.065a2.979,2.979,0,0,0-.613-.064h-3a2.974,2.974,0,0,0-2.712,4.19,2.97,2.97,0,0,0-1.149,3.627,2.969,2.969,0,0,0-.4,4.926,2.974,2.974,0,0,0,2.627,4.363H52.88ZM63.715,74.473l-7.221-8.506H59.27a1.111,1.111,0,0,0,1.113-1.113V49.436h6.665V64.854a1.112,1.112,0,0,0,1.113,1.113h2.777Zm8.32-10.731H69.273V48.323a1.112,1.112,0,0,0-1.112-1.113H59.27a1.113,1.113,0,0,0-1.112,1.113V63.741H55.394a1.716,1.716,0,0,0-1.308,2.828l8.32,9.8a1.717,1.717,0,0,0,2.618,0l8.32-9.8a1.716,1.716,0,0,0-1.309-2.828ZM40.875,74.473l-7.222-8.506h2.775a1.112,1.112,0,0,0,1.113-1.113V39h6.282c.126.149.255.295.385.439V64.854a1.112,1.112,0,0,0,1.113,1.113H48.1ZM58.152,10.224A16.594,16.594,0,1,0,74.746,26.819,16.613,16.613,0,0,0,58.152,10.224ZM49.2,63.741H46.433V41.53a18.814,18.814,0,1,0-4.241-4.753H36.429a1.113,1.113,0,0,0-1.112,1.113V63.742H32.555a1.716,1.716,0,0,0-1.309,2.828l8.32,9.8a1.717,1.717,0,0,0,2.618,0l8.32-9.8A1.716,1.716,0,0,0,49.2,63.741ZM18.035,74.473l-7.223-8.506H13.59A1.112,1.112,0,0,0,14.7,64.854V28.568h6.665V64.854a1.112,1.112,0,0,0,1.113,1.113h2.777Zm8.32-10.731H23.592V27.456a1.112,1.112,0,0,0-1.113-1.113H13.59a1.111,1.111,0,0,0-1.113,1.113V63.742H9.714A1.717,1.717,0,0,0,8.405,66.57l8.32,9.8a1.719,1.719,0,0,0,2.618,0v0l8.32-9.8a1.717,1.717,0,0,0-1.308-2.828Z" transform="translate(0 -38.473)" fill-rule="evenodd"/>
      </g>
    </g>
  </g>
</svg>
