<svg xmlns="http://www.w3.org/2000/svg" width="98" height="98" viewBox="0 0 98 98">
  <g id="Grupo_1196068" data-name="Grupo 1196068" transform="translate(-946 -11557.951)">
    <g id="Grupo_1195285" data-name="Grupo 1195285" transform="translate(314 3012.57)">
      <g id="Grupo_1102209" data-name="Grupo 1102209" transform="translate(-19.771 1552.381)">
        <rect id="Rectángulo_403454" data-name="Rectángulo 403454" width="98" height="98" rx="18" transform="translate(651.771 6993)" fill="#fff"/>
      </g>
      <g id="modista" transform="translate(646.711 8556.869)">
        <g id="Grupo_1195874" data-name="Grupo 1195874" transform="translate(1.203 1.203)">
          <g id="Grupo_1195855" data-name="Grupo 1195855" transform="translate(48.103 19.241)">
            <path id="Trazado_1016641" data-name="Trazado 1016641" d="M48.216,37.3a6.721,6.721,0,0,0-.71-.132L45.63,36.9l-3.6-.517A1.2,1.2,0,0,1,41,35.2V33.379a1.206,1.206,0,0,1,.661-1.082A11.824,11.824,0,0,0,48.216,21.7V20.608h1.2A3.613,3.613,0,0,0,53.026,17v1.611a15.809,15.809,0,0,0,3.752,9.813,4.79,4.79,0,0,1-2.562,7.648c0,.06.012.108.012.168a4.776,4.776,0,0,1-1.215,3.2,11.9,11.9,0,0,0-4.8-2.141Z" transform="translate(-41 -17)" fill="#656d78"/>
          </g>
          <g id="Grupo_1195856" data-name="Grupo 1195856" transform="translate(26.457)">
            <path id="Trazado_1016642" data-name="Trazado 1016642" d="M23,20.241v-4.81A14.427,14.427,0,0,1,37.431,1h4.81A14.427,14.427,0,0,1,56.672,15.431v4.81a3.6,3.6,0,0,0-3.608-3.608H47.136a20.6,20.6,0,0,1-11.184-3.307,12.005,12.005,0,0,1-2.008,1.563,11.633,11.633,0,0,1-6.133,1.744h-1.2A3.613,3.613,0,0,0,23,20.241Z" transform="translate(-23 -1)" fill="#656d78"/>
          </g>
          <g id="Grupo_1195857" data-name="Grupo 1195857" transform="translate(24.052 19.241)">
            <path id="Trazado_1016643" data-name="Trazado 1016643" d="M23.405,33.836v-4.81H21.637V25.418a14.6,14.6,0,0,0,1.768-6.807V17a3.6,3.6,0,0,0,3.608,3.608h1.2V21.7A11.824,11.824,0,0,0,34.77,32.3a1.206,1.206,0,0,1,.661,1.082V35.2A1.2,1.2,0,0,1,34.4,36.386l-3.776.541-1.7.241a12.1,12.1,0,0,0-7.264,3.884H21V33.836Z" transform="translate(-21 -17)" fill="#656d78"/>
          </g>
          <g id="Grupo_1195858" data-name="Grupo 1195858" transform="translate(55.319 39.541)">
            <path id="Trazado_1016644" data-name="Trazado 1016644" d="M56.621,45.653v1.6H47V33.88a11.9,11.9,0,0,1,4.8,2.141A12.05,12.05,0,0,1,56.621,45.653Z" transform="translate(-47 -33.88)" fill="#2ed19b"/>
          </g>
          <g id="Grupo_1195859" data-name="Grupo 1195859" transform="translate(19.241 39.144)">
            <path id="Trazado_1016645" data-name="Trazado 1016645" d="M41.052,41.307a9.616,9.616,0,0,0,9.44-7.757l1.876.265a6.721,6.721,0,0,1,.71.132v25.4a1.171,1.171,0,0,0,.024.289H53.09l-.577.433a2.367,2.367,0,0,1-1.443.481h-.6a2.413,2.413,0,0,1-1.708-.71l-2.489-2.489a9.6,9.6,0,0,0-6.795-2.814H30.012a3.569,3.569,0,0,0-3.391-2.405H24.216a3.6,3.6,0,0,0-3.608,3.608v1.154A6.289,6.289,0,0,1,23.29,44.914h6.939a2.412,2.412,0,0,0,2.405,2.405h4.81a2.412,2.412,0,0,0,2.405-2.405V41.259c.337.024.673.048,1.022.048Z" transform="translate(-17 -33.55)" fill="#2ed19b"/>
          </g>
          <g id="Grupo_1195860" data-name="Grupo 1195860" transform="translate(24.713 39.168)">
            <path id="Trazado_1016646" data-name="Trazado 1016646" d="M32.409,37.659v.036H21.55a12.1,12.1,0,0,1,7.264-3.884l1.7-.241A9.556,9.556,0,0,0,32.409,37.659Z" transform="translate(-21.55 -33.57)" fill="#2ed19b"/>
          </g>
          <g id="Grupo_1195861" data-name="Grupo 1195861" transform="translate(2.405 48.103)">
            <path id="Trazado_1016647" data-name="Trazado 1016647" d="M3,41H7.81v4.81H3Z" transform="translate(-3 -41)" fill="#aab2bd"/>
          </g>
          <g id="Grupo_1195862" data-name="Grupo 1195862" transform="translate(21.647 31.267)">
            <path id="Trazado_1016648" data-name="Trazado 1016648" d="M23.81,27v4.81H19V27h4.81Z" transform="translate(-19 -27)" fill="#1e3a8a"/>
          </g>
          <g id="Grupo_1195863" data-name="Grupo 1195863" transform="translate(12.026 38.483)">
            <path id="Trazado_1016649" data-name="Trazado 1016649" d="M15.81,33v4.81H11V33h4.81Z" transform="translate(-11 -33)" fill="#1e3a8a"/>
          </g>
          <g id="Grupo_1195864" data-name="Grupo 1195864" transform="translate(55.319 52.914)">
            <path id="Trazado_1016650" data-name="Trazado 1016650" d="M54.216,45v7.432a3.334,3.334,0,0,0-1.2-.216H50.608A3.6,3.6,0,0,0,47,55.823V45Z" transform="translate(-47 -45)" fill="#f0d0b4"/>
          </g>
          <g id="Grupo_1195865" data-name="Grupo 1195865" transform="translate(25.254 60.129)">
            <path id="Trazado_1016651" data-name="Trazado 1016651" d="M29.011,51h9.452a9.6,9.6,0,0,1,6.795,2.814L47.747,56.3a2.413,2.413,0,0,0,1.708.71h.6a2.367,2.367,0,0,0,1.443-.481l.577-.433h.012a2.4,2.4,0,0,0,2.381,2.117h4.81A2.429,2.429,0,0,0,61.5,56.736l1.371.782a2.4,2.4,0,0,1,1.215,2.093v1.01a2.412,2.412,0,0,1-2.405,2.405H46.34a3.625,3.625,0,0,1-2.549-1.058l-1.275-1.275a3.609,3.609,0,0,0-3.055-1.022l-5.448.782a3.612,3.612,0,0,0-2.044,1.022l-.842.842a2.413,2.413,0,0,1-1.708.71H24.405A2.412,2.412,0,0,1,22,60.621V55.81h4.81a2.412,2.412,0,0,0,2.405-2.405V52.2A3.333,3.333,0,0,0,29,51Z" transform="translate(-22 -51)" fill="#1e3a8a"/>
          </g>
          <g id="Grupo_1195866" data-name="Grupo 1195866" transform="translate(7.216 43.293)">
            <path id="Trazado_1016652" data-name="Trazado 1016652" d="M25.039,63.457a2.412,2.412,0,0,0,2.405,2.405H7A7.216,7.216,0,1,0,7,51.431V41.81A4.809,4.809,0,0,1,11.81,37H39.47a2.412,2.412,0,0,1,2.405,2.405v4.81a2.412,2.412,0,0,1-2.405,2.405h-4.81a2.412,2.412,0,0,1-2.405-2.405H25.315a6.289,6.289,0,0,0-2.682,11.978v.048a2.412,2.412,0,0,0,2.405,2.405Z" transform="translate(-7 -37)" fill="#ccd1d9"/>
          </g>
          <g id="Grupo_1195867" data-name="Grupo 1195867" transform="translate(55.319 15.634)">
            <path id="Trazado_1016653" data-name="Trazado 1016653" d="M48.2,14a3.608,3.608,0,0,1,0,7.216H47V14Z" transform="translate(-47 -14)" fill="#f0d0b4"/>
          </g>
          <g id="Grupo_1195868" data-name="Grupo 1195868" transform="translate(26.457 15.634)">
            <path id="Trazado_1016654" data-name="Trazado 1016654" d="M27.81,14v7.216h-1.2a3.608,3.608,0,0,1,0-7.216Z" transform="translate(-23 -14)" fill="#f0d0b4"/>
          </g>
          <g id="Grupo_1195869" data-name="Grupo 1195869" transform="translate(31.267 12.327)">
            <path id="Trazado_1016655" data-name="Trazado 1016655" d="M48.466,38.068a9.616,9.616,0,0,1-9.44,7.757h-.18c-.349,0-.685-.024-1.022-.048V44.622a2.412,2.412,0,0,0-2.405-2.405H31.305v-.036a9.556,9.556,0,0,1-1.9-4.089l3.776-.541a1.2,1.2,0,0,0,1.034-1.191V34.544a1.206,1.206,0,0,0-.661-1.082A11.824,11.824,0,0,1,27,22.867v-8.31a11.633,11.633,0,0,0,6.133-1.744,12.005,12.005,0,0,0,2.008-1.563,20.6,20.6,0,0,0,11.184,3.307h4.726v8.31A11.824,11.824,0,0,1,44.5,33.462a1.206,1.206,0,0,0-.661,1.082V36.36a1.2,1.2,0,0,0,1.034,1.191Z" transform="translate(-27 -11.25)" fill="#f0d0b4"/>
          </g>
          <g id="Grupo_1195870" data-name="Grupo 1195870" transform="translate(55.319 60.129)">
            <path id="Trazado_1016656" data-name="Trazado 1016656" d="M56.621,55.81a2.4,2.4,0,0,1-.18.926,2.429,2.429,0,0,1-2.225,1.479h-4.81A2.4,2.4,0,0,1,47.024,56.1,1.171,1.171,0,0,1,47,55.81v-1.2A3.6,3.6,0,0,1,50.608,51h2.405a3.334,3.334,0,0,1,1.2.216,3.569,3.569,0,0,1,2.405,3.391Z" transform="translate(-47 -51)" fill="#f0d0b4"/>
          </g>
          <g id="Grupo_1195871" data-name="Grupo 1195871" transform="translate(22.849 57.724)">
            <path id="Trazado_1016657" data-name="Trazado 1016657" d="M24.81,56.216H22.405A2.412,2.412,0,0,1,20,53.81v-1.2A3.6,3.6,0,0,1,23.608,49h2.405A3.569,3.569,0,0,1,29.4,51.405a3.333,3.333,0,0,1,.216,1.2v1.2a2.412,2.412,0,0,1-2.405,2.405Z" transform="translate(-20 -49)" fill="#f0d0b4"/>
          </g>
          <g id="Grupo_1195872" data-name="Grupo 1195872" transform="translate(0 57.724)">
            <path id="Trazado_1016658" data-name="Trazado 1016658" d="M8.216,49A7.216,7.216,0,1,1,1,56.216,7.221,7.221,0,0,1,8.216,49Z" transform="translate(-1 -49)" fill="#fcd770"/>
          </g>
          <g id="Grupo_1195873" data-name="Grupo 1195873" transform="translate(4.81 62.534)">
            <circle id="Elipse_13678" data-name="Elipse 13678" cx="2.5" cy="2.5" r="2.5" transform="translate(-0.013 -0.177)" fill="#ffeaa7"/>
          </g>
        </g>
        <g id="Grupo_1195875" data-name="Grupo 1195875" transform="translate(0 0)">
          <path id="Trazado_1016659" data-name="Trazado 1016659" d="M7.608,52a3.608,3.608,0,1,0,3.608,3.608A3.612,3.612,0,0,0,7.608,52Zm0,4.81a1.2,1.2,0,1,1,1.2-1.2A1.2,1.2,0,0,1,7.608,56.81Z" transform="translate(0.81 10.534)"/>
          <path id="Trazado_1016660" data-name="Trazado 1016660" d="M67.932,66.811l-.619-.354c.01-.106.032-.207.032-.315v-1.2A4.8,4.8,0,0,0,64.94,60.8V55.319h2.405v-2.8a13.239,13.239,0,0,0-4.428-9.834,6,6,0,0,0,.779-2.3,6,6,0,0,0,2.327-9.274,14.559,14.559,0,0,1-3.489-9.057V15.634A15.652,15.652,0,0,0,46.9,0h-4.81A15.652,15.652,0,0,0,26.457,15.634v6.423A13.3,13.3,0,0,1,24.829,28.3l2.129,1.123a16.312,16.312,0,0,0,1.681-4.961,4.781,4.781,0,0,0,2.629.79h.007a12.977,12.977,0,0,0,7.208,11.566v1.822l-3.554.507L28.862,34.3V31.267H21.647v7.216h2.405v4.81h-4.81v-4.81H16.836v-4.81H14.431v4.81H12.026v4.932A6.032,6.032,0,0,0,7.337,48.1H2.405v7.216h4.81v2.5a8.413,8.413,0,0,0,1.2,16.74H33.879A3.586,3.586,0,0,0,36.43,73.5l.85-.85a2.414,2.414,0,0,1,1.361-.679l5.441-.777a2.414,2.414,0,0,1,2.041.679L47.4,73.152a4.843,4.843,0,0,0,3.4,1.408H66.142a3.612,3.612,0,0,0,3.608-3.608V69.944a3.617,3.617,0,0,0-1.818-3.133Zm-7.8-1.871v2.405h-1.2a1.2,1.2,0,0,1-1.2-1.2v-1.2a2.408,2.408,0,0,1,2.405-2.405h2.405A2.408,2.408,0,0,1,64.94,64.94v1.2a1.2,1.2,0,0,1-1.2,1.2h-1.2V64.94Zm-4.81.9-.081.06a1.21,1.21,0,0,1-.722.241H53.91a1.207,1.207,0,0,1-.85-.352L50.569,63.3a10.751,10.751,0,0,0-7.652-3.169h-8.71a4.8,4.8,0,0,0-4.142-2.405H27.659a4.809,4.809,0,0,0-4.67,3.7,5.074,5.074,0,0,1,3.742-8.513h5.944a3.612,3.612,0,0,0,3.4,2.405h1.2v2.405h2.405V55.319h1.2A3.612,3.612,0,0,0,44.5,51.711V49.306A10.84,10.84,0,0,0,54.828,41.69l.491.07V65.84ZM27.659,62.534V64.94h-1.2a1.2,1.2,0,0,1-1.2-1.2v-1.2a2.408,2.408,0,0,1,2.405-2.405h2.405a2.408,2.408,0,0,1,2.405,2.405v1.2a1.2,1.2,0,0,1-1.2,1.2h-1.2V62.534Zm34.875-2.405H60.129a4.761,4.761,0,0,0-2.405.669V55.319h4.81Zm2.405-7.609v.393H57.724V42.326A10.884,10.884,0,0,1,64.94,52.521Zm-.793-19.9a3.594,3.594,0,0,1-1.927,5.738l-.926.236.02.955a.449.449,0,0,0,.016.14,0,0,0,0,0,0,0,3.591,3.591,0,0,1-.364,1.548,13.089,13.089,0,0,0-4.98-1.809l-5.479-.782V36.821a12.979,12.979,0,0,0,7.208-11.566h.007a4.774,4.774,0,0,0,2.619-.785,17.761,17.761,0,0,0,3.8,8.15ZM60.129,20.444a2.408,2.408,0,0,1-2.405,2.405v-4.81A2.408,2.408,0,0,1,60.129,20.444Zm-31.267,0a2.408,2.408,0,0,1,2.405-2.405v4.81A2.408,2.408,0,0,1,28.862,20.444Zm2.405-4.81a4.761,4.761,0,0,0-2.405.669v-.669A13.244,13.244,0,0,1,42.091,2.405H46.9A13.244,13.244,0,0,1,60.129,15.634V16.3a4.761,4.761,0,0,0-2.405-.669H57.6a6.024,6.024,0,0,0-5.891-4.81h-1.2v2.405h1.2A3.6,3.6,0,0,1,55.1,15.634H51.8a19.279,19.279,0,0,1-9.32-2.4,13.008,13.008,0,0,0,1.512-2.319l.38-.761L42.218,9.083l-.38.761a10.418,10.418,0,0,1-9.368,5.789Zm7.556,25.39a2.417,2.417,0,0,0,2.065-2.381V36.817a2.4,2.4,0,0,0-1.329-2.148,10.589,10.589,0,0,1-5.887-9.521V17.983a12.771,12.771,0,0,0,7.084-2.973A21.674,21.674,0,0,0,51.8,18.039h3.522v7.108a10.589,10.589,0,0,1-5.888,9.522A2.394,2.394,0,0,0,48.1,36.82v1.822a2.416,2.416,0,0,0,2.065,2.381l2.231.319a8.424,8.424,0,0,1-7.9,5.56,3.612,3.612,0,0,0-3.608-3.608h-.779l-2.6-2.08Zm-4.584.655,2.018,1.614H29.238a10.824,10.824,0,0,1,4.107-1.486ZM24.052,33.672h2.405v2.405H24.052Zm4.81,4.81V37.378l2.872,2.3a13.249,13.249,0,0,0-5.277,2.654V38.483ZM16.836,40.888v2.405H14.431V40.888ZM4.81,52.914V50.509H7.216v2.405ZM2.405,66.142a6.013,6.013,0,1,1,6.013,6.013A6.02,6.02,0,0,1,2.405,66.142Zm14.431,0A8.425,8.425,0,0,0,9.621,57.82V49.306A3.612,3.612,0,0,1,13.228,45.7H40.888a1.2,1.2,0,0,1,1.2,1.2v4.81a1.2,1.2,0,0,1-1.2,1.2h-4.81a1.2,1.2,0,0,1-1.2-1.2v-1.2H26.732a7.479,7.479,0,0,0-3.813,13.92,3.606,3.606,0,0,0,2.335,2.694v3.829a3.567,3.567,0,0,0,.221,1.2H14.3a8.386,8.386,0,0,0,2.539-6.013Zm50.509,4.81a1.2,1.2,0,0,1-1.2,1.2H50.8a2.423,2.423,0,0,1-1.7-.7l-1.276-1.276a4.844,4.844,0,0,0-4.083-1.361L38.3,69.59a4.842,4.842,0,0,0-2.721,1.361l-.85.85a1.2,1.2,0,0,1-.849.354H28.862a1.2,1.2,0,0,1-1.2-1.2V67.345h3.608a3.612,3.612,0,0,0,3.608-3.608v-1.2h8.042A8.363,8.363,0,0,1,48.868,65l2.491,2.491a3.581,3.581,0,0,0,2.551,1.057h.607a3.626,3.626,0,0,0,1.471-.326,3.6,3.6,0,0,0,2.939,1.528h4.81a3.591,3.591,0,0,0,2.578-1.093l.423.242a1.207,1.207,0,0,1,.606,1.045Z" transform="translate(0 0)"/>
          <ellipse id="Elipse_13679" data-name="Elipse 13679" cx="1.5" cy="1" rx="1.5" ry="1" transform="translate(49 19.56)"/>
          <ellipse id="Elipse_13680" data-name="Elipse 13680" cx="1.5" cy="1" rx="1.5" ry="1" transform="translate(37 19.56)"/>
          <path id="Trazado_1016661" data-name="Trazado 1016661" d="M36.628,24.089l1.329-.665A2.407,2.407,0,0,0,39.033,20.2L38.5,19.121V17H36.091v2.405a1.205,1.205,0,0,0,.126.538l.665,1.329-1.329.665Z" transform="translate(7.203 3.444)"/>
          <path id="Trazado_1016662" data-name="Trazado 1016662" d="M43.084,25.7,41,24.5a3.611,3.611,0,0,1-6.253,0l-2.08,1.2a6.013,6.013,0,0,0,10.414,0Z" transform="translate(6.618 4.963)"/>
        </g>
      </g>
    </g>
  </g>
</svg>
