<svg xmlns="http://www.w3.org/2000/svg" width="141.688" height="141.688" viewBox="0 0 141.688 141.688">
  <g id="Grupo_1196045" data-name="Grupo 1196045" transform="translate(-394 -2017.969)">
    <g id="Grupo_1193000" data-name="Grupo 1193000" transform="translate(19.254 -4491.27)">
      <g id="Grupo_1177320" data-name="Grupo 1177320" transform="translate(-1.98 -1379.43)">
        <g id="Grupo_1177319" data-name="Grupo 1177319" transform="translate(-327.941 1733.668)">
          <rect id="Rectángulo_402033" data-name="Rectángulo 402033" width="141.688" height="141.688" rx="5" transform="translate(704.668 6155)" fill="#104936"/>
        </g>
      </g>
      <g id="exitoso" transform="translate(392.054 6528.236)">
        <path id="Trazado_1016027" data-name="Trazado 1016027" d="M33.983,45.761a17.282,17.282,0,0,0,7.9,10.96l-1.237,6.27L15.842,69.228A4.707,4.707,0,0,0,12.6,71.994L6.359,87.043a4.741,4.741,0,0,0,4.364,6.545H90.605a4.741,4.741,0,0,0,4.364-6.545L88.733,71.994a4.707,4.707,0,0,0-3.23-2.766L60.679,62.992l-1.237-6.27a17.282,17.282,0,0,0,7.9-10.96,4.329,4.329,0,0,0,2.216-3.711V40.333A4.312,4.312,0,0,0,67.843,36.9V35.179a17.179,17.179,0,1,0-34.358,0V36.9a4.312,4.312,0,0,0-1.718,3.436v1.718a4.329,4.329,0,0,0,2.216,3.711Zm7.353,21.457L47.5,83.727,36.079,71.444Zm8.933,5.755h.79l1.323,4.81L50.664,82.37,48.946,77.8Zm5.549,5.5v-.137l4.175-11.115,5.257,4.226L53.825,83.727Zm1.718-14.224-3.006,8.005-.223-.825,1.426-2.835a1.873,1.873,0,0,0,0-1.546l-.962-1.89,2.68-1.34ZM52.159,67.82l-.842,1.718H50.011l-.842-1.718.842-1.718h1.306Zm-6.459.773,1.426,2.852-.223.842L43.9,64.246l.086-.429,2.68,1.34-.962,1.89a1.873,1.873,0,0,0,0,1.546ZM9.623,89.585a1.306,1.306,0,0,1-.086-1.151l6.236-15.049a1.306,1.306,0,0,1,.893-.739L34.928,68.06,32.488,70a1.71,1.71,0,0,0-.172,2.508L48.774,90.152H10.723a1.271,1.271,0,0,1-1.065-.567ZM85.52,73.3l6.27,15.135a1.306,1.306,0,0,1-.12,1.237,1.271,1.271,0,0,1-1.065.567H52.554L69.011,72.509A1.71,1.71,0,0,0,68.84,70L66.4,68.06l18.279,4.5a1.306,1.306,0,0,1,.876.739ZM56.642,60.312,51.97,62.666H49.358l-4.673-2.354.4-2.062a16.406,16.406,0,0,0,11.166,0Zm9.483-18.261a.842.842,0,0,1-.636.825,1.718,1.718,0,0,0-1.271,1.392,13.64,13.64,0,0,1-26.937,0,1.718,1.718,0,0,0-1.271-1.392.842.842,0,0,1-.636-.825V40.333a.876.876,0,0,1,.567-.807,1.718,1.718,0,0,0,1.134-1.615v-.4a16.939,16.939,0,0,0,5.978,1.1,15.2,15.2,0,0,0,12.541-5.944,9.174,9.174,0,0,0,8.469-.533,13.64,13.64,0,0,1,.344,3.041v2.731a1.718,1.718,0,0,0,1.134,1.615.876.876,0,0,1,.584.807Zm-29-8.59h.722A14.723,14.723,0,0,0,51.3,26.005a10.565,10.565,0,0,0,1.082-3.986l.464.6a6.872,6.872,0,0,1,.533,7.009c-1.615,3.316-5.789,5.549-10.307,5.549A12.936,12.936,0,0,1,37.178,33.8Q37.144,33.634,37.127,33.461Zm25.563-4.673a5.618,5.618,0,0,1-3.436,1.237,5.807,5.807,0,0,1-2.182-.429,9.9,9.9,0,0,0,.464-3.006,10.307,10.307,0,0,0-.7-3.676A13.743,13.743,0,0,1,62.689,28.788ZM48.946,21.556a6.6,6.6,0,0,1-.722,2.92c-1.615,3.281-5.7,5.549-10.222,5.549A13.743,13.743,0,0,1,48.946,21.556Z" transform="translate(2.872 11.49)" fill="#c0f1e1"/>
        <path id="Trazado_1016028" data-name="Trazado 1016028" d="M30.032,17.465l-1.065,6.6a1.725,1.725,0,0,0,2.525,1.821l5.532-3.109,5.532,3.075a1.838,1.838,0,0,0,.842.206,1.715,1.715,0,0,0,1.684-2.027l-1.065-6.562,4.552-4.673a1.717,1.717,0,0,0-.979-2.886L41.371,8.876,38.588,3a1.718,1.718,0,0,0-3.127,0L32.678,8.876l-6.219.945a1.717,1.717,0,0,0-.979,2.886ZM34.1,12.208a1.718,1.718,0,0,0,1.288-.962L37.024,7.81l1.718,3.436a1.718,1.718,0,0,0,1.288.962l3.831.584-2.92,2.955a1.718,1.718,0,0,0-.464,1.477l.653,3.968-3.281-1.8a1.718,1.718,0,0,0-1.718,0l-3.281,1.8.739-4.037a1.718,1.718,0,0,0-.464-1.477l-2.852-2.886Z" transform="translate(16.512)" fill="#c0f1e1"/>
        <path id="Trazado_1016029" data-name="Trazado 1016029" d="M53.032,25.494l-1.065,6.6a1.725,1.725,0,0,0,2.525,1.821L60.024,30.8l5.532,3.075a1.838,1.838,0,0,0,.842.206,1.715,1.715,0,0,0,1.684-2.027l-1.065-6.562,4.552-4.673a1.717,1.717,0,0,0-.979-2.886L64.371,16.9,61.588,10.96a1.718,1.718,0,0,0-3.127,0L55.678,16.9l-6.219.945a1.717,1.717,0,0,0-.979,2.886ZM57.1,20.237a1.718,1.718,0,0,0,1.288-.962l1.718-3.436,1.718,3.436a1.718,1.718,0,0,0,1.288.962l3.831.584-3.006,2.955a1.718,1.718,0,0,0-.464,1.477l.653,3.968-3.281-1.8a1.718,1.718,0,0,0-1.718,0l-3.281,1.8.739-4.037a1.718,1.718,0,0,0-.464-1.477L53.29,20.821Z" transform="translate(33.024 5.715)" fill="#c0f1e1"/>
        <path id="Trazado_1016030" data-name="Trazado 1016030" d="M7.032,25.465l-1.065,6.6a1.725,1.725,0,0,0,2.525,1.821l5.532-3.109,5.532,3.075a1.838,1.838,0,0,0,.842.206,1.715,1.715,0,0,0,1.684-2.027l-1.065-6.562,4.552-4.673a1.717,1.717,0,0,0-.979-2.886l-6.219-1.031L15.588,11a1.718,1.718,0,0,0-3.127,0L9.678,16.876l-6.219.945a1.717,1.717,0,0,0-.979,2.886ZM11.1,20.208a1.718,1.718,0,0,0,1.288-.962l1.632-3.436,1.632,3.436a1.718,1.718,0,0,0,1.288.962l3.831.584-2.835,2.955a1.718,1.718,0,0,0-.464,1.477l.653,3.968L14.849,27.32a1.718,1.718,0,0,0-1.718,0l-3.212,1.8.67-3.968a1.718,1.718,0,0,0-.481-1.409L7.273,20.792Z" transform="translate(0 5.743)" fill="#c0f1e1"/>
        <path id="Trazado_1016031" data-name="Trazado 1016031" d="M7.032,46.465l-1.065,6.6a1.725,1.725,0,0,0,2.525,1.821l5.532-3.109,5.532,3.075a1.838,1.838,0,0,0,.842.206,1.715,1.715,0,0,0,1.684-2.027l-1.065-6.562,4.552-4.673a1.717,1.717,0,0,0-.979-2.886l-6.219-1.031L15.588,32a1.718,1.718,0,0,0-3.127,0L9.678,37.876l-6.219.945a1.717,1.717,0,0,0-.979,2.886ZM11.1,41.208a1.718,1.718,0,0,0,1.288-.962l1.632-3.436,1.632,3.436a1.718,1.718,0,0,0,1.288.962l3.831.584-2.835,2.955a1.718,1.718,0,0,0-.464,1.477l.653,3.968L14.849,48.32a1.718,1.718,0,0,0-1.718,0l-3.212,1.8.67-3.968a1.718,1.718,0,0,0-.481-1.409L7.273,41.792Z" transform="translate(0 20.82)" fill="#c0f1e1"/>
        <path id="Trazado_1016032" data-name="Trazado 1016032" d="M53.032,46.494l-1.065,6.6a1.725,1.725,0,0,0,2.525,1.821L60.024,51.8l5.532,3.075a1.838,1.838,0,0,0,.842.206,1.715,1.715,0,0,0,1.684-2.027l-1.065-6.562,4.552-4.673a1.717,1.717,0,0,0-.979-2.886L64.371,37.9,61.588,31.96a1.718,1.718,0,0,0-3.127,0L55.678,37.9l-6.219.945a1.717,1.717,0,0,0-.979,2.886ZM57.1,41.237a1.718,1.718,0,0,0,1.288-.962l1.718-3.436,1.718,3.436a1.718,1.718,0,0,0,1.288.962l3.831.584-3.006,2.955a1.718,1.718,0,0,0-.464,1.477l.653,3.968-3.281-1.8a1.718,1.718,0,0,0-1.718,0l-3.281,1.8.739-4.037a1.718,1.718,0,0,0-.464-1.477L53.29,41.821Z" transform="translate(33.024 20.791)" fill="#c0f1e1"/>
      </g>
    </g>
  </g>
</svg>
