<svg xmlns="http://www.w3.org/2000/svg" xmlns:xlink="http://www.w3.org/1999/xlink" width="396" height="415.705" viewBox="0 0 396 415.705">
  <defs>
    <clipPath id="clip-path">
      <rect id="Rectángulo_462350" data-name="Rectángulo 462350" width="356.973" height="363.625" fill="none"/>
    </clipPath>
    <clipPath id="clip-path-3">
      <rect id="Rectángulo_462344" data-name="Rectángulo 462344" width="38.988" height="21.602" transform="translate(291.44 215.119)" fill="none"/>
    </clipPath>
    <clipPath id="clip-path-4">
      <rect id="Rectángulo_462345" data-name="Rectángulo 462345" width="12.009" height="12.007" transform="translate(314.929 114.391)" fill="none"/>
    </clipPath>
    <clipPath id="clip-path-5">
      <rect id="Rectángulo_462347" data-name="Rectángulo 462347" width="100.803" height="100.806" transform="translate(92.239 96.605)" fill="none"/>
    </clipPath>
    <clipPath id="clip-path-6">
      <rect id="Rectángulo_462348" data-name="Rectángulo 462348" width="21.869" height="21.867" transform="translate(108.124 140.109)" fill="none"/>
    </clipPath>
  </defs>
  <g id="Grupo_1196038" data-name="Grupo 1196038" transform="translate(-186 -1915.236)">
    <g id="Grupo_1195938" data-name="Grupo 1195938">
      <path id="Trazado_1016927" data-name="Trazado 1016927" d="M427.259,459.789c25.036-5.306,86.419-189.959-9.43-289.683-29.665-30.864-58.272-12.065-90.1-59.793-24.193-36.273-42.49-59.451-73.459-63.207-37.3-4.523-91.4,1.639-106.271,61.917C141.2,136.569,137.907,160.337,137.711,189c-.5,73.245-35.587,79.6-44.421,128.634-14.2,78.812,17.228,140.666,36.675,142.1,18.162,1.342,278.1,3.481,297.295.052" transform="translate(96.283 1869.304)" fill="#e0e8fc"/>
      <g id="Grupo_1195937" data-name="Grupo 1195937" transform="translate(225.027 1967.316)">
        <g id="Grupo_1195936" data-name="Grupo 1195936" clip-path="url(#clip-path)">
          <rect id="Rectángulo_462335" data-name="Rectángulo 462335" width="92.231" height="24.953" transform="translate(72.512 27.099)" fill="#141413"/>
          <path id="Trazado_1016928" data-name="Trazado 1016928" d="M9.656,39.9,0,48.036V363.625H221.828l9.32-6.8V39.9Z" fill="#0c7a93"/>
          <rect id="Rectángulo_462336" data-name="Rectángulo 462336" width="221.492" height="316.922" transform="translate(9.656 39.898)" fill="#5aa4ab"/>
          <rect id="Rectángulo_462337" data-name="Rectángulo 462337" width="194.91" height="267.118" transform="matrix(1, -0.004, 0.004, 1, 23.536, 65.32)" fill="#f7f9f8"/>
          <rect id="Rectángulo_462338" data-name="Rectángulo 462338" width="221.382" height="317.74" transform="translate(9.656 39.08)" fill="#30afd8"/>
          <g id="Grupo_1195935" data-name="Grupo 1195935">
            <g id="Grupo_1195934" data-name="Grupo 1195934" clip-path="url(#clip-path)">
              <path id="Trazado_1016929" data-name="Trazado 1016929" d="M168.1,53.5c20.992.068,41.966.728,62.942,1.155V39.08H9.656V54.31c52.814-.141,105.625-.981,158.44-.81" fill="#199dc1"/>
              <rect id="Rectángulo_462339" data-name="Rectángulo 462339" width="221.382" height="17.445" transform="translate(9.656 85.352)" fill="#199dc1"/>
              <path id="Trazado_1016930" data-name="Trazado 1016930" d="M231.038,201.161V172.578H9.656v28.074c73.782-1.533,147.585-.269,221.382.509" fill="#199dc1"/>
              <rect id="Rectángulo_462340" data-name="Rectángulo 462340" width="221.382" height="25.199" transform="translate(9.656 234.606)" fill="#199dc1"/>
              <path id="Trazado_1016931" data-name="Trazado 1016931" d="M174.936,284.531c18.7.185,37.4.156,56.1.239V265.62H9.655V283.1c55.1.1,110.188.891,165.281,1.435" fill="#199dc1"/>
              <path id="Trazado_1016932" data-name="Trazado 1016932" d="M231.038,331.523V314.4q-19.258.727-38.506,1.62C131.621,318.85,70.59,322.83,9.656,319.7v11.819Z" fill="#199dc1"/>
              <rect id="Rectángulo_462341" data-name="Rectángulo 462341" width="221.382" height="19.481" transform="translate(9.656 337.339)" fill="#199dc1"/>
              <rect id="Rectángulo_462342" data-name="Rectángulo 462342" width="221.382" height="17.445" transform="translate(9.656 149.318)" fill="#199dc1"/>
              <path id="Trazado_1016933" data-name="Trazado 1016933" d="M195.652,342.184H45.086a23.416,23.416,0,0,1-23.347-23.348V78.673A23.415,23.415,0,0,1,45.086,55.326H195.652A23.416,23.416,0,0,1,219,78.673V318.836a23.417,23.417,0,0,1-23.348,23.348" fill="#fff"/>
              <path id="Trazado_1016934" data-name="Trazado 1016934" d="M39.166,309.344c-.788,1.293-.458,7.167.717,8.1a147.747,147.747,0,0,1,15.238-14.76" fill="none" stroke="#c12736" stroke-linecap="round" stroke-linejoin="round" stroke-width="3.995"/>
              <path id="Trazado_1016935" data-name="Trazado 1016935" d="M39.166,285.2c-.788,1.293-.458,7.167.717,8.1a147.75,147.75,0,0,1,15.238-14.76" fill="none" stroke="#c12736" stroke-linecap="round" stroke-linejoin="round" stroke-width="3.995"/>
              <path id="Trazado_1016936" data-name="Trazado 1016936" d="M39.166,261.049c-.788,1.293-.458,7.167.717,8.1a147.748,147.748,0,0,1,15.238-14.76" fill="none" stroke="#c12736" stroke-linecap="round" stroke-linejoin="round" stroke-width="3.995"/>
              <path id="Trazado_1016937" data-name="Trazado 1016937" d="M39.166,236.9c-.788,1.293-.458,7.167.717,8.1a147.748,147.748,0,0,1,15.238-14.76" fill="none" stroke="#c12736" stroke-linecap="round" stroke-linejoin="round" stroke-width="3.995"/>
              <path id="Trazado_1016938" data-name="Trazado 1016938" d="M39.166,212.754c-.788,1.293-.458,7.166.717,8.1a147.75,147.75,0,0,1,15.238-14.76" fill="none" stroke="#c12736" stroke-linecap="round" stroke-linejoin="round" stroke-width="3.995"/>
              <path id="Trazado_1016939" data-name="Trazado 1016939" d="M39.166,188.606c-.788,1.293-.458,7.166.717,8.1a147.75,147.75,0,0,1,15.238-14.76" fill="none" stroke="#c12736" stroke-linecap="round" stroke-linejoin="round" stroke-width="3.995"/>
              <path id="Trazado_1016940" data-name="Trazado 1016940" d="M39.166,164.459c-.788,1.293-.458,7.166.717,8.1A147.748,147.748,0,0,1,55.121,157.8" fill="none" stroke="#c12736" stroke-linecap="round" stroke-linejoin="round" stroke-width="3.995"/>
              <path id="Trazado_1016941" data-name="Trazado 1016941" d="M39.166,140.311c-.788,1.293-.458,7.167.717,8.1a147.748,147.748,0,0,1,15.238-14.76" fill="none" stroke="#c12736" stroke-linecap="round" stroke-linejoin="round" stroke-width="3.995"/>
              <path id="Trazado_1016942" data-name="Trazado 1016942" d="M39.166,116.163c-.788,1.293-.458,7.167.717,8.1A147.749,147.749,0,0,1,55.121,109.5" fill="none" stroke="#c12736" stroke-linecap="round" stroke-linejoin="round" stroke-width="3.995"/>
              <path id="Trazado_1016943" data-name="Trazado 1016943" d="M39.166,92.016c-.788,1.293-.458,7.167.717,8.1a147.75,147.75,0,0,1,15.238-14.76" fill="none" stroke="#c12736" stroke-linecap="round" stroke-linejoin="round" stroke-width="3.995"/>
              <path id="Trazado_1016944" data-name="Trazado 1016944" d="M71.635,125.075H194.964a.956.956,0,0,0,0-1.91H71.635a.956.956,0,0,0,0,1.91" fill="#dfcac2"/>
              <path id="Trazado_1016945" data-name="Trazado 1016945" d="M71.635,102.091H194.964a.956.956,0,0,0,0-1.91H71.635a.956.956,0,0,0,0,1.91" fill="#dfcac2"/>
              <path id="Trazado_1016946" data-name="Trazado 1016946" d="M69.752,146.372H197.788a.956.956,0,0,0,0-1.91H69.752a.956.956,0,0,0,0,1.91" fill="#dfcac2"/>
              <path id="Trazado_1016947" data-name="Trazado 1016947" d="M70.693,167.668H197.788a.956.956,0,0,0,0-1.91H70.693a.956.956,0,0,0,0,1.91" fill="#dfcac2"/>
              <path id="Trazado_1016948" data-name="Trazado 1016948" d="M71.635,188.965H194.964a.956.956,0,0,0,0-1.91H71.635a.956.956,0,0,0,0,1.91" fill="#dfcac2"/>
              <path id="Trazado_1016949" data-name="Trazado 1016949" d="M69.752,210.262H197.788a.956.956,0,0,0,0-1.91H69.752a.956.956,0,0,0,0,1.91" fill="#dfcac2"/>
              <path id="Trazado_1016950" data-name="Trazado 1016950" d="M70.693,231.559H197.788a.956.956,0,0,0,0-1.91H70.693a.956.956,0,0,0,0,1.91" fill="#dfcac2"/>
              <path id="Trazado_1016951" data-name="Trazado 1016951" d="M71.635,252.856H194.964a.956.956,0,0,0,0-1.91H71.635a.956.956,0,0,0,0,1.91" fill="#dfcac2"/>
              <path id="Trazado_1016952" data-name="Trazado 1016952" d="M69.752,274.153H197.788a.956.956,0,0,0,0-1.91H69.752a.956.956,0,0,0,0,1.91" fill="#dfcac2"/>
              <path id="Trazado_1016953" data-name="Trazado 1016953" d="M70.693,295.45H197.788a.956.956,0,0,0,0-1.91H70.693a.956.956,0,0,0,0,1.91" fill="#dfcac2"/>
              <path id="Trazado_1016954" data-name="Trazado 1016954" d="M70.693,316.747H197.788a.956.956,0,0,0,0-1.91H70.693a.956.956,0,0,0,0,1.91" fill="#dfcac2"/>
              <rect id="Rectángulo_462343" data-name="Rectángulo 462343" width="92.231" height="24.953" transform="translate(77.515 27.099)" fill="#333"/>
              <path id="Trazado_1016955" data-name="Trazado 1016955" d="M77.515,52.052h92.231L77.515,27.1Z" fill="#232323"/>
              <circle id="Elipse_13685" data-name="Elipse 13685" cx="15.219" cy="15.219" r="15.219" transform="translate(105.37 7.991) rotate(-11.981)" fill="none" stroke="#333" stroke-miterlimit="10" stroke-width="9"/>
              <path id="Trazado_1016956" data-name="Trazado 1016956" d="M292.829,212.831s32.468-1.948,33.755-2.694c0,0,7.849,17.766-15.509,21.516s-18.246-18.822-18.246-18.822" fill="#5884c2"/>
              <path id="Trazado_1016957" data-name="Trazado 1016957" d="M324.6,359.155h14.725s.943-4.325-2.408-9.95l-10.817.166a25.553,25.553,0,0,0-1.5,9.784" fill="#452e22"/>
              <path id="Trazado_1016958" data-name="Trazado 1016958" d="M339.609,361.686l-15.036-.149v-2.531l15.036.149Z" fill="#42475a"/>
              <path id="Trazado_1016959" data-name="Trazado 1016959" d="M304.388,349.456s2.211,6.364,1.282,10.816H275.76s-.019-3.676,11.983-6.526l8.343-5.631Z" fill="#452e22"/>
              <path id="Trazado_1016960" data-name="Trazado 1016960" d="M305.856,362.776h-10l-.074-1.09a48.58,48.58,0,0,1-9.813.948c-2.758,0-9.933.075-9.933.075v-2.437h29.817Z" fill="#42475a"/>
              <path id="Trazado_1016961" data-name="Trazado 1016961" d="M290.879,285.842l.7,65.9s5.567,2.28,13.313-.937l3.3-61.087c-5.925.947-12.411-.819-17.32-3.877" fill="#69696d"/>
              <path id="Trazado_1016962" data-name="Trazado 1016962" d="M332.946,282.619l-4.175-67.5H291.159l-.28,70.723c4.909,3.058,11.395,4.824,17.321,3.877l1.317-56.22,2.287-.115,4.837,54.886c5.6,2.076,12.725-.76,16.305-5.651" fill="#69696d"/>
              <path id="Trazado_1016963" data-name="Trazado 1016963" d="M332.946,282.619c-3.58,4.891-10.708,7.727-16.305,5.651l8.452,62.54s3.81,2.783,12.542-.432Z" fill="#69696d"/>
              <g id="Grupo_1195924" data-name="Grupo 1195924" opacity="0.24" style="mix-blend-mode: multiply;isolation: isolate">
                <g id="Grupo_1195923" data-name="Grupo 1195923">
                  <g id="Grupo_1195922" data-name="Grupo 1195922" clip-path="url(#clip-path-3)">
                    <path id="Trazado_1016964" data-name="Trazado 1016964" d="M328.772,215.119H291.441v14.527a81.8,81.8,0,0,0,18.153,5.105l-.006-1.26,2.252-.111.235,1.8a138.057,138.057,0,0,0,18.354,1.543Z" fill="#464658"/>
                  </g>
                </g>
              </g>
              <path id="Trazado_1016965" data-name="Trazado 1016965" d="M269.005,185.333a5.222,5.222,0,0,0,8.473,1.014c15.693-17.325,24.473-44.853,21.585-50.927a3.866,3.866,0,0,0-.3-.517,2.374,2.374,0,0,0-2.653-1.014c-4.3,1.039-10.944,13.046-13.6,18.16-4.048,7.792-11.335,21.217-13.887,27.784a7.526,7.526,0,0,0,.379,5.5" fill="#69696d"/>
              <path id="Trazado_1016966" data-name="Trazado 1016966" d="M226.88,197.472c9.078.468,34.4-6.145,38.889-6.888,3.168-.525,7.344-1.6,9.965-3.864,8.044-6.942-1.27-10.131-4.5-9.425-5.622,1.228-47.25,12.481-47.118,12.989,0,0,2.37,7.168,2.765,7.188" fill="#69696d"/>
              <path id="Trazado_1016967" data-name="Trazado 1016967" d="M343.641,141.176a6.828,6.828,0,0,0-5.391-7.675,31.342,31.342,0,0,1-10.194-3.813c-6.02-3.821-24.314-1.877-33.244,4.782-2.722,5.586-2.774,17.483-4.215,29.232-1.492,12.147-2.2,57.954-2.2,57.954,12.094,7.1,43.142,3.358,43.415.939.227-2,8.855-61.071,11.829-81.419" fill="#69696d"/>
              <path id="Trazado_1016968" data-name="Trazado 1016968" d="M307.007,129.992l-5.134,15.121,2.257,1.115-2.465.438,1.89,45.9,2.925-44.144,6.3-20.308h-3.95l-.3.145a2.991,2.991,0,0,0-1.524,1.729" fill="#535354"/>
              <path id="Trazado_1016969" data-name="Trazado 1016969" d="M315.287,128.168l-5.42,4.454.893-6.635,4.931-3.269Z" fill="#fbf8f4"/>
              <path id="Trazado_1016970" data-name="Trazado 1016970" d="M324.08,130.9c-5.613,6.376-11.575,3.225-9.263-3.551l2.34-11.991,9.721.888-2.1,13.157a2.97,2.97,0,0,1-.7,1.5" fill="#edbc7e"/>
              <g id="Grupo_1195927" data-name="Grupo 1195927" opacity="0.72">
                <g id="Grupo_1195926" data-name="Grupo 1195926">
                  <g id="Grupo_1195925" data-name="Grupo 1195925" clip-path="url(#clip-path-4)">
                    <path id="Trazado_1016971" data-name="Trazado 1016971" d="M314.929,126.4l11.759-8.77.25-1.811L316.6,114.391l-1.285,9.318Z" fill="#c4833b" fill-rule="evenodd"/>
                  </g>
                </g>
              </g>
              <path id="Trazado_1016972" data-name="Trazado 1016972" d="M314.819,120.048h0c-12.644-2.812-14.717-15.609-9.641-22.855,2.908-4.151,2.967-11.1,2.967-11.1,1.788-7.535,10.582-15.341,18.562-13.566s13,9.322,11.21,16.855c0,0-3.983,34.413-23.1,30.663" fill="#f6e9e9"/>
              <path id="Trazado_1016973" data-name="Trazado 1016973" d="M346.814,79.692c-3.567-3.7-12.148-6.116-16.811-7.153a16.168,16.168,0,0,0-11.691,1.76,19.871,19.871,0,0,0-9.47,11.936s-.059,6.947-2.967,11.1a15.655,15.655,0,0,0-2.118,13.618c.566,1.7,1.832,3.013,2.447,4.671a3.875,3.875,0,0,0,2.369,2.689,30.746,30.746,0,0,0,6.248,1.726l.694.152a12.662,12.662,0,0,0,3.393.262c7.912,1.412,15.282-2.007,19.207-9.8l9.608-17.994c1.851-4.244,2.3-9.627-.909-12.963" fill="#edbc7e"/>
              <path id="Trazado_1016974" data-name="Trazado 1016974" d="M325.123,97.792a.865.865,0,1,0,.981-.8.894.894,0,0,0-.981.8"/>
              <path id="Trazado_1016975" data-name="Trazado 1016975" d="M309.259,93.809a.865.865,0,1,0,.981-.8.895.895,0,0,0-.981.8"/>
              <path id="Trazado_1016976" data-name="Trazado 1016976" d="M317.958,94.078l-5.983,8.3,3.292,1.087Z" fill="#c4833b"/>
              <path id="Trazado_1016977" data-name="Trazado 1016977" d="M308.875,83.678l11.354-4.016c-1.619.432-6.367,2.853-6.767,4.481a132.616,132.616,0,0,1,13.413-3.54c-.729.488-6.318,2.877-6.43,3.747A86.055,86.055,0,0,1,333.6,79.982s-6.7,4.031-6.659,6.253c1.374-.951,7.756-3.924,12.265-4.366,1.113,3.854-.666,10.577-.923,14.58.724-1.87,1.485-5.358,2.21-7.228q.318,6.094.637,12.19c.654-1.317,2.856-6.014,3.509-7.332.049,1.5-5.433,15.745-10.866,22.341,4.51,0,11.611-4.846,14.514-8.5,8.69-10.933,7.7-26.673.888-33.754-8.375-8.7-30.037-10.078-38.194,3.256Z" fill="#1c1512"/>
              <path id="Trazado_1016978" data-name="Trazado 1016978" d="M335.562,105.474c-2.227,2.877-2.4,6.306-.392,7.658s5.446.115,7.674-2.762,2.4-6.306.391-7.658-5.446-.115-7.673,2.762" fill="#edbc7e"/>
              <path id="Trazado_1016979" data-name="Trazado 1016979" d="M338.4,104.705a2.61,2.61,0,0,1,2.02-1.25c.974-.066,2.276.589,1.9,3.247s-2.572,4.7-3.943,4.184c-.434-.163-.592-.841-.6-1.695a2.013,2.013,0,0,0,1.532-2.151,2.21,2.21,0,0,0-1.018-1.866c.065-.293.108-.469.108-.469" fill="#c4833b" fill-rule="evenodd"/>
              <path id="Trazado_1016980" data-name="Trazado 1016980" d="M315.707,126.913l2.113,7.213-3.871,2.708-2.073,12.539-8.083,37.494,2.482-38.131,5.021-12.242-1.767-4.1,4.233-6.138Z" fill="#a03f3f"/>
              <path id="Trazado_1016981" data-name="Trazado 1016981" d="M316.432,127.95l-.793,8.52,13.581-7.455-1.223-6.3Z" fill="#fbf8f4"/>
              <path id="Trazado_1016982" data-name="Trazado 1016982" d="M328.766,130.189l-8.681,20.043-3.313-.935,1.886,3.619-14.866,37.736,1.324-8.538,5.985-33.042,10.175-17.291Z" fill="#535354"/>
              <path id="Trazado_1016983" data-name="Trazado 1016983" d="M322.43,92.732l11.34,4.256.994-2.14-9.651-5.4Z" fill="#303030"/>
              <path id="Trazado_1016984" data-name="Trazado 1016984" d="M314.306,89.445l1.749-3.1-7.213-.108V88.7Z" fill="#1c1512"/>
              <path id="Trazado_1016985" data-name="Trazado 1016985" d="M310.806,107.208s5.537,1.226,8.638-.945c0,0-2.7,6.076-8.638.945" fill="#c4833b"/>
              <path id="Trazado_1016986" data-name="Trazado 1016986" d="M349.625,193.049a5.221,5.221,0,0,0,7.231-4.529c1.339-23.338-9.11-50.277-15.171-53.191a3.714,3.714,0,0,0-.556-.216,2.376,2.376,0,0,0-2.7.876c-2.7,3.508-.327,17.025.815,22.672,1.742,8.608,4.5,23.632,6.635,30.346A7.522,7.522,0,0,0,349.625,193.049Z" fill="#5a5a5e"/>
              <rect id="Rectángulo_462346" data-name="Rectángulo 462346" width="10.282" height="25.802" transform="matrix(0.426, -0.905, 0.905, 0.426, 187.819, 175.134)" fill="#333"/>
              <path id="Trazado_1016987" data-name="Trazado 1016987" d="M315.638,221.331c4.675,2.2,7.685,5.633,6.727,7.659l-2.521,5.355c-.957,2.031-5.521,1.888-10.193-.313l-92.582-43.646c-4.672-2.2-7.684-5.629-6.727-7.66l2.523-5.354c.958-2.028,5.523-1.883,10.192.315Z" fill="#333"/>
              <path id="Trazado_1016988" data-name="Trazado 1016988" d="M263.678,196.836l-40.621-19.149c-4.668-2.2-9.234-2.343-10.192-.315l-2.523,5.354c-.957,2.031,2.056,5.461,6.727,7.66l40.622,19.151Z" fill="#0c7a93"/>
              <g id="Grupo_1195930" data-name="Grupo 1195930" opacity="0.25">
                <g id="Grupo_1195929" data-name="Grupo 1195929">
                  <g id="Grupo_1195928" data-name="Grupo 1195928" clip-path="url(#clip-path-5)">
                    <path id="Trazado_1016989" data-name="Trazado 1016989" d="M164.125,101.426a50.392,50.392,0,1,1-67.063,24.1,50.395,50.395,0,0,1,67.063-24.1" fill="#30afd8"/>
                  </g>
                </g>
              </g>
              <path id="Trazado_1016990" data-name="Trazado 1016990" d="M87.781,122.352A60.2,60.2,0,1,0,167.9,93.566a60.2,60.2,0,0,0-80.122,28.786m97.69,46.052a47.8,47.8,0,1,1-22.859-63.62,47.8,47.8,0,0,1,22.859,63.62" fill="#0c7a93"/>
              <g id="Grupo_1195933" data-name="Grupo 1195933" opacity="0.5">
                <g id="Grupo_1195932" data-name="Grupo 1195932">
                  <g id="Grupo_1195931" data-name="Grupo 1195931" clip-path="url(#clip-path-6)">
                    <path id="Trazado_1016991" data-name="Trazado 1016991" d="M124.529,141.58a10.93,10.93,0,1,1-14.935,3.99,10.933,10.933,0,0,1,14.935-3.99" fill="#fff"/>
                  </g>
                </g>
              </g>
              <path id="Trazado_1016992" data-name="Trazado 1016992" d="M309.368,216.57a21.392,21.392,0,0,0-5.4.523,5.9,5.9,0,0,0-2.193.811,3.011,3.011,0,0,0-.631,1.083,12.4,12.4,0,0,1-.718,1.34c-.449.715-6.3,6.519-6.49,6.224,0,0-1.151-1.841-1.97-1.1s.407,3.563,1.532,4.1,7.452,1.164,9.116-.191a69.26,69.26,0,0,0,7.575-9.347l.141-.116Z" fill="#edbc7e"/>
              <path id="Trazado_1016993" data-name="Trazado 1016993" d="M303.965,217.53q-3.762-.322-7.537-.354a1.807,1.807,0,0,0-1.07.219,1.05,1.05,0,0,0-.4,1.14,1.177,1.177,0,0,0,.447.529c2.268,1.708,5.061,1.785,7.71,1.814" fill="#edbc7e"/>
              <path id="Trazado_1016994" data-name="Trazado 1016994" d="M309.884,222.469c9.252-3.24,43.132-26.617,44.923-29.784,5.5-9.717-4.985-8.914-7.959-6.949-5.173,3.419-42.685,30.744-42.365,31.163,0,0,5,5.711,5.4,5.57" fill="#5a5a5e"/>
              <path id="Trazado_1016995" data-name="Trazado 1016995" d="M224.344,195.66a51.282,51.282,0,0,0-6.942.171,11.263,11.263,0,0,0-1.715.4s-.7-2.071.017-2.278a29.552,29.552,0,0,1,4.646.223Z" fill="#edbc7e"/>
              <path id="Trazado_1016996" data-name="Trazado 1016996" d="M222.369,191.889c-.057-.022-.127-.037-.178-.062-1.543-.787-1.689-3.183-1.488-4.178.41-2.028-1.836-3.434-1.836-3.434l-.083,5.272.791,1.812-2.822-2.541a8.846,8.846,0,0,1-.377-2.857,2.472,2.472,0,0,0-1.445-3.3c-.514,2.21-.713,3.531-.713,3.531s.6,2.675.877,3.543c-.527-.824-2.557-3.259-2.513-3.191s.791-2.905-.4-3.757a10.234,10.234,0,0,0-1.446,3.793s-1.081-2.737-2.82-2.885a16.19,16.19,0,0,0,.856,3.849s3.408,4.7,4.27,5.149,15.92,4.18,15.92,4.18a7.885,7.885,0,0,0,.72-.893l-.466-.366a17.194,17.194,0,0,1-6.848-3.669" fill="#edbc7e"/>
            </g>
          </g>
        </g>
      </g>
    </g>
  </g>
</svg>
