<svg xmlns="http://www.w3.org/2000/svg" width="84" height="84" viewBox="0 0 84 84">
  <g id="Grupo_1196039" data-name="Grupo 1196039" transform="translate(-706 -427.009)">
    <g id="Grupo_1194746" data-name="Grupo 1194746" transform="translate(0 -1251.911)">
      <g id="Grupo_1119665" data-name="Grupo 1119665" transform="translate(534.111 -3840.08)">
        <rect id="Rectángulo_402006" data-name="Rectángulo 402006" width="84" height="84" rx="5" transform="translate(171.889 5519)" fill="#c1c5cb"/>
      </g>
    </g>
    <g id="Grupo_1194968" data-name="Grupo 1194968" transform="translate(709.6 443.6)">
      <path id="Trazado_1014973" data-name="Trazado 1014973" d="M205.639,180.874a.821.821,0,0,0-.821.821v2.1a.821.821,0,1,0,1.642,0v-2.1A.821.821,0,0,0,205.639,180.874Z" transform="translate(-170.298 -161.069)" fill="#334155"/>
      <path id="Trazado_1014974" data-name="Trazado 1014974" d="M205.639,253.207a.821.821,0,0,0-.821.821v2.1a.821.821,0,1,0,1.642,0v-2.1A.821.821,0,0,0,205.639,253.207Z" transform="translate(-170.298 -225.482)" fill="#334155"/>
      <path id="Trazado_1014975" data-name="Trazado 1014975" d="M205.639,325.54a.821.821,0,0,0-.821.821v2.1a.821.821,0,1,0,1.642,0v-2.1A.821.821,0,0,0,205.639,325.54Z" transform="translate(-170.298 -289.895)" fill="#334155"/>
      <path id="Trazado_1014976" data-name="Trazado 1014976" d="M66.523,50.421l-2.558-6.486a3.1,3.1,0,0,0,.644-.778c.707-1.221.38-2.629.064-3.991a9.293,9.293,0,0,1-.322-1.985,9.3,9.3,0,0,1,.322-1.986c.316-1.362.643-2.77-.064-3.991-.73-1.261-2.2-1.7-3.494-2.088a8.82,8.82,0,0,1-1.809-.677,8.347,8.347,0,0,1-1.419-1.187c-.252-.241-.512-.49-.785-.728V16.813a.821.821,0,1,0-1.642,0v8.649a3.271,3.271,0,0,0-1.2-.231c-1.517,0-2.638,1.074-3.627,2.022a8.347,8.347,0,0,1-1.42,1.187,8.833,8.833,0,0,1-1.809.677c-1.3.388-2.765.827-3.494,2.088-.707,1.221-.38,2.629-.064,3.991a9.293,9.293,0,0,1,.322,1.986,9.3,9.3,0,0,1-.322,1.985c-.316,1.362-.643,2.77.064,3.991a3.1,3.1,0,0,0,.644.778l-.882,2.235H40.506V18.118a3.743,3.743,0,0,0,2.44-.646,26.793,26.793,0,0,0,7.7-8.045,4.758,4.758,0,0,0,.682-2.461v-1a4.706,4.706,0,0,1,4.127,4.664v2.348a.821.821,0,1,0,1.642,0V10.633a6.35,6.35,0,0,0-5.77-6.315V3.265A3.269,3.269,0,0,0,48.067,0H22.615A3.269,3.269,0,0,0,19.35,3.265V4.318a6.35,6.35,0,0,0-5.77,6.315V33.684a.821.821,0,1,0,1.642,0V10.633A4.706,4.706,0,0,1,19.35,5.969v1a4.759,4.759,0,0,0,.682,2.461,26.793,26.793,0,0,0,7.7,8.045,3.762,3.762,0,0,0,2.44.646V46.17H19.922a4.705,4.705,0,0,1-4.7-4.7V37.516a.821.821,0,1,0-1.642,0V41.47a6.349,6.349,0,0,0,6.342,6.342h23.1L42,50.421a2.045,2.045,0,0,0,2.215,2.771l3.257-.5,2.037,2.591a2.044,2.044,0,0,0,3.51-.514l1.244-3.155L55.5,54.766a2.045,2.045,0,0,0,3.51.514l2.037-2.591,3.257.5a2.045,2.045,0,0,0,2.215-2.771ZM49.69,6.966a3.116,3.116,0,0,1-.446,1.612,25.116,25.116,0,0,1-7.228,7.54,2.134,2.134,0,0,1-2.874-.431l-2.52-3.19A44.515,44.515,0,0,0,49.685,3.171ZM48.067,1.642a1.612,1.612,0,0,1,.642.133c-1.647,2-6.313,6.169-13.368,9.518A42.376,42.376,0,0,1,21.985,1.77a1.613,1.613,0,0,1,.63-.127Zm-19.4,14.475a25.116,25.116,0,0,1-7.228-7.54,3.116,3.116,0,0,1-.446-1.612L21,3.144A44.407,44.407,0,0,0,34.06,12.5l-2.52,3.19a2.134,2.134,0,0,1-2.874.43Zm3.153,1.475a3.728,3.728,0,0,0,1.01-.887l2.513-3.18,2.513,3.18a3.726,3.726,0,0,0,1.01.887V46.17H31.819V17.592Zm13.628,17.23c-.255-1.1-.5-2.138-.114-2.8.4-.7,1.443-1.007,2.543-1.337a10.1,10.1,0,0,0,2.161-.828,9.594,9.594,0,0,0,1.733-1.422c.84-.8,1.634-1.565,2.49-1.565.951.013,1.78.9,2.49,1.565a9.6,9.6,0,0,0,1.733,1.422,10.1,10.1,0,0,0,2.161.829c1.1.329,2.14.64,2.543,1.337.382.659.141,1.7-.114,2.8a10.6,10.6,0,0,0-.364,2.357,10.6,10.6,0,0,0,.364,2.357c.255,1.1.5,2.138.115,2.8-.4.7-1.443,1.008-2.543,1.337a10.1,10.1,0,0,0-2.161.828,9.59,9.59,0,0,0-1.733,1.422,4.761,4.761,0,0,1-2.322,1.555c-1.018.081-1.754-.714-2.659-1.555A9.6,9.6,0,0,0,50.036,44.5a10.1,10.1,0,0,0-2.161-.829c-1.1-.329-2.14-.64-2.543-1.337-.382-.66-.141-1.7.115-2.8a10.6,10.6,0,0,0,.364-2.357,10.6,10.6,0,0,0-.365-2.357Zm6.041,19.341a.4.4,0,0,1-.691.1L48.463,51.3a.821.821,0,0,0-.771-.3l-3.731.576a.4.4,0,0,1-.436-.546l2.465-6.251c.466.187.951.333,1.415.472a8.817,8.817,0,0,1,1.809.677,8.347,8.347,0,0,1,1.419,1.187,6.725,6.725,0,0,0,2.876,1.931Zm13.447-2.741a.4.4,0,0,1-.376.147l-3.731-.576a.821.821,0,0,0-.771.3l-2.333,2.968a.4.4,0,0,1-.691-.1l-1.889-4.791.166-.42a7.434,7.434,0,0,0,2.578-1.845,8.348,8.348,0,0,1,1.42-1.187,8.824,8.824,0,0,1,1.809-.677c.463-.139.949-.285,1.415-.472l2.465,6.251a.4.4,0,0,1-.06.4Z" transform="translate(0 0)" fill="#334155"/>
      <path id="Trazado_1014977" data-name="Trazado 1014977" d="M332.772,293.658a6.434,6.434,0,1,0-6.434-6.434A6.441,6.441,0,0,0,332.772,293.658Zm0-11.226a4.792,4.792,0,1,1-4.792,4.792A4.8,4.8,0,0,1,332.772,282.431Z" transform="translate(-278.512 -250.044)" fill="#334155"/>
    </g>
  </g>
</svg>
