<svg xmlns="http://www.w3.org/2000/svg" xmlns:xlink="http://www.w3.org/1999/xlink" width="396" height="298" viewBox="0 0 396 298">
  <defs>
    <clipPath id="clip-path">
      <rect id="Rectángulo_461812" data-name="Rectángulo 461812" width="348.51" height="286.026" fill="none"/>
    </clipPath>
    <clipPath id="clip-path-2">
      <path id="Trazado_1014825" data-name="Trazado 1014825" d="M394.437,361.427a31.408,31.408,0,0,0-.242,3.946,32.557,32.557,0,1,0,.242-3.946" transform="translate(-394.195 -332.833)" fill="#2ed19b"/>
    </clipPath>
  </defs>
  <g id="Grupo_1196048" data-name="Grupo 1196048" transform="translate(-1018 -6197.427)">
    <rect id="Rectángulo_461737" data-name="Rectángulo 461737" width="396" height="298" transform="translate(1018 6197.427)" fill="#bbc3dc"/>
    <g id="Grupo_1194745" data-name="Grupo 1194745" transform="translate(1041.745 6204.462)">
      <g id="Grupo_1194899" data-name="Grupo 1194899">
        <g id="Grupo_1194898" data-name="Grupo 1194898" clip-path="url(#clip-path)">
          <path id="Trazado_1014720" data-name="Trazado 1014720" d="M348.51,259.341a89.242,89.242,0,0,1-14.693,49.2H27.429a114.982,114.982,0,0,1,99.119-188.925,89.635,89.635,0,0,1,166.705,56.939,89.647,89.647,0,0,1,55.257,82.79" transform="translate(0 -25.629)" fill="#e0e8fc"/>
          <line id="Línea_3595" data-name="Línea 3595" x2="323.521" transform="translate(18.656 282.908)" fill="none" stroke="#130f40" stroke-linecap="round" stroke-linejoin="round" stroke-width="0.75"/>
          <path id="Trazado_1014721" data-name="Trazado 1014721" d="M386.02,178.876H307.427a7.626,7.626,0,0,1-7.626-7.626V73.289a7.626,7.626,0,0,1,7.626-7.626H386.02a7.626,7.626,0,0,1,7.626,7.626v97.96a7.626,7.626,0,0,1-7.626,7.626" transform="translate(-103.592 -22.689)" fill="#fff"/>
          <path id="Trazado_1014722" data-name="Trazado 1014722" d="M354.044,98.189v70.638H337.52c1.9-11.834,3.947-57.289,3.947-57.289l-17.743,6.53L321,109.553s11.977-6.319,22.842-9.531a54.161,54.161,0,0,1,5.659-1.379,26.508,26.508,0,0,1,4.546-.454" transform="translate(-110.915 -33.928)" fill="#1e3a8a"/>
          <path id="Trazado_1014723" data-name="Trazado 1014723" d="M371.5,98.183c11.5,0,33.051,11.364,33.051,11.364l-2.73,8.523-17.744-6.534s2.047,45.456,3.948,57.293H371.5" transform="translate(-128.365 -33.926)" fill="#1e3a8a"/>
          <path id="Trazado_1014724" data-name="Trazado 1014724" d="M357.391,110.633l2.371-2.644-3.03-.091-.833-7.636a54.163,54.163,0,0,1,5.659-1.379l4.545,23.5Z" transform="translate(-122.975 -34.167)" fill="#b3b3ff"/>
          <path id="Trazado_1014725" data-name="Trazado 1014725" d="M380.209,110.633l-2.371-2.644,3.03-.091.833-7.636a54.12,54.12,0,0,0-5.659-1.379l-4.545,23.5Z" transform="translate(-128.365 -34.167)" fill="#b3b3ff"/>
          <path id="Trazado_1014726" data-name="Trazado 1014726" d="M368.48,134.792v40.97a5.714,5.714,0,0,1-5.713,5.714" transform="translate(-125.348 -46.575)" fill="none" stroke="#130f40" stroke-linecap="round" stroke-linejoin="round" stroke-width="0.75"/>
          <rect id="Rectángulo_461808" data-name="Rectángulo 461808" width="122.667" height="16.362" transform="translate(271.376 193.477) rotate(-82.528)" fill="#b3b3ff"/>
          <line id="Línea_3596" data-name="Línea 3596" x2="5.705" y2="0.748" transform="translate(296.19 85.849)" fill="none" stroke="#130f40" stroke-linecap="round" stroke-linejoin="round" stroke-width="0.75"/>
          <line id="Línea_3597" data-name="Línea 3597" x2="5.705" y2="0.748" transform="translate(294.786 96.559)" fill="none" stroke="#130f40" stroke-linecap="round" stroke-linejoin="round" stroke-width="0.75"/>
          <line id="Línea_3598" data-name="Línea 3598" x2="5.705" y2="0.748" transform="translate(293.381 107.269)" fill="none" stroke="#130f40" stroke-linecap="round" stroke-linejoin="round" stroke-width="0.75"/>
          <line id="Línea_3599" data-name="Línea 3599" x2="5.704" y2="0.748" transform="translate(291.977 117.979)" fill="none" stroke="#130f40" stroke-linecap="round" stroke-linejoin="round" stroke-width="0.75"/>
          <line id="Línea_3600" data-name="Línea 3600" x2="5.705" y2="0.748" transform="translate(290.572 128.689)" fill="none" stroke="#130f40" stroke-linecap="round" stroke-linejoin="round" stroke-width="0.75"/>
          <line id="Línea_3601" data-name="Línea 3601" x2="5.705" y2="0.748" transform="translate(289.167 139.399)" fill="none" stroke="#130f40" stroke-linecap="round" stroke-linejoin="round" stroke-width="0.75"/>
          <line id="Línea_3602" data-name="Línea 3602" x2="5.705" y2="0.748" transform="translate(287.763 150.109)" fill="none" stroke="#130f40" stroke-linecap="round" stroke-linejoin="round" stroke-width="0.75"/>
          <line id="Línea_3603" data-name="Línea 3603" x2="5.704" y2="0.748" transform="translate(286.358 160.819)" fill="none" stroke="#130f40" stroke-linecap="round" stroke-linejoin="round" stroke-width="0.75"/>
          <line id="Línea_3604" data-name="Línea 3604" x2="5.705" y2="0.748" transform="translate(284.954 171.529)" fill="none" stroke="#130f40" stroke-linecap="round" stroke-linejoin="round" stroke-width="0.75"/>
          <line id="Línea_3605" data-name="Línea 3605" x2="5.705" y2="0.748" transform="translate(283.549 182.239)" fill="none" stroke="#130f40" stroke-linecap="round" stroke-linejoin="round" stroke-width="0.75"/>
          <rect id="Rectángulo_461809" data-name="Rectángulo 461809" width="120.121" height="10.908" transform="translate(257.025 249.509) rotate(-85.775)" fill="#fce2b5"/>
          <path id="Trazado_1014727" data-name="Trazado 1014727" d="M414.859,224.326l-15.332-1.133,4.176-32.185a5.641,5.641,0,0,1,5.868-5.067l.828.062a5.64,5.64,0,0,1,5.06,5.874Z" transform="translate(-138.05 -64.244)" fill="#f59e0b"/>
          <rect id="Rectángulo_461810" data-name="Rectángulo 461810" width="10.216" height="112.501" transform="translate(251.615 114.966)" fill="#171659"/>
          <path id="Trazado_1014728" data-name="Trazado 1014728" d="M394.676,164.278H384.453l3.155-13.305,1.956-8.257,1.956,8.257Z" transform="translate(-132.842 -49.313)" fill="#fff"/>
          <path id="Trazado_1014729" data-name="Trazado 1014729" d="M393.187,150.972h-3.912l1.956-8.257Z" transform="translate(-134.508 -49.313)" fill="#eb4d4b"/>
          <rect id="Rectángulo_461811" data-name="Rectángulo 461811" width="6.428" height="111.207" transform="matrix(0.988, -0.152, 0.152, 0.988, 238.504, 136.329)" fill="#54c3ea"/>
          <path id="Trazado_1014730" data-name="Trazado 1014730" d="M370.777,199.991l-6.357.977.69-8.575.427-5.322,2.006,4.948Z" transform="translate(-125.92 -64.639)" fill="#fff"/>
          <path id="Trazado_1014731" data-name="Trazado 1014731" d="M367.908,192.019l-2.433.374.427-5.321Z" transform="translate(-126.284 -64.639)" fill="#171659"/>
          <path id="Trazado_1014732" data-name="Trazado 1014732" d="M407.978,378.686H376.036a6.783,6.783,0,0,1-6.8-6.314L363.1,277.188h57.812l-6.138,95.184a6.783,6.783,0,0,1-6.8,6.314" transform="translate(-125.464 -95.778)" fill="#1e3a8a"/>
          <path id="Trazado_1014733" data-name="Trazado 1014733" d="M141.324,48.1c-6.806-1.963-20.681,20.288-33.852,46.467s-22.906,69.867-22.906,69.867h8.59C118.352,70.351,148.13,50.063,141.324,48.1" transform="translate(-29.22 -16.578)" fill="#24a77c"/>
          <path id="Trazado_1014734" data-name="Trazado 1014734" d="M52.148,150.425a692.065,692.065,0,0,1,3.927-83.894C60.983,23.642,66.055,4.662,73.336,5.644s-8.59,21.6-10.634,146.372Z" transform="translate(-17.991 -1.938)" fill="#24a77c"/>
          <path id="Trazado_1014735" data-name="Trazado 1014735" d="M67.846,149.573s5.168-48.491,18.166-92.236S113.268-2.7,118.873.357s-21.54,28.692-40.4,149.5Z" transform="translate(-23.443 0)" fill="#24a77c"/>
          <path id="Trazado_1014736" data-name="Trazado 1014736" d="M38.479,177.46A383.971,383.971,0,0,0,30.3,119.785C23.426,88.88,17.863,75.463,23.1,74.154S43.387,149.186,43.387,177.28Z" transform="translate(-7.267 -25.617)" fill="#24a77c"/>
          <path id="Trazado_1014737" data-name="Trazado 1014737" d="M80.445,359.657H52.2a11.776,11.776,0,0,1-11.776-11.776V222.117H92.22V347.881a11.775,11.775,0,0,1-11.775,11.776" transform="translate(-13.97 -76.749)" fill="#fff"/>
          <path id="Trazado_1014738" data-name="Trazado 1014738" d="M293.128,321.388H263.677L252.545,220.037,240.45,111.363c4.431,1.715,10.956,4.182,15.681,5.681a159.675,159.675,0,0,0,15.72,3.737c1.671,9.344,6.714,39.945,6.024,64.7a54.367,54.367,0,0,0,2.246,17.2c.395,1.31.8,2.781,1.213,4.408a134.355,134.355,0,0,1,3.763,33.345c-.151,29.176,10.157,56.245,8.03,80.951" transform="translate(-83.084 -38.48)" fill="#1e3a8a"/>
          <path id="Trazado_1014739" data-name="Trazado 1014739" d="M222.571,106.67v87.345H120.69V106.448l29.889-15.269,3.227-17.016h31.8l4.673,22.252Z" transform="translate(-41.703 -25.626)" fill="#fce2b5"/>
          <path id="Trazado_1014740" data-name="Trazado 1014740" d="M247.363,318.9h-125V115.459l23.561-11.3,13.22,14.11c3.829,7.343,8.58,16.067,14.215,25.707,1.028,1.754,2.081,3.547,3.168,5.36,4.169,6.977,8.763,14.359,13.77,21.977a507.112,507.112,0,0,0,46.186,60.492q2.464,2.749,4.994,5.458l-4.606,13.07a30.777,30.777,0,0,0-.155,20.01A272.271,272.271,0,0,1,247.363,318.9" transform="translate(-42.28 -35.992)" fill="#1e3a8a"/>
          <path id="Trazado_1014741" data-name="Trazado 1014741" d="M278.74,206.072c-1.977,5.386-4.876,9.922-8.986,12.945H239.485l-6.545-110.6s2,.8,4.915,1.931c4.431,1.715,10.956,4.182,15.681,5.681a159.676,159.676,0,0,0,15.72,3.737l.1.02a7.238,7.238,0,0,1,5.856,6.761,85.091,85.091,0,0,0,2.968,18.763c2.827,9.961,7.821,41.061.556,60.767" transform="translate(-80.489 -37.46)" fill="#1e3a8a"/>
          <path id="Trazado_1014742" data-name="Trazado 1014742" d="M111.768,298.439a23.214,23.214,0,0,1-.334,15.923l-.243.611-.661,1.656-63.6-1.656-6.5-7.094c3.207-6.217,13.475-7.847,13.475-7.847a3.93,3.93,0,0,1-.334-3.7c1.99-4.624.014-3.662-.864-44.911-.982-46.14,33.921-127.182,33.921-127.182a6.215,6.215,0,0,1-.1-1.145,6.391,6.391,0,0,1,3.639-5.766l3.888-1.865,23.561-11.3,13.22,14.11c3.829,7.343,8.58,16.067,14.215,25.707-9.608,10.419-30.079,36.153-36.6,72.135-7.047,38.884-1.174,62.037,1.213,70.144a23.819,23.819,0,0,1,.912,5.524,25.129,25.129,0,0,0,1.2,6.655" transform="translate(-13.97 -35.992)" fill="#1e3a8a"/>
          <path id="Trazado_1014743" data-name="Trazado 1014743" d="M114.023,135.33s16.5,1.2,23.192,19.526" transform="translate(-39.399 -46.761)" fill="none" stroke="#130f40" stroke-linecap="round" stroke-linejoin="round" stroke-width="0.75"/>
          <path id="Trazado_1014744" data-name="Trazado 1014744" d="M203.09,72.2h-31.8a4.556,4.556,0,0,1,4.477-3.711h22.846a4.556,4.556,0,0,1,4.459,3.62Z" transform="translate(-59.187 -23.667)" fill="#171659"/>
          <path id="Trazado_1014745" data-name="Trazado 1014745" d="M193.791,167.369a155.957,155.957,0,0,1-29.968-.268,117.957,117.957,0,0,1-21.133-4.189,14.414,14.414,0,0,1-10.19-14.555l2.407-46.538a6.127,6.127,0,0,1,3.547-5.244l7.075-3.271a6.121,6.121,0,0,1,8.109,2.944c4.087,8.679,13.052,26.843,26.382,49.144,4.169,6.977,8.763,14.359,13.77,21.977" transform="translate(-45.777 -32.044)" fill="#bbc3dc"/>
          <path id="Trazado_1014746" data-name="Trazado 1014746" d="M250.594,255.662c-27.848-1.839-61.5-18.3-80.061-28.561a14.206,14.206,0,0,1-4.5-20.93l24.6-32.979c4.169,6.977,8.763,14.359,13.77,21.977q4.251,6.479,8.894,13.161c4.935,7.081,10.2,14.287,15.766,21.486,6.721,8.685,13.907,17.37,21.525,25.845" transform="translate(-56.395 -59.844)" fill="#bbc3dc"/>
          <line id="Línea_3606" data-name="Línea 3606" y1="21.709" x2="16.198" transform="translate(118.046 113.349)" fill="none" stroke="#130f40" stroke-linecap="round" stroke-linejoin="round" stroke-width="0.5"/>
          <path id="Trazado_1014747" data-name="Trazado 1014747" d="M45.911,423.9h61.606a2.409,2.409,0,0,0,2.026-3.742,8.54,8.54,0,0,0-5.153-3.13c-7.035-1.8-10.717-8.508-20.534-8.508s-12.762,6.872-21.27,6.872-6.79-6.3-15.38-6.3a8.413,8.413,0,0,0-7.373,3.951c-3.053,4.661.505,10.856,6.078,10.856" transform="translate(-13.376 -141.159)" fill="#171659"/>
          <path id="Trazado_1014748" data-name="Trazado 1014748" d="M152.621,207.673s-.16,12.667-4.568,23.679a132.364,132.364,0,0,0-5.465,20.531c-7.049,38.875-1.178,62.03,1.211,70.139a24,24,0,0,1,.916,5.53,25.2,25.2,0,0,0,1.191,6.656,23.2,23.2,0,0,1-.334,15.923l-.242.609" transform="translate(-48.109 -71.758)" fill="none" stroke="#130f40" stroke-linecap="round" stroke-linejoin="round" stroke-width="0.75"/>
          <path id="Trazado_1014749" data-name="Trazado 1014749" d="M155.318,227.532a127.879,127.879,0,0,1,7.881-16.413" transform="translate(-53.668 -72.949)" fill="none" stroke="#130f40" stroke-linecap="round" stroke-linejoin="round" stroke-width="0.75"/>
          <path id="Trazado_1014750" data-name="Trazado 1014750" d="M61.02,402.443c7.392-1.093,30.953-3.652,38.316,0" transform="translate(-21.085 -138.403)" fill="none" stroke="#130f40" stroke-linecap="round" stroke-linejoin="round" stroke-width="0.75"/>
          <path id="Trazado_1014751" data-name="Trazado 1014751" d="M84.931,397.513s14.731-6.206,22.667-6.615" transform="translate(-29.347 -135.069)" fill="none" stroke="#130f40" stroke-linecap="round" stroke-linejoin="round" stroke-width="0.75"/>
          <path id="Trazado_1014752" data-name="Trazado 1014752" d="M71.44,306.288s3.518,21.27,17.18,27.569" transform="translate(-24.685 -105.833)" fill="none" stroke="#130f40" stroke-linecap="round" stroke-linejoin="round" stroke-width="0.75"/>
          <path id="Trazado_1014753" data-name="Trazado 1014753" d="M271.69,298s11.473.978,13.536,4.361-4.3,14.618-4.3,14.618" transform="translate(-93.878 -102.968)" fill="none" stroke="#130f40" stroke-linecap="round" stroke-linejoin="round" stroke-width="0.75"/>
          <path id="Trazado_1014754" data-name="Trazado 1014754" d="M225.032,98.7c2.23,9.8,12.538,74.476,9.43,118.3,0,0,19.575-12.417,32.021-32.358a12.22,12.22,0,0,0-1.939-15.3,64.659,64.659,0,0,0-13.721-10.121l8.32-5.487a11.252,11.252,0,0,0,3.119-15.707L241.645,107.6a19.156,19.156,0,0,0-12.222-8.059Z" transform="translate(-77.756 -34.103)" fill="#bbc3dc"/>
          <path id="Trazado_1014755" data-name="Trazado 1014755" d="M239.75,226.883c4.935,7.081,10.2,14.287,15.766,21.486" transform="translate(-82.842 -78.396)" fill="none" stroke="#130f40" stroke-linecap="round" stroke-linejoin="round" stroke-width="0.75"/>
          <path id="Trazado_1014756" data-name="Trazado 1014756" d="M288.43,125.753c1.671,9.344,6.714,39.945,6.024,64.7a54.367,54.367,0,0,0,2.246,17.2c.395,1.31.8,2.781,1.213,4.408" transform="translate(-99.662 -43.452)" fill="none" stroke="#130f40" stroke-linecap="round" stroke-linejoin="round" stroke-width="0.75"/>
          <path id="Trazado_1014757" data-name="Trazado 1014757" d="M306.894,387.454A272.269,272.269,0,0,0,296.243,338.9a30.778,30.778,0,0,1,.155-20.01L301,305.822,298,302.563" transform="translate(-101.811 -104.546)" fill="none" stroke="#130f40" stroke-linecap="round" stroke-linejoin="round" stroke-width="0.75"/>
          <path id="Trazado_1014758" data-name="Trazado 1014758" d="M197.464,53.144a3.981,3.981,0,1,0-6,3.427v5.9H195.5v-5.9a3.975,3.975,0,0,0,1.963-3.427" transform="translate(-65.479 -16.988)" fill="#171659"/>
          <path id="Trazado_1014759" data-name="Trazado 1014759" d="M287.766,301.677s-6.054-1.063-7.2.818-.164,5.808,1.022,5.931a6.749,6.749,0,0,0,3.068-1.023,4.43,4.43,0,0,0,5.318-2.5Z" transform="translate(-96.77 -104.136)" fill="#ff8e77"/>
          <path id="Trazado_1014760" data-name="Trazado 1014760" d="M365.1,380.468H354.8A229.5,229.5,0,0,1,342.3,338.406a173.946,173.946,0,0,1-3.089-24.857v-4.09l11.813-2.016s2.461,43.083,14.078,73.025" transform="translate(-117.21 -106.232)" fill="#fce2b5"/>
          <path id="Trazado_1014761" data-name="Trazado 1014761" d="M327.834,311.606s-4.03,17.289-3.46,70.3h10.877s.327-41.722,4.908-66.1v-4.2Z" transform="translate(-112.063 -107.671)" fill="#fce2b5"/>
          <path id="Trazado_1014762" data-name="Trazado 1014762" d="M334.117,207.14a10.223,10.223,0,0,1-.54-8.386,7.341,7.341,0,0,0,.627,4.318,6.957,6.957,0,0,1,3.064-3.41s-2.477,5.069-2.012,8.182Z" transform="translate(-115.024 -68.676)" fill="#171659"/>
          <path id="Trazado_1014763" data-name="Trazado 1014763" d="M335.71,209.448s-.041-5.236,4.009-5.113,5.318,9.9-2.291,6.872Z" transform="translate(-115.999 -70.604)" fill="#171659"/>
          <path id="Trazado_1014764" data-name="Trazado 1014764" d="M336.281,214.56a2.134,2.134,0,0,1-3.214-2.808c.776-.887,1.8-.609,2.688.167s1.3,1.754.526,2.641" transform="translate(-114.904 -72.977)" fill="#eb4d4b"/>
          <path id="Trazado_1014765" data-name="Trazado 1014765" d="M333.139,235.237l-6.911,3.148-2.867-6.257c-3.135,2.566-5.589,1.243-7.415-1.564l-1.276.582a.527.527,0,0,1-.72-.641l.316-.994a3.737,3.737,0,0,0-.073-2.486,37.076,37.076,0,0,1-1.343-4.3v-.007c-.039-.157-.072-.308-.111-.458,0-.013-.007-.02-.007-.033a9.433,9.433,0,0,1-.164-1.047v-.007a8.183,8.183,0,0,1-.046-.9,9.245,9.245,0,1,1,16.964,5.092,3.17,3.17,0,0,0-.1,3.325Z" transform="translate(-107.987 -72.915)" fill="#ff8e77"/>
          <path id="Trazado_1014766" data-name="Trazado 1014766" d="M317.763,234.377c.106.341.063.658-.095.707s-.372-.188-.478-.529-.063-.657.095-.707.372.188.478.529" transform="translate(-109.58 -80.8)" fill="#171659"/>
          <path id="Trazado_1014767" data-name="Trazado 1014767" d="M329.487,225.362a3.105,3.105,0,0,0-.491,2.212c-.884.615-1.872.884-2.565-.164a4.1,4.1,0,0,0-1-1.041,8.725,8.725,0,0,0-4.359-1.44,2.746,2.746,0,0,1-.89-.19c-2.2-.831-1.44-4.149-1.44-4.149-2.657,1.669-1.675-1.348-1.675-1.348l-.988.792a.764.764,0,0,1-1.23-.72,12.016,12.016,0,0,1,.294-1.381,4.361,4.361,0,0,0-2.572,3.24,8.183,8.183,0,0,1-.046-.9,9.245,9.245,0,1,1,16.964,5.092" transform="translate(-107.987 -72.915)" fill="#171659"/>
          <path id="Trazado_1014768" data-name="Trazado 1014768" d="M327.134,228c-2.162-.414-2.13,2.925-2.13,2.925l1.526,2.258c4.34.826,2.766-4.77.6-5.183" transform="translate(-112.3 -78.768)" fill="#ff8e77"/>
          <path id="Trazado_1014769" data-name="Trazado 1014769" d="M330.033,233.985c-.215.945-1.008,1.6-2.7,1.276" transform="translate(-113.105 -80.85)" fill="none" stroke="#eb4d4b" stroke-linecap="round" stroke-linejoin="round" stroke-width="0.5"/>
          <path id="Trazado_1014770" data-name="Trazado 1014770" d="M326.719,232.431s-.512-2.717.819-2.926,1.247,1.463,1.247,1.463" transform="translate(-112.859 -79.295)" fill="none" stroke="#eb4d4b" stroke-linecap="round" stroke-linejoin="round" stroke-width="0.5"/>
          <path id="Trazado_1014771" data-name="Trazado 1014771" d="M326.71,231.2a2.229,2.229,0,0,1,1.023,2.177" transform="translate(-112.89 -79.888)" fill="none" stroke="#eb4d4b" stroke-linecap="round" stroke-linejoin="round" stroke-width="0.5"/>
          <path id="Trazado_1014772" data-name="Trazado 1014772" d="M323.108,238.648a2.842,2.842,0,0,1-1.022,1.963" transform="translate(-111.292 -82.461)" fill="none" stroke="#eb4d4b" stroke-linecap="round" stroke-linejoin="round" stroke-width="0.5"/>
          <path id="Trazado_1014773" data-name="Trazado 1014773" d="M328.609,248.1l-1.094-1.686a2.459,2.459,0,0,1,.593-3.31c1.781-1.334,5.045-3.1,7.668-3.138A1.732,1.732,0,0,1,337.368,241l1.305,2.9Z" transform="translate(-113.03 -82.917)" fill="#f59e0b"/>
          <path id="Trazado_1014774" data-name="Trazado 1014774" d="M344.96,284.174l.406,4.326-21.538,2.788.255-4.012a2.853,2.853,0,0,1-1.77-2.985c.292-2.454.783-6.581,1.207-10.189.281-2.369-.51-2.736-1.466-3.384-1.3-.877-2.906-2.264-2.618-9.784l-1.833-3.318c.419-.772.8-1.479,1.132-2.1a14.025,14.025,0,0,1,4.215-4.823l4.908-3.5a11,11,0,0,1,7.631-1.983l.615.072a8.494,8.494,0,0,1,6.852,5.1,79.045,79.045,0,0,0,.6,20.125,117.924,117.924,0,0,0,2.274,11.649,1.813,1.813,0,0,1-.874,2.022" transform="translate(-109.743 -84.704)" fill="#f59e0b"/>
          <path id="Trazado_1014775" data-name="Trazado 1014775" d="M334.431,270.5h-2.513l-4.666-13.659-9.882,4.666a62.83,62.83,0,0,1-4.673,9.208,42.162,42.162,0,0,1-18.574,16.558l-3.6-5.452,2.238-1.8A3.333,3.333,0,0,1,293.52,277c4.771-5.347,11.767-13.96,14.725-19.385.419-.772.8-1.479,1.132-2.1a14.025,14.025,0,0,1,4.215-4.823l4.909-3.5a11,11,0,0,1,7.631-1.983l.615.072a8.494,8.494,0,0,1,6.852,5.1c.039.079.072.164.1.242l5.21,13.318a4.809,4.809,0,0,1-4.483,6.564" transform="translate(-100.386 -84.704)" fill="#f59e0b"/>
          <path id="Trazado_1014776" data-name="Trazado 1014776" d="M329.076,270.153a62.825,62.825,0,0,1-4.673,9.208" transform="translate(-112.092 -93.347)" fill="none" stroke="#130f40" stroke-linecap="round" stroke-linejoin="round" stroke-width="0.75"/>
          <path id="Trazado_1014777" data-name="Trazado 1014777" d="M356.768,275.432c-.812-5.478-.939-16.026-.939-16.026" transform="translate(-122.951 -89.634)" fill="none" stroke="#130f40" stroke-linecap="round" stroke-linejoin="round" stroke-width="0.75"/>
          <line id="Línea_3607" data-name="Línea 3607" y1="2.727" x2="16.616" transform="translate(216.262 199.845)" fill="none" stroke="#130f40" stroke-linecap="round" stroke-linejoin="round" stroke-width="0.75"/>
          <path id="Trazado_1014778" data-name="Trazado 1014778" d="M346.937,318.023c-1.322,7.042-2.291,15.53-3,24.039" transform="translate(-118.841 -109.888)" fill="none" stroke="#130f40" stroke-linecap="round" stroke-linejoin="round" stroke-width="0.75"/>
          <path id="Trazado_1014779" data-name="Trazado 1014779" d="M329.587,427.695H307.6l5.949-4.221,6.27-4.45h8.724l.327,2.716Z" transform="translate(-106.287 -144.787)" fill="#171659"/>
          <path id="Trazado_1014780" data-name="Trazado 1014780" d="M332.014,421.739c-2.467-1.1-7.337-.38-10.93,1.623-2.212,1.23-3.586.8-4.391.111l6.27-4.45h8.724Z" transform="translate(-109.428 -144.787)" fill="#ff8e77"/>
          <path id="Trazado_1014781" data-name="Trazado 1014781" d="M370.36,429H346.223l5.949-4.221c.8.694,2.179,1.119,4.391-.111,3.593-2,9.274-2.35,11.741-1.25Z" transform="translate(-119.632 -146.093)" fill="#171659"/>
          <path id="Trazado_1014782" data-name="Trazado 1014782" d="M371.446,422.112c-2.467-1.1-8.148-.753-11.741,1.25-2.212,1.23-3.586.8-4.391.111l6.27-4.45h8.724Z" transform="translate(-122.773 -144.787)" fill="#ff8e77"/>
          <path id="Trazado_1014783" data-name="Trazado 1014783" d="M371.446,422.112c-2.467-1.1-8.148-.753-11.741,1.25-2.212,1.23-3.586.8-4.391.111l6.27-4.45h8.724Z" transform="translate(-122.773 -144.787)" fill="#ff8e77"/>
          <path id="Trazado_1014784" data-name="Trazado 1014784" d="M190.393,320.5c-17.853,0-27.359,3.992-29.49,17.89a154.4,154.4,0,0,1-3.5,16.63,149.39,149.39,0,0,0-4.316,23.971A13.336,13.336,0,0,0,166.33,393.65h57.247a16.433,16.433,0,0,0,15.667-21.468,39.747,39.747,0,0,0-10.121-16.448,27,27,0,0,1-7.125-11.6c-2.765-9.092-10.488-23.639-31.605-23.639" transform="translate(-52.875 -110.742)" fill="#fce2b5"/>
          <path id="Trazado_1014785" data-name="Trazado 1014785" d="M247.38,426.181H224.86l1.014-2.271,4.143-9.267,7.566,1.283-1.459,3.168,7.651,4.817Z" transform="translate(-77.697 -143.273)" fill="#6a6ae2"/>
          <path id="Trazado_1014786" data-name="Trazado 1014786" d="M208.534,369.309s13.079,0,22.677,2.781l-10.888,23.561,10.452,3.6,11.684-25.209a8.22,8.22,0,0,0-4.823-11.261c-4.172-1.389-10.292-3.954-19.078-4.244L205.523,360.8Z" transform="translate(-71.015 -123.886)" fill="#171659"/>
          <path id="Trazado_1014787" data-name="Trazado 1014787" d="M229.615,340.415l-2.624.3-.707-3.122c-.19-4.823-.844-9.516-.844-9.516l.969-12.945a7.422,7.422,0,0,1,2.507,3.783l4.5,15.832a4.475,4.475,0,0,1-3.8,5.668" transform="translate(-77.897 -108.889)" fill="#fff"/>
          <path id="Trazado_1014788" data-name="Trazado 1014788" d="M214.768,335.815c.1,2.664,1.213,3.969.846,5.945l-22.8,4.448-.118-5.275-.589-27.363a14.135,14.135,0,0,1,4.8-2.644l2.945-.942c.615,1.4,2.572,5.367,5.661,7.454l3.809-6.892,4.005,1.839a7.257,7.257,0,0,1,1.564.969l-.969,12.945s.654,4.693.844,9.516" transform="translate(-66.381 -107.11)" fill="#fff"/>
          <path id="Trazado_1014789" data-name="Trazado 1014789" d="M225.886,325.792l-.446,5.969s.654,4.693.844,9.516" transform="translate(-77.897 -112.572)" fill="none" stroke="#130f40" stroke-linecap="round" stroke-linejoin="round" stroke-width="0.75"/>
          <path id="Trazado_1014790" data-name="Trazado 1014790" d="M198.032,350.456l.537-12.714a1.387,1.387,0,0,1,1.386-1.329h20.663a1.387,1.387,0,0,1,1.286,1.908l-5.148,12.714a1.387,1.387,0,0,1-1.286.867H199.418a1.387,1.387,0,0,1-1.386-1.446" transform="translate(-68.427 -116.242)" fill="#334155"/>
          <path id="Trazado_1014791" data-name="Trazado 1014791" d="M196.324,339l-7.238,2.035-2.389.674a3.967,3.967,0,0,1-5.013-4.313l1.813-14.555a14.269,14.269,0,0,1,9.8-11.813l.38-.118,1.957-.628c2.461,5.766-4.175,10.845-4.175,10.845l-.74,13.292,4.5-.857Z" transform="translate(-62.767 -107.213)" fill="#fff"/>
          <path id="Trazado_1014792" data-name="Trazado 1014792" d="M202.377,344.388s9.04-3.8,9.449-2.5-3.15,2.209-3.15,2.209l4.888.946a1.037,1.037,0,0,1,.693,1.55l-1.322,2.209a3.214,3.214,0,0,1-3.02,1.552l-6.433-.531Z" transform="translate(-69.928 -118.041)" fill="#ff8e77"/>
          <line id="Línea_3608" data-name="Línea 3608" x1="7.238" y2="2.035" transform="translate(126.318 231.788)" fill="none" stroke="#130f40" stroke-linecap="round" stroke-linejoin="round" stroke-width="0.75"/>
          <line id="Línea_3609" data-name="Línea 3609" x1="7.274" y2="1.388" transform="translate(125.175 226.347)" fill="none" stroke="#130f40" stroke-linecap="round" stroke-linejoin="round" stroke-width="0.75"/>
          <line id="Línea_3610" data-name="Línea 3610" x1="0.74" y2="13.292" transform="translate(127.948 213.914)" fill="none" stroke="#130f40" stroke-linecap="round" stroke-linejoin="round" stroke-width="0.75"/>
          <path id="Trazado_1014793" data-name="Trazado 1014793" d="M213.26,307.772a12.588,12.588,0,0,0-2.175-.769v-4.84h-6.3v4.879c-.215.056-.431.105-.643.173l-.2.065c.615,1.4,2.572,5.367,5.661,7.454l3.809-6.892Z" transform="translate(-70.468 -104.408)" fill="#ff8e77"/>
          <path id="Trazado_1014794" data-name="Trazado 1014794" d="M216.4,289.719c0,.288-.02.569-.046.844-.02.406-.059.825-.118,1.243-.419,3.462-1.859,7.147-4.1,8.947a4.747,4.747,0,0,1-3.024,1.145c-2.369,0-4.634-2.88-5.589-5.524-.026-.079-.059-.164-.085-.242-.007-.013-.007-.02-.013-.033a8.057,8.057,0,1,1,12.978-6.381" transform="translate(-69.204 -97.324)" fill="#ff8e77"/>
          <path id="Trazado_1014795" data-name="Trazado 1014795" d="M213.843,308.521a4.747,4.747,0,0,1-3.024,1.145c-2.369,0-4.634-2.88-5.589-5.524" transform="translate(-70.914 -105.092)" fill="none" stroke="#eb4d4b" stroke-linecap="round" stroke-linejoin="round" stroke-width="0.5"/>
          <path id="Trazado_1014796" data-name="Trazado 1014796" d="M216.4,289.719c0,.288-.02.569-.046.844-.02.406-.059.825-.118,1.243a12.351,12.351,0,0,0-1.577-4.378c-2.369,2.336-9.693,0-9.693,0-2,2.212-1.067,7.611-1.067,7.611l-.465,1.093c-.007-.013-.007-.02-.013-.033a8.057,8.057,0,1,1,12.978-6.381" transform="translate(-69.204 -97.324)" fill="#130f40"/>
          <path id="Trazado_1014797" data-name="Trazado 1014797" d="M204.063,297.862s-.518-2.809-2.7-1.882.682,8.263,3.054,4.282" transform="translate(-69.309 -102.207)" fill="#ff8e77"/>
          <path id="Trazado_1014798" data-name="Trazado 1014798" d="M201.982,298.34s.123-1.036,1-.818.607,2.482.607,2.482" transform="translate(-69.792 -102.794)" fill="none" stroke="#eb4d4b" stroke-linecap="round" stroke-linejoin="round" stroke-width="0.5"/>
          <ellipse id="Elipse_13670" data-name="Elipse 13670" cx="2.113" cy="1.908" rx="2.113" ry="1.908" transform="translate(136.2 194.698)" fill="none" stroke="#130f40" stroke-linecap="round" stroke-linejoin="round" stroke-width="0.5"/>
          <ellipse id="Elipse_13671" data-name="Elipse 13671" cx="2.113" cy="1.908" rx="2.113" ry="1.908" transform="translate(141.989 194.698)" fill="none" stroke="#130f40" stroke-linecap="round" stroke-linejoin="round" stroke-width="0.5"/>
          <path id="Trazado_1014799" data-name="Trazado 1014799" d="M214.557,300.482a1.384,1.384,0,0,1,1.574,0" transform="translate(-74.137 -103.739)" fill="none" stroke="#130f40" stroke-linecap="round" stroke-linejoin="round" stroke-width="0.5"/>
          <path id="Trazado_1014800" data-name="Trazado 1014800" d="M211.565,305.1a2.372,2.372,0,0,0,1.2,1.255" transform="translate(-73.103 -105.423)" fill="none" stroke="#eb4d4b" stroke-linecap="round" stroke-linejoin="round" stroke-width="0.5"/>
          <path id="Trazado_1014801" data-name="Trazado 1014801" d="M211.8,300.569c0,.327-.139.593-.312.593s-.312-.266-.312-.593.139-.593.312-.593.312.265.312.593" transform="translate(-72.968 -103.652)" fill="#130f40"/>
          <path id="Trazado_1014802" data-name="Trazado 1014802" d="M220.548,300.569c0,.327-.139.593-.312.593s-.312-.266-.312-.593.139-.593.312-.593.312.265.312.593" transform="translate(-75.992 -103.652)" fill="#130f40"/>
          <path id="Trazado_1014803" data-name="Trazado 1014803" d="M216,301.788s.3,1.963,1.48,2.577l-1.721.654" transform="translate(-74.552 -104.278)" fill="none" stroke="#eb4d4b" stroke-linecap="round" stroke-linejoin="round" stroke-width="0.5"/>
          <path id="Trazado_1014804" data-name="Trazado 1014804" d="M215.277,426.275H199.19A22.636,22.636,0,0,1,200.375,424c.255-.432.543-.87.857-1.322a21.357,21.357,0,0,1,4.45-4.607l-.223-1.741,6.545-1.42L214.622,424Z" transform="translate(-68.827 -143.367)" fill="#6a6ae2"/>
          <path id="Trazado_1014805" data-name="Trazado 1014805" d="M191.688,366.7l6.952,33.748,12.639-3.518-7.59-32.853a6.143,6.143,0,0,0-12,2.622" transform="translate(-66.191 -124.156)" fill="#171659"/>
          <path id="Trazado_1014806" data-name="Trazado 1014806" d="M214.622,428.8l.654,2.271H199.19a22.643,22.643,0,0,1,1.185-2.271Z" transform="translate(-68.827 -148.166)" fill="#cacaff"/>
          <path id="Trazado_1014807" data-name="Trazado 1014807" d="M247.38,431.074H224.86l1.014-2.271h17.9Z" transform="translate(-77.697 -148.166)" fill="#cacaff"/>
          <path id="Trazado_1014808" data-name="Trazado 1014808" d="M266.722,104.432s.15-12.151,12.151-12.151c0,0-12.151-.15-12.151-12.151,0,0-.15,12.151-12.151,12.151,0,0,12.151.15,12.151,12.151" transform="translate(-87.963 -27.688)" fill="#f4cc4d"/>
          <path id="Trazado_1014809" data-name="Trazado 1014809" d="M242.182,83.725s.094-7.616,7.616-7.616c0,0-7.616-.094-7.616-7.616,0,0-.094,7.616-7.616,7.616,0,0,7.616.094,7.616,7.616" transform="translate(-81.051 -23.667)" fill="#f4cc4d"/>
          <path id="Trazado_1014810" data-name="Trazado 1014810" d="M462.348,316.088c4.145-7.308-.218-20.725,6.981-29.56s17.016-6.108,18.434,0-7.417,6-6.872-.654,16.907-11.017,11.017-18.543" transform="translate(-159.757 -92.372)" fill="none" stroke="#043c92" stroke-linecap="round" stroke-linejoin="round" stroke-width="0.75"/>
          <line id="Línea_3611" data-name="Línea 3611" x1="2.509" y1="24.416" transform="translate(284.577 199.845)" fill="none" stroke="#130f40" stroke-linecap="round" stroke-linejoin="round" stroke-width="0.75"/>
          <path id="Trazado_1014811" data-name="Trazado 1014811" d="M435.694,304.382a1.844,1.844,0,1,1-1.844-1.844,1.844,1.844,0,0,1,1.844,1.844" transform="translate(-149.273 -104.537)" fill="#171659"/>
        </g>
      </g>
      <g id="Grupo_1194901" data-name="Grupo 1194901" transform="translate(257.987 217.828)">
        <g id="Grupo_1194900" data-name="Grupo 1194900" clip-path="url(#clip-path-2)">
          <path id="Trazado_1014812" data-name="Trazado 1014812" d="M459.275,365.373a32.54,32.54,0,1,1-65.08,0,31.408,31.408,0,0,1,.242-3.946,32.539,32.539,0,0,1,64.838,3.946" transform="translate(-394.195 -332.833)" fill="#2ed19b"/>
          <path id="Trazado_1014813" data-name="Trazado 1014813" d="M391.688,363.233s18.62,18.731,14.074,42.6" transform="translate(-393.329 -343.337)" fill="#2ed19b" stroke="#043c92" stroke-linecap="round" stroke-linejoin="round" stroke-width="0.75"/>
          <path id="Trazado_1014814" data-name="Trazado 1014814" d="M394.192,357.83s24.652,9.961,19.525,48.72" transform="translate(-394.194 -341.47)" fill="#2ed19b" stroke="#043c92" stroke-linecap="round" stroke-linejoin="round" stroke-width="0.75"/>
          <path id="Trazado_1014815" data-name="Trazado 1014815" d="M401.192,349.5s11.671,2.41,18.98,21.439a75.145,75.145,0,0,1,4.581,35.609" transform="translate(-396.613 -338.591)" fill="#2ed19b" stroke="#043c92" stroke-linecap="round" stroke-linejoin="round" stroke-width="0.75"/>
          <path id="Trazado_1014816" data-name="Trazado 1014816" d="M407.221,341.5s16.125.218,24.96,21.379,7.09,38.031,7.09,38.031" transform="translate(-398.696 -335.826)" fill="#2ed19b" stroke="#043c92" stroke-linecap="round" stroke-linejoin="round" stroke-width="0.75"/>
          <path id="Trazado_1014817" data-name="Trazado 1014817" d="M420.859,332.831s15.6-.984,28.579,27.267.763,39.6.763,39.6" transform="translate(-403.408 -332.831)" fill="#2ed19b" stroke="#043c92" stroke-linecap="round" stroke-linejoin="round" stroke-width="0.75"/>
          <path id="Trazado_1014818" data-name="Trazado 1014818" d="M443.915,329.163A52.793,52.793,0,0,1,467,360.662c5.563,21.84.982,31.329.982,31.329" transform="translate(-411.375 -331.565)" fill="#2ed19b" stroke="#043c92" stroke-linecap="round" stroke-linejoin="round" stroke-width="0.75"/>
          <path id="Trazado_1014819" data-name="Trazado 1014819" d="M459.275,369.052a32.458,32.458,0,0,1-1.859,10.864,73.1,73.1,0,0,0-57.377,7.749,32.431,32.431,0,0,1-5.844-18.613,31.407,31.407,0,0,1,.242-3.946,88.67,88.67,0,0,1,24.2-15.262c11-4.542,22.078-6.817,28.321-6.29a32.486,32.486,0,0,1,12.317,25.5" transform="translate(-394.195 -336.511)" fill="#2ed19b"/>
          <path id="Trazado_1014820" data-name="Trazado 1014820" d="M397.025,408.222s27.051-22.034,66.1-9.053" transform="translate(-395.173 -354.339)" fill="#2ed19b" stroke="#043c92" stroke-linecap="round" stroke-linejoin="round" stroke-width="0.75"/>
          <path id="Trazado_1014821" data-name="Trazado 1014821" d="M449.594,343.3c-33.378-1.418-58.9,24-58.9,24" transform="translate(-392.985 -336.43)" fill="#2ed19b" stroke="#043c92" stroke-linecap="round" stroke-linejoin="round" stroke-width="0.75"/>
          <path id="Trazado_1014822" data-name="Trazado 1014822" d="M390.025,376.66s29.669-23.451,63.81-24" transform="translate(-392.754 -339.685)" fill="#2ed19b" stroke="#043c92" stroke-linecap="round" stroke-linejoin="round" stroke-width="0.75"/>
          <path id="Trazado_1014823" data-name="Trazado 1014823" d="M392.525,386.808s31.305-23.779,66.865-18.543" transform="translate(-393.618 -344.816)" fill="#2ed19b" stroke="#043c92" stroke-linecap="round" stroke-linejoin="round" stroke-width="0.75"/>
          <path id="Trazado_1014824" data-name="Trazado 1014824" d="M394.192,397.424s28.687-21.459,69.919-12.3" transform="translate(-394.194 -350.116)" fill="#2ed19b" stroke="#043c92" stroke-linecap="round" stroke-linejoin="round" stroke-width="0.75"/>
        </g>
      </g>
      <g id="Grupo_1194903" data-name="Grupo 1194903">
        <g id="Grupo_1194902" data-name="Grupo 1194902" clip-path="url(#clip-path)">
          <line id="Línea_3612" data-name="Línea 3612" y1="27.488" x2="19.307" transform="translate(305.325 203.1)" fill="none" stroke="#130f40" stroke-linecap="round" stroke-linejoin="round" stroke-width="0.75"/>
          <line id="Línea_3613" data-name="Línea 3613" x1="15.871" y1="34.687" transform="translate(257.987 200.77)" fill="none" stroke="#130f40" stroke-linecap="round" stroke-linejoin="round" stroke-width="0.75"/>
          <path id="Trazado_1014826" data-name="Trazado 1014826" d="M496.9,309.357a1.844,1.844,0,1,1-1.844-1.844,1.844,1.844,0,0,1,1.844,1.844" transform="translate(-170.42 -106.256)" fill="#171659"/>
          <path id="Trazado_1014827" data-name="Trazado 1014827" d="M395.066,305.8a1.844,1.844,0,1,1-1.844-1.844,1.844,1.844,0,0,1,1.844,1.844" transform="translate(-135.235 -105.026)" fill="#171659"/>
          <path id="Trazado_1014828" data-name="Trazado 1014828" d="M17.586,257.136c-4.211,0-4.218,6.545,0,6.545s4.218-6.545,0-6.545" transform="translate(-4.984 -88.849)" fill="#54c3ea"/>
          <path id="Trazado_1014829" data-name="Trazado 1014829" d="M487.086,212.136c-4.211,0-4.218,6.545,0,6.545s4.218-6.545,0-6.545" transform="translate(-167.213 -73.3)" fill="#54c3ea"/>
          <path id="Trazado_1014830" data-name="Trazado 1014830" d="M514.086,360.136c-4.211,0-4.218,6.545,0,6.545s4.218-6.545,0-6.545" transform="translate(-176.542 -124.439)" fill="#54c3ea"/>
          <path id="Trazado_1014831" data-name="Trazado 1014831" d="M504.587,398.636a1.31,1.31,0,0,0,0,2.618,1.31,1.31,0,0,0,0-2.618" transform="translate(-173.915 -137.742)" fill="#54c3ea"/>
          <path id="Trazado_1014832" data-name="Trazado 1014832" d="M505.087,329.136a1.31,1.31,0,0,0,0,2.618,1.31,1.31,0,0,0,0-2.618" transform="translate(-174.088 -113.728)" fill="#54c3ea"/>
          <path id="Trazado_1014833" data-name="Trazado 1014833" d="M467.587,252.136a1.31,1.31,0,0,0,0,2.618,1.31,1.31,0,0,0,0-2.618" transform="translate(-161.131 -87.122)" fill="#54c3ea"/>
          <path id="Trazado_1014834" data-name="Trazado 1014834" d="M22.087,319.136a1.31,1.31,0,0,0,0,2.618,1.31,1.31,0,0,0,0-2.618" transform="translate(-7.195 -110.272)" fill="#54c3ea"/>
        </g>
      </g>
    </g>
  </g>
</svg>
