<svg xmlns="http://www.w3.org/2000/svg" xmlns:xlink="http://www.w3.org/1999/xlink" width="70.962" height="95.12" viewBox="0 0 70.962 95.12">
  <defs>
    <clipPath id="clip-path">
      <rect id="Rectángulo_462020" data-name="Rectángulo 462020" width="70.962" height="95.12" transform="translate(0 0)" fill="none"/>
    </clipPath>
  </defs>
  <g id="Grupo_1196071" data-name="Grupo 1196071" transform="translate(-186 -4458.264)">
    <g id="Grupo_1195265" data-name="Grupo 1195265" transform="translate(21.251 187.361)">
      <path id="Trazado_1015837" data-name="Trazado 1015837" d="M-3243-7429.111c11-.872,34.749,0,34.749,0l20.5,20.75,2.751,57.545a13.527,13.527,0,0,1-10,12.551c-10,2.9-48,0-48,0s-10.751-1.1-11.251-21.6.54-50.812.54-50.812S-3254-7428.24-3243-7429.111Z" transform="translate(3420.711 11703)" fill="#fff"/>
      <g id="Grupo_1195264" data-name="Grupo 1195264" transform="translate(164.749 4270.897)">
        <g id="Grupo_1195263" data-name="Grupo 1195263" transform="translate(0 0.005)" clip-path="url(#clip-path)">
          <path id="Trazado_1015829" data-name="Trazado 1015829" d="M584.016,50.178H563.3a2.223,2.223,0,0,1-2.223-2.223V27.239h4.446V45.732h18.493Z" transform="translate(-515.277 -25.016)" fill="#ff001f"/>
          <path id="Trazado_1015830" data-name="Trazado 1015830" d="M4.446,69.218V10.757A6.314,6.314,0,0,1,10.753,4.45H47.1L66.516,23.864v1.3h4.446V23.148a2.718,2.718,0,0,0-.8-1.922L49.739.8A2.718,2.718,0,0,0,47.818,0H10.753A10.753,10.753,0,0,0,0,10.757V69.218Z" transform="translate(0 -0.004)" fill="#ff001f"/>
          <path id="Trazado_1015831" data-name="Trazado 1015831" d="M66.516,354.057v55.466a6.314,6.314,0,0,1-6.307,6.307H10.753a6.314,6.314,0,0,1-6.307-6.307V398.109H0v11.414a10.753,10.753,0,0,0,10.753,10.753H60.209a10.753,10.753,0,0,0,10.753-10.753V354.057Z" transform="translate(0 -325.156)" fill="#ff001f"/>
          <path id="Trazado_1015832" data-name="Trazado 1015832" d="M201.783,289.915a5,5,0,0,1-4.366-2.745h0a4.676,4.676,0,0,1-.223-3.8c1.094-2.989,5.164-5.676,12.175-8.963q.793-2.124,1.582-4.6.992-3.117,1.7-5.778a27.9,27.9,0,0,1-3.636-6.042c-1.534-3.648-1.257-6.161-.755-7.626a4.828,4.828,0,0,1,3.76-3.425,5.122,5.122,0,0,1,4.813,1.536c1.241,1.484,1.678,3.8,1.374,7.276a50.284,50.284,0,0,1-1.325,7.364q1.245,1.476,2.777,3.026,1.5,1.518,2.982,2.771c6.507-2.138,11.2-2.413,14-.811a5.272,5.272,0,0,1,2.69,4.033,4.869,4.869,0,0,1-2.865,5.07c-2.139,1.045-5.07.944-8.253-.284a26.418,26.418,0,0,1-6.326-3.645c-1.147.421-2.391.912-3.738,1.484-2.2.932-4.085,1.758-5.731,2.507-3.254,8.2-6.631,12.349-10.258,12.639q-.193.015-.38.015m-.908-4.491a1.117,1.117,0,0,0,.98.615c.316-.025,1.485-.305,3.251-2.851a27.032,27.032,0,0,0,1.912-3.289c-.419.225-.815.444-1.193.66-3.825,2.185-4.771,3.533-4.994,4.142a.809.809,0,0,0,.044.725m25.7-13.645a19.118,19.118,0,0,0,3.033,1.522c2.1.812,4.032.968,5.159.418a1.046,1.046,0,0,0,.724-1.09,1.437,1.437,0,0,0-.774-1.172c-.624-.357-2.718-1.092-8.142.323m-10.9-4.2q-.476,1.633-1.038,3.4-.2.63-.4,1.239,1.161-.5,2.4-1.029.955-.406,1.873-.772-.8-.744-1.6-1.559-.636-.643-1.228-1.279m-2.523-16.854a4.926,4.926,0,0,0-.63.048c-.077.019-.435.247-.646.988-.2.7-.363,2.28.8,4.93a19.773,19.773,0,0,0,1.164,2.232q.373-1.959.509-3.516c.284-3.253-.3-4.231-.487-4.454-.1-.115-.242-.229-.708-.229" transform="translate(-180.822 -226.702)" fill="#ff001f"/>
          <path id="Trazado_1015833" data-name="Trazado 1015833" d="M60.289,915.9H10.672A10.672,10.672,0,0,1,0,905.224V893.729H70.962v11.495A10.672,10.672,0,0,1,60.289,915.9" transform="translate(0 -820.776)" fill="#ff001f"/>
          <path id="Trazado_1015834" data-name="Trazado 1015834" d="M253.8,951.481h4.515a7.254,7.254,0,0,1,2.033.266,4.5,4.5,0,0,1,1.553.776,3.487,3.487,0,0,1,.991,1.236,3.812,3.812,0,0,1,.347,1.665,4.118,4.118,0,0,1-.409,1.9,3.734,3.734,0,0,1-1.113,1.318,4.9,4.9,0,0,1-1.645.776,7.6,7.6,0,0,1-2,.255H256.6v4.678h-2.8Zm2.8,6.047h1.144a5.376,5.376,0,0,0,1.011-.092,2.3,2.3,0,0,0,.838-.327,1.674,1.674,0,0,0,.562-.613,1.982,1.982,0,0,0,.2-.95,1.669,1.669,0,0,0-.674-1.471,2.935,2.935,0,0,0-1.716-.47H256.6Z" transform="translate(-233.087 -873.814)" fill="#fdfdfd"/>
          <path id="Trazado_1015835" data-name="Trazado 1015835" d="M398.456,951.482a8.979,8.979,0,0,1,2.717.388,5.759,5.759,0,0,1,2.1,1.165,5.2,5.2,0,0,1,1.359,1.931,6.96,6.96,0,0,1,.48,2.687,7.236,7.236,0,0,1-.572,3.013,5.854,5.854,0,0,1-1.553,2.084,6.255,6.255,0,0,1-2.3,1.216,9.818,9.818,0,0,1-2.789.388h-3.943V951.482Zm-1.7,10.705h.96a6.455,6.455,0,0,0,1.665-.214,3.585,3.585,0,0,0,1.42-.736,3.651,3.651,0,0,0,.981-1.389,5.663,5.663,0,0,0,.368-2.2,3.873,3.873,0,0,0-1.1-2.973,4.164,4.164,0,0,0-2.962-1.032H396.76Z" transform="translate(-361.803 -873.815)" fill="#fdfdfd"/>
          <path id="Trazado_1015836" data-name="Trazado 1015836" d="M565.816,951.481v2.166h-5.373v3.412h4.924V959.2h-4.924v5.148h-2.8V951.481Z" transform="translate(-512.125 -873.814)" fill="#fdfdfd"/>
        </g>
      </g>
    </g>
  </g>
</svg>
