<svg xmlns="http://www.w3.org/2000/svg" width="84" height="84" viewBox="0 0 84 84">
  <g id="Grupo_1196052" data-name="Grupo 1196052" transform="translate(-703 -4115.974)">
    <g id="Grupo_1196050" data-name="Grupo 1196050">
      <g id="Grupo_1194838" data-name="Grupo 1194838" transform="translate(29 -13498.035)">
        <g id="Grupo_1194831" data-name="Grupo 1194831" transform="translate(-32 15935.089)">
          <g id="Grupo_1119665" data-name="Grupo 1119665" transform="translate(534.111 -3840.08)">
            <rect id="Rectángulo_402006" data-name="Rectángulo 402006" width="84" height="84" rx="5" transform="translate(171.889 5519)" fill="#c1c5cb"/>
          </g>
        </g>
        <g id="Grupo_1195247" data-name="Grupo 1195247" transform="translate(680.711 17624.035)">
          <path id="Trazado_1015677" data-name="Trazado 1015677" d="M17,35A10,10,0,1,0,7,25,10.011,10.011,0,0,0,17,35Zm0-18a8,8,0,1,1-8,8A8.009,8.009,0,0,1,17,17Z" fill="#334155"/>
          <path id="Trazado_1015678" data-name="Trazado 1015678" d="M14.84,28.987A.959.959,0,0,0,15,29a1,1,0,0,0,.707-.293l7-7-1.414-1.414-6.019,6.019L13.9,23.553l-1.789.9,2,4a1,1,0,0,0,.734.539Z" fill="#334155"/>
          <path id="Trazado_1015679" data-name="Trazado 1015679" d="M2.172,44.539a1,1,0,0,0,.989.427l5.208-.85,1.7,4.255A1,1,0,0,0,10.94,49L11,49a1,1,0,0,0,.878-.521L16,40.921V58a5.006,5.006,0,0,0,5,5H57a5.006,5.006,0,0,0,5-5V9a5.006,5.006,0,0,0-5-5H51a3,3,0,0,0-3-3H30a3,3,0,0,0-3,3H21a5.006,5.006,0,0,0-5,5v3.051A13.1,13.1,0,0,0,4,24.992,12.734,12.734,0,0,0,7.678,34.1c.02.02.042.037.062.057l-5.6,9.308a1,1,0,0,0,.029,1.076ZM30,13H48a3,3,0,0,0,3-3h4a1,1,0,0,1,1,1V56a1,1,0,0,1-1,1H23a1,1,0,0,1-1-1V48.255l.122.224A1,1,0,0,0,23,49l.06,0a1,1,0,0,0,.869-.627l1.7-4.255,5.208.85a1,1,0,0,0,1.018-1.5l-5.589-9.3A12.884,12.884,0,0,0,30,25a13.075,13.075,0,0,0-8-11.988V11a1,1,0,0,1,1-1h4a3,3,0,0,0,3,3ZM24.728,35.488l4.3,7.156-3.87-.632a1,1,0,0,0-1.09.616L22.86,45.655,18.629,37.9a12.739,12.739,0,0,0,6.1-2.41ZM57,6a3,3,0,0,1,3,3V58a3,3,0,0,1-3,3H21a3,3,0,0,1-3-3V40.921l2,3.667V56a3,3,0,0,0,3,3H55a3,3,0,0,0,3-3V11a3,3,0,0,0-3-3H51V6ZM29,4a1,1,0,0,1,1-1H48a1,1,0,0,1,1,1v6a1,1,0,0,1-1,1H30a1,1,0,0,1-1-1ZM21,6h6V8H23a3,3,0,0,0-3,3v1.366a12.923,12.923,0,0,0-2-.315V9A3,3,0,0,1,21,6ZM6,25.009A11,11,0,1,1,28,25a10.9,10.9,0,0,1-3.211,7.822A11.114,11.114,0,0,1,9.1,32.695,10.744,10.744,0,0,1,6,25.009ZM9.285,35.467a13.047,13.047,0,0,0,6.095,2.416l-4.24,7.774L9.929,42.63a1,1,0,0,0-1.09-.616l-3.87.632Z" fill="#334155"/>
          <path id="Trazado_1015680" data-name="Trazado 1015680" d="M34.667,24a1,1,0,0,0,.768-.36l3.333-4-1.536-1.28-2.565,3.078-.9-1.078-1.536,1.28,1.667,2a.994.994,0,0,0,.767.36Z" fill="#334155"/>
          <path id="Trazado_1015681" data-name="Trazado 1015681" d="M34.667,34a1,1,0,0,0,.768-.359l3.333-4-1.536-1.28-2.565,3.078-.9-1.078-1.536,1.28,1.667,2a1,1,0,0,0,.767.359Z" fill="#334155"/>
          <path id="Trazado_1015682" data-name="Trazado 1015682" d="M41,19H54v2H41Z" fill="#334155"/>
          <path id="Trazado_1015683" data-name="Trazado 1015683" d="M41,22H54v2H41Z" fill="#334155"/>
          <path id="Trazado_1015684" data-name="Trazado 1015684" d="M41,29H54v2H41Z" fill="#334155"/>
          <path id="Trazado_1015685" data-name="Trazado 1015685" d="M41,32H54v2H41Z" fill="#334155"/>
          <path id="Trazado_1015686" data-name="Trazado 1015686" d="M34.667,44a1,1,0,0,0,.768-.359l3.333-4L37.232,38.36l-2.565,3.078-.9-1.078-1.536,1.281,1.667,2a1,1,0,0,0,.767.359Z" fill="#334155"/>
          <path id="Trazado_1015687" data-name="Trazado 1015687" d="M34.667,54a1,1,0,0,0,.768-.359l3.333-4L37.232,48.36l-2.565,3.078-.9-1.078-1.536,1.281,1.667,2a1,1,0,0,0,.767.359Z" fill="#334155"/>
          <path id="Trazado_1015688" data-name="Trazado 1015688" d="M41,39H54v2H41Z" fill="#334155"/>
          <path id="Trazado_1015689" data-name="Trazado 1015689" d="M41,42H54v2H41Z" fill="#334155"/>
          <path id="Trazado_1015690" data-name="Trazado 1015690" d="M41,49H54v2H41Z" fill="#334155"/>
          <path id="Trazado_1015691" data-name="Trazado 1015691" d="M41,52H54v2H41Z" fill="#334155"/>
        </g>
      </g>
    </g>
  </g>
</svg>
