<svg xmlns="http://www.w3.org/2000/svg" width="154" height="154" viewBox="0 0 154 154">
  <g id="Grupo_1196043" data-name="Grupo 1196043" transform="translate(-320.942 -11066.292)">
    <g id="Grupo_1195964" data-name="Grupo 1195964">
      <g id="Grupo_1195440" data-name="Grupo 1195440" transform="translate(10.883 3695.292)">
        <circle id="Elipse_13624" data-name="Elipse 13624" cx="77" cy="77" r="77" transform="translate(310.059 7371)" fill="#fff"/>
      </g>
      <g id="planchado" transform="translate(348.173 11089.283)">
        <path id="Trazado_1017083" data-name="Trazado 1017083" d="M0,416H99.538v18.663H0Z" transform="translate(0 -334.207)" fill="#bbc3dc"/>
        <path id="Trazado_1017084" data-name="Trazado 1017084" d="M89.007,216a6.61,6.61,0,0,0-5.217,2.552L64,244h66.877v-6.221l14-10.887V216Zm49.647,7.776-10.887,7.776H103.66a5.443,5.443,0,1,1,0-10.887h34.994Z" transform="translate(-51.558 -173.089)" fill="#1e3a8a"/>
        <circle id="Elipse_13687" data-name="Elipse 13687" cx="3.888" cy="3.888" r="3.888" transform="translate(48.214 13.361)" fill="#fce2b5"/>
        <circle id="Elipse_13688" data-name="Elipse 13688" cx="3.888" cy="3.888" r="3.888" transform="translate(1.555 60.019)" fill="#90e3f5"/>
        <path id="Trazado_1017085" data-name="Trazado 1017085" d="M106.526,85.027l5.027,2.749-5.027,2.749-2.749,5.027-2.749-5.027L96,87.776l5.027-2.749L103.776,80Z" transform="translate(-77.337 -63.529)" fill="#90e3f5"/>
        <path id="Trazado_1017086" data-name="Trazado 1017086" d="M119.767,366.221H56L57.555,360h62.211Z" transform="translate(-45.113 -289.094)" fill="#636363"/>
        <path id="Trazado_1017087" data-name="Trazado 1017087" d="M272,71.329V83.772a7.776,7.776,0,0,0,7.776,7.776h11.665a3.888,3.888,0,0,0,3.888-3.888V79.106l2.282-1.1a9.721,9.721,0,0,0,7.05-9.346V65.108l7.776-6.221L301.55,48Z" transform="translate(-219.12 -37.75)" fill="#ffbe92"/>
        <path id="Trazado_1017088" data-name="Trazado 1017088" d="M428.219,29.774h-3.111L408,12.666,415.776,8h12.442Z" transform="translate(-328.681 -5.526)" fill="#bbc3dc"/>
        <path id="Trazado_1017089" data-name="Trazado 1017089" d="M226.887,168,216,169.555s0,7.776,4.666,7.776h6.221Z" transform="translate(-174.007 -134.421)" fill="#f9a973"/>
        <path id="Trazado_1017090" data-name="Trazado 1017090" d="M480,224h4.666v4.666H480Z" transform="translate(-386.683 -179.534)" fill="#a95a18"/>
        <path id="Trazado_1017091" data-name="Trazado 1017091" d="M40,397.832v3.877a5.832,5.832,0,0,0,4.093,5.567l20.792,6.5H99.1l20.467-5.117A5.832,5.832,0,0,0,123.985,403v-5.167A5.832,5.832,0,0,0,118.153,392H45.832A5.832,5.832,0,0,0,40,397.832Z" transform="translate(-32.224 -314.873)" fill="#2ed19b"/>
        <g id="Grupo_1195963" data-name="Grupo 1195963" transform="translate(32.661 86.459)" opacity="0.2">
          <path id="Trazado_1017092" data-name="Trazado 1017092" d="M185.108,440C175.66,440,168,445.571,168,452.442h34.216C202.216,445.571,194.556,440,185.108,440Z" transform="translate(-168 -440)" fill="#232626"/>
        </g>
        <path id="Trazado_1017093" data-name="Trazado 1017093" d="M312.437,58.887l-7.776,6.221v3.554a9.721,9.721,0,0,1-7.05,9.348l-2.281,1.1V87.66a3.893,3.893,0,0,1-3.888,3.888H279.776A7.771,7.771,0,0,1,272,83.772V71.329L301.55,48Z" transform="translate(-219.12 -37.75)" fill="#ffbe92"/>
        <path id="Trazado_1017094" data-name="Trazado 1017094" d="M87.106,216H82.562a6.61,6.61,0,0,0-5.217,2.552L57.555,244,56,250.216h7.776L65.332,244Z" transform="translate(-45.113 -173.089)" fill="#fafcfc" opacity="0.3"/>
        <path id="Trazado_1017095" data-name="Trazado 1017095" d="M272,71.329h14l21.774-17.108L301.55,48Z" transform="translate(-219.12 -37.75)" fill="#fafcfc" opacity="0.3"/>
        <path id="Trazado_1017096" data-name="Trazado 1017096" d="M240,61.443A5.443,5.443,0,1,0,245.443,56,5.443,5.443,0,0,0,240,61.443Zm7.776,0a2.333,2.333,0,1,1-2.333-2.333A2.333,2.333,0,0,1,247.776,61.443Z" transform="translate(-193.341 -44.195)"/>
        <path id="Trazado_1017097" data-name="Trazado 1017097" d="M0,301.444A5.443,5.443,0,1,0,5.443,296,5.443,5.443,0,0,0,0,301.444Zm5.443-2.333a2.333,2.333,0,1,1-2.333,2.333A2.333,2.333,0,0,1,5.443,299.111Z" transform="translate(0 -237.536)"/>
        <path id="Trazado_1017098" data-name="Trazado 1017098" d="M24,152h3.111v3.111H24Z" transform="translate(-19.334 -121.531)"/>
        <path id="Trazado_1017099" data-name="Trazado 1017099" d="M184,312h3.111v3.111H184Z" transform="translate(-148.228 -250.426)"/>
        <path id="Trazado_1017100" data-name="Trazado 1017100" d="M97.334,90.666a1.555,1.555,0,0,0,1.365-.809l2.531-4.627,4.627-2.531a1.555,1.555,0,0,0,0-2.729l-4.627-2.531L98.7,72.812a1.555,1.555,0,0,0-2.729,0l-2.531,4.627L88.811,79.97a1.555,1.555,0,0,0,0,2.729l4.627,2.531,2.531,4.627A1.555,1.555,0,0,0,97.334,90.666Zm-2-7.947L92.8,81.334l2.532-1.385a1.557,1.557,0,0,0,.618-.618L97.334,76.8l1.385,2.532a1.557,1.557,0,0,0,.618.618l2.532,1.385-2.533,1.385a1.557,1.557,0,0,0-.618.618L97.334,85.87l-1.385-2.533A1.557,1.557,0,0,0,95.331,82.719Z" transform="translate(-70.894 -57.087)"/>
        <path id="Trazado_1017101" data-name="Trazado 1017101" d="M94.417,20.037l-9.332-9.332L83.53,9.15l-1.7-1.7L87.9,3.807,86.3,1.14,78.519,5.806a1.555,1.555,0,0,0-.3,2.434l1.874,1.874L52.245,32.1,41.773,33.6a1.555,1.555,0,0,0-1.335,1.539,16.883,16.883,0,0,0,.649,4.335,10.139,10.139,0,0,0,.765,1.886h-4.4A8.112,8.112,0,0,0,31,44.508L11.22,69.945a1.549,1.549,0,0,0-.119.176l-.013.022a1.548,1.548,0,0,0-.083.172l-.014.035a1.565,1.565,0,0,0-.058.179v.007L9.378,76.75a1.555,1.555,0,0,0-.034.183,7.425,7.425,0,0,0-2.6,3.3H0v3.111H6.221v3.489a7.356,7.356,0,0,0,5.184,7.051l20.792,6.5a1.555,1.555,0,0,0,.464.071H66.877a1.55,1.55,0,0,0,.377-.046l20.467-5.117a7.377,7.377,0,0,0,5.6-7.167V83.348h6.221V80.238H92.8a7.4,7.4,0,0,0-6.866-4.666H76.209V72.461H79.32a1.555,1.555,0,0,0,1.555-1.555v-5.46l13.4-10.42a1.555,1.555,0,0,0,.6-1.227V50.687h3.111a1.555,1.555,0,0,0,1.555-1.555V44.466a1.555,1.555,0,0,0-1.555-1.555H94.872a1.555,1.555,0,0,0-1.555-1.555H80.066A11.33,11.33,0,0,0,87.1,30.913V28.106L93.2,23.221l2.126,2.126a1.555,1.555,0,0,0,1.1.456h3.111V22.692H97.072ZM60.656,55.353H72.321a5.45,5.45,0,0,0,5.443-5.443v-.778h7.776v.755l-9.83,7.022H52.1a3.886,3.886,0,0,1-.239-7.764,9.346,9.346,0,0,0,8.793,6.209ZM43.648,36.469l7.677-1.1v5.983H46.659C44.539,41.356,43.863,38.3,43.648,36.469Zm-9.27,60.877c1.082-5.269,7.57-9.332,15.392-9.332s14.31,4.063,15.392,9.332ZM90.207,82.96v5.167a4.271,4.271,0,0,1-3.24,4.149L68.256,96.953a13.036,13.036,0,0,0-5.474-8.108A22.214,22.214,0,0,0,49.769,84.9a22.214,22.214,0,0,0-13.012,3.942,13.071,13.071,0,0,0-5.455,8L12.333,90.919a4.259,4.259,0,0,1-3-4.083V82.96a4.282,4.282,0,0,1,4.277-4.277H85.929a4.282,4.282,0,0,1,4.277,4.277ZM73.1,75.572H12.879l.778-3.111H73.1Zm23.329-29.55v1.555H94.872V46.022Zm-4.666,3.111v3.905l-13.4,10.42a1.555,1.555,0,0,0-.6,1.227v4.666H15.622L33.459,46.418a5.022,5.022,0,0,1,3.99-1.951H51.324v1.555c0,.015,0,.029,0,.044A7,7,0,0,0,52.1,60.019H76.209a1.557,1.557,0,0,0,.9-.29L88,51.953a1.555,1.555,0,0,0,.651-1.266V47.577A1.555,1.555,0,0,0,87.1,46.022H77.764V44.466h14ZM84.569,26.144a1.555,1.555,0,0,0-.583,1.214v3.555a8.2,8.2,0,0,1-5.922,7.851,1.549,1.549,0,0,0-.246.094l-2.282,1.1a1.555,1.555,0,0,0-.882,1.4V49.91a2.321,2.321,0,0,1-.579,1.533,3.95,3.95,0,0,1-.977-2.311V36.69H69.988V49.132a7.075,7.075,0,0,0,.873,3.111H68.83a3.967,3.967,0,0,1-1.953-3.111V36.69H63.767V49.132a7.074,7.074,0,0,0,.87,3.111H62.609a3.967,3.967,0,0,1-1.953-3.111V36.69H57.546V49.132a6.94,6.94,0,0,0,.61,2.584,6.229,6.229,0,0,1-3.721-5.695V34.333L82.308,12.328l.577.577,8.1,8.1Z" transform="translate(0)"/>
        <path id="Trazado_1017102" data-name="Trazado 1017102" d="M0,0H4.4V3.111H0Z" transform="translate(92.201 65.144) rotate(-45)"/>
        <path id="Trazado_1017103" data-name="Trazado 1017103" d="M0,0H4.4V3.111H0Z" transform="translate(85.979 71.363) rotate(-45)"/>
        <path id="Trazado_1017104" data-name="Trazado 1017104" d="M0,0H3.111V4.4H0Z" transform="translate(6.671 47.117) rotate(-45)"/>
        <path id="Trazado_1017105" data-name="Trazado 1017105" d="M0,0H3.111V4.4H0Z" transform="translate(12.891 53.339) rotate(-45)"/>
        <path id="Trazado_1017106" data-name="Trazado 1017106" d="M0,0H3.111V4.4H0Z" transform="translate(19.112 45.564) rotate(-45)"/>
      </g>
    </g>
  </g>
</svg>
