<svg xmlns="http://www.w3.org/2000/svg" xmlns:xlink="http://www.w3.org/1999/xlink" width="102.087" height="113.346" viewBox="0 0 102.087 113.346">
  <defs>
    <clipPath id="clip-path">
      <rect id="Rectángulo_461368" data-name="Rectángulo 461368" width="92.917" height="102.086" fill="none"/>
    </clipPath>
  </defs>
  <g id="Grupo_1196039" data-name="Grupo 1196039" transform="translate(-1281.746 -423.499)">
    <g id="Grupo_1194731" data-name="Grupo 1194731" transform="translate(-2.512 95.042)">
      <g id="Grupo_1194397" data-name="Grupo 1194397" transform="translate(34.425 40.318)">
        <path id="Trazado_1006039" data-name="Trazado 1006039" d="M472.11,220.782a51.043,51.043,0,1,0,51.043-51.043,51.043,51.043,0,0,0-51.043,51.043" transform="translate(777.723 129.659)" fill="#2ed19b"/>
      </g>
      <g id="Grupo_1194430" data-name="Grupo 1194430" transform="translate(1287.042 328.457)">
        <g id="Grupo_1194429" data-name="Grupo 1194429" clip-path="url(#clip-path)">
          <path id="Trazado_1013477" data-name="Trazado 1013477" d="M50.14,0c1.283.593,6.161,5.318,6.673,6.533-.165,1.529-5.948,6.659-7.291,8.037-.056.842-.032,1.693-.033,2.537l9.53-.132a34.889,34.889,0,0,1,5.228.058c.472.067.776.088,1.016.563a1.4,1.4,0,0,1,.007,1.219c-.812.75-3.112.476-4.217.47a108.854,108.854,0,0,0,3.941,12.605c2.149.633,16.547,6.79,17.994,7.9a40.618,40.618,0,0,1,.044,5.9q-.024,4.727.007,9.455c.049,14.877-.353,29.813.1,44.679l9.772.051-.009,2.2-39.184.014L0,102.065.025,99.94q5.6.055,11.2-.1l.063-43.257c.023-3.663-.4-11.905.283-15a4.53,4.53,0,0,1,2.148-2.421,39.86,39.86,0,0,1,4.89-2.694c3.763-1.923,7.687-3.691,11.263-5.945.037-1.449.892-11.619,1.292-12.59.759-1.843,9.582.218,11.177-.932.8-.574.764-2.111.862-2.988a7.048,7.048,0,0,1-1.067-4.353C42.6,5.588,47.2,2.444,50.14,0" fill="#023057"/>
          <path id="Trazado_1013478" data-name="Trazado 1013478" d="M125.7,16.6a6.112,6.112,0,0,1-.037-1.921c.462-2.631,3.779-5.3,5.831-6.848l1.538,1.666c-2.343,2.522-4.9,4.7-7.332,7.1" transform="translate(-81.182 -5.059)" fill="#bbc3dc"/>
          <path id="Trazado_1013479" data-name="Trazado 1013479" d="M133.212,12.539a18.372,18.372,0,0,0,2.351,2.052c-2.133,2.426-4.484,4.655-6.759,6.947l0,3.757-2.213.022c.106-1.524.606-4.219-.471-5.414-.08-.088-.163-.173-.245-.26,2.43-2.407,4.989-4.582,7.332-7.1" transform="translate(-81.36 -8.104)" fill="#bbc3dc"/>
          <path id="Trazado_1013480" data-name="Trazado 1013480" d="M93.453,56.585a3.783,3.783,0,0,1,.214-1.745,75.843,75.843,0,0,1,8.527-.138l16.87-.053.463,1.78q-13.037-.051-26.073.156" transform="translate(-60.4 -35.321)" fill="#bbc3dc"/>
          <path id="Trazado_1013481" data-name="Trazado 1013481" d="M93.322,59.82q13.036-.207,26.073-.156l.026.159.47,1.953-26.226-.089-.288-.066a4.1,4.1,0,0,1-.056-1.8" transform="translate(-60.269 -38.556)" fill="#bbc3dc"/>
          <path id="Trazado_1013482" data-name="Trazado 1013482" d="M137.008,71.65c4.015.005,8.035.059,12.049.014.753,2.372,1.45,4.79,2.335,7.115-1.424,1.171-13.438,11.482-14.324,11.56l-.151-.106q.175-9.291.091-18.583" transform="translate(-88.493 -46.31)" fill="#bbc3dc"/>
          <path id="Trazado_1013483" data-name="Trazado 1013483" d="M90.784,71.431q7.908-.015,15.816.076.084,9.292-.091,18.583c-4.192-2.627-13.323-8.215-16.639-11.651Z" transform="translate(-58.086 -46.166)" fill="#fff"/>
          <path id="Trazado_1013484" data-name="Trazado 1013484" d="M156.04,96.706l10.721,4.605c1.8.781,3.683,1.5,5.43,2.4l.027,58.6-30.777-.023,0-2.978-.092-50.769q5.1-4.235,10.318-8.324,2.165-1.779,4.371-3.506" transform="translate(-91.359 -62.504)" fill="#1e3a8a"/>
          <path id="Trazado_1013485" data-name="Trazado 1013485" d="M54.2,94.519c.6.645,1.318,1.213,1.977,1.8,5.224,3.9,10.669,7.627,16.121,11.2q.2,16.56.071,33.12c0,6.686.151,13.386-.011,20.07-.749.447-27.243.213-30.759.145l-3.6.016-.019-36.432c.005-7.029-.283-14.2.118-21.213,2.848-2.467,12.22-6.753,16.1-8.708" transform="translate(-24.492 -61.09)" fill="#1e3a8a"/>
          <path id="Trazado_1013486" data-name="Trazado 1013486" d="M120.7,242.022a2.213,2.213,0,0,1,1.64.549,1.365,1.365,0,0,1,.47,1.158c-.06.747-.53,1.1-1.081,1.5a2.371,2.371,0,0,1-1.56-.4,1.324,1.324,0,0,1-.505-1.154,2.29,2.29,0,0,1,1.036-1.655" transform="translate(-77.34 -156.426)" fill="#023057"/>
          <path id="Trazado_1013487" data-name="Trazado 1013487" d="M120.648,175.641a2.609,2.609,0,0,1,1.472.356,1.441,1.441,0,0,1,.619,1.111,2.286,2.286,0,0,1-.929,1.744,2.072,2.072,0,0,1-1.741-.473,1.421,1.421,0,0,1-.457-1.163,2.134,2.134,0,0,1,1.037-1.575" transform="translate(-77.305 -113.522)" fill="#023057"/>
          <path id="Trazado_1013488" data-name="Trazado 1013488" d="M120.864,143.12q.21,0,.419,0a2.255,2.255,0,0,1,1.793.726,1.217,1.217,0,0,1,.223,1.1c-.135.538-.689.85-1.117,1.138a2.236,2.236,0,0,1-1.6-.238,1.339,1.339,0,0,1-.635-1.087,2,2,0,0,1,.918-1.638" transform="translate(-77.524 -92.501)" fill="#023057"/>
          <path id="Trazado_1013489" data-name="Trazado 1013489" d="M120.405,209.1a2.359,2.359,0,0,1,1.839.391,1.377,1.377,0,0,1,.552,1.136,2.2,2.2,0,0,1-.942,1.59,2.227,2.227,0,0,1-1.594-.263,1.475,1.475,0,0,1-.672-1.152,2.059,2.059,0,0,1,.817-1.7" transform="translate(-77.291 -135.133)" fill="#023057"/>
          <path id="Trazado_1013490" data-name="Trazado 1013490" d="M54.2,94.519c.6.645,1.318,1.213,1.977,1.8-1.388,1.977-3.654,2.818-5.38,4.4.993,3.518-.6,11.545-.036,15.657l-.162.825c-.662.036-1.324-.332-1.842.131a3.952,3.952,0,0,0,.012,1.488,3.028,3.028,0,0,0,1.664.23c.081.379.1.193-.079.556a2.128,2.128,0,0,0-1.4.374,4.393,4.393,0,0,0-.208,1.86,1.241,1.241,0,0,0,.142.09c.584.269,1.063-.18,1.616.21l-.064.237c-.531.071-1.1.071-1.617.167l-.069,2.11c.525.248,1.493.041,1.8.4l-.175.361a2.648,2.648,0,0,0-1.5.345,4.594,4.594,0,0,0-.106,1.81,2.777,2.777,0,0,1,1.515.348c-.422.329-.986.222-1.5.285a3.8,3.8,0,0,0,.174,1.921,2.986,2.986,0,0,0,1.415.217c.135.4.142.371-.033.75-.537.036-1.124-.066-1.486.413a1.054,1.054,0,0,0-.156,1.01c.269.337.341.53.779.618a4.633,4.633,0,0,0,.709.038l.309.107,0,.323a.772.772,0,0,1-.67.242,1.417,1.417,0,0,0-1.044.495,1.2,1.2,0,0,0-.007,1.085.9.9,0,0,0,.828.575c.157.023.464.037.631.046l.249.059-.081.4-.406.161c-.564,0-.877-.072-1.322.344a2.546,2.546,0,0,0,.465,1.653l.393.183c.374-.154.592-.207.769-.614a3.644,3.644,0,0,0,.142-.939c.5,1.091.246,4.416.208,5.755l-.234,0,.159.4.058-.151-.166-.066a11.21,11.21,0,0,1-.165-1.229,2.233,2.233,0,0,0-1.484.5c-.167.428-.09.541.018,1l.259.274-.071.18a1.357,1.357,0,0,1-.972.112l-.18-.249a3.671,3.671,0,0,0,.127-1.263,1.192,1.192,0,0,0-.759-.569,1.471,1.471,0,0,0-.764.333c-.3.254-.254.814-.3,1.2a4.372,4.372,0,0,1-.2.535l-.217-.075c-.166-.643-.358-1.273-.561-1.906a5.448,5.448,0,0,0-1.594-.32,4.527,4.527,0,0,1,1.671-.167,1.423,1.423,0,0,0,.254-.43,1.546,1.546,0,0,0-.063-1.363,2.273,2.273,0,0,0-1.559-.327,3.265,3.265,0,0,0-.937-.017c-.06,1.366-.056,2.715-.015,4.082-.013,1.756.2,16.669-.226,17.1l-1.138.227-3.6.016-.019-36.432c.005-7.029-.283-14.2.118-21.213,2.848-2.467,12.22-6.753,16.1-8.708" transform="translate(-24.492 -61.09)" fill="#1e3a8a"/>
          <path id="Trazado_1013491" data-name="Trazado 1013491" d="M70.155,113.372a2.124,2.124,0,0,1-.067,1.507.967.967,0,0,1-.74.274c-.466-.325-.435-.346-.58-.9Z" transform="translate(-44.447 -73.276)" fill="#ffcb77"/>
          <path id="Trazado_1013492" data-name="Trazado 1013492" d="M56.83,120.469c-.012.553.107,1.132-.354,1.54a.878.878,0,0,1-.949.19,1.409,1.409,0,0,1-.521-.7,14.043,14.043,0,0,1,1.824-1.026" transform="translate(-35.552 -77.863)" fill="#ffcb77"/>
          <path id="Trazado_1013493" data-name="Trazado 1013493" d="M68.739,119.5a3.049,3.049,0,0,1,1.361.121,3.2,3.2,0,0,1,.181,1.711,3.758,3.758,0,0,1-1.355-.143,3.281,3.281,0,0,1-.187-1.688" transform="translate(-44.416 -77.224)" fill="#ffcb77"/>
          <path id="Trazado_1013494" data-name="Trazado 1013494" d="M68.651,221.513a3.08,3.08,0,0,1,1.27.177,3.322,3.322,0,0,1,.236,1.824,3.3,3.3,0,0,1-1.323-.134,3.512,3.512,0,0,1-.184-1.867" transform="translate(-44.349 -143.17)" fill="#ffcb77"/>
          <path id="Trazado_1013495" data-name="Trazado 1013495" d="M68.828,150.076a2.189,2.189,0,0,1,1.26.227,3.376,3.376,0,0,1,.131,1.85,2.382,2.382,0,0,1-1.366-.293,2.965,2.965,0,0,1-.025-1.784" transform="translate(-44.401 -96.999)" fill="#ffcb77"/>
          <path id="Trazado_1013496" data-name="Trazado 1013496" d="M68.838,126.51a3.18,3.18,0,0,1,1.268.146,3.548,3.548,0,0,1,.207,1.873,2.711,2.711,0,0,1-1.38-.193,3.279,3.279,0,0,1-.1-1.826" transform="translate(-44.438 -81.765)" fill="#ffcb77"/>
          <path id="Trazado_1013497" data-name="Trazado 1013497" d="M55.473,150.012a3.678,3.678,0,0,1,.568.17,1.114,1.114,0,0,1,.5.911,1.525,1.525,0,0,1-.5,1.135q-.449-.113-.9-.233a1.761,1.761,0,0,1-.425-1.028c.229-.593.222-.626.76-.955" transform="translate(-35.363 -96.957)" fill="#ffcb77"/>
          <path id="Trazado_1013498" data-name="Trazado 1013498" d="M55.076,158.429a3.237,3.237,0,0,1,1.4.173,2.676,2.676,0,0,1,.207,1.688,3.056,3.056,0,0,1-1.458-.126,3.457,3.457,0,0,1-.152-1.735" transform="translate(-35.575 -102.395)" fill="#ffcb77"/>
          <path id="Trazado_1013499" data-name="Trazado 1013499" d="M68.328,143.688a2.275,2.275,0,0,1,.527-1.562.782.782,0,0,1,.84-.014,1.378,1.378,0,0,1,.441.994,1.319,1.319,0,0,1-.444.948l-.848.2Z" transform="translate(-44.162 -91.777)" fill="#ffcb77"/>
          <path id="Trazado_1013500" data-name="Trazado 1013500" d="M55.058,166.511a2.723,2.723,0,0,1,1.378.107,2.928,2.928,0,0,1,.208,1.742,8.115,8.115,0,0,1-1.459-.079c-.343-.483-.162-1.181-.127-1.77" transform="translate(-35.534 -107.597)" fill="#ffcb77"/>
          <path id="Trazado_1013501" data-name="Trazado 1013501" d="M68.748,134.126a2.181,2.181,0,0,1,1.314.179,3.226,3.226,0,0,1,.127,1.93,2.169,2.169,0,0,1-1.443-.41,2.852,2.852,0,0,1,0-1.7" transform="translate(-44.345 -86.677)" fill="#ffcb77"/>
          <path id="Trazado_1013502" data-name="Trazado 1013502" d="M54.965,142.018a3.432,3.432,0,0,1,.825.108c.45.168.506.363.711.761a2.784,2.784,0,0,1-.3,1.276l-.952-.1a1.251,1.251,0,0,1-.581-.849,1.541,1.541,0,0,1,.3-1.2" transform="translate(-35.316 -91.79)" fill="#ffcb77"/>
          <path id="Trazado_1013503" data-name="Trazado 1013503" d="M55.1,126.672a4.209,4.209,0,0,1,1.4.115,3.439,3.439,0,0,1,.274,1.84,3.291,3.291,0,0,1-1.513-.179,3.063,3.063,0,0,1-.157-1.776" transform="translate(-35.581 -81.867)" fill="#ffcb77"/>
          <path id="Trazado_1013504" data-name="Trazado 1013504" d="M55.033,134.055a2.394,2.394,0,0,1,1.477.326,3.2,3.2,0,0,1,.12,1.755,2.667,2.667,0,0,1-1.478-.237,3.277,3.277,0,0,1-.118-1.843" transform="translate(-35.523 -86.644)" fill="#ffcb77"/>
          <path id="Trazado_1013505" data-name="Trazado 1013505" d="M54.937,174.03a8.808,8.808,0,0,1,1.069.088,1.481,1.481,0,0,1,.681.85,2.069,2.069,0,0,1-.358,1.059,6.611,6.611,0,0,1-1.26.046c-.409-.455-.163-1.417-.132-2.041" transform="translate(-35.442 -112.481)" fill="#ffcb77"/>
          <path id="Trazado_1013506" data-name="Trazado 1013506" d="M54.983,190.091a2.71,2.71,0,0,1,1.6.252,3.058,3.058,0,0,1,.031,1.694,3.2,3.2,0,0,1-1.405-.055,3.533,3.533,0,0,1-.231-1.891" transform="translate(-35.526 -122.857)" fill="#ffcb77"/>
          <path id="Trazado_1013507" data-name="Trazado 1013507" d="M54.534,213.889a2.726,2.726,0,0,1,1.9.155,2.767,2.767,0,0,1-.576,1.947c-.306.064-.249.125-.447-.011-.744-.51-.729-1.282-.877-2.091" transform="translate(-35.247 -138.179)" fill="#ffcb77"/>
          <path id="Trazado_1013508" data-name="Trazado 1013508" d="M61.8,150.218a5.585,5.585,0,0,1,1.022.082,1.759,1.759,0,0,1,.574,1.1c-.131.43-.125.534-.469.811a2.185,2.185,0,0,1-1.346-.2,1.727,1.727,0,0,1-.435-1.141,1.069,1.069,0,0,1,.654-.649" transform="translate(-39.52 -97.09)" fill="#ffcb77"/>
          <path id="Trazado_1013509" data-name="Trazado 1013509" d="M61.514,126.629a3.777,3.777,0,0,1,1.706.127,3.094,3.094,0,0,1,.187,1.813,3.528,3.528,0,0,1-1.71-.144,2.913,2.913,0,0,1-.184-1.8" transform="translate(-39.726 -81.821)" fill="#ffcb77"/>
          <path id="Trazado_1013510" data-name="Trazado 1013510" d="M61.207,221.586a3.5,3.5,0,0,1,1.739.14,3.268,3.268,0,0,1,.2,1.839,3.924,3.924,0,0,1-1.73-.168,3.06,3.06,0,0,1-.2-1.811" transform="translate(-39.537 -143.192)" fill="#ffcb77"/>
          <path id="Trazado_1013511" data-name="Trazado 1013511" d="M61.441,158.254a7.7,7.7,0,0,1,1.2,0,1.177,1.177,0,0,1,.635.757,3.306,3.306,0,0,1-.307,1.238l-1.146-.06c-.5-.307-.595-.336-.838-.858a2,2,0,0,1,.454-1.074" transform="translate(-39.418 -102.268)" fill="#ffcb77"/>
          <path id="Trazado_1013512" data-name="Trazado 1013512" d="M61.286,190.133a3.635,3.635,0,0,1,1.853.129,3.393,3.393,0,0,1,.2,1.837,3.514,3.514,0,0,1-1.93-.26,3.116,3.116,0,0,1-.121-1.706" transform="translate(-39.574 -122.853)" fill="#ffcb77"/>
          <path id="Trazado_1013513" data-name="Trazado 1013513" d="M61.281,134.174a2.3,2.3,0,0,1,1.781.283,2.849,2.849,0,0,1,.087,1.737,8.289,8.289,0,0,1-1.182-.044,1.158,1.158,0,0,1-.9-.611,3.867,3.867,0,0,1,.209-1.365" transform="translate(-39.473 -86.69)" fill="#ffcb77"/>
          <path id="Trazado_1013514" data-name="Trazado 1013514" d="M61.172,198.124a4.474,4.474,0,0,1,1.876.116,3.5,3.5,0,0,1,.214,1.851,4.278,4.278,0,0,1-1.839-.173,2.841,2.841,0,0,1-.251-1.794" transform="translate(-39.522 -128.027)" fill="#ffcb77"/>
          <path id="Trazado_1013515" data-name="Trazado 1013515" d="M61.271,166.146a6.736,6.736,0,0,1,1.126-.068,1.014,1.014,0,0,1,.854.482,5.342,5.342,0,0,1-.064,1.6,7.445,7.445,0,0,1-1.28-.068c-.463-.1-.537-.227-.779-.587a4.8,4.8,0,0,1,.144-1.357" transform="translate(-39.506 -107.336)" fill="#ffcb77"/>
          <path id="Trazado_1013516" data-name="Trazado 1013516" d="M61.809,141.99a5.717,5.717,0,0,1,1.019.271,1.487,1.487,0,0,1,.434,1.1c-.072.514-.278.633-.659.917-.493-.064-.921-.027-1.292-.4a1.377,1.377,0,0,1-.372-1.135,1.42,1.42,0,0,1,.869-.754" transform="translate(-39.387 -91.772)" fill="#ffcb77"/>
          <path id="Trazado_1013517" data-name="Trazado 1013517" d="M61.174,182.1a3.481,3.481,0,0,1,1.908.172,3.475,3.475,0,0,1,.168,1.91,4.375,4.375,0,0,1-1.862-.253,2.951,2.951,0,0,1-.215-1.829" transform="translate(-39.513 -117.665)" fill="#ffcb77"/>
          <path id="Trazado_1013518" data-name="Trazado 1013518" d="M61.493,213.4a4.15,4.15,0,0,1,1.822.358,2.535,2.535,0,0,1-.329,1.705,1.363,1.363,0,0,1-1.121.19,1.471,1.471,0,0,1-.595-.617,1.867,1.867,0,0,1,.222-1.636" transform="translate(-39.527 -137.927)" fill="#ffcb77"/>
          <path id="Trazado_1013519" data-name="Trazado 1013519" d="M61.232,174.208a2.915,2.915,0,0,1,1.82.208,3.351,3.351,0,0,1,.062,1.9,3.533,3.533,0,0,1-1.948-.4,2.112,2.112,0,0,1,.066-1.7" transform="translate(-39.435 -112.566)" fill="#ffcb77"/>
          <path id="Trazado_1013520" data-name="Trazado 1013520" d="M61.3,205.691a6.159,6.159,0,0,1,1.211.052,1.447,1.447,0,0,1,.659.821,3.011,3.011,0,0,1-.327,1.321,3.418,3.418,0,0,1-1.45-.157,1.046,1.046,0,0,1-.6-.837,2.456,2.456,0,0,1,.5-1.2" transform="translate(-39.296 -132.938)" fill="#ffcb77"/>
          <path id="Trazado_1013521" data-name="Trazado 1013521" d="M63.388,116.93a2.062,2.062,0,0,1,.024.59,1.786,1.786,0,0,0,.062.613,1.511,1.511,0,0,1-.284,1.385,1.111,1.111,0,0,1-.637.416,1.255,1.255,0,0,1-.863-.574,5.233,5.233,0,0,1-.1-1.356c.616-.323,1.2-.709,1.8-1.073" transform="translate(-39.805 -75.575)" fill="#ffcb77"/>
          <path id="Trazado_1013522" data-name="Trazado 1013522" d="M53.9,205.812a2.483,2.483,0,0,1,1.115.146.942.942,0,0,1,.277.847,1.99,1.99,0,0,1-.741,1.1c-.423.122-.49.182-.9.033a1.672,1.672,0,0,1-.288-1.06c.089-.359.108-.187-.056-.516a1.866,1.866,0,0,0-.207,1.163l0,.218-.178-.066a3.475,3.475,0,0,1-.26-.691,1.228,1.228,0,0,1,.155-.958Z" transform="translate(-34.018 -133.016)" fill="#ffcb77"/>
          <path id="Trazado_1013523" data-name="Trazado 1013523" d="M53.323,198.324a10.064,10.064,0,0,1,1.057-.082,1.68,1.68,0,0,1,.694.877,1.293,1.293,0,0,1-.237.8c-.216.3-.489.227-.836.271-.644-.087-1.165-.008-1.563-.608a.785.785,0,0,1-.065-.859,1.473,1.473,0,0,1,.95-.4" transform="translate(-33.788 -128.13)" fill="#ffcb77"/>
          <path id="Trazado_1013524" data-name="Trazado 1013524" d="M52.705,182.3c.763.2,1.542-.243,2.267.077a3.453,3.453,0,0,1,.26,1.822,5.361,5.361,0,0,1-2.172-.192,3.011,3.011,0,0,1-.356-1.706" transform="translate(-34.065 -117.8)" fill="#ffcb77"/>
        </g>
      </g>
    </g>
  </g>
</svg>
