<svg xmlns="http://www.w3.org/2000/svg" xmlns:xlink="http://www.w3.org/1999/xlink" width="105.627" height="177.182" viewBox="0 0 105.627 177.182">
  <defs>
    <clipPath id="clip-path">
      <rect id="Rectángulo_461355" data-name="Rectángulo 461355" width="87.28" height="177.182" fill="none"/>
    </clipPath>
  </defs>
  <g id="Grupo_1196040" data-name="Grupo 1196040" transform="translate(-899.687 -246.317)">
    <g id="Grupo_1194433" data-name="Grupo 1194433" transform="translate(-29.737 -92.881)">
      <path id="Trazado_1013556" data-name="Trazado 1013556" d="M472.11,222.552a52.814,52.814,0,1,0,52.813-52.813,52.813,52.813,0,0,0-52.813,52.813" transform="translate(457.314 231.766)" fill="#2ed19b"/>
      <g id="Grupo_1194730" data-name="Grupo 1194730" transform="translate(936.832 339.198)">
        <g id="Grupo_1194400" data-name="Grupo 1194400" clip-path="url(#clip-path)">
          <path id="Trazado_1013169" data-name="Trazado 1013169" d="M176.045,215.414a2.616,2.616,0,0,1,.5.032,2.026,2.026,0,0,1,1.312.781,1.756,1.756,0,0,1,.289,1.475,2.215,2.215,0,0,1-1.233,1.408,2.359,2.359,0,0,1-1.77-.615,1.558,1.558,0,0,1-.374-1.361,2.629,2.629,0,0,1,1.279-1.72" transform="translate(-116.326 -143.404)" fill="#fe6d73"/>
          <path id="Trazado_1013170" data-name="Trazado 1013170" d="M44.043,82.894a35.288,35.288,0,0,1,2.76,2.667A35.945,35.945,0,0,1,43.847,88.4c-.559-.04-2.309-2.078-2.81-2.59a13.847,13.847,0,0,1,3.006-2.913" transform="translate(-26.95 -55.184)" fill="#fff"/>
          <path id="Trazado_1013171" data-name="Trazado 1013171" d="M14.043,57.858a14.448,14.448,0,0,1,3.1,3c-.972.908-1.916,1.82-2.815,2.8-.888-.284-2.193-2-2.888-2.713.762-1.086,1.731-2.084,2.6-3.092" transform="translate(-7.619 -38.517)" fill="#fff"/>
          <path id="Trazado_1013172" data-name="Trazado 1013172" d="M25.5,0a2.132,2.132,0,0,1,1.562.625c.968,1.153.482,4.553.489,6.014,1.6.009,4.258-.464,5.646.353A1.623,1.623,0,0,1,34.021,8.2,1.091,1.091,0,0,1,33.7,9.206c-1.068.986-4.618.532-6.093.522-.058,1.677.334,3.517-.042,5.157a2.081,2.081,0,0,1-1.1,1.431,2.071,2.071,0,0,1-1.515-.5c-1.089-1.072-.6-4.616-.589-6.147-1.624-.038-4.809.558-6.119-.4a1.318,1.318,0,0,1-.549-1.038,1.294,1.294,0,0,1,.4-1.093c1.178-1.094,4.653-.628,6.238-.6.037-1.728-.281-3.676.095-5.364C24.582.481,24.936.329,25.5,0" transform="translate(-11.776)" fill="#c0f1e1"/>
          <path id="Trazado_1013173" data-name="Trazado 1013173" d="M226.635,186.494a4.177,4.177,0,0,1,1.054.077c1.395.335,5.439,4.382,6.085,5.717a1.723,1.723,0,0,1,.019,1.544c-.655,1.6-4.552,5.529-6.154,6.213-2.135-.042-4.451-2.916-5.863-4.4-.7-.739-1.567-1.869-1.414-2.966.181-1.292,5.02-5.4,6.273-6.186" transform="translate(-146.686 -124.15)" fill="#bbc3dc"/>
          <path id="Trazado_1013174" data-name="Trazado 1013174" d="M232.742,195.35a18.454,18.454,0,0,1,3.874,3.74,28.745,28.745,0,0,1-3.881,4.021c-1.335-1.386-2.868-2.559-4.126-4.02a26.973,26.973,0,0,1,4.133-3.742" transform="translate(-152.188 -130.047)" fill="#fff"/>
          <path id="Trazado_1013175" data-name="Trazado 1013175" d="M31.191,28.211a6.185,6.185,0,0,1,3.9-2.962,3.985,3.985,0,0,1,3.164.736A5.467,5.467,0,0,1,40.273,29.6a19.211,19.211,0,0,1,.041,2.861,8.626,8.626,0,0,1,5.523,3.809,8.428,8.428,0,0,1,1.223,3.634,71.194,71.194,0,0,1,.093,8.921q-.081,9.053-.036,18.108l9.367.025c0-4.918-.321-8.487,2.171-12.942A13.791,13.791,0,0,1,60.52,51.2a2.56,2.56,0,0,1,1.731-.916,2.977,2.977,0,0,1,2.119,1.192c4,4.521,3.827,9.982,3.8,15.61,1.284-.014,4.179-.374,5.165.531a2.192,2.192,0,0,1,.621,1.689c-.008,3.1-1.836,6.142-4.03,8.215-2.45,2.315-6.319,4.257-9.749,4.208a4.065,4.065,0,0,1-3.1-1.257c-1.251-1.417-.992-3.272-1.015-5.019l-17.591.091.011,9.025c1.695,0,8.226-.405,9.122.614.166.189.108.314.1.546a2.241,2.241,0,0,1-1.439.929,9.757,9.757,0,0,1-2.093,0c-.035,3.169-.282,6.556,2.069,9.062a8.482,8.482,0,0,0,1.389,1.127,53.035,53.035,0,0,1,6.556-.158c.424.5.853.985,1.236,1.514,2.5.018,4.963-.048,7.456-.164.42.316.85.623,1.244.97,6.1-.013,12.269-.962,16.979,3.759q.35.344.671.716t.612.768q.29.4.549.814t.481.855q.224.438.412.891t.339.921q.151.467.264.945t.188.963a56.883,56.883,0,0,1,.156,8.678l.017,15.975-.066,55.274a15.3,15.3,0,0,1-.311,3.544,3.81,3.81,0,0,1-2.027.667c-3.224.349-8.287,0-11.681-.017a55.08,55.08,0,0,1-5.884.03,3.286,3.286,0,0,1-1.884-.8c-.713-1.249-.305-17.417-.3-19.664-2.436-.429-7.718-.112-10.471-.112l-30.652-.007c-4.987,0-10.088.252-15.059,0a6.133,6.133,0,0,1-2.041-.4,1.816,1.816,0,0,1-.346-1.241c-.142-2.526-.014-5.134-.014-7.669l.034-15.559c.057-12.041-.066-24.092.089-36.13a14.6,14.6,0,0,1,4.392-10.646c3.2-3.083,6.891-3.851,11.2-3.76.879,1.651,1.644,3.391,2.453,5.079a48.912,48.912,0,0,0,.2-5.489A9.614,9.614,0,0,0,27.721,95c2.448-2.37,2.732-5.234,2.8-8.433a8.371,8.371,0,0,1-2.387-.037,1.214,1.214,0,0,1-.807-.68c0-.384-.026-.577.3-.851,1.093-.914,7.124-.489,8.862-.471l-.006-8.934L16.9,75.541c.023,1.695.025,3.49-1.225,4.805a3.785,3.785,0,0,1-2.787,1.113c-3.153.039-6.847-2.092-9.063-4.21C1.755,75.267,0,72.451,0,69.5a2.732,2.732,0,0,1,.675-2.2c.954-.767,2.892-.514,4.038-.5.03-3-.7-10.791.948-13.015a4.353,4.353,0,0,1,3.121-1.66c1.8.113,4.081-.076,5.42,1.391a4.941,4.941,0,0,1,1.089,3.27c.546,4.889,5.423,6.107,7.062,10.161l2.1-.009.039-16.968c-.016-3.345-.456-7.781.233-10.983q.066-.3.154-.6t.2-.591q.11-.292.242-.574t.284-.555q.153-.272.325-.532t.364-.506q.192-.246.4-.478t.435-.446a11,11,0,0,1,3.9-2.36,35.252,35.252,0,0,1,.16-4.129" transform="translate(0 -16.76)" fill="#033761"/>
          <path id="Trazado_1013176" data-name="Trazado 1013176" d="M144.055,244.064a30.672,30.672,0,0,1,5.18.012,34.453,34.453,0,0,1-2.013,3.894,18.927,18.927,0,0,1-.8-3.811c-.8.006-1.574-.026-2.371-.1" transform="translate(-95.899 -162.402)" fill="#abf2df"/>
          <path id="Trazado_1013177" data-name="Trazado 1013177" d="M100.307,32.39c1.154,1.4.861,3.024.821,4.736l-2.173-.016a14.382,14.382,0,0,1,.015-2.867,2.68,2.68,0,0,1,1.337-1.853" transform="translate(-65.829 -21.562)" fill="#bbc3dc"/>
          <path id="Trazado_1013178" data-name="Trazado 1013178" d="M100.088,330.017a27.03,27.03,0,0,0,1.569,3.214,32.154,32.154,0,0,1-2.54,4.6c-.053-2.193-.362-4.841.171-6.979.124-.5.378-.589.8-.835" transform="translate(-65.893 -219.697)" fill="#227c9d"/>
          <path id="Trazado_1013179" data-name="Trazado 1013179" d="M103.138,31.973a3.434,3.434,0,0,1,2.671.122,2.683,2.683,0,0,1,1.152,1.82,11.833,11.833,0,0,1,.066,2.811l-3.067-.016c.041-1.712.334-3.337-.821-4.736" transform="translate(-68.66 -21.146)" fill="#bbc3dc"/>
          <path id="Trazado_1013180" data-name="Trazado 1013180" d="M79.266,61.176a13.019,13.019,0,0,1,.211-1.662,6.854,6.854,0,0,1,3.234-4.43c-.012,2-.182,4.142,0,6.123Z" transform="translate(-52.769 -36.67)" fill="#1e3a8a"/>
          <path id="Trazado_1013181" data-name="Trazado 1013181" d="M234.755,375.621a36.277,36.277,0,0,1,4.187-.075l0,4.992-3.543,0c.031-1.4.307-3.453-.161-4.744Z" transform="translate(-156.28 -249.991)" fill="#fff"/>
          <path id="Trazado_1013182" data-name="Trazado 1013182" d="M232.749,396.423l3.745-.009.013,4.836c-1.835.007-3.775.131-5.6-.04a3.545,3.545,0,0,0,1.568-.246c.786-1.04.307-3.267.27-4.541" transform="translate(-153.721 -263.899)" fill="#fff"/>
          <path id="Trazado_1013183" data-name="Trazado 1013183" d="M236.472,334.919c1.24-.009,2.482-.037,3.721-.02l.009,4.922-3.725-.014c.073-1.625.014-3.262-.005-4.888" transform="translate(-157.423 -222.944)" fill="#fff"/>
          <path id="Trazado_1013184" data-name="Trazado 1013184" d="M232.343,314.3c1.278,0,2.564-.037,3.841.005l-.006,4.86a52.5,52.5,0,0,1-5.73-.061,13.744,13.744,0,0,1,2.047-.057q.009-2.376-.152-4.746" transform="translate(-153.413 -209.225)" fill="#fff"/>
          <path id="Trazado_1013185" data-name="Trazado 1013185" d="M236.548,416.844h3.684c-.009,1.7,0,3.4-.028,5.1l-3.641-.013c.027-1.693-.005-3.391-.015-5.084" transform="translate(-157.473 -277.499)" fill="#fff"/>
          <path id="Trazado_1013186" data-name="Trazado 1013186" d="M236.528,437.878l3.663-.028.015,5.118-3.67-.028Z" transform="translate(-157.46 -291.483)" fill="#fff"/>
          <path id="Trazado_1013187" data-name="Trazado 1013187" d="M229.411,355.639c2.018-.15,4.049-.1,6.071-.09v4.792l-5.087.014a3.967,3.967,0,0,0,.973-.2,2.952,2.952,0,0,0,.358-1.865c-.064-.863-.066-1.728-.077-2.593a16.166,16.166,0,0,1-2.237-.059" transform="translate(-152.722 -236.684)" fill="#fff"/>
          <path id="Trazado_1013188" data-name="Trazado 1013188" d="M230.456,293.068c1.91-.139,3.839-.084,5.753-.077l.009,5.045-3.863.017a45.538,45.538,0,0,0-.071-4.739,4.773,4.773,0,0,0-1.828-.246" transform="translate(-153.418 -195.038)" fill="#fff"/>
          <path id="Trazado_1013189" data-name="Trazado 1013189" d="M21.7,124.549a4.5,4.5,0,0,1-1.689-.16c-.252-1.742-.382-10.283.436-11.452.588-.84,1.732-.9,2.654-1.009a10.051,10.051,0,0,0-1.079,2.094c-.763,2.655-.256,7.558-.322,10.527" transform="translate(-13.195 -74.512)" fill="#bbc3dc"/>
          <path id="Trazado_1013190" data-name="Trazado 1013190" d="M193.151,459.015l11.719.006a47.289,47.289,0,0,1,6.286.1,2.133,2.133,0,0,1,.228,1.246l-12.154.006a40.629,40.629,0,0,1-5.9-.1,2.364,2.364,0,0,1-.175-1.263" transform="translate(-128.582 -305.541)" fill="#fff"/>
          <path id="Trazado_1013191" data-name="Trazado 1013191" d="M161.338,250.723c.821-.016,1.646-.048,2.467-.046,0,3.942.123,7.911.026,11.848a25.973,25.973,0,0,1-2.892-6.013c-.3-1.26.173-2.795-.531-3.925Z" transform="translate(-106.787 -166.88)" fill="#bbc3dc"/>
          <path id="Trazado_1013192" data-name="Trazado 1013192" d="M45.632,119.738c.546,4.889,5.423,6.107,7.062,10.161l-7.117.017Z" transform="translate(-30.341 -79.711)" fill="#bbc3dc"/>
          <path id="Trazado_1013193" data-name="Trazado 1013193" d="M193.308,469.046a57.043,57.043,0,0,1,6.5-.056l11.655.078,0,9.69c-1.354-.009-2.744.051-4.093-.041.108-3.172,0-6.369-.032-9.543q-4.705.028-9.41-.021c-1.536,0-3.089.039-4.619-.108" transform="translate(-128.688 -312.168)" fill="#fff"/>
          <path id="Trazado_1013194" data-name="Trazado 1013194" d="M193.281,469.293c1.53.147,3.083.1,4.619.108l.026,9.524-4.658,0Z" transform="translate(-128.661 -312.415)" fill="#fff"/>
          <path id="Trazado_1013195" data-name="Trazado 1013195" d="M88.264,384.332l.445.1a1.539,1.539,0,0,1,.153.519,18.871,18.871,0,0,1-.045,2.434l-.052,6.988c-.034,5.18.243,10.407.049,15.579-.3.321-.993.29-1.438.342l-.454-.168c-.345-.578-.042-21.712.22-23.7a2.486,2.486,0,0,1,1.122-2.094" transform="translate(-57.762 -255.855)" fill="#bbc3dc"/>
          <path id="Trazado_1013196" data-name="Trazado 1013196" d="M210.087,252.31c3.7-.087,6.6.357,9.361,3.019,2.483,2.4,3.2,5.285,3.256,8.631l-4.034-.014a9.49,9.49,0,0,0-.037-1.5c-.572-4.856-5.172-7.355-8.546-10.138" transform="translate(-139.858 -167.96)" fill="#fff"/>
          <path id="Trazado_1013197" data-name="Trazado 1013197" d="M26.64,111.928a3.5,3.5,0,0,1,2.588.675,2.5,2.5,0,0,1,.638.968c.508,1.43.141,9.037.123,11.046-1.583-.022-3.168-.027-4.751-.069.067-2.968-.441-7.871.322-10.527a10.051,10.051,0,0,1,1.079-2.094" transform="translate(-16.733 -74.512)" fill="#bbc3dc"/>
          <path id="Trazado_1013198" data-name="Trazado 1013198" d="M119.242,296.393q.267,3.726.733,7.432c-5.083,4.314-10.669,8.2-16.031,12.166-3.333,2.466-7.237,5.695-10.762,7.718a18.569,18.569,0,0,1,2.386-4.534.662.662,0,0,0,.717-.067,25.625,25.625,0,0,0,2.574-2.169c3.377-2.778,6.622-5.737,10.051-8.445q2.354-1.829,4.782-3.558c1.4-.981,3.41-1.9,4.443-3.258,1.014-1.337.568-3.543,1.052-5.119.017-.055.036-.11.055-.165" transform="translate(-62.033 -197.313)" fill="#bbc3dc"/>
          <path id="Trazado_1013199" data-name="Trazado 1013199" d="M207.125,469.616q4.7.049,9.41.021c.029,3.174.14,6.371.032,9.542-3.135-.069-6.281-.027-9.417-.039Z" transform="translate(-137.886 -312.63)" fill="#fff"/>
          <path id="Trazado_1013200" data-name="Trazado 1013200" d="M178.571,106.365c.081.079.164.157.244.237,3.929,3.954,3.684,9.355,3.646,14.457l-3.5-.011q-2.166.01-4.332-.025c-.05-5.528-.153-10.394,3.947-14.658" transform="translate(-116.241 -70.809)" fill="#bbc3dc"/>
          <path id="Trazado_1013201" data-name="Trazado 1013201" d="M91.568,52.759c2.348-.1,6.657-.444,8.807.207a5.048,5.048,0,0,1,1.958,1.238,7.963,7.963,0,0,1,2.366,4.583.807.807,0,0,1-.246.674,25.723,25.723,0,0,1-4.952.124l-7.93-.044H89.408c-.185-1.981-.015-4.126,0-6.123a16.8,16.8,0,0,1,2.162-.658" transform="translate(-59.463 -35.003)" fill="#1e3a8a"/>
          <path id="Trazado_1013203" data-name="Trazado 1013203" d="M125.557,244.289c.8.07,1.57.1,2.371.1a18.926,18.926,0,0,0,.8,3.811c-1.99,4.109-4.409,8.107-6.734,12.037-1.837-2.185-3.819-4.276-5.721-6.406,2.978-3.3,6.133-6.412,9.288-9.538" transform="translate(-77.402 -162.627)" fill="#fef9ef"/>
          <path id="Trazado_1013204" data-name="Trazado 1013204" d="M89.038,208.68l3.261.005,1.181.254c.37.84.21,18.172-.189,19.252q-4.3-4.379-8.539-8.827c3.4-3.243,4.113-6.094,4.285-10.685" transform="translate(-56.421 -138.921)" fill="#ffe2b3"/>
          <path id="Trazado_1013205" data-name="Trazado 1013205" d="M107.326,208.664c2.089,0,4.205-.06,6.291.044-.018,4.676.19,7.784,3.511,11.337-1.342,1.4-7.345,8.046-8.53,8.336l-.279-.211c.4-1.08.559-18.412.189-19.252Z" transform="translate(-71.448 -138.9)" fill="#feb3b1"/>
          <path id="Trazado_1013206" data-name="Trazado 1013206" d="M74.008,245.058l.693-.068c1.888.716,7.773,7.6,9.464,9.4-1.3,1.533-2.707,2.975-4.124,4.4l-3.135,3.01c-1.472-2.968-3.059-5.886-4.4-8.915.394-2.462.1-5,.266-7.486a2.31,2.31,0,0,1,1.239-.34" transform="translate(-48.266 -163.093)" fill="#fef9ef"/>
          <path id="Trazado_1013207" data-name="Trazado 1013207" d="M202,504.161q4.654-.033,9.308.035c-.005,2.127.064,4.288-.05,6.411-4.114,0-8.28.13-12.388-.03-1.909.053-3.825.015-5.735.006-.052-2.144-.021-4.3-.027-6.443Z" transform="translate(-128.554 -335.613)" fill="#bbc3dc"/>
          <path id="Trazado_1013208" data-name="Trazado 1013208" d="M96.026,277.286c2.189,2.179,4.052,4.647,6.245,6.82-1.324,2.641-2.824,5.209-4.261,7.791-1.156,2.077-2.253,4.254-3.572,6.23a27.033,27.033,0,0,1-1.569-3.214c-1.454-3.321-3.125-6.554-4.733-9.8a78.4,78.4,0,0,0,7.89-7.824" transform="translate(-58.673 -184.593)" fill="#fef9ef"/>
          <path id="Trazado_1013209" data-name="Trazado 1013209" d="M5.893,155.965c7.488-.11,15,0,22.485.025l-.01,4.466-7.645-.011a4.066,4.066,0,0,0-.266-.388,1.906,1.906,0,0,0-1.315-.716c-1.269.682-.216,4.85-.76,6.446a2.342,2.342,0,0,1-1.8.817c-2.4.03-5.56-2.031-7.254-3.62a10.091,10.091,0,0,1-3.438-7.019" transform="translate(-3.923 -103.796)" fill="#bbc3dc"/>
          <path id="Trazado_1013210" data-name="Trazado 1013210" d="M140.675,156.256c2.879-.1,5.794,0,8.675.015l16.355.064a11.643,11.643,0,0,1-3.9,7.311c-.468.358-.945.715-1.442,1.031-1.651,1.049-5.467,2.769-7.421,2.114-2.165-.725-.853-4.67-1.673-6.477a1.325,1.325,0,0,0-.982-.325c-.385.082-.7.5-1.049.622-.795.285-7.212.053-8.558.052Z" transform="translate(-93.649 -103.994)" fill="#bbc3dc"/>
          <path id="Trazado_1013211" data-name="Trazado 1013211" d="M120.408,256.393c.7,1.13.236,2.666.531,3.925a25.975,25.975,0,0,0,2.892,6.013c.086,1.146.172,2.283.164,3.433-.018.055-.038.11-.055.165-.484,1.576-.038,3.782-1.052,5.119-1.032,1.361-3.044,2.277-4.443,3.258q-2.427,1.729-4.782,3.558c-3.429,2.708-6.674,5.667-10.051,8.445a25.628,25.628,0,0,1-2.574,2.169.662.662,0,0,1-.717.067c1.444-3.172,3.992-7.207,5.725-10.36Z" transform="translate(-66.785 -170.685)" fill="#bbc3dc"/>
          <path id="Trazado_1013212" data-name="Trazado 1013212" d="M79.2,79.512l4.441.02c4.734.073,9.474-.089,14.206.033-.021,10.021.145,20.064-.032,30.081-4.594.032-9.228.162-13.819.01l-4.847-.024Z" transform="translate(-52.689 -52.932)" fill="#bbc3dc"/>
          <path id="Trazado_1013215" data-name="Trazado 1013215" d="M193.114,252.016a30.842,30.842,0,0,1,5.674.026c3.373,2.783,7.974,5.282,8.546,10.138a9.49,9.49,0,0,1,.037,1.5,3.071,3.071,0,0,0-2.6.646c-.267.276-.2.412-.156.755a2.661,2.661,0,0,0,.983.643,4.774,4.774,0,0,1,1.828.246,45.538,45.538,0,0,1,.071,4.739c-.746-.02-1.683-.178-2.279.359a1.254,1.254,0,0,0-.435.752,1.4,1.4,0,0,0,.716.853,4.46,4.46,0,0,0,1.992.1q.161,2.37.152,4.746a13.748,13.748,0,0,0-2.047.058,2.607,2.607,0,0,0-.957,1.08c.017.236-.03.377.152.555.676.657,1.956.491,2.818.459.019,1.626.078,3.263.005,4.888a3.491,3.491,0,0,0-2.421.395c-.237.187-.231.377-.313.654a2.073,2.073,0,0,0,.369,1.044,16.156,16.156,0,0,0,2.237.059c.012.865.013,1.73.077,2.593a2.952,2.952,0,0,1-.358,1.865,3.968,3.968,0,0,1-.973.2,1.923,1.923,0,0,0-1.254.38.945.945,0,0,0-.108.91,1.521,1.521,0,0,0,.906.7,4.131,4.131,0,0,0,.915-.016l.215-.009.129-.008.478.17c.468,1.291.192,3.346.161,4.744-.9-.028-1.842-.206-2.55.469a1.043,1.043,0,0,0-.34.607,1.335,1.335,0,0,0,.707.809,5.138,5.138,0,0,0,2.1.095c.037,1.275.516,3.5-.27,4.541a3.545,3.545,0,0,1-1.568.246,3.143,3.143,0,0,0-1.024,1.07c0,.217-.065.371.1.542.627.665,1.994.46,2.812.421.01,1.694.043,3.391.015,5.084a3.63,3.63,0,0,0-2.558.4,1.054,1.054,0,0,0-.4.608,1.2,1.2,0,0,0,.655.814,4.93,4.93,0,0,0,2.281.143l.008,5.062-10.147.015-4.358.017Z" transform="translate(-128.559 -167.692)" fill="#fff"/>
          <path id="Trazado_1013216" data-name="Trazado 1013216" d="M193.13,319.416l-.016-67.165c1.509.1,3.012.045,4.522.077q-.357,33.536-.147,67.071Z" transform="translate(-128.559 -167.927)" fill="#fff"/>
          <path id="Trazado_1013217" data-name="Trazado 1013217" d="M124.765,249.929c1.157-.072,2.313-.038,3.471-.017.128,4.187.018,8.41.01,12.6l-.09,30.561.092,27.712q-14.8-.151-29.6-.091l.016-10.741-.012-9.3c0-2.056-.086-4.145.118-6.193,1.87-2.026,4.535-3.568,6.724-5.248l20.563-15.462a156.9,156.9,0,0,1-1.288-23.824" transform="translate(-65.659 -166.352)" fill="#182e6e"/>
          <path id="Trazado_1013218" data-name="Trazado 1013218" d="M128.321,340.327c-.012,4.333-.086,8.678.018,13.009-.182,5.549-.05,11.146,0,16.7-4.508,2.326-11.414,3.39-16.482,3.9a4.319,4.319,0,0,1-6.8,1.545,8.908,8.908,0,0,1-.974-.846c-1.633.143-3.354.038-5,.042q.039-2.233-.007-4.465c.117-3.376.036-6.786.038-10.166,1.864-1.5,3.574-3.288,5.521-4.661,7.631-5.383,16-9.724,23.68-15.057" transform="translate(-65.96 -226.561)" fill="#182e6e"/>
          <path id="Trazado_1013219" data-name="Trazado 1013219" d="M115.419,383.5a6.257,6.257,0,0,1,2.248.132,4.482,4.482,0,0,1,2.775,2.343q.091.2.162.4t.122.415q.051.211.08.426t.038.432q.008.217-.005.433a4.326,4.326,0,0,1-.048.431q-.035.214-.09.424t-.132.413a5.063,5.063,0,0,1-3.084,2.921,5.75,5.75,0,0,1-2.749-.246,4.3,4.3,0,0,1-.775-.382q-.184-.115-.355-.247t-.328-.282q-.157-.149-.3-.313t-.265-.341q-.124-.178-.229-.367a4.209,4.209,0,0,1-.192-.387,4.412,4.412,0,0,1-.078-3.36,5.349,5.349,0,0,1,3.2-2.844" transform="translate(-74.507 -255.276)" fill="#033761"/>
          <path id="Trazado_1013220" data-name="Trazado 1013220" d="M119.727,389.549a4.491,4.491,0,0,1,1.282.138,2.424,2.424,0,0,1,1.4,1.258,2.284,2.284,0,0,1,.02,1.848,2.714,2.714,0,0,1-1.691,1.492,5.149,5.149,0,0,1-1.322-.124,2.572,2.572,0,0,1-1.443-1.266,2.111,2.111,0,0,1-.083-1.666,3.019,3.019,0,0,1,1.835-1.68" transform="translate(-78.395 -259.328)" fill="#fff"/>
          <path id="Trazado_1013221" data-name="Trazado 1013221" d="M112.533,428.767a5.411,5.411,0,0,1-.659-3.738,4.348,4.348,0,0,1,2.03-2.716,4.443,4.443,0,0,1,1.3-.545,4.427,4.427,0,0,1,.934-.125,4.473,4.473,0,0,1,1.4.185,4.362,4.362,0,0,1,2.658,2.128,5.329,5.329,0,0,1,.114,4.113,4.319,4.319,0,0,1-6.8,1.545,8.91,8.91,0,0,1-.974-.846" transform="translate(-74.407 -280.692)" fill="#033761"/>
          <path id="Trazado_1013222" data-name="Trazado 1013222" d="M119.253,427.5a7.6,7.6,0,0,1,1.212.028,2.737,2.737,0,0,1,1.785,1.277,2.229,2.229,0,0,1,.115.214,2.231,2.231,0,0,1,.2.7,2.1,2.1,0,0,1,.013.243,2.276,2.276,0,0,1-.014.243,2.241,2.241,0,0,1-.04.24,2.189,2.189,0,0,1-.066.234,2.89,2.89,0,0,1-1.641,1.643,7.5,7.5,0,0,1-1.026-.011,2.52,2.52,0,0,1-1.693-1.037,2.3,2.3,0,0,1-.43-1.834,2.812,2.812,0,0,1,1.59-1.941" transform="translate(-78.301 -284.583)" fill="#fff"/>
          <path id="Trazado_1013223" data-name="Trazado 1013223" d="M23.144,250.974a13.78,13.78,0,0,1,7.569-2.56c1.978,2.883,3.2,6.556,4.795,9.69l1.236,2.482c1.212,2.165,2.226,4.465,3.3,6.7.841,1.757,1.791,3.514,2.477,5.337.242.62.5,1.238.7,1.873l-.022,6.268c0,.91-.037,1.83.036,2.737l0,.142a6.081,6.081,0,0,1-1.251,5.247c-.166.46-.344.919-.492,1.385a6.1,6.1,0,0,1-1.514,3.848c-.36,8.563-.627,17.1-.614,25.67a29.537,29.537,0,0,1-3.155-.076c-.51-.046-1.059-.007-1.573,0a32.58,32.58,0,0,1-5.241.008l-1.348,0a51.294,51.294,0,0,1-5.259.023c-.507.021-1.016.057-1.523.042-.949.034-1.9.037-2.85.054l.063-41.085-.014-12.172a60.843,60.843,0,0,1,.137-7.339,14.441,14.441,0,0,1,1.918-5.288,10.871,10.871,0,0,1,2.618-2.991" transform="translate(-12.264 -165.373)" fill="#bbc3dc"/>
          <path id="Trazado_1013224" data-name="Trazado 1013224" d="M85.893,367.114a1.82,1.82,0,0,1-.535.154l-.2-.158c-.011-.1-.025-.2-.034-.294a4.341,4.341,0,0,1,1.049-2.986,17.749,17.749,0,0,1,.213,1.9c-.166.46-.344.919-.492,1.385" transform="translate(-56.659 -242.208)" fill="#fff"/>
          <path id="Trazado_1013225" data-name="Trazado 1013225" d="M27.336,256.072a3.021,3.021,0,0,1,.06,2.193,1.9,1.9,0,0,1-1.355.963,3.215,3.215,0,0,1-1.322-.165,10.871,10.871,0,0,1,2.618-2.991" transform="translate(-16.455 -170.471)" fill="#fff"/>
          <path id="Trazado_1013226" data-name="Trazado 1013226" d="M66.406,277.4l1.236,2.482a3.11,3.11,0,0,1-.952.611,1.323,1.323,0,0,1-1.127-.143,1.639,1.639,0,0,1-.671-.966,1.833,1.833,0,0,1,.25-1.483c.335-.429.774-.415,1.264-.5" transform="translate(-43.162 -184.67)" fill="#fff"/>
          <path id="Trazado_1013227" data-name="Trazado 1013227" d="M86.974,322.718c-.062.147-.139.29-.213.43a1.847,1.847,0,0,1-1.181,1.14,1.381,1.381,0,0,1-.874-.392,1.982,1.982,0,0,1-.561-1.378,1.612,1.612,0,0,1,.576-1.3,2.143,2.143,0,0,1,1.549-.369c.242.62.5,1.238.7,1.873" transform="translate(-56.016 -213.591)" fill="#fff"/>
          <path id="Trazado_1013228" data-name="Trazado 1013228" d="M87.01,346.147a5.9,5.9,0,0,1-.778.09,2.208,2.208,0,0,1-1.77-.614,1.376,1.376,0,0,1-.277-1,2.879,2.879,0,0,1,1.079-1.9,1.242,1.242,0,0,1,1.045-.172,1.449,1.449,0,0,1,.665.86c0,.91-.037,1.83.036,2.737" transform="translate(-56.038 -228.014)" fill="#fff"/>
          <path id="Trazado_1013229" data-name="Trazado 1013229" d="M25.291,386.909a2.2,2.2,0,0,1,1.429.314,1.889,1.889,0,0,1,.776,1.492,1.967,1.967,0,0,1-.849,1.485,8.3,8.3,0,0,1-2.1-.109c-.283-.325-.4-.415-.4-.874a2.9,2.9,0,0,1,1.15-2.308" transform="translate(-16.071 -257.571)" fill="#fff"/>
          <path id="Trazado_1013230" data-name="Trazado 1013230" d="M25.644,364.486c.043.012.087.021.13.035a2.059,2.059,0,0,1,1.35,1.048,1.774,1.774,0,0,1,.061,1.5,2,2,0,0,1-1.41,1.141c-.1-.027-.2-.051-.3-.081a1.679,1.679,0,0,1-1.181-.932,1.831,1.831,0,0,1-.034-1.537,2.054,2.054,0,0,1,1.386-1.174" transform="translate(-16.047 -242.644)" fill="#fff"/>
          <path id="Trazado_1013231" data-name="Trazado 1013231" d="M25.583,342.454a2.493,2.493,0,0,1,1.451.849,1.6,1.6,0,0,1,.341,1.333,2.177,2.177,0,0,1-1.211,1.446,6.5,6.5,0,0,1-.933-.1,1.318,1.318,0,0,1-.846-.6,1.581,1.581,0,0,1-.243-1.293,2.528,2.528,0,0,1,1.441-1.631" transform="translate(-16.04 -227.977)" fill="#fff"/>
          <path id="Trazado_1013232" data-name="Trazado 1013232" d="M25.73,408.892a2.036,2.036,0,0,1,1.533.314,1.651,1.651,0,0,1,.63,1.31,2.537,2.537,0,0,1-.948,1.951,2.141,2.141,0,0,1-1.763-.509,1.486,1.486,0,0,1-.441-1.021,2.751,2.751,0,0,1,.99-2.044" transform="translate(-16.469 -272.193)" fill="#fff"/>
          <path id="Trazado_1013233" data-name="Trazado 1013233" d="M24.881,276.462a2.11,2.11,0,0,1,1.778.561,1.678,1.678,0,0,1,.519,1.242,2.3,2.3,0,0,1-.845,1.726,2.367,2.367,0,0,1-1.859-.5,1.639,1.639,0,0,1-.525-1.318,2.4,2.4,0,0,1,.933-1.711" transform="translate(-15.943 -184.044)" fill="#fff"/>
          <path id="Trazado_1013234" data-name="Trazado 1013234" d="M65.755,342.386a3.382,3.382,0,0,1,.434.079,1.8,1.8,0,0,1,1.275.911,1.72,1.72,0,0,1,.07,1.352,2.324,2.324,0,0,1-1.363,1.357,2.553,2.553,0,0,1-1.645-1.027,1.542,1.542,0,0,1-.182-1.27c.177-.7.832-1.077,1.411-1.4" transform="translate(-42.793 -227.931)" fill="#fff"/>
          <path id="Trazado_1013235" data-name="Trazado 1013235" d="M45.634,276.392c.045,0,.091,0,.136.006a2.054,2.054,0,0,1,1.633.835,1.716,1.716,0,0,1,.251,1.3,2.345,2.345,0,0,1-1.143,1.5c-.132-.01-.265-.022-.4-.041a1.922,1.922,0,0,1-1.465-.836,1.617,1.617,0,0,1-.229-1.3,2.339,2.339,0,0,1,1.213-1.458" transform="translate(-29.541 -183.998)" fill="#fff"/>
          <path id="Trazado_1013236" data-name="Trazado 1013236" d="M65.586,320.438a2.208,2.208,0,0,1,1.857.643,1.618,1.618,0,0,1,.433,1.226,2.276,2.276,0,0,1-.978,1.651,2.255,2.255,0,0,1-1.739-.4,1.581,1.581,0,0,1-.574-1.254,2.44,2.44,0,0,1,1-1.87" transform="translate(-42.995 -213.32)" fill="#fff"/>
          <path id="Trazado_1013237" data-name="Trazado 1013237" d="M25.486,319.959a2.269,2.269,0,0,1,1.488.446,1.685,1.685,0,0,1,.621,1.35,2.465,2.465,0,0,1-1.017,1.891,2.007,2.007,0,0,1-1.723-.455,1.594,1.594,0,0,1-.465-1.2,2.681,2.681,0,0,1,1.1-2.035" transform="translate(-16.237 -213.001)" fill="#fff"/>
          <path id="Trazado_1013238" data-name="Trazado 1013238" d="M45.42,254.922a2.422,2.422,0,0,1,1.739.326,1.531,1.531,0,0,1,.623,1.086,2.508,2.508,0,0,1-.962,2.08,2.155,2.155,0,0,1-1.585-.245,1.673,1.673,0,0,1-.709-1.319,2.365,2.365,0,0,1,.894-1.927" transform="translate(-29.64 -169.687)" fill="#fff"/>
          <path id="Trazado_1013239" data-name="Trazado 1013239" d="M24.9,455.146a3.318,3.318,0,0,1-.921-1.276,1.52,1.52,0,0,1,.059-1.265,1.741,1.741,0,0,1,1.016-.766,2.1,2.1,0,0,1,1.735.175,1.284,1.284,0,0,1,.562,1.031,3.352,3.352,0,0,1-.928,2.059c-.507.021-1.016.057-1.523.042" transform="translate(-15.888 -300.724)" fill="#fff"/>
          <path id="Trazado_1013240" data-name="Trazado 1013240" d="M25.3,298.345a1.939,1.939,0,0,1,1.7.4,1.766,1.766,0,0,1,.541,1.4,2.385,2.385,0,0,1-1.016,1.823,2.148,2.148,0,0,1-1.6-.344,1.562,1.562,0,0,1-.589-1.3,2.672,2.672,0,0,1,.971-1.986" transform="translate(-16.196 -198.588)" fill="#fff"/>
          <path id="Trazado_1013241" data-name="Trazado 1013241" d="M65.728,297.864c.047,0,.095,0,.142.009a2.046,2.046,0,0,1,1.539.753,1.83,1.83,0,0,1,.379,1.495,2.161,2.161,0,0,1-1.2,1.5,2.126,2.126,0,0,1-1.566-.5,1.6,1.6,0,0,1-.477-1.3,2.653,2.653,0,0,1,1.182-1.965" transform="translate(-42.965 -198.292)" fill="#fff"/>
          <path id="Trazado_1013242" data-name="Trazado 1013242" d="M64.9,455.069a2.529,2.529,0,0,1-1.026-1.761,1.4,1.4,0,0,1,.521-1.08,2.442,2.442,0,0,1,1.791-.479,1.584,1.584,0,0,1,1.115.572,1.3,1.3,0,0,1,.116,1.211,3.992,3.992,0,0,1-.944,1.541c-.51-.046-1.059-.007-1.573,0" transform="translate(-42.52 -300.724)" fill="#fff"/>
          <path id="Trazado_1013243" data-name="Trazado 1013243" d="M45.684,386.405c.057,0,.114,0,.171,0a2.109,2.109,0,0,1,1.622.752,1.677,1.677,0,0,1,.3,1.448,2.347,2.347,0,0,1-1.213,1.458,1.832,1.832,0,0,1-.4,0,1.937,1.937,0,0,1-1.445-.813,1.807,1.807,0,0,1-.237-1.339,2.2,2.2,0,0,1,1.2-1.509" transform="translate(-29.59 -257.235)" fill="#fff"/>
          <path id="Trazado_1013244" data-name="Trazado 1013244" d="M44.958,455.118a3,3,0,0,1-1.139-2.085,1.209,1.209,0,0,1,.587-.941,2.562,2.562,0,0,1,2.078-.159,1.533,1.533,0,0,1,.89.7,1.229,1.229,0,0,1,.007,1.123,3.529,3.529,0,0,1-1.075,1.355Z" transform="translate(-29.169 -300.762)" fill="#fff"/>
          <path id="Trazado_1013245" data-name="Trazado 1013245" d="M45.794,342.507a2.285,2.285,0,0,1,1.713.686,1.61,1.61,0,0,1,.343,1.4,2.406,2.406,0,0,1-1.351,1.6,2.317,2.317,0,0,1-.432-.052,2.015,2.015,0,0,1-1.432-.988,1.689,1.689,0,0,1-.13-1.3,2.268,2.268,0,0,1,1.29-1.345" transform="translate(-29.579 -228.012)" fill="#fff"/>
          <path id="Trazado_1013246" data-name="Trazado 1013246" d="M65.6,364.454a2.14,2.14,0,0,1,1.873.665,1.5,1.5,0,0,1,.31,1.207,2.49,2.49,0,0,1-1.154,1.685,5.388,5.388,0,0,1-.686,0,1.818,1.818,0,0,1-1.346-.816,1.7,1.7,0,0,1-.19-1.277,2.388,2.388,0,0,1,1.192-1.463" transform="translate(-42.851 -242.622)" fill="#fff"/>
          <path id="Trazado_1013247" data-name="Trazado 1013247" d="M66.052,430.007a2.221,2.221,0,0,1,1.508.85,1.81,1.81,0,0,1,.25,1.532,2.513,2.513,0,0,1-1.389,1.574,2.37,2.37,0,0,1-1.59-1.053,1.846,1.846,0,0,1-.1-.186,1.781,1.781,0,0,1-.079-.2,1.851,1.851,0,0,1-.056-.2,1.92,1.92,0,0,1-.032-.209,1.785,1.785,0,0,1-.008-.211,1.843,1.843,0,0,1,.058-.418,1.827,1.827,0,0,1,.065-.2,2.353,2.353,0,0,1,1.374-1.278" transform="translate(-42.975 -286.262)" fill="#fff"/>
          <path id="Trazado_1013248" data-name="Trazado 1013248" d="M45.749,297.952a2.458,2.458,0,0,1,1.686.867,1.639,1.639,0,0,1,.282,1.4,2.456,2.456,0,0,1-1.272,1.47c-.1-.006-.206-.011-.308-.019a1.931,1.931,0,0,1-1.489-.753,1.711,1.711,0,0,1-.274-1.432,2.372,2.372,0,0,1,1.375-1.532" transform="translate(-29.505 -198.351)" fill="#fff"/>
          <path id="Trazado_1013249" data-name="Trazado 1013249" d="M25.34,429.92c.083,0,.166,0,.249,0a1.943,1.943,0,0,1,1.491.72,1.884,1.884,0,0,1,.393,1.5,2.249,2.249,0,0,1-1.191,1.615,2.291,2.291,0,0,1-1.65-.631,1.644,1.644,0,0,1-.445-1.263,2.681,2.681,0,0,1,1.155-1.944" transform="translate(-16.098 -286.204)" fill="#fff"/>
          <path id="Trazado_1013250" data-name="Trazado 1013250" d="M65.466,408.92a2.451,2.451,0,0,1,1.886.561,1.518,1.518,0,0,1,.516,1.289,2.532,2.532,0,0,1-.95,1.608c-.115.023-.229.044-.345.064a1.866,1.866,0,0,1-1.665-.369,1.584,1.584,0,0,1-.5-1.285,2.46,2.46,0,0,1,1.053-1.866" transform="translate(-42.879 -272.222)" fill="#fff"/>
          <path id="Trazado_1013251" data-name="Trazado 1013251" d="M45.2,430.408a2.252,2.252,0,0,1,1.823.354,1.673,1.673,0,0,1,.627,1.32,2.481,2.481,0,0,1-.935,1.875c-.075.008-.149.019-.224.025a2.146,2.146,0,0,1-1.742-.551,1.7,1.7,0,0,1-.53-1.366,2.277,2.277,0,0,1,.981-1.658" transform="translate(-29.432 -286.501)" fill="#fff"/>
          <path id="Trazado_1013252" data-name="Trazado 1013252" d="M45.278,408.937a5.18,5.18,0,0,1,.684-.019,1.806,1.806,0,0,1,1.305.647A1.694,1.694,0,0,1,47.64,411a2.371,2.371,0,0,1-1.112,1.493,2.452,2.452,0,0,1-1.971-.645,1.543,1.543,0,0,1-.424-1.29,2.421,2.421,0,0,1,1.145-1.625" transform="translate(-29.371 -272.218)" fill="#fff"/>
          <path id="Trazado_1013253" data-name="Trazado 1013253" d="M65.771,386.454c.047,0,.095-.009.142-.011a2.184,2.184,0,0,1,1.727.522,1.573,1.573,0,0,1,.509,1.188,2.452,2.452,0,0,1-1.061,1.9,2,2,0,0,1-1.76-.212,1.6,1.6,0,0,1-.582-1.318,2.613,2.613,0,0,1,1.025-2.066" transform="translate(-43.102 -257.258)" fill="#fff"/>
          <path id="Trazado_1013254" data-name="Trazado 1013254" d="M45.576,319.92a2.309,2.309,0,0,1,1.688.9,1.653,1.653,0,0,1,.227,1.309,2.541,2.541,0,0,1-1.373,1.65,5.1,5.1,0,0,1-.67-.1,1.943,1.943,0,0,1-1.257-.964,1.763,1.763,0,0,1-.066-1.491,2.44,2.44,0,0,1,1.451-1.305" transform="translate(-29.286 -212.975)" fill="#fff"/>
          <path id="Trazado_1013255" data-name="Trazado 1013255" d="M45.734,363.938a2.331,2.331,0,0,1,1.729.764,1.706,1.706,0,0,1,.347,1.428,2.485,2.485,0,0,1-1.4,1.675c-.091-.007-.183-.013-.274-.021a2.111,2.111,0,0,1-1.514-.8,1.728,1.728,0,0,1-.3-1.427,2.474,2.474,0,0,1,1.405-1.619" transform="translate(-29.48 -242.279)" fill="#fff"/>
        </g>
      </g>
    </g>
  </g>
</svg>
